<svg width="26" height="31" viewBox="0 0 26 31" fill="none" xmlns="http://www.w3.org/2000/svg">
<path d="M21.738 16.3502C21.7242 13.8151 22.8709 11.9017 25.1918 10.4926C23.8932 8.63443 21.9315 7.61211 19.3411 7.4118C16.8889 7.21838 14.2088 8.84166 13.2279 8.84166C12.1918 8.84166 9.81562 7.48087 7.95058 7.48087C4.09617 7.54304 0 10.5547 0 16.6817C0 18.4915 0.331562 20.3611 0.994686 22.2906C1.87885 24.8257 5.07014 31.0425 8.39957 30.9389C10.1403 30.8974 11.3698 29.7024 13.6355 29.7024C15.8321 29.7024 16.9718 30.9389 18.9129 30.9389C22.2699 30.8905 25.1573 25.2402 26 22.6982C21.4963 20.5776 21.738 16.4814 21.738 16.3502ZM17.8284 5.00797C19.7141 2.76993 19.5414 0.7322 19.4862 0C17.8215 0.0967056 15.8943 1.13284 14.796 2.41073C13.5871 3.77843 12.8757 5.47078 13.0276 7.37726C14.8305 7.51541 16.4745 6.5898 17.8284 5.00797Z" fill="black"/>
</svg>
