<svg width="37" height="35" viewBox="0 0 37 35" fill="none" xmlns="http://www.w3.org/2000/svg">
<path d="M28.4375 13.8538V12.6872C28.4375 11.0537 28.4375 10.2369 28.1196 9.61304C27.84 9.06423 27.3938 8.61804 26.845 8.33841C26.2211 8.02051 25.4043 8.02051 23.7708 8.02051H11.2292C9.59568 8.02051 8.77894 8.02051 8.15503 8.33841C7.60622 8.61804 7.16003 9.06423 6.8804 9.61304C6.5625 10.2369 6.5625 11.0537 6.5625 12.6872V13.8538M28.4375 13.8538V23.7705C28.4375 25.404 28.4375 26.2207 28.1196 26.8446C27.84 27.3935 27.3938 27.8396 26.845 28.1193C26.2211 28.4372 25.4043 28.4372 23.7708 28.4372H11.2292C9.59568 28.4372 8.77894 28.4372 8.15503 28.1193C7.60622 27.8396 7.16003 27.3935 6.8804 26.8446C6.5625 26.2207 6.5625 25.404 6.5625 23.7705V13.8538M28.4375 13.8538H6.5625" stroke="#292D32" stroke-width="1.94444"/>
<path d="M12.3958 5.10449L12.3958 10.9378M22.6042 5.10449L22.6042 10.9378" stroke="#222222" stroke-width="1.45833" stroke-linecap="round"/>
<path d="M17.5 24.792L17.5 17.5003" stroke="#222222" stroke-width="1.45833" stroke-linecap="round"/>
<path d="M21.1458 21.1455L13.8542 21.1455" stroke="#222222" stroke-width="1.45833" stroke-linecap="round"/>
<circle cx="32.5" cy="6.25024" r="3.75" fill="#E01F24"/>
<path d="M32.8685 3.85469V8.40015H32.3181V4.43175H32.2915L31.1818 5.16861V4.60931L32.3181 3.85469H32.8685Z" fill="white"/>
</svg>
