<svg width="41" height="46" viewBox="0 0 41 46" fill="none" xmlns="http://www.w3.org/2000/svg">
<path d="M30.1051 0C31.5169 0.277927 32.7843 0.811547 33.8626 1.80097C35.4079 3.22395 36.2195 4.99157 36.2417 7.07047C36.2862 10.6835 36.2639 14.2966 36.2528 17.9207C36.2528 19.0769 35.4635 19.8773 34.3851 19.8662C33.329 19.8551 32.5842 19.0658 32.5731 17.9096C32.5619 14.3188 32.5731 10.7391 32.5619 7.14829C32.5508 5.46961 31.5058 4.13556 29.9161 3.73534C29.5047 3.63529 29.0712 3.59082 28.6376 3.59082C21.6227 3.59082 14.619 3.59082 7.60409 3.59082C6.03658 3.59082 4.76923 4.14667 4.0355 5.62524C3.74646 6.19222 3.69087 6.81477 3.69087 7.43733C3.69087 14.2076 3.69087 20.9779 3.69087 27.7594C3.69087 31.2835 3.67976 34.8187 3.69087 38.3428C3.69087 40.066 4.72476 41.4 6.32562 41.8114C6.75919 41.9225 7.20387 41.9559 7.64855 41.9559C9.50511 41.9559 11.3505 41.9448 13.2071 41.967C14.1409 41.9781 14.8747 42.7007 14.9636 43.6457C15.0414 44.4795 14.3855 45.3577 13.5295 45.5356C13.3739 45.5689 13.2071 45.5689 13.0403 45.5689C11.0059 45.5689 8.9826 45.58 6.94818 45.5689C3.49076 45.5356 0.422449 42.7118 0.0667025 39.2655C0.0222342 38.7764 0 38.2872 0 37.7981C0.0222342 27.6371 0.0111171 17.4872 0.0333513 7.33728C0.0444683 4.24673 1.47857 1.96772 4.26896 0.589206C4.8804 0.289044 5.53631 0.155639 6.1811 0C14.152 0 22.123 0 30.1051 0Z" fill="black"/>
<path d="M35.9082 24.1455C37.8648 24.2456 39.5768 25.2795 40.4884 27.3695C41.4223 29.5039 41.0776 31.5384 39.4545 33.2059C36.2528 36.4966 32.9733 39.7094 29.716 42.9667C29.4158 43.2669 29.0489 43.4559 28.6487 43.5782C26.3697 44.2118 24.0796 44.8566 21.8006 45.4681C20.5666 45.8016 19.5772 45.179 19.366 44.0006C19.3104 43.6671 19.3882 43.3447 19.4771 43.0446C20.1442 40.8323 20.8112 38.62 21.4893 36.4077C21.6227 35.9741 21.8562 35.6072 22.1786 35.2848C25.3803 32.0942 28.582 28.9036 31.7949 25.7241C32.8288 24.668 34.1072 24.1677 35.9082 24.1455ZM24.1241 41.0324C24.213 41.0101 24.2797 40.9879 24.3575 40.9657C25.2691 40.71 26.1807 40.4543 27.0923 40.2097C27.3147 40.1541 27.4926 40.0429 27.6593 39.8762C29.6493 37.8862 31.6392 35.8963 33.6403 33.9174C33.8738 33.684 33.8404 33.5617 33.6292 33.3505C33.0066 32.7501 32.3952 32.1498 31.806 31.5273C31.5392 31.2382 31.3835 31.2382 31.0945 31.5273C29.1379 33.5061 27.159 35.4627 25.1913 37.4415C25.0913 37.5416 24.9579 37.6528 24.9134 37.7751C24.591 38.7867 24.2797 39.8095 23.9684 40.8323C23.9129 40.9879 23.9684 41.0657 24.1241 41.0324ZM37.2867 29.5373C37.2867 28.7925 36.8309 28.1365 36.1528 27.9031C35.4746 27.6696 34.652 27.9031 34.2184 28.4256C34.085 28.5812 34.1183 28.6702 34.2406 28.7924C34.9188 29.4706 35.5969 30.1487 36.275 30.8269C36.4307 30.9825 36.553 31.0047 36.7197 30.8269C37.0532 30.4711 37.2978 30.0598 37.2867 29.5373Z" fill="black"/>
<path d="M18.1209 14.2635C15.0748 14.2635 12.0176 14.2746 8.97152 14.2635C7.51519 14.2524 6.69252 12.7405 7.43737 11.4953C7.782 10.9284 8.29338 10.6504 8.96041 10.6504C10.0276 10.6393 11.0949 10.6504 12.1621 10.6504C17.1537 10.6504 22.1453 10.6504 27.1368 10.6504C27.8039 10.6504 28.3708 10.8283 28.7599 11.3842C29.1824 11.9734 29.2713 12.6071 28.9267 13.263C28.5932 13.9078 28.0596 14.2635 27.3258 14.2635C25.0357 14.2746 22.7345 14.2635 20.4444 14.2635C19.6662 14.2635 18.888 14.2635 18.1209 14.2635Z" fill="black"/>
<path d="M18.1209 21.3781C15.0748 21.3781 12.0176 21.3892 8.97152 21.3781C7.51519 21.367 6.69252 19.8662 7.43737 18.6099C7.73753 18.1097 8.20445 17.8428 8.78253 17.765C8.83812 17.7539 8.90482 17.7539 8.96041 17.7539C15.097 17.7539 21.2226 17.7539 27.3592 17.7539C27.9484 17.7539 28.4264 17.9985 28.7599 18.4765C29.1824 19.0657 29.2713 19.6994 28.9267 20.3553C28.5932 21.0001 28.0596 21.3558 27.3258 21.3558C26.0807 21.367 24.8356 21.3558 23.5905 21.3558C21.7673 21.3781 19.9441 21.3781 18.1209 21.3781Z" fill="black"/>
<path d="M14.4967 28.493C12.6402 28.493 10.7947 28.5041 8.93818 28.493C7.99323 28.4819 7.2595 27.7926 7.15945 26.8365C7.05939 26.0028 7.65972 25.1579 8.51573 24.9355C8.67137 24.8911 8.83813 24.8799 8.99377 24.8799C12.6958 24.8799 16.3977 24.8688 20.0997 24.8799C21.078 24.8799 21.8118 25.5692 21.9229 26.5364C22.0119 27.3702 21.4227 28.2039 20.5778 28.4374C20.3554 28.493 20.1331 28.493 19.9219 28.493C18.1098 28.493 16.2977 28.493 14.4967 28.493Z" fill="black"/>
</svg>
