<svg width="18" height="19" viewBox="0 0 18 19" fill="none" xmlns="http://www.w3.org/2000/svg">
<path d="M9.61734 3.62131V0.628699C9.61734 0.461958 9.55111 0.302046 9.4332 0.184142C9.3153 0.0662377 9.15539 0 8.98864 0C8.8219 0 8.66199 0.0662377 8.54409 0.184142C8.42618 0.302046 8.35994 0.461958 8.35994 0.628699V3.62131C7.8165 3.76437 7.33571 4.08334 6.99264 4.52842C6.64956 4.97351 6.4635 5.51966 6.4635 6.08162C6.4635 6.64358 6.64956 7.18973 6.99264 7.63481C7.33571 8.07989 7.8165 8.39886 8.35994 8.54193V17.394C8.35994 17.5608 8.42618 17.7207 8.54409 17.8386C8.66199 17.9565 8.8219 18.0227 8.98864 18.0227C9.15539 18.0227 9.3153 17.9565 9.4332 17.8386C9.55111 17.7207 9.61734 17.5608 9.61734 17.394V8.54193C12.1405 7.89646 12.1405 4.26258 9.61734 3.62131ZM8.98864 7.36416C8.66062 7.34542 8.3522 7.20191 8.1266 6.96305C7.901 6.72419 7.77531 6.40808 7.77531 6.07952C7.77531 5.75096 7.901 5.43485 8.1266 5.19599C8.3522 4.95714 8.66062 4.81362 8.98864 4.79488C9.31667 4.81362 9.62509 4.95714 9.85069 5.19599C10.0763 5.43485 10.202 5.75096 10.202 6.07952C10.202 6.40808 10.0763 6.72419 9.85069 6.96305C9.62509 7.20191 9.31667 7.34542 8.98864 7.36416Z" fill="#292D32"/>
<path d="M18 9.01135C17.9992 8.44743 17.811 7.89978 17.465 7.45444C17.1191 7.0091 16.635 6.69133 16.0888 6.55104V0.628699C16.0888 0.461958 16.0225 0.302046 15.9046 0.184142C15.7867 0.0662377 15.6268 0 15.4601 0C15.2933 0 15.1334 0.0662377 15.0155 0.184142C14.8976 0.302046 14.8314 0.461958 14.8314 0.628699V6.55104C14.2879 6.69411 13.8072 7.01308 13.4641 7.45816C13.121 7.90324 12.9349 8.44939 12.9349 9.01135C12.9349 9.57332 13.121 10.1195 13.4641 10.5645C13.8072 11.0096 14.2879 11.3286 14.8314 11.4717V17.394C14.8314 17.5608 14.8976 17.7207 15.0155 17.8386C15.1334 17.9565 15.2933 18.0227 15.4601 18.0227C15.6268 18.0227 15.7867 17.9565 15.9046 17.8386C16.0225 17.7207 16.0888 17.5608 16.0888 17.394V11.4717C16.635 11.3314 17.1191 11.0136 17.465 10.5683C17.811 10.1229 17.9992 9.57528 18 9.01135ZM15.4852 10.2939C15.1451 10.2939 14.8189 10.1588 14.5783 9.91825C14.3378 9.67773 14.2027 9.35151 14.2027 9.01135C14.2027 8.6712 14.3378 8.34498 14.5783 8.10446C14.8189 7.86393 15.1451 7.72881 15.4852 7.72881C15.8254 7.73103 16.1507 7.86829 16.3897 8.11038C16.6286 8.35248 16.7616 8.67958 16.7594 9.01974C16.7572 9.35989 16.6199 9.68523 16.3778 9.92418C16.1357 10.1631 15.8086 10.2961 15.4685 10.2939H15.4852Z" fill="#292D32"/>
<path d="M3.14593 11.107V0.628699C3.14593 0.461958 3.0797 0.302046 2.96179 0.184142C2.84389 0.0662377 2.68397 0 2.51723 0C2.35049 0 2.19058 0.0662377 2.07268 0.184142C1.95477 0.302046 1.88853 0.461958 1.88853 0.628699V11.107C1.34691 11.2515 0.868148 11.5708 0.526642 12.0153C0.185135 12.4598 0 13.0047 0 13.5652C0 14.1258 0.185135 14.6707 0.526642 15.1152C0.868148 15.5597 1.34691 15.879 1.88853 16.0234V17.394C1.88853 17.5608 1.95477 17.7207 2.07268 17.8386C2.19058 17.9565 2.35049 18.0227 2.51723 18.0227C2.68397 18.0227 2.84389 17.9565 2.96179 17.8386C3.0797 17.7207 3.14593 17.5608 3.14593 17.394V16.0276C3.68938 15.8846 4.17016 15.5656 4.51324 15.1205C4.85632 14.6754 5.04238 14.1293 5.04238 13.5673C5.04238 13.0054 4.85632 12.4592 4.51324 12.0141C4.17016 11.5691 3.68938 11.2501 3.14593 11.107ZM2.51723 14.8541C2.18921 14.8353 1.88079 14.6918 1.65519 14.4529C1.42959 14.2141 1.3039 13.898 1.3039 13.5694C1.3039 13.2409 1.42959 12.9248 1.65519 12.6859C1.88079 12.447 2.18921 12.3035 2.51723 12.2848C2.84525 12.3035 3.15368 12.447 3.37928 12.6859C3.60488 12.9248 3.73056 13.2409 3.73056 13.5694C3.73056 13.898 3.60488 14.2141 3.37928 14.4529C3.15368 14.6918 2.84525 14.8353 2.51723 14.8541Z" fill="#292D32"/>
</svg>
