<svg width="243" height="236" viewBox="0 0 243 236" fill="none" xmlns="http://www.w3.org/2000/svg">
<path d="M116.564 235.265C116.564 235.341 116.579 235.417 116.608 235.488C116.637 235.559 116.68 235.624 116.734 235.678C116.789 235.732 116.853 235.775 116.924 235.804C116.995 235.834 117.071 235.848 117.148 235.848H241.382C241.537 235.848 241.685 235.787 241.795 235.677C241.904 235.568 241.966 235.419 241.966 235.265C241.966 235.11 241.904 234.961 241.795 234.852C241.685 234.742 241.537 234.681 241.382 234.681H117.148C117.071 234.681 116.995 234.696 116.924 234.725C116.853 234.754 116.789 234.797 116.734 234.851C116.68 234.906 116.637 234.97 116.608 235.041C116.579 235.112 116.564 235.188 116.564 235.265Z" fill="#CCCCCC"/>
<path d="M212.927 12.8566C216.477 12.8566 219.355 9.97851 219.355 6.42828C219.355 2.87804 216.477 0 212.927 0C209.377 0 206.499 2.87804 206.499 6.42828C206.499 9.97851 209.377 12.8566 212.927 12.8566Z" fill="#2F2E41"/>
<path d="M154.373 52.8686H141.495V162.662C141.495 164.384 141.156 166.09 140.497 167.681C139.838 169.273 138.871 170.719 137.653 171.937C136.435 173.155 134.989 174.121 133.398 174.781C131.806 175.44 130.1 175.779 128.378 175.779H29.9195V175.905C29.9195 177.627 30.2587 179.333 30.918 180.925C31.5772 182.516 32.5434 183.962 33.7615 185.18C34.9796 186.398 36.4256 187.364 38.0171 188.024C39.6086 188.683 41.3144 189.022 43.037 189.022H154.373C156.096 189.022 157.802 188.683 159.393 188.024C160.985 187.364 162.431 186.398 163.649 185.18C164.867 183.962 165.833 182.516 166.492 180.925C167.152 179.333 167.491 177.627 167.491 175.905V65.9861C167.491 62.5071 166.109 59.1706 163.649 56.7106C161.189 54.2506 157.852 52.8686 154.373 52.8686Z" fill="#F2F2F2"/>
<path d="M215.422 227.347C215.65 227.357 215.875 227.297 216.068 227.175C216.261 227.053 216.412 226.875 216.5 226.664C216.588 226.454 216.609 226.221 216.56 225.998C216.512 225.775 216.396 225.572 216.228 225.417L216.152 225.114C216.162 225.09 216.172 225.066 216.182 225.041C216.412 224.499 216.797 224.036 217.288 223.712C217.78 223.387 218.357 223.216 218.946 223.218C219.535 223.22 220.11 223.396 220.6 223.724C221.089 224.052 221.47 224.518 221.696 225.062C222.598 227.234 223.746 229.41 224.029 231.706C224.153 232.721 224.101 233.75 223.873 234.747C225.991 230.127 227.091 225.105 227.098 220.023C227.099 218.747 227.028 217.473 226.886 216.205C226.769 215.166 226.606 214.134 226.398 213.11C225.263 207.552 222.826 202.343 219.286 197.91C217.573 196.975 216.188 195.538 215.317 193.792C215.001 193.164 214.778 192.494 214.655 191.802C214.848 191.828 215.383 188.885 215.238 188.704C215.507 188.295 215.989 188.092 216.283 187.693C217.746 185.71 219.761 186.056 220.813 188.752C223.061 189.886 223.082 191.767 221.703 193.576C220.826 194.727 220.705 196.285 219.936 197.517C220.015 197.619 220.097 197.717 220.176 197.818C221.624 199.68 222.886 201.679 223.944 203.787C223.687 201.425 223.994 199.037 224.84 196.817C225.697 194.749 227.304 193.007 228.72 191.218C229.094 190.738 229.602 190.379 230.18 190.188C230.758 189.996 231.38 189.98 231.967 190.142C232.555 190.304 233.08 190.636 233.479 191.097C233.877 191.558 234.13 192.126 234.205 192.731C234.208 192.757 234.211 192.783 234.214 192.81C234.003 192.928 233.798 193.054 233.596 193.187C233.343 193.356 233.147 193.598 233.034 193.88C232.921 194.162 232.895 194.472 232.961 194.769C233.027 195.066 233.181 195.336 233.403 195.544C233.625 195.752 233.904 195.889 234.205 195.935L234.236 195.94C234.161 196.697 234.029 197.448 233.84 198.186C235.655 205.207 231.736 207.765 226.138 207.88C226.015 207.943 225.895 208.006 225.771 208.067C226.834 211.078 227.5 214.216 227.754 217.399C227.898 219.278 227.889 221.165 227.729 223.042L227.738 222.975C228.144 220.888 229.257 219.005 230.89 217.643C233.316 215.651 236.743 214.917 239.36 213.315C239.638 213.137 239.962 213.041 240.292 213.041C240.623 213.04 240.947 213.133 241.226 213.311C241.505 213.488 241.727 213.741 241.867 214.041C242.007 214.34 242.058 214.673 242.014 215.001L242.004 215.071C241.614 215.23 241.234 215.413 240.866 215.619C240.656 215.738 240.45 215.864 240.249 215.997C239.996 216.166 239.8 216.407 239.687 216.689C239.573 216.972 239.548 217.282 239.614 217.579C239.679 217.876 239.833 218.146 240.055 218.354C240.277 218.562 240.557 218.698 240.858 218.744L240.889 218.749C240.911 218.752 240.93 218.755 240.952 218.759C240.285 220.35 239.35 221.815 238.186 223.089C237.051 229.219 232.175 229.8 226.959 228.015H226.956C226.384 230.502 225.554 232.923 224.482 235.238H215.643C215.611 235.14 215.583 235.039 215.554 234.94C216.372 234.992 217.194 234.943 218 234.795C217.344 233.99 216.688 233.179 216.033 232.374C216.018 232.359 216.004 232.344 215.991 232.327C215.659 231.915 215.323 231.506 214.99 231.095L214.99 231.094C214.972 229.832 215.118 228.572 215.422 227.347Z" fill="#F2F2F2"/>
<path d="M118.071 37.9337C118.394 38.4226 118.819 38.8356 119.317 39.144C119.815 39.4525 120.374 39.6492 120.956 39.7203C121.537 39.7915 122.127 39.7355 122.685 39.5562C123.242 39.377 123.755 39.0787 124.186 38.6821L142.562 46.9726L146.104 42.4536L124.207 32.7664C123.485 32.0905 122.541 31.7027 121.552 31.6766C120.564 31.6505 119.6 31.9879 118.844 32.6248C118.088 33.2617 117.591 34.154 117.449 35.1324C117.307 36.1109 117.528 37.1076 118.071 37.9337Z" fill="#A0616A"/>
<path d="M196.933 43.1033L198.756 53.4311C198.841 53.9129 198.824 54.4072 198.707 54.8822C198.589 55.3572 198.374 55.8024 198.075 56.1893C197.775 56.5761 197.398 56.8961 196.967 57.1286C196.537 57.3611 196.063 57.501 195.575 57.5394L164.606 59.9747L128.204 43.683L132.552 35.4296L164.152 45.4365L196.933 43.1033Z" fill="#E15145"/>
<path d="M124.454 35.7017H13.1175C5.87286 35.7017 -6.10352e-05 41.5746 -6.10352e-05 48.8192V158.738C-6.10352e-05 165.982 5.87286 171.855 13.1175 171.855H124.454C131.699 171.855 137.571 165.982 137.571 158.738V48.8192C137.571 41.5746 131.699 35.7017 124.454 35.7017Z" fill="#F2F2F2"/>
<path d="M13.1176 38.3993C11.7492 38.3993 10.3942 38.6688 9.13004 39.1925C7.86584 39.7161 6.71716 40.4836 5.74958 41.4512C4.782 42.4188 4.01447 43.5675 3.49082 44.8317C2.96717 46.0959 2.69766 47.4508 2.69766 48.8192V158.738C2.69766 161.501 3.79547 164.152 5.74958 166.106C7.70369 168.06 10.354 169.158 13.1176 169.158H84.1752C90.833 169.158 97.4256 167.846 103.577 165.299C109.728 162.751 115.317 159.016 120.024 154.309C124.732 149.601 128.467 144.012 131.015 137.861C133.562 131.71 134.874 125.117 134.874 118.459V48.8192C134.874 47.4508 134.604 46.0959 134.081 44.8317C133.557 43.5675 132.789 42.4188 131.822 41.4512C130.854 40.4836 129.706 39.7161 128.441 39.1925C127.177 38.6688 125.822 38.3993 124.454 38.3993H13.1176Z" fill="white"/>
<path d="M99.9094 71.7577H37.4186C36.8452 71.7577 36.2952 71.5299 35.8898 71.1244C35.4843 70.7189 35.2565 70.169 35.2565 69.5956C35.2565 69.0222 35.4843 68.4723 35.8898 68.0668C36.2952 67.6613 36.8452 67.4335 37.4186 67.4335H99.9094C100.483 67.4335 101.033 67.6613 101.438 68.0668C101.844 68.4723 102.071 69.0222 102.071 69.5956C102.071 70.169 101.844 70.7189 101.438 71.1244C101.033 71.5299 100.483 71.7577 99.9094 71.7577Z" fill="#F2F2F2"/>
<path d="M99.9094 117.863H37.4186C36.8452 117.863 36.2952 117.635 35.8898 117.23C35.4843 116.824 35.2565 116.274 35.2565 115.701C35.2565 115.128 35.4843 114.578 35.8898 114.172C36.2952 113.767 36.8452 113.539 37.4186 113.539H99.9094C100.483 113.539 101.033 113.767 101.438 114.172C101.844 114.578 102.071 115.128 102.071 115.701C102.071 116.274 101.844 116.824 101.438 117.23C101.033 117.635 100.483 117.863 99.9094 117.863Z" fill="#F2F2F2"/>
<path d="M125.286 94.8256H12.0424C11.469 94.8256 10.9191 94.5978 10.5136 94.1924C10.1081 93.7869 9.88034 93.2369 9.88034 92.6635C9.88034 92.0901 10.1081 91.5402 10.5136 91.1347C10.9191 90.7293 11.469 90.5015 12.0424 90.5015H125.286C125.859 90.5015 126.409 90.7293 126.814 91.1347C127.22 91.5402 127.448 92.0901 127.448 92.6635C127.448 93.2369 127.22 93.7869 126.814 94.1924C126.409 94.5978 125.859 94.8256 125.286 94.8256Z" fill="#F2F2F2"/>
<path d="M193.021 88.624L181.739 112.658L225.136 108.262L216.077 85.1906L193.021 88.624Z" fill="#A0616A"/>
<path d="M203.11 226.76L198.995 226.726L197.174 210.485L203.246 210.537L203.11 226.76Z" fill="#A0616A"/>
<path d="M189.93 233.303C189.927 233.791 190.117 234.26 190.459 234.608C190.8 234.956 191.266 235.154 191.754 235.159L199.935 235.227L201.367 232.324L201.893 235.242L204.98 235.27L204.2 224.863L203.126 224.792L198.746 224.49L197.333 224.395L197.308 227.34L190.736 231.797C190.49 231.964 190.288 232.188 190.148 232.451C190.007 232.713 189.933 233.005 189.93 233.303Z" fill="#2F2E41"/>
<path d="M157.576 226.779L153.653 225.537L156.684 209.478L162.473 211.311L157.576 226.779Z" fill="#A0616A"/>
<path d="M143.056 229.161C142.909 229.626 142.953 230.13 143.177 230.563C143.402 230.996 143.789 231.322 144.254 231.47L152.053 233.939L154.275 231.585L153.921 234.528L156.863 235.462L159.175 225.286L158.17 224.902L154.072 223.327L152.749 222.821L151.86 225.628L144.269 227.958C143.984 228.045 143.725 228.2 143.514 228.41C143.303 228.619 143.146 228.877 143.056 229.161Z" fill="#2F2E41"/>
<path d="M223.16 101.504L183.702 108.734C183.702 108.734 177.373 113.468 179.066 115.163C180.759 116.859 181.021 116.596 179.909 117.709C178.797 118.821 176.392 120.308 176.368 121.281C176.344 122.254 158.687 165.907 158.687 165.907C158.687 165.907 160.649 164.926 159.177 166.398C157.706 167.869 157.706 169.085 157.706 169.085L150.839 215.446L161.991 216.103L172.911 173.836L197.268 134.35C197.268 134.35 199.685 169.562 199.786 171.904C199.887 174.245 201.359 171.303 199.887 174.245C198.416 177.188 197.435 175.226 198.416 177.188C199.397 179.15 194.882 219.093 194.882 219.093H205.061L226.893 136.303C226.893 136.303 234.66 112.635 223.16 101.504Z" fill="#2F2E41"/>
<path d="M211.536 35.2826L195.73 33.6403L191.635 38.9568L186.864 41.4976C184.846 42.5729 183.179 44.2068 182.064 46.2042C180.95 48.2015 180.434 50.4776 180.579 52.7603L186.154 85.1906C186.154 85.1906 181.445 95.7944 184.682 98.4337C187.92 101.073 182.179 107.609 189.097 104.319C196.014 101.03 225.883 104.81 225.883 104.81L219.507 86.6621L224.27 68.8293L224.794 53.8767C224.892 51.0826 224.063 48.3346 222.436 46.061C220.809 43.7874 218.475 42.1159 215.799 41.3072L215.133 41.1059L211.536 35.2826Z" fill="#E15145"/>
<path d="M233.296 23.1655C233.399 27.6206 231.734 31.9344 229.342 35.7234C228.632 33.5114 227.354 31.4983 226.022 29.5792C226.693 33.7307 225.978 37.9879 223.986 41.6919C223.916 41.7421 223.843 41.7888 223.768 41.8317C221.819 43.0044 219.347 43.4794 217.238 42.6324C221.596 37.9352 222.15 30.1526 218.497 24.8839C217.462 23.3889 216.125 22.0667 215.484 20.3654C214.473 17.6508 215.445 14.6619 216.058 11.8317C216.632 9.1976 216.732 6.063 214.965 4.13253C215.154 3.86276 215.411 3.64801 215.71 3.51031C216.009 3.3726 216.339 3.31689 216.667 3.34887C217.757 3.50278 218.55 4.44984 219.055 5.42525C219.56 6.40063 219.893 7.48168 220.597 8.32417C221.901 9.90108 224.121 10.2739 225.992 11.105C230.523 13.1231 233.187 18.2083 233.296 23.1655Z" fill="#2F2E41"/>
<path d="M234.274 126.421C236.712 126.421 238.688 124.445 238.688 122.007C238.688 119.569 236.712 117.592 234.274 117.592C231.836 117.592 229.859 119.569 229.859 122.007C229.859 124.445 231.836 126.421 234.274 126.421Z" fill="#E15145"/>
<path d="M195.157 20.6183C195.416 19.7121 193.631 25.2516 194.492 25.3516C198.414 25.8016 203.798 28.144 206.53 29.2368C206.653 29.2225 206.776 29.2082 206.896 29.1904C207.189 29.1582 207.475 29.1118 207.757 29.0583C214.118 27.8547 216.564 18.0836 216.564 17.9944C216.564 17.5551 215.51 5.49045 213.849 5.31191C213.413 5.26458 212.974 5.24074 212.535 5.24048H208.414C207.561 5.05672 206.697 4.93143 205.827 4.8655H205.82C197.523 4.23338 190.981 9.29028 191.593 15.4436C191.597 15.4507 191.604 15.4579 191.607 15.465C191.785 15.7293 191.94 15.9793 192.078 16.2185C192.212 16.4435 192.324 16.6578 192.421 16.8614C193.178 18.4327 191.234 20.41 192.523 20.7791C194.237 21.2699 188.014 37.4033 194.8 37.4033C191.499 38.3417 194.442 23.1182 195.157 20.6183Z" fill="#2F2E41"/>
<path d="M202.563 30.0848C207.952 30.0848 212.32 25.7162 212.32 20.3273C212.32 14.9384 207.952 10.5698 202.563 10.5698C197.174 10.5698 192.806 14.9384 192.806 20.3273C192.806 25.7162 197.174 30.0848 202.563 30.0848Z" fill="#A0616A"/>
<path d="M191.593 15.9757C191.756 16.0614 191.915 16.1399 192.078 16.2185C192.248 16.3006 192.418 16.3828 192.588 16.4578C195.855 17.9398 198.515 18.1041 200.128 15.9757C200.172 14.8557 200.423 13.7536 200.87 12.7258C200.791 13.8744 201.094 15.0169 201.731 15.9757H204.981C208.327 18.197 210.046 18.4291 207.723 25.7216C207.075 27.7537 204.5 39.5781 205.513 41.3316C205.806 41.2995 208.924 28.348 209.207 28.2945C215.568 27.091 219.609 16.6113 219.092 16.0185C219.094 14.3327 218.707 12.6691 217.959 11.158C217.014 9.24356 215.54 7.63994 213.711 6.53681C212.622 6.00841 211.486 5.58162 210.317 5.26186C210.289 5.25471 210.263 5.24756 210.234 5.24043C209.876 5.144 209.511 5.05472 209.145 4.97972C208.39 4.82031 207.627 4.70465 206.858 4.63331C206.804 4.62974 206.75 4.62616 206.699 4.62616C206.392 4.62688 206.091 4.70949 205.827 4.86545C205.824 4.86545 205.824 4.86901 205.82 4.86901C205.631 4.97932 205.466 5.12623 205.335 5.30112C205.104 5.59538 204.979 5.95907 204.981 6.33322H201.362C201.228 6.33322 201.095 6.33679 200.961 6.34392C198.546 6.42645 196.249 7.40716 194.519 9.09413C192.789 10.7811 191.751 13.0529 191.607 15.465C191.597 15.6364 191.593 15.8042 191.593 15.9757Z" fill="#2F2E41"/>
<path d="M234.323 123.827C234.637 123.332 234.84 122.775 234.917 122.195C234.994 121.614 234.944 121.023 234.771 120.464C234.598 119.904 234.305 119.389 233.913 118.954C233.521 118.519 233.039 118.174 232.5 117.943L232.532 97.7834L226.958 96.4037L227.096 120.348C226.775 121.283 226.808 122.304 227.189 123.216C227.571 124.128 228.273 124.869 229.164 125.298C230.055 125.727 231.072 125.814 232.023 125.543C232.974 125.272 233.793 124.661 234.323 123.827Z" fill="#A0616A"/>
<path d="M206.721 49.7728L215.395 43.878C215.799 43.603 216.257 43.4156 216.739 43.328C217.22 43.2403 217.714 43.2543 218.19 43.3689C218.665 43.4836 219.112 43.6965 219.5 43.9939C219.889 44.2913 220.211 44.6666 220.446 45.0958L235.358 72.3464L235.415 112.228L226.105 111.644L222.283 78.7184L206.721 49.7728Z" fill="#E15145"/>
<path d="M140.104 140.218H47.403C45.3867 140.218 43.453 141.019 42.0272 142.445C40.6015 143.871 39.8005 145.804 39.8005 147.821C39.8005 149.837 40.6015 151.771 42.0272 153.197C43.453 154.622 45.3867 155.423 47.403 155.423H140.104C142.121 155.423 144.054 154.622 145.48 153.197C146.906 151.771 147.707 149.837 147.707 147.821C147.707 145.804 146.906 143.871 145.48 142.445C144.054 141.019 142.121 140.218 140.104 140.218Z" fill="white"/>
<path d="M140.104 155.914H47.403C45.2566 155.914 43.1981 155.061 41.6804 153.543C40.1627 152.026 39.31 149.967 39.31 147.821C39.31 145.674 40.1627 143.616 41.6804 142.098C43.1981 140.58 45.2566 139.728 47.403 139.728H140.104C142.251 139.728 144.309 140.58 145.827 142.098C147.345 143.616 148.197 145.674 148.197 147.821C148.197 149.967 147.345 152.026 145.827 153.543C144.309 155.061 142.251 155.914 140.104 155.914ZM47.403 140.709C45.5168 140.709 43.7078 141.458 42.3741 142.792C41.0403 144.126 40.291 145.935 40.291 147.821C40.291 149.707 41.0403 151.516 42.3741 152.85C43.7078 154.183 45.5168 154.933 47.403 154.933H140.104C141.991 154.933 143.8 154.183 145.133 152.85C146.467 151.516 147.216 149.707 147.216 147.821C147.216 145.935 146.467 144.126 145.133 142.792C143.8 141.458 141.991 140.709 140.104 140.709H47.403Z" fill="#E15145"/>
<path d="M145.571 173.396H104.661C104.088 173.396 103.538 173.168 103.132 172.763C102.727 172.357 102.499 171.807 102.499 171.234C102.499 170.66 102.727 170.11 103.132 169.705C103.538 169.3 104.088 169.072 104.661 169.072H145.571C146.144 169.072 146.694 169.3 147.099 169.705C147.505 170.11 147.733 170.66 147.733 171.234C147.733 171.807 147.505 172.357 147.099 172.763C146.694 173.168 146.144 173.396 145.571 173.396Z" fill="#E15145"/>
</svg>
