<svg width="55" height="36" viewBox="0 0 55 36" fill="none" xmlns="http://www.w3.org/2000/svg">
<mask id="path-1-inside-1_635_2849" fill="white">
<path d="M0 24.6097C0.106573 23.6293 0.191832 22.6275 0.31972 21.647C0.980474 16.5741 2.08884 11.6078 4.45476 7.02515C5.52049 4.97894 6.842 3.14588 8.71769 1.73911C10.4868 0.417605 12.533 -0.179205 14.7071 0.0765705C16.7959 0.332346 18.8635 0.822583 20.9523 1.22756C22.9132 1.61123 24.8529 2.12278 26.8138 2.33592C28.0288 2.46381 29.329 2.20804 30.5652 1.97357C33.0803 1.46202 35.5528 0.801269 38.068 0.289717C40.1355 -0.136576 42.203 -0.157891 44.2066 0.67338C45.997 1.39808 47.3398 2.67696 48.5121 4.16898C50.6649 6.91857 51.8372 10.1158 52.7964 13.4195C54.0753 17.8743 54.8426 22.4143 54.7573 27.0609C54.7147 29.1071 54.5442 31.1533 53.6277 33.0503C52.5406 35.2884 50.6223 36.2688 48.1498 35.8852C46.1675 35.5655 44.441 34.6276 42.8424 33.4979C41.3291 32.4109 39.8158 31.3238 38.4943 30.045C35.9578 27.5512 32.8885 26.4854 29.4568 26.187C26.5367 25.9312 23.6593 26.1657 20.867 27.1249C19.3537 27.6364 18.0535 28.489 16.9025 29.576C15.0481 31.2812 13.1085 32.8798 10.9557 34.18C9.65554 34.9686 8.31271 35.6507 6.79937 35.9065C4.13504 36.3541 2.02489 35.1818 1.00179 32.6667C0.426293 31.3238 0.213146 30.0023 0.106573 28.6382C0.0852586 28.3611 0.0426293 28.084 0 27.8069C0 26.7412 0 25.6755 0 24.6097ZM2.53644 25.7181C2.53644 28.1053 2.6217 29.7679 3.17588 31.3452C3.75138 32.9438 4.88105 33.6685 6.47965 33.2208C7.58802 32.9011 8.73901 32.4748 9.67685 31.8354C11.6591 30.4499 13.5348 28.9366 15.3892 27.3806C17.0517 25.9952 18.8848 24.9934 20.9523 24.4179C25.1726 23.2243 29.4142 23.203 33.6558 24.3966C35.6594 24.9721 37.4712 25.9312 39.0484 27.338C40.647 28.7448 42.3096 30.1089 44.0148 31.3878C45.3363 32.3683 46.7643 33.1569 48.4269 33.434C49.7271 33.6471 50.6436 33.2208 51.2404 32.0485C51.9012 30.7483 52.093 29.3416 52.1569 27.9135C52.3488 23.2882 51.6028 18.7908 50.4091 14.3574C49.5992 11.352 48.4908 8.47454 46.6151 5.9381C44.8247 3.48691 42.4162 2.22935 39.3682 2.67696C37.1514 2.99668 34.956 3.48691 32.7819 4.04109C29.265 4.97894 25.7694 5.08551 22.2525 4.10504C20.0571 3.50823 17.819 3.01799 15.581 2.65564C13.2577 2.27198 11.1262 2.8901 9.37845 4.55265C7.77985 6.04467 6.71411 7.89905 5.90416 9.88131C3.68743 15.1673 2.64302 20.7305 2.53644 25.7181Z"/>
</mask>
<path d="M0 24.6097C0.106573 23.6293 0.191832 22.6275 0.31972 21.647C0.980474 16.5741 2.08884 11.6078 4.45476 7.02515C5.52049 4.97894 6.842 3.14588 8.71769 1.73911C10.4868 0.417605 12.533 -0.179205 14.7071 0.0765705C16.7959 0.332346 18.8635 0.822583 20.9523 1.22756C22.9132 1.61123 24.8529 2.12278 26.8138 2.33592C28.0288 2.46381 29.329 2.20804 30.5652 1.97357C33.0803 1.46202 35.5528 0.801269 38.068 0.289717C40.1355 -0.136576 42.203 -0.157891 44.2066 0.67338C45.997 1.39808 47.3398 2.67696 48.5121 4.16898C50.6649 6.91857 51.8372 10.1158 52.7964 13.4195C54.0753 17.8743 54.8426 22.4143 54.7573 27.0609C54.7147 29.1071 54.5442 31.1533 53.6277 33.0503C52.5406 35.2884 50.6223 36.2688 48.1498 35.8852C46.1675 35.5655 44.441 34.6276 42.8424 33.4979C41.3291 32.4109 39.8158 31.3238 38.4943 30.045C35.9578 27.5512 32.8885 26.4854 29.4568 26.187C26.5367 25.9312 23.6593 26.1657 20.867 27.1249C19.3537 27.6364 18.0535 28.489 16.9025 29.576C15.0481 31.2812 13.1085 32.8798 10.9557 34.18C9.65554 34.9686 8.31271 35.6507 6.79937 35.9065C4.13504 36.3541 2.02489 35.1818 1.00179 32.6667C0.426293 31.3238 0.213146 30.0023 0.106573 28.6382C0.0852586 28.3611 0.0426293 28.084 0 27.8069C0 26.7412 0 25.6755 0 24.6097ZM2.53644 25.7181C2.53644 28.1053 2.6217 29.7679 3.17588 31.3452C3.75138 32.9438 4.88105 33.6685 6.47965 33.2208C7.58802 32.9011 8.73901 32.4748 9.67685 31.8354C11.6591 30.4499 13.5348 28.9366 15.3892 27.3806C17.0517 25.9952 18.8848 24.9934 20.9523 24.4179C25.1726 23.2243 29.4142 23.203 33.6558 24.3966C35.6594 24.9721 37.4712 25.9312 39.0484 27.338C40.647 28.7448 42.3096 30.1089 44.0148 31.3878C45.3363 32.3683 46.7643 33.1569 48.4269 33.434C49.7271 33.6471 50.6436 33.2208 51.2404 32.0485C51.9012 30.7483 52.093 29.3416 52.1569 27.9135C52.3488 23.2882 51.6028 18.7908 50.4091 14.3574C49.5992 11.352 48.4908 8.47454 46.6151 5.9381C44.8247 3.48691 42.4162 2.22935 39.3682 2.67696C37.1514 2.99668 34.956 3.48691 32.7819 4.04109C29.265 4.97894 25.7694 5.08551 22.2525 4.10504C20.0571 3.50823 17.819 3.01799 15.581 2.65564C13.2577 2.27198 11.1262 2.8901 9.37845 4.55265C7.77985 6.04467 6.71411 7.89905 5.90416 9.88131C3.68743 15.1673 2.64302 20.7305 2.53644 25.7181Z" fill="black"/>
<path d="M0 24.6097L-4.97072 24.0694L-5 24.3388V24.6097H0ZM0.31972 21.647L5.27772 22.2937L5.27784 22.2928L0.31972 21.647ZM4.45476 7.02515L0.0201912 4.71547L0.0160464 4.72343L0.0119301 4.7314L4.45476 7.02515ZM8.71769 1.73911L5.72541 -2.26668L5.71769 -2.26089L8.71769 1.73911ZM14.7071 0.0765705L15.3148 -4.88636L15.3031 -4.8878L15.2913 -4.88918L14.7071 0.0765705ZM20.9523 1.22756L21.9124 -3.67941L21.904 -3.68104L20.9523 1.22756ZM26.8138 2.33592L26.2735 7.30664L26.282 7.30756L26.2904 7.30845L26.8138 2.33592ZM30.5652 1.97357L31.4969 6.88601L31.5294 6.87985L31.5618 6.87326L30.5652 1.97357ZM38.068 0.289717L39.0645 5.18942L39.0777 5.18671L38.068 0.289717ZM44.2066 0.67338L42.2905 5.29167L42.3105 5.29998L42.3306 5.30811L44.2066 0.67338ZM48.5121 4.16898L52.449 1.08661L52.4437 1.07987L48.5121 4.16898ZM52.7964 13.4195L57.6023 12.0399L57.6002 12.0327L57.5981 12.0255L52.7964 13.4195ZM54.7573 27.0609L59.7563 27.1651L59.7565 27.1526L54.7573 27.0609ZM53.6277 33.0503L58.1252 35.2349L58.1297 35.2255L53.6277 33.0503ZM48.1498 35.8852L47.3536 40.8214L47.3684 40.8238L47.3831 40.826L48.1498 35.8852ZM42.8424 33.4979L39.9254 37.5589L39.9411 37.5701L39.9569 37.5813L42.8424 33.4979ZM38.4943 30.045L34.9888 33.6103L35.0029 33.6242L35.0172 33.638L38.4943 30.045ZM29.4568 26.187L29.0206 31.1679L29.0237 31.1682L29.4568 26.187ZM20.867 27.1249L22.4682 31.8616L22.4798 31.8576L22.4914 31.8536L20.867 27.1249ZM16.9025 29.576L20.2869 33.2565L20.3114 33.234L20.3356 33.2111L16.9025 29.576ZM10.9557 34.18L8.37079 29.9L8.36267 29.905L10.9557 34.18ZM6.79937 35.9065L7.62776 40.8374L7.63263 40.8366L6.79937 35.9065ZM1.00179 32.6667L5.63327 30.7827L5.61579 30.7397L5.59751 30.6971L1.00179 32.6667ZM0.106573 28.6382L-4.8787 29.0217L-4.87824 29.0276L0.106573 28.6382ZM0 27.8069H-5V28.1893L-4.94186 28.5672L0 27.8069ZM2.53644 25.7181L-2.46242 25.6113L-2.46356 25.6647V25.7181H2.53644ZM3.17588 31.3452L-1.54142 33.0026L-1.53506 33.0207L-1.52855 33.0388L3.17588 31.3452ZM6.47965 33.2208L7.8278 38.0357L7.84665 38.0304L7.86546 38.025L6.47965 33.2208ZM9.67685 31.8354L12.4935 35.9665L12.5175 35.9502L12.5412 35.9336L9.67685 31.8354ZM15.3892 27.3806L12.1883 23.5395L12.1818 23.5449L12.1753 23.5504L15.3892 27.3806ZM20.9523 24.4179L22.2931 29.2348L22.3031 29.232L22.3131 29.2292L20.9523 24.4179ZM33.6558 24.3966L35.0362 19.5909L35.0232 19.5872L35.0103 19.5835L33.6558 24.3966ZM39.0484 27.338L35.7204 31.0695L35.7328 31.0806L35.7453 31.0916L39.0484 27.338ZM44.0148 31.3878L41.0148 35.3878L41.0251 35.3956L41.0355 35.4033L44.0148 31.3878ZM48.4269 33.434L47.6049 38.366L47.618 38.3681L48.4269 33.434ZM51.2404 32.0485L55.6962 34.317L55.6978 34.3138L51.2404 32.0485ZM52.1569 27.9135L57.1519 28.1372L57.1523 28.1289L57.1527 28.1207L52.1569 27.9135ZM50.4091 14.3574L55.2372 13.0575L55.2369 13.0563L50.4091 14.3574ZM46.6151 5.9381L42.5775 8.8873L42.5862 8.89918L42.595 8.911L46.6151 5.9381ZM39.3682 2.67696L40.0819 7.62577L40.0946 7.6239L39.3682 2.67696ZM32.7819 4.04109L31.5469 -0.803978L31.5202 -0.797176L31.4936 -0.79008L32.7819 4.04109ZM22.2525 4.10504L23.5952 -0.711293L23.5797 -0.715626L23.5641 -0.719859L22.2525 4.10504ZM15.581 2.65564L14.7664 7.58883L14.7741 7.59011L14.7819 7.59137L15.581 2.65564ZM9.37845 4.55265L12.79 8.20792L12.8074 8.19176L12.8245 8.17544L9.37845 4.55265ZM5.90416 9.88131L10.5151 11.8149L10.524 11.7938L10.5327 11.7725L5.90416 9.88131ZM4.97072 25.15C5.09575 23.9998 5.15739 23.2162 5.27772 22.2937L-4.63828 21.0003C-4.77372 22.0387 -4.8826 23.2587 -4.97072 24.0694L4.97072 25.15ZM5.27784 22.2928C5.90426 17.4835 6.91127 13.1663 8.89759 9.31889L0.0119301 4.7314C-2.7336 10.0493 -3.94331 15.6647 -4.6384 21.0012L5.27784 22.2928ZM8.88933 9.33482C9.74146 7.69873 10.6336 6.55216 11.7177 5.73911L5.71769 -2.26089C3.05038 -0.260405 1.29953 2.25915 0.0201912 4.71547L8.88933 9.33482ZM11.71 5.7449C12.5229 5.13763 13.3032 4.94588 14.1229 5.04232L15.2913 -4.88918C11.7629 -5.30429 8.45069 -4.30242 5.72542 -2.26667L11.71 5.7449ZM14.0994 5.0395C15.9588 5.26718 17.6378 5.67806 20.0006 6.13616L21.904 -3.68104C20.0891 -4.03289 17.6331 -4.60249 15.3148 -4.88636L14.0994 5.0395ZM19.9922 6.13452C21.5141 6.43228 24.0413 7.06401 26.2735 7.30664L27.3541 -2.6348C25.6644 -2.81846 24.3124 -3.20983 21.9124 -3.6794L19.9922 6.13452ZM26.2904 7.30845C28.3821 7.52863 30.459 7.08285 31.4969 6.88601L29.6335 -2.93886C28.199 -2.66678 27.6754 -2.60101 27.3373 -2.6366L26.2904 7.30845ZM31.5618 6.87326C32.9056 6.59993 34.2259 6.28922 35.4606 5.999C36.7197 5.70307 37.8932 5.42763 39.0645 5.1894L37.0714 -4.60997C35.7276 -4.33664 34.4073 -4.02593 33.1726 -3.73571C31.9135 -3.43978 30.7399 -3.16433 29.5687 -2.92611L31.5618 6.87326ZM39.0777 5.18671C40.5399 4.88522 41.5126 4.96891 42.2905 5.29167L46.1227 -3.94491C42.8934 -5.28469 39.7311 -5.15837 37.0583 -4.60728L39.0777 5.18671ZM42.3306 5.30811C42.9873 5.57393 43.678 6.10935 44.5806 7.25809L52.4437 1.07987C51.0017 -0.755436 49.0067 -2.77777 46.0825 -3.96135L42.3306 5.30811ZM44.5753 7.25135C46.1219 9.2267 47.0816 11.6685 47.9947 14.8136L57.5981 12.0255C56.5929 8.56302 55.208 4.61044 52.449 1.08662L44.5753 7.25135ZM47.9905 14.7992C49.1683 18.9019 49.8322 22.936 49.7582 26.9692L59.7565 27.1526C59.853 21.8927 58.9822 16.8467 57.6023 12.0399L47.9905 14.7992ZM49.7584 26.9568C49.7183 28.8845 49.5455 30.0061 49.1256 30.8752L58.1297 35.2255C59.5429 32.3006 59.7112 29.3298 59.7562 27.1651L49.7584 26.9568ZM49.1301 30.8658C49.0891 30.9503 49.0544 31.0076 49.0305 31.0432C49.0186 31.0609 49.0093 31.0734 49.0031 31.0812C49 31.0851 48.9977 31.088 48.9961 31.0898C48.9945 31.0917 48.9937 31.0925 48.9937 31.0925C48.9937 31.0925 48.9945 31.0917 48.996 31.0902C48.9975 31.0887 48.9998 31.0865 49.0028 31.0838C49.0089 31.0782 49.0176 31.0707 49.0289 31.0621C49.0525 31.0441 49.082 31.0248 49.116 31.0073C49.1904 30.9689 49.2397 30.9621 49.2321 30.9631C49.2185 30.9649 49.12 30.9759 48.9165 30.9443L47.3831 40.826C49.4636 41.1489 51.6678 40.9431 53.7005 39.8945C55.7402 38.8423 57.1924 37.1553 58.1252 35.2348L49.1301 30.8658ZM48.946 30.949C48.0384 30.8026 47.0413 30.3427 45.728 29.4146L39.9569 37.5813C41.8408 38.9125 44.2967 40.3283 47.3536 40.8214L48.946 30.949ZM45.7594 29.437C44.1929 28.3118 42.9852 27.4331 41.9714 26.452L35.0172 33.638C36.6463 35.2146 38.4653 36.51 39.9254 37.5589L45.7594 29.437ZM41.9997 26.4796C38.4192 22.9593 34.1373 21.5751 29.89 21.2058L29.0237 31.1682C31.6398 31.3957 33.4964 32.143 34.9888 33.6103L41.9997 26.4796ZM29.8931 21.2061C26.4173 20.9016 22.8187 21.1677 19.2427 22.3961L22.4914 31.8536C24.4998 31.1637 26.6561 30.9608 29.0206 31.1679L29.8931 21.2061ZM19.2659 22.3882C16.952 23.1703 15.0461 24.4519 13.4694 25.941L20.3356 33.2111C21.061 32.5261 21.7554 32.1025 22.4682 31.8616L19.2659 22.3882ZM13.5182 25.8955C11.783 27.4911 10.1208 28.8431 8.3708 29.9L13.5407 38.46C16.0962 36.9165 18.3133 35.0713 20.2869 33.2565L13.5182 25.8955ZM8.36267 29.905C7.22639 30.5942 6.53475 30.8803 5.96612 30.9764L7.63263 40.8366C10.0907 40.4211 12.0847 39.3431 13.5488 38.4551L8.36267 29.905ZM5.97098 30.9756C5.76275 31.0106 5.65814 30.9985 5.63849 30.9957C5.62433 30.9936 5.66225 30.9983 5.72133 31.0313C5.78044 31.0642 5.80394 31.0938 5.79402 31.082C5.78053 31.0659 5.71414 30.9815 5.63327 30.7827L-3.62969 34.5507C-2.76079 36.6867 -1.28507 38.5733 0.848913 39.7639C2.98256 40.9544 5.36048 41.2183 7.62776 40.8374L5.97098 30.9756ZM5.59751 30.6971C5.32485 30.0609 5.17717 29.3468 5.09138 28.2488L-4.87824 29.0276C-4.75088 30.6579 -4.47227 32.5868 -3.59394 34.6363L5.59751 30.6971ZM5.09185 28.2547C5.05352 27.7564 4.97947 27.2911 4.94186 27.0466L-4.94186 28.5672C-4.89421 28.8769 -4.883 28.9658 -4.8787 29.0217L5.09185 28.2547ZM5 27.8069C5 27.8048 5 27.8028 5 27.8007C5 27.7986 5 27.7965 5 27.7944C5 27.7924 5 27.7903 5 27.7882C5 27.7861 5 27.784 5 27.7819C5 27.7799 5 27.7778 5 27.7757C5 27.7736 5 27.7715 5 27.7695C5 27.7674 5 27.7653 5 27.7632C5 27.7611 5 27.7591 5 27.757C5 27.7549 5 27.7528 5 27.7507C5 27.7486 5 27.7466 5 27.7445C5 27.7424 5 27.7403 5 27.7382C5 27.7362 5 27.7341 5 27.732C5 27.7299 5 27.7278 5 27.7257C5 27.7237 5 27.7216 5 27.7195C5 27.7174 5 27.7153 5 27.7133C5 27.7112 5 27.7091 5 27.707C5 27.7049 5 27.7029 5 27.7008C5 27.6987 5 27.6966 5 27.6945C5 27.6924 5 27.6904 5 27.6883C5 27.6862 5 27.6841 5 27.682C5 27.68 5 27.6779 5 27.6758C5 27.6737 5 27.6716 5 27.6695C5 27.6675 5 27.6654 5 27.6633C5 27.6612 5 27.6591 5 27.6571C5 27.655 5 27.6529 5 27.6508C5 27.6487 5 27.6467 5 27.6446C5 27.6425 5 27.6404 5 27.6383C5 27.6362 5 27.6342 5 27.6321C5 27.63 5 27.6279 5 27.6258C5 27.6238 5 27.6217 5 27.6196C5 27.6175 5 27.6154 5 27.6133C5 27.6113 5 27.6092 5 27.6071C5 27.605 5 27.6029 5 27.6009C5 27.5988 5 27.5967 5 27.5946C5 27.5925 5 27.5905 5 27.5884C5 27.5863 5 27.5842 5 27.5821C5 27.58 5 27.578 5 27.5759C5 27.5738 5 27.5717 5 27.5696C5 27.5676 5 27.5655 5 27.5634C5 27.5613 5 27.5592 5 27.5571C5 27.5551 5 27.553 5 27.5509C5 27.5488 5 27.5467 5 27.5447C5 27.5426 5 27.5405 5 27.5384C5 27.5363 5 27.5343 5 27.5322C5 27.5301 5 27.528 5 27.5259C5 27.5238 5 27.5218 5 27.5197C5 27.5176 5 27.5155 5 27.5134C5 27.5114 5 27.5093 5 27.5072C5 27.5051 5 27.503 5 27.5009C5 27.4989 5 27.4968 5 27.4947C5 27.4926 5 27.4905 5 27.4885C5 27.4864 5 27.4843 5 27.4822C5 27.4801 5 27.4781 5 27.476C5 27.4739 5 27.4718 5 27.4697C5 27.4676 5 27.4656 5 27.4635C5 27.4614 5 27.4593 5 27.4572C5 27.4552 5 27.4531 5 27.451C5 27.4489 5 27.4468 5 27.4447C5 27.4427 5 27.4406 5 27.4385C5 27.4364 5 27.4343 5 27.4323C5 27.4302 5 27.4281 5 27.426C5 27.4239 5 27.4218 5 27.4198C5 27.4177 5 27.4156 5 27.4135C5 27.4114 5 27.4094 5 27.4073C5 27.4052 5 27.4031 5 27.401C5 27.399 5 27.3969 5 27.3948C5 27.3927 5 27.3906 5 27.3885C5 27.3865 5 27.3844 5 27.3823C5 27.3802 5 27.3781 5 27.3761C5 27.374 5 27.3719 5 27.3698C5 27.3677 5 27.3656 5 27.3636C5 27.3615 5 27.3594 5 27.3573C5 27.3552 5 27.3532 5 27.3511C5 27.349 5 27.3469 5 27.3448C5 27.3428 5 27.3407 5 27.3386C5 27.3365 5 27.3344 5 27.3323C5 27.3303 5 27.3282 5 27.3261C5 27.324 5 27.3219 5 27.3199C5 27.3178 5 27.3157 5 27.3136C5 27.3115 5 27.3094 5 27.3074C5 27.3053 5 27.3032 5 27.3011C5 27.299 5 27.297 5 27.2949C5 27.2928 5 27.2907 5 27.2886C5 27.2866 5 27.2845 5 27.2824C5 27.2803 5 27.2782 5 27.2761C5 27.2741 5 27.272 5 27.2699C5 27.2678 5 27.2657 5 27.2637C5 27.2616 5 27.2595 5 27.2574C5 27.2553 5 27.2532 5 27.2512C5 27.2491 5 27.247 5 27.2449C5 27.2428 5 27.2408 5 27.2387C5 27.2366 5 27.2345 5 27.2324C5 27.2304 5 27.2283 5 27.2262C5 27.2241 5 27.222 5 27.2199C5 27.2179 5 27.2158 5 27.2137C5 27.2116 5 27.2095 5 27.2075C5 27.2054 5 27.2033 5 27.2012C5 27.1991 5 27.197 5 27.195C5 27.1929 5 27.1908 5 27.1887C5 27.1866 5 27.1846 5 27.1825C5 27.1804 5 27.1783 5 27.1762C5 27.1742 5 27.1721 5 27.17C5 27.1679 5 27.1658 5 27.1637C5 27.1617 5 27.1596 5 27.1575C5 27.1554 5 27.1533 5 27.1513C5 27.1492 5 27.1471 5 27.145C5 27.1429 5 27.1408 5 27.1388C5 27.1367 5 27.1346 5 27.1325C5 27.1304 5 27.1284 5 27.1263C5 27.1242 5 27.1221 5 27.12C5 27.1179 5 27.1159 5 27.1138C5 27.1117 5 27.1096 5 27.1075C5 27.1055 5 27.1034 5 27.1013C5 27.0992 5 27.0971 5 27.0951C5 27.093 5 27.0909 5 27.0888C5 27.0867 5 27.0846 5 27.0826C5 27.0805 5 27.0784 5 27.0763C5 27.0742 5 27.0722 5 27.0701C5 27.068 5 27.0659 5 27.0638C5 27.0617 5 27.0597 5 27.0576C5 27.0555 5 27.0534 5 27.0513C5 27.0493 5 27.0472 5 27.0451C5 27.043 5 27.0409 5 27.0389C5 27.0368 5 27.0347 5 27.0326C5 27.0305 5 27.0284 5 27.0264C5 27.0243 5 27.0222 5 27.0201C5 27.018 5 27.016 5 27.0139C5 27.0118 5 27.0097 5 27.0076C5 27.0055 5 27.0035 5 27.0014C5 26.9993 5 26.9972 5 26.9951C5 26.9931 5 26.991 5 26.9889C5 26.9868 5 26.9847 5 26.9827C5 26.9806 5 26.9785 5 26.9764C5 26.9743 5 26.9722 5 26.9702C5 26.9681 5 26.966 5 26.9639C5 26.9618 5 26.9598 5 26.9577C5 26.9556 5 26.9535 5 26.9514C5 26.9493 5 26.9473 5 26.9452C5 26.9431 5 26.941 5 26.9389C5 26.9369 5 26.9348 5 26.9327C5 26.9306 5 26.9285 5 26.9265C5 26.9244 5 26.9223 5 26.9202C5 26.9181 5 26.916 5 26.914C5 26.9119 5 26.9098 5 26.9077C5 26.9056 5 26.9036 5 26.9015C5 26.8994 5 26.8973 5 26.8952C5 26.8931 5 26.8911 5 26.889C5 26.8869 5 26.8848 5 26.8827C5 26.8807 5 26.8786 5 26.8765C5 26.8744 5 26.8723 5 26.8702C5 26.8682 5 26.8661 5 26.864C5 26.8619 5 26.8598 5 26.8578C5 26.8557 5 26.8536 5 26.8515C5 26.8494 5 26.8474 5 26.8453C5 26.8432 5 26.8411 5 26.839C5 26.8369 5 26.8349 5 26.8328C5 26.8307 5 26.8286 5 26.8265C5 26.8245 5 26.8224 5 26.8203C5 26.8182 5 26.8161 5 26.814C5 26.812 5 26.8099 5 26.8078C5 26.8057 5 26.8036 5 26.8016C5 26.7995 5 26.7974 5 26.7953C5 26.7932 5 26.7912 5 26.7891C5 26.787 5 26.7849 5 26.7828C5 26.7807 5 26.7787 5 26.7766C5 26.7745 5 26.7724 5 26.7703C5 26.7683 5 26.7662 5 26.7641C5 26.762 5 26.7599 5 26.7578C5 26.7558 5 26.7537 5 26.7516C5 26.7495 5 26.7474 5 26.7454C5 26.7433 5 26.7412 5 26.7391C5 26.737 5 26.735 5 26.7329C5 26.7308 5 26.7287 5 26.7266C5 26.7245 5 26.7225 5 26.7204C5 26.7183 5 26.7162 5 26.7141C5 26.7121 5 26.71 5 26.7079C5 26.7058 5 26.7037 5 26.7016C5 26.6996 5 26.6975 5 26.6954C5 26.6933 5 26.6912 5 26.6892C5 26.6871 5 26.685 5 26.6829C5 26.6808 5 26.6788 5 26.6767C5 26.6746 5 26.6725 5 26.6704C5 26.6683 5 26.6663 5 26.6642C5 26.6621 5 26.66 5 26.6579C5 26.6559 5 26.6538 5 26.6517C5 26.6496 5 26.6475 5 26.6454C5 26.6434 5 26.6413 5 26.6392C5 26.6371 5 26.635 5 26.633C5 26.6309 5 26.6288 5 26.6267C5 26.6246 5 26.6225 5 26.6205C5 26.6184 5 26.6163 5 26.6142C5 26.6121 5 26.6101 5 26.608C5 26.6059 5 26.6038 5 26.6017C5 26.5997 5 26.5976 5 26.5955C5 26.5934 5 26.5913 5 26.5892C5 26.5872 5 26.5851 5 26.583C5 26.5809 5 26.5788 5 26.5768C5 26.5747 5 26.5726 5 26.5705C5 26.5684 5 26.5663 5 26.5643C5 26.5622 5 26.5601 5 26.558C5 26.5559 5 26.5539 5 26.5518C5 26.5497 5 26.5476 5 26.5455C5 26.5435 5 26.5414 5 26.5393C5 26.5372 5 26.5351 5 26.533C5 26.531 5 26.5289 5 26.5268C5 26.5247 5 26.5226 5 26.5206C5 26.5185 5 26.5164 5 26.5143C5 26.5122 5 26.5101 5 26.5081C5 26.506 5 26.5039 5 26.5018C5 26.4997 5 26.4977 5 26.4956C5 26.4935 5 26.4914 5 26.4893C5 26.4873 5 26.4852 5 26.4831C5 26.481 5 26.4789 5 26.4768C5 26.4748 5 26.4727 5 26.4706C5 26.4685 5 26.4664 5 26.4644C5 26.4623 5 26.4602 5 26.4581C5 26.456 5 26.4539 5 26.4519C5 26.4498 5 26.4477 5 26.4456C5 26.4435 5 26.4415 5 26.4394C5 26.4373 5 26.4352 5 26.4331C5 26.4311 5 26.429 5 26.4269C5 26.4248 5 26.4227 5 26.4206C5 26.4186 5 26.4165 5 26.4144C5 26.4123 5 26.4102 5 26.4082C5 26.4061 5 26.404 5 26.4019C5 26.3998 5 26.3977 5 26.3957C5 26.3936 5 26.3915 5 26.3894C5 26.3873 5 26.3853 5 26.3832C5 26.3811 5 26.379 5 26.3769C5 26.3749 5 26.3728 5 26.3707C5 26.3686 5 26.3665 5 26.3644C5 26.3624 5 26.3603 5 26.3582C5 26.3561 5 26.354 5 26.352C5 26.3499 5 26.3478 5 26.3457C5 26.3436 5 26.3415 5 26.3395C5 26.3374 5 26.3353 5 26.3332C5 26.3311 5 26.3291 5 26.327C5 26.3249 5 26.3228 5 26.3207C5 26.3186 5 26.3166 5 26.3145C5 26.3124 5 26.3103 5 26.3082C5 26.3062 5 26.3041 5 26.302C5 26.2999 5 26.2978 5 26.2958C5 26.2937 5 26.2916 5 26.2895C5 26.2874 5 26.2853 5 26.2833C5 26.2812 5 26.2791 5 26.277C5 26.2749 5 26.2729 5 26.2708C5 26.2687 5 26.2666 5 26.2645C5 26.2624 5 26.2604 5 26.2583C5 26.2562 5 26.2541 5 26.252C5 26.25 5 26.2479 5 26.2458C5 26.2437 5 26.2416 5 26.2396C5 26.2375 5 26.2354 5 26.2333C5 26.2312 5 26.2291 5 26.2271C5 26.225 5 26.2229 5 26.2208C5 26.2187 5 26.2167 5 26.2146C5 26.2125 5 26.2104 5 26.2083C5 26.2062 5 26.2042 5 26.2021C5 26.2 5 26.1979 5 26.1958C5 26.1938 5 26.1917 5 26.1896C5 26.1875 5 26.1854 5 26.1834C5 26.1813 5 26.1792 5 26.1771C5 26.175 5 26.1729 5 26.1709C5 26.1688 5 26.1667 5 26.1646C5 26.1625 5 26.1605 5 26.1584C5 26.1563 5 26.1542 5 26.1521C5 26.15 5 26.148 5 26.1459C5 26.1438 5 26.1417 5 26.1396C5 26.1376 5 26.1355 5 26.1334C5 26.1313 5 26.1292 5 26.1272C5 26.1251 5 26.123 5 26.1209C5 26.1188 5 26.1167 5 26.1147C5 26.1126 5 26.1105 5 26.1084C5 26.1063 5 26.1043 5 26.1022C5 26.1001 5 26.098 5 26.0959C5 26.0938 5 26.0918 5 26.0897C5 26.0876 5 26.0855 5 26.0834C5 26.0814 5 26.0793 5 26.0772C5 26.0751 5 26.073 5 26.0709C5 26.0689 5 26.0668 5 26.0647C5 26.0626 5 26.0605 5 26.0585C5 26.0564 5 26.0543 5 26.0522C5 26.0501 5 26.0481 5 26.046C5 26.0439 5 26.0418 5 26.0397C5 26.0376 5 26.0356 5 26.0335C5 26.0314 5 26.0293 5 26.0272C5 26.0252 5 26.0231 5 26.021C5 26.0189 5 26.0168 5 26.0147C5 26.0127 5 26.0106 5 26.0085C5 26.0064 5 26.0043 5 26.0023C5 26.0002 5 25.9981 5 25.996C5 25.9939 5 25.9919 5 25.9898C5 25.9877 5 25.9856 5 25.9835C5 25.9814 5 25.9794 5 25.9773C5 25.9752 5 25.9731 5 25.971C5 25.969 5 25.9669 5 25.9648C5 25.9627 5 25.9606 5 25.9585C5 25.9565 5 25.9544 5 25.9523C5 25.9502 5 25.9481 5 25.9461C5 25.944 5 25.9419 5 25.9398C5 25.9377 5 25.9357 5 25.9336C5 25.9315 5 25.9294 5 25.9273C5 25.9252 5 25.9232 5 25.9211C5 25.919 5 25.9169 5 25.9148C5 25.9128 5 25.9107 5 25.9086C5 25.9065 5 25.9044 5 25.9023C5 25.9003 5 25.8982 5 25.8961C5 25.894 5 25.8919 5 25.8899C5 25.8878 5 25.8857 5 25.8836C5 25.8815 5 25.8795 5 25.8774C5 25.8753 5 25.8732 5 25.8711C5 25.869 5 25.867 5 25.8649C5 25.8628 5 25.8607 5 25.8586C5 25.8566 5 25.8545 5 25.8524C5 25.8503 5 25.8482 5 25.8461C5 25.8441 5 25.842 5 25.8399C5 25.8378 5 25.8357 5 25.8337C5 25.8316 5 25.8295 5 25.8274C5 25.8253 5 25.8232 5 25.8212C5 25.8191 5 25.817 5 25.8149C5 25.8128 5 25.8108 5 25.8087C5 25.8066 5 25.8045 5 25.8024C5 25.8004 5 25.7983 5 25.7962C5 25.7941 5 25.792 5 25.7899C5 25.7879 5 25.7858 5 25.7837C5 25.7816 5 25.7795 5 25.7775C5 25.7754 5 25.7733 5 25.7712C5 25.7691 5 25.767 5 25.765C5 25.7629 5 25.7608 5 25.7587C5 25.7566 5 25.7546 5 25.7525C5 25.7504 5 25.7483 5 25.7462C5 25.7442 5 25.7421 5 25.74C5 25.7379 5 25.7358 5 25.7337C5 25.7317 5 25.7296 5 25.7275C5 25.7254 5 25.7233 5 25.7213C5 25.7192 5 25.7171 5 25.715C5 25.7129 5 25.7108 5 25.7088C5 25.7067 5 25.7046 5 25.7025C5 25.7004 5 25.6984 5 25.6963C5 25.6942 5 25.6921 5 25.69C5 25.688 5 25.6859 5 25.6838C5 25.6817 5 25.6796 5 25.6775C5 25.6755 5 25.6734 5 25.6713C5 25.6692 5 25.6671 5 25.6651C5 25.663 5 25.6609 5 25.6588C5 25.6567 5 25.6546 5 25.6526C5 25.6505 5 25.6484 5 25.6463C5 25.6442 5 25.6422 5 25.6401C5 25.638 5 25.6359 5 25.6338C5 25.6318 5 25.6297 5 25.6276C5 25.6255 5 25.6234 5 25.6213C5 25.6193 5 25.6172 5 25.6151C5 25.613 5 25.6109 5 25.6089C5 25.6068 5 25.6047 5 25.6026C5 25.6005 5 25.5984 5 25.5964C5 25.5943 5 25.5922 5 25.5901C5 25.588 5 25.586 5 25.5839C5 25.5818 5 25.5797 5 25.5776C5 25.5756 5 25.5735 5 25.5714C5 25.5693 5 25.5672 5 25.5651C5 25.5631 5 25.561 5 25.5589C5 25.5568 5 25.5547 5 25.5527C5 25.5506 5 25.5485 5 25.5464C5 25.5443 5 25.5422 5 25.5402C5 25.5381 5 25.536 5 25.5339C5 25.5318 5 25.5298 5 25.5277C5 25.5256 5 25.5235 5 25.5214C5 25.5194 5 25.5173 5 25.5152C5 25.5131 5 25.511 5 25.5089C5 25.5069 5 25.5048 5 25.5027C5 25.5006 5 25.4985 5 25.4965C5 25.4944 5 25.4923 5 25.4902C5 25.4881 5 25.486 5 25.484C5 25.4819 5 25.4798 5 25.4777C5 25.4756 5 25.4736 5 25.4715C5 25.4694 5 25.4673 5 25.4652C5 25.4632 5 25.4611 5 25.459C5 25.4569 5 25.4548 5 25.4527C5 25.4507 5 25.4486 5 25.4465C5 25.4444 5 25.4423 5 25.4403C5 25.4382 5 25.4361 5 25.434C5 25.4319 5 25.4298 5 25.4278C5 25.4257 5 25.4236 5 25.4215C5 25.4194 5 25.4174 5 25.4153C5 25.4132 5 25.4111 5 25.409C5 25.4069 5 25.4049 5 25.4028C5 25.4007 5 25.3986 5 25.3965C5 25.3945 5 25.3924 5 25.3903C5 25.3882 5 25.3861 5 25.3841C5 25.382 5 25.3799 5 25.3778C5 25.3757 5 25.3736 5 25.3716C5 25.3695 5 25.3674 5 25.3653C5 25.3632 5 25.3612 5 25.3591C5 25.357 5 25.3549 5 25.3528C5 25.3507 5 25.3487 5 25.3466C5 25.3445 5 25.3424 5 25.3403C5 25.3383 5 25.3362 5 25.3341C5 25.332 5 25.3299 5 25.3279C5 25.3258 5 25.3237 5 25.3216C5 25.3195 5 25.3174 5 25.3154C5 25.3133 5 25.3112 5 25.3091C5 25.307 5 25.305 5 25.3029C5 25.3008 5 25.2987 5 25.2966C5 25.2945 5 25.2925 5 25.2904C5 25.2883 5 25.2862 5 25.2841C5 25.2821 5 25.28 5 25.2779C5 25.2758 5 25.2737 5 25.2717C5 25.2696 5 25.2675 5 25.2654C5 25.2633 5 25.2612 5 25.2592C5 25.2571 5 25.255 5 25.2529C5 25.2508 5 25.2488 5 25.2467C5 25.2446 5 25.2425 5 25.2404C5 25.2383 5 25.2363 5 25.2342C5 25.2321 5 25.23 5 25.2279C5 25.2259 5 25.2238 5 25.2217C5 25.2196 5 25.2175 5 25.2155C5 25.2134 5 25.2113 5 25.2092C5 25.2071 5 25.205 5 25.203C5 25.2009 5 25.1988 5 25.1967C5 25.1946 5 25.1926 5 25.1905C5 25.1884 5 25.1863 5 25.1842C5 25.1821 5 25.1801 5 25.178C5 25.1759 5 25.1738 5 25.1717C5 25.1697 5 25.1676 5 25.1655C5 25.1634 5 25.1613 5 25.1593C5 25.1572 5 25.1551 5 25.153C5 25.1509 5 25.1488 5 25.1468C5 25.1447 5 25.1426 5 25.1405C5 25.1384 5 25.1364 5 25.1343C5 25.1322 5 25.1301 5 25.128C5 25.1259 5 25.1239 5 25.1218C5 25.1197 5 25.1176 5 25.1155C5 25.1135 5 25.1114 5 25.1093C5 25.1072 5 25.1051 5 25.103C5 25.101 5 25.0989 5 25.0968C5 25.0947 5 25.0926 5 25.0906C5 25.0885 5 25.0864 5 25.0843C5 25.0822 5 25.0802 5 25.0781C5 25.076 5 25.0739 5 25.0718C5 25.0697 5 25.0677 5 25.0656C5 25.0635 5 25.0614 5 25.0593C5 25.0573 5 25.0552 5 25.0531C5 25.051 5 25.0489 5 25.0468C5 25.0448 5 25.0427 5 25.0406C5 25.0385 5 25.0364 5 25.0344C5 25.0323 5 25.0302 5 25.0281C5 25.026 5 25.024 5 25.0219C5 25.0198 5 25.0177 5 25.0156C5 25.0135 5 25.0115 5 25.0094C5 25.0073 5 25.0052 5 25.0031C5 25.0011 5 24.999 5 24.9969C5 24.9948 5 24.9927 5 24.9906C5 24.9886 5 24.9865 5 24.9844C5 24.9823 5 24.9802 5 24.9782C5 24.9761 5 24.974 5 24.9719C5 24.9698 5 24.9678 5 24.9657C5 24.9636 5 24.9615 5 24.9594C5 24.9573 5 24.9553 5 24.9532C5 24.9511 5 24.949 5 24.9469C5 24.9449 5 24.9428 5 24.9407C5 24.9386 5 24.9365 5 24.9344C5 24.9324 5 24.9303 5 24.9282C5 24.9261 5 24.924 5 24.922C5 24.9199 5 24.9178 5 24.9157C5 24.9136 5 24.9116 5 24.9095C5 24.9074 5 24.9053 5 24.9032C5 24.9011 5 24.8991 5 24.897C5 24.8949 5 24.8928 5 24.8907C5 24.8887 5 24.8866 5 24.8845C5 24.8824 5 24.8803 5 24.8782C5 24.8762 5 24.8741 5 24.872C5 24.8699 5 24.8678 5 24.8658C5 24.8637 5 24.8616 5 24.8595C5 24.8574 5 24.8553 5 24.8533C5 24.8512 5 24.8491 5 24.847C5 24.8449 5 24.8429 5 24.8408C5 24.8387 5 24.8366 5 24.8345C5 24.8325 5 24.8304 5 24.8283C5 24.8262 5 24.8241 5 24.822C5 24.82 5 24.8179 5 24.8158C5 24.8137 5 24.8116 5 24.8096C5 24.8075 5 24.8054 5 24.8033C5 24.8012 5 24.7991 5 24.7971C5 24.795 5 24.7929 5 24.7908C5 24.7887 5 24.7867 5 24.7846C5 24.7825 5 24.7804 5 24.7783C5 24.7763 5 24.7742 5 24.7721C5 24.77 5 24.7679 5 24.7658C5 24.7638 5 24.7617 5 24.7596C5 24.7575 5 24.7554 5 24.7534C5 24.7513 5 24.7492 5 24.7471C5 24.745 5 24.7429 5 24.7409C5 24.7388 5 24.7367 5 24.7346C5 24.7325 5 24.7305 5 24.7284C5 24.7263 5 24.7242 5 24.7221C5 24.7201 5 24.718 5 24.7159C5 24.7138 5 24.7117 5 24.7096C5 24.7076 5 24.7055 5 24.7034C5 24.7013 5 24.6992 5 24.6972C5 24.6951 5 24.693 5 24.6909C5 24.6888 5 24.6867 5 24.6847C5 24.6826 5 24.6805 5 24.6784C5 24.6763 5 24.6743 5 24.6722C5 24.6701 5 24.668 5 24.6659C5 24.6639 5 24.6618 5 24.6597C5 24.6576 5 24.6555 5 24.6534C5 24.6514 5 24.6493 5 24.6472C5 24.6451 5 24.643 5 24.641C5 24.6389 5 24.6368 5 24.6347C5 24.6326 5 24.6305 5 24.6285C5 24.6264 5 24.6243 5 24.6222C5 24.6201 5 24.6181 5 24.616C5 24.6139 5 24.6118 5 24.6097H-5C-5 24.6118 -5 24.6139 -5 24.616C-5 24.6181 -5 24.6201 -5 24.6222C-5 24.6243 -5 24.6264 -5 24.6285C-5 24.6305 -5 24.6326 -5 24.6347C-5 24.6368 -5 24.6389 -5 24.641C-5 24.643 -5 24.6451 -5 24.6472C-5 24.6493 -5 24.6514 -5 24.6534C-5 24.6555 -5 24.6576 -5 24.6597C-5 24.6618 -5 24.6639 -5 24.6659C-5 24.668 -5 24.6701 -5 24.6722C-5 24.6743 -5 24.6763 -5 24.6784C-5 24.6805 -5 24.6826 -5 24.6847C-5 24.6867 -5 24.6888 -5 24.6909C-5 24.693 -5 24.6951 -5 24.6972C-5 24.6992 -5 24.7013 -5 24.7034C-5 24.7055 -5 24.7076 -5 24.7096C-5 24.7117 -5 24.7138 -5 24.7159C-5 24.718 -5 24.7201 -5 24.7221C-5 24.7242 -5 24.7263 -5 24.7284C-5 24.7305 -5 24.7325 -5 24.7346C-5 24.7367 -5 24.7388 -5 24.7409C-5 24.7429 -5 24.745 -5 24.7471C-5 24.7492 -5 24.7513 -5 24.7534C-5 24.7554 -5 24.7575 -5 24.7596C-5 24.7617 -5 24.7638 -5 24.7658C-5 24.7679 -5 24.77 -5 24.7721C-5 24.7742 -5 24.7763 -5 24.7783C-5 24.7804 -5 24.7825 -5 24.7846C-5 24.7867 -5 24.7887 -5 24.7908C-5 24.7929 -5 24.795 -5 24.7971C-5 24.7991 -5 24.8012 -5 24.8033C-5 24.8054 -5 24.8075 -5 24.8096C-5 24.8116 -5 24.8137 -5 24.8158C-5 24.8179 -5 24.82 -5 24.822C-5 24.8241 -5 24.8262 -5 24.8283C-5 24.8304 -5 24.8325 -5 24.8345C-5 24.8366 -5 24.8387 -5 24.8408C-5 24.8429 -5 24.8449 -5 24.847C-5 24.8491 -5 24.8512 -5 24.8533C-5 24.8553 -5 24.8574 -5 24.8595C-5 24.8616 -5 24.8637 -5 24.8658C-5 24.8678 -5 24.8699 -5 24.872C-5 24.8741 -5 24.8762 -5 24.8782C-5 24.8803 -5 24.8824 -5 24.8845C-5 24.8866 -5 24.8887 -5 24.8907C-5 24.8928 -5 24.8949 -5 24.897C-5 24.8991 -5 24.9011 -5 24.9032C-5 24.9053 -5 24.9074 -5 24.9095C-5 24.9116 -5 24.9136 -5 24.9157C-5 24.9178 -5 24.9199 -5 24.922C-5 24.924 -5 24.9261 -5 24.9282C-5 24.9303 -5 24.9324 -5 24.9344C-5 24.9365 -5 24.9386 -5 24.9407C-5 24.9428 -5 24.9449 -5 24.9469C-5 24.949 -5 24.9511 -5 24.9532C-5 24.9553 -5 24.9573 -5 24.9594C-5 24.9615 -5 24.9636 -5 24.9657C-5 24.9678 -5 24.9698 -5 24.9719C-5 24.974 -5 24.9761 -5 24.9782C-5 24.9802 -5 24.9823 -5 24.9844C-5 24.9865 -5 24.9886 -5 24.9906C-5 24.9927 -5 24.9948 -5 24.9969C-5 24.999 -5 25.0011 -5 25.0031C-5 25.0052 -5 25.0073 -5 25.0094C-5 25.0115 -5 25.0135 -5 25.0156C-5 25.0177 -5 25.0198 -5 25.0219C-5 25.024 -5 25.026 -5 25.0281C-5 25.0302 -5 25.0323 -5 25.0344C-5 25.0364 -5 25.0385 -5 25.0406C-5 25.0427 -5 25.0448 -5 25.0468C-5 25.0489 -5 25.051 -5 25.0531C-5 25.0552 -5 25.0573 -5 25.0593C-5 25.0614 -5 25.0635 -5 25.0656C-5 25.0677 -5 25.0697 -5 25.0718C-5 25.0739 -5 25.076 -5 25.0781C-5 25.0802 -5 25.0822 -5 25.0843C-5 25.0864 -5 25.0885 -5 25.0906C-5 25.0926 -5 25.0947 -5 25.0968C-5 25.0989 -5 25.101 -5 25.103C-5 25.1051 -5 25.1072 -5 25.1093C-5 25.1114 -5 25.1135 -5 25.1155C-5 25.1176 -5 25.1197 -5 25.1218C-5 25.1239 -5 25.1259 -5 25.128C-5 25.1301 -5 25.1322 -5 25.1343C-5 25.1364 -5 25.1384 -5 25.1405C-5 25.1426 -5 25.1447 -5 25.1468C-5 25.1488 -5 25.1509 -5 25.153C-5 25.1551 -5 25.1572 -5 25.1593C-5 25.1613 -5 25.1634 -5 25.1655C-5 25.1676 -5 25.1697 -5 25.1717C-5 25.1738 -5 25.1759 -5 25.178C-5 25.1801 -5 25.1821 -5 25.1842C-5 25.1863 -5 25.1884 -5 25.1905C-5 25.1926 -5 25.1946 -5 25.1967C-5 25.1988 -5 25.2009 -5 25.203C-5 25.205 -5 25.2071 -5 25.2092C-5 25.2113 -5 25.2134 -5 25.2155C-5 25.2175 -5 25.2196 -5 25.2217C-5 25.2238 -5 25.2259 -5 25.2279C-5 25.23 -5 25.2321 -5 25.2342C-5 25.2363 -5 25.2383 -5 25.2404C-5 25.2425 -5 25.2446 -5 25.2467C-5 25.2488 -5 25.2508 -5 25.2529C-5 25.255 -5 25.2571 -5 25.2592C-5 25.2612 -5 25.2633 -5 25.2654C-5 25.2675 -5 25.2696 -5 25.2717C-5 25.2737 -5 25.2758 -5 25.2779C-5 25.28 -5 25.2821 -5 25.2841C-5 25.2862 -5 25.2883 -5 25.2904C-5 25.2925 -5 25.2945 -5 25.2966C-5 25.2987 -5 25.3008 -5 25.3029C-5 25.305 -5 25.307 -5 25.3091C-5 25.3112 -5 25.3133 -5 25.3154C-5 25.3174 -5 25.3195 -5 25.3216C-5 25.3237 -5 25.3258 -5 25.3279C-5 25.3299 -5 25.332 -5 25.3341C-5 25.3362 -5 25.3383 -5 25.3403C-5 25.3424 -5 25.3445 -5 25.3466C-5 25.3487 -5 25.3507 -5 25.3528C-5 25.3549 -5 25.357 -5 25.3591C-5 25.3612 -5 25.3632 -5 25.3653C-5 25.3674 -5 25.3695 -5 25.3716C-5 25.3736 -5 25.3757 -5 25.3778C-5 25.3799 -5 25.382 -5 25.3841C-5 25.3861 -5 25.3882 -5 25.3903C-5 25.3924 -5 25.3945 -5 25.3965C-5 25.3986 -5 25.4007 -5 25.4028C-5 25.4049 -5 25.4069 -5 25.409C-5 25.4111 -5 25.4132 -5 25.4153C-5 25.4174 -5 25.4194 -5 25.4215C-5 25.4236 -5 25.4257 -5 25.4278C-5 25.4298 -5 25.4319 -5 25.434C-5 25.4361 -5 25.4382 -5 25.4403C-5 25.4423 -5 25.4444 -5 25.4465C-5 25.4486 -5 25.4507 -5 25.4527C-5 25.4548 -5 25.4569 -5 25.459C-5 25.4611 -5 25.4632 -5 25.4652C-5 25.4673 -5 25.4694 -5 25.4715C-5 25.4736 -5 25.4756 -5 25.4777C-5 25.4798 -5 25.4819 -5 25.484C-5 25.486 -5 25.4881 -5 25.4902C-5 25.4923 -5 25.4944 -5 25.4965C-5 25.4985 -5 25.5006 -5 25.5027C-5 25.5048 -5 25.5069 -5 25.5089C-5 25.511 -5 25.5131 -5 25.5152C-5 25.5173 -5 25.5194 -5 25.5214C-5 25.5235 -5 25.5256 -5 25.5277C-5 25.5298 -5 25.5318 -5 25.5339C-5 25.536 -5 25.5381 -5 25.5402C-5 25.5422 -5 25.5443 -5 25.5464C-5 25.5485 -5 25.5506 -5 25.5527C-5 25.5547 -5 25.5568 -5 25.5589C-5 25.561 -5 25.5631 -5 25.5651C-5 25.5672 -5 25.5693 -5 25.5714C-5 25.5735 -5 25.5756 -5 25.5776C-5 25.5797 -5 25.5818 -5 25.5839C-5 25.586 -5 25.588 -5 25.5901C-5 25.5922 -5 25.5943 -5 25.5964C-5 25.5984 -5 25.6005 -5 25.6026C-5 25.6047 -5 25.6068 -5 25.6089C-5 25.6109 -5 25.613 -5 25.6151C-5 25.6172 -5 25.6193 -5 25.6213C-5 25.6234 -5 25.6255 -5 25.6276C-5 25.6297 -5 25.6318 -5 25.6338C-5 25.6359 -5 25.638 -5 25.6401C-5 25.6422 -5 25.6442 -5 25.6463C-5 25.6484 -5 25.6505 -5 25.6526C-5 25.6546 -5 25.6567 -5 25.6588C-5 25.6609 -5 25.663 -5 25.6651C-5 25.6671 -5 25.6692 -5 25.6713C-5 25.6734 -5 25.6755 -5 25.6775C-5 25.6796 -5 25.6817 -5 25.6838C-5 25.6859 -5 25.688 -5 25.69C-5 25.6921 -5 25.6942 -5 25.6963C-5 25.6984 -5 25.7004 -5 25.7025C-5 25.7046 -5 25.7067 -5 25.7088C-5 25.7108 -5 25.7129 -5 25.715C-5 25.7171 -5 25.7192 -5 25.7213C-5 25.7233 -5 25.7254 -5 25.7275C-5 25.7296 -5 25.7317 -5 25.7337C-5 25.7358 -5 25.7379 -5 25.74C-5 25.7421 -5 25.7442 -5 25.7462C-5 25.7483 -5 25.7504 -5 25.7525C-5 25.7546 -5 25.7566 -5 25.7587C-5 25.7608 -5 25.7629 -5 25.765C-5 25.767 -5 25.7691 -5 25.7712C-5 25.7733 -5 25.7754 -5 25.7775C-5 25.7795 -5 25.7816 -5 25.7837C-5 25.7858 -5 25.7879 -5 25.7899C-5 25.792 -5 25.7941 -5 25.7962C-5 25.7983 -5 25.8004 -5 25.8024C-5 25.8045 -5 25.8066 -5 25.8087C-5 25.8108 -5 25.8128 -5 25.8149C-5 25.817 -5 25.8191 -5 25.8212C-5 25.8232 -5 25.8253 -5 25.8274C-5 25.8295 -5 25.8316 -5 25.8337C-5 25.8357 -5 25.8378 -5 25.8399C-5 25.842 -5 25.8441 -5 25.8461C-5 25.8482 -5 25.8503 -5 25.8524C-5 25.8545 -5 25.8566 -5 25.8586C-5 25.8607 -5 25.8628 -5 25.8649C-5 25.867 -5 25.869 -5 25.8711C-5 25.8732 -5 25.8753 -5 25.8774C-5 25.8795 -5 25.8815 -5 25.8836C-5 25.8857 -5 25.8878 -5 25.8899C-5 25.8919 -5 25.894 -5 25.8961C-5 25.8982 -5 25.9003 -5 25.9023C-5 25.9044 -5 25.9065 -5 25.9086C-5 25.9107 -5 25.9128 -5 25.9148C-5 25.9169 -5 25.919 -5 25.9211C-5 25.9232 -5 25.9252 -5 25.9273C-5 25.9294 -5 25.9315 -5 25.9336C-5 25.9357 -5 25.9377 -5 25.9398C-5 25.9419 -5 25.944 -5 25.9461C-5 25.9481 -5 25.9502 -5 25.9523C-5 25.9544 -5 25.9565 -5 25.9585C-5 25.9606 -5 25.9627 -5 25.9648C-5 25.9669 -5 25.969 -5 25.971C-5 25.9731 -5 25.9752 -5 25.9773C-5 25.9794 -5 25.9814 -5 25.9835C-5 25.9856 -5 25.9877 -5 25.9898C-5 25.9919 -5 25.9939 -5 25.996C-5 25.9981 -5 26.0002 -5 26.0023C-5 26.0043 -5 26.0064 -5 26.0085C-5 26.0106 -5 26.0127 -5 26.0147C-5 26.0168 -5 26.0189 -5 26.021C-5 26.0231 -5 26.0252 -5 26.0272C-5 26.0293 -5 26.0314 -5 26.0335C-5 26.0356 -5 26.0376 -5 26.0397C-5 26.0418 -5 26.0439 -5 26.046C-5 26.0481 -5 26.0501 -5 26.0522C-5 26.0543 -5 26.0564 -5 26.0585C-5 26.0605 -5 26.0626 -5 26.0647C-5 26.0668 -5 26.0689 -5 26.0709C-5 26.073 -5 26.0751 -5 26.0772C-5 26.0793 -5 26.0814 -5 26.0834C-5 26.0855 -5 26.0876 -5 26.0897C-5 26.0918 -5 26.0938 -5 26.0959C-5 26.098 -5 26.1001 -5 26.1022C-5 26.1043 -5 26.1063 -5 26.1084C-5 26.1105 -5 26.1126 -5 26.1147C-5 26.1167 -5 26.1188 -5 26.1209C-5 26.123 -5 26.1251 -5 26.1272C-5 26.1292 -5 26.1313 -5 26.1334C-5 26.1355 -5 26.1376 -5 26.1396C-5 26.1417 -5 26.1438 -5 26.1459C-5 26.148 -5 26.15 -5 26.1521C-5 26.1542 -5 26.1563 -5 26.1584C-5 26.1605 -5 26.1625 -5 26.1646C-5 26.1667 -5 26.1688 -5 26.1709C-5 26.1729 -5 26.175 -5 26.1771C-5 26.1792 -5 26.1813 -5 26.1834C-5 26.1854 -5 26.1875 -5 26.1896C-5 26.1917 -5 26.1938 -5 26.1958C-5 26.1979 -5 26.2 -5 26.2021C-5 26.2042 -5 26.2062 -5 26.2083C-5 26.2104 -5 26.2125 -5 26.2146C-5 26.2167 -5 26.2187 -5 26.2208C-5 26.2229 -5 26.225 -5 26.2271C-5 26.2291 -5 26.2312 -5 26.2333C-5 26.2354 -5 26.2375 -5 26.2396C-5 26.2416 -5 26.2437 -5 26.2458C-5 26.2479 -5 26.25 -5 26.252C-5 26.2541 -5 26.2562 -5 26.2583C-5 26.2604 -5 26.2624 -5 26.2645C-5 26.2666 -5 26.2687 -5 26.2708C-5 26.2729 -5 26.2749 -5 26.277C-5 26.2791 -5 26.2812 -5 26.2833C-5 26.2853 -5 26.2874 -5 26.2895C-5 26.2916 -5 26.2937 -5 26.2958C-5 26.2978 -5 26.2999 -5 26.302C-5 26.3041 -5 26.3062 -5 26.3082C-5 26.3103 -5 26.3124 -5 26.3145C-5 26.3166 -5 26.3186 -5 26.3207C-5 26.3228 -5 26.3249 -5 26.327C-5 26.3291 -5 26.3311 -5 26.3332C-5 26.3353 -5 26.3374 -5 26.3395C-5 26.3415 -5 26.3436 -5 26.3457C-5 26.3478 -5 26.3499 -5 26.352C-5 26.354 -5 26.3561 -5 26.3582C-5 26.3603 -5 26.3624 -5 26.3644C-5 26.3665 -5 26.3686 -5 26.3707C-5 26.3728 -5 26.3749 -5 26.3769C-5 26.379 -5 26.3811 -5 26.3832C-5 26.3853 -5 26.3873 -5 26.3894C-5 26.3915 -5 26.3936 -5 26.3957C-5 26.3977 -5 26.3998 -5 26.4019C-5 26.404 -5 26.4061 -5 26.4082C-5 26.4102 -5 26.4123 -5 26.4144C-5 26.4165 -5 26.4186 -5 26.4206C-5 26.4227 -5 26.4248 -5 26.4269C-5 26.429 -5 26.4311 -5 26.4331C-5 26.4352 -5 26.4373 -5 26.4394C-5 26.4415 -5 26.4435 -5 26.4456C-5 26.4477 -5 26.4498 -5 26.4519C-5 26.4539 -5 26.456 -5 26.4581C-5 26.4602 -5 26.4623 -5 26.4644C-5 26.4664 -5 26.4685 -5 26.4706C-5 26.4727 -5 26.4748 -5 26.4768C-5 26.4789 -5 26.481 -5 26.4831C-5 26.4852 -5 26.4873 -5 26.4893C-5 26.4914 -5 26.4935 -5 26.4956C-5 26.4977 -5 26.4997 -5 26.5018C-5 26.5039 -5 26.506 -5 26.5081C-5 26.5101 -5 26.5122 -5 26.5143C-5 26.5164 -5 26.5185 -5 26.5206C-5 26.5226 -5 26.5247 -5 26.5268C-5 26.5289 -5 26.531 -5 26.533C-5 26.5351 -5 26.5372 -5 26.5393C-5 26.5414 -5 26.5435 -5 26.5455C-5 26.5476 -5 26.5497 -5 26.5518C-5 26.5539 -5 26.5559 -5 26.558C-5 26.5601 -5 26.5622 -5 26.5643C-5 26.5663 -5 26.5684 -5 26.5705C-5 26.5726 -5 26.5747 -5 26.5768C-5 26.5788 -5 26.5809 -5 26.583C-5 26.5851 -5 26.5872 -5 26.5892C-5 26.5913 -5 26.5934 -5 26.5955C-5 26.5976 -5 26.5997 -5 26.6017C-5 26.6038 -5 26.6059 -5 26.608C-5 26.6101 -5 26.6121 -5 26.6142C-5 26.6163 -5 26.6184 -5 26.6205C-5 26.6225 -5 26.6246 -5 26.6267C-5 26.6288 -5 26.6309 -5 26.633C-5 26.635 -5 26.6371 -5 26.6392C-5 26.6413 -5 26.6434 -5 26.6454C-5 26.6475 -5 26.6496 -5 26.6517C-5 26.6538 -5 26.6559 -5 26.6579C-5 26.66 -5 26.6621 -5 26.6642C-5 26.6663 -5 26.6683 -5 26.6704C-5 26.6725 -5 26.6746 -5 26.6767C-5 26.6788 -5 26.6808 -5 26.6829C-5 26.685 -5 26.6871 -5 26.6892C-5 26.6912 -5 26.6933 -5 26.6954C-5 26.6975 -5 26.6996 -5 26.7016C-5 26.7037 -5 26.7058 -5 26.7079C-5 26.71 -5 26.7121 -5 26.7141C-5 26.7162 -5 26.7183 -5 26.7204C-5 26.7225 -5 26.7245 -5 26.7266C-5 26.7287 -5 26.7308 -5 26.7329C-5 26.735 -5 26.737 -5 26.7391C-5 26.7412 -5 26.7433 -5 26.7454C-5 26.7474 -5 26.7495 -5 26.7516C-5 26.7537 -5 26.7558 -5 26.7578C-5 26.7599 -5 26.762 -5 26.7641C-5 26.7662 -5 26.7683 -5 26.7703C-5 26.7724 -5 26.7745 -5 26.7766C-5 26.7787 -5 26.7807 -5 26.7828C-5 26.7849 -5 26.787 -5 26.7891C-5 26.7912 -5 26.7932 -5 26.7953C-5 26.7974 -5 26.7995 -5 26.8016C-5 26.8036 -5 26.8057 -5 26.8078C-5 26.8099 -5 26.812 -5 26.814C-5 26.8161 -5 26.8182 -5 26.8203C-5 26.8224 -5 26.8245 -5 26.8265C-5 26.8286 -5 26.8307 -5 26.8328C-5 26.8349 -5 26.8369 -5 26.839C-5 26.8411 -5 26.8432 -5 26.8453C-5 26.8474 -5 26.8494 -5 26.8515C-5 26.8536 -5 26.8557 -5 26.8578C-5 26.8598 -5 26.8619 -5 26.864C-5 26.8661 -5 26.8682 -5 26.8702C-5 26.8723 -5 26.8744 -5 26.8765C-5 26.8786 -5 26.8807 -5 26.8827C-5 26.8848 -5 26.8869 -5 26.889C-5 26.8911 -5 26.8931 -5 26.8952C-5 26.8973 -5 26.8994 -5 26.9015C-5 26.9036 -5 26.9056 -5 26.9077C-5 26.9098 -5 26.9119 -5 26.914C-5 26.916 -5 26.9181 -5 26.9202C-5 26.9223 -5 26.9244 -5 26.9265C-5 26.9285 -5 26.9306 -5 26.9327C-5 26.9348 -5 26.9369 -5 26.9389C-5 26.941 -5 26.9431 -5 26.9452C-5 26.9473 -5 26.9493 -5 26.9514C-5 26.9535 -5 26.9556 -5 26.9577C-5 26.9598 -5 26.9618 -5 26.9639C-5 26.966 -5 26.9681 -5 26.9702C-5 26.9722 -5 26.9743 -5 26.9764C-5 26.9785 -5 26.9806 -5 26.9827C-5 26.9847 -5 26.9868 -5 26.9889C-5 26.991 -5 26.9931 -5 26.9951C-5 26.9972 -5 26.9993 -5 27.0014C-5 27.0035 -5 27.0055 -5 27.0076C-5 27.0097 -5 27.0118 -5 27.0139C-5 27.016 -5 27.018 -5 27.0201C-5 27.0222 -5 27.0243 -5 27.0264C-5 27.0284 -5 27.0305 -5 27.0326C-5 27.0347 -5 27.0368 -5 27.0389C-5 27.0409 -5 27.043 -5 27.0451C-5 27.0472 -5 27.0493 -5 27.0513C-5 27.0534 -5 27.0555 -5 27.0576C-5 27.0597 -5 27.0617 -5 27.0638C-5 27.0659 -5 27.068 -5 27.0701C-5 27.0722 -5 27.0742 -5 27.0763C-5 27.0784 -5 27.0805 -5 27.0826C-5 27.0846 -5 27.0867 -5 27.0888C-5 27.0909 -5 27.093 -5 27.0951C-5 27.0971 -5 27.0992 -5 27.1013C-5 27.1034 -5 27.1055 -5 27.1075C-5 27.1096 -5 27.1117 -5 27.1138C-5 27.1159 -5 27.1179 -5 27.12C-5 27.1221 -5 27.1242 -5 27.1263C-5 27.1284 -5 27.1304 -5 27.1325C-5 27.1346 -5 27.1367 -5 27.1388C-5 27.1408 -5 27.1429 -5 27.145C-5 27.1471 -5 27.1492 -5 27.1513C-5 27.1533 -5 27.1554 -5 27.1575C-5 27.1596 -5 27.1617 -5 27.1637C-5 27.1658 -5 27.1679 -5 27.17C-5 27.1721 -5 27.1742 -5 27.1762C-5 27.1783 -5 27.1804 -5 27.1825C-5 27.1846 -5 27.1866 -5 27.1887C-5 27.1908 -5 27.1929 -5 27.195C-5 27.197 -5 27.1991 -5 27.2012C-5 27.2033 -5 27.2054 -5 27.2075C-5 27.2095 -5 27.2116 -5 27.2137C-5 27.2158 -5 27.2179 -5 27.2199C-5 27.222 -5 27.2241 -5 27.2262C-5 27.2283 -5 27.2304 -5 27.2324C-5 27.2345 -5 27.2366 -5 27.2387C-5 27.2408 -5 27.2428 -5 27.2449C-5 27.247 -5 27.2491 -5 27.2512C-5 27.2532 -5 27.2553 -5 27.2574C-5 27.2595 -5 27.2616 -5 27.2637C-5 27.2657 -5 27.2678 -5 27.2699C-5 27.272 -5 27.2741 -5 27.2761C-5 27.2782 -5 27.2803 -5 27.2824C-5 27.2845 -5 27.2866 -5 27.2886C-5 27.2907 -5 27.2928 -5 27.2949C-5 27.297 -5 27.299 -5 27.3011C-5 27.3032 -5 27.3053 -5 27.3074C-5 27.3094 -5 27.3115 -5 27.3136C-5 27.3157 -5 27.3178 -5 27.3199C-5 27.3219 -5 27.324 -5 27.3261C-5 27.3282 -5 27.3303 -5 27.3323C-5 27.3344 -5 27.3365 -5 27.3386C-5 27.3407 -5 27.3428 -5 27.3448C-5 27.3469 -5 27.349 -5 27.3511C-5 27.3532 -5 27.3552 -5 27.3573C-5 27.3594 -5 27.3615 -5 27.3636C-5 27.3656 -5 27.3677 -5 27.3698C-5 27.3719 -5 27.374 -5 27.3761C-5 27.3781 -5 27.3802 -5 27.3823C-5 27.3844 -5 27.3865 -5 27.3885C-5 27.3906 -5 27.3927 -5 27.3948C-5 27.3969 -5 27.399 -5 27.401C-5 27.4031 -5 27.4052 -5 27.4073C-5 27.4094 -5 27.4114 -5 27.4135C-5 27.4156 -5 27.4177 -5 27.4198C-5 27.4218 -5 27.4239 -5 27.426C-5 27.4281 -5 27.4302 -5 27.4323C-5 27.4343 -5 27.4364 -5 27.4385C-5 27.4406 -5 27.4427 -5 27.4447C-5 27.4468 -5 27.4489 -5 27.451C-5 27.4531 -5 27.4552 -5 27.4572C-5 27.4593 -5 27.4614 -5 27.4635C-5 27.4656 -5 27.4676 -5 27.4697C-5 27.4718 -5 27.4739 -5 27.476C-5 27.4781 -5 27.4801 -5 27.4822C-5 27.4843 -5 27.4864 -5 27.4885C-5 27.4905 -5 27.4926 -5 27.4947C-5 27.4968 -5 27.4989 -5 27.5009C-5 27.503 -5 27.5051 -5 27.5072C-5 27.5093 -5 27.5114 -5 27.5134C-5 27.5155 -5 27.5176 -5 27.5197C-5 27.5218 -5 27.5238 -5 27.5259C-5 27.528 -5 27.5301 -5 27.5322C-5 27.5343 -5 27.5363 -5 27.5384C-5 27.5405 -5 27.5426 -5 27.5447C-5 27.5467 -5 27.5488 -5 27.5509C-5 27.553 -5 27.5551 -5 27.5571C-5 27.5592 -5 27.5613 -5 27.5634C-5 27.5655 -5 27.5676 -5 27.5696C-5 27.5717 -5 27.5738 -5 27.5759C-5 27.578 -5 27.58 -5 27.5821C-5 27.5842 -5 27.5863 -5 27.5884C-5 27.5905 -5 27.5925 -5 27.5946C-5 27.5967 -5 27.5988 -5 27.6009C-5 27.6029 -5 27.605 -5 27.6071C-5 27.6092 -5 27.6113 -5 27.6133C-5 27.6154 -5 27.6175 -5 27.6196C-5 27.6217 -5 27.6238 -5 27.6258C-5 27.6279 -5 27.63 -5 27.6321C-5 27.6342 -5 27.6362 -5 27.6383C-5 27.6404 -5 27.6425 -5 27.6446C-5 27.6467 -5 27.6487 -5 27.6508C-5 27.6529 -5 27.655 -5 27.6571C-5 27.6591 -5 27.6612 -5 27.6633C-5 27.6654 -5 27.6675 -5 27.6695C-5 27.6716 -5 27.6737 -5 27.6758C-5 27.6779 -5 27.68 -5 27.682C-5 27.6841 -5 27.6862 -5 27.6883C-5 27.6904 -5 27.6924 -5 27.6945C-5 27.6966 -5 27.6987 -5 27.7008C-5 27.7029 -5 27.7049 -5 27.707C-5 27.7091 -5 27.7112 -5 27.7133C-5 27.7153 -5 27.7174 -5 27.7195C-5 27.7216 -5 27.7237 -5 27.7257C-5 27.7278 -5 27.7299 -5 27.732C-5 27.7341 -5 27.7362 -5 27.7382C-5 27.7403 -5 27.7424 -5 27.7445C-5 27.7466 -5 27.7486 -5 27.7507C-5 27.7528 -5 27.7549 -5 27.757C-5 27.7591 -5 27.7611 -5 27.7632C-5 27.7653 -5 27.7674 -5 27.7695C-5 27.7715 -5 27.7736 -5 27.7757C-5 27.7778 -5 27.7799 -5 27.7819C-5 27.784 -5 27.7861 -5 27.7882C-5 27.7903 -5 27.7924 -5 27.7944C-5 27.7965 -5 27.7986 -5 27.8007C-5 27.8028 -5 27.8048 -5 27.8069H5ZM-2.46356 25.7181C-2.46356 28.1011 -2.40713 30.5386 -1.54142 33.0026L7.89318 29.6877C7.65053 28.9971 7.53644 28.1096 7.53644 25.7181H-2.46356ZM-1.52855 33.0388C-0.98681 34.5436 0.040288 36.2639 1.91444 37.3632C3.88165 38.517 6.01891 38.5422 7.8278 38.0357L5.1315 28.406C5.3418 28.3471 6.11492 28.2337 6.97377 28.7375C7.73956 29.1866 7.91407 29.7453 7.88032 29.6516L-1.52855 33.0388ZM7.86546 38.025C9.15198 37.6539 10.9024 37.0514 12.4935 35.9665L6.86017 27.7043C6.57559 27.8983 6.02405 28.1484 5.09385 28.4167L7.86546 38.025ZM12.5412 35.9336C14.7022 34.4233 16.7085 32.8006 18.6031 31.2109L12.1753 23.5504C10.3611 25.0726 8.61607 26.4766 6.8125 27.7372L12.5412 35.9336ZM18.5901 31.2217C19.7565 30.2497 20.9652 29.6044 22.2931 29.2348L19.6115 19.601C16.8043 20.3824 14.3469 21.7406 12.1883 23.5395L18.5901 31.2217ZM22.3131 29.2292C25.6582 28.2831 28.96 28.2694 32.3014 29.2096L35.0103 19.5835C29.8684 18.1366 24.687 18.1655 19.5915 19.6066L22.3131 29.2292ZM32.2755 29.2023C33.6094 29.5854 34.7424 30.1973 35.7204 31.0695L42.3765 23.6065C40.1999 21.6652 37.7094 20.3587 35.0362 19.5909L32.2755 29.2023ZM35.7453 31.0916C37.43 32.5741 39.1936 34.0219 41.0148 35.3878L47.0148 27.3878C45.4256 26.1959 43.8641 24.9155 42.3516 23.5844L35.7453 31.0916ZM41.0355 35.4033C42.6884 36.6296 44.8569 37.908 47.6049 38.366L49.2489 28.502C48.6718 28.4058 47.9841 28.1069 46.994 27.3723L41.0355 35.4033ZM47.618 38.3681C48.9672 38.5893 50.6327 38.5594 52.2819 37.7584C53.9561 36.9452 55.0328 35.6202 55.6962 34.317L46.7846 29.7801C46.8513 29.6492 47.1712 29.1235 47.9129 28.7633C48.6296 28.4151 49.1867 28.4918 49.2358 28.4999L47.618 38.3681ZM55.6978 34.3138C56.8408 32.0648 57.077 29.8103 57.1519 28.1372L47.1619 27.6898C47.109 28.8728 46.9616 29.4319 46.783 29.7833L55.6978 34.3138ZM57.1527 28.1207C57.3723 22.8244 56.5126 17.7944 55.2372 13.0575L45.5811 15.6573C46.693 19.7872 47.3252 23.7521 47.1612 27.7063L57.1527 28.1207ZM55.2369 13.0563C54.3438 9.74226 53.0282 6.20105 50.6353 2.96519L42.595 8.911C43.9534 10.748 44.8546 12.9618 45.5814 15.6585L55.2369 13.0563ZM50.6527 2.9889C47.9609 -0.696398 43.8279 -3.03159 38.6417 -2.26998L40.0946 7.6239C40.7205 7.53198 41.0869 7.62885 41.3439 7.7491C41.6364 7.88599 42.069 8.19108 42.5775 8.8873L50.6527 2.9889ZM38.6544 -2.27183C36.1934 -1.91689 33.8088 -1.38055 31.5469 -0.803978L34.0169 8.88617C36.1032 8.35438 38.1094 7.91024 40.0819 7.62575L38.6544 -2.27183ZM31.4936 -0.79008C28.7166 -0.0495433 26.1376 -0.00251628 23.5952 -0.711293L20.9098 8.92137C25.4012 10.1735 29.8134 10.0074 34.0702 8.87227L31.4936 -0.79008ZM23.5641 -0.719859C21.209 -1.36009 18.7998 -1.88832 16.3801 -2.28009L14.7819 7.59137C16.8382 7.9243 18.9052 8.37655 20.9409 8.92994L23.5641 -0.719859ZM16.3957 -2.27754C12.5642 -2.91027 8.84466 -1.84037 5.93238 0.929856L12.8245 8.17544C13.4078 7.62057 13.9513 7.45423 14.7664 7.58883L16.3957 -2.27754ZM5.96685 0.89737C3.65759 3.05268 2.24561 5.61619 1.27563 7.99008L10.5327 11.7725C11.1826 10.1819 11.9021 9.03666 12.79 8.20792L5.96685 0.89737ZM1.29319 7.94767C-1.18165 13.8492 -2.34329 20.0364 -2.46242 25.6113L7.5353 25.8249C7.62933 21.4246 8.55652 16.4855 10.5151 11.8149L1.29319 7.94767Z" fill="black" mask="url(#path-1-inside-1_635_2849)"/>
<path d="M14.8776 6.81179C16.796 6.93967 18.2027 8.15461 18.5864 10.0516C18.6503 10.35 18.7782 10.414 19.034 10.4779C20.931 10.8616 22.2738 12.4815 22.2525 14.3785C22.2525 16.2542 20.931 17.8528 19.034 18.2364C18.693 18.3004 18.629 18.4496 18.5651 18.748C18.1814 20.5811 16.4976 21.9452 14.6645 21.9239C12.7675 21.9026 11.1476 20.5597 10.8065 18.6414C10.7426 18.3004 10.5508 18.2791 10.295 18.2364C7.56671 17.7036 6.20258 14.6982 7.63066 12.311C8.22747 11.3092 9.12268 10.6911 10.2737 10.4779C10.636 10.414 10.7639 10.2861 10.8279 9.92372C11.1689 8.09066 13.0233 6.6839 14.8776 6.81179ZM19.8013 14.3359C19.8013 13.5685 19.2471 12.993 18.4798 12.9504C18.224 12.9291 17.9469 12.9504 17.6699 12.9504C16.6468 12.9504 16.1565 12.4389 16.1352 11.3944C16.1352 11.0321 16.1139 10.6697 16.0499 10.3287C15.9007 9.62532 15.3252 9.19903 14.6005 9.24166C13.8758 9.28429 13.3217 9.81715 13.2577 10.5205C13.2364 10.8189 13.2577 11.1173 13.2364 11.4371C13.2151 12.3749 12.7249 12.8865 11.787 12.9291C11.4673 12.9504 11.1476 12.9078 10.8279 12.9504C10.0179 13.0357 9.52766 13.6325 9.57029 14.3998C9.5916 15.1245 10.1458 15.6787 10.9344 15.7213C11.2328 15.7426 11.5312 15.7213 11.851 15.7213C12.6822 15.7426 13.2151 16.2329 13.2577 17.0854C13.279 17.3839 13.2577 17.6823 13.2577 18.002C13.3004 18.8333 13.8332 19.3874 14.6432 19.4087C15.4531 19.4301 16.0286 18.9185 16.1139 18.1086C16.1352 17.8101 16.1139 17.5117 16.1352 17.192C16.1565 16.3607 16.6254 15.8705 17.4567 15.8279C17.8191 15.8066 18.2027 15.8279 18.5651 15.7853C19.3324 15.6787 19.8013 15.1032 19.8013 14.3359Z" fill="black"/>
<path d="M41.6275 9.49728C41.6488 10.8188 40.6044 11.8845 39.2829 11.9058C37.9614 11.9271 36.8957 10.8827 36.8743 9.56122C36.853 8.23971 37.8974 7.17398 39.219 7.15266C40.5405 7.13135 41.6062 8.17577 41.6275 9.49728Z" fill="black"/>
<path d="M34.4231 16.7444C33.1229 16.7444 32.0359 15.6786 32.0146 14.3785C32.0146 13.0783 33.0803 11.9912 34.3805 11.9912C35.6807 11.9912 36.7678 13.0569 36.7678 14.3571C36.7891 15.6573 35.7447 16.7231 34.4231 16.7444Z" fill="black"/>
<path d="M41.7128 14.3361C41.7341 13.0359 42.7998 11.9702 44.1213 11.9915C45.4215 11.9915 46.4873 13.0786 46.4873 14.4001C46.4659 15.7216 45.4002 16.766 44.0787 16.7447C42.7572 16.7234 41.6915 15.6576 41.7128 14.3361Z" fill="black"/>
<path d="M41.6275 19.1958C41.6275 20.5173 40.5618 21.5831 39.2616 21.5831C37.9614 21.5831 36.8957 20.5173 36.8957 19.1958C36.8957 17.8743 37.9614 16.8086 39.2616 16.8086C40.5618 16.8086 41.6275 17.8956 41.6275 19.1958Z" fill="black"/>
</svg>
