<svg width="20" height="20" viewBox="0 0 20 20" fill="none" xmlns="http://www.w3.org/2000/svg">
<path d="M19.9844 2.84971C19.9844 7.6079 19.9844 12.3661 19.9844 17.1243C19.974 17.1711 19.9636 17.2127 19.9532 17.2595C19.6048 19.0275 18.0447 20.0052 16.6094 20C12.1789 19.974 7.7431 19.9896 3.31253 19.9896C1.48726 19.9844 0 18.4971 0 16.6718C0 12.2153 0 7.7535 0 3.29693C0 2.5169 0.25481 1.83047 0.733229 1.22725C1.28445 0.540821 2.00728 0.156006 2.86531 0C7.6235 0 12.3817 0 17.1399 0C17.6547 0.0988038 18.1435 0.270411 18.5751 0.577222C19.3604 1.13364 19.8128 1.90327 19.9844 2.84971ZM9.99999 18.2787C12.1789 18.2787 14.3526 18.2787 16.5314 18.2787C17.6027 18.2787 18.2943 17.5923 18.2943 16.5262C18.2943 12.1633 18.2943 7.8055 18.2943 3.44253C18.2943 2.38689 17.6027 1.69007 16.5522 1.69007C12.1841 1.69007 7.8159 1.69007 3.44773 1.69007C2.40249 1.69007 1.70567 2.38689 1.70567 3.42173C1.70567 7.7951 1.70567 12.1685 1.70567 16.547C1.70567 17.5819 2.40249 18.2787 3.44773 18.2787C5.63182 18.2787 7.8159 18.2787 9.99999 18.2787Z" fill="black"/>
<path d="M10.8684 9.59434C10.8684 10.7956 10.8684 11.9968 10.8684 13.2033C10.8684 13.6765 10.65 14.0041 10.2652 14.1289C9.7244 14.3057 9.19398 13.9261 9.14198 13.3281C9.13678 13.2657 9.13678 13.1981 9.13678 13.1357C9.13678 10.7644 9.13678 8.3931 9.13678 6.0166C9.13678 5.8918 9.14198 5.7722 9.16798 5.64739C9.25638 5.24177 9.584 4.97656 10.0104 4.98176C10.4212 4.98176 10.7488 5.24697 10.8372 5.64219C10.8632 5.76179 10.8684 5.8866 10.8684 6.0114C10.8684 7.20225 10.8684 8.3983 10.8684 9.59434Z" fill="black"/>
<path d="M15.0077 10.8217C15.0077 11.6381 15.0077 12.4598 15.0077 13.2762C15.0077 13.7806 14.6489 14.1602 14.1757 14.1654C13.6869 14.1706 13.3073 13.791 13.3073 13.2814C13.3021 11.6329 13.3021 9.97928 13.3073 8.33082C13.3073 7.8212 13.6817 7.46238 14.1913 7.46759C14.6697 7.47279 15.0129 7.8368 15.0129 8.34122C15.0077 9.17325 15.0077 10.0001 15.0077 10.8217Z" fill="black"/>
<path d="M4.99217 11.6536C4.99217 11.0972 4.99217 10.5355 4.99217 9.97911C4.99217 9.50069 5.35098 9.13668 5.819 9.12108C6.26622 9.10548 6.68224 9.47989 6.68744 9.94271C6.69784 11.0764 6.69784 12.2152 6.68744 13.3488C6.68224 13.8169 6.27662 14.1757 5.8138 14.1653C5.35098 14.1549 4.99217 13.7805 4.98697 13.3072C4.99217 12.7612 4.99217 12.21 4.99217 11.6536Z" fill="black"/>
</svg>
