<svg width="285" height="285" viewBox="0 0 285 285" fill="none" xmlns="http://www.w3.org/2000/svg">
<path d="M27.3255 240.088L24.823 230.218C20.3858 228.337 15.8462 226.708 11.2256 225.339L10.9098 229.926L9.62872 224.873C3.89841 223.235 0 222.514 0 222.514C0 222.514 5.26451 242.538 16.3101 257.846L29.1792 260.107L19.1815 261.548C20.5709 263.22 22.0641 264.803 23.6522 266.287C39.7185 281.2 57.6137 288.043 63.6217 281.57C69.6297 275.097 61.4758 257.76 45.4095 242.849C40.4288 238.226 34.1721 234.516 27.9088 231.595L27.3255 240.088Z" fill="#F2F2F2"/>
<path d="M51.1249 229.367L54.0845 219.625C51.2584 215.721 48.2144 211.98 44.967 208.42L42.3256 212.183L43.8408 207.195C39.7814 202.832 36.8169 200.2 36.8169 200.2C36.8169 200.2 30.9744 220.063 32.5156 238.877L42.3637 247.464L33.0585 243.53C33.3841 245.68 33.8445 247.807 34.4372 249.899C40.4822 270.97 52.2644 286.077 60.7533 283.642C69.2421 281.206 71.2236 262.151 65.1785 241.08C63.3047 234.548 59.8659 228.137 56.0141 222.4L51.1249 229.367Z" fill="#F2F2F2"/>
<path d="M198.278 67.5167H196.717V24.752C196.717 21.5015 196.077 18.2829 194.833 15.2798C193.589 12.2768 191.766 9.54813 189.467 7.2497C187.169 4.95126 184.44 3.12804 181.437 1.88413C178.434 0.640228 175.216 0 171.965 0H81.3593C74.7947 0 68.4989 2.60779 63.857 7.2497C59.2151 11.8916 56.6073 18.1874 56.6073 24.752V259.366C56.6073 262.617 57.2475 265.836 58.4914 268.839C59.7353 271.842 61.5586 274.57 63.857 276.869C66.1554 279.167 68.8841 280.99 71.8871 282.234C74.8902 283.478 78.1088 284.118 81.3593 284.118H171.965C178.53 284.118 184.825 281.51 189.467 276.869C194.109 272.227 196.717 265.931 196.717 259.366V97.9574H198.278L198.278 67.5167Z" fill="#E6E6E6"/>
<path d="M172.964 6.43719H161.138C161.682 7.77072 161.889 9.21754 161.742 10.6502C161.595 12.0829 161.098 13.4574 160.295 14.6527C159.491 15.8479 158.406 16.8273 157.135 17.5044C155.864 18.1816 154.446 18.5357 153.006 18.5357H101.099C99.6588 18.5356 98.2408 18.1814 96.9699 17.5042C95.6989 16.827 94.614 15.8476 93.8107 14.6523C93.0074 13.4571 92.5104 12.0826 92.3634 10.65C92.2164 9.21741 92.4241 7.77066 92.9679 6.43719H81.9216C77.0192 6.43719 72.3176 8.38467 68.8511 11.8512C65.3845 15.3177 63.4371 20.0193 63.4371 24.9218V259.195C63.4371 264.098 65.3845 268.799 68.8511 272.266C72.3176 275.733 77.0192 277.68 81.9216 277.68H172.964C177.866 277.68 182.568 275.733 186.034 272.266C189.501 268.799 191.448 264.098 191.448 259.195V24.9214C191.448 20.019 189.501 15.3175 186.034 11.8511C182.568 8.38462 177.866 6.43719 172.964 6.43719Z" fill="white"/>
<path d="M166.753 170.563H83.3785V171.344H166.753V170.563Z" fill="#CCCCCC"/>
<path d="M86.0115 165.688C87.4657 165.688 88.6446 164.509 88.6446 163.055C88.6446 161.601 87.4657 160.422 86.0115 160.422C84.5574 160.422 83.3785 161.601 83.3785 163.055C83.3785 164.509 84.5574 165.688 86.0115 165.688Z" fill="#E15145"/>
<path d="M166.753 196.892H83.3785V197.673H166.753V196.892Z" fill="#CCCCCC"/>
<path d="M86.0115 192.017C87.4657 192.017 88.6446 190.838 88.6446 189.384C88.6446 187.93 87.4657 186.751 86.0115 186.751C84.5574 186.751 83.3785 187.93 83.3785 189.384C83.3785 190.838 84.5574 192.017 86.0115 192.017Z" fill="#E15145"/>
<path d="M165.227 226.874H138.879C138.424 226.874 137.987 226.693 137.665 226.371C137.344 226.049 137.163 225.613 137.162 225.157V215.922C137.163 215.467 137.344 215.031 137.665 214.709C137.987 214.387 138.424 214.206 138.879 214.206H165.227C165.683 214.206 166.119 214.387 166.441 214.709C166.763 215.031 166.944 215.467 166.944 215.922V225.157C166.944 225.613 166.763 226.049 166.441 226.371C166.119 226.693 165.683 226.874 165.227 226.874Z" fill="#E15145"/>
<path d="M94.6003 165.688C96.0545 165.688 97.2333 164.509 97.2333 163.055C97.2333 161.601 96.0545 160.422 94.6003 160.422C93.1461 160.422 91.9673 161.601 91.9673 163.055C91.9673 164.509 93.1461 165.688 94.6003 165.688Z" fill="#E15145"/>
<path d="M103.189 165.688C104.643 165.688 105.822 164.509 105.822 163.055C105.822 161.601 104.643 160.422 103.189 160.422C101.735 160.422 100.556 161.601 100.556 163.055C100.556 164.509 101.735 165.688 103.189 165.688Z" fill="#E15145"/>
<path d="M94.6003 192.017C96.0545 192.017 97.2333 190.838 97.2333 189.384C97.2333 187.93 96.0545 186.751 94.6003 186.751C93.1461 186.751 91.9673 187.93 91.9673 189.384C91.9673 190.838 93.1461 192.017 94.6003 192.017Z" fill="#E15145"/>
<path d="M103.189 192.017C104.643 192.017 105.822 190.838 105.822 189.384C105.822 187.93 104.643 186.751 103.189 186.751C101.735 186.751 100.556 187.93 100.556 189.384C100.556 190.838 101.735 192.017 103.189 192.017Z" fill="#E15145"/>
<path d="M283.088 285H9.18619C8.59985 285 8.12489 284.792 8.12489 284.535C8.12489 284.279 8.59985 284.07 9.18619 284.07H283.088C283.674 284.07 284.15 284.279 284.15 284.535C284.15 284.792 283.674 285 283.088 285Z" fill="#3F3D56"/>
<path d="M215.417 186.723C215.604 186.809 215.784 186.909 215.955 187.023L233.065 179.72L233.676 175.213L240.513 175.171L240.109 185.509L217.525 191.481C217.478 191.638 217.421 191.792 217.354 191.942C217.028 192.639 216.503 193.224 215.845 193.623C215.187 194.022 214.426 194.218 213.658 194.187C212.889 194.155 212.147 193.896 211.524 193.444C210.902 192.992 210.427 192.366 210.159 191.644C209.891 190.923 209.842 190.139 210.019 189.39C210.195 188.641 210.589 187.961 211.151 187.435C211.713 186.909 212.417 186.561 213.176 186.434C213.935 186.308 214.715 186.408 215.417 186.723Z" fill="#FFB8B8"/>
<path d="M242.999 280.401H238.322L236.098 262.361L243 262.361L242.999 280.401Z" fill="#FFB8B8"/>
<path d="M234.982 279.064H244.001V284.743H229.303C229.303 283.237 229.901 281.793 230.966 280.728C232.031 279.663 233.475 279.064 234.982 279.064Z" fill="#2F2E41"/>
<path d="M261.189 279.079L256.534 279.538L252.551 261.803L259.421 261.127L261.189 279.079Z" fill="#FFB8B8"/>
<path d="M253.079 278.535L262.055 277.651L262.612 283.303L247.984 284.744C247.911 284.002 247.984 283.252 248.201 282.539C248.417 281.825 248.772 281.161 249.245 280.584C249.719 280.008 250.301 279.53 250.958 279.179C251.616 278.827 252.337 278.608 253.079 278.535Z" fill="#2F2E41"/>
<path d="M244.301 156.079C249.476 156.079 253.671 151.885 253.671 146.71C253.671 141.535 249.476 137.34 244.301 137.34C239.127 137.34 234.932 141.535 234.932 146.71C234.932 151.885 239.127 156.079 244.301 156.079Z" fill="#FFB8B8"/>
<path d="M237.277 276.753C236.875 276.754 236.486 276.613 236.178 276.355C235.87 276.097 235.663 275.738 235.593 275.342C233.172 261.904 225.259 217.965 225.07 216.747C225.066 216.719 225.064 216.691 225.064 216.663V213.387C225.064 213.267 225.101 213.151 225.171 213.054L226.216 211.59C226.266 211.519 226.331 211.461 226.406 211.42C226.482 211.379 226.566 211.355 226.652 211.351C232.612 211.072 252.13 210.253 253.072 211.431C254.019 212.615 253.685 216.202 253.608 216.909L253.612 216.983L262.381 273.06C262.449 273.507 262.339 273.963 262.074 274.33C261.808 274.697 261.41 274.944 260.963 275.019L255.487 275.921C255.079 275.987 254.661 275.904 254.309 275.687C253.957 275.471 253.695 275.135 253.569 274.741C251.875 269.329 246.196 251.12 244.227 244.075C244.215 244.03 244.187 243.992 244.148 243.966C244.109 243.941 244.063 243.93 244.017 243.937C243.971 243.943 243.929 243.966 243.899 244.001C243.869 244.036 243.853 244.081 243.853 244.128C243.951 250.844 244.189 267.98 244.271 273.898L244.28 274.535C244.284 274.967 244.125 275.384 243.836 275.704C243.547 276.025 243.148 276.225 242.719 276.266L237.437 276.746C237.384 276.75 237.33 276.753 237.277 276.753Z" fill="#2F2E41"/>
<path d="M238.355 159.764C236.72 160.736 235.741 162.522 235.18 164.34C234.14 167.705 233.515 171.184 233.316 174.701L232.723 185.23L225.377 213.143C231.744 218.53 235.416 217.306 243.987 212.899C252.557 208.493 253.536 214.369 253.536 214.369L255.25 190.618L257.698 164.664C257.149 164.003 256.527 163.404 255.844 162.881C253.581 161.121 250.947 159.898 248.143 159.304C245.338 158.709 242.435 158.759 239.653 159.45L238.355 159.764Z" fill="#E15145"/>
<path d="M235.969 192.36C236.166 192.435 236.358 192.525 236.541 192.629L253.46 184.161L253.74 179.573L260.719 179.092L261.093 189.55L238.484 197.027C238.3 197.819 237.878 198.535 237.276 199.082C236.674 199.629 235.92 199.979 235.114 200.086C234.308 200.194 233.489 200.054 232.765 199.684C232.04 199.314 231.446 198.733 231.06 198.017C230.674 197.302 230.516 196.486 230.605 195.677C230.694 194.869 231.028 194.108 231.561 193.493C232.093 192.879 232.801 192.442 233.588 192.24C234.376 192.037 235.206 192.079 235.969 192.36Z" fill="#FFB8B8"/>
<path d="M257.576 164.783C261.738 166.252 262.472 182.169 262.472 182.169C257.575 179.476 251.698 183.883 251.698 183.883C251.698 183.883 250.474 179.72 249.005 174.334C248.561 172.818 248.508 171.216 248.85 169.674C249.193 168.133 249.92 166.704 250.963 165.519C250.963 165.519 253.413 163.313 257.576 164.783Z" fill="#E15145"/>
<path d="M252.703 149.188C251.535 148.254 249.943 149.951 249.943 149.951L249.009 141.546C249.009 141.546 243.171 142.245 239.436 141.312C235.7 140.38 235.116 144.698 235.116 144.698C234.924 142.954 234.885 141.196 235 139.445C235.233 137.343 238.268 135.242 243.638 133.841C249.008 132.44 251.81 138.511 251.81 138.511C255.546 140.378 253.87 150.122 252.703 149.188Z" fill="#2F2E41"/>
<path d="M82.783 138.321V133.695H83.7612V137.515H85.7447V138.321H82.783ZM90.3367 136.008C90.3367 136.513 90.2411 136.942 90.0498 137.296C89.86 137.65 89.601 137.92 89.2727 138.107C88.9458 138.292 88.5784 138.385 88.1702 138.385C87.7591 138.385 87.3901 138.291 87.0633 138.105C86.7365 137.918 86.4782 137.647 86.2884 137.294C86.0986 136.94 86.0038 136.511 86.0038 136.008C86.0038 135.504 86.0986 135.074 86.2884 134.72C86.4782 134.366 86.7365 134.097 87.0633 133.912C87.3901 133.725 87.7591 133.632 88.1702 133.632C88.5784 133.632 88.9458 133.725 89.2727 133.912C89.601 134.097 89.86 134.366 90.0498 134.72C90.2411 135.074 90.3367 135.504 90.3367 136.008ZM89.345 136.008C89.345 135.681 89.296 135.406 89.1981 135.181C89.1017 134.957 88.9654 134.787 88.7892 134.671C88.613 134.555 88.4067 134.497 88.1702 134.497C87.9338 134.497 87.7274 134.555 87.5512 134.671C87.375 134.787 87.238 134.957 87.1401 135.181C87.0437 135.406 86.9955 135.681 86.9955 136.008C86.9955 136.335 87.0437 136.611 87.1401 136.835C87.238 137.059 87.375 137.23 87.5512 137.345C87.7274 137.461 87.9338 137.519 88.1702 137.519C88.4067 137.519 88.613 137.461 88.7892 137.345C88.9654 137.23 89.1017 137.059 89.1981 136.835C89.296 136.611 89.345 136.335 89.345 136.008ZM94.0019 135.19C93.9703 135.08 93.9259 134.983 93.8686 134.899C93.8114 134.813 93.7414 134.741 93.6585 134.682C93.5772 134.622 93.4838 134.576 93.3784 134.544C93.2745 134.513 93.1593 134.497 93.0328 134.497C92.7963 134.497 92.5885 134.556 92.4093 134.673C92.2315 134.79 92.093 134.961 91.9936 135.186C91.8942 135.409 91.8445 135.681 91.8445 136.004C91.8445 136.326 91.8934 136.6 91.9913 136.826C92.0892 137.052 92.2278 137.224 92.407 137.343C92.5862 137.461 92.7978 137.519 93.0418 137.519C93.2632 137.519 93.4522 137.48 93.6088 137.402C93.767 137.322 93.8875 137.21 93.9703 137.065C94.0546 136.921 94.0968 136.75 94.0968 136.553L94.2956 136.582H93.1028V135.845H95.0388V136.428C95.0388 136.835 94.953 137.184 94.7813 137.477C94.6096 137.767 94.3732 137.992 94.0719 138.15C93.7707 138.306 93.4258 138.385 93.0373 138.385C92.6035 138.385 92.2225 138.289 91.8942 138.098C91.5659 137.905 91.3098 137.632 91.1261 137.278C90.9439 136.922 90.8527 136.501 90.8527 136.013C90.8527 135.638 90.907 135.303 91.0154 135.01C91.1253 134.714 91.279 134.464 91.4762 134.26C91.6735 134.055 91.9032 133.899 92.1653 133.792C92.4273 133.685 92.7112 133.632 93.017 133.632C93.279 133.632 93.523 133.67 93.7489 133.747C93.9748 133.822 94.1751 133.929 94.3498 134.068C94.526 134.206 94.6699 134.371 94.7813 134.562C94.8928 134.752 94.9643 134.961 94.9959 135.19H94.0019ZM96.6246 133.695V138.321H95.6464V133.695H96.6246ZM101.172 133.695V138.321H100.327L98.3142 135.409H98.2803V138.321H97.3021V133.695H98.1606L100.158 136.604H100.198V133.695H101.172ZM103.022 134.501V133.695H106.822V134.501H105.405V138.321H104.438V134.501H103.022ZM111.361 136.008C111.361 136.513 111.265 136.942 111.074 137.296C110.884 137.65 110.625 137.92 110.297 138.107C109.97 138.292 109.602 138.385 109.194 138.385C108.783 138.385 108.414 138.291 108.087 138.105C107.76 137.918 107.502 137.647 107.312 137.294C107.123 136.94 107.028 136.511 107.028 136.008C107.028 135.504 107.123 135.074 107.312 134.72C107.502 134.366 107.76 134.097 108.087 133.912C108.414 133.725 108.783 133.632 109.194 133.632C109.602 133.632 109.97 133.725 110.297 133.912C110.625 134.097 110.884 134.366 111.074 134.72C111.265 135.074 111.361 135.504 111.361 136.008ZM110.369 136.008C110.369 135.681 110.32 135.406 110.222 135.181C110.126 134.957 109.989 134.787 109.813 134.671C109.637 134.555 109.431 134.497 109.194 134.497C108.958 134.497 108.751 134.555 108.575 134.671C108.399 134.787 108.262 134.957 108.164 135.181C108.068 135.406 108.019 135.681 108.019 136.008C108.019 136.335 108.068 136.611 108.164 136.835C108.262 137.059 108.399 137.23 108.575 137.345C108.751 137.461 108.958 137.519 109.194 137.519C109.431 137.519 109.637 137.461 109.813 137.345C109.989 137.23 110.126 137.059 110.222 136.835C110.32 136.611 110.369 136.335 110.369 136.008ZM113.032 133.695H114.128L115.183 135.687H115.228L116.283 133.695H117.378L115.691 136.686V138.321H114.72V136.686L113.032 133.695ZM121.758 136.008C121.758 136.513 121.662 136.942 121.471 137.296C121.281 137.65 121.022 137.92 120.694 138.107C120.367 138.292 119.999 138.385 119.591 138.385C119.18 138.385 118.811 138.291 118.484 138.105C118.157 137.918 117.899 137.647 117.709 137.294C117.52 136.94 117.425 136.511 117.425 136.008C117.425 135.504 117.52 135.074 117.709 134.72C117.899 134.366 118.157 134.097 118.484 133.912C118.811 133.725 119.18 133.632 119.591 133.632C119.999 133.632 120.367 133.725 120.694 133.912C121.022 134.097 121.281 134.366 121.471 134.72C121.662 135.074 121.758 135.504 121.758 136.008ZM120.766 136.008C120.766 135.681 120.717 135.406 120.619 135.181C120.523 134.957 120.386 134.787 120.21 134.671C120.034 134.555 119.828 134.497 119.591 134.497C119.355 134.497 119.148 134.555 118.972 134.671C118.796 134.787 118.659 134.957 118.561 135.181C118.465 135.406 118.416 135.681 118.416 136.008C118.416 136.335 118.465 136.611 118.561 136.835C118.659 137.059 118.796 137.23 118.972 137.345C119.148 137.461 119.355 137.519 119.591 137.519C119.828 137.519 120.034 137.461 120.21 137.345C120.386 137.23 120.523 137.059 120.619 136.835C120.717 136.611 120.766 136.335 120.766 136.008ZM125.213 133.695H126.191V136.699C126.191 137.037 126.11 137.332 125.949 137.585C125.79 137.838 125.566 138.035 125.278 138.177C124.991 138.317 124.655 138.387 124.273 138.387C123.889 138.387 123.553 138.317 123.265 138.177C122.978 138.035 122.754 137.838 122.594 137.585C122.435 137.332 122.355 137.037 122.355 136.699V133.695H123.333V136.616C123.333 136.792 123.372 136.949 123.448 137.086C123.527 137.223 123.637 137.33 123.778 137.409C123.92 137.487 124.085 137.526 124.273 137.526C124.463 137.526 124.628 137.487 124.768 137.409C124.909 137.33 125.018 137.223 125.095 137.086C125.174 136.949 125.213 136.792 125.213 136.616V133.695ZM126.868 138.321V133.695H128.694C129.043 133.695 129.341 133.757 129.588 133.882C129.837 134.006 130.026 134.181 130.155 134.409C130.286 134.635 130.352 134.9 130.352 135.206C130.352 135.513 130.286 135.778 130.153 135.999C130.021 136.219 129.829 136.388 129.577 136.505C129.327 136.623 129.024 136.681 128.669 136.681H127.447V135.895H128.511C128.698 135.895 128.853 135.87 128.976 135.818C129.1 135.767 129.192 135.69 129.252 135.588C129.314 135.485 129.344 135.358 129.344 135.206C129.344 135.053 129.314 134.923 129.252 134.818C129.192 134.712 129.099 134.632 128.974 134.578C128.85 134.522 128.695 134.495 128.506 134.495H127.847V138.321H126.868ZM129.367 136.216L130.517 138.321H129.437L128.312 136.216H129.367ZM133.059 138.321H132.01L133.608 133.695H134.868L136.463 138.321H135.415L134.256 134.752H134.22L133.059 138.321ZM132.993 136.503H135.469V137.266H132.993V136.503ZM140.757 135.315H139.768C139.75 135.187 139.713 135.073 139.657 134.973C139.602 134.873 139.53 134.787 139.443 134.716C139.355 134.645 139.254 134.591 139.14 134.553C139.027 134.516 138.904 134.497 138.772 134.497C138.532 134.497 138.324 134.556 138.146 134.675C137.968 134.793 137.83 134.964 137.733 135.19C137.635 135.415 137.586 135.687 137.586 136.008C137.586 136.338 137.635 136.615 137.733 136.839C137.832 137.064 137.97 137.233 138.148 137.348C138.326 137.462 138.531 137.519 138.765 137.519C138.896 137.519 139.017 137.502 139.129 137.467C139.242 137.433 139.342 137.382 139.429 137.316C139.516 137.248 139.589 137.166 139.646 137.07C139.705 136.973 139.745 136.864 139.768 136.74L140.757 136.745C140.732 136.957 140.668 137.162 140.565 137.359C140.465 137.555 140.328 137.73 140.157 137.885C139.986 138.039 139.783 138.161 139.547 138.251C139.312 138.34 139.046 138.385 138.749 138.385C138.336 138.385 137.967 138.291 137.642 138.105C137.318 137.918 137.062 137.647 136.874 137.294C136.687 136.94 136.594 136.511 136.594 136.008C136.594 135.504 136.689 135.074 136.879 134.72C137.068 134.366 137.326 134.097 137.651 133.912C137.977 133.725 138.342 133.632 138.749 133.632C139.017 133.632 139.266 133.669 139.495 133.744C139.725 133.82 139.929 133.93 140.107 134.074C140.285 134.217 140.429 134.393 140.541 134.601C140.654 134.809 140.726 135.046 140.757 135.315ZM145.414 135.315H144.424C144.406 135.187 144.369 135.073 144.314 134.973C144.258 134.873 144.186 134.787 144.099 134.716C144.012 134.645 143.911 134.591 143.796 134.553C143.683 134.516 143.561 134.497 143.428 134.497C143.189 134.497 142.98 134.556 142.802 134.675C142.625 134.793 142.487 134.964 142.389 135.19C142.291 135.415 142.242 135.687 142.242 136.008C142.242 136.338 142.291 136.615 142.389 136.839C142.488 137.064 142.627 137.233 142.805 137.348C142.982 137.462 143.188 137.519 143.421 137.519C143.552 137.519 143.674 137.502 143.785 137.467C143.898 137.433 143.998 137.382 144.086 137.316C144.173 137.248 144.245 137.166 144.302 137.07C144.361 136.973 144.402 136.864 144.424 136.74L145.414 136.745C145.388 136.957 145.324 137.162 145.222 137.359C145.121 137.555 144.985 137.73 144.813 137.885C144.643 138.039 144.439 138.161 144.203 138.251C143.968 138.34 143.702 138.385 143.406 138.385C142.993 138.385 142.624 138.291 142.299 138.105C141.975 137.918 141.719 137.647 141.53 137.294C141.344 136.94 141.25 136.511 141.25 136.008C141.25 135.504 141.345 135.074 141.535 134.72C141.725 134.366 141.982 134.097 142.308 133.912C142.633 133.725 142.999 133.632 143.406 133.632C143.674 133.632 143.922 133.669 144.151 133.744C144.381 133.82 144.586 133.93 144.763 134.074C144.941 134.217 145.086 134.393 145.197 134.601C145.31 134.809 145.382 135.046 145.414 135.315ZM150.24 136.008C150.24 136.513 150.144 136.942 149.953 137.296C149.763 137.65 149.504 137.92 149.176 138.107C148.849 138.292 148.481 138.385 148.073 138.385C147.662 138.385 147.293 138.291 146.966 138.105C146.639 137.918 146.381 137.647 146.191 137.294C146.002 136.94 145.907 136.511 145.907 136.008C145.907 135.504 146.002 135.074 146.191 134.72C146.381 134.366 146.639 134.097 146.966 133.912C147.293 133.725 147.662 133.632 148.073 133.632C148.481 133.632 148.849 133.725 149.176 133.912C149.504 134.097 149.763 134.366 149.953 134.72C150.144 135.074 150.24 135.504 150.24 136.008ZM149.248 136.008C149.248 135.681 149.199 135.406 149.101 135.181C149.005 134.957 148.868 134.787 148.692 134.671C148.516 134.555 148.31 134.497 148.073 134.497C147.837 134.497 147.63 134.555 147.454 134.671C147.278 134.787 147.141 134.957 147.043 135.181C146.947 135.406 146.898 135.681 146.898 136.008C146.898 136.335 146.947 136.611 147.043 136.835C147.141 137.059 147.278 137.23 147.454 137.345C147.63 137.461 147.837 137.519 148.073 137.519C148.31 137.519 148.516 137.461 148.692 137.345C148.868 137.23 149.005 137.059 149.101 136.835C149.199 136.611 149.248 136.335 149.248 136.008ZM153.695 133.695H154.673V136.699C154.673 137.037 154.592 137.332 154.431 137.585C154.272 137.838 154.048 138.035 153.76 138.177C153.473 138.317 153.138 138.387 152.755 138.387C152.371 138.387 152.035 138.317 151.747 138.177C151.46 138.035 151.236 137.838 151.077 137.585C150.917 137.332 150.837 137.037 150.837 136.699V133.695H151.815V136.616C151.815 136.792 151.854 136.949 151.93 137.086C152.009 137.223 152.119 137.33 152.26 137.409C152.402 137.487 152.567 137.526 152.755 137.526C152.945 137.526 153.11 137.487 153.25 137.409C153.391 137.33 153.501 137.223 153.577 137.086C153.656 136.949 153.695 136.792 153.695 136.616V133.695ZM159.22 133.695V138.321H158.375L156.363 135.409H156.329V138.321H155.351V133.695H156.209L158.206 136.604H158.247V133.695H159.22ZM159.725 134.501V133.695H163.525V134.501H162.108V138.321H161.142V134.501H159.725Z" fill="#CCCCCC"/>
</svg>
