<svg width="283" height="285" viewBox="0 0 283 285" fill="none" xmlns="http://www.w3.org/2000/svg">
<path d="M41.4436 144.683C-13.8178 176.587 -13.8113 228.286 41.4436 260.216C96.6986 292.145 186.295 292.12 241.556 260.216C296.818 228.312 296.811 176.613 241.556 144.683C186.301 112.753 96.705 112.779 41.4436 144.683Z" fill="#FAFAFA"/>
<path d="M104.93 238.067C104.89 238.046 104.854 238.017 104.825 237.982C104.797 237.946 104.775 237.905 104.763 237.862C101.548 225.643 89.4702 218.389 84.3125 215.295C83.4765 214.8 82.8206 214.401 82.3832 214.105C81.4833 213.535 80.7462 212.741 80.2437 211.801C79.7411 210.861 79.4901 209.807 79.515 208.742C79.5966 207.812 79.922 206.92 80.4583 206.155C80.9946 205.391 81.7228 204.781 82.5697 204.388C87.0264 202.067 95.4317 206.684 101.638 214.89C110.364 226.401 108.802 236.222 108.789 236.318C108.779 236.369 108.757 236.417 108.726 236.458C108.695 236.499 108.655 236.533 108.609 236.556L105.187 238.067C105.147 238.076 105.106 238.076 105.065 238.067C105.021 238.076 104.975 238.076 104.93 238.067ZM101.142 215.269C95.0909 207.295 87.065 202.761 82.8656 204.941C82.1094 205.284 81.4584 205.822 80.9801 206.5C80.5018 207.179 80.2136 207.973 80.1453 208.8C80.1248 209.755 80.3508 210.7 80.8014 211.542C81.2519 212.385 81.9119 213.097 82.7177 213.61C83.1357 213.9 83.7852 214.286 84.6084 214.781C89.7531 217.88 101.831 225.07 105.245 237.366L108.171 236.08C108.358 234.742 109.085 225.746 101.142 215.269Z" fill="#E15145"/>
<path d="M107.014 237.231H107.052C107.093 237.226 107.132 237.212 107.168 237.191C107.203 237.171 107.234 237.143 107.259 237.11C107.283 237.077 107.301 237.039 107.311 237C107.321 236.96 107.322 236.918 107.316 236.878C105.162 222.311 92.7757 209.996 85.5344 208.24C85.4932 208.227 85.4497 208.223 85.4066 208.227C85.3635 208.231 85.3218 208.245 85.284 208.266C85.2463 208.287 85.2133 208.316 85.1872 208.35C85.161 208.385 85.1423 208.424 85.1321 208.466C85.1219 208.508 85.1205 208.552 85.1279 208.595C85.1354 208.638 85.1516 208.678 85.1755 208.714C85.1993 208.75 85.2304 208.781 85.2667 208.805C85.303 208.828 85.3438 208.844 85.3865 208.851C92.5506 210.581 104.679 223.154 106.699 236.968C106.711 237.042 106.75 237.11 106.807 237.158C106.865 237.206 106.938 237.232 107.014 237.231Z" fill="#E15145"/>
<path d="M108.493 236.582C108.538 236.581 108.582 236.57 108.622 236.55L110.924 235.411C110.971 235.39 111.011 235.357 111.042 235.315C111.072 235.273 111.091 235.225 111.098 235.173C111.098 235.032 113.078 220.446 106.815 202.279C103.599 193.025 96.525 184.664 89.9396 182.394C86.7692 181.307 83.8817 181.584 81.3543 183.224C80.7217 183.573 80.178 184.064 79.7653 184.657C79.3527 185.25 79.0822 185.931 78.9748 186.645C78.5632 190.349 83.1099 195.005 87.9267 199.925C91.2966 203.372 94.7822 206.935 96.6536 210.279C96.6716 210.319 96.6978 210.355 96.7303 210.384C96.7629 210.413 96.8012 210.435 96.8428 210.448C96.8844 210.462 96.9283 210.467 96.9718 210.463C97.0153 210.458 97.0575 210.445 97.0955 210.423C97.1336 210.402 97.1668 210.373 97.193 210.338C97.2192 210.303 97.2378 210.263 97.2476 210.22C97.2575 210.177 97.2583 210.133 97.2502 210.09C97.242 210.047 97.225 210.006 97.2002 209.97C95.2709 206.556 91.7725 202.961 88.3769 199.488C83.663 194.671 79.2192 190.118 79.5986 186.71C79.7272 185.552 80.4089 184.587 81.6951 183.751C84.0489 182.221 86.7563 181.963 89.7338 182.986C96.1648 185.198 103.091 193.398 106.223 202.485C112.081 219.475 110.725 233.283 110.499 234.923L108.345 235.99C108.308 236.008 108.275 236.033 108.248 236.064C108.22 236.094 108.2 236.13 108.186 236.169C108.173 236.208 108.168 236.249 108.171 236.29C108.174 236.331 108.185 236.371 108.204 236.408C108.231 236.461 108.273 236.505 108.324 236.536C108.375 236.567 108.433 236.582 108.493 236.582Z" fill="#E15145"/>
<path d="M107.618 227.643C107.701 227.636 107.777 227.597 107.832 227.535C107.886 227.472 107.913 227.391 107.908 227.308C105.978 204.536 90.4605 188.639 86.2354 186.15C86.1647 186.12 86.0855 186.116 86.0125 186.141C85.9396 186.165 85.878 186.215 85.8393 186.281C85.8006 186.347 85.7874 186.426 85.8023 186.501C85.8173 186.576 85.8592 186.644 85.9202 186.69C90.0811 189.121 105.387 204.813 107.284 227.34C107.285 227.383 107.294 227.424 107.312 227.463C107.329 227.501 107.354 227.536 107.386 227.564C107.417 227.592 107.454 227.614 107.494 227.628C107.534 227.641 107.576 227.646 107.618 227.643Z" fill="#E15145"/>
<path d="M144.243 278.48C174.397 278.48 198.842 264.366 198.842 246.955C198.842 229.544 174.397 215.43 144.243 215.43C114.089 215.43 89.6438 229.544 89.6438 246.955C89.6438 264.366 114.089 278.48 144.243 278.48Z" fill="#E0E0E0"/>
<path d="M139.574 22.861C134.976 11.8512 120.03 7.90256 110.139 12.102C105.638 14.0313 99.6247 18.4944 99.9912 25.0347C84.0231 8.8865 42.8456 26.2501 56.2734 49.9547C35.2249 48.302 21.8034 81.3893 48.0675 88.9265C24.498 100.341 36.7233 136.947 67.0325 130.599C63.7527 138.779 70.4087 145.603 77.5535 148.046C85.6694 150.818 96.3642 149.526 99.2131 144.542C106.384 164.716 136.828 167.359 149.851 149.776C159.465 159.912 181.774 158.715 182.546 143.268C198.237 155.442 234.045 141.146 223.852 119.416C248.077 121.95 253.614 91.7239 234.617 86.3862C244.855 83.2093 252.521 72.566 248.264 60.7266C245.518 53.0866 234.714 41.2279 222.122 45.7296C226.784 30.874 205.659 20.1278 194.16 31.4914C192.533 8.327 151.748 0.146805 139.574 22.861Z" fill="white"/>
<path d="M125.484 162.066C123.852 162.067 122.223 161.947 120.609 161.706C110.493 160.201 102.525 154.291 99.0588 145.808C95.2002 150.419 84.8463 151.172 77.3606 148.612C72.4474 146.934 68.4409 143.583 66.6402 139.654C65.433 137.061 65.247 134.108 66.1193 131.384C50.2991 134.246 39.8037 125.596 36.3696 115.512C33.3406 106.637 35.3921 95.1967 46.4984 89.0615C34.749 85.0679 31.9065 75.7687 33.2698 68.238C34.9933 58.7266 43.8295 49.0094 55.2445 49.2988C50.8264 40.572 53.193 31.6072 61.7591 25.1441C72.0101 17.3947 89.6116 15.086 99.4317 23.6649C99.8691 17.877 105.001 13.6455 109.927 11.5554C115.4 9.23381 122.57 9.32385 128.661 11.7998C133.664 13.8384 137.529 17.2725 139.67 21.5491C146.571 9.97338 160.893 7.20806 172.301 9.6454C184.719 12.3014 193.356 20.3144 194.655 30.2245C201.26 24.5331 210.09 25.4849 215.768 28.9383C220.514 31.8387 224.772 37.4722 223.022 44.81C235.768 41.1057 246.238 53.2346 248.856 60.5144C249.794 62.9915 250.209 65.6362 250.074 68.2817C249.939 70.9271 249.257 73.5159 248.071 75.8845C245.626 80.6751 241.507 84.4009 236.495 86.3541C245.029 89.6403 247.614 98.0392 246.315 104.83C244.72 113.158 237.473 120.959 224.836 120.091C228.051 127.808 225.826 135.416 218.714 141.101C209.71 148.323 193.138 151.268 183.086 144.368C182.443 149.68 179.227 153.661 173.857 155.648C165.973 158.568 155.851 156.42 149.941 150.677C144.294 157.873 135.117 162.066 125.484 162.066ZM99.2131 143.937H99.2645C99.378 143.952 99.4855 143.996 99.576 144.067C99.6664 144.137 99.7365 144.23 99.779 144.336C102.847 152.966 110.712 159.011 120.783 160.516C131.927 162.175 143.143 157.822 149.368 149.41C149.422 149.342 149.49 149.287 149.566 149.246C149.642 149.205 149.726 149.18 149.812 149.172C149.899 149.165 149.987 149.179 150.068 149.211C150.149 149.244 150.222 149.294 150.281 149.358C155.69 155.056 165.851 157.333 173.433 154.503C178.674 152.574 181.71 148.555 181.973 143.204C181.983 143.096 182.02 142.992 182.081 142.902C182.142 142.812 182.224 142.739 182.321 142.689C182.425 142.643 182.539 142.626 182.652 142.638C182.765 142.65 182.872 142.693 182.964 142.76C192.462 150.137 209.048 147.3 217.987 140.149C222.058 136.889 228.173 129.892 223.363 119.641C223.321 119.544 223.304 119.438 223.313 119.332C223.322 119.227 223.357 119.125 223.415 119.036C223.477 118.95 223.561 118.882 223.658 118.839C223.755 118.796 223.862 118.78 223.968 118.792C236.482 120.078 243.627 112.599 245.19 104.586C246.476 97.8848 243.685 89.4988 234.54 86.9329C234.415 86.8975 234.304 86.8221 234.226 86.7182C234.147 86.6143 234.105 86.4876 234.105 86.3573C234.105 86.227 234.147 86.1003 234.226 85.9964C234.304 85.8925 234.415 85.8172 234.54 85.7817C237.203 84.9624 239.674 83.6186 241.809 81.8293C243.944 80.0401 245.699 77.8417 246.971 75.3636C248.082 73.1387 248.721 70.7078 248.846 68.2241C248.971 65.7404 248.58 63.2577 247.698 60.9324C245.126 53.8584 234.759 41.8389 222.321 46.2955C222.216 46.3343 222.103 46.3429 221.993 46.3204C221.884 46.2978 221.783 46.2451 221.702 46.1681C221.621 46.0911 221.563 45.9929 221.535 45.8847C221.507 45.7765 221.51 45.6626 221.543 45.556C223.807 38.3404 219.704 32.7776 215.112 29.9737C209.575 26.6039 200.79 25.7743 194.572 31.903C194.49 31.9832 194.387 32.0384 194.275 32.0619C194.163 32.0854 194.047 32.0764 193.94 32.0357C193.833 31.9951 193.74 31.9247 193.672 31.8328C193.604 31.7408 193.563 31.6313 193.556 31.5172C192.855 21.5813 184.404 13.4461 172.018 10.7965C160.719 8.37849 146.468 11.2531 140.108 23.1247C140.051 23.2207 139.97 23.3003 139.873 23.3555C139.776 23.4108 139.666 23.4398 139.555 23.4398C139.442 23.4303 139.334 23.3914 139.242 23.3271C139.149 23.2628 139.075 23.1752 139.027 23.0733C137.149 18.5716 133.297 14.9702 128.178 12.893C122.39 10.5329 115.548 10.43 110.364 12.6358C108.66 13.3625 100.158 17.3626 100.583 24.9768C100.589 25.0994 100.558 25.2211 100.494 25.3256C100.43 25.4301 100.335 25.5126 100.223 25.5621C100.115 25.6064 99.9962 25.6179 99.8818 25.595C99.7673 25.5721 99.6622 25.5159 99.5797 25.4334C90.4348 16.1921 72.6853 18.3594 62.4665 26.0765C54.0162 32.4689 51.9518 41.0543 56.8072 49.6332C56.8677 49.7295 56.8998 49.841 56.8998 49.9548C56.8998 50.0685 56.8677 50.18 56.8072 50.2763C56.7457 50.3652 56.6628 50.4371 56.5661 50.4854C56.4694 50.5337 56.3622 50.5569 56.2542 50.5528C44.9549 49.6589 36.1574 59.1575 34.4789 68.4567C32.7361 77.9424 37.8873 85.4152 48.254 88.3477C48.371 88.3813 48.4749 88.4498 48.5518 88.5441C48.6288 88.6383 48.6752 88.7538 48.6849 88.875C48.6963 88.9952 48.6703 89.1159 48.6104 89.2206C48.5505 89.3254 48.4598 89.4091 48.3505 89.4603C36.7747 95.0874 34.5496 106.406 37.5272 115.126C40.8648 124.901 51.2509 133.3 66.936 130.014C67.0415 129.992 67.151 129.999 67.2528 130.034C67.3547 130.069 67.4452 130.131 67.5148 130.213C67.5845 130.296 67.6303 130.396 67.6473 130.502C67.6643 130.609 67.6518 130.718 67.6113 130.818C67.0424 132.142 66.7609 133.572 66.7853 135.013C66.8097 136.454 67.1394 137.874 67.7528 139.178C69.3927 142.76 73.2384 145.95 77.7722 147.506C85.9846 150.31 96.1648 148.741 98.7179 144.291C98.7618 144.193 98.8308 144.109 98.9177 144.047C99.0047 143.985 99.1067 143.947 99.2131 143.937Z" fill="#F0F0F0"/>
<path d="M259.415 42.9707C259.393 43.0357 259.384 43.1046 259.389 43.1731C259.395 43.2417 259.414 43.3083 259.447 43.3688C259.48 43.4293 259.525 43.4823 259.579 43.5245C259.633 43.5667 259.696 43.5971 259.762 43.6138L266.161 45.4595C266.225 45.4781 266.291 45.484 266.357 45.477C266.422 45.4699 266.486 45.4499 266.544 45.4183C266.602 45.3866 266.653 45.3439 266.694 45.2925C266.736 45.2411 266.766 45.182 266.785 45.1187C266.804 45.0553 266.81 44.989 266.802 44.9233C266.795 44.8577 266.775 44.7941 266.744 44.7362C266.712 44.6783 266.669 44.6271 266.618 44.5857C266.567 44.5443 266.508 44.5135 266.444 44.4949L260.013 42.6492C259.891 42.6196 259.763 42.636 259.653 42.6954C259.542 42.7547 259.458 42.8528 259.415 42.9707ZM265.923 46.2698L259.492 44.4241C259.428 44.4024 259.359 44.3941 259.292 44.3996C259.224 44.4052 259.158 44.4245 259.098 44.4564C259.037 44.4883 258.984 44.5321 258.942 44.5851C258.899 44.6382 258.867 44.6994 258.849 44.765C258.598 45.7385 258.736 46.7718 259.235 47.6447C259.734 48.5177 260.554 49.1615 261.52 49.4389C262.487 49.7163 263.523 49.6056 264.409 49.1302C265.296 48.6548 265.961 47.8523 266.264 46.8936C266.283 46.8307 266.289 46.7647 266.282 46.6995C266.275 46.6343 266.255 46.5711 266.223 46.5137C266.191 46.4562 266.148 46.4056 266.097 46.3649C266.045 46.3241 265.986 46.294 265.923 46.2763V46.2698ZM266.631 31.7615C267.129 31.3914 267.46 30.8385 267.55 30.2245C267.549 30.1297 267.515 30.0383 267.454 29.9656C267.393 29.893 267.309 29.8436 267.216 29.8258C267.129 29.7892 267.031 29.7853 266.941 29.8149C266.852 29.8444 266.776 29.9054 266.727 29.9866C266.598 30.258 266.524 30.5525 266.509 30.8528C266.495 31.1531 266.541 31.4533 266.644 31.7358L266.631 31.7615ZM263.692 33.9095H263.66C263.748 34.361 263.798 34.8193 263.807 35.2793C263.782 37.3411 263.413 39.3843 262.714 41.3244C262.669 41.4788 262.618 41.646 262.566 41.8003L262.406 42.3276L264.611 42.9707C264.701 42.6492 264.798 42.3276 264.881 41.9997C265.326 39.9906 266.098 38.0679 267.164 36.3082C267.416 35.9231 267.703 35.5615 268.02 35.2278C267.55 34.8786 267.136 34.4601 266.791 33.9867C266.597 33.7344 266.424 33.4654 266.277 33.1828C266.001 33.3408 265.713 33.4763 265.415 33.5879C264.86 33.782 264.279 33.8904 263.692 33.9095ZM270.123 21.6392C267.938 20.8595 265.553 20.8411 263.356 21.587C261.16 22.3329 259.279 23.7993 258.021 25.7483C256.762 27.6972 256.199 30.0142 256.423 32.3234C256.647 34.6325 257.645 36.7983 259.254 38.4691C259.58 38.8159 259.81 39.2409 259.923 39.7029C260.035 40.1648 260.027 40.6481 259.897 41.1058C259.866 41.2209 259.88 41.3439 259.938 41.4485C259.995 41.5531 260.092 41.6309 260.206 41.6653L261.57 42.0575C261.66 41.7424 261.756 41.4144 261.859 41.0672C262.529 39.2252 262.888 37.2843 262.92 35.3243C262.905 34.8463 262.847 34.3706 262.746 33.9031C261.949 33.8686 261.192 33.5385 260.624 32.977C260.477 32.8139 260.389 32.6067 260.373 32.3879C260.356 32.169 260.413 31.951 260.534 31.768C260.674 31.555 260.88 31.3942 261.121 31.3105C261.362 31.2268 261.623 31.2248 261.865 31.3049C262.241 31.4569 262.575 31.694 262.843 31.9976C263.111 32.3012 263.305 32.6629 263.409 33.0542C264.279 33.0039 265.124 32.7435 265.872 32.2953C265.677 31.8528 265.585 31.372 265.601 30.8888C265.618 30.4055 265.743 29.9323 265.968 29.5043C266.115 29.2631 266.336 29.0767 266.599 28.9738C266.861 28.8708 267.15 28.857 267.421 28.9345C267.693 29.012 267.931 29.1764 268.099 29.4026C268.268 29.6287 268.357 29.9039 268.354 30.186C268.318 30.6696 268.174 31.139 267.931 31.5588C267.688 31.9787 267.354 32.3382 266.952 32.6104C267.093 32.8884 267.259 33.1531 267.447 33.4014C267.777 33.8713 268.187 34.2804 268.656 34.6105C268.957 34.3398 269.316 34.1412 269.704 34.0298C270.093 33.9183 270.502 33.897 270.901 33.9674C271.149 34.03 271.37 34.1731 271.528 34.3744C271.686 34.5758 271.773 34.8239 271.775 35.0799C271.782 35.2991 271.714 35.5141 271.583 35.6902C271.453 35.8663 271.267 35.9934 271.055 36.051C270.275 36.2236 269.459 36.0998 268.766 35.7037C268.43 36.0422 268.129 36.4127 267.865 36.8099C266.846 38.4979 266.111 40.3426 265.692 42.2698V42.3727C265.615 42.6621 265.537 42.945 265.454 43.2344L266.811 43.6203C266.926 43.6552 267.051 43.6437 267.158 43.5881C267.263 43.5263 267.341 43.4277 267.377 43.3116C267.512 42.8531 267.765 42.438 268.11 42.1075C268.455 41.7769 268.881 41.5424 269.345 41.4273C271.105 40.9735 272.714 40.0614 274.007 38.7838C275.301 37.5062 276.233 35.9087 276.708 34.1539C277.376 31.6164 277.064 28.9206 275.836 26.6021C274.608 24.2835 272.552 22.5119 270.078 21.6392H270.123ZM261.274 32.2503C261.274 32.2953 261.274 32.3403 261.325 32.4368C261.582 32.6807 261.9 32.8516 262.245 32.932L262.451 32.9834H262.489V32.9448C262.335 32.578 262.051 32.2806 261.692 32.1088C261.652 32.0875 261.609 32.0742 261.564 32.0698C261.519 32.0654 261.474 32.0699 261.431 32.0831C261.388 32.0962 261.348 32.1178 261.313 32.1465C261.278 32.1752 261.25 32.2105 261.229 32.2503H261.274ZM270.849 35.1828C270.959 35.1378 270.997 35.1057 270.991 35.0413C270.991 34.968 270.965 34.897 270.918 34.8407C270.871 34.7843 270.806 34.7461 270.734 34.7327C270.336 34.6836 269.935 34.7845 269.608 35.0156H269.576H269.615C269.683 35.0459 269.754 35.0696 269.827 35.0864C270.139 35.2023 270.476 35.2355 270.804 35.1828H270.849Z" fill="#EBEBEB"/>
<path d="M14.5428 118.368C14.576 118.431 14.6213 118.487 14.6762 118.532C14.731 118.578 14.7944 118.612 14.8625 118.633C14.9307 118.654 15.0023 118.661 15.0732 118.654C15.1442 118.647 15.2131 118.626 15.276 118.593L21.6619 115.242C21.789 115.175 21.8841 115.06 21.9263 114.922C21.9685 114.785 21.9544 114.636 21.887 114.509C21.8196 114.382 21.7045 114.287 21.5671 114.245C21.4296 114.202 21.2809 114.217 21.1539 114.284L14.7743 117.634C14.6482 117.703 14.5536 117.817 14.5104 117.954C14.4672 118.091 14.4788 118.239 14.5428 118.368ZM22.0992 116.072L15.7133 119.422C15.5859 119.486 15.488 119.597 15.4401 119.731C15.3921 119.865 15.3979 120.012 15.456 120.142C15.9677 121.116 16.8453 121.847 17.8958 122.174C18.9462 122.501 20.0835 122.397 21.0574 121.885C22.0313 121.374 22.762 120.496 23.0889 119.446C23.4157 118.395 23.3119 117.258 22.8002 116.284C22.7325 116.166 22.6222 116.078 22.4919 116.039C22.3615 115.999 22.2211 116.011 22.0992 116.072ZM11.8097 104.207V104.174C11.9067 103.525 11.7425 102.864 11.3531 102.335C11.2769 102.271 11.1833 102.231 11.0842 102.22C10.9851 102.209 10.8849 102.228 10.7966 102.274C10.7083 102.32 10.6357 102.392 10.5882 102.479C10.5407 102.567 10.5204 102.667 10.5299 102.766C10.7411 103.388 11.1896 103.901 11.7775 104.194L11.8097 104.207ZM11.0958 108.11C11.5042 108.41 11.8871 108.744 12.2405 109.107C13.9576 110.779 14.9866 112.837 15.9062 114.65C15.9898 114.805 16.0734 114.972 16.1506 115.133L16.4014 115.609L18.6072 114.451C18.4336 114.13 18.2728 113.808 18.0927 113.493C16.9355 111.591 16.099 109.512 15.6168 107.338C15.522 106.849 15.4747 106.351 15.4753 105.853C14.5011 105.966 13.5139 105.867 12.5814 105.563C12.4785 105.891 12.3539 106.211 12.2084 106.522C11.9153 107.106 11.5335 107.642 11.0765 108.11H11.0958ZM6.92855 93.724C4.6577 94.7662 2.80264 96.5409 1.66091 98.7634C0.519179 100.986 0.156923 103.527 0.632241 105.98C1.10756 108.433 2.39291 110.656 4.28214 112.291C6.17138 113.926 8.55503 114.879 11.0508 114.998C11.5611 115.022 12.0567 115.176 12.4903 115.446C12.9238 115.716 13.2807 116.093 13.5267 116.541C13.5858 116.653 13.6857 116.737 13.8056 116.777C13.9254 116.816 14.056 116.808 14.1698 116.753L15.5332 116.04C15.366 115.724 15.1988 115.396 15.0187 115.049C14.1768 113.113 13.0208 111.329 11.5974 109.769C11.228 109.405 10.8254 109.075 10.3948 108.785C9.74301 109.353 8.90551 109.662 8.04111 109.654C7.8046 109.633 7.5813 109.536 7.40494 109.377C7.22859 109.218 7.10877 109.006 7.0636 108.773C7.01796 108.504 7.05876 108.228 7.18012 107.984C7.30147 107.74 7.49711 107.541 7.73885 107.416C8.14641 107.255 8.58552 107.192 9.02177 107.23C9.45802 107.268 9.87956 107.406 10.2534 107.634C10.6725 107.194 11.0159 106.688 11.2695 106.136C11.4121 105.833 11.5283 105.519 11.6167 105.197C11.1337 104.997 10.7018 104.691 10.3534 104.301C10.0049 103.912 9.74869 103.448 9.60384 102.946C9.56351 102.656 9.61358 102.36 9.74724 102.099C9.8809 101.838 10.0917 101.624 10.3509 101.487C10.6101 101.35 10.9052 101.297 11.1962 101.333C11.4871 101.37 11.7596 101.495 11.9769 101.692C12.311 102.097 12.5493 102.572 12.6741 103.082C12.7988 103.592 12.8067 104.124 12.6971 104.637C13.0149 104.75 13.3421 104.834 13.6746 104.888C14.2708 104.988 14.8792 104.988 15.4753 104.888C15.5043 104.448 15.6356 104.02 15.8589 103.64C16.0822 103.259 16.3913 102.935 16.7615 102.695C17.0031 102.562 17.2811 102.511 17.5543 102.548C17.8276 102.585 18.0817 102.709 18.2792 102.901C18.4443 103.068 18.5492 103.285 18.5771 103.518C18.6051 103.751 18.5546 103.986 18.4336 104.187C17.9577 104.906 17.2308 105.422 16.3949 105.634C16.3851 106.152 16.4282 106.669 16.5236 107.178C16.986 109.256 17.7831 111.246 18.8837 113.068L18.9416 113.165C19.1024 113.448 19.2503 113.731 19.3982 114.02L20.7551 113.306C20.8645 113.245 20.9465 113.145 20.9847 113.025C21.0228 112.906 21.0144 112.777 20.9609 112.663C20.7217 112.204 20.6076 111.69 20.6302 111.173C20.6528 110.656 20.8112 110.154 21.0896 109.718C22.1233 108.044 22.6964 106.127 22.7506 104.161C22.8048 102.195 22.3383 100.249 21.3982 98.5215C20.0201 96.0553 17.7682 94.1948 15.0862 93.3067C12.4042 92.4187 9.48688 92.5676 6.90925 93.724H6.92855ZM7.9575 108.631C7.9575 108.689 8.00895 108.715 8.13114 108.74C8.51637 108.742 8.89455 108.637 9.22441 108.438L9.42377 108.329H9.46235H9.41734C9.02252 108.156 8.57741 108.138 8.16972 108.277C8.0982 108.304 8.03703 108.352 7.99531 108.416C7.9536 108.48 7.93357 108.555 7.93821 108.631H7.9575ZM17.604 103.756C17.6554 103.641 17.6618 103.589 17.604 103.538C17.5485 103.481 17.4752 103.446 17.3966 103.438C17.318 103.43 17.239 103.449 17.1731 103.493C16.8316 103.752 16.6016 104.131 16.53 104.554V104.599L16.7486 104.489C17.1009 104.334 17.4003 104.079 17.6104 103.756H17.604Z" fill="#EBEBEB"/>
<path d="M258.168 101.493C258.836 101.217 259.524 100.989 260.225 100.811C260.966 100.616 261.725 100.493 262.489 100.444C263.311 100.39 264.136 100.418 264.952 100.528C265.868 100.649 266.769 100.865 267.64 101.171C268.82 101.564 269.927 102.146 270.92 102.895C271.792 103.549 272.525 104.371 273.075 105.313C273.592 106.215 273.904 107.221 273.988 108.258C274.071 109.375 273.918 110.497 273.538 111.551C273.22 112.535 272.72 113.451 272.065 114.252C271.509 114.908 270.859 115.478 270.136 115.943C269.472 116.363 268.759 116.7 268.013 116.946L265.962 117.589C265.375 117.778 264.801 118.006 264.245 118.271C263.78 118.487 263.395 118.845 263.145 119.294L261.544 122.31L257.852 121.024L258.714 117.339C258.826 116.689 259.147 116.093 259.627 115.641C260.111 115.212 260.66 114.865 261.254 114.612C261.91 114.337 262.582 114.105 263.267 113.917C263.982 113.723 264.681 113.473 265.357 113.171C266.023 112.883 266.642 112.495 267.19 112.02C267.769 111.5 268.198 110.834 268.431 110.091C268.606 109.625 268.674 109.126 268.629 108.631C268.585 108.135 268.429 107.656 268.174 107.229C267.913 106.793 267.567 106.413 267.158 106.11C266.705 105.767 266.199 105.5 265.66 105.319C264.952 105.057 264.208 104.903 263.454 104.863C262.894 104.842 262.334 104.879 261.782 104.972C261.306 105.055 260.894 105.146 260.553 105.229C260.281 105.31 259.99 105.31 259.717 105.229C259.481 105.164 259.268 105.03 259.107 104.845C258.945 104.66 258.842 104.431 258.811 104.187L258.168 101.493ZM254.225 126.246C254.376 125.803 254.612 125.394 254.92 125.043C255.213 124.707 255.569 124.432 255.968 124.233C256.813 123.833 257.781 123.782 258.663 124.091C259.111 124.242 259.523 124.486 259.872 124.805C260.202 125.107 260.474 125.466 260.676 125.866C260.877 126.267 260.995 126.705 261.023 127.152C261.057 127.619 260.993 128.088 260.836 128.529C260.691 128.965 260.459 129.367 260.154 129.71C259.849 130.054 259.477 130.332 259.061 130.529C258.425 130.817 257.719 130.916 257.028 130.813C256.336 130.711 255.689 130.411 255.164 129.95C254.828 129.657 254.553 129.301 254.354 128.902C254.158 128.5 254.046 128.062 254.026 127.615C253.996 127.139 254.064 126.662 254.225 126.213V126.246Z" fill="#F0F0F0"/>
<path d="M55.8748 196.793C55.6595 197.515 55.3974 198.222 55.0902 198.909C54.759 199.632 54.3652 200.325 53.9133 200.98C53.4218 201.675 52.864 202.322 52.2477 202.909C51.5524 203.57 50.7918 204.158 49.9776 204.665C48.8941 205.367 47.7039 205.888 46.4534 206.208C45.3547 206.488 44.2116 206.547 43.09 206.382C42.0236 206.215 41.0071 205.815 40.1124 205.212C39.1517 204.554 38.3426 203.699 37.7394 202.703C37.1445 201.809 36.7254 200.809 36.5047 199.758C36.3321 198.882 36.2909 197.984 36.3825 197.096C36.4774 196.285 36.6674 195.489 36.9484 194.723C37.2314 193.983 37.4886 193.282 37.7394 192.626C37.9701 192.029 38.1592 191.417 38.3053 190.793C38.4288 190.275 38.3884 189.731 38.1896 189.237L36.7876 185.976L40.2153 183.809L42.6462 186.903C43.0979 187.418 43.3708 188.065 43.4244 188.748C43.465 189.418 43.3911 190.09 43.2057 190.735C43.0044 191.443 42.7573 192.137 42.4662 192.813C42.1629 193.52 41.9114 194.249 41.7137 194.993C41.5167 195.717 41.43 196.467 41.4565 197.218C41.506 198.026 41.7678 198.807 42.2154 199.482C42.4747 199.932 42.8327 200.319 43.2626 200.612C43.6925 200.905 44.1831 201.097 44.6977 201.173C45.2221 201.242 45.7549 201.209 46.2669 201.076C46.8387 200.927 47.3833 200.688 47.8811 200.369C48.5529 199.97 49.1583 199.469 49.6753 198.883C50.0586 198.444 50.3948 197.965 50.6785 197.456C50.9229 197.012 51.1158 196.626 51.2638 196.292C51.3729 196.016 51.558 195.778 51.7975 195.604C52.0067 195.457 52.2538 195.373 52.5093 195.363C52.7647 195.353 53.0177 195.416 53.2381 195.546L55.8748 196.793ZM38.3696 177.5C38.6296 177.91 38.8066 178.367 38.8906 178.845C38.981 179.299 38.981 179.766 38.8906 180.221C38.7855 180.682 38.5935 181.118 38.3246 181.507C38.0359 181.919 37.6633 182.265 37.2314 182.523C36.8199 182.787 36.3577 182.963 35.8744 183.038C35.4135 183.114 34.9422 183.103 34.4853 183.005C33.778 182.846 33.1347 182.479 32.6384 181.95C32.142 181.422 31.8154 180.757 31.7007 180.041C31.6241 179.581 31.6416 179.111 31.7522 178.658C31.9782 177.723 32.5656 176.916 33.3856 176.414C33.7997 176.146 34.2634 175.965 34.749 175.88C35.2032 175.796 35.6698 175.804 36.1207 175.904C36.5716 176.005 36.9975 176.196 37.3728 176.465C37.7706 176.748 38.1092 177.107 38.3696 177.52V177.5Z" fill="#E0E0E0"/>
<path d="M220.122 217.43C219.77 217.326 219.442 217.151 219.16 216.915C218.878 216.679 218.648 216.389 218.482 216.061L214.456 208.099C214.289 207.783 214.187 207.437 214.155 207.081C214.123 206.726 214.162 206.367 214.27 206.026C214.379 205.686 214.554 205.37 214.785 205.098C215.017 204.826 215.301 204.603 215.62 204.442C215.938 204.281 216.286 204.185 216.643 204.16C216.999 204.135 217.357 204.181 217.695 204.296C218.034 204.41 218.346 204.591 218.613 204.828C218.881 205.065 219.099 205.353 219.254 205.675L221.871 210.819L234.193 202.054C234.775 201.64 235.497 201.475 236.2 201.593C236.904 201.712 237.532 202.106 237.945 202.687C238.359 203.269 238.525 203.991 238.406 204.695C238.287 205.399 237.894 206.026 237.312 206.44L222.437 217.012C222.122 217.238 221.761 217.393 221.38 217.465C220.999 217.537 220.607 217.526 220.231 217.43H220.122Z" fill="#E0E0E0"/>
<path d="M18.5558 47.1509C18.1362 47.231 17.7046 47.2243 17.2877 47.1314C16.8707 47.0385 16.4772 46.8613 16.1313 46.6107L7.73887 40.5141C7.06942 40.0272 6.62083 39.2942 6.49178 38.4765C6.36274 37.6588 6.56381 36.8234 7.05075 36.1539C7.5377 35.4845 8.27065 35.0359 9.08834 34.9068C9.90604 34.7778 10.7415 34.9789 11.411 35.4658L16.8516 39.4209L24.961 23.8386C25.3587 23.1318 26.0155 22.6072 26.7927 22.3756C27.5699 22.1441 28.4068 22.2237 29.1264 22.5977C29.846 22.9717 30.3921 23.6108 30.6492 24.3799C30.9064 25.1491 30.8545 25.9881 30.5045 26.7197L20.7359 45.5431C20.5262 45.9401 20.2332 46.287 19.8769 46.5601C19.5205 46.8332 19.1094 47.0259 18.6715 47.1252L18.5558 47.1509Z" fill="#F0F0F0"/>
<path d="M109.934 111.101C110.189 111.056 110.451 111.094 110.683 111.21C110.914 111.326 111.102 111.513 111.22 111.744C111.406 111.615 111.516 111.371 111.734 111.313C111.953 111.255 112.255 111.467 112.416 111.692C113.029 112.582 113.347 113.642 113.324 114.723C113.301 115.803 112.938 116.849 112.287 117.712C112.212 117.824 112.11 117.917 111.991 117.982C111.848 118.036 111.693 118.051 111.541 118.027C110.734 117.975 109.935 117.828 109.162 117.589C108.764 117.512 108.39 117.344 108.067 117.099C107.745 116.854 107.484 116.537 107.303 116.175C107.169 115.599 107.209 114.997 107.419 114.445C107.576 113.689 107.926 112.986 108.435 112.406C108.827 111.994 109.419 111.216 109.934 111.101Z" fill="#F28F8F"/>
<path d="M131.072 57.2283C124.03 58.4566 121.13 58.1865 114.538 65.9165C107.065 74.6819 102.576 79.7817 101.245 81.994C98.6729 86.2577 98.943 87.814 104.589 95.7048C109.091 101.949 111.194 103.602 112.525 106.329C113.348 108.027 111.966 109.647 111.586 110.58C110.982 112.039 111.586 113.667 111.098 116.483C110.103 115.972 109.046 115.591 107.953 115.351C107.953 115.351 110.178 113.139 109.239 111.596C109.207 111.543 109.165 111.498 109.114 111.462C109.064 111.426 109.008 111.401 108.948 111.388C108.888 111.375 108.825 111.374 108.765 111.385C108.705 111.397 108.647 111.42 108.596 111.454C108.075 111.827 107.258 112.683 106.3 113.544C104.622 115.049 105.014 115.403 105.708 118.104C105.978 119.184 106.802 119.519 110.004 120.271C113.207 121.024 114.191 120.638 118.275 117.442C122.358 114.245 122.133 105.621 121.072 101.975C119.818 97.6856 114.557 87.306 114.557 87.306L125.567 73.743L131.072 57.2283Z" fill="#FFA8A7"/>
<path d="M114.57 87.2931C113.55 88.0002 112.398 88.4955 111.183 88.7496C109.968 89.0036 108.714 89.0113 107.496 88.7722C110.21 90.3349 113.818 89.6854 115.136 88.5085L114.57 87.2931Z" fill="#F28F8F"/>
<path d="M174.301 209.938L155.774 210.684C158.462 222.517 161.523 230.363 162.205 236.479C162.417 238.016 165.015 253.842 165.857 257.296C166.7 260.749 175.292 260.782 175.8 254.82C176.14 250.846 175.189 236.575 175.015 234.678C174.301 226.459 174.603 220.652 174.301 209.938Z" fill="#FFA8A7"/>
<path d="M117.284 208.247C117.451 217.25 117.683 223.353 117.683 226.82C117.683 230.286 116.59 233.675 114.795 235.36C111.04 238.878 107.837 242.228 103.13 245.302C103.811 246.871 109.471 246.813 112.274 245.617C115.914 243.967 119.411 242.02 122.731 239.797C126.59 237.296 131.542 235.296 131.606 231.488C131.606 231.013 134.056 230.344 133.13 225.874C133.13 225.874 134.416 218.009 135.741 207.597L117.284 208.247Z" fill="#FFA8A7"/>
<path d="M97.3288 247.81C97.0973 247.81 96.7179 250.383 97.9719 251.502C99.4253 252.788 103.695 254.916 109.374 254.235C115.053 253.553 118.152 251.83 120.442 249.945C122.731 248.061 125.94 245.399 128.519 244.852C130.905 244.35 133.509 243.296 134.275 242.563C135.04 241.829 134.976 238.53 134.976 238.53L97.3288 247.81Z" fill="#263238"/>
<path d="M133.143 225.829C133.143 225.829 133.567 225.829 133.709 226.614C133.876 227.52 134.037 230.164 134.391 231.656C134.892 233.733 135.194 237.984 134.866 239.669C134.538 241.353 130.635 242.479 128.14 243.405C125.644 244.331 122.641 246.318 120.037 248.428C117.432 250.537 111.715 252.768 108.017 252.781C102.371 252.781 98.7308 251.225 97.6247 249.174C97.0587 248.125 96.8851 247.032 97.6247 246.035C98.5765 244.788 100.081 243.99 101.393 243.18C103.786 241.707 106.139 240.183 108.416 238.556C109.582 237.748 110.705 236.879 111.779 235.951C112.871 235.051 113.861 234.033 114.731 232.916C115.454 231.763 115.98 230.498 116.287 229.173C116.344 228.893 116.458 228.628 116.622 228.395C116.827 228.181 117.084 228.024 117.368 227.938C118.802 227.499 120.319 227.4 121.799 227.649C123.365 227.796 124.86 228.377 126.114 229.328C126.328 229.542 126.492 229.802 126.593 230.088C126.695 230.374 126.731 230.679 126.699 230.98C126.751 231.686 126.706 232.396 126.564 233.09C126.519 233.295 126.519 233.585 126.725 233.636C126.931 233.688 127.014 233.54 127.104 233.411C128.352 231.726 128.963 229.501 130.706 228.221C131.239 227.829 132.043 227.688 132.5 227.238C132.85 226.843 133.074 226.352 133.143 225.829Z" fill="#37474F"/>
<path d="M104.03 241.546C112.75 241.546 115.458 247.727 115.766 250.871C113.837 252.003 109.702 252.801 108.011 252.801C102.364 252.801 98.4928 251.244 97.3867 249.193C96.0941 246.775 97.3481 244.029 104.03 241.546Z" fill="#FAFAFA"/>
<path d="M115.336 242.029C115.434 242.018 115.527 241.975 115.599 241.907C115.639 241.867 115.671 241.82 115.693 241.768C115.715 241.716 115.726 241.661 115.726 241.604C115.726 241.548 115.715 241.492 115.693 241.441C115.671 241.389 115.639 241.342 115.599 241.302C114.229 239.926 110.487 238.292 107.297 238.942C107.241 238.952 107.188 238.973 107.141 239.004C107.094 239.034 107.053 239.074 107.021 239.121C106.989 239.168 106.967 239.22 106.956 239.276C106.945 239.331 106.945 239.388 106.956 239.444C106.967 239.499 106.99 239.553 107.022 239.6C107.054 239.647 107.095 239.687 107.143 239.718C107.191 239.749 107.245 239.771 107.301 239.781C107.357 239.791 107.415 239.79 107.47 239.778C110.448 239.186 113.901 240.813 114.982 241.9C115.028 241.946 115.083 241.982 115.144 242.004C115.206 242.026 115.271 242.035 115.336 242.029Z" fill="#F0F0F0"/>
<path d="M118.705 239.45C118.804 239.439 118.897 239.396 118.969 239.328C119.01 239.29 119.042 239.244 119.064 239.193C119.086 239.142 119.097 239.087 119.097 239.032C119.097 238.976 119.086 238.922 119.064 238.871C119.042 238.82 119.01 238.774 118.969 238.736C117.58 237.45 113.792 235.874 110.577 236.543C110.522 236.552 110.469 236.571 110.422 236.601C110.374 236.63 110.333 236.669 110.302 236.715C110.27 236.76 110.247 236.812 110.236 236.866C110.225 236.921 110.225 236.977 110.236 237.032C110.262 237.143 110.331 237.238 110.427 237.299C110.523 237.359 110.639 237.379 110.75 237.353C112.085 237.157 113.446 237.23 114.751 237.569C116.057 237.908 117.282 238.506 118.352 239.328C118.398 239.373 118.453 239.408 118.515 239.429C118.576 239.45 118.641 239.457 118.705 239.45Z" fill="#F0F0F0"/>
<path d="M121.696 237.186C121.796 237.18 121.89 237.136 121.959 237.064C122.044 236.979 122.092 236.863 122.092 236.742C122.092 236.622 122.044 236.506 121.959 236.421C120.622 234.974 116.95 233.205 113.837 233.849C113.725 233.873 113.627 233.941 113.565 234.037C113.502 234.134 113.48 234.251 113.503 234.363C113.511 234.42 113.531 234.474 113.561 234.523C113.591 234.572 113.631 234.614 113.678 234.647C113.725 234.68 113.778 234.703 113.834 234.715C113.89 234.727 113.948 234.728 114.004 234.717C116.918 234.138 120.287 235.881 121.349 237.019C121.388 237.074 121.44 237.117 121.501 237.147C121.562 237.176 121.629 237.189 121.696 237.186Z" fill="#F0F0F0"/>
<path d="M124.21 234.344C124.305 234.34 124.396 234.304 124.468 234.241C124.551 234.166 124.601 234.061 124.607 233.948C124.613 233.836 124.575 233.726 124.5 233.643C122.738 231.656 118.943 230.498 115.856 231.025C115.802 231.034 115.75 231.054 115.703 231.083C115.656 231.112 115.615 231.15 115.583 231.195C115.551 231.239 115.528 231.29 115.515 231.344C115.502 231.398 115.5 231.453 115.509 231.508C115.518 231.562 115.538 231.614 115.567 231.661C115.596 231.708 115.634 231.749 115.678 231.781C115.723 231.813 115.774 231.837 115.828 231.849C115.881 231.862 115.937 231.864 115.992 231.855C118.776 231.385 122.307 232.447 123.876 234.209C123.917 234.256 123.969 234.292 124.027 234.315C124.085 234.339 124.148 234.349 124.21 234.344Z" fill="#F0F0F0"/>
<path d="M163.176 260.016C163.291 263.714 163.915 265.849 165.324 267.868C166.732 269.888 169.587 270.627 172.25 270.016C174.912 269.405 177.806 267.592 179.009 264.762C180.295 261.682 180.141 259.553 179.517 256.351L163.176 260.016Z" fill="#263238"/>
<path d="M162.005 235.096C162.224 236.241 163.06 239.038 163.176 239.456C163.208 239.546 163.24 239.656 163.33 239.688C163.381 239.7 163.435 239.694 163.482 239.67C163.529 239.647 163.566 239.607 163.587 239.559C163.695 238.961 163.719 238.351 163.658 237.746C163.648 237.347 163.723 236.95 163.877 236.582C164.045 236.314 164.265 236.083 164.523 235.901C164.781 235.718 165.073 235.589 165.381 235.521C167.886 234.782 170.529 234.639 173.099 235.103C173.232 235.116 173.361 235.155 173.478 235.218C173.603 235.33 173.701 235.468 173.766 235.623C173.83 235.778 173.859 235.945 173.851 236.112C173.915 236.788 173.973 237.463 174.031 238.144C174.031 238.292 174.108 238.492 174.256 238.485C174.404 238.479 174.417 238.402 174.468 238.331C174.797 237.828 174.957 237.233 174.925 236.633C174.97 235.868 174.989 235.103 174.97 234.337C174.97 234.041 174.97 233.739 174.931 233.443C176.031 233.514 175.575 237.411 176.597 243.341C177.459 248.286 178.751 251.283 179.388 255.36C180.115 260.016 179.253 262.106 177.414 264.942C175.575 267.778 169.015 270.582 165.748 266.569C163.079 263.296 162.944 259.65 163.176 254.994C163.388 250.183 162.481 246.151 162.23 242.498C161.954 239.006 161.053 235.488 162.005 235.096Z" fill="#37474F"/>
<path d="M179.69 258.061C179.903 260.955 179.131 262.711 177.69 264.929C175.851 267.759 168.764 270.82 165.471 266.801C163.844 264.807 163.394 262.434 163.156 260.01C165.098 256.884 176.61 255.431 179.69 258.061Z" fill="#FAFAFA"/>
<path d="M165.42 254.363C165.465 254.372 165.51 254.372 165.555 254.363C165.6 254.363 170.7 252.434 175.613 253.431C175.714 253.456 175.82 253.441 175.91 253.391C176.001 253.341 176.069 253.259 176.102 253.161C176.111 253.112 176.11 253.063 176.099 253.015C176.089 252.967 176.068 252.922 176.039 252.882C176.01 252.842 175.974 252.809 175.931 252.784C175.889 252.759 175.842 252.743 175.793 252.736C170.558 251.707 165.394 253.637 165.201 253.72C165.155 253.736 165.113 253.761 165.078 253.795C165.043 253.829 165.015 253.87 164.998 253.915C164.98 253.96 164.972 254.009 164.975 254.057C164.978 254.106 164.992 254.153 165.015 254.196C165.06 254.259 165.122 254.309 165.193 254.338C165.265 254.368 165.344 254.377 165.42 254.363Z" fill="#F0F0F0"/>
<path d="M175.343 249.926C175.418 249.922 175.49 249.897 175.552 249.854C175.613 249.811 175.661 249.751 175.69 249.682C175.705 249.635 175.71 249.586 175.704 249.538C175.699 249.489 175.684 249.443 175.66 249.4C175.636 249.358 175.603 249.321 175.564 249.292C175.525 249.263 175.48 249.242 175.433 249.231C170.501 247.804 165.053 250.042 164.854 250.138C164.809 250.156 164.768 250.183 164.734 250.218C164.7 250.253 164.675 250.295 164.659 250.341C164.643 250.387 164.637 250.435 164.642 250.484C164.647 250.532 164.662 250.579 164.687 250.621C164.747 250.705 164.834 250.766 164.934 250.793C165.033 250.82 165.139 250.811 165.234 250.768C165.279 250.768 170.584 248.575 175.169 249.913C175.226 249.927 175.285 249.931 175.343 249.926Z" fill="#F0F0F0"/>
<path d="M175.15 246.653C175.223 246.647 175.293 246.623 175.353 246.581C175.413 246.539 175.461 246.481 175.491 246.415C175.507 246.368 175.512 246.319 175.508 246.27C175.504 246.222 175.489 246.174 175.466 246.131C175.442 246.088 175.41 246.051 175.371 246.021C175.332 245.991 175.288 245.97 175.24 245.958C169.799 244.292 164.655 246.73 164.462 246.833C164.418 246.853 164.38 246.883 164.349 246.92C164.318 246.957 164.295 247 164.282 247.046C164.269 247.093 164.267 247.141 164.274 247.189C164.282 247.236 164.3 247.281 164.327 247.321C164.391 247.404 164.483 247.46 164.585 247.481C164.688 247.503 164.794 247.487 164.886 247.437C164.931 247.437 169.922 245.077 174.97 246.627C175.027 246.648 175.089 246.657 175.15 246.653Z" fill="#F0F0F0"/>
<path d="M174.739 242.595C174.81 242.59 174.879 242.566 174.938 242.526C174.997 242.485 175.044 242.429 175.073 242.363C175.092 242.318 175.101 242.269 175.099 242.22C175.097 242.171 175.084 242.123 175.061 242.079C175.039 242.035 175.006 241.997 174.967 241.968C174.928 241.938 174.883 241.917 174.835 241.907C169.755 240.267 164.192 242.775 163.986 242.884C163.941 242.902 163.9 242.931 163.867 242.967C163.834 243.003 163.809 243.046 163.795 243.093C163.781 243.14 163.777 243.189 163.785 243.238C163.792 243.286 163.81 243.332 163.838 243.373C163.899 243.458 163.989 243.517 164.091 243.54C164.193 243.562 164.3 243.546 164.391 243.495C164.443 243.495 169.832 241.058 174.552 242.575C174.612 242.594 174.676 242.601 174.739 242.595Z" fill="#EBEBEB"/>
<path d="M163.645 96.5922C165.909 100.579 168.269 104.432 170.076 112.502C171.722 119.892 171.742 126.13 171.645 138.869C171.459 162.4 171.645 166.182 171.716 169.018C171.787 171.854 172.417 174.272 173.87 188.247C175.324 202.221 174.629 219.475 174.629 219.475C171.873 221.067 168.798 222.029 165.626 222.292C160.7 222.736 157.909 221.469 157.909 221.469C157.909 221.469 149.638 193.494 147.767 185.082C145.896 176.671 141.979 153.455 141.979 153.455L139.793 172.446C139.793 172.446 140.281 179.951 138.783 192.169C137.284 204.388 134.628 216.974 134.628 216.974C134.628 216.974 132.956 218.864 126.3 218.652C119.361 218.427 117.008 216.478 117.008 216.478C117.008 216.478 114.435 177.809 114.435 163.918C114.435 150.027 115.998 115.004 119.085 96.6822L163.645 96.5922Z" fill="#455A64"/>
<path d="M123.156 116.991C125.246 122.728 132.866 126.741 136.217 127.545L139.966 152.535L139.793 172.471L141.979 153.481L137.6 123.069C137.6 123.069 128.313 122.387 123.156 116.991ZM154.925 114.194C155.471 116.445 155.966 118.695 156.5 120.978C157.034 123.261 157.536 125.519 158.102 127.802C158.125 125.45 157.968 123.1 157.632 120.773C157.33 118.445 156.893 116.142 156.346 113.853C155.814 111.564 155.153 109.308 154.365 107.094C153.59 104.866 152.579 102.727 151.349 100.714C152.056 102.965 152.674 105.216 153.278 107.441C153.883 109.666 154.404 111.93 154.925 114.194ZM158.867 109.853C159.619 111.21 160.34 112.586 161.06 113.962L163.201 118.175C163.042 116.578 162.679 115.009 162.121 113.506C161.595 112.003 160.95 110.545 160.192 109.145C159.428 107.75 158.568 106.409 157.619 105.133C156.677 103.846 155.613 102.653 154.442 101.57C155.137 103.01 155.896 104.387 156.655 105.756C157.413 107.126 158.14 108.483 158.867 109.853ZM155.375 173.275C154.037 166.079 153.079 158.806 152.159 151.526C151.24 144.246 150.333 136.953 149.317 129.66C149.761 136.998 150.288 144.329 151.015 151.641C151.741 158.953 152.616 166.272 153.941 173.507C155.265 180.742 156.777 187.925 158.288 195.121C159.799 202.318 161.362 209.488 163.041 216.646C161.926 209.383 160.719 202.133 159.42 194.896C158.127 187.706 156.757 180.465 155.381 173.275H155.375ZM121.934 148.837L123.136 129.68C122.146 136.008 121.381 142.368 120.789 148.747C120.197 155.127 119.67 161.494 119.644 167.97C119.863 174.401 120.352 180.774 120.879 187.166C121.406 193.559 122.037 199.912 122.808 206.273C122.633 199.872 122.38 193.477 122.049 187.089L121.567 177.507C121.406 174.291 121.213 171.108 121.143 167.944C121.072 164.78 121.284 161.59 121.426 158.407C121.567 155.223 121.779 152.021 121.953 148.831L121.934 148.837Z" fill="#37474F"/>
<path d="M159.008 23.5171C163.208 26.186 163.098 29.9481 163.118 39.0479C163.137 48.1477 162.565 73.0099 162.565 73.0099L132.294 72.8363V45.1123L130.172 34.9578C130.172 34.9578 127.181 30.7198 127.599 26.3789C128.017 22.038 130.622 16.398 138.455 14.8031C144.957 13.4333 157.426 14.8867 159.008 23.5171Z" fill="#263238"/>
<path d="M163.645 96.5923C165.51 94.0199 163.053 92.3222 163.87 88.0777C164.918 82.6307 165.324 80.1419 165.716 77.5373C167.06 68.534 165.716 64.0323 163.787 59.6914C163.787 59.6914 153.754 56.9518 151.671 56.4759C148.161 55.5894 144.518 55.3562 140.924 55.7878C139.947 55.8842 131.111 57.254 131.104 57.254C131.098 57.254 122.712 62.9969 119.722 68.3346C117.439 72.4119 115.297 78.4698 119.316 85.6275C119.612 92.0585 117.246 94.1743 119.021 97.1583C123.194 102.47 149.947 107.576 163.645 96.5923Z" fill="#37474F"/>
<path d="M155.092 46.7715C155.901 46.9347 156.739 46.8898 157.526 46.6413C158.313 46.3927 159.025 45.9485 159.594 45.3503C162.044 42.9386 162.404 40.3663 161.426 38.5849C160.623 37.1186 158.5 36.0897 156.925 36.9643C155.227 37.8903 155.131 38.7264 154.449 39.8453C153.767 40.9643 152.23 39.974 153.028 35.3437C150.41 34.8678 145.581 32.3211 143.851 29.6844C141.863 26.6554 141.233 25.0991 139.754 23.7936C137.606 21.9029 134.551 22.1537 133.368 22.964C131.767 24.784 130.088 26.6554 129.452 34.5398C128.21 42.9001 129.374 48.3149 131.214 50.2057C132.5 51.4918 135.368 52.8874 138.333 52.8809L138.178 56.7009C138.178 56.7009 128.911 64.5467 139.857 64.3602C142.308 64.2802 144.714 63.6764 146.913 62.5893C149.111 61.5022 151.051 59.9572 152.603 58.0579L153.394 45.2988C153.394 45.2988 153.478 46.3728 155.092 46.7715Z" fill="#FFA8A7"/>
<path d="M141.407 36.2569C141.483 36.5183 141.634 36.7517 141.841 36.928C142.049 37.1043 142.303 37.2158 142.574 37.2486C142.844 37.2814 143.118 37.234 143.361 37.1124C143.605 36.9908 143.807 36.8003 143.944 36.5646C144.08 36.3288 144.144 36.0583 144.127 35.7865C144.111 35.5147 144.015 35.2538 143.852 35.036C143.689 34.8182 143.465 34.6533 143.208 34.5616C142.952 34.47 142.674 34.4557 142.41 34.5205C142.047 34.6185 141.738 34.8562 141.55 35.1816C141.362 35.507 141.31 35.8936 141.407 36.2569Z" fill="#263238"/>
<path d="M135.329 28.141L132.159 29.1571C132.215 29.367 132.313 29.5633 132.447 29.7339C132.581 29.9046 132.749 30.0461 132.94 30.1496C133.131 30.2532 133.341 30.3167 133.557 30.3362C133.773 30.3557 133.991 30.3309 134.198 30.2632C134.623 30.1226 134.978 29.8238 135.188 29.4286C135.399 29.0335 135.45 28.5724 135.329 28.141Z" fill="#263238"/>
<path d="M133.928 35.3308C133.809 35.5762 133.622 35.7814 133.388 35.921C133.154 36.0606 132.885 36.1283 132.612 36.1159C132.34 36.1035 132.078 36.0113 131.858 35.851C131.638 35.6907 131.47 35.4692 131.375 35.2141C131.279 34.9589 131.261 34.6815 131.322 34.4161C131.384 34.1508 131.521 33.9093 131.719 33.7216C131.916 33.534 132.164 33.4085 132.432 33.3607C132.7 33.3129 132.977 33.345 133.227 33.453C133.568 33.6098 133.833 33.8954 133.964 34.2473C134.096 34.5991 134.083 34.9887 133.928 35.3308Z" fill="#263238"/>
<path d="M142.076 30.2439L145.105 32.1153C145.237 31.9245 145.328 31.7087 145.374 31.4812C145.42 31.2536 145.418 31.0192 145.37 30.7922C145.322 30.5652 145.228 30.3504 145.094 30.161C144.96 29.9717 144.788 29.8117 144.59 29.6909C144.18 29.4438 143.69 29.3634 143.223 29.4663C142.755 29.5692 142.344 29.8475 142.076 30.2439Z" fill="#263238"/>
<path d="M127.265 31.8002C127.269 32.2607 127.413 32.7092 127.677 33.0864C127.773 33.2264 127.835 33.3873 127.857 33.5559C127.953 34.4369 127.908 36.0897 128.21 37.0415C128.513 37.9933 129.207 39.5303 131.741 39.7939C132.185 39.8453 132.634 39.8453 133.079 39.7939H133.182C133.57 39.7487 133.95 39.6446 134.307 39.4852H134.378L134.481 39.4402L134.603 39.3695L134.719 39.3052L134.854 39.2216L134.976 39.138L135.214 38.9579C135.626 38.6062 135.979 38.1916 136.262 37.7296C136.989 36.5849 137.085 34.9 138.031 34.7842H138.288C139.542 34.9064 139.143 36.7135 139.658 38.0704C140.172 39.4274 141.143 40.7972 143.857 41.0608H144.204H144.487C144.725 41.0608 144.95 41.0608 145.13 41.0608L145.362 41.0415H145.561H145.696C145.964 40.978 146.225 40.8875 146.474 40.7714L146.745 40.6364C146.912 40.5427 147.071 40.4351 147.22 40.3148C147.612 39.9723 147.943 39.5657 148.198 39.1122C148.745 38.2505 149.092 36.6235 149.42 35.7874C149.485 35.6132 149.581 35.4521 149.703 35.3115C150.081 35.0018 150.36 34.5882 150.507 34.1218C150.555 33.8922 150.521 33.6527 150.411 33.4457C150.3 33.2386 150.12 33.0772 149.902 32.99C149.696 32.9385 149.478 32.8935 149.259 32.8485C147.156 32.424 144.378 32.0832 142.642 32.3726C140.468 32.7391 139.651 33.3179 138.487 33.2022C137.323 33.0864 136.783 32.3661 134.886 31.588C133.368 30.9449 130.757 30.7648 128.738 30.7648H128.095C127.86 30.8196 127.651 30.9514 127.501 31.1391C127.35 31.3268 127.267 31.5597 127.265 31.8002ZM140.86 34.1925C141.042 34.0105 141.262 33.8701 141.503 33.781L141.619 33.7295H141.677L141.992 33.6202L142.281 33.5366C142.589 33.4561 142.9 33.3917 143.214 33.3437L143.58 33.2986C143.894 33.2612 144.21 33.2398 144.526 33.2343H144.738C146.783 33.2343 147.954 33.8067 148.378 34.2376C148.802 34.6684 148.327 36.4305 148.005 37.3116C148.009 37.3329 148.009 37.3546 148.005 37.3759V37.4466C147.966 37.5559 147.921 37.6717 147.864 37.8003L147.767 38.019C147.711 38.1422 147.649 38.2624 147.581 38.3791L147.503 38.5077L147.458 38.5785L147.407 38.6621L147.336 38.765C147.31 38.8042 147.28 38.8408 147.246 38.8743C147.22 38.9192 147.187 38.9603 147.15 38.9965L147.047 39.1187C146.665 39.5172 146.192 39.818 145.67 39.996C145.147 40.1739 144.589 40.2237 144.043 40.1412C143.506 40.1342 142.976 40.0124 142.489 39.784C142.002 39.5555 141.569 39.2256 141.22 38.8164C140.806 38.2533 140.558 37.5846 140.506 36.8871C140.378 35.8968 140.397 34.707 140.86 34.1925ZM129.124 32.2633C129.288 32.1523 129.468 32.0656 129.657 32.006H129.702L129.928 31.9481H130.069H130.185H130.262H130.378C130.526 31.9481 130.686 31.9481 130.854 31.9481H131.381H131.702H131.818H131.928C132.217 31.9867 132.519 32.0382 132.847 32.1089C134.256 32.4305 135.67 33.1829 135.979 33.781C136.288 34.379 136.037 35.5302 135.709 36.5141C135.634 36.7356 135.542 36.9506 135.432 37.1572C135.432 37.1572 135.432 37.1894 135.432 37.2087L135.394 37.273C135.397 37.2878 135.397 37.3032 135.394 37.318C135.381 37.3451 135.366 37.3709 135.349 37.3952C135.318 37.4511 135.284 37.5048 135.246 37.5559C135.246 37.601 135.188 37.646 135.156 37.691L135.117 37.736L135.047 37.826L134.976 37.9032C134.58 38.3368 134.079 38.6611 133.522 38.8447C132.964 39.0284 132.368 39.0651 131.792 38.9515C131.278 38.9022 130.78 38.742 130.333 38.482C129.001 37.6717 128.854 36.1218 128.783 35.4016C128.68 34.4176 128.641 32.617 129.136 32.2633H129.124Z" fill="#455A64"/>
<path d="M133.786 39.8132L138.288 42.0769L139.323 36.572C139.201 35.6781 139.098 34.8935 138.339 34.7777L133.786 39.8132Z" fill="#F28F8F"/>
<path d="M141.503 43.9933C141.054 44.5646 140.438 44.9824 139.741 45.1895C138.948 45.3673 138.129 45.4043 137.323 45.2988C137.201 45.2988 137.162 44.958 137.323 44.9516C138.096 44.9363 138.861 44.7929 139.587 44.5271C140.208 44.3226 140.764 43.9589 141.201 43.4724C141.458 43.1316 141.69 43.7618 141.503 43.9933Z" fill="#B16668"/>
<path d="M149.966 33.1507L156.893 36.9643C156.484 37.1991 156.098 37.4726 155.741 37.781L149.703 34.6105L149.966 33.1507Z" fill="#455A64"/>
<path d="M138.288 52.9259C142.564 53.0095 148.185 51.8777 149.864 49.2152C148.841 52.1285 145.767 53.5754 143.317 54.032C141.634 54.3597 139.925 54.5276 138.211 54.5337L138.288 52.9259Z" fill="#F28F8F"/>
<path d="M163.754 59.6914C169.542 60.656 171.472 62.4503 173.896 68.7333C176.218 74.7977 181.575 88.4636 179.986 97.6341C179.021 103.229 164.899 89.171 164.899 89.171L158.14 73.5887C158.14 73.5887 159.24 63.7686 163.754 59.6914Z" fill="#F28F8F"/>
<path d="M162.14 67.4086C160.899 65.6529 159.613 63.8522 158.963 61.2348C158.314 58.6174 156.249 56.2058 155.542 55.2154C154.835 54.225 153.323 52.7652 152.166 51.3568C151.008 49.9484 150.674 49.5754 149.008 49.2925C146.719 48.9066 144.924 48.5465 144.031 48.823C143.137 49.0996 143.162 49.6783 143.941 50.4694C144.719 51.2604 146.352 51.4533 146.867 51.6141C147.381 51.7748 148.487 52.2572 148.487 52.2572L150.603 55.3762C150.603 55.3762 147.015 56.0193 146.307 56.418C145.6 56.8167 145.021 58.6238 145.317 59.6335C145.317 59.6335 143.998 60.5274 144.513 61.82C144.513 61.82 143.709 62.8683 144.262 63.7493C144.881 64.6193 145.597 65.4155 146.397 66.1224C146.834 66.5018 148.564 66.5918 148.564 66.5918C149.324 67.7551 150.234 68.8125 151.272 69.7366C152.5 70.6498 153.31 70.5919 154.661 72.5019L162.14 67.4086Z" fill="#FFA8A7"/>
<path d="M148.989 55.6849C148.14 55.3184 147.953 54.7396 147.15 55.0418C146.346 55.3441 146.654 56.2637 146.654 56.2637L148.989 55.6849Z" fill="#F28F8F"/>
<path d="M145.362 59.6914C145.893 59.2396 146.481 58.859 147.111 58.5595C147.696 58.2765 148.925 57.8392 148.925 57.8392C148.069 57.9164 147.229 58.1156 146.429 58.4309C146.02 58.5877 145.628 58.7859 145.259 59.0225C145.255 59.2208 145.284 59.4184 145.342 59.6078L145.362 59.6914Z" fill="#B16668"/>
<path d="M145.227 60.9068C144.94 61.0232 144.663 61.1607 144.397 61.3184C144.418 61.5168 144.466 61.7114 144.539 61.8972C145.008 61.2541 146.796 60.4888 146.796 60.4888C146.259 60.5678 145.732 60.7081 145.227 60.9068Z" fill="#B16668"/>
<path d="M148.886 67.0227C148.391 66.0287 147.803 65.0834 147.13 64.1995C146.913 63.9559 146.612 63.8038 146.287 63.774C145.963 63.7441 145.639 63.8388 145.381 64.0387C145.156 64.3796 146.32 64.3345 146.667 64.4825C147.529 65.2138 148.277 66.07 148.886 67.0227Z" fill="#B16668"/>
<path d="M151.587 55.2669C151.587 55.2669 150.944 54.3408 149.754 52.8681C148.564 51.3955 148.648 51.582 147.51 51.3762C146.371 51.1704 144.204 50.7716 143.613 50.09C143.712 50.2245 143.822 50.3513 143.941 50.4694C144.693 51.2411 146.352 51.4533 146.867 51.6141C147.381 51.7749 148.487 52.2572 148.487 52.2572L150.667 55.4727L151.587 55.2669Z" fill="#F28F8F"/>
<path d="M162.14 67.4085C165.999 72.0388 176.321 83.1709 178.713 87.6018C180.372 90.663 180.784 97.7885 179.099 100.38C177.414 102.972 172.584 101.879 168.674 98.4509C165.298 95.4926 162.488 88.3607 160.037 83.2931C157.587 78.2254 154.661 72.4954 154.661 72.4954L162.14 67.4085Z" fill="#FFA8A7"/>
<path d="M159.864 63.6464C159.553 62.9837 159.301 62.2951 159.111 61.5885C158.946 60.8729 158.711 60.1751 158.41 59.5048C157.767 58.1828 156.982 56.9343 156.069 55.7813C155.201 54.6013 154.252 53.4839 153.227 52.4372C152.732 51.897 152.269 51.3375 151.799 50.778C151.355 50.1697 150.742 49.7047 150.037 49.4404C149.326 49.2494 148.605 49.1012 147.876 48.9966C147.156 48.8744 146.429 48.7523 145.696 48.6687C145.329 48.6248 144.959 48.6097 144.59 48.6236C144.199 48.6259 143.818 48.747 143.497 48.9709C143.412 49.0385 143.346 49.1265 143.304 49.2265C143.263 49.3266 143.247 49.4355 143.259 49.5433C143.291 49.7433 143.371 49.9328 143.49 50.0963C143.704 50.4106 143.98 50.6777 144.301 50.8809C144.958 51.2359 145.668 51.4834 146.404 51.614C147.096 51.7896 147.77 52.0308 148.417 52.3343L150.429 55.2926C149.172 55.5172 147.928 55.8048 146.699 56.1543C146.535 56.207 146.376 56.2737 146.224 56.3537C146.076 56.4544 145.947 56.5807 145.844 56.7267C145.65 57.0061 145.497 57.3113 145.388 57.6334C145.158 58.2497 145.103 58.917 145.227 59.5627C144.891 59.8131 144.626 60.1452 144.455 60.5274C144.292 60.9251 144.292 61.3708 144.455 61.7685C144.258 62.0192 144.126 62.315 144.071 62.6292C144.016 62.9434 144.039 63.2664 144.14 63.5692C144.468 64.1088 144.858 64.6075 145.304 65.0548C145.518 65.2863 145.733 65.5007 145.947 65.6979C146.157 65.9406 146.419 66.1338 146.712 66.2638C147.309 66.4358 147.925 66.5351 148.545 66.5596C148.944 67.1448 149.375 67.7108 149.831 68.251C150.282 68.8102 150.801 69.3113 151.375 69.743C151.96 70.1674 152.661 70.4375 153.208 70.862C153.778 71.297 154.275 71.8202 154.68 72.4118C154.283 71.8128 153.792 71.2809 153.227 70.8362C152.655 70.4054 151.986 70.1224 151.413 69.6979C150.839 69.2796 150.318 68.7914 149.863 68.2445C149.413 67.6915 148.989 67.1127 148.577 66.521C147.961 66.4953 147.349 66.3937 146.757 66.2188C146.48 66.0939 146.234 65.9095 146.037 65.6786C145.818 65.4599 145.6 65.2413 145.394 65.0355C144.966 64.5926 144.587 64.1054 144.262 63.5821C144.171 63.2969 144.154 62.9933 144.213 62.6997C144.271 62.4061 144.403 62.1322 144.597 61.9036V61.865V61.8264C144.523 61.6403 144.485 61.4415 144.487 61.2412C144.489 61.042 144.53 60.8452 144.609 60.6624C144.767 60.2762 145.027 59.9404 145.362 59.6913L145.407 59.6528V59.5949C145.271 58.9499 145.327 58.2792 145.568 57.6656C145.793 57.0675 146.101 56.4244 146.77 56.3022C148.056 55.9292 149.343 55.6591 150.629 55.434H150.783L150.693 55.3054L148.577 52.18H148.545C147.879 51.8605 147.183 51.6064 146.468 51.4211C145.756 51.3032 145.067 51.0708 144.429 50.733C144.131 50.5482 143.875 50.3028 143.677 50.0127C143.478 49.7298 143.375 49.3696 143.645 49.1703C144.191 48.7651 144.989 48.8487 145.69 48.9066C146.391 48.9645 147.137 49.106 147.857 49.2217C148.577 49.3192 149.29 49.4609 149.992 49.6462C150.671 49.8985 151.259 50.346 151.683 50.9324C152.153 51.4854 152.629 52.0513 153.124 52.5851C154.151 53.6264 155.105 54.7373 155.979 55.9099C156.886 57.053 157.671 58.2881 158.32 59.5949C158.625 60.2586 158.866 60.9499 159.04 61.6592C159.244 62.364 159.506 63.0503 159.825 63.7107C160.485 65.0186 161.265 66.2629 162.153 67.4278C161.275 66.2409 160.508 64.975 159.864 63.6464Z" fill="#B16668"/>
<path d="M73.4963 4.10191C74.6603 0.622751 78.834 -0.772771 81.6765 0.41696C82.9627 0.963593 84.7312 2.28194 84.7119 4.32056C89.0207 -0.882098 100.873 4.03117 97.3745 11.5683C103.304 10.8094 107.516 20.9446 100.191 23.5878C106.995 26.8676 103.998 38.379 95.3552 36.7648C96.3906 39.2665 94.5899 41.4659 92.6027 42.3083C90.3455 43.2601 87.3101 42.9514 86.4419 41.4659C84.6669 47.8197 76.1008 48.9901 72.1972 43.6781C69.6249 46.9386 63.2903 46.8229 62.8788 42.0254C58.5957 45.9933 48.2997 41.9611 50.9043 35.0864C44.0939 36.1539 42.1517 26.8226 47.4508 24.964C45.8576 24.4756 44.523 23.3756 43.7394 21.9049C42.9559 20.4343 42.7873 18.7129 43.2707 17.1182C43.9524 14.713 46.8528 10.8995 50.467 12.1599C48.9621 7.59393 54.795 4.00545 58.1841 7.40743C58.3578 0.191875 69.7792 -2.82425 73.4963 4.10191Z" fill="#E15145"/>
<path opacity="0.8" d="M73.4963 4.10191C74.6603 0.622751 78.834 -0.772771 81.6765 0.41696C82.9627 0.963593 84.7312 2.28194 84.7119 4.32056C89.0207 -0.882098 100.873 4.03117 97.3745 11.5683C103.304 10.8094 107.516 20.9446 100.191 23.5878C106.995 26.8676 103.998 38.379 95.3552 36.7648C96.3906 39.2665 94.5899 41.4659 92.6027 42.3083C90.3455 43.2601 87.3101 42.9514 86.4419 41.4659C84.6669 47.8197 76.1008 48.9901 72.1972 43.6781C69.6249 46.9386 63.2903 46.8229 62.8788 42.0254C58.5957 45.9933 48.2997 41.9611 50.9043 35.0864C44.0939 36.1539 42.1517 26.8226 47.4508 24.964C45.8576 24.4756 44.523 23.3756 43.7394 21.9049C42.9559 20.4343 42.7873 18.7129 43.2707 17.1182C43.9524 14.713 46.8528 10.8995 50.467 12.1599C48.9621 7.59393 54.795 4.00545 58.1841 7.40743C58.3578 0.191875 69.7792 -2.82425 73.4963 4.10191Z" fill="white"/>
<path d="M95.6446 44.2569C96.1744 43.8853 96.804 43.6821 97.4512 43.6741C98.0983 43.6661 98.7328 43.8535 99.2717 44.2119C99.8247 41.1507 103.58 41.6395 104.59 44.2119C108.236 42.5784 110.378 47.8775 106.629 49.1766C108.211 51.9033 105.227 55.3117 102.314 54.1027C101.085 56.5529 97.1687 57.1832 96.5256 54.0641C91.8567 55.9934 90.3969 49.9097 94.6799 48.0769C94.3729 47.4271 94.3013 46.6907 94.4773 45.9939C94.6532 45.2971 95.0659 44.6831 95.6446 44.2569Z" fill="#E15145"/>
<path d="M111.394 51.569H111.484C111.536 51.3136 111.661 51.0788 111.844 50.8928C112.026 50.7068 112.259 50.5776 112.513 50.5208C112.646 50.4931 112.784 50.4935 112.917 50.522C113.05 50.5506 113.176 50.6066 113.286 50.6865C113.396 50.7664 113.488 50.8685 113.557 50.9861C113.625 51.1037 113.668 51.2344 113.684 51.3696C113.884 51.279 114.106 51.2432 114.325 51.2658C114.544 51.2884 114.753 51.3686 114.931 51.4983C115.111 51.6146 115.243 51.7911 115.304 51.9962C115.366 52.2012 115.352 52.4214 115.266 52.6173C115.209 52.7801 115.118 52.929 114.999 53.0543C114.881 53.1795 114.737 53.2783 114.577 53.344C114.632 53.6079 114.624 53.8811 114.554 54.1413C114.484 54.4016 114.353 54.6416 114.173 54.842C113.992 55.0424 113.767 55.1975 113.516 55.2948C113.264 55.392 112.994 55.4287 112.725 55.4019C112.687 55.5525 112.614 55.6923 112.513 55.8106C112.412 55.9289 112.285 56.0226 112.143 56.0846C112 56.1466 111.845 56.1753 111.69 56.1684C111.535 56.1616 111.383 56.1193 111.246 56.045C111.098 55.9677 110.971 55.8562 110.875 55.7197C110.778 55.5832 110.716 55.4258 110.693 55.2604C110.513 55.3435 110.31 55.3579 110.12 55.3011C109.931 55.2442 109.768 55.1199 109.664 54.9517C109.517 54.7113 109.462 54.4256 109.51 54.1478C109.554 53.8928 109.691 53.6633 109.896 53.5047C109.69 53.2912 109.571 53.0082 109.564 52.7116C109.557 52.415 109.662 52.1266 109.857 51.9034C110.055 51.7068 110.304 51.5708 110.577 51.5115C110.849 51.4522 111.133 51.4722 111.394 51.569Z" fill="#E15145"/>
<path d="M119.716 50.4564C119.868 50.5548 119.981 50.7024 120.037 50.8744C120.125 50.7772 120.244 50.7147 120.374 50.6982C120.504 50.6816 120.636 50.7122 120.745 50.7844C120.801 50.8371 120.844 50.9026 120.87 50.9754C120.895 51.0481 120.903 51.126 120.893 51.2024C120.87 51.3542 120.805 51.4967 120.706 51.614C120.706 51.614 120.661 51.6654 120.661 51.6976C120.649 51.7374 120.649 51.78 120.661 51.8198C120.717 51.9403 120.736 52.0745 120.717 52.2059C120.697 52.3373 120.64 52.4601 120.552 52.5593C120.46 52.6573 120.34 52.7243 120.209 52.7508C120.077 52.7773 119.941 52.7621 119.819 52.7072C119.755 52.8824 119.646 53.0376 119.504 53.1574C119.4 53.2379 119.274 53.2847 119.143 53.2916C119.012 53.2985 118.882 53.2651 118.77 53.196C118.711 53.1579 118.661 53.107 118.623 53.047C118.586 52.987 118.562 52.9195 118.554 52.8493C118.546 52.7791 118.554 52.708 118.577 52.6411C118.6 52.5743 118.637 52.5134 118.687 52.4629C118.585 52.4774 118.481 52.4621 118.387 52.4187C118.293 52.3754 118.214 52.3058 118.159 52.2185C118.109 52.1281 118.082 52.0263 118.082 51.9227C118.082 51.819 118.109 51.7172 118.159 51.6268C118.211 51.5373 118.281 51.4603 118.365 51.4013C118.45 51.3424 118.547 51.303 118.648 51.286C118.585 51.1331 118.576 50.963 118.624 50.8046C118.672 50.6462 118.774 50.5095 118.912 50.4178C119.03 50.3318 119.174 50.2888 119.321 50.2958C119.467 50.3028 119.606 50.3595 119.716 50.4564Z" fill="#E15145"/>
<path opacity="0.8" d="M95.6446 44.2569C96.1744 43.8853 96.804 43.6821 97.4512 43.6741C98.0983 43.6661 98.7328 43.8535 99.2717 44.2119C99.8247 41.1507 103.58 41.6395 104.59 44.2119C108.236 42.5784 110.378 47.8775 106.629 49.1766C108.211 51.9033 105.227 55.3117 102.314 54.1027C101.085 56.5529 97.1687 57.1832 96.5256 54.0641C91.8567 55.9934 90.3969 49.9097 94.6799 48.0769C94.3729 47.4271 94.3013 46.6907 94.4773 45.9939C94.6532 45.2971 95.0659 44.6831 95.6446 44.2569Z" fill="white"/>
<path opacity="0.8" d="M111.394 51.569H111.484C111.536 51.3136 111.661 51.0788 111.844 50.8928C112.026 50.7068 112.259 50.5776 112.513 50.5208C112.646 50.4931 112.784 50.4935 112.917 50.522C113.05 50.5506 113.176 50.6066 113.286 50.6865C113.396 50.7664 113.488 50.8685 113.557 50.9861C113.625 51.1037 113.668 51.2344 113.684 51.3696C113.884 51.279 114.106 51.2432 114.325 51.2658C114.544 51.2884 114.753 51.3686 114.931 51.4983C115.111 51.6146 115.243 51.7911 115.304 51.9962C115.366 52.2012 115.352 52.4214 115.266 52.6173C115.209 52.7801 115.118 52.929 114.999 53.0543C114.881 53.1795 114.737 53.2783 114.577 53.344C114.632 53.6079 114.624 53.8811 114.554 54.1413C114.484 54.4016 114.353 54.6416 114.173 54.842C113.992 55.0424 113.767 55.1975 113.516 55.2948C113.264 55.392 112.994 55.4287 112.725 55.4019C112.687 55.5525 112.614 55.6923 112.513 55.8106C112.412 55.9289 112.285 56.0226 112.143 56.0846C112 56.1466 111.845 56.1753 111.69 56.1684C111.535 56.1616 111.383 56.1193 111.246 56.045C111.098 55.9677 110.971 55.8562 110.875 55.7197C110.778 55.5832 110.716 55.4258 110.693 55.2604C110.513 55.3435 110.31 55.3579 110.12 55.3011C109.931 55.2442 109.768 55.1199 109.664 54.9517C109.517 54.7113 109.462 54.4256 109.51 54.1478C109.554 53.8928 109.691 53.6633 109.896 53.5047C109.69 53.2912 109.571 53.0082 109.564 52.7116C109.557 52.415 109.662 52.1266 109.857 51.9034C110.055 51.7068 110.304 51.5708 110.577 51.5115C110.849 51.4522 111.133 51.4722 111.394 51.569Z" fill="white"/>
<path opacity="0.8" d="M119.716 50.4564C119.868 50.5548 119.981 50.7024 120.037 50.8744C120.125 50.7772 120.244 50.7147 120.374 50.6982C120.504 50.6816 120.636 50.7122 120.745 50.7844C120.801 50.8371 120.844 50.9026 120.87 50.9754C120.895 51.0481 120.903 51.126 120.893 51.2024C120.87 51.3542 120.805 51.4967 120.706 51.614C120.706 51.614 120.661 51.6654 120.661 51.6976C120.649 51.7374 120.649 51.78 120.661 51.8198C120.717 51.9403 120.736 52.0745 120.717 52.2059C120.697 52.3373 120.64 52.4601 120.552 52.5593C120.46 52.6573 120.34 52.7243 120.209 52.7508C120.077 52.7773 119.941 52.7621 119.819 52.7072C119.755 52.8824 119.646 53.0376 119.504 53.1574C119.4 53.2379 119.274 53.2847 119.143 53.2916C119.012 53.2985 118.882 53.2651 118.77 53.196C118.711 53.1579 118.661 53.107 118.623 53.047C118.586 52.987 118.562 52.9195 118.554 52.8493C118.546 52.7791 118.554 52.708 118.577 52.6411C118.6 52.5743 118.637 52.5134 118.687 52.4629C118.585 52.4774 118.481 52.4621 118.387 52.4187C118.293 52.3754 118.214 52.3058 118.159 52.2185C118.109 52.1281 118.082 52.0263 118.082 51.9227C118.082 51.819 118.109 51.7172 118.159 51.6268C118.211 51.5373 118.281 51.4603 118.365 51.4013C118.45 51.3424 118.547 51.303 118.648 51.286C118.585 51.1331 118.576 50.963 118.624 50.8046C118.672 50.6462 118.774 50.5095 118.912 50.4178C119.03 50.3318 119.174 50.2888 119.321 50.2958C119.467 50.3028 119.606 50.3595 119.716 50.4564Z" fill="white"/>
<path d="M216.411 182.574C215.125 186.002 210.881 187.23 208.051 185.925C206.765 185.327 205.08 183.931 205.183 181.899C200.681 186.922 189.022 181.533 192.816 174.143C186.867 174.658 183.067 164.362 190.494 162.021C183.832 158.465 187.279 147.075 195.858 149.05C194.932 146.477 196.816 144.381 198.835 143.622C201.131 142.76 204.154 143.159 204.964 144.715C206.99 138.439 215.601 137.641 219.279 143.082C222 139.931 228.283 140.304 228.527 145.108C232.965 141.32 243.093 145.751 240.212 152.529C247.061 151.744 248.624 161.146 243.254 162.818C244.821 163.371 246.106 164.521 246.829 166.017C247.552 167.513 247.654 169.235 247.113 170.806C246.335 173.185 243.254 176.877 239.717 175.475C241.035 180.092 235.061 183.436 231.813 179.899C231.382 187.095 219.852 189.642 216.411 182.574Z" fill="#E15145"/>
<path opacity="0.8" d="M216.411 182.574C215.125 186.002 210.881 187.23 208.051 185.925C206.765 185.327 205.08 183.931 205.183 181.899C200.681 186.922 189.022 181.533 192.816 174.143C186.867 174.658 183.067 164.362 190.494 162.021C183.832 158.465 187.279 147.075 195.858 149.05C194.932 146.477 196.816 144.381 198.835 143.622C201.131 142.76 204.154 143.159 204.964 144.715C206.99 138.439 215.601 137.641 219.279 143.082C222 139.931 228.283 140.304 228.527 145.108C232.965 141.32 243.093 145.751 240.212 152.529C247.061 151.744 248.624 161.146 243.254 162.818C244.821 163.371 246.106 164.521 246.829 166.017C247.552 167.513 247.654 169.235 247.113 170.806C246.335 173.185 243.254 176.877 239.717 175.475C241.035 180.092 235.061 183.436 231.813 179.899C231.382 187.095 219.852 189.642 216.411 182.574Z" fill="white"/>
<path d="M196.507 139.435C195.89 139.628 195.23 139.631 194.612 139.443C193.993 139.255 193.446 138.884 193.041 138.381C191.588 141.133 188.16 139.525 187.961 136.786C183.999 137.242 183.542 131.545 187.517 131.442C186.829 128.361 190.7 126.014 193.112 128.04C195.041 126.078 198.9 126.644 198.63 129.821C203.652 129.409 203.221 135.609 198.585 136.091C198.679 136.803 198.524 137.525 198.145 138.135C197.766 138.745 197.187 139.205 196.507 139.435Z" fill="#E15145"/>
<path d="M183.697 127.731L183.62 127.673C183.494 127.899 183.306 128.085 183.078 128.207C182.85 128.329 182.591 128.383 182.333 128.361C182.198 128.349 182.067 128.308 181.948 128.241C181.829 128.174 181.726 128.083 181.645 127.974C181.564 127.865 181.506 127.74 181.476 127.607C181.447 127.475 181.445 127.337 181.472 127.204C181.252 127.227 181.031 127.194 180.828 127.107C180.625 127.021 180.448 126.883 180.314 126.708C180.177 126.544 180.102 126.337 180.102 126.123C180.102 125.909 180.177 125.702 180.314 125.538C180.417 125.399 180.548 125.284 180.699 125.201C180.85 125.118 181.017 125.068 181.189 125.056C181.214 124.787 181.303 124.527 181.448 124.299C181.593 124.071 181.789 123.88 182.022 123.743C182.255 123.605 182.517 123.525 182.787 123.508C183.057 123.492 183.327 123.539 183.575 123.647C183.655 123.512 183.765 123.397 183.896 123.311C184.028 123.225 184.178 123.17 184.334 123.152C184.49 123.133 184.649 123.15 184.797 123.203C184.945 123.256 185.079 123.342 185.189 123.454C185.307 123.573 185.394 123.719 185.444 123.879C185.493 124.04 185.503 124.209 185.472 124.374C185.668 124.347 185.868 124.393 186.032 124.503C186.197 124.614 186.316 124.78 186.366 124.972C186.434 125.247 186.4 125.537 186.269 125.789C186.154 126.032 185.949 126.221 185.697 126.316C185.829 126.581 185.856 126.886 185.774 127.171C185.692 127.456 185.506 127.699 185.253 127.853C185.009 127.983 184.733 128.04 184.457 128.019C184.182 127.997 183.918 127.897 183.697 127.731Z" fill="#E15145"/>
<path d="M175.427 126.284C175.312 126.144 175.249 125.97 175.247 125.789C175.133 125.857 174.999 125.881 174.869 125.857C174.739 125.834 174.622 125.764 174.539 125.66C174.506 125.592 174.488 125.517 174.488 125.442C174.488 125.366 174.506 125.291 174.539 125.223C174.609 125.085 174.713 124.968 174.841 124.882C174.871 124.868 174.895 124.845 174.912 124.818C174.925 124.776 174.925 124.731 174.912 124.689C174.885 124.555 174.902 124.416 174.96 124.292C175.017 124.168 175.113 124.066 175.232 124C175.352 123.934 175.49 123.908 175.625 123.926C175.761 123.943 175.887 124.003 175.986 124.097C176.098 123.95 176.246 123.835 176.417 123.763C176.539 123.713 176.674 123.703 176.802 123.737C176.93 123.771 177.043 123.845 177.124 123.95C177.17 124.003 177.204 124.066 177.222 124.134C177.24 124.202 177.243 124.273 177.23 124.342C177.217 124.411 177.188 124.477 177.147 124.533C177.105 124.59 177.051 124.637 176.989 124.67C177.091 124.686 177.185 124.732 177.261 124.802C177.336 124.872 177.39 124.962 177.414 125.062C177.436 125.163 177.431 125.269 177.401 125.368C177.371 125.467 177.315 125.557 177.24 125.628C177.164 125.697 177.075 125.749 176.977 125.78C176.879 125.811 176.776 125.821 176.674 125.808C176.687 125.973 176.643 126.136 176.549 126.272C176.455 126.408 176.318 126.507 176.16 126.554C176.025 126.596 175.88 126.592 175.747 126.543C175.615 126.494 175.502 126.403 175.427 126.284Z" fill="#E15145"/>
<path opacity="0.8" d="M196.507 139.435C195.89 139.628 195.23 139.631 194.612 139.443C193.993 139.255 193.446 138.884 193.041 138.381C191.588 141.133 188.16 139.525 187.961 136.786C183.999 137.242 183.542 131.545 187.517 131.442C186.829 128.361 190.7 126.014 193.112 128.04C195.041 126.078 198.9 126.644 198.63 129.821C203.652 129.409 203.221 135.609 198.585 136.091C198.679 136.803 198.524 137.525 198.145 138.135C197.766 138.745 197.187 139.205 196.507 139.435Z" fill="white"/>
<path opacity="0.8" d="M183.697 127.731L183.62 127.673C183.494 127.899 183.306 128.085 183.078 128.207C182.85 128.329 182.591 128.383 182.333 128.361C182.198 128.349 182.067 128.308 181.948 128.241C181.829 128.174 181.726 128.083 181.645 127.974C181.564 127.865 181.506 127.74 181.476 127.607C181.447 127.475 181.445 127.337 181.472 127.204C181.252 127.227 181.031 127.194 180.828 127.107C180.625 127.021 180.448 126.883 180.314 126.708C180.177 126.544 180.102 126.337 180.102 126.123C180.102 125.909 180.177 125.702 180.314 125.538C180.417 125.399 180.548 125.284 180.699 125.201C180.85 125.118 181.017 125.068 181.189 125.056C181.214 124.787 181.303 124.527 181.448 124.299C181.593 124.071 181.789 123.88 182.022 123.743C182.255 123.605 182.517 123.525 182.787 123.508C183.057 123.492 183.327 123.539 183.575 123.647C183.655 123.512 183.765 123.397 183.896 123.311C184.028 123.225 184.178 123.17 184.334 123.152C184.49 123.133 184.649 123.15 184.797 123.203C184.945 123.256 185.079 123.342 185.189 123.454C185.307 123.573 185.394 123.719 185.444 123.879C185.493 124.04 185.503 124.209 185.472 124.374C185.668 124.347 185.868 124.393 186.032 124.503C186.197 124.614 186.316 124.78 186.366 124.972C186.434 125.247 186.4 125.537 186.269 125.789C186.154 126.032 185.949 126.221 185.697 126.316C185.829 126.581 185.856 126.886 185.774 127.171C185.692 127.456 185.506 127.699 185.253 127.853C185.009 127.983 184.733 128.04 184.457 128.019C184.182 127.997 183.918 127.897 183.697 127.731Z" fill="white"/>
<path opacity="0.8" d="M175.427 126.284C175.312 126.144 175.249 125.97 175.247 125.789C175.133 125.857 174.999 125.881 174.869 125.857C174.739 125.834 174.622 125.764 174.539 125.66C174.506 125.592 174.488 125.517 174.488 125.442C174.488 125.366 174.506 125.291 174.539 125.223C174.609 125.085 174.713 124.968 174.841 124.882C174.871 124.868 174.895 124.845 174.912 124.818C174.925 124.776 174.925 124.731 174.912 124.689C174.885 124.555 174.902 124.416 174.96 124.292C175.017 124.168 175.113 124.066 175.232 124C175.352 123.934 175.49 123.908 175.625 123.926C175.761 123.943 175.887 124.003 175.986 124.097C176.098 123.95 176.246 123.835 176.417 123.763C176.539 123.713 176.674 123.703 176.802 123.737C176.93 123.771 177.043 123.845 177.124 123.95C177.17 124.003 177.204 124.066 177.222 124.134C177.24 124.202 177.243 124.273 177.23 124.342C177.217 124.411 177.188 124.477 177.147 124.533C177.105 124.59 177.051 124.637 176.989 124.67C177.091 124.686 177.185 124.732 177.261 124.802C177.336 124.872 177.39 124.962 177.414 125.062C177.436 125.163 177.431 125.269 177.401 125.368C177.371 125.467 177.315 125.557 177.24 125.628C177.164 125.697 177.075 125.749 176.977 125.78C176.879 125.811 176.776 125.821 176.674 125.808C176.687 125.973 176.643 126.136 176.549 126.272C176.455 126.408 176.318 126.507 176.16 126.554C176.025 126.596 175.88 126.592 175.747 126.543C175.615 126.494 175.502 126.403 175.427 126.284Z" fill="white"/>
<path d="M213.337 52.0234C212.585 55.6119 208.604 57.4897 205.62 56.6408C204.263 56.255 202.372 55.1489 202.147 53.1231C198.482 58.7952 186.134 55.3032 188.719 47.4124C182.932 48.8594 177.549 39.2901 184.514 35.8366C177.375 33.38 178.989 21.5856 187.768 22.1837C186.449 19.8171 187.973 17.4247 189.851 16.3572C191.98 15.1417 195.028 15.071 196.07 16.4665C197.086 9.95194 205.453 7.77827 209.955 12.6079C212.141 9.06447 218.431 8.43424 219.402 13.1481C223.19 8.71077 233.891 11.5018 232.109 18.6338C238.752 16.7752 241.756 25.8172 236.74 28.2802C238.374 28.5752 239.825 29.5036 240.778 30.8634C241.73 32.2232 242.107 33.9044 241.826 35.5408C241.434 38.0103 238.997 42.139 235.26 41.3287C237.293 45.6889 231.916 49.9333 228.148 46.9494C228.836 54.1263 217.845 58.4608 213.337 52.0234Z" fill="#E15145"/>
<path opacity="0.8" d="M213.337 52.0234C212.585 55.6119 208.604 57.4897 205.62 56.6408C204.263 56.255 202.372 55.1489 202.147 53.1231C198.482 58.7952 186.134 55.3032 188.719 47.4124C182.932 48.8594 177.549 39.2901 184.514 35.8366C177.375 33.38 178.989 21.5856 187.768 22.1837C186.449 19.8171 187.973 17.4247 189.851 16.3572C191.98 15.1417 195.028 15.071 196.07 16.4665C197.086 9.95194 205.453 7.77827 209.955 12.6079C212.141 9.06447 218.431 8.43424 219.402 13.1481C223.19 8.71077 233.891 11.5018 232.109 18.6338C238.752 16.7752 241.756 25.8172 236.74 28.2802C238.374 28.5752 239.825 29.5036 240.778 30.8634C241.73 32.2232 242.107 33.9044 241.826 35.5408C241.434 38.0103 238.997 42.139 235.26 41.3287C237.293 45.6889 231.916 49.9333 228.148 46.9494C228.836 54.1263 217.845 58.4608 213.337 52.0234Z" fill="white"/>
<path d="M191.459 12.3764C190.872 12.6471 190.216 12.7341 189.578 12.6263C188.94 12.5184 188.35 12.2207 187.884 11.7719C186.797 14.6851 183.189 13.5211 182.649 10.833C178.79 11.7848 177.6 6.19623 181.523 5.58529C180.456 2.62061 183.999 -0.20259 186.668 1.50805C188.314 -0.684913 192.257 -0.614171 192.366 2.56916C197.298 1.52734 197.659 7.75896 193.118 8.79435C193.301 9.49119 193.235 10.23 192.933 10.8837C192.63 11.5374 192.109 12.0652 191.459 12.3764Z" fill="#E15145"/>
<path d="M174.944 4.78137L174.861 4.7235C174.752 4.96056 174.577 5.16095 174.357 5.30025C174.136 5.43956 173.88 5.51177 173.62 5.50807C173.484 5.50456 173.35 5.4727 173.227 5.41453C173.104 5.35636 172.994 5.27316 172.905 5.17026C172.816 5.06736 172.75 4.94701 172.71 4.81693C172.67 4.68684 172.658 4.54988 172.674 4.41481C172.458 4.45469 172.235 4.43838 172.026 4.36744C171.818 4.29651 171.632 4.17332 171.484 4.00966C171.339 3.85251 171.253 3.64965 171.242 3.43601C171.23 3.22237 171.293 3.01133 171.42 2.83922C171.513 2.69463 171.636 2.57125 171.78 2.47708C171.924 2.38291 172.086 2.32006 172.256 2.29258C172.268 2.02328 172.341 1.76018 172.469 1.52297C172.597 1.28576 172.777 1.08058 172.996 0.922785C173.219 0.772462 173.473 0.675183 173.74 0.638397C174.006 0.601612 174.277 0.626297 174.533 0.710564C174.603 0.569889 174.704 0.447237 174.829 0.352128C174.954 0.257019 175.1 0.192013 175.254 0.162155C175.408 0.132298 175.567 0.138392 175.719 0.179966C175.87 0.22154 176.01 0.297476 176.128 0.401877C176.254 0.510528 176.351 0.647903 176.413 0.80238C176.475 0.956858 176.498 1.12389 176.481 1.28935C176.676 1.25019 176.878 1.28264 177.051 1.38072C177.223 1.4788 177.354 1.63591 177.42 1.82312C177.504 2.09138 177.491 2.38072 177.382 2.63986C177.284 2.89204 177.093 3.09695 176.848 3.21221C176.999 3.46759 177.049 3.77006 176.988 4.06032C176.927 4.35059 176.76 4.60774 176.52 4.78137C176.285 4.93284 176.012 5.0134 175.732 5.0134C175.453 5.0134 175.179 4.93284 174.944 4.78137Z" fill="#E15145"/>
<path d="M166.391 5.23805C166.298 5.0836 166.255 4.90363 166.269 4.72357C166.15 4.77637 166.015 4.78465 165.89 4.7469C165.765 4.70915 165.658 4.62787 165.587 4.51778C165.558 4.44714 165.546 4.37053 165.553 4.29441C165.56 4.21829 165.585 4.14491 165.626 4.08047C165.709 3.94943 165.827 3.8446 165.967 3.77822C165.996 3.76424 166.022 3.74457 166.044 3.72034C166.056 3.68055 166.056 3.63794 166.044 3.59815C166.032 3.46224 166.064 3.32619 166.135 3.20967C166.206 3.09315 166.312 3.00219 166.438 2.94993C166.564 2.89768 166.704 2.88683 166.836 2.91896C166.969 2.95109 167.088 3.02454 167.176 3.12869C167.305 2.99339 167.47 2.89751 167.652 2.85215C167.778 2.81721 167.911 2.82401 168.033 2.87155C168.155 2.91908 168.258 3.00479 168.327 3.11582C168.366 3.17423 168.392 3.24081 168.403 3.31061C168.413 3.38041 168.407 3.45163 168.386 3.51899C168.365 3.58634 168.329 3.64809 168.281 3.69965C168.233 3.75121 168.174 3.79125 168.108 3.8168C168.207 3.84474 168.296 3.90103 168.363 3.97873C168.431 4.05643 168.474 4.15215 168.488 4.25411C168.497 4.35698 168.481 4.46065 168.439 4.55523C168.397 4.6498 168.332 4.73212 168.25 4.79431C168.166 4.85392 168.07 4.89506 167.97 4.91501C167.869 4.93497 167.765 4.93328 167.664 4.91007C167.659 5.07539 167.597 5.23375 167.488 5.35808C167.379 5.48242 167.23 5.56501 167.066 5.59175C166.931 5.6125 166.792 5.58936 166.671 5.52573C166.549 5.4621 166.451 5.3613 166.391 5.23805Z" fill="#E15145"/>
<path opacity="0.8" d="M191.459 12.3764C190.872 12.6471 190.216 12.7341 189.578 12.6263C188.94 12.5184 188.35 12.2207 187.884 11.7719C186.797 14.6851 183.189 13.5211 182.649 10.833C178.79 11.7848 177.6 6.19623 181.523 5.58529C180.456 2.62061 183.999 -0.20259 186.668 1.50805C188.314 -0.684913 192.257 -0.614171 192.366 2.56916C197.298 1.52734 197.659 7.75896 193.118 8.79435C193.301 9.49119 193.235 10.23 192.933 10.8837C192.63 11.5374 192.109 12.0652 191.459 12.3764Z" fill="white"/>
<path opacity="0.8" d="M174.944 4.78137L174.861 4.7235C174.752 4.96056 174.577 5.16095 174.357 5.30025C174.136 5.43956 173.88 5.51177 173.62 5.50807C173.484 5.50456 173.35 5.4727 173.227 5.41453C173.104 5.35636 172.994 5.27316 172.905 5.17026C172.816 5.06736 172.75 4.94701 172.71 4.81693C172.67 4.68684 172.658 4.54988 172.674 4.41481C172.458 4.45469 172.235 4.43838 172.026 4.36744C171.818 4.29651 171.632 4.17332 171.484 4.00966C171.339 3.85251 171.253 3.64965 171.242 3.43601C171.23 3.22237 171.293 3.01133 171.42 2.83922C171.513 2.69463 171.636 2.57125 171.78 2.47708C171.924 2.38291 172.086 2.32006 172.256 2.29258C172.268 2.02328 172.341 1.76018 172.469 1.52297C172.597 1.28576 172.777 1.08058 172.996 0.922785C173.219 0.772462 173.473 0.675183 173.74 0.638397C174.006 0.601612 174.277 0.626297 174.533 0.710564C174.603 0.569889 174.704 0.447237 174.829 0.352128C174.954 0.257019 175.1 0.192013 175.254 0.162155C175.408 0.132298 175.567 0.138392 175.719 0.179966C175.87 0.22154 176.01 0.297476 176.128 0.401877C176.254 0.510528 176.351 0.647903 176.413 0.80238C176.475 0.956858 176.498 1.12389 176.481 1.28935C176.676 1.25019 176.878 1.28264 177.051 1.38072C177.223 1.4788 177.354 1.63591 177.42 1.82312C177.504 2.09138 177.491 2.38072 177.382 2.63986C177.284 2.89204 177.093 3.09695 176.848 3.21221C176.999 3.46759 177.049 3.77006 176.988 4.06032C176.927 4.35059 176.76 4.60774 176.52 4.78137C176.285 4.93284 176.012 5.0134 175.732 5.0134C175.453 5.0134 175.179 4.93284 174.944 4.78137Z" fill="white"/>
<path opacity="0.8" d="M166.391 5.23805C166.298 5.0836 166.255 4.90363 166.269 4.72357C166.15 4.77637 166.015 4.78465 165.89 4.7469C165.765 4.70915 165.658 4.62787 165.587 4.51778C165.558 4.44714 165.546 4.37053 165.553 4.29441C165.56 4.21829 165.585 4.14491 165.626 4.08047C165.709 3.94943 165.827 3.8446 165.967 3.77822C165.996 3.76424 166.022 3.74457 166.044 3.72034C166.056 3.68055 166.056 3.63794 166.044 3.59815C166.032 3.46224 166.064 3.32619 166.135 3.20967C166.206 3.09315 166.312 3.00219 166.438 2.94993C166.564 2.89768 166.704 2.88683 166.836 2.91896C166.969 2.95109 167.088 3.02454 167.176 3.12869C167.305 2.99339 167.47 2.89751 167.652 2.85215C167.778 2.81721 167.911 2.82401 168.033 2.87155C168.155 2.91908 168.258 3.00479 168.327 3.11582C168.366 3.17423 168.392 3.24081 168.403 3.31061C168.413 3.38041 168.407 3.45163 168.386 3.51899C168.365 3.58634 168.329 3.64809 168.281 3.69965C168.233 3.75121 168.174 3.79125 168.108 3.8168C168.207 3.84474 168.296 3.90103 168.363 3.97873C168.431 4.05643 168.474 4.15215 168.488 4.25411C168.497 4.35698 168.481 4.46065 168.439 4.55523C168.397 4.6498 168.332 4.73212 168.25 4.79431C168.166 4.85392 168.07 4.89506 167.97 4.91501C167.869 4.93497 167.765 4.93328 167.664 4.91007C167.659 5.07539 167.597 5.23375 167.488 5.35808C167.379 5.48242 167.23 5.56501 167.066 5.59175C166.931 5.6125 166.792 5.58936 166.671 5.52573C166.549 5.4621 166.451 5.3613 166.391 5.23805Z" fill="white"/>
<path d="M81.8348 162.325C83.539 165.54 87.8799 166.286 90.5037 164.653C91.6999 163.913 93.2176 162.325 92.8703 160.319C97.9572 164.769 108.871 158.029 104.227 151.148C110.195 150.949 112.742 140.28 105.089 138.833C111.282 134.511 106.498 123.617 98.2209 126.614C98.864 123.977 96.716 122.112 94.6195 121.578C92.2401 121 89.2818 121.752 88.6644 123.392C85.9056 117.398 77.2623 117.604 74.2526 123.475C71.1786 120.665 64.9599 121.791 65.3136 126.588C60.4582 123.373 50.9339 128.974 54.5996 135.347C47.6991 135.379 47.2682 144.903 52.7989 145.913C51.3151 146.647 50.1805 147.936 49.6411 149.501C49.1018 151.067 49.2012 152.781 49.9178 154.273C50.9725 156.544 54.4195 159.843 57.8151 158.029C57.0562 162.775 63.3843 165.386 66.1753 161.483C67.5065 168.569 79.2624 169.721 81.8348 162.325Z" fill="#E15145"/>
<path opacity="0.8" d="M81.8348 162.325C83.539 165.54 87.8799 166.286 90.5037 164.653C91.6999 163.913 93.2176 162.325 92.8703 160.319C97.9572 164.769 108.871 158.029 104.227 151.148C110.195 150.949 112.742 140.28 105.089 138.833C111.282 134.511 106.498 123.617 98.2209 126.614C98.864 123.977 96.716 122.112 94.6195 121.578C92.2401 121 89.2818 121.752 88.6644 123.392C85.9056 117.398 77.2623 117.604 74.2526 123.475C71.1786 120.665 64.9599 121.791 65.3136 126.588C60.4582 123.373 50.9339 128.974 54.5996 135.347C47.6991 135.379 47.2682 144.903 52.7989 145.913C51.3151 146.647 50.1805 147.936 49.6411 149.501C49.1018 151.067 49.2012 152.781 49.9178 154.273C50.9725 156.544 54.4195 159.843 57.8151 158.029C57.0562 162.775 63.3843 165.386 66.1753 161.483C67.5065 168.569 79.2624 169.721 81.8348 162.325Z" fill="white"/>
<path d="M92.0021 118.17C92.642 118.271 93.2974 118.177 93.8827 117.899C94.4679 117.621 94.9556 117.173 95.2819 116.614C97.1276 119.115 100.272 117.012 100.06 114.273C104.047 114.131 103.642 108.433 99.7 108.922C99.9187 105.777 95.7385 104.035 93.6549 106.401C91.4684 104.749 87.6998 105.893 88.4651 108.974C83.4361 109.321 84.7994 115.405 89.449 115.167C89.4577 115.886 89.7176 116.58 90.1838 117.129C90.65 117.677 91.2932 118.046 92.0021 118.17Z" fill="#E15145"/>
<path d="M105.842 106.33L105.906 106.26C106.076 106.457 106.299 106.6 106.549 106.674C106.799 106.747 107.065 106.746 107.314 106.671C107.441 106.631 107.558 106.564 107.659 106.476C107.759 106.388 107.84 106.28 107.896 106.16C107.953 106.039 107.984 105.908 107.988 105.775C107.992 105.642 107.968 105.509 107.919 105.385C108.139 105.369 108.351 105.294 108.533 105.168C108.715 105.043 108.86 104.871 108.954 104.671C109.053 104.481 109.081 104.261 109.034 104.052C108.987 103.843 108.867 103.657 108.697 103.527C108.567 103.412 108.415 103.326 108.25 103.275C108.085 103.224 107.91 103.209 107.739 103.231C107.657 102.974 107.517 102.74 107.33 102.547C107.142 102.354 106.912 102.207 106.658 102.118C106.403 102.033 106.132 102.009 105.865 102.045C105.599 102.082 105.344 102.18 105.121 102.33C105.015 102.215 104.883 102.126 104.737 102.069C104.59 102.013 104.433 101.99 104.276 102.004C104.12 102.018 103.969 102.067 103.834 102.148C103.7 102.229 103.586 102.34 103.501 102.472C103.41 102.611 103.354 102.77 103.337 102.936C103.32 103.102 103.343 103.269 103.404 103.424C103.207 103.44 103.022 103.528 102.884 103.669C102.746 103.811 102.663 103.998 102.652 104.195C102.642 104.477 102.733 104.753 102.909 104.974C103.066 105.182 103.295 105.325 103.552 105.372C103.477 105.66 103.511 105.965 103.649 106.228C103.787 106.491 104.019 106.693 104.298 106.794C104.572 106.876 104.865 106.877 105.14 106.794C105.414 106.712 105.658 106.551 105.842 106.33Z" fill="#E15145"/>
<path d="M114.157 104.446C114.215 104.275 114.215 104.09 114.157 103.919C114.286 103.935 114.417 103.905 114.526 103.835C114.636 103.764 114.717 103.657 114.755 103.533C114.765 103.456 114.755 103.379 114.727 103.307C114.699 103.235 114.653 103.171 114.594 103.121C114.481 103.018 114.34 102.948 114.189 102.922C114.157 102.919 114.126 102.908 114.099 102.89C114.068 102.859 114.049 102.818 114.048 102.774C114.022 102.639 113.953 102.516 113.852 102.422C113.751 102.329 113.623 102.27 113.486 102.255C113.35 102.24 113.212 102.269 113.093 102.338C112.974 102.408 112.88 102.513 112.826 102.639C112.668 102.553 112.491 102.511 112.311 102.517C112.179 102.517 112.051 102.56 111.946 102.64C111.842 102.721 111.766 102.833 111.732 102.961C111.711 103.028 111.705 103.099 111.714 103.168C111.724 103.238 111.749 103.305 111.788 103.363C111.827 103.422 111.879 103.471 111.939 103.507C112 103.543 112.067 103.565 112.138 103.572C112.049 103.625 111.978 103.704 111.935 103.798C111.891 103.892 111.877 103.997 111.893 104.099C111.91 104.201 111.953 104.297 112.019 104.377C112.084 104.457 112.169 104.519 112.266 104.556C112.364 104.589 112.468 104.601 112.571 104.593C112.674 104.584 112.774 104.554 112.864 104.504C112.913 104.661 113.015 104.795 113.152 104.885C113.289 104.974 113.454 105.012 113.617 104.993C113.754 104.972 113.88 104.908 113.977 104.809C114.075 104.711 114.138 104.583 114.157 104.446Z" fill="#E15145"/>
<path opacity="0.8" d="M92.0021 118.17C92.642 118.271 93.2974 118.177 93.8827 117.899C94.4679 117.621 94.9556 117.173 95.2819 116.614C97.1276 119.115 100.272 117.012 100.06 114.273C104.047 114.131 103.642 108.433 99.7 108.922C99.9187 105.777 95.7385 104.035 93.6549 106.401C91.4684 104.749 87.6998 105.893 88.4651 108.974C83.4361 109.321 84.7994 115.405 89.449 115.167C89.4577 115.886 89.7176 116.58 90.1838 117.129C90.65 117.677 91.2932 118.046 92.0021 118.17Z" fill="white"/>
<path opacity="0.8" d="M105.842 106.33L105.906 106.26C106.076 106.457 106.299 106.6 106.549 106.674C106.799 106.747 107.065 106.746 107.314 106.671C107.441 106.631 107.558 106.564 107.659 106.476C107.759 106.388 107.84 106.28 107.896 106.16C107.953 106.039 107.984 105.908 107.988 105.775C107.992 105.642 107.968 105.509 107.919 105.385C108.139 105.369 108.351 105.294 108.533 105.168C108.715 105.043 108.86 104.871 108.954 104.671C109.053 104.481 109.081 104.261 109.034 104.052C108.987 103.843 108.867 103.657 108.697 103.527C108.567 103.412 108.415 103.326 108.25 103.275C108.085 103.224 107.91 103.209 107.739 103.231C107.657 102.974 107.517 102.74 107.33 102.547C107.142 102.354 106.912 102.207 106.658 102.118C106.403 102.033 106.132 102.009 105.865 102.045C105.599 102.082 105.344 102.18 105.121 102.33C105.015 102.215 104.883 102.126 104.737 102.069C104.59 102.013 104.433 101.99 104.276 102.004C104.12 102.018 103.969 102.067 103.834 102.148C103.7 102.229 103.586 102.34 103.501 102.472C103.41 102.611 103.354 102.77 103.337 102.936C103.32 103.102 103.343 103.269 103.404 103.424C103.207 103.44 103.022 103.528 102.884 103.669C102.746 103.811 102.663 103.998 102.652 104.195C102.642 104.477 102.733 104.753 102.909 104.974C103.066 105.182 103.295 105.325 103.552 105.372C103.477 105.66 103.511 105.965 103.649 106.228C103.787 106.491 104.019 106.693 104.298 106.794C104.572 106.876 104.865 106.877 105.14 106.794C105.414 106.712 105.658 106.551 105.842 106.33Z" fill="white"/>
<path opacity="0.8" d="M114.157 104.446C114.215 104.275 114.215 104.09 114.157 103.919C114.286 103.935 114.417 103.905 114.526 103.835C114.636 103.764 114.717 103.657 114.755 103.533C114.765 103.456 114.755 103.379 114.727 103.307C114.699 103.235 114.653 103.171 114.594 103.121C114.481 103.018 114.34 102.948 114.189 102.922C114.157 102.919 114.126 102.908 114.099 102.89C114.068 102.859 114.049 102.818 114.048 102.774C114.022 102.639 113.953 102.516 113.852 102.422C113.751 102.329 113.623 102.27 113.486 102.255C113.35 102.24 113.212 102.269 113.093 102.338C112.974 102.408 112.88 102.513 112.826 102.639C112.668 102.553 112.491 102.511 112.311 102.517C112.179 102.517 112.051 102.56 111.946 102.64C111.842 102.721 111.766 102.833 111.732 102.961C111.711 103.028 111.705 103.099 111.714 103.168C111.724 103.238 111.749 103.305 111.788 103.363C111.827 103.422 111.879 103.471 111.939 103.507C112 103.543 112.067 103.565 112.138 103.572C112.049 103.625 111.978 103.704 111.935 103.798C111.891 103.892 111.877 103.997 111.893 104.099C111.91 104.201 111.953 104.297 112.019 104.377C112.084 104.457 112.169 104.519 112.266 104.556C112.364 104.589 112.468 104.601 112.571 104.593C112.674 104.584 112.774 104.554 112.864 104.504C112.913 104.661 113.015 104.795 113.152 104.885C113.289 104.974 113.454 105.012 113.617 104.993C113.754 104.972 113.88 104.908 113.977 104.809C114.075 104.711 114.138 104.583 114.157 104.446Z" fill="white"/>
</svg>
