<svg width="328" height="306" viewBox="0 0 328 306" fill="none" xmlns="http://www.w3.org/2000/svg">
<path d="M164 305.39C254.575 305.39 328 267.801 328 221.432C328 175.063 254.575 137.473 164 137.473C73.4253 137.473 0 175.063 0 221.432C0 267.801 73.4253 305.39 164 305.39Z" fill="#FAFAFA"/>
<path d="M257.495 275.631C282.173 275.631 302.178 263.274 302.178 248.03C302.178 232.786 282.173 220.429 257.495 220.429C232.818 220.429 212.812 232.786 212.812 248.03C212.812 263.274 232.818 275.631 257.495 275.631Z" fill="#E0E0E0"/>
<path d="M151.426 198.503L122.794 181.978C122.319 181.734 121.792 181.607 121.258 181.607C120.724 181.607 120.198 181.734 119.722 181.978L24.8254 236.775C24.6394 236.837 24.4777 236.956 24.3631 237.115C24.2485 237.274 24.1868 237.465 24.1868 237.661C24.1868 237.857 24.2485 238.049 24.3631 238.208C24.4777 238.367 24.6394 238.486 24.8254 238.548L53.4505 255.08C53.9273 255.318 54.4531 255.442 54.9862 255.442C55.5192 255.442 56.045 255.318 56.5219 255.08L64.9802 250.194L142.961 205.292L151.433 200.31C151.624 200.248 151.791 200.127 151.909 199.964C152.027 199.801 152.091 199.605 152.09 199.404C152.089 199.203 152.024 199.007 151.905 198.845C151.786 198.683 151.618 198.563 151.426 198.503Z" fill="#E0E0E0"/>
<path d="M280.136 237.764L275.711 235.415C275.711 235.415 276.144 213.812 280.624 197.081C285.214 179.951 298.571 161.028 311.193 168.119C323.816 175.21 301.381 189.783 294.634 203.849C287.886 217.914 280.136 237.764 280.136 237.764Z" fill="#E15145"/>
<path opacity="0.15" d="M280.136 237.764L275.711 235.415C275.711 235.415 276.144 213.812 280.624 197.081C285.214 179.951 298.571 161.028 311.193 168.119C323.816 175.21 301.381 189.783 294.634 203.849C287.886 217.914 280.136 237.764 280.136 237.764Z" fill="black"/>
<path d="M279.552 232.639C279.493 232.637 279.435 232.624 279.382 232.599C279.328 232.575 279.28 232.541 279.24 232.498C279.2 232.455 279.168 232.405 279.148 232.35C279.127 232.295 279.117 232.237 279.119 232.178C280.067 198.654 294.723 178.185 306.988 170.847C307.09 170.786 307.212 170.768 307.328 170.797C307.443 170.826 307.542 170.899 307.603 171.001C307.664 171.103 307.682 171.225 307.653 171.341C307.624 171.456 307.551 171.555 307.449 171.616C295.376 178.838 280.954 199.039 280.012 232.199C280.011 232.258 279.999 232.317 279.975 232.371C279.951 232.425 279.917 232.474 279.874 232.515C279.831 232.556 279.781 232.588 279.725 232.609C279.67 232.63 279.611 232.64 279.552 232.639Z" fill="white"/>
<path d="M282.135 238.795L278.184 236.768C278.184 236.768 278.672 226.159 286.801 212.334C294.015 200.056 308.637 190.436 314.78 193.865C319.549 196.517 320.648 202.33 316.079 206.199C311.509 210.067 290.415 218.182 282.135 238.795Z" fill="#E15145"/>
<path d="M280.548 235.408C281.235 235.545 281.476 233.848 281.613 233.415C281.874 232.604 282.149 231.807 282.451 231.01C283.043 229.46 283.715 227.942 284.465 226.461C285.908 223.614 287.598 220.899 289.515 218.347C291.307 215.957 293.261 213.694 295.362 211.572C297.259 209.664 299.254 207.856 301.34 206.157C303.085 204.728 304.899 203.374 306.761 202.103C308.136 201.169 309.51 200.276 310.946 199.437C311.695 198.998 312.444 198.565 313.22 198.166L313.44 198.056C313.563 197.996 313.657 197.89 313.702 197.76C313.746 197.631 313.737 197.489 313.677 197.366C313.617 197.243 313.511 197.149 313.381 197.104C313.252 197.06 313.11 197.068 312.987 197.129C312.506 197.362 312.045 197.623 311.612 197.884C310.403 198.572 309.221 199.259 308.06 200.028C306.338 201.141 304.657 202.319 303.017 203.56C300.983 205.099 299.029 206.732 297.156 208.459C295.02 210.415 293.01 212.503 291.136 214.712C289.106 217.093 287.268 219.632 285.64 222.304C283.908 225.133 282.458 228.125 281.311 231.237C281.095 231.837 280.889 232.435 280.692 233.03C280.403 233.625 280.229 234.268 280.177 234.927C280.186 235.031 280.223 235.132 280.285 235.217C280.346 235.301 280.43 235.368 280.527 235.408H280.548Z" fill="white"/>
<path d="M56.3227 218.924C56.3227 218.924 56.4326 205.45 51.135 194.298C45.8373 183.146 37.5508 175.601 29.1474 173.877C20.744 172.152 12.9934 179.092 21.3761 185.558C29.7589 192.023 45.1571 199.506 50.0768 220.449L56.3227 218.924Z" fill="#E15145"/>
<path opacity="0.15" d="M56.3227 218.924C56.3227 218.924 56.4326 205.45 51.135 194.298C45.8373 183.146 37.5508 175.601 29.1474 173.877C20.744 172.152 12.9934 179.092 21.3761 185.558C29.7589 192.023 45.1571 199.506 50.0768 220.449L56.3227 218.924Z" fill="black"/>
<path d="M52.8184 216.595C52.7308 216.595 52.6464 216.561 52.5825 216.501C52.5186 216.441 52.4801 216.359 52.4749 216.272C51.1831 194.703 33.4144 180.679 24.6331 178.288C24.5459 178.264 24.4717 178.206 24.4267 178.128C24.3817 178.049 24.3694 177.956 24.3926 177.869C24.4168 177.78 24.475 177.704 24.5548 177.658C24.6345 177.611 24.7293 177.598 24.8186 177.622C33.7511 180.061 51.8496 194.318 53.162 216.23C53.1641 216.321 53.132 216.408 53.0721 216.476C53.0122 216.544 52.9289 216.586 52.839 216.595H52.8184Z" fill="white"/>
<path d="M57.4083 237.421C59.1105 235.273 60.2527 232.736 60.7324 230.038C61.2121 227.339 61.0143 224.564 60.1567 221.961C59.6579 220.389 58.86 218.929 57.8068 217.66C56.9617 216.663 55.7455 216.148 54.756 215.317C52.626 213.551 50.1524 211.675 49.3828 208.871C48.7644 206.638 48.895 204.522 47.6582 202.426C46.9294 201.114 45.7689 200.094 44.3738 199.54C42.5529 198.853 40.5465 199.307 38.6226 199.54C35.8742 199.85 33.8128 198.901 31.4354 197.637C28.8175 196.263 25.7599 195.177 22.9221 196.022C21.9992 196.296 21.144 196.76 20.412 197.385C19.68 198.01 19.0875 198.782 18.673 199.651C18.2584 200.52 18.0309 201.466 18.0054 202.428C17.9798 203.39 18.1567 204.347 18.5246 205.237C19.1567 206.776 20.3248 208.026 21.1837 209.455C22.0426 210.885 22.4961 212.52 21.8708 214.08C21.3898 215.234 20.4966 216.141 20.1393 217.316C19.1224 220.408 19.6927 223.156 22.7641 224.751C25.9729 226.393 31.0094 225.156 32.6173 229.189C33.2219 230.722 33.2425 232.419 33.5723 234.033C34.2493 237.283 36.1387 240.153 38.8562 242.059C42.546 244.622 47.5551 243.997 51.3823 242.21C53.7336 241.1 55.7961 239.461 57.4083 237.421Z" fill="#E15145"/>
<path d="M28.4809 217.907C28.556 217.92 28.6332 217.908 28.7008 217.873C31.4071 216.826 34.3114 216.392 37.2054 216.601C40.0993 216.811 42.911 217.658 45.4389 219.082C45.5255 219.128 45.6269 219.138 45.7209 219.11C45.8149 219.082 45.8939 219.017 45.9405 218.931C45.9646 218.888 45.98 218.842 45.9858 218.794C45.9916 218.745 45.9876 218.696 45.9742 218.649C45.9607 218.603 45.938 218.559 45.9075 218.521C45.8769 218.483 45.839 218.452 45.7962 218.429C43.1699 216.954 40.2495 216.08 37.2448 215.868C34.2402 215.657 31.226 216.114 28.4191 217.206C28.3531 217.242 28.2997 217.298 28.2659 217.365C28.2321 217.432 28.2196 217.508 28.2301 217.583C28.2405 217.657 28.2734 217.727 28.3243 217.782C28.3753 217.838 28.4419 217.877 28.5153 217.893L28.4809 217.907Z" fill="white"/>
<path d="M52.4748 237.538C52.3849 237.54 52.2978 237.506 52.2322 237.444C52.1667 237.383 52.128 237.298 52.1244 237.208C51.4854 221.679 35.8948 205.257 25.4438 200.791C25.4016 200.774 25.3633 200.748 25.331 200.716C25.2988 200.684 25.2733 200.645 25.256 200.603C25.2387 200.561 25.2301 200.516 25.2305 200.47C25.2308 200.424 25.2403 200.379 25.2583 200.337C25.2959 200.253 25.3654 200.187 25.4517 200.153C25.5379 200.12 25.6339 200.122 25.7187 200.159C36.3346 204.708 52.1656 221.404 52.8184 237.194C52.8202 237.24 52.813 237.286 52.797 237.329C52.7811 237.373 52.7568 237.412 52.7256 237.446C52.6943 237.48 52.6566 237.507 52.6148 237.527C52.573 237.546 52.5277 237.557 52.4817 237.558L52.4748 237.538Z" fill="white"/>
<path d="M138.529 15.6485L60.7613 60.5307C59.9912 61.0334 59.3512 61.7114 58.8938 62.5093C58.4363 63.3071 58.1745 64.202 58.1297 65.1206V248.257C58.1297 249.933 59.3115 250.613 60.7613 249.768L138.529 204.872C139.294 204.371 139.93 203.697 140.387 202.904C140.844 202.112 141.109 201.223 141.16 200.31V17.1464C141.16 15.4698 139.979 14.7827 138.529 15.6485ZM137.374 186.739C137.374 188.176 136.364 189.089 135.121 189.804L63.9083 230.935C62.6715 231.622 61.6546 231.072 61.6546 229.629V77.3306C61.6548 76.5431 61.8627 75.7696 62.2572 75.088C62.6516 74.4064 63.2188 73.8409 63.9014 73.4484L135.114 32.3109C135.342 32.1782 135.602 32.108 135.866 32.1074C136.13 32.1067 136.39 32.1757 136.619 32.3073C136.848 32.439 137.039 32.6286 137.171 32.8572C137.304 33.0858 137.374 33.3453 137.374 33.6096V186.739Z" fill="#455A64"/>
<path d="M137.374 186.739C137.374 188.176 136.364 189.089 135.121 189.804L63.9083 230.935C62.6715 231.622 61.6546 231.072 61.6546 229.629V77.3306C61.6549 76.5431 61.8627 75.7696 62.2572 75.088C62.6516 74.4065 63.2188 73.8409 63.9014 73.4484L135.114 32.311C135.342 32.1782 135.602 32.108 135.866 32.1074C136.13 32.1067 136.39 32.1757 136.619 32.3073C136.848 32.439 137.039 32.6286 137.171 32.8572C137.304 33.0858 137.374 33.3453 137.374 33.6096V186.739Z" fill="#263238"/>
<path d="M63.9083 230.935L135.121 189.818C135.621 189.548 136.083 189.213 136.495 188.821L61.6546 146.674V229.629C61.6546 231.072 62.6715 231.649 63.9083 230.935Z" fill="#37474F"/>
<path d="M131.61 184.067V34.338L63.9014 73.4484C63.2188 73.8409 62.6516 74.4065 62.2572 75.088C61.8627 75.7696 61.6549 76.5431 61.6546 77.3306V226.221L129.356 187.131C130.599 186.417 131.61 185.503 131.61 184.067Z" fill="#E15145"/>
<path d="M60.4315 249.954C59.6462 250.285 58.7984 250.442 57.9466 250.413C57.0949 250.385 56.2594 250.172 55.498 249.789L52.4885 248.051C51.7205 247.553 51.0811 246.881 50.6225 246.089C50.1639 245.298 49.8992 244.409 49.85 243.495V60.3108C49.8673 59.6319 50.0215 58.9635 50.3035 58.3457C50.3997 58.1327 50.5027 57.9265 50.6195 57.7135L58.8649 62.5233C58.6916 62.8331 58.54 63.1545 58.4114 63.4853C58.2112 64.0056 58.102 64.5564 58.0884 65.1137V248.257C58.1297 249.803 59.1329 250.504 60.4315 249.954Z" fill="#263238"/>
<path d="M101.967 213.056C103.651 213.056 103.83 214.945 103.83 215.756C103.729 217.381 103.253 218.96 102.438 220.369C101.624 221.778 100.494 222.979 99.1365 223.878C98.5919 224.224 97.9669 224.423 97.3225 224.455C95.6391 224.455 95.4605 222.566 95.4605 221.755C95.5619 220.13 96.0377 218.551 96.8506 217.141C97.6635 215.731 98.7916 214.528 100.147 213.626C100.696 213.286 101.322 213.09 101.967 213.056Z" fill="#E15145"/>
<path d="M99.59 41.0098C100.277 40.5975 100.875 40.9273 100.875 41.7519C100.85 42.1976 100.721 42.6313 100.498 43.018C100.274 43.4047 99.9635 43.7335 99.59 43.9781C98.9029 44.3835 98.2983 44.0537 98.2983 43.236C98.3218 42.7892 98.4512 42.3543 98.6758 41.9672C98.9004 41.5801 99.2137 41.252 99.59 41.0098Z" fill="#263238"/>
<path d="M91.2897 51.8593C91.9219 51.4951 92.4303 51.7906 92.4303 52.5464C92.4094 52.9418 92.2951 53.3267 92.0969 53.6694C91.8986 54.0122 91.622 54.3031 91.2897 54.5184C90.6576 54.8826 90.1491 54.5871 90.1491 53.8313C90.1712 53.4362 90.2859 53.0518 90.484 52.7092C90.6822 52.3666 90.9582 52.0754 91.2897 51.8593Z" fill="#263238"/>
<path d="M95.1032 49.6056L107.877 42.2329C108.564 41.8275 109.141 42.1161 109.141 42.8719C109.107 43.2963 108.976 43.7072 108.756 44.0721C108.537 44.4369 108.236 44.7459 107.877 44.9745L95.1032 52.3472C94.4161 52.7526 93.8389 52.464 93.8389 51.7082C93.8724 51.2837 94.004 50.8728 94.2234 50.508C94.4428 50.1431 94.744 49.8342 95.1032 49.6056Z" fill="#263238"/>
<path d="M141.133 16.7273C140.94 15.353 139.848 14.8652 138.536 15.6279L60.7545 60.5307C59.9762 61.0138 59.3369 61.691 58.8993 62.4958L50.6539 57.686C51.0983 56.8876 51.7393 56.2159 52.516 55.7346L130.249 10.8387C131.065 10.4252 131.966 10.2097 132.881 10.2097C133.795 10.2097 134.697 10.4252 135.512 10.8387L138.536 12.5702C139.24 13.0376 139.836 13.6504 140.284 14.3674C140.732 15.0845 141.022 15.8891 141.133 16.7273Z" fill="#37474F"/>
<path d="M120.733 22.286C120.329 22.5016 119.88 22.6183 119.423 22.6267C118.965 22.6351 118.512 22.5348 118.101 22.3341C117.963 22.2754 117.844 22.1805 117.756 22.0596C117.667 21.9386 117.613 21.7961 117.599 21.647C117.599 21.4546 117.599 20.74 117.599 20.5407C117.621 20.3693 117.687 20.2064 117.791 20.068C117.894 19.9295 118.032 19.8202 118.19 19.7506L126.525 14.9408C126.93 14.7267 127.38 14.6109 127.838 14.6025C128.297 14.5942 128.751 14.6935 129.163 14.8927C129.299 14.9542 129.415 15.0499 129.502 15.1704C129.589 15.291 129.643 15.4321 129.658 15.5798C129.658 15.779 129.658 16.5211 129.658 16.7135C129.637 16.886 129.571 17.05 129.467 17.1896C129.364 17.3292 129.226 17.4398 129.067 17.5106L120.733 22.286Z" fill="#E15145"/>
<path opacity="0.25" d="M120.733 22.286C120.329 22.5016 119.88 22.6183 119.423 22.6267C118.965 22.6351 118.512 22.5348 118.101 22.3341C117.963 22.2754 117.844 22.1805 117.756 22.0596C117.667 21.9386 117.613 21.7961 117.599 21.647C117.599 21.4546 117.599 20.74 117.599 20.5407C117.621 20.3693 117.687 20.2064 117.791 20.068C117.894 19.9295 118.032 19.8202 118.19 19.7506L126.525 14.9408C126.93 14.7267 127.38 14.6109 127.838 14.6025C128.297 14.5942 128.751 14.6935 129.163 14.8927C129.299 14.9542 129.415 15.0499 129.502 15.1704C129.589 15.291 129.643 15.4321 129.658 15.5798C129.658 15.779 129.658 16.5211 129.658 16.7135C129.637 16.886 129.571 17.05 129.467 17.1896C129.364 17.3292 129.226 17.4398 129.067 17.5106L120.733 22.286Z" fill="black"/>
<path d="M120.733 21.1935L129.067 16.3837C129.823 15.944 129.857 15.2637 129.157 14.8583C128.744 14.6592 128.29 14.5598 127.832 14.5682C127.373 14.5765 126.923 14.6924 126.518 14.9064L118.183 19.7162C117.434 20.1491 117.393 20.8293 118.101 21.2347C118.512 21.4349 118.964 21.5354 119.422 21.5282C119.879 21.5211 120.328 21.4064 120.733 21.1935Z" fill="#E15145"/>
<path opacity="0.3" d="M120.733 21.1935L129.067 16.3837C129.823 15.944 129.857 15.2637 129.157 14.8583C128.744 14.6592 128.29 14.5598 127.832 14.5682C127.373 14.5765 126.923 14.6924 126.518 14.9064L118.183 19.7162C117.434 20.1491 117.393 20.8293 118.101 21.2347C118.512 21.4349 118.964 21.5354 119.422 21.5282C119.879 21.5211 120.328 21.4064 120.733 21.1935Z" fill="black"/>
<path d="M55.0582 87.9121C55.0419 87.4548 54.9177 87.0079 54.6955 86.6078C54.4734 86.2077 54.1597 85.8659 53.7802 85.6103C53.6559 85.5185 53.5085 85.4628 53.3545 85.4495C53.2005 85.4361 53.0459 85.4656 52.9076 85.5347C52.7495 85.6309 52.1174 85.9813 51.9525 86.0844C51.8145 86.1889 51.7059 86.3274 51.6373 86.4864C51.5686 86.6453 51.5423 86.8193 51.5608 86.9914V107.412C51.5774 107.869 51.7011 108.315 51.9219 108.715C52.1428 109.115 52.4545 109.457 52.832 109.714C52.9562 109.798 53.0998 109.848 53.249 109.86C53.3982 109.872 53.548 109.846 53.684 109.783C53.8627 109.694 54.5017 109.323 54.6734 109.219C54.8114 109.115 54.92 108.976 54.9887 108.818C55.0573 108.659 55.0836 108.485 55.0651 108.312L55.0582 87.9121Z" fill="#E15145"/>
<path opacity="0.3" d="M55.0582 87.9121C55.0419 87.4548 54.9177 87.0079 54.6955 86.6078C54.4734 86.2077 54.1597 85.8659 53.7802 85.6103C53.6559 85.5185 53.5085 85.4628 53.3545 85.4495C53.2005 85.4361 53.0459 85.4656 52.9076 85.5347C52.7495 85.6309 52.1174 85.9813 51.9525 86.0844C51.8145 86.1889 51.7059 86.3274 51.6373 86.4864C51.5686 86.6453 51.5423 86.8193 51.5608 86.9914V107.412C51.5774 107.869 51.7011 108.315 51.9219 108.715C52.1428 109.115 52.4545 109.457 52.832 109.714C52.9562 109.798 53.0998 109.848 53.249 109.86C53.3982 109.872 53.548 109.846 53.684 109.783C53.8627 109.694 54.5017 109.323 54.6734 109.219C54.8114 109.115 54.92 108.976 54.9887 108.818C55.0573 108.659 55.0836 108.485 55.0651 108.312L55.0582 87.9121Z" fill="black"/>
<path d="M54.1101 88.4824V108.903C54.1101 109.769 53.5398 110.14 52.832 109.735C52.4545 109.478 52.1428 109.135 51.922 108.735C51.7012 108.336 51.5775 107.889 51.5609 107.433V86.9914C51.5609 86.1187 52.1312 85.7477 52.832 86.1531C53.2145 86.4122 53.5298 86.7586 53.752 87.1636C53.9742 87.5686 54.097 88.0206 54.1101 88.4824Z" fill="#E15145"/>
<path opacity="0.4" d="M54.1101 88.4824V108.903C54.1101 109.769 53.5398 110.14 52.832 109.735C52.4545 109.478 52.1428 109.135 51.922 108.735C51.7012 108.336 51.5775 107.889 51.5609 107.433V86.9914C51.5609 86.1187 52.1312 85.7477 52.832 86.1531C53.2145 86.4122 53.5298 86.7586 53.752 87.1636C53.9742 87.5686 54.097 88.0206 54.1101 88.4824Z" fill="black"/>
<path d="M55.0582 115.28C55.042 114.822 54.9177 114.376 54.6955 113.975C54.4734 113.575 54.1598 113.234 53.7802 112.978C53.6559 112.886 53.5086 112.83 53.3546 112.817C53.2006 112.804 53.0459 112.833 52.9076 112.902C52.7495 112.999 52.1174 113.349 51.9525 113.452C51.8145 113.557 51.7059 113.695 51.6373 113.854C51.5687 114.013 51.5423 114.187 51.5608 114.359V123.979C51.5785 124.434 51.7027 124.879 51.9235 125.277C52.1442 125.676 52.4554 126.017 52.832 126.274C52.9521 126.362 53.0938 126.418 53.2424 126.433C53.391 126.449 53.5411 126.425 53.6771 126.363C53.8558 126.274 54.4948 125.903 54.6666 125.799C54.804 125.696 54.9123 125.559 54.981 125.401C55.0496 125.243 55.0762 125.07 55.0582 124.899V115.28Z" fill="#E15145"/>
<path opacity="0.3" d="M55.0582 115.28C55.042 114.822 54.9177 114.376 54.6955 113.975C54.4734 113.575 54.1598 113.234 53.7802 112.978C53.6559 112.886 53.5086 112.83 53.3546 112.817C53.2006 112.804 53.0459 112.833 52.9076 112.902C52.7495 112.999 52.1174 113.349 51.9525 113.452C51.8145 113.557 51.7059 113.695 51.6373 113.854C51.5687 114.013 51.5423 114.187 51.5608 114.359V123.979C51.5785 124.434 51.7027 124.879 51.9235 125.277C52.1442 125.676 52.4554 126.017 52.832 126.274C52.9521 126.362 53.0938 126.418 53.2424 126.433C53.391 126.449 53.5411 126.425 53.6771 126.363C53.8558 126.274 54.4948 125.903 54.6666 125.799C54.804 125.696 54.9123 125.559 54.981 125.401C55.0496 125.243 55.0762 125.07 55.0582 124.899V115.28Z" fill="black"/>
<path d="M54.1101 115.795V125.415C54.1101 126.28 53.5398 126.658 52.832 126.246C52.4545 125.989 52.1428 125.647 51.922 125.247C51.7012 124.847 51.5775 124.401 51.5609 123.944V114.325C51.5609 113.459 52.1312 113.081 52.832 113.486C53.2109 113.744 53.524 114.088 53.746 114.489C53.968 114.89 54.0927 115.337 54.1101 115.795Z" fill="#E15145"/>
<path opacity="0.4" d="M54.1101 115.795V125.415C54.1101 126.28 53.5398 126.658 52.832 126.246C52.4545 125.989 52.1428 125.647 51.922 125.247C51.7012 124.847 51.5775 124.401 51.5609 123.944V114.325C51.5609 113.459 52.1312 113.081 52.832 113.486C53.2109 113.744 53.524 114.088 53.746 114.489C53.968 114.89 54.0927 115.337 54.1101 115.795Z" fill="black"/>
<path d="M77.8292 98.2325C77.8975 98.5661 77.9893 98.8945 78.104 99.2151C78.5507 100.424 79.3546 101.565 79.2859 102.857C79.2103 104.313 78.0628 105.44 77.1833 106.602C76.0403 108.137 75.2785 109.922 74.9608 111.809C74.643 113.697 74.7783 115.633 75.3556 117.458C76.2004 119.681 77.3722 121.765 78.8324 123.642L82.1511 128.349C83.1546 129.667 84.4354 130.748 85.9028 131.516C88.7545 133.128 91.9364 134.068 95.2063 134.265C100.581 134.627 105.927 133.226 110.433 130.273C115.208 127.112 113.106 119.004 117.991 116.042C123.9 112.469 126.717 100.06 119.475 94.8794C119.475 94.8794 120.643 87.28 118.499 85.3423C116.363 83.5546 113.719 82.4827 110.941 82.2778C107.107 81.8793 103.266 82.6282 99.4389 82.6145C95.499 82.6018 91.5626 82.8473 87.6549 83.3497C86.2807 83.5352 84.343 84.0368 83.6009 85.3767C83.3914 85.9022 83.3343 86.4761 83.436 87.0326C83.4254 87.9155 83.1098 88.7675 82.5428 89.4444C81.6908 90.475 80.4814 91.169 79.5745 92.1378C78.826 92.9457 78.2781 93.9183 77.9749 94.977C77.6717 96.0358 77.6218 97.1509 77.8292 98.2325Z" fill="#263238"/>
<path d="M115.964 109.199C122.148 109.371 122.952 110.69 128.49 116.173C133.094 120.729 148.348 134.808 148.348 134.808L166.625 139.672L162.31 150.824C162.31 150.824 158.187 150.652 149.942 150.645C144.878 150.645 143.119 149.512 138.02 146.111C135.423 144.372 120.767 134.78 120.767 134.78L115.964 109.199Z" fill="#E6E6E6"/>
<path d="M186.847 117.121L153.35 128.926L144.115 168.778L144.864 169.575L176.712 157.695L187.589 117.918L186.847 117.121Z" fill="#E15145"/>
<path opacity="0.35" d="M154.092 129.723L144.864 169.575L144.115 168.778L153.35 128.926L154.092 129.723Z" fill="black"/>
<path opacity="0.25" d="M187.589 117.918L154.092 129.723L144.864 169.575L176.712 157.695L187.589 117.918Z" fill="black"/>
<g opacity="0.2">
<path d="M171.73 149.587C172.039 150.371 174.609 152.095 178.326 151.786L178.952 149.491L171.73 149.587Z" fill="black"/>
</g>
<g opacity="0.1">
<path d="M177.502 126.081L177.777 124.741C177.928 124.006 175.963 124.391 173.386 125.607L167.339 127.435C164.763 128.651 162.33 129.558 162.172 130.293L161.897 131.626L177.502 126.081Z" fill="black"/>
</g>
<path d="M179.494 120.035C179.591 119.574 178.807 119.67 177.756 119.952L175.825 120.605C175.825 120.605 176.615 118.667 172.046 119.918C167.023 121.292 166.913 123.786 166.913 123.786C166.128 124.127 165.322 124.421 164.502 124.666C162.832 125.209 162.653 125.532 162.516 125.999L162.268 126.844L179.343 120.839C179.343 120.839 179.426 120.495 179.494 120.035Z" fill="#37474F"/>
<path d="M177.694 122.598C176.114 123.285 175.461 123.663 175.221 124.803C174.953 126.102 174.898 126.645 174.898 126.645L166.006 130.149C166.006 130.149 166.487 128.232 166.604 127.593C166.721 126.954 165.546 126.954 164.007 127.662L164.371 126.067L178.203 120.935L177.694 122.598Z" fill="#37474F"/>
<path d="M177.955 126.102C177.955 126.102 178.086 125.504 178.237 124.762C178.388 124.02 176.423 124.412 173.846 125.628L167.8 127.455C165.223 128.672 162.784 129.579 162.633 130.314L162.358 131.688L177.955 126.102Z" fill="#37474F"/>
<path d="M183.864 131.551C183.864 131.551 182.676 135.921 182.36 137.048C182.044 138.174 176.56 140.682 173.819 141.026C168.569 141.679 167.972 142.812 169.229 146.523C170.397 149.958 173.812 151.264 178.553 150.707C180.779 150.446 183.851 148.474 185.06 145.032C186.599 140.634 185.747 135.941 186.386 133.351C187.025 130.76 185.197 130.018 183.864 131.551Z" fill="#FFA8A7"/>
<path d="M131.96 191.645L128.408 193.707L126.917 194.566L107.375 205.841L104.709 207.353L100.208 209.95L101.583 195.926L104.207 168.771V168.49L104.331 167.274L107.767 131.77L109.271 116.235L109.801 110.662L109.979 108.862H110.075C111.667 108.42 113.349 108.42 114.94 108.862C115.295 108.97 115.64 109.108 115.971 109.274C118.032 110.298 119.406 112.291 120.547 114.387C120.827 114.897 121.08 115.422 121.303 115.96C122.15 117.997 122.803 120.109 123.254 122.268C124.154 126.253 125.316 130.328 125.776 136.752C125.848 138.406 125.761 140.062 125.515 141.699C125.205 146.03 125.152 150.376 125.357 154.713C125.934 164.539 128.408 168.991 131.96 191.645Z" fill="#E0E0E0"/>
<path d="M126.917 194.552L107.375 205.827L104.709 207.353L100.208 209.95L97.1096 211.737L78.2965 222.593C78.4957 215.035 78.585 206.838 78.4064 199.094C78.3514 196.503 78.3308 193.858 78.4407 191.151C78.798 181.751 80.5845 171.671 86.9884 161.062L87.2839 160.526C88.0397 165.013 94.9108 167.926 101.095 168.613L101.782 168.675C102.558 168.751 103.362 168.785 104.194 168.785H104.716C109.945 168.737 116.136 167.507 123.268 165.095C123.955 169.081 124.642 174.31 125.377 180.425C125.707 183.173 126.042 186.103 126.381 189.213C126.518 190.951 126.731 192.731 126.917 194.552Z" fill="#FFA8A7"/>
<path d="M128.408 193.693L126.917 194.552L107.375 205.827L104.709 207.353L100.208 209.95L97.1096 211.737L78.2965 222.593L76.2351 223.782C76.3382 215.646 76.4069 207.676 76.4 202.674C76.4 198.022 76.5031 193.885 76.7573 190.216C77.2589 182.974 78.3033 177.525 80.0486 173.403C82.0964 168.89 84.5189 164.558 87.2908 160.451C87.2908 160.451 89.0085 166.25 101.858 167.164H101.94C102.696 167.219 103.493 167.253 104.331 167.267H105.307C121.303 167.267 123.069 163.233 123.069 163.233C124.631 169.164 125.868 175.176 126.772 181.243C127.111 183.386 127.439 185.677 127.755 188.114C127.988 189.9 128.208 191.755 128.408 193.693Z" fill="#E15145"/>
<path opacity="0.4" d="M128.408 193.693L126.917 194.552L107.375 205.827L104.709 207.353L100.208 209.95L97.1096 211.737L78.2965 222.593L76.2351 223.782C76.3382 215.646 76.4069 207.676 76.4 202.674C76.4 198.022 76.5031 193.885 76.7573 190.216C77.2589 182.974 78.3033 177.525 80.0486 173.403C82.0964 168.89 84.5189 164.558 87.2908 160.451C87.2908 160.451 89.0085 166.25 101.858 167.164H101.94C102.696 167.219 103.493 167.253 104.331 167.267H105.307C121.303 167.267 123.069 163.233 123.069 163.233C124.631 169.164 125.868 175.176 126.772 181.243C127.111 183.386 127.439 185.677 127.755 188.114C127.988 189.9 128.208 191.755 128.408 193.693Z" fill="black"/>
<path opacity="0.2" d="M119.235 184.575C119.235 184.575 117.448 190.251 109.931 193.432L109.574 195.17L107.375 205.827L104.709 207.353L106.303 195.596L106.99 190.484C111.636 190.002 115.967 187.912 119.235 184.575Z" fill="black"/>
<path d="M96.3744 110.504L88.8161 111.301C83.814 112.524 81.5534 114.737 81.038 119.155C80.7975 121.216 79.5539 126.713 81.2991 133.584C82.8795 139.823 87.0984 155.091 87.0984 155.091C87.0984 155.091 77.3895 167.761 75.6305 189.488C93.3992 201.086 120.657 194.854 128.03 187.846C127.411 181.208 123.172 162.993 122.643 157.077C122.643 157.077 123.034 147.835 123.77 143.829C129.39 137.693 128.676 131.825 126.154 127.091C121.495 118.351 114.473 110.669 112.199 110.676L96.3744 110.504Z" fill="#E15145"/>
<path opacity="0.7" d="M96.3744 110.504L88.8161 111.301C83.814 112.524 81.5534 114.737 81.038 119.155C80.7975 121.216 79.5539 126.713 81.2991 133.584C82.8795 139.823 87.0984 155.091 87.0984 155.091C87.0984 155.091 77.3895 167.761 75.6305 189.488C93.3992 201.086 120.657 194.854 128.03 187.846C127.411 181.208 123.172 162.993 122.643 157.077C122.643 157.077 123.034 147.835 123.77 143.829C129.39 137.693 128.676 131.825 126.154 127.091C121.495 118.351 114.473 110.669 112.199 110.676L96.3744 110.504Z" fill="white"/>
<path d="M102.923 157.812C102.923 157.949 102.923 158.073 102.923 158.176V158.355C102.927 158.412 102.927 158.469 102.923 158.527C102.661 161.275 102.352 164.195 102.022 167.171C102.022 167.171 102.022 167.171 102.022 167.212C101.974 167.693 101.919 168.174 101.864 168.662C100.854 177.628 99.6519 187.214 98.7243 195.94C98.4975 198.056 98.2914 200.118 98.1059 202.124C97.8173 205.127 97.5081 208.418 97.192 211.744L78.3789 222.6L76.3176 223.789L71.0611 226.819C72.1193 216.409 74.586 192.291 75.9603 181.407C76.1183 180.178 76.3244 178.948 76.558 177.725L76.7436 176.831L76.826 176.467C76.9153 176.055 77.0047 175.656 77.1009 175.251C77.1971 174.846 77.2864 174.502 77.3757 174.138C77.5887 173.306 77.8155 172.489 78.0628 171.692C78.1796 171.307 78.2896 170.922 78.4132 170.544C78.5369 170.166 78.64 169.788 78.7637 169.417C79.011 168.675 79.2515 167.947 79.5058 167.239C79.5028 167.226 79.5028 167.212 79.5058 167.198C79.6226 166.861 79.7462 166.511 79.8699 166.195C80.0348 165.728 80.2066 165.274 80.3784 164.821L80.5845 164.278C80.6876 164.03 80.7769 163.79 80.8731 163.549C81.2098 162.704 81.5602 161.9 81.8694 161.151C81.9381 160.987 82.0137 160.822 82.0824 160.664C82.1511 160.506 82.2611 160.272 82.3435 160.08C82.5497 159.599 82.7558 159.152 82.9551 158.705C83.0375 158.513 83.1268 158.327 83.2093 158.149C83.2917 157.97 83.4086 157.736 83.4979 157.544L83.6284 157.269L83.7659 157.001C83.7748 156.966 83.7912 156.933 83.814 156.905C83.8327 156.855 83.8557 156.807 83.8827 156.761C83.8993 156.73 83.9131 156.698 83.9239 156.665C83.9811 156.567 84.0316 156.466 84.075 156.362L84.5354 155.469C84.5354 155.421 84.5835 155.387 84.5973 155.345L84.7759 155.015L79.0591 131.31L76.2145 119.533V119.341C76.345 118.296 77.2177 113.37 82.2473 111.872C85.0869 111.139 87.9956 110.706 90.9256 110.58C92.0524 110.511 93.0694 110.484 93.9008 110.463H95.2131H96.0033C96.0051 110.479 96.0051 110.495 96.0033 110.511C96.0445 110.614 96.1614 110.923 96.34 111.404C96.3593 111.485 96.387 111.563 96.4225 111.638C96.4231 111.65 96.4231 111.661 96.4225 111.672C97.6593 115.067 101.129 124.947 102.854 133.529C103.156 135.014 103.404 136.463 103.582 137.838C104.098 142.132 103.72 149.319 102.923 157.812Z" fill="#FAFAFA"/>
<path d="M84.9615 143.664C84.9615 143.664 85.6486 140.277 86.6587 132.959C87.8336 124.521 87.4145 120.351 86.1433 117.685L78.9767 131.351L84.6935 155.057C84.6935 155.057 78.8187 165.817 76.4482 177.731C82.0687 161.852 88.2184 157.118 88.2184 157.118L84.9615 143.664Z" fill="#E6E6E6"/>
<path d="M110.069 105.214C112.295 105.214 112.556 105.585 114.473 108.154C115.614 109.687 122.835 121.608 122.835 121.608C122.835 121.608 117.091 114.05 112.755 111.755C111.92 111.266 111.017 110.904 110.075 110.683L110.069 105.214Z" fill="#EBEBEB"/>
<path d="M93.6053 130.547C93.6053 129.86 93.5366 128.376 93.4198 126.507C92.8495 117.341 92.5747 109.096 95.6667 108.409L95.9346 109.673C93.6809 110.161 94.423 121.959 94.7047 126.397C94.8284 128.307 94.9246 129.833 94.8902 130.575L93.6053 130.547Z" fill="#E15145"/>
<path d="M83.2987 70.535L88.1084 74.4722C88.3699 74.1729 88.5676 73.8234 88.6893 73.4451C88.811 73.0667 88.8541 72.6675 88.8162 72.2719C88.7782 71.8763 88.6599 71.4927 88.4685 71.1444C88.2771 70.7961 88.0166 70.4905 87.703 70.2464C87.0707 69.7235 86.2623 69.4621 85.4435 69.5157C84.6247 69.5694 83.8574 69.934 83.2987 70.535Z" fill="#263238"/>
<path d="M95.859 105.798C95.859 102.781 88.8299 98.2394 85.2019 91.8973C81.574 85.5553 83.388 75.1249 88.3626 73.524C88.4039 73.524 88.5413 72.1841 88.5619 72.0879C88.837 70.8777 89.3007 69.7184 89.9361 68.6523C91.9631 65.1618 96.2576 62.4683 100.243 61.9049C115.998 59.6099 123.24 65.7321 126.133 72.4658C127.071 74.731 127.489 77.1775 127.356 79.6255C127.275 81.4234 126.608 83.1455 125.457 84.5288C124.305 85.9121 122.733 86.8807 120.98 87.2868L95.859 105.798Z" fill="#263238"/>
<path d="M117.716 70.2121C120.801 71.5863 123.735 76.2793 123.687 89.4856C123.646 100.686 120.21 103.516 118.479 104.348C116.747 105.179 113.36 104.753 110.069 104.252V110.683C110.069 110.683 112.535 113.108 111.67 114.634C110.804 116.159 107.609 117.451 102.641 115.891C97.0134 114.125 95.7285 110.394 95.7285 110.394L95.5979 96.2811C95.5979 96.2811 93.7084 98.2669 90.3759 95.3535C87.6274 92.9417 86.638 88.8122 88.7062 86.5447C90.7744 84.2772 93.4267 84.0986 95.8178 86.634L97.5356 85.7271C100.6 85.3698 105.094 84.8544 108.406 83.1847C116.898 78.8628 117.778 74.1767 117.716 70.2121Z" fill="#FFA8A7"/>
<path d="M95.866 84.8063L95.9072 90.9903C96.3043 91.0009 96.6994 90.9301 97.0682 90.7823C97.4369 90.6345 97.7716 90.4129 98.0515 90.131C98.3315 89.8491 98.5508 89.513 98.696 89.1432C98.8413 88.7734 98.9094 88.3779 98.8961 87.9808C98.8887 87.1658 98.5713 86.3841 98.0086 85.7946C97.4458 85.205 96.6798 84.8517 95.866 84.8063Z" fill="#263238"/>
<path d="M118.005 85.6859C118.008 85.9764 118.096 86.2597 118.258 86.5007C118.421 86.7416 118.65 86.9296 118.918 87.0412C119.187 87.1529 119.482 87.1834 119.767 87.1289C120.053 87.0744 120.316 86.9374 120.524 86.7347C120.732 86.532 120.876 86.2727 120.939 85.9889C121.001 85.7051 120.978 85.4092 120.874 85.138C120.77 84.8669 120.588 84.6323 120.351 84.4634C120.115 84.2945 119.834 84.1987 119.544 84.188C119.344 84.1834 119.145 84.2187 118.959 84.2919C118.773 84.365 118.603 84.4745 118.46 84.614C118.317 84.7534 118.203 84.92 118.124 85.1041C118.046 85.2881 118.006 85.4859 118.005 85.6859Z" fill="black"/>
<path d="M106.152 86.3455C106.14 86.5585 106.17 86.7718 106.241 86.9732C106.311 87.1745 106.421 87.36 106.563 87.519C106.705 87.6779 106.878 87.8072 107.07 87.8994C107.263 87.9916 107.471 88.045 107.684 88.0564C107.901 88.0582 108.115 88.0173 108.315 87.936C108.516 87.8547 108.698 87.7347 108.852 87.5827C109.006 87.4308 109.128 87.2499 109.212 87.0506C109.296 86.8512 109.339 86.6373 109.34 86.4211C109.347 86.2117 109.312 86.0031 109.239 85.8071C109.165 85.6111 109.053 85.4316 108.91 85.2788C108.767 85.126 108.595 85.0029 108.404 84.9165C108.213 84.8301 108.007 84.7822 107.798 84.7754C107.588 84.7687 107.38 84.8032 107.184 84.8771C106.988 84.9509 106.808 85.0627 106.655 85.2059C106.503 85.3491 106.379 85.5211 106.293 85.7119C106.207 85.9027 106.159 86.1087 106.152 86.318V86.3455Z" fill="black"/>
<path d="M121.935 82.9168L118.108 81.3983C118.196 81.1408 118.337 80.9043 118.521 80.7037C118.705 80.5031 118.929 80.3426 119.178 80.2323C119.427 80.1221 119.696 80.0643 119.968 80.0628C120.24 80.0612 120.51 80.1159 120.76 80.2233C121.264 80.4355 121.668 80.8336 121.886 81.335C122.105 81.8365 122.123 82.4029 121.935 82.9168Z" fill="black"/>
<path d="M114.377 84.4765L114.184 93.6426L119.111 92.5501L114.377 84.4765Z" fill="#F28F8F"/>
<path d="M108.571 95.5116L113.38 97.0026C113.31 97.3305 113.174 97.6405 112.979 97.9134C112.784 98.1862 112.535 98.4161 112.248 98.5888C111.961 98.7615 111.641 98.8733 111.308 98.9172C110.976 98.9611 110.638 98.9362 110.316 98.8441C109.656 98.6146 109.108 98.1422 108.784 97.5232C108.46 96.9041 108.383 96.1848 108.571 95.5116Z" fill="#B16668"/>
<path d="M111.23 98.9265C111.224 98.2577 110.955 97.618 110.48 97.147C110.005 96.676 109.363 96.4117 108.694 96.4117C108.628 96.4083 108.561 96.4083 108.495 96.4117C108.52 96.9485 108.705 97.4656 109.027 97.8957C109.35 98.3258 109.794 98.649 110.302 98.8235C110.601 98.922 110.917 98.9571 111.23 98.9265Z" fill="#F28F8F"/>
<path d="M110.069 104.286C106.599 103.874 99.4458 101.881 98.2845 98.9746C98.7498 100.434 99.6427 101.719 100.847 102.664C103.005 104.52 110.069 106.45 110.069 106.45V104.286Z" fill="#F28F8F"/>
<path d="M95.6941 105.248C94.7871 105.062 93.9832 105.461 93.2411 106.712C92.4991 107.962 90.8706 110.628 90.8706 110.628C90.8706 110.628 90.0254 119.416 90.8706 121.622C91.5989 123.518 99.6313 130.63 99.6313 130.63C99.6313 130.63 97.5356 138.525 97.46 141.115C97.3844 143.706 102.27 153.538 102.861 158.568C102.861 158.568 104.599 142.764 103.85 137.068C102.558 127.194 97.9272 114.442 95.7422 110.388L95.6941 105.248Z" fill="#EBEBEB"/>
<path d="M100.607 137.955C100.071 136.679 99.4392 135.445 98.7174 134.265C97.5768 132.375 96.1682 130.561 94.8971 130.094C94.7044 130.017 94.4997 129.976 94.2924 129.97H94.2237C94.0144 129.982 93.8093 130.033 93.619 130.121C92.6158 130.568 91.5577 131.935 90.6988 133.509C89.8192 135.089 89.0944 136.75 88.5344 138.47C88.2046 139.535 88.3489 141.795 88.7405 144.379C89.5101 149.395 91.221 155.661 92.1761 156.898C92.8761 157.762 93.7032 158.515 94.6291 159.131C94.0622 159.506 93.4504 159.809 92.8082 160.031C92.445 160.164 92.0612 160.231 91.6745 160.231V161.131H91.7844C92.1929 161.124 92.5982 161.057 92.9869 160.932C93.8875 160.639 94.738 160.211 95.5086 159.66C96.3221 160.145 97.2049 160.502 98.1265 160.719C98.5604 160.823 99.0091 160.85 99.4526 160.801L99.3427 159.908C98.9579 159.94 98.5703 159.91 98.1952 159.818C97.5342 159.646 96.8972 159.392 96.2988 159.063C97.1708 158.368 97.935 157.549 98.5663 156.63C99.1022 155.813 99.7618 152.995 100.257 149.759C100.559 147.828 100.806 145.753 100.944 143.864C101.095 141.225 101.026 138.965 100.607 137.955ZM97.7692 156.135C97.1245 157.065 96.3332 157.885 95.4261 158.561C94.4625 157.966 93.6036 157.216 92.8838 156.342C91.9906 155.18 90.3415 149.065 89.5994 144.242C89.2215 141.802 89.0841 139.693 89.3864 138.745C89.9468 137.004 90.6883 135.328 91.5989 133.743C92.5471 132.107 93.5572 130.905 94.2581 130.877C95.0895 130.877 96.4362 132.382 97.6936 134.313C97.9478 134.691 98.1883 135.103 98.422 135.515C98.9345 136.403 99.3934 137.321 99.7962 138.264C100.174 139.198 100.215 141.308 100.044 143.761C99.9473 145.135 99.7962 146.571 99.6038 148C99.0816 151.731 98.3464 155.229 97.7692 156.115V156.135Z" fill="#455A64"/>
<path d="M100.683 160.272C100.693 160.534 100.626 160.794 100.489 161.018C100.352 161.242 100.152 161.42 99.9134 161.53C99.6751 161.64 99.4095 161.677 99.1502 161.636C98.891 161.595 98.6497 161.478 98.457 161.299C98.2643 161.121 98.1289 160.89 98.0678 160.635C98.0067 160.379 98.0228 160.112 98.1139 159.865C98.2051 159.619 98.3673 159.406 98.5799 159.252C98.7925 159.098 99.046 159.01 99.3083 159.001C99.6589 158.988 100 159.114 100.258 159.352C100.516 159.591 100.668 159.921 100.683 160.272Z" fill="#263238"/>
<path d="M92.9801 160.629C92.9922 160.892 92.926 161.152 92.7899 161.377C92.6539 161.601 92.4541 161.781 92.216 161.892C91.9779 162.003 91.7121 162.041 91.4524 162.001C91.1927 161.96 90.9509 161.844 90.7575 161.666C90.5641 161.488 90.4279 161.257 90.3663 161.001C90.3046 160.746 90.3202 160.478 90.4111 160.231C90.502 159.985 90.6641 159.771 90.8768 159.617C91.0895 159.462 91.3433 159.375 91.6059 159.365C91.7791 159.358 91.9522 159.384 92.1151 159.444C92.2779 159.504 92.4275 159.595 92.5551 159.712C92.6828 159.83 92.786 159.971 92.8589 160.128C92.9318 160.286 92.973 160.456 92.9801 160.629Z" fill="#263238"/>
<path d="M100.834 143.85L100.071 143.795C99.9933 143.788 99.9213 143.751 99.87 143.692C99.8188 143.633 99.7923 143.557 99.7962 143.479C99.9542 140.957 99.8718 139.102 99.5626 138.36C98.2296 135.103 95.4399 131.022 94.2649 131.07C93.09 131.118 90.6576 135.426 89.5995 138.779C89.359 139.549 89.4345 141.404 89.7987 143.905C89.8107 143.981 89.7922 144.059 89.7473 144.122C89.7023 144.185 89.6344 144.228 89.5582 144.242L88.8024 144.358C88.7232 144.368 88.6433 144.346 88.5803 144.297C88.5172 144.248 88.476 144.176 88.4657 144.097C88.0466 141.294 87.9985 139.37 88.3146 138.374C88.878 136.573 91.5371 129.833 94.21 129.723C96.8828 129.613 100.105 136.099 100.82 137.851C101.212 138.813 101.328 140.737 101.15 143.561C101.145 143.641 101.109 143.715 101.05 143.769C100.991 143.823 100.913 143.852 100.834 143.85Z" fill="#E15145"/>
<path d="M84.3568 111.782C79.3271 111.7 77.0047 113.397 73.8165 117.664C71.2879 121.052 61.4485 139.356 58.1847 144.702L40.416 135.206C36.8224 132.726 35.6611 128.809 33.3868 126.521C31.1125 124.233 28.7557 123.772 26.2546 121.883C23.7535 119.993 22.7366 118.523 22.0151 120.289C21.2936 122.055 24.0764 124.913 24.6055 125.621C25.1346 126.329 27.9243 127.902 24.3032 127.957C20.6821 128.012 13.5155 124.26 11.7702 123.594C10.025 122.927 10.128 125.009 10.9869 126.342C11.8458 127.675 11.8046 131.441 13.2544 133.619C14.7867 135.928 15.6249 136.931 19.0399 138.429C22.2144 139.803 28.8793 140.353 32.2531 142.462C35.6268 144.571 43.9889 152.006 49.0736 156.465C55.5393 162.134 59.9987 163.172 63.5991 159.77C67.0965 156.108 70.642 151.814 72.3736 149.635C77.0391 143.761 84.4186 130.396 84.4186 130.396C84.4186 130.396 87.6137 123.525 84.3568 111.782Z" fill="#FFA8A7"/>
<path d="M85.0508 111.281C77.6437 111.281 75.4312 113.961 71.6384 120.151C67.8455 126.342 58.116 144.063 58.116 144.063L44.1058 136.725C44.1058 136.725 41.5841 142.276 38.9043 148C38.9043 148 46.8336 154.871 50.5852 158.121C54.3369 161.371 59.3116 163.92 63.9221 159.942C68.8487 155.696 84.8241 133.633 84.8241 133.633C88.6169 126.748 87.7718 116.31 85.0508 111.281Z" fill="#F0F0F0"/>
<path d="M58.116 144.063C60.4041 146.756 63.1731 149.787 63.0494 152.171C63.0494 152.171 64.6161 150.055 59.1123 142.256L58.116 144.063Z" fill="#E0E0E0"/>
<path d="M31.614 77.9833L25.8835 81.2677L25.9041 74.6852L21.6166 72.2116L11.6191 77.9833V89.5268L1.62158 95.2986V106.842L5.90916 109.316L11.6191 106.018V112.621L15.9066 115.094L25.9041 109.316V97.7722L35.9016 92.0004V80.457L31.614 77.9833Z" fill="#E15145"/>
<path d="M5.90915 97.7722V109.316L15.9066 103.544V115.094L25.9041 109.316V97.7722L35.9016 92.0004V80.457L25.8698 86.2493L25.9041 74.6852L15.9066 80.457V92.0004L5.90915 97.7722Z" fill="#E15145"/>
<g opacity="0.2">
<path d="M5.90916 109.316L1.62158 106.842V95.2986L5.90916 97.7722V109.316Z" fill="black"/>
<path d="M15.9067 80.457L11.6191 77.9834V89.5269L15.9067 92.0005V80.457Z" fill="black"/>
<path d="M15.9067 115.094L11.6191 112.621V106.018L15.9067 103.544V115.094Z" fill="black"/>
</g>
<g opacity="0.5">
<path d="M15.9066 92.0005L11.6191 89.5269L1.62158 95.2986L5.90916 97.7722L15.9066 92.0005Z" fill="white"/>
<path d="M25.9042 74.6852L21.6166 72.2116L11.6191 77.9833L15.9067 80.457L25.9042 74.6852Z" fill="white"/>
<path d="M35.9016 80.4569L31.6141 77.9833L25.8835 81.2677L25.8698 86.2493L35.9016 80.4569Z" fill="white"/>
</g>
<path d="M196.054 54.8139C195.872 54.6567 195.677 54.5164 195.47 54.3948C194.741 53.9619 191.443 52.0655 191.271 51.9624C189.526 50.8493 186.764 51.0966 184.304 52.3403C180.779 54.1199 177.845 57.8784 175.605 64.138C175.605 64.138 173.338 62.5096 172.603 62.0767C170.782 61.0804 168.652 61.5614 166.254 63.1211C163.553 64.8801 161.712 67.1613 160.028 70.6106V70.6725C158.57 73.6013 157.772 76.8149 157.692 80.0859C157.692 87.3212 160.654 90.7705 164.508 93.3609C165.608 94.103 168.514 95.6627 168.803 95.8551C171.129 97.3911 173.702 98.516 176.409 99.1808L180.209 100.067L184.009 94.797C186.775 90.9111 189.315 86.8687 191.615 82.6901C195.47 75.6472 198.486 68.7486 198.431 61.5407C198.376 58.4556 197.49 56.1881 196.054 54.8139Z" fill="#E15145"/>
<path opacity="0.3" d="M196.054 54.8139C195.872 54.6567 195.677 54.5164 195.47 54.3948C194.741 53.9619 191.443 52.0655 191.271 51.9624C189.526 50.8493 186.764 51.0966 184.304 52.3403C180.779 54.1199 177.845 57.8784 175.605 64.138C175.605 64.138 173.338 62.5096 172.603 62.0767C170.782 61.0804 168.652 61.5614 166.254 63.1211C163.553 64.8801 161.712 67.1613 160.028 70.6106V70.6725C158.57 73.6013 157.772 76.8149 157.692 80.0859C157.692 87.3212 160.654 90.7705 164.508 93.3609C165.608 94.103 168.514 95.6627 168.803 95.8551C171.129 97.3911 173.702 98.516 176.409 99.1808L180.209 100.067L184.009 94.797C186.775 90.9111 189.315 86.8687 191.615 82.6901C195.47 75.6472 198.486 68.7486 198.431 61.5407C198.376 58.4556 197.49 56.1881 196.054 54.8139Z" fill="black"/>
<path d="M196.054 54.8139C195.872 54.6567 195.677 54.5164 195.47 54.3948C194.741 53.9619 191.443 52.0655 191.272 51.9624C189.526 50.8493 186.764 51.0966 184.304 52.3403C180.779 54.1199 177.845 57.8784 175.605 64.138C175.605 64.138 173.338 62.5096 172.603 62.0767C170.782 61.0804 168.652 61.5614 166.254 63.1211C163.553 64.8801 161.712 67.1613 160.029 70.6106V70.6725C159.953 70.8236 159.891 70.9748 159.822 71.126L188.681 87.7678C189.705 86.105 190.701 84.4216 191.649 82.6901C195.504 75.6472 198.521 68.7486 198.466 61.5407C198.376 58.4556 197.49 56.1881 196.054 54.8139Z" fill="#E15145"/>
<path opacity="0.15" d="M196.054 54.8139C195.872 54.6567 195.677 54.5164 195.47 54.3948C194.741 53.9619 191.443 52.0655 191.272 51.9624C189.526 50.8493 186.764 51.0966 184.304 52.3403C180.779 54.1199 177.845 57.8784 175.605 64.138C175.605 64.138 173.338 62.5096 172.603 62.0767C170.782 61.0804 168.652 61.5614 166.254 63.1211C163.553 64.8801 161.712 67.1613 160.029 70.6106V70.6725C159.953 70.8236 159.891 70.9748 159.822 71.126L188.681 87.7678C189.705 86.105 190.701 84.4216 191.649 82.6901C195.504 75.6472 198.521 68.7486 198.466 61.5407C198.376 58.4556 197.49 56.1881 196.054 54.8139Z" fill="black"/>
<path d="M175.585 64.1105L179.446 69.1471L185.672 61.7812L178.636 57.7204C177.382 59.7295 176.359 61.8729 175.585 64.1105Z" fill="#E15145"/>
<path opacity="0.3" d="M175.585 64.1105L179.446 69.1471L185.672 61.7812L178.636 57.7204C177.382 59.7295 176.359 61.8729 175.585 64.1105Z" fill="black"/>
<path d="M196.054 54.8139C194.37 53.3091 191.306 53.4397 188.599 54.8139C184.909 56.6829 181.858 60.7162 179.577 67.5461C177.296 63.3547 174.245 63.2242 170.555 65.6222C167.848 67.3812 166.006 69.6624 164.33 73.1117L164.295 73.1736C162.842 76.1064 162.047 79.3215 161.966 82.5939C161.966 89.8292 164.935 93.2785 168.782 95.8689C171.109 97.4049 173.681 98.5298 176.389 99.1945L180.188 100.081L183.988 94.8107C186.754 90.9248 189.294 86.8825 191.594 82.7038C195.449 75.6609 198.466 68.7623 198.411 61.5545C198.376 58.4556 197.49 56.1881 196.054 54.8139Z" fill="#E15145"/>
<g opacity="0.07">
<path d="M192.811 54.1268C193.87 54.0783 194.911 54.4125 195.745 55.0681C195.759 55.0978 195.78 55.1237 195.806 55.1437C197.222 56.4355 198.012 58.7305 198.019 61.5888C198.019 69.1127 194.583 76.4167 191.251 82.5595C188.968 86.7246 186.444 90.7533 183.693 94.6252L180.044 99.703L176.492 98.8716C173.825 98.2165 171.29 97.1103 168.995 95.6009C165.56 93.2647 162.317 90.104 162.344 82.6282C162.417 79.4134 163.188 76.2529 164.605 73.366V73.3041C166.295 69.8342 168.116 67.6423 170.699 65.9657C171.9 65.0757 173.331 64.5508 174.822 64.4541C176.567 64.4541 178.003 65.5329 179.213 67.7522C179.243 67.8117 179.289 67.8613 179.346 67.8954C179.403 67.9295 179.469 67.9466 179.536 67.9446H179.57C179.641 67.9381 179.708 67.9112 179.764 67.8674C179.82 67.8235 179.863 67.7645 179.886 67.6973C182.064 61.1766 184.957 57.0814 188.722 55.1781C189.979 54.5195 191.371 54.1598 192.79 54.1268M192.79 53.7626C191.314 53.7931 189.866 54.1646 188.557 54.8483C184.868 56.7172 181.817 60.7506 179.536 67.5805C178.216 65.1481 176.636 64.0831 174.822 64.0831C173.265 64.1854 171.77 64.7314 170.514 65.6565C167.807 67.4156 165.965 69.6968 164.289 73.1461L164.254 73.2079C162.801 76.1408 162.006 79.3559 161.925 82.6282C161.925 89.8635 164.893 93.3128 168.741 95.9032C171.067 97.4392 173.64 98.5641 176.347 99.2289L180.147 100.115L183.947 94.8451C186.713 90.9592 189.253 86.9168 191.553 82.7382C195.408 75.6953 198.424 68.7967 198.369 61.5888C198.369 58.49 197.469 56.1881 196.033 54.8689C195.126 54.1301 193.979 53.751 192.811 53.8039L192.79 53.7626Z" fill="black"/>
</g>
<path d="M195.635 74.2936L188.241 78.5674L185.493 68.5699C185.454 68.4187 185.365 68.2853 185.24 68.1916C185.115 68.098 184.962 68.0496 184.806 68.0546C184.645 68.0513 184.488 68.1046 184.363 68.205C184.237 68.3054 184.151 68.4467 184.119 68.6043L179.838 88.1595L176.237 78.3063C176.23 78.1241 176.151 77.9522 176.017 77.8285C175.883 77.7048 175.705 77.6394 175.523 77.6467C175.341 77.6539 175.169 77.7333 175.045 77.8673C174.921 78.0014 174.856 78.179 174.863 78.3613L172.431 86.9983L164.295 91.6981C164.563 92.0872 164.852 92.4611 165.161 92.8181L173.407 88.0702C173.566 87.9777 173.684 87.8277 173.736 87.651L175.653 80.8349L179.343 90.9079C179.392 91.0489 179.486 91.17 179.61 91.2531C179.734 91.3361 179.881 91.3766 180.03 91.3683C180.183 91.3607 180.328 91.3025 180.444 91.2029C180.56 91.1034 180.639 90.9682 180.669 90.8186L184.861 71.7031L187.073 79.8179C187.1 79.9223 187.15 80.0191 187.22 80.1004C187.291 80.1817 187.38 80.2454 187.479 80.2862C187.579 80.3269 187.687 80.3437 187.794 80.3352C187.901 80.3267 188.005 80.2931 188.097 80.2371L194.666 76.4511C195.044 75.7296 195.346 75.015 195.635 74.2936Z" fill="white"/>
<path d="M226.665 258.055C226.383 258.986 226.359 259.976 226.596 260.92C226.871 261.497 228.589 263.394 232.093 264.081C235.597 264.768 240.414 264.081 242.489 263.957C244.564 263.833 251.078 264.644 253.146 264.905C256.403 265.345 258.904 264.631 260.12 263.456C260.317 263.219 260.462 262.944 260.546 262.648C260.63 262.353 260.651 262.042 260.608 261.738C260.601 260.954 260.485 260.175 260.264 259.422L226.665 258.055Z" fill="#263238"/>
<path d="M259.729 256.014C259.79 256.282 259.852 256.557 259.907 256.832C260.224 258.214 260.324 259.638 260.203 261.051C259.784 262.081 258.636 262.652 257.708 262.94C255.255 263.724 253.393 263.627 250.679 263.085C247.95 262.687 245.192 262.517 242.434 262.576C240.297 262.72 237.356 263.133 235.219 262.933C233.402 262.858 231.609 262.491 229.908 261.848C228.486 261.243 227.029 260.474 226.678 258.989C226.259 255.897 227.558 254.537 229.021 253.671C230.485 252.805 232.567 252.874 234.793 252.73C236.806 252.592 238.277 252.592 240.07 252.455C241.621 252.38 243.161 252.166 244.674 251.816C246.048 251.39 247.422 249.665 247.986 249.603C247.986 249.603 256.953 249.535 257.805 249.603C258.794 249.686 259.096 252.75 259.22 253.417C259.316 253.939 259.337 254.503 259.474 255.004C259.564 255.341 259.646 255.677 259.729 256.014Z" fill="#37474F"/>
<path d="M232.1 262.521C231.818 260.295 231.413 255.471 235.535 252.682H236.051C234.199 252.146 232.234 252.146 230.382 252.682C227.104 253.554 225.648 256.207 226.465 259.01C226.479 258.982 227.208 261.697 232.1 262.521Z" fill="#FAFAFA"/>
<path d="M244.062 251.974C242.736 253.149 242.276 255.822 242.276 255.822C242.104 256.825 240.29 256.976 240.462 256.007C240.739 254.675 241.273 253.41 242.035 252.283C242.657 251.955 243.371 251.846 244.062 251.974Z" fill="#FAFAFA"/>
<path d="M240.345 252.434C239.345 253.414 238.691 254.692 238.483 256.076C238.297 257.038 236.786 257.024 236.896 256.076C236.896 256.076 237.068 253.705 238.483 252.599C238.757 252.424 239.07 252.317 239.394 252.288C239.718 252.26 240.044 252.31 240.345 252.434Z" fill="#FAFAFA"/>
<path d="M258.079 243.083C258.079 243.083 257.839 248.848 257.523 250.737C257.33 251.864 255.853 253.046 252.177 252.922C249.594 252.833 247.56 253.046 247.663 251.026L247.89 245.137L258.079 243.083Z" fill="#FFA8A7"/>
<path d="M263.844 229.464C263.714 231.038 263.501 232.46 264.147 234.191C265.067 236.679 267.019 237.819 268.166 238.795C269.373 239.991 270.487 241.277 271.499 242.643C272.626 244.017 272.921 244.835 274.611 246.333C275.454 246.981 276.45 247.4 277.502 247.548C278.555 247.696 279.628 247.569 280.617 247.178C282.08 246.553 282.589 246.058 282.499 243.811C282.41 241.564 275.25 240.801 275.25 240.801L263.844 229.464Z" fill="#263238"/>
<path d="M281.572 237.119C282.183 237.338 282.335 238.445 282.431 240.643C282.499 242.306 283.235 244.766 280.823 245.79C278.878 246.635 275.773 246.072 274.46 244.505C272.825 242.547 271.712 240.822 269.376 238.438C267.314 236.376 265.253 235.689 264.339 231.532C263.755 228.866 264.215 227.767 266.098 227.004C268.688 225.953 272.749 229.382 274.783 229.924C276.528 230.385 280.96 236.899 281.572 237.119Z" fill="#37474F"/>
<path d="M274.783 229.925L274.44 229.808C273.281 229.851 272.154 230.196 271.171 230.81C270.187 231.423 269.381 232.284 268.833 233.305C268.489 234.027 269.52 234.59 270.207 234.027C271.65 231.278 274.618 230.687 275.807 230.557C275.514 230.276 275.165 230.06 274.783 229.925Z" fill="#FAFAFA"/>
<path d="M276.453 231.175C275.365 231.277 274.32 231.647 273.411 232.253C272.502 232.859 271.757 233.681 271.245 234.645C270.901 235.332 271.966 235.93 272.619 235.332C273.109 234.472 273.781 233.73 274.588 233.157C275.395 232.583 276.318 232.193 277.291 232.013C276.996 231.738 276.721 231.443 276.453 231.175Z" fill="#FAFAFA"/>
<path d="M281.922 233.147L281.572 237.785C281.572 237.785 278.624 239.936 274.398 237.964C274.275 237.709 273.917 233.559 273.917 233.559L281.922 233.147Z" fill="#FFA8A7"/>
<path d="M265.528 234.59C265.528 234.59 265.727 229.663 272.729 228.983L273.134 229.196C272.337 227.961 271.115 227.061 269.699 226.668C267.376 226.07 265.535 226.668 264.312 228.138C263.089 229.608 264.318 233.635 265.528 234.59Z" fill="#FAFAFA"/>
<path d="M283.963 202.254C282.96 194.14 282.589 189.618 282.589 189.618C282.589 189.618 282.389 178.192 283.083 167.631C283.386 163 283.544 157.874 283.64 153.202C283.768 148.056 283.358 142.912 282.417 137.851C282.417 137.851 246.488 130.705 246.041 143.884C245.498 159.688 245.567 186.698 244.956 197.012C244.619 202.804 245.203 207.607 245.567 218.862C245.863 228.193 245.773 251.156 245.773 251.156C249.731 256.591 259.076 252.448 259.076 252.448C259.076 252.448 261.962 220.202 262.388 213.537C262.841 206.37 262.085 202.742 262.085 202.742L265.789 169.356C265.789 169.356 266.071 180.068 266.387 185.846C266.703 191.625 267.548 195.177 269.053 205.958C270.358 215.316 273.134 239.201 273.134 239.201C277.944 242.045 282.589 239.201 282.589 239.201C282.589 239.201 284.966 210.369 283.963 202.254Z" fill="#455A64"/>
<path d="M279.057 156.142C279.057 156.142 274.556 161.887 268.75 164.353C268.75 164.353 266.235 184.548 266.256 184.149L265.603 163.824C265.603 163.824 274.247 160.004 279.057 156.142Z" fill="#37474F"/>
<path d="M278.933 91.2309C282.802 90.3651 287.179 93.1273 290.092 99.2907C292.909 105.186 300.605 120.076 300.79 124.247C300.99 128.569 281.764 141.679 282.238 141.424C282.39 141.349 278.92 131.509 278.92 131.509L288.257 123.779L283.18 113.322L278.933 91.2309Z" fill="#FFA8A7"/>
<path d="M276.899 90.3033C280.156 89.9047 286.059 91.1347 288.312 95.0512C291.583 100.72 294.565 107.275 298.365 115.747C298.365 115.747 295.548 121.849 287.44 122.426L282.582 113.906L276.899 90.3033Z" fill="#37474F"/>
<path d="M260.505 85.198L261.068 97.2225L272.983 96.5835L272.619 82.6145L260.505 85.198Z" fill="#FFA8A7"/>
<path d="M284.684 96.3567C283.681 93.0792 280.218 90.3788 275.841 90.2483C274.866 90.2483 272.818 90.2483 272.818 90.2483C272.323 92.2753 266.119 92.9967 260.814 91.7805C259.213 92.2066 252.569 93.8419 251.195 94.2541C247.381 95.5184 246.206 99.4075 245.615 111.844C245.615 111.844 245.732 136.36 245.615 148.062C252.321 151.601 262.683 151.161 270.056 150.412C281.64 149.244 283.365 145.046 283.365 145.046C282.877 138.222 283.173 135.653 283.365 128.919C283.509 123.855 284.966 118.502 285.426 112.765C286.107 104.238 285.365 98.6104 284.684 96.3567Z" fill="#E15145"/>
<path d="M258.643 87.4792C255.894 87.2868 252.459 89.4787 251.572 94.1717L253.812 93.5739L258.643 87.4792Z" fill="#E15145"/>
<path opacity="0.3" d="M258.643 87.4792C255.894 87.2868 252.459 89.4787 251.572 94.1717L253.812 93.5739L258.643 87.4792Z" fill="black"/>
<path d="M260.656 88.4824C262.717 89.1695 268.73 89.0733 270.743 88.4824C272.756 87.8915 272.735 86.9982 272.735 86.9982V85.9882C273.897 85.9849 275.031 86.3374 275.986 86.9982C277.27 88.0426 279.483 91.808 279.421 93.6151C279.359 95.4222 275.498 100.191 268.049 100.074C260.601 99.9572 256.417 97.2019 255.132 95.3879L253.84 93.567C253.84 93.567 255.606 89.9391 257.344 88.4137C258.236 87.5497 259.379 86.9915 260.608 86.8196L260.656 88.4824Z" fill="#E15145"/>
<path opacity="0.2" d="M260.656 88.4824C262.717 89.1695 268.73 89.0733 270.743 88.4824C272.756 87.8915 272.735 86.9982 272.735 86.9982V85.9882C273.897 85.9849 275.031 86.3374 275.986 86.9982C277.27 88.0426 279.483 91.808 279.421 93.6151C279.359 95.4222 275.498 100.191 268.049 100.074C260.601 99.9572 256.417 97.2019 255.132 95.3879L253.84 93.567C253.84 93.567 255.606 89.9391 257.344 88.4137C258.236 87.5497 259.379 86.9915 260.608 86.8196L260.656 88.4824Z" fill="black"/>
<path d="M252.486 70.4526C252.486 70.4526 249.649 74.7608 249.972 75.1799C250.295 75.5991 252.383 75.9907 252.383 75.9907L252.486 70.4526Z" fill="#F28F8F"/>
<path d="M260.374 58.5243C254.63 59.7405 252.335 61.4239 251.978 71.2428C251.634 80.7936 252.837 83.9406 254.087 85.2255C254.932 86.0913 259.639 86.2493 262.01 85.5897C264.978 84.772 271.691 82.3946 274.831 77.5986C278.528 71.9505 279.497 64.2961 275.518 61.156C269.973 56.7378 262.717 58.0296 260.374 58.5243Z" fill="#FFA8A7"/>
<path d="M254.087 85.2186C254.774 85.9058 258.066 86.1669 260.539 85.8645L260.505 84.4422C258.456 85.1982 256.258 85.4642 254.087 85.2186Z" fill="#F28F8F"/>
<path d="M251.215 62.2141C252.646 63.2401 254.421 63.6666 256.162 63.4028C256.128 64.1727 256.335 64.9341 256.753 65.581C257.336 66.463 258.221 67.1029 259.241 67.3812C258.612 68.6138 258.278 69.9758 258.265 71.3596C258.226 71.7939 258.32 72.2298 258.533 72.6101C258.599 72.7483 258.703 72.865 258.832 72.9467C258.962 73.0284 259.112 73.0718 259.265 73.0718C259.418 73.0718 259.568 73.0284 259.697 72.9467C259.827 72.865 259.931 72.7483 259.996 72.6101C260.32 71.8791 260.725 71.1875 261.206 70.5488C261.829 69.8034 262.704 69.3141 263.666 69.1746C267.273 68.7829 267.727 73.5034 266.284 75.4616C263.92 78.6636 261.914 76.4923 261.914 76.4923C261.821 77.9933 262.049 79.4966 262.583 80.9028C263.116 82.3089 263.942 83.5856 265.006 84.6483C267.57 85.4039 270.288 85.4726 272.887 84.8476C276.089 80.4432 278.102 78.2994 279.813 74.4997C283.427 66.4536 281.682 61.4033 278.885 59.2733C278.336 55.5697 275.415 53.9069 272.083 53.1442C267.108 51.9967 262.463 54.9513 257.53 53.8313C256.72 53.6618 255.92 53.4509 255.132 53.1992C254.828 53.0569 254.482 53.0348 254.163 53.1373C253.986 53.2548 253.848 53.4216 253.764 53.617C253.681 53.8124 253.658 54.0279 253.696 54.2367C253.758 55.1849 254.719 56.2362 255.207 56.7447C254.13 56.8433 253.044 56.7807 251.985 56.5592C251.617 56.4903 251.239 56.4903 250.872 56.5592C250.468 56.7236 250.127 57.0116 249.897 57.382C249.668 57.7523 249.561 58.1859 249.594 58.6205C249.598 59.2996 249.744 59.9702 250.023 60.5892C250.303 61.2082 250.709 61.7617 251.215 62.2141Z" fill="#263238"/>
<path d="M278.974 60.4688L282.41 58.4075C282.137 57.9519 281.694 57.6236 281.178 57.4947C280.663 57.3659 280.117 57.447 279.662 57.7204C279.206 57.9937 278.878 58.4369 278.749 58.9523C278.62 59.4677 278.701 60.0133 278.974 60.4688Z" fill="#263238"/>
<path d="M234.202 114.593C233.424 111.533 232.672 108.468 231.949 105.399C231.261 102.575 230.203 99.3044 231.172 96.4186C231.723 95.1582 232.414 93.9642 233.233 92.8593C233.942 91.6948 234.54 90.4663 235.02 89.1901C235.26 88.5717 235.48 87.9396 235.707 87.3143C235.934 86.6891 236.257 86.3318 236.106 85.734C235.604 83.7757 233.075 86.3455 232.56 87.1494C232.331 87.5714 232.065 87.9716 231.763 88.345C231.433 88.6954 230.629 89.1352 230.245 88.6198C230.116 88.4131 230.045 88.176 230.038 87.9327C229.777 84.9163 230.863 82.216 231.763 79.3988C231.905 79.0289 231.991 78.6398 232.017 78.2444C232.034 78.047 232.007 77.8484 231.939 77.6622C231.872 77.476 231.765 77.3066 231.626 77.1657C231.402 76.9938 231.136 76.8843 230.856 76.8481C230.576 76.8119 230.292 76.8503 230.032 76.9595C229.523 77.1313 229.083 77.4543 228.575 77.6123C228.066 77.7703 227.688 77.7703 227.242 77.8871C226.182 78.1233 225.162 78.5097 224.212 79.0346C222.563 80.0035 221.834 81.4189 221.401 83.2191C220.881 85.4304 220.705 87.7086 220.879 89.9735C220.996 91.4782 221.264 92.9624 221.449 94.4466L222.068 99.4144C222.487 102.726 222.611 119.272 223.181 122.563C223.751 125.854 224.851 128.06 227.455 129.153C231.234 130.692 237.342 123.738 240.812 120.138L234.202 114.593Z" fill="#FFA8A7"/>
<path d="M232.821 112.717C230.389 114.538 227.359 117.568 226.747 120.605C226.747 120.605 226.142 115.142 232.821 110.298V112.717Z" fill="#F28F8F"/>
<path d="M251.002 94.3297C248.666 94.5496 244.818 94.6321 240.902 98.8441C236.36 103.764 229.358 113.466 229.358 113.466C229.358 113.466 230.272 121.189 237.707 123.958C237.707 123.958 248.515 113.651 250.837 109.213C253.16 104.774 253.682 97.4149 251.002 94.3297Z" fill="#37474F"/>
<path d="M247.89 78.0039L244.935 76.4167L246.632 74.9669L240.496 72.0947L243.176 70.5419L236.566 67.0239L240.496 70.4938L237.301 72.0947L244.509 75.2142L242.729 76.9939L247.89 78.0039Z" fill="#E15145"/>
<path d="M249.394 74.108L247.47 72.2665L248.522 71.4901L246.831 69.4837L248.453 68.934L247.89 66.3917L249.03 69.1333L247.89 69.628L249.717 71.6344L248.48 72.5139L249.394 74.108Z" fill="#E15145"/>
<path d="M248.274 80.9104L244.646 83.7413L243.307 81.7693L240.132 83.494L238.833 81.0547L233.921 82.3121L239.603 79.5912L241.231 81.838L243.87 80.4226L244.969 82.3121L248.274 80.9104Z" fill="#E15145"/>
<path d="M223.05 131.571C223.161 131.48 223.303 131.435 223.446 131.448C223.589 131.461 223.721 131.53 223.813 131.64C224.516 132.429 225.428 133.002 226.444 133.291C227.46 133.581 228.538 133.575 229.551 133.275C229.62 133.251 229.693 133.241 229.766 133.245C229.839 133.25 229.911 133.27 229.976 133.303C230.041 133.336 230.099 133.382 230.147 133.438C230.194 133.494 230.229 133.559 230.25 133.629C230.272 133.699 230.279 133.773 230.271 133.846C230.263 133.918 230.24 133.989 230.204 134.053C230.169 134.117 230.12 134.173 230.062 134.217C230.004 134.262 229.938 134.295 229.867 134.313C228.652 134.672 227.36 134.677 226.142 134.326C224.925 133.976 223.833 133.285 222.995 132.334C222.948 132.281 222.912 132.218 222.89 132.151C222.867 132.083 222.858 132.012 222.863 131.941C222.868 131.87 222.887 131.801 222.92 131.737C222.952 131.674 222.996 131.617 223.05 131.571Z" fill="#E0E0E0"/>
<path d="M223.6 135.206C223.697 135.126 223.818 135.081 223.944 135.081C224.069 135.081 224.191 135.126 224.287 135.206C224.847 135.61 225.488 135.888 226.165 136.018C226.843 136.149 227.541 136.13 228.211 135.962C228.353 135.936 228.499 135.966 228.619 136.047C228.739 136.128 228.821 136.253 228.85 136.395C228.864 136.464 228.864 136.536 228.85 136.605C228.836 136.675 228.808 136.741 228.769 136.8C228.729 136.859 228.678 136.909 228.619 136.948C228.56 136.987 228.493 137.014 228.424 137.027C227.596 137.219 226.736 137.227 225.905 137.05C225.074 136.873 224.292 136.516 223.614 136.003C223.56 135.957 223.515 135.901 223.483 135.837C223.451 135.774 223.432 135.704 223.426 135.633C223.421 135.562 223.43 135.491 223.453 135.424C223.476 135.356 223.512 135.294 223.559 135.24C223.571 135.227 223.585 135.216 223.6 135.206Z" fill="#E0E0E0"/>
<path d="M291.068 93.5602C291.004 93.5931 290.935 93.613 290.864 93.6187C290.792 93.6243 290.721 93.6157 290.653 93.5933C290.585 93.5709 290.522 93.5352 290.469 93.4882C290.415 93.4412 290.371 93.3839 290.339 93.3197C289.838 92.3899 289.083 91.6213 288.162 91.1032C287.242 90.5851 286.193 90.3387 285.138 90.3926C285.067 90.3966 284.995 90.3866 284.928 90.3631C284.86 90.3396 284.798 90.303 284.745 90.2554C284.637 90.1594 284.572 90.0246 284.564 89.8807C284.556 89.7367 284.605 89.5954 284.701 89.4878C284.797 89.3802 284.932 89.3151 285.076 89.3069C286.343 89.2407 287.602 89.5371 288.706 90.1615C289.81 90.7859 290.712 91.7122 291.308 92.8318C291.371 92.9606 291.381 93.1088 291.336 93.2449C291.291 93.3809 291.195 93.494 291.068 93.5602Z" fill="#E0E0E0"/>
<path d="M291.37 89.9185C291.255 89.979 291.122 89.9956 290.995 89.9653C290.869 89.935 290.758 89.8597 290.683 89.7536C290.239 89.2353 289.689 88.8186 289.071 88.5317C288.452 88.2448 287.778 88.0944 287.096 88.0907C287.025 88.088 286.955 88.0713 286.89 88.0415C286.825 88.0118 286.767 87.9695 286.718 87.9172C286.67 87.8649 286.632 87.8035 286.607 87.7366C286.583 87.6697 286.571 87.5986 286.574 87.5273C286.577 87.456 286.593 87.386 286.623 87.3212C286.653 87.2563 286.695 87.198 286.748 87.1495C286.8 87.101 286.861 87.0633 286.928 87.0385C286.995 87.0138 287.066 87.0024 287.137 87.0051C287.985 87.0136 288.82 87.2074 289.584 87.573C290.349 87.9386 291.024 88.4671 291.562 89.1214C291.64 89.2377 291.669 89.3796 291.643 89.517C291.618 89.6543 291.539 89.7762 291.425 89.8566L291.37 89.9185Z" fill="#E0E0E0"/>
<path d="M300.976 129.524C300.907 129.398 300.891 129.25 300.931 129.112C300.971 128.974 301.063 128.858 301.189 128.788C302.094 128.244 302.826 127.454 303.299 126.51C303.772 125.566 303.967 124.507 303.862 123.456C303.853 123.385 303.859 123.313 303.879 123.245C303.898 123.176 303.931 123.112 303.976 123.056C304.021 123 304.077 122.954 304.14 122.92C304.202 122.886 304.272 122.865 304.343 122.859C304.486 122.843 304.629 122.885 304.741 122.975C304.853 123.066 304.925 123.197 304.941 123.34C305.063 124.596 304.827 125.862 304.259 126.989C303.691 128.117 302.814 129.06 301.732 129.709C301.67 129.748 301.602 129.773 301.53 129.785C301.458 129.796 301.385 129.793 301.315 129.776C301.244 129.759 301.178 129.727 301.12 129.684C301.061 129.641 301.013 129.586 300.976 129.524Z" fill="#E0E0E0"/>
<path d="M304.624 129.654C304.563 129.542 304.543 129.413 304.566 129.287C304.59 129.162 304.657 129.049 304.755 128.967C305.254 128.501 305.645 127.932 305.902 127.3C306.16 126.667 306.277 125.987 306.246 125.305C306.246 125.161 306.303 125.023 306.405 124.921C306.507 124.819 306.645 124.762 306.789 124.762C306.933 124.762 307.071 124.819 307.173 124.921C307.274 125.023 307.332 125.161 307.332 125.305C307.361 126.151 307.207 126.993 306.88 127.773C306.552 128.554 306.059 129.254 305.435 129.826C305.379 129.87 305.315 129.903 305.247 129.922C305.178 129.942 305.106 129.948 305.035 129.939C304.965 129.931 304.896 129.909 304.834 129.874C304.772 129.839 304.717 129.793 304.673 129.737L304.624 129.654Z" fill="#E0E0E0"/>
<path d="M241.417 194.985C241.545 195.05 241.643 195.162 241.689 195.299C241.736 195.435 241.727 195.584 241.664 195.713C241.229 196.675 241.077 197.741 241.225 198.786C241.374 199.831 241.817 200.813 242.503 201.615C242.596 201.726 242.641 201.869 242.63 202.013C242.618 202.157 242.55 202.291 242.441 202.385C242.332 202.478 242.191 202.525 242.048 202.515C241.905 202.504 241.772 202.438 241.678 202.33C240.854 201.364 240.324 200.183 240.148 198.925C239.973 197.668 240.16 196.387 240.689 195.232C240.754 195.104 240.866 195.006 241.002 194.96C241.139 194.914 241.287 194.923 241.417 194.985Z" fill="#E0E0E0"/>
<path d="M238.339 196.943C238.456 196.998 238.55 197.094 238.603 197.213C238.656 197.331 238.664 197.465 238.627 197.589C238.483 198.256 238.485 198.947 238.633 199.614C238.782 200.281 239.073 200.907 239.486 201.451C239.567 201.569 239.599 201.714 239.575 201.855C239.55 201.996 239.472 202.122 239.356 202.206C239.238 202.289 239.092 202.322 238.951 202.297C238.809 202.273 238.683 202.193 238.6 202.076C238.09 201.396 237.736 200.614 237.56 199.783C237.384 198.953 237.392 198.093 237.583 197.266C237.604 197.197 237.639 197.133 237.685 197.078C237.731 197.022 237.788 196.977 237.851 196.943C237.915 196.91 237.985 196.89 238.057 196.884C238.129 196.878 238.201 196.886 238.27 196.909L238.339 196.943Z" fill="#E0E0E0"/>
<path d="M201.035 6.3381C201.002 5.69739 200.816 5.07379 200.495 4.51842C200.174 3.96305 199.726 3.49171 199.187 3.14303L197.689 2.2704C197.116 1.98379 196.485 1.83456 195.844 1.83456C195.204 1.83456 194.572 1.98379 193.999 2.2704L159.197 22.3822C158.659 22.7317 158.212 23.2032 157.89 23.7584C157.569 24.3136 157.384 24.9368 157.349 25.5772V43.5727C157.384 44.2131 157.57 44.836 157.891 45.3911C158.212 45.9463 158.66 46.4179 159.197 46.7678L160.702 47.6336C161.273 47.9249 161.905 48.0768 162.547 48.0768C163.188 48.0768 163.82 47.9249 164.392 47.6336L199.187 27.5287C199.726 27.18 200.174 26.7086 200.495 26.1533C200.816 25.5979 201.002 24.9743 201.035 24.3336V6.3381Z" fill="#E15145"/>
<path opacity="0.5" d="M201.035 6.3381C201.002 5.69739 200.816 5.07379 200.495 4.51842C200.174 3.96305 199.726 3.49171 199.187 3.14303L197.689 2.2704C197.116 1.98379 196.485 1.83456 195.844 1.83456C195.204 1.83456 194.572 1.98379 193.999 2.2704L159.197 22.3822C158.659 22.7317 158.212 23.2032 157.89 23.7584C157.569 24.3136 157.384 24.9368 157.349 25.5772V43.5727C157.384 44.2131 157.57 44.836 157.891 45.3911C158.212 45.9463 158.66 46.4179 159.197 46.7678L160.702 47.6336C161.273 47.9249 161.905 48.0768 162.547 48.0768C163.188 48.0768 163.82 47.9249 164.392 47.6336L199.187 27.5287C199.726 27.18 200.174 26.7086 200.495 26.1533C200.816 25.5979 201.002 24.9743 201.035 24.3336V6.3381Z" fill="white"/>
<path opacity="0.2" d="M157.349 43.5727C157.384 44.2131 157.57 44.836 157.891 45.3911C158.212 45.9463 158.66 46.4179 159.197 46.7678L160.702 47.6336C161.222 47.8955 161.791 48.0444 162.373 48.0704C162.954 48.0965 163.534 47.9991 164.076 47.7847C163.203 48.1145 162.543 47.6267 162.543 46.5685V28.5731C162.566 27.9297 162.753 27.3028 163.086 26.7522L157.892 23.7564C157.557 24.3066 157.37 24.9337 157.349 25.5773V43.5727Z" fill="black"/>
<path opacity="0.3" d="M200.974 5.81592C200.761 5.03261 200.046 4.77838 199.194 5.2731L164.392 25.378C163.844 25.7141 163.394 26.1879 163.086 26.7522L157.898 23.7564C158.205 23.1939 158.653 22.7204 159.197 22.3822L193.992 2.27729C194.564 1.98592 195.196 1.83401 195.837 1.83401C196.479 1.83401 197.111 1.98592 197.682 2.27729L199.194 3.14305C199.656 3.4451 200.052 3.8377 200.358 4.29712C200.664 4.75653 200.873 5.27322 200.974 5.81592Z" fill="white"/>
<path d="M162.55 34.3929L157.363 31.3971L151.11 37.4162C151.016 37.5109 150.944 37.6257 150.901 37.752C150.858 37.8783 150.844 38.0127 150.861 38.1451C150.878 38.2776 150.924 38.4045 150.997 38.5163C151.07 38.6281 151.167 38.7218 151.282 38.7904L156.387 41.7588C156.598 41.8694 156.836 41.9193 157.074 41.903L162.571 40.8518V34.3929H162.55Z" fill="#E15145"/>
<path opacity="0.5" d="M162.55 34.3929L157.363 31.3971L151.11 37.4162C151.016 37.5109 150.944 37.6257 150.901 37.752C150.858 37.8783 150.844 38.0127 150.861 38.1451C150.878 38.2776 150.924 38.4045 150.997 38.5163C151.07 38.6281 151.167 38.7218 151.282 38.7904L156.387 41.7588C156.598 41.8694 156.836 41.9193 157.074 41.903L162.571 40.8518V34.3929H162.55Z" fill="white"/>
<path opacity="0.3" d="M156.387 41.7588L153.638 40.1853L153.315 39.9723L151.845 39.1203L151.666 39.0103L151.275 38.7836C151.16 38.715 151.063 38.6212 150.99 38.5094C150.917 38.3976 150.871 38.2707 150.854 38.1383C150.838 38.0059 150.851 37.8714 150.894 37.7452C150.938 37.6189 151.009 37.504 151.103 37.4094L157.356 31.3903L162.55 34.3929L156.297 40.3846C156.198 40.4728 156.12 40.5825 156.07 40.7054C156.019 40.8282 155.998 40.961 156.006 41.0935C156.015 41.226 156.054 41.3549 156.12 41.4702C156.186 41.5854 156.277 41.6842 156.387 41.7588Z" fill="white"/>
<path d="M172.713 28.8617C171.995 29.3286 171.397 29.9584 170.968 30.6999C170.54 31.4413 170.292 32.2735 170.246 33.1286C170.246 34.6953 171.352 35.3343 172.713 34.551C173.43 34.0836 174.026 33.4536 174.454 32.7121C174.881 31.9706 175.127 31.1387 175.172 30.284C175.172 28.7036 174.073 28.0784 172.713 28.8617Z" fill="white"/>
<path d="M181.789 23.6121C181.072 24.0795 180.476 24.7095 180.048 25.451C179.621 26.1925 179.375 27.0244 179.329 27.8791C179.329 29.4457 180.429 30.0847 181.789 29.2946C182.505 28.8279 183.101 28.1989 183.529 27.4587C183.956 26.7185 184.203 25.888 184.249 25.0345C184.235 23.461 183.15 22.822 181.789 23.6121Z" fill="white"/>
<path d="M190.866 18.3557C190.15 18.8242 189.555 19.4546 189.127 20.1958C188.7 20.937 188.453 21.7684 188.406 22.6227C188.406 24.1962 189.506 24.8283 190.866 24.045C191.585 23.5774 192.183 22.9465 192.612 22.2037C193.04 21.461 193.288 20.6275 193.333 19.7712C193.333 18.2114 192.227 17.5724 190.866 18.3557Z" fill="white"/>
<path d="M268.022 41.6145L265.528 36.949L267.534 31.1566V27.5905L261.391 31.136V34.6815L264.03 39.2577C264.073 39.3261 264.135 39.3808 264.209 39.4157L268.022 41.6145Z" fill="#E15145"/>
<path opacity="0.2" d="M268.022 41.6145L265.528 36.949L267.534 31.1566V27.5905L261.391 31.136V34.6815L264.03 39.2577C264.073 39.3261 264.135 39.3808 264.209 39.4157L268.022 41.6145Z" fill="black"/>
<path d="M286.677 4.50355C286.643 3.86463 286.458 3.24281 286.138 2.68876C285.818 2.13472 285.372 1.66412 284.836 1.31535L283.338 0.449587C282.768 0.158274 282.136 0.00637817 281.496 0.00637817C280.856 0.00637817 280.225 0.158274 279.655 0.449587L244.935 20.5064C244.401 20.8595 243.957 21.332 243.637 21.8866C243.317 22.4411 243.131 23.0625 243.094 23.7015V41.6557C243.128 42.2946 243.312 42.9165 243.632 43.4705C243.952 44.0246 244.399 44.4951 244.935 44.8439L246.433 45.7097C247.005 45.9952 247.635 46.1438 248.274 46.1438C248.914 46.1438 249.544 45.9952 250.116 45.7097L265.232 36.9146L267.871 41.4771C267.909 41.5381 267.963 41.5873 268.028 41.619C268.092 41.6507 268.164 41.6637 268.236 41.6566C268.307 41.6494 268.375 41.6224 268.432 41.5785C268.489 41.5346 268.533 41.4757 268.558 41.4084L271.348 33.376L284.801 25.646C285.338 25.2972 285.784 24.8266 286.104 24.2726C286.424 23.7185 286.609 23.0967 286.643 22.4578L286.677 4.50355Z" fill="#E15145"/>
<path d="M253.496 27.1783L281.256 11.1479C282.08 10.6738 282.747 11.0105 282.747 11.9037C282.709 12.4031 282.555 12.8867 282.296 13.3152C282.037 13.7438 281.681 14.1053 281.256 14.3705L253.496 30.4008C252.679 30.8749 252.012 30.5382 252.012 29.645C252.049 29.1464 252.203 28.6634 252.461 28.235C252.719 27.8066 253.073 27.4446 253.496 27.1783Z" fill="white"/>
<path d="M253.496 34.3173L281.256 18.2939C282.08 17.8198 282.747 18.1565 282.747 19.0428C282.71 19.5434 282.557 20.0283 282.297 20.4582C282.038 20.888 281.681 21.2506 281.256 21.5164L253.496 37.5399C252.679 38.0209 252.012 37.6773 252.012 36.7909C252.048 36.2911 252.201 35.8068 252.459 35.3771C252.717 34.9474 253.072 34.5844 253.496 34.3173Z" fill="white"/>
<path opacity="0.2" d="M243.094 41.6557C243.128 42.2946 243.312 42.9165 243.632 43.4705C243.952 44.0245 244.399 44.4951 244.935 44.8439L246.433 45.7097C246.952 45.9706 247.52 46.119 248.1 46.145C248.68 46.1711 249.26 46.0742 249.8 45.8608C248.934 46.1838 248.274 45.6959 248.274 44.6446V26.6904C248.296 26.0501 248.481 25.4259 248.81 24.8764L243.629 21.8806C243.3 22.4326 243.116 23.059 243.094 23.7015V41.6557Z" fill="black"/>
<path opacity="0.2" d="M286.615 3.96759C286.402 3.18428 285.688 2.93692 284.836 3.42477L250.116 23.4885C249.569 23.824 249.121 24.2981 248.817 24.8627L243.636 21.8737C243.945 21.3121 244.392 20.839 244.935 20.4995L279.648 0.435833C280.221 0.149222 280.852 0 281.493 0C282.133 0 282.765 0.149222 283.338 0.435833L284.836 1.30159C285.298 1.60136 285.695 1.99246 286.001 2.45089C286.307 2.90933 286.516 3.42545 286.615 3.96759Z" fill="white"/>
</svg>
