<svg width="300" height="211" viewBox="0 0 300 211" fill="none" xmlns="http://www.w3.org/2000/svg">
<path d="M64.7541 210.422C100.517 210.422 129.508 208.22 129.508 205.504C129.508 202.788 100.517 200.586 64.7541 200.586C28.9914 200.586 0 202.788 0 205.504C0 208.22 28.9914 210.422 64.7541 210.422Z" fill="#E6E6E6"/>
<path d="M49.4968 34.4743C60.766 29.6811 74.8019 32.718 88.5095 34.8258C88.6371 32.2733 90.1832 29.1668 88.5636 27.3861C86.5959 25.2226 86.7771 22.9495 87.9611 20.6632C90.9889 14.8169 86.6509 8.59612 82.2708 3.4236C81.2836 2.26037 80.0359 1.3464 78.6291 0.755934C77.2223 0.165468 75.6961 -0.0848444 74.1744 0.0253255L66.0606 0.604878C64.0862 0.745902 62.202 1.48654 60.6601 2.72771C59.1181 3.96887 57.992 5.65135 57.4324 7.55002C55.495 10.1849 54.458 12.8125 55.1109 15.4265C52.209 17.4096 51.7214 19.8034 53.0254 22.502C54.1312 24.2012 54.1194 25.8552 52.9751 27.4634C51.4724 29.5137 50.3214 31.7999 49.5694 34.2281L49.4968 34.4743Z" fill="#2F2E41"/>
<path d="M117.971 15.787C117.131 15.7879 116.325 16.1223 115.73 16.7168C115.136 17.3113 114.801 18.1174 114.8 18.9581V114.998C114.801 115.838 115.136 116.644 115.73 117.239C116.325 117.833 117.131 118.168 117.971 118.169H286.947C287.787 118.168 288.593 117.833 289.188 117.239C289.782 116.644 290.117 115.838 290.118 114.998V18.9581C290.117 18.1174 289.782 17.3114 289.188 16.7169C288.593 16.1224 287.787 15.788 286.947 15.787H117.971Z" fill="#E6E6E6"/>
<path d="M285.451 31.0237C293.486 31.0237 300 24.5098 300 16.4745C300 8.43918 293.486 1.92529 285.451 1.92529C277.416 1.92529 270.902 8.43918 270.902 16.4745C270.902 24.5098 277.416 31.0237 285.451 31.0237Z" fill="#E15145"/>
<path d="M291.478 22.8138H279.423C279.203 22.8135 278.991 22.7259 278.836 22.57C278.68 22.4141 278.592 22.2028 278.592 21.9824V14.7078C278.592 14.4874 278.68 14.276 278.836 14.1202C278.991 13.9643 279.203 13.8766 279.423 13.8764H291.478C291.699 13.8766 291.91 13.9643 292.066 14.1202C292.222 14.276 292.309 14.4874 292.31 14.7078V21.9824C292.309 22.2028 292.222 22.4141 292.066 22.57C291.91 22.7259 291.699 22.8135 291.478 22.8138ZM279.423 14.7078V21.9824H291.479L291.478 14.7078L279.423 14.7078Z" fill="white"/>
<path d="M289.192 14.7078H281.71V11.3823C281.71 8.97356 283.283 7.22534 285.451 7.22534C287.619 7.22534 289.192 8.97356 289.192 11.3823L289.192 14.7078ZM282.541 13.8764H288.361V11.3823C288.361 9.42425 287.164 8.05673 285.451 8.05673C283.738 8.05673 282.541 9.42426 282.541 11.3823L282.541 13.8764Z" fill="white"/>
<path d="M285.451 18.9686C285.91 18.9686 286.282 18.5964 286.282 18.1372C286.282 17.6781 285.91 17.3058 285.451 17.3058C284.992 17.3058 284.62 17.6781 284.62 18.1372C284.62 18.5964 284.992 18.9686 285.451 18.9686Z" fill="white"/>
<path d="M157.455 75.5859C162.896 75.5859 167.306 71.1755 167.306 65.7349C167.306 60.2944 162.896 55.8839 157.455 55.8839C152.014 55.8839 147.604 60.2944 147.604 65.7349C147.604 71.1755 152.014 75.5859 157.455 75.5859Z" fill="white"/>
<path d="M180.406 75.5859C185.846 75.5859 190.257 71.1755 190.257 65.7349C190.257 60.2944 185.846 55.8839 180.406 55.8839C174.965 55.8839 170.555 60.2944 170.555 65.7349C170.555 71.1755 174.965 75.5859 180.406 75.5859Z" fill="white"/>
<path d="M203.357 75.5859C208.797 75.5859 213.208 71.1755 213.208 65.7349C213.208 60.2944 208.797 55.8839 203.357 55.8839C197.916 55.8839 193.506 60.2944 193.506 65.7349C193.506 71.1755 197.916 75.5859 203.357 75.5859Z" fill="white"/>
<path d="M226.307 75.5859C231.748 75.5859 236.158 71.1755 236.158 65.7349C236.158 60.2944 231.748 55.8839 226.307 55.8839C220.867 55.8839 216.456 60.2944 216.456 65.7349C216.456 71.1755 220.867 75.5859 226.307 75.5859Z" fill="white"/>
<path d="M249.258 75.5859C254.699 75.5859 259.109 71.1755 259.109 65.7349C259.109 60.2944 254.699 55.8839 249.258 55.8839C243.818 55.8839 239.407 60.2944 239.407 65.7349C239.407 71.1755 243.818 75.5859 249.258 75.5859Z" fill="white"/>
<path d="M108.001 69.6827L83.8602 82.517L83.5546 71.8218C91.4339 70.5064 98.9303 68.2163 105.862 64.4879L108.387 58.2502C108.662 57.5705 109.109 56.974 109.684 56.5193C110.259 56.0647 110.943 55.7674 111.668 55.6567C112.393 55.546 113.134 55.6257 113.819 55.888C114.503 56.1503 115.108 56.5861 115.574 57.1527C116.255 57.9817 116.595 59.0386 116.526 60.1092C116.457 61.1798 115.983 62.1841 115.201 62.9186L108.001 69.6827Z" fill="#FFB8B8"/>
<path d="M49.0156 143.783C48.8395 143.137 48.8021 142.461 48.9059 141.8C49.0097 141.139 49.2523 140.507 49.6178 139.946L54.9208 131.807C56.1751 129.882 58.0997 128.492 60.3212 127.906C62.5427 127.32 64.9027 127.58 66.9433 128.635C64.7146 132.429 65.0253 135.757 67.713 138.649C63.5407 140.686 59.6845 143.315 56.2638 146.455C55.6394 146.88 54.9222 147.151 54.1721 147.243C53.422 147.335 52.6607 147.247 51.9515 146.986C51.2424 146.725 50.606 146.298 50.0953 145.74C49.5846 145.183 49.2144 144.512 49.0156 143.783Z" fill="#2F2E41"/>
<path d="M109.1 133.142C108.298 134.479 107.165 135.588 105.811 136.362C104.456 137.135 102.926 137.548 101.366 137.56L66.1368 137.826L64.6089 128.965L80.1933 124.381L67.0535 114.297L81.4156 97.4902L107.502 121.803C109.026 123.225 110.017 125.126 110.308 127.19C110.599 129.254 110.173 131.355 109.1 133.142Z" fill="#2F2E41"/>
<path d="M60.6364 193.747H52.3858C44.9779 142.969 37.4375 92.0496 59.7196 73.0441L85.9992 77.3222L82.6379 99.6293L67.9702 116.436L60.6364 193.747Z" fill="#2F2E41"/>
<path d="M67.889 205.25C67.2431 205.426 66.5672 205.463 65.9058 205.36C65.2445 205.256 64.6125 205.013 64.0516 204.648L55.0932 203.444C53.1682 202.19 51.7777 200.265 51.1915 198.044C50.6052 195.822 50.8651 193.462 51.9206 191.421C55.7144 193.65 59.0424 193.339 61.9344 190.651C63.9778 194.777 67.3446 194.525 70.56 198.001C70.9858 198.626 71.2561 199.343 71.3486 200.093C71.4411 200.843 71.353 201.605 71.0917 202.314C70.8304 203.023 70.4034 203.659 69.8463 204.17C69.2892 204.681 68.6181 205.051 67.889 205.25Z" fill="#2F2E41"/>
<path d="M80.1932 39.125L64.9144 35.4581C67.4519 30.2638 67.6609 24.4842 66.4422 18.3457L76.8319 18.0402C77.1574 25.6735 78.1423 32.805 80.1932 39.125Z" fill="#FFB8B8"/>
<path d="M84.3924 86.5229C73.27 94.102 65.4112 86.7822 59.414 75.4887C60.2474 68.5781 58.8981 60.3081 56.399 51.3222C55.2876 47.3587 55.7025 43.1226 57.5619 39.4502C59.4213 35.7777 62.5899 32.9359 66.4423 31.4856L79.5821 36.986C90.7393 46.0804 92.9354 55.9315 88.7494 66.3214L84.3924 86.5229Z" fill="#E15145"/>
<path d="M52.3857 46.7644L40.1626 53.1816L61.8586 66.0158L64.8775 73.4623C65.079 73.9593 65.1771 74.4922 65.166 75.0284C65.1548 75.5645 65.0346 76.0928 64.8125 76.581C64.5905 77.0692 64.2714 77.5071 63.8747 77.868C63.4779 78.2288 63.0118 78.5051 62.5048 78.6799C61.9285 78.8786 61.314 78.9412 60.7094 78.8628C60.1048 78.7844 59.5266 78.5671 59.02 78.228C58.5135 77.8888 58.0923 77.437 57.7895 76.9078C57.4867 76.3787 57.3105 75.7867 57.2747 75.1781L56.9694 69.9883L29.3941 60.8884C28.465 60.5818 27.6179 60.0678 26.9168 59.3854C26.2158 58.7029 25.6793 57.8698 25.3479 56.9493C24.8648 55.6075 24.8403 54.1434 25.278 52.7861C25.7157 51.4289 26.591 50.255 27.767 49.4483L49.9411 34.2358L52.3857 46.7644Z" fill="#FFB8B8"/>
<path d="M64.6089 47.9867C59.5111 45.7527 54.8755 48.1795 49.0245 50.1258L48.1077 33.9302C53.9176 30.8336 59.4569 29.9987 64.6089 32.4023L64.6089 47.9867Z" fill="#E15145"/>
<path d="M70.707 26.0624C76.0945 26.0624 80.462 21.695 80.462 16.3075C80.462 10.9199 76.0945 6.55249 70.707 6.55249C65.3195 6.55249 60.952 10.9199 60.952 16.3075C60.952 21.695 65.3195 26.0624 70.707 26.0624Z" fill="#FFB8B8"/>
<path d="M82.3771 15.0767C72.7188 16.0226 65.3593 14.443 60.6558 9.9455V6.32349H81.5574L82.3771 15.0767Z" fill="#2F2E41"/>
</svg>
