<svg width="47" height="49" viewBox="0 0 47 49" fill="none" xmlns="http://www.w3.org/2000/svg">
<path d="M23.8967 47.1464L23.8905 47.1478C21.6259 47.6713 19.4392 45.9696 19.3941 43.6694L19.3938 43.6594C19.3732 42.8751 19.3799 42.1121 19.3869 41.3154C19.3906 40.9007 19.3943 40.4768 19.3943 40.036V39.9683V39.9007V39.833V39.7653V39.6977V39.63V39.5623V39.4947V39.427V39.3593V39.2917V39.224V39.1563V39.0887V39.021V38.9533V38.8856V38.818V38.7503V38.6826V38.6149V38.5473V38.4796V38.4119V38.3443V38.2766V38.2089V38.1412V38.0736V38.0059V37.9382V37.8705V37.8028V37.7352V37.6675V37.5998V37.5321V37.4645V37.3968V37.3291V37.2614V37.1937V37.1261V37.0584V36.9907V36.923V36.8553V36.7877V36.72V36.6523V36.5846V36.5169V36.4492V36.3816V36.3139V36.2462V36.1785V36.1108V36.0431V35.9754V35.9078V35.8401V35.7724V35.7047V35.637V35.5693V35.5016V35.434V35.3663V35.2986V35.2309V35.1632V35.0955V35.0278V34.9601V34.8925V34.8248V34.7571V34.6894V34.6217V34.554V34.4863V34.4186V34.3509V34.2832V34.2155V34.1479V34.0802V34.0125V33.9448V33.8771V33.8094V33.7417V33.674V33.6063V33.5386V33.4709V33.4032V33.3355V33.2678V33.2001V33.1324V33.0647V32.997V32.9294V32.8617V32.794V32.7263V32.6586V32.5909V32.5232V32.4555V32.3878V32.3201V32.2524V32.1847V32.117V32.0493V31.9816V31.9139V31.8462V31.7785V31.7108V31.6431V31.5754V31.5077V31.44V31.3723V31.3046V31.2369V31.1692V31.1015V31.0338V30.9661V30.8984V30.8307V30.763V30.6953V30.6276V30.5599V30.4921V30.4244V30.3567V30.289V30.2213V30.1536V30.0859V30.0182V29.9505V29.8828V29.8151V29.7474V29.6797V29.612V29.5443V29.4766V29.4089V29.3412V29.2735V29.2058V29.1381V29.0703V29.0026V28.9349V28.8672V28.7995V28.7318V28.6641V28.5964V28.5287V28.461V28.3933V28.3256V28.2579V28.1902V28.1224V28.0547V27.987V27.9193V27.8516V27.7839V27.7162V27.6485V27.5808V27.5131V27.4454V27.3776V27.3099V27.2422V27.1745V27.1068V27.0391V26.9714V26.9037V26.836V26.7683V26.7005V26.6328V26.5651V26.4974V26.4297V26.362V26.2943V26.2266V26.1589V26.0912V26.0234V25.9557V25.888V25.8203V25.7526V25.6849V25.6172V25.5495V25.4818V25.414V25.3463V25.2786V25.2109V25.1432V25.0755V25.0078V24.9401V24.8723V24.8046V24.7369V24.6692V24.6015V24.5338V24.4661V24.3984V24.3306V24.2629V24.1952V24.1275V24.0598V23.9921V23.9244V23.8567V23.7889V23.7212V23.6535V23.5858V23.5181V23.4504V23.3827V23.315V23.2472V23.1795V23.1118V23.0441V22.9764V22.9087V22.841V22.7733V22.7055V22.6378V22.5701V22.5024V22.4347V22.367V22.2993V22.2316V22.1638V22.0961V22.0284V21.9607V21.893V21.8253V21.7576V21.6899V21.6221V21.5544V21.4867V21.419V21.3513V21.2836V21.2159V21.1482V21.0804V21.0127V20.945V20.8773V20.8096V20.7419V20.6742V20.6065V20.5387V20.471V20.4033V20.3356V20.2679V20.2002V20.1325V20.0648V19.9971V19.9293V19.8616V19.7939V19.7262V19.6585V19.5908V19.5231V19.4554V19.3876V19.3199V19.2522V19.1845V19.1168V19.0491V18.9814V18.9137V18.846V18.7783V18.7105V18.6428V18.5751V18.5074V18.4397V18.372V18.3043V18.2366V18.1689V18.1012V18.0334V17.9657V17.898V17.8303V17.7626V17.6949V17.6272V17.5595V17.4918V17.4241V17.3564V17.2886V17.2209V17.1532V17.0855V17.0178V16.9501V16.8824V16.8147V16.747V16.6793V16.6116V16.5439V16.4762V16.4085V16.3407V16.273V16.2053V16.1376V16.0699V16.0022V15.9345V15.8668V15.7991V15.7314V15.6637V15.596V15.5283V15.4606V15.3929V15.3252V15.2575V15.1898V15.1221V15.0543V14.9866V14.9189V14.8512V14.7835V14.7158V14.6481V14.5804V14.5127V14.445V14.3773V14.3096V14.2419V14.1742V14.1065V14.0388V13.9711V13.9034V13.8357V13.768V13.7003V13.6326V13.5649V13.4972V13.4295V13.3618V13.2941V13.2264V13.1587V13.091V13.0233V12.9556V12.8879V12.8202V12.7525V12.6848V12.6171V12.5494V12.4817V12.414V12.3463V12.2787V12.211V12.1433V12.0756V12.0079V11.9402V11.8725V11.8048V11.7371V11.6694V11.6017V11.534V11.4663V11.3986V11.3309V11.2632V11.1955V11.1279V11.0602V10.9925V10.9248V10.8571V10.7894V10.7217V10.654V10.5863V10.5186V10.451V10.3833V10.3156V10.2479V10.1802V10.1125V10.0448V9.97713V9.90944V9.84176V9.77407V9.70638V9.6387V9.57101V9.50333V9.43564V9.36796V9.30027V9.23259V9.1649V9.09722V9.02953V8.96185V8.89417V8.82648V8.7588V8.69112V8.62344V8.55576V8.48807V8.42039V8.35271V8.28503V8.21735V8.14967V8.08199V8.01431V7.94663V7.87896V7.81128V7.7436V7.67592V7.60824V7.54057V7.47289V7.40521V7.33754V7.26986V7.20219V7.13451V7.06684V6.99916V6.93149V6.86382V6.79614V6.72847V6.6608V6.59312V6.52545V6.45778V6.39011V6.32244V6.25477V6.1871V6.11943V6.05176V5.98409V5.91642V5.84875V5.78108V5.71341V5.64575V5.57808V5.51041V5.44275V5.37508C19.3943 3.50021 20.4979 2.07054 22.0652 1.63952C24.4658 0.985671 26.7616 2.71533 26.775 5.20277C26.775 8.39513 26.771 11.5916 26.7671 14.7932L26.767 14.8062C26.763 18.013 26.759 21.2249 26.759 24.441V24.4781V24.5152V24.5523V24.5894V24.6266V24.6637V24.7008V24.7379V24.775V24.8121V24.8492V24.8863V24.9235V24.9606V24.9977V25.0348V25.0719V25.109V25.1461V25.1833V25.2204V25.2575V25.2946V25.3317V25.3688V25.4059V25.443V25.4802V25.5173V25.5544V25.5915V25.6286V25.6657V25.7028V25.74V25.7771V25.8142V25.8513V25.8884V25.9255V25.9626V25.9998V26.0369V26.074V26.1111V26.1482V26.1853V26.2224V26.2595V26.2967V26.3338V26.3709V26.408V26.4451V26.4822V26.5193V26.5565V26.5936V26.6307V26.6678V26.7049V26.742V26.7791V26.8163V26.8534V26.8905V26.9276V26.9647V27.0018V27.039V27.0761V27.1132V27.1503V27.1874V27.2245V27.2616V27.2988V27.3359V27.373V27.4101V27.4472V27.4843V27.5215V27.5586V27.5957V27.6328V27.6699V27.707V27.7441V27.7813V27.8184V27.8555V27.8926V27.9297V27.9668V28.004V28.0411V28.0782V28.1153V28.1524V28.1895V28.2267V28.2638V28.3009V28.338V28.3751V28.4122V28.4494V28.4865V28.5236V28.5607V28.5978V28.6349V28.6721V28.7092V28.7463V28.7834V28.8205V28.8577V28.8948V28.9319V28.969V29.0061V29.0432V29.0804V29.1175V29.1546V29.1917V29.2288V29.266V29.3031V29.3402V29.3773V29.4144V29.4516V29.4887V29.5258V29.5629V29.6V29.6372V29.6743V29.7114V29.7485V29.7856V29.8228V29.8599V29.897V29.9341V29.9712V30.0084V30.0455V30.0826V30.1197V30.1569V30.194V30.2311V30.2682V30.3053V30.3425V30.3796V30.4167V30.4538V30.4909V30.5281V30.5652V30.6023V30.6394V30.6766V30.7137V30.7508V30.7879V30.8251V30.8622V30.8993V30.9364V30.9736V31.0107V31.0478V31.0849V31.1221V31.1592V31.1963V31.2334V31.2706V31.3077V31.3448V31.3819V31.4191V31.4562V31.4933V31.5304V31.5676V31.6047V31.6418V31.6789V31.7161V31.7532V31.7903V31.8274V31.8646V31.9017V31.9388V31.976V32.0131V32.0502V32.0873V32.1245V32.1616V32.1987V32.2359V32.273V32.3101V32.3472V32.3844V32.4215V32.4586V32.4958V32.5329V32.57V32.6072V32.6443V32.6814V32.7185V32.7557V32.7928V32.8299V32.8671V32.9042V32.9413V32.9785V33.0156V33.0527V33.0899V33.127V33.1641V33.2013V33.2384V33.2755V33.3127V33.3498V33.3869V33.4241V33.4612V33.4983V33.5355V33.5726V33.6097V33.6469V33.684V33.7211V33.7583V33.7954V33.8325V33.8697V33.9068V33.944V33.9811V34.0182V34.0554V34.0925V34.1296V34.1668V34.2039V34.2411V34.2782V34.3153V34.3525V34.3896V34.4267V34.4639V34.501V34.5382V34.5753V34.6124V34.6496V34.6867V34.7239V34.761V34.7981V34.8353V34.8724V34.9096V34.9467V34.9839V35.021V35.0581V35.0953V35.1324V35.1696V35.2067V35.2439V35.281V35.3181V35.3553V35.3924V35.4296V35.4667V35.5039V35.541V35.5782V35.6153V35.6524V35.6896V35.7267V35.7639V35.801V35.8382V35.8753V35.9125V35.9496V35.9868V36.0239V36.0611V36.0982V36.1354V36.1725V36.2097V36.2468V36.284V36.3211V36.3583V36.3954V36.4326V36.4697V36.5069V36.544V36.5812V36.6183V36.6555V36.6926V36.7298V36.7669V36.8041V36.8412V36.8784V36.9155V36.9527V36.9898V37.027V37.0641V37.1013V37.1385V37.1756V37.2128V37.2499V37.2871V37.3242V37.3614V37.3985V37.4357V37.4729V37.51V37.5472V37.5843V37.6215V37.6586V37.6958V37.733V37.7701V37.8073V37.8444V37.8816V37.9188V37.9559V37.9931V38.0302V38.0674V38.1046V38.1417V38.1789V38.2161V38.2532V38.2904V38.3275V38.3647V38.4019V38.439V38.4762V38.5134V38.5505V38.5877V38.6249V38.662V38.6992V38.7364V38.7735V38.8107V38.8479V38.885V38.9222V38.9594V38.9965V39.0337V39.0709V39.108V39.1452V39.1824V39.2195V39.2567V39.2939V39.331V39.3682V39.4054V39.4426V39.4797V39.5169V39.5541V39.5912V39.6284V39.6656V39.7028V39.7399V39.7771V39.8143V39.8515V39.8886V39.9258V39.963V40.0002V40.0373V40.0745V40.1117V40.1489V40.186V40.2232V40.2604V40.2976V40.3348V40.3719V40.4091V40.4463V40.4835V40.5207V40.5578V40.595V40.6322V40.6694V40.7066V40.7437V40.7809V40.8181V40.8553V40.8925V40.9297V40.9668V41.004V41.0412V41.0784V41.1156V41.1528V41.19V41.2271V41.2643V41.3015V41.3387V41.3759V41.4131V41.4503V41.4874V41.5246V41.5618V41.599V41.6362V41.6734V41.7106V41.7478V41.785V41.8222V41.8593V41.8965V41.9337V41.9709V42.0081V42.0453V42.0825V42.1197V42.1569V42.1941V42.2313V42.2685V42.3057V42.3429V42.3801V42.4173V42.4545V42.4917V42.5289V42.5661V42.6033V42.6405V42.6777V42.7149V42.7521V42.7892V42.8265V42.8637V42.9009V42.9381V42.9753V43.0125V43.0497V43.0869V43.1241V43.1613V43.1985V43.2357V43.2729V43.3101V43.3473V43.3845V43.4217V43.4589C26.759 45.3232 25.5916 46.7622 23.8967 47.1464Z" stroke="black" stroke-width="3"/>
<path d="M44.6736 43.411L44.6736 43.4119C44.7199 45.5389 42.9683 47.1995 41.1975 47.2217C38.928 47.2447 37.3203 45.6924 37.3086 43.5161C37.2766 35.8913 37.2766 28.2506 37.3086 20.6258C37.3207 18.4791 38.7886 16.9467 40.8809 16.8548L40.8818 16.8547C43.1614 16.7532 44.6436 18.6058 44.6573 20.304C44.6573 21.5975 44.6555 22.8951 44.6538 24.1949C44.6502 26.8054 44.6466 29.4254 44.6573 32.042C44.6573 33.1849 44.6513 34.3369 44.6453 35.494C44.6316 38.1222 44.6178 40.7768 44.6736 43.411Z" stroke="black" stroke-width="3"/>
<path d="M5.79764 47.1704L5.79588 47.1708C3.6512 47.5997 1.512 45.8534 1.512 43.7472L1.51199 43.7441C1.496 35.9407 1.496 28.1212 1.512 20.3018V20.2987C1.512 18.5585 3.00967 16.953 5.08159 16.8212L5.08298 16.8212C6.7591 16.713 8.54499 18.1597 8.79426 19.8922C8.84929 20.3218 8.87669 20.7504 8.87669 21.1784V21.1997V21.221V21.2422V21.2635V21.2848V21.306V21.3273V21.3486V21.3699V21.3911V21.4124V21.4337V21.4549V21.4762V21.4975V21.5187V21.54V21.5613V21.5826V21.6038V21.6251V21.6464V21.6676V21.6889V21.7102V21.7314V21.7527V21.7739V21.7952V21.8165V21.8377V21.859V21.8803V21.9015V21.9228V21.9441V21.9653V21.9866V22.0078V22.0291V22.0504V22.0716V22.0929V22.1141V22.1354V22.1567V22.1779V22.1992V22.2204V22.2417V22.2629V22.2842V22.3055V22.3267V22.348V22.3692V22.3905V22.4117V22.433V22.4542V22.4755V22.4967V22.518V22.5392V22.5605V22.5818V22.603V22.6243V22.6455V22.6668V22.688V22.7093V22.7305V22.7518V22.773V22.7943V22.8155V22.8368V22.858V22.8792V22.9005V22.9217V22.943V22.9642V22.9855V23.0067V23.028V23.0492V23.0705V23.0917V23.113V23.1342V23.1554V23.1767V23.1979V23.2192V23.2404V23.2617V23.2829V23.3041V23.3254V23.3466V23.3679V23.3891V23.4103V23.4316V23.4528V23.4741V23.4953V23.5165V23.5378V23.559V23.5803V23.6015V23.6227V23.644V23.6652V23.6864V23.7077V23.7289V23.7501V23.7714V23.7926V23.8138V23.8351V23.8563V23.8776V23.8988V23.92V23.9413V23.9625V23.9837V24.0049V24.0262V24.0474V24.0686V24.0899V24.1111V24.1323V24.1536V24.1748V24.196V24.2173V24.2385V24.2597V24.2809V24.3022V24.3234V24.3446V24.3659V24.3871V24.4083V24.4295V24.4508V24.472V24.4932V24.5144V24.5357V24.5569V24.5781V24.5993V24.6206V24.6418V24.663V24.6842V24.7055V24.7267V24.7479V24.7691V24.7904V24.8116V24.8328V24.854V24.8752V24.8965V24.9177V24.9389V24.9601V24.9813V25.0026V25.0238V25.045V25.0662V25.0874V25.1087V25.1299V25.1511V25.1723V25.1935V25.2148V25.236V25.2572V25.2784V25.2996V25.3208V25.3421V25.3633V25.3845V25.4057V25.4269V25.4481V25.4694V25.4906V25.5118V25.533V25.5542V25.5754V25.5966V25.6179V25.6391V25.6603V25.6815V25.7027V25.7239V25.7451V25.7663V25.7876V25.8088V25.83V25.8512V25.8724V25.8936V25.9148V25.936V25.9572V25.9785V25.9997V26.0209V26.0421V26.0633V26.0845V26.1057V26.1269V26.1481V26.1693V26.1905V26.2118V26.233V26.2542V26.2754V26.2966V26.3178V26.339V26.3602V26.3814V26.4026V26.4238V26.445V26.4662V26.4874V26.5086V26.5298V26.5511V26.5723V26.5935V26.6147V26.6359V26.6571V26.6783V26.6995V26.7207V26.7419V26.7631V26.7843V26.8055V26.8267V26.8479V26.8691V26.8903V26.9115V26.9327V26.9539V26.9751V26.9963V27.0175V27.0387V27.0599V27.0811V27.1023V27.1235V27.1447V27.1659V27.1871V27.2083V27.2295V27.2507V27.2719V27.2931V27.3143V27.3355V27.3567V27.3779V27.3991V27.4203V27.4415V27.4627V27.4839V27.5051V27.5263V27.5475V27.5687V27.5899V27.6111V27.6323V27.6535V27.6747V27.6959V27.7171V27.7382V27.7594V27.7806V27.8018V27.823V27.8442V27.8654V27.8866V27.9078V27.929V27.9502V27.9714V27.9926V28.0138V28.035V28.0562V28.0774V28.0986V28.1197V28.1409V28.1621V28.1833V28.2045V28.2257V28.2469V28.2681V28.2893V28.3105V28.3317V28.3529V28.3741V28.3952V28.4164V28.4376V28.4588V28.48V28.5012V28.5224V28.5436V28.5648V28.586V28.6071V28.6283V28.6495V28.6707V28.6919V28.7131V28.7343V28.7555V28.7767V28.7979V28.819V28.8402V28.8614V28.8826V28.9038V28.925V28.9462V28.9674V28.9886V29.0097V29.0309V29.0521V29.0733V29.0945V29.1157V29.1369V29.1581V29.1792V29.2004V29.2216V29.2428V29.264V29.2852V29.3064V29.3275V29.3487V29.3699V29.3911V29.4123V29.4335V29.4547V29.4759V29.497V29.5182V29.5394V29.5606V29.5818V29.603V29.6242V29.6453V29.6665V29.6877V29.7089V29.7301V29.7513V29.7724V29.7936V29.8148V29.836V29.8572V29.8784V29.8996V29.9207V29.9419V29.9631V29.9843V30.0055V30.0267V30.0478V30.069V30.0902V30.1114V30.1326V30.1538V30.1749V30.1961V30.2173V30.2385V30.2597V30.2809V30.302V30.3232V30.3444V30.3656V30.3868V30.408V30.4291V30.4503V30.4715V30.4927V30.5139V30.5351V30.5562V30.5774V30.5986V30.6198V30.641V30.6622V30.6833V30.7045V30.7257V30.7469V30.7681V30.7892V30.8104V30.8316V30.8528V30.874V30.8952V30.9163V30.9375V30.9587V30.9799V31.0011V31.0222V31.0434V31.0646V31.0858V31.107V31.1282V31.1493V31.1705V31.1917V31.2129V31.2341V31.2552V31.2764V31.2976V31.3188V31.34V31.3611V31.3823V31.4035V31.4247V31.4459V31.4671V31.4882V31.5094V31.5306V31.5518V31.573V31.5941V31.6153V31.6365V31.6577V31.6789V31.7V31.7212V31.7424V31.7636V31.7848V31.8059V31.8271V31.8483V31.8695V31.8907V31.9118V31.933V31.9542V31.9754V31.9966V32.0178V32.0389C8.87669 33.2965 8.87847 34.5517 8.88025 35.8057C8.8838 38.3085 8.88735 40.8064 8.87671 43.3079C8.86421 45.3579 7.64664 46.8029 5.79764 47.1704Z" stroke="black" stroke-width="3"/>
</svg>
