<svg width="199" height="188" viewBox="0 0 199 188" fill="none" xmlns="http://www.w3.org/2000/svg">
<path d="M98.0718 188C151.355 188 194.55 165.167 194.55 137C194.55 108.834 151.355 86.0004 98.0718 86.0004C44.7883 86.0004 1.59355 108.834 1.59355 137C1.59355 165.167 44.7883 188 98.0718 188Z" fill="#F5F5F5"/>
<path d="M98.0717 134.33C106.1 134.33 112.608 130.677 112.608 126.17C112.608 121.663 106.1 118.009 98.0717 118.009C90.0434 118.009 83.5352 121.663 83.5352 126.17C83.5352 130.677 90.0434 134.33 98.0717 134.33Z" fill="#E0E0E0"/>
<path d="M152.284 156.138C164.975 156.138 175.263 150.365 175.263 143.242C175.263 136.12 164.975 130.347 152.284 130.347C139.592 130.347 129.304 136.12 129.304 143.242C129.304 150.365 139.592 156.138 152.284 156.138Z" fill="#E0E0E0"/>
<path d="M39.5197 157.532C52.2109 157.532 62.4992 151.758 62.4992 144.636C62.4992 137.514 52.2109 131.74 39.5197 131.74C26.8285 131.74 16.5403 137.514 16.5403 144.636C16.5403 151.758 26.8285 157.532 39.5197 157.532Z" fill="#E0E0E0"/>
<path d="M186.604 134.079L182.264 132.353C181.718 128.706 181.404 125.031 181.322 121.346C181.322 114.454 185.74 106.024 191.346 107.435C196.951 108.845 189.765 116.557 188.599 122.513C187.433 128.47 186.604 134.079 186.604 134.079Z" fill="#DC1F26"/>
<path opacity="0.3" d="M186.604 134.079L182.264 132.353C181.718 128.706 181.404 125.031 181.322 121.346C181.322 114.454 185.74 106.024 191.346 107.435C196.951 108.845 189.765 116.557 188.599 122.513C187.433 128.47 186.604 134.079 186.604 134.079Z" fill="black"/>
<path d="M184.501 133.545C184.548 133.539 184.591 133.515 184.62 133.478C184.649 133.441 184.662 133.394 184.656 133.348C182.587 118.236 189.579 109.84 189.648 109.769C189.679 109.732 189.694 109.686 189.69 109.639C189.685 109.592 189.662 109.549 189.625 109.519C189.587 109.489 189.539 109.474 189.491 109.479C189.443 109.483 189.399 109.506 189.368 109.542C189.299 109.626 182.203 118.122 184.293 133.394C184.296 133.417 184.304 133.44 184.317 133.46C184.329 133.48 184.345 133.498 184.364 133.512C184.384 133.526 184.406 133.536 184.429 133.542C184.452 133.548 184.477 133.549 184.501 133.545Z" fill="white"/>
<path d="M188.832 135.086L186.565 134.087C185.886 130.691 185.989 127.192 186.867 123.84C188.323 118.408 193.168 115.058 195.608 115.612C198.592 116.288 198.882 118.97 198.009 120.838C196.968 123.051 189.791 129.041 188.832 135.086Z" fill="#DC1F26"/>
<path opacity="0.1" d="M188.832 135.086L186.565 134.087C185.886 130.691 185.989 127.192 186.867 123.84C188.323 118.408 193.168 115.058 195.608 115.612C198.592 116.288 198.882 118.97 198.009 120.838C196.968 123.051 189.791 129.041 188.832 135.086Z" fill="black"/>
<path d="M187.653 134.738C187.702 134.732 187.746 134.709 187.777 134.672C187.808 134.635 187.822 134.587 187.817 134.54C186.798 124.952 195.405 117.581 195.496 117.509C195.529 117.475 195.547 117.43 195.547 117.384C195.547 117.337 195.529 117.292 195.496 117.258C195.479 117.241 195.459 117.228 195.437 117.218C195.414 117.209 195.39 117.205 195.366 117.205C195.342 117.205 195.318 117.209 195.296 117.218C195.274 117.228 195.254 117.241 195.237 117.258C195.146 117.333 186.401 124.814 187.433 134.595C187.443 134.642 187.472 134.683 187.513 134.71C187.554 134.736 187.605 134.746 187.653 134.738Z" fill="white"/>
<path d="M14.2904 130.217L17.2702 128.563C17.2702 128.563 18.6954 120.918 17.6287 114.344C16.1258 105.109 9.65216 101.915 7.30283 102.834C4.95349 103.753 4.4007 106.49 8.64592 111.83C11.1507 114.978 14.3724 121.64 14.2904 130.217Z" fill="#DC1F26"/>
<g opacity="0.15">
<path d="M14.2904 130.217L17.2702 128.563C17.2702 128.563 18.6954 120.918 17.6287 114.344C16.1258 105.109 9.65216 101.915 7.30283 102.834C4.95349 103.753 4.4007 106.49 8.64592 111.83C11.1507 114.978 14.3724 121.64 14.2904 130.217Z" fill="black"/>
</g>
<path d="M15.37 126.547H15.3398C15.3125 126.544 15.2861 126.535 15.2623 126.521C15.2386 126.508 15.2178 126.49 15.2013 126.468C15.1848 126.447 15.1729 126.422 15.1663 126.396C15.1597 126.37 15.1585 126.343 15.1627 126.317C16.3892 117.665 12.8134 108.186 8.78844 104.366C8.76345 104.348 8.74266 104.326 8.72749 104.299C8.71232 104.273 8.70311 104.244 8.70048 104.214C8.69786 104.184 8.70189 104.154 8.71229 104.126C8.7227 104.097 8.73923 104.072 8.76079 104.05C8.78234 104.028 8.8084 104.012 8.83722 104.001C8.86603 103.99 8.89692 103.985 8.92779 103.987C8.95867 103.988 8.98881 103.997 9.01617 104.011C9.04354 104.025 9.0675 104.044 9.08642 104.068C13.1805 107.938 16.8297 117.593 15.586 126.367C15.5786 126.417 15.5527 126.464 15.513 126.497C15.4732 126.53 15.4224 126.548 15.37 126.547Z" fill="white"/>
<path d="M6.03315 134.855C5.56242 135.115 4.59504 134.544 4.22364 134.301C3.58658 133.874 3.07224 133.296 2.72939 132.622C2.34651 131.86 2.21672 131.002 2.35799 130.166C2.43275 129.724 2.53954 129.288 2.67757 128.86L3.05329 127.601C3.20132 127.198 3.26589 126.77 3.24331 126.342C3.13102 125.473 2.3364 124.868 1.6195 124.344C0.820557 123.764 -0.00430175 123 1.68848e-05 121.955C0.0557392 121.145 0.38868 120.377 0.945797 119.772C1.4554 119.138 2.06432 118.58 2.53074 117.912C2.89632 117.444 3.08399 116.867 3.06193 116.279C3.01246 115.922 2.88906 115.578 2.69916 115.268C2.26227 114.622 1.88094 113.943 1.55904 113.236C1.29561 112.506 1.33447 111.599 1.92181 111.074C2.18318 110.884 2.48095 110.747 2.79763 110.671C3.1143 110.594 3.44349 110.58 3.76586 110.629C4.37908 110.699 4.96885 110.9 5.49332 111.217C7.19918 112.136 8.17087 114.101 9.98037 114.81C10.6968 115.027 11.4267 115.2 12.1656 115.327C12.5365 115.393 12.8888 115.535 13.1998 115.743C13.5107 115.95 13.7734 116.219 13.9708 116.531C14.6359 117.82 13.405 119.407 13.8715 120.775C14.3033 121.984 15.4953 122.455 16.1733 123.542C16.4512 124.023 16.5632 124.577 16.4929 125.124C16.4326 126.05 16.1999 126.958 15.8062 127.803C15.3632 128.643 14.8565 129.449 14.2904 130.216C14.2645 130.246 6.10656 134.805 6.03315 134.855Z" fill="#DC1F26"/>
<path d="M10.8657 132.353C10.8373 132.352 10.8095 132.346 10.7837 132.334C10.7579 132.322 10.7347 132.306 10.7155 132.286C10.6962 132.266 10.6813 132.242 10.6715 132.216C10.6617 132.19 10.6572 132.162 10.6584 132.135C11.0082 123.949 7.03939 114.924 4.15454 112.279C4.11525 112.24 4.0932 112.188 4.0932 112.134C4.0932 112.08 4.11525 112.028 4.15454 111.989C4.19491 111.951 4.24918 111.929 4.3057 111.929C4.36222 111.929 4.41648 111.951 4.45685 111.989C7.38056 114.655 11.4358 123.848 11.0773 132.156C11.0751 132.209 11.0518 132.259 11.0124 132.296C10.9729 132.333 10.9204 132.353 10.8657 132.353Z" fill="white"/>
<path d="M9.60465 122.677H9.53987C7.54448 122.144 5.49563 121.821 3.42901 121.716C3.37174 121.716 3.31681 121.694 3.27632 121.654C3.23582 121.615 3.21307 121.562 3.21307 121.506C3.21307 121.45 3.23582 121.397 3.27632 121.357C3.31681 121.318 3.37174 121.296 3.42901 121.296C5.53226 121.402 7.61743 121.73 9.64784 122.274C9.6745 122.282 9.69935 122.295 9.72095 122.312C9.74255 122.329 9.76048 122.35 9.77372 122.373C9.78695 122.397 9.79524 122.423 9.79809 122.45C9.80094 122.477 9.79831 122.504 9.79035 122.53C9.77776 122.57 9.75341 122.605 9.72037 122.631C9.68733 122.657 9.64706 122.673 9.60465 122.677Z" fill="white"/>
<path d="M163.642 140.581L159.617 140.132L158.576 132.248L163.495 133.667L163.642 140.581Z" fill="#B16668"/>
<path d="M154.823 147.012C154.765 147.167 154.741 147.333 154.753 147.498C154.765 147.663 154.812 147.823 154.892 147.969C155.324 148.456 156.438 149.027 157.958 149.132C159.414 149.233 160.709 149.044 161.56 148.519C161.93 148.333 162.247 148.061 162.482 147.727C162.717 147.393 162.863 147.007 162.907 146.605C162.989 145.803 162.907 145.027 163.292 144.409C163.676 143.792 164.233 143.192 164.358 142.881C164.508 142.345 164.508 141.78 164.358 141.244L154.823 147.012Z" fill="#263238"/>
<path d="M158.8 139.993C158.787 140.298 158.731 140.599 158.632 140.888C158.409 141.509 158.111 142.103 157.742 142.655C157.561 142.948 157.359 143.229 157.138 143.494C156.706 144.002 156.153 144.422 155.687 144.909C155.192 145.368 154.875 145.979 154.788 146.639C154.728 147.747 156.542 148.125 157.496 148.288C158.525 148.463 159.582 148.412 160.588 148.137C161.117 148.003 161.594 147.724 161.963 147.333C162.332 146.943 162.578 146.456 162.67 145.933C162.726 145.623 162.704 145.308 162.743 145.001C162.869 144.294 163.173 143.627 163.629 143.062C163.893 142.736 164.12 142.382 164.307 142.008C164.605 141.324 164.367 140.552 164.177 139.872C164.013 139.28 163.814 138.612 163.598 138.658C163.598 138.965 163.598 139.007 163.387 139.213C163.175 139.418 163.093 139.872 162.791 140.103C162.887 139.847 162.958 139.582 163.002 139.313C163.021 139.206 162.998 139.095 162.938 139.003C162.837 138.915 162.718 138.852 162.588 138.818C162.139 138.672 161.676 138.569 161.206 138.512C160.564 138.44 159.917 138.44 159.275 138.512C159.142 138.535 159.021 138.603 158.934 138.705C158.857 138.816 158.814 138.948 158.813 139.082C158.792 139.242 158.809 139.7 158.8 139.993Z" fill="#455A64"/>
<path d="M157.587 142.89C158.019 142.579 159.543 142.575 160.061 142.63C160.59 142.673 161.098 142.847 161.538 143.133C161.603 143.178 161.682 143.199 161.761 143.193C161.84 143.187 161.914 143.154 161.97 143.1C162.003 143.068 162.028 143.03 162.044 142.988C162.061 142.946 162.067 142.902 162.064 142.857C162.061 142.812 162.048 142.769 162.025 142.73C162.003 142.69 161.973 142.656 161.936 142.63C161.452 142.282 160.877 142.074 160.277 142.029C159.529 141.976 158.777 142.018 158.04 142.155C158.04 142.155 157.462 142.52 157.587 142.89Z" fill="#F5F5F5"/>
<path d="M156.611 144.04C157.146 143.734 158.77 143.776 159.293 143.83C159.811 143.882 160.305 144.066 160.726 144.363C160.791 144.407 160.87 144.428 160.949 144.422C161.027 144.416 161.101 144.383 161.158 144.33C161.191 144.298 161.216 144.26 161.233 144.218C161.249 144.176 161.255 144.132 161.252 144.087C161.249 144.042 161.236 143.999 161.214 143.96C161.191 143.92 161.161 143.886 161.124 143.86C160.415 143.503 159.642 143.283 158.848 143.213C157.552 143.125 157.237 143.377 157.237 143.377C157.088 143.435 156.955 143.525 156.847 143.64C156.738 143.754 156.658 143.891 156.611 144.04Z" fill="#F5F5F5"/>
<path d="M160.787 140.841C160.056 140.76 159.317 140.804 158.602 140.971C158.377 141.093 158.226 141.442 158.373 141.53C159.025 141.359 159.702 141.293 160.377 141.337C160.855 141.383 161.323 141.508 161.759 141.706C161.871 141.756 162 141.819 162.113 141.882C162.149 141.905 162.189 141.919 162.232 141.925C162.274 141.931 162.317 141.927 162.358 141.915C162.399 141.903 162.437 141.883 162.469 141.856C162.501 141.828 162.527 141.794 162.545 141.756C162.575 141.695 162.581 141.624 162.561 141.558C162.541 141.492 162.497 141.435 162.437 141.4C161.934 141.101 161.372 140.911 160.787 140.841Z" fill="#F5F5F5"/>
<path d="M148.634 136.996L144.808 135.959V128.441L149.554 128.642L148.634 136.996Z" fill="#B16668"/>
<path d="M136.723 141.022C136.616 141.346 136.636 141.698 136.78 142.008C136.922 142.294 138.473 143.146 140.563 143.007C142.111 142.899 143.602 142.392 144.881 141.538C145.676 141.026 146.505 140.929 147.542 140.875C148.578 140.82 149.934 140.312 150.163 139.842C150.28 139.421 150.268 138.976 150.129 138.562L136.723 141.022Z" fill="#263238"/>
<path d="M145.145 134.683L144.981 134.649C144.89 134.628 144.795 134.628 144.704 134.649C144.604 134.681 144.514 134.739 144.445 134.817C144.241 135.073 144.063 135.347 143.914 135.636C143.482 136.328 142.554 136.895 141.552 137.428C140.869 137.785 140.2 138.062 139.496 138.369C138.792 138.675 137.82 138.877 137.259 139.246C136.438 139.783 136.33 141.131 137.259 141.664C138.062 142.126 140.187 142.625 142.411 142.012C143.62 141.677 144.968 140.421 146.557 140.3C147.568 140.22 149.481 139.947 150.133 139.2C150.375 138.868 150.051 137.819 149.787 136.912C149.498 135.921 149.226 134.393 148.889 134.465C148.892 134.535 148.877 134.606 148.847 134.67C148.816 134.734 148.77 134.791 148.712 134.834C148.587 134.96 148.418 135.04 148.28 135.153C148.044 135.378 147.854 135.645 147.719 135.938C147.664 136.069 147.563 136.176 147.434 136.24C147.261 136.299 147.136 136.198 147.002 136.131C146.812 136.047 146.597 136.032 146.397 136.089C146.418 135.892 146.454 135.697 146.505 135.506C146.524 135.446 146.524 135.381 146.505 135.321C146.481 135.26 146.435 135.209 146.376 135.178C146.006 134.931 145.586 134.762 145.145 134.683Z" fill="#455A64"/>
<path d="M142.51 136.878C142.583 136.743 142.689 136.627 142.82 136.542C142.95 136.457 143.101 136.405 143.258 136.392C143.715 136.308 144.527 136.639 145.033 137.042C145.081 137.08 145.119 137.128 145.143 137.183C145.168 137.238 145.178 137.298 145.172 137.358C145.167 137.418 145.147 137.475 145.114 137.526C145.08 137.576 145.035 137.618 144.981 137.647C144.913 137.684 144.835 137.7 144.757 137.691C144.68 137.683 144.607 137.651 144.549 137.601C143.991 137.112 143.261 136.853 142.51 136.878Z" fill="#F5F5F5"/>
<path d="M141.081 137.655C141.181 137.517 141.314 137.405 141.468 137.328C141.622 137.25 141.793 137.21 141.966 137.21C142.676 137.24 143.358 137.489 143.914 137.92C143.959 137.956 143.995 138.003 144.018 138.056C144.041 138.109 144.05 138.167 144.045 138.224C144.04 138.282 144.021 138.337 143.989 138.386C143.957 138.434 143.913 138.474 143.862 138.503C143.795 138.542 143.716 138.559 143.638 138.551C143.56 138.542 143.487 138.509 143.43 138.457C143.125 138.162 142.755 137.936 142.349 137.798C141.942 137.659 141.509 137.61 141.081 137.655Z" fill="#F5F5F5"/>
<path d="M139.531 138.352C139.645 138.225 139.785 138.124 139.943 138.055C140.102 137.986 140.273 137.952 140.446 137.953C141.13 137.994 141.783 138.244 142.312 138.667C142.357 138.704 142.393 138.751 142.416 138.805C142.438 138.858 142.448 138.916 142.443 138.974C142.437 139.031 142.418 139.087 142.386 139.136C142.355 139.185 142.311 139.225 142.26 139.255C142.193 139.294 142.114 139.311 142.036 139.302C141.958 139.294 141.885 139.261 141.828 139.208C141.539 138.903 141.182 138.666 140.783 138.517C140.384 138.369 139.956 138.312 139.531 138.352Z" fill="#F5F5F5"/>
<path d="M162.761 87.944C163.024 95.6974 163.041 112.489 163.041 112.489C163.123 113.454 163.21 115.167 163.283 118.643C163.391 123.68 163.642 136.119 163.642 136.119C163.642 136.119 161.167 137.248 158.891 136.329C158.891 136.329 155.73 118.84 155.082 113.853C154.516 109.5 153.432 99.2908 153.432 99.2908L151.938 112.25C151.938 112.25 151.938 115.608 151.735 118.572C151.567 120.88 149.26 132.773 149.26 132.773C147.754 133.162 146.164 133.111 144.687 132.626C144.687 132.626 144.48 114.37 144.437 112.25C144.389 109.84 145.028 83.7881 145.028 83.7881L162.761 87.944Z" fill="#455A64"/>
<path d="M153.441 99.2907L152.871 94.8955C151.03 94.4381 149.289 93.6617 147.732 92.6035C147.732 92.6035 148.829 94.0308 152.05 95.542L152.776 99.53L151.955 112.25L153.441 99.2907Z" fill="#37474F"/>
<path d="M144.825 66.1864C143.659 67.6724 137.661 75.6736 137.661 75.6736L132.12 71.5009C130.824 70.5144 130.44 69.2215 129.628 68.3273C128.816 67.4332 127.926 67.2191 127.015 66.4719C126.104 65.7246 125.754 65.1579 125.443 65.796C125.132 66.4341 126.139 67.5465 126.307 67.8152C126.475 68.0838 127.516 68.7261 126.143 68.6548C124.77 68.5834 122.127 67.0596 121.487 66.7783C120.848 66.497 120.831 67.2653 121.133 67.769C121.436 68.2727 121.284 69.6748 121.639 70.5774C121.993 71.4799 122.615 72.034 123.88 72.6427C125.059 73.2136 127.926 73.5705 128.859 74.1414C130.906 76.1815 134.767 79.989 135.743 80.6942C137.086 81.6639 138.386 82.5581 140.442 80.6355C142.498 78.7128 148.453 71.1693 148.453 71.1693L149.684 63.9951C147.663 63.9238 146.233 64.3939 144.825 66.1864Z" fill="#B16668"/>
<path d="M137.661 75.6736C138.421 76.2193 139.211 77.4451 139.284 77.995C139.276 77.474 139.156 76.9603 138.933 76.4864C138.71 76.0125 138.389 75.5886 137.989 75.2412L137.661 75.6736Z" fill="#9A4A4D"/>
<path d="M150.159 63.8189C150.159 63.8189 147.308 63.7853 146.056 64.6375C144.804 65.4897 143.875 66.7364 141.841 69.612C140.057 72.1307 139.194 73.3397 139.194 73.3397C140.361 75.0184 142.061 76.2803 144.035 76.933L149.355 70.5271L150.159 63.8189Z" fill="#37474F"/>
<path d="M155.674 63.6845C157.289 63.8356 159.56 63.8524 161.158 64.012C162.268 64.4569 164.41 66.2704 164.25 67.5634C163.654 72.3951 162.45 80.3165 162.45 80.3165L162.847 88.7122C160.623 90.8699 150.215 91.7137 144.851 88.263C144.851 88.263 145.024 73.1843 145.395 70.632C146.056 66.0605 146.635 64.3646 149.062 63.9616C151.489 63.5586 155.674 63.6845 155.674 63.6845Z" fill="#DC1F26"/>
<path d="M164.82 66.3081C165.987 67.7942 171.989 75.7953 171.989 75.7953L177.535 71.6226C178.83 70.6319 179.214 69.339 180.026 68.449C180.838 67.5591 181.728 67.3408 182.639 66.5936C183.55 65.8463 183.9 65.2796 184.211 65.9135C184.522 66.5474 183.516 67.6682 183.347 67.9369C183.179 68.2056 182.138 68.8478 183.512 68.7765C184.885 68.7051 187.524 67.1771 188.167 66.8958C188.81 66.6146 188.819 67.3828 188.521 67.8865C188.223 68.3903 188.366 69.7965 188.016 70.6991C187.666 71.6016 187.04 72.1515 185.774 72.7644C184.596 73.3353 181.728 73.6922 180.795 74.2631C178.748 76.299 174.887 80.1107 173.911 80.8117C172.568 81.7814 171.268 82.6756 169.213 80.7572C167.157 78.8387 162.458 72.8652 162.458 72.8652L159.971 64.1168C161.987 64.0455 163.417 64.5156 164.82 66.3081Z" fill="#B16668"/>
<path d="M171.989 75.7952C171.229 76.3409 170.439 77.5667 170.366 78.1166C170.374 77.5949 170.493 77.0804 170.716 76.6058C170.939 76.1311 171.261 75.7065 171.661 75.3586L171.989 75.7952Z" fill="#9A4A4D"/>
<path d="M159.686 63.907C159.686 63.907 162.247 63.7517 163.594 64.7466C164.808 65.6533 165.753 66.8455 167.809 69.721C169.593 72.2397 170.456 73.4487 170.456 73.4487C169.286 75.1269 167.585 76.3885 165.611 77.0421L161.987 72.7015C160.1 70.3759 158.23 66.8371 159.686 63.907Z" fill="#37474F"/>
<path d="M156.075 52.3167C156.084 53.2798 155.798 54.2237 155.255 55.029C154.712 55.8343 153.935 56.465 153.023 56.8412C152.111 57.2174 151.104 57.3222 150.131 57.1425C149.157 56.9627 148.261 56.5065 147.554 55.8314C146.848 55.1563 146.363 54.2926 146.161 53.3497C145.959 52.4068 146.05 51.4269 146.421 50.534C146.792 49.6411 147.428 48.8752 148.247 48.3332C149.066 47.7913 150.032 47.4975 151.022 47.4892C151.68 47.4837 152.333 47.6041 152.943 47.8438C153.553 48.0834 154.108 48.4374 154.578 48.8857C155.047 49.334 155.42 49.8677 155.677 50.4564C155.934 51.0451 156.07 51.6773 156.075 52.3167Z" fill="#263238"/>
<path d="M159.759 55.7506C159.759 55.7506 158.977 59.4657 158.658 60.0744C158.445 60.4524 158.091 60.7365 157.669 60.8678L157.699 58.2567L159.759 55.7506Z" fill="#263238"/>
<path d="M158.692 50.4486C158.976 50.4133 159.263 50.4415 159.534 50.531C159.804 50.6205 160.049 50.7689 160.251 50.965C160.925 51.624 160.571 53.7062 159.759 55.7505L158.23 55.9352L158.692 50.4486Z" fill="#263238"/>
<path d="M157.772 55.9393C158.079 56.1157 158.511 55.5196 158.887 55.1501C159.262 54.7807 160.489 54.2266 161.119 55.4818C161.75 56.7369 160.601 58.4707 159.634 58.7729C157.963 59.3018 157.699 58.2566 157.699 58.2566L157.63 64.3099C155.574 66.9252 149.792 66.753 152.176 64.0244V62.2361C151.431 62.3575 150.675 62.4011 149.921 62.3663C148.686 62.1942 147.904 61.2538 147.516 59.9609C146.898 57.8872 146.652 56.208 147.127 52.1067C147.645 47.615 153.013 47.5226 155.928 49.2731C158.844 51.0236 157.772 55.9393 157.772 55.9393Z" fill="#B16668"/>
<path d="M157.777 56.439C157.928 56.439 158.507 55.4903 158.887 55.1502C159.409 54.6759 158.692 50.4486 158.692 50.4486C158.872 50.0735 158.931 49.6545 158.861 49.2464C158.792 48.8383 158.598 48.4599 158.304 48.1608C157.574 47.3926 156.555 46.4565 153.273 46.8595C150.927 47.1491 148.384 47.8837 146.315 46.9182C146.131 47.5728 146.152 48.2659 146.375 48.909C146.598 49.552 147.013 50.1159 147.568 50.5284C147.568 50.5284 148.319 50.9902 150.284 51.2042C152.096 51.3201 153.915 51.2709 155.717 51.0573C156.287 50.9776 156.412 51.5107 156.732 52.9757C157.012 54.2561 157.259 56.4348 157.777 56.439Z" fill="#263238"/>
<path d="M158.692 50.7761L160.536 49.7938C160.477 49.6725 160.392 49.5643 160.288 49.4759C160.183 49.3874 160.062 49.3205 159.93 49.2793C159.798 49.238 159.659 49.2233 159.521 49.236C159.384 49.2487 159.25 49.2885 159.129 49.353C158.881 49.4901 158.698 49.7145 158.617 49.9795C158.536 50.2446 158.563 50.5299 158.692 50.7761Z" fill="#263238"/>
<path d="M152.163 62.2362C152.163 62.2362 154.909 61.6737 155.864 61.17C156.426 60.8792 156.885 60.43 157.181 59.8812C157.042 60.428 156.79 60.942 156.442 61.3925C155.747 62.274 152.171 62.9457 152.171 62.9457L152.163 62.2362Z" fill="#9A4A4D"/>
<path d="M151.942 55.5113C151.941 55.5827 151.955 55.6537 151.982 55.7201C152.009 55.7865 152.05 55.847 152.101 55.8981C152.152 55.9493 152.214 55.99 152.281 56.018C152.349 56.046 152.422 56.0606 152.495 56.0612C152.61 56.0654 152.723 56.036 152.821 55.9769C152.918 55.9178 152.995 55.8316 153.042 55.7295C153.088 55.6274 153.102 55.5141 153.082 55.4043C153.062 55.2944 153.008 55.1929 152.927 55.1131C152.847 55.0332 152.744 54.9786 152.632 54.9562C152.519 54.9339 152.402 54.9449 152.296 54.9877C152.19 55.0306 152.1 55.1034 152.037 55.1967C151.974 55.2901 151.941 55.3996 151.942 55.5113Z" fill="#263238"/>
<path d="M153.579 53.6684L152.353 53.1268C152.281 53.2899 152.277 53.4734 152.342 53.6391C152.406 53.8049 152.534 53.9401 152.698 54.0168C152.779 54.0517 152.867 54.0704 152.956 54.0717C153.044 54.0731 153.133 54.057 153.215 54.0245C153.297 53.9919 153.372 53.9437 153.434 53.8825C153.497 53.8213 153.546 53.7485 153.579 53.6684Z" fill="#263238"/>
<path d="M148.332 53.0093L147.265 53.8237C147.316 53.8943 147.381 53.954 147.456 53.9992C147.531 54.0444 147.615 54.074 147.703 54.0862C147.79 54.0984 147.879 54.093 147.965 54.0702C148.05 54.0474 148.129 54.0078 148.198 53.9538C148.34 53.8424 148.432 53.6827 148.457 53.5073C148.482 53.3318 148.437 53.1538 148.332 53.0093Z" fill="#263238"/>
<path d="M147.689 55.3811C147.694 55.4813 147.729 55.5779 147.79 55.6588C147.851 55.7398 147.935 55.8015 148.032 55.8363C148.129 55.8711 148.234 55.8774 148.335 55.8546C148.435 55.8317 148.527 55.7806 148.598 55.7077C148.669 55.6348 148.716 55.5432 148.734 55.4443C148.752 55.3454 148.739 55.2437 148.698 55.1516C148.657 55.0596 148.589 54.9813 148.502 54.9266C148.416 54.8719 148.314 54.8431 148.211 54.8438C148.14 54.8454 148.071 54.8606 148.006 54.8886C147.941 54.9165 147.883 54.9566 147.835 55.0066C147.786 55.0565 147.748 55.1153 147.723 55.1796C147.698 55.2439 147.686 55.3124 147.689 55.3811Z" fill="#263238"/>
<path d="M150.547 54.9487L150.236 58.1601L148.531 57.522L150.547 54.9487Z" fill="#9A4A4D"/>
<path d="M151.485 59.3648C151.484 59.4671 151.514 59.5673 151.572 59.6528C151.63 59.7383 151.713 59.8051 151.809 59.8448C151.906 59.8845 152.013 59.8954 152.117 59.8759C152.22 59.8565 152.315 59.8076 152.39 59.7356C152.465 59.6635 152.516 59.5716 152.536 59.4713C152.557 59.371 152.547 59.267 152.507 59.1724C152.467 59.0778 152.399 58.9969 152.311 58.94C152.224 58.883 152.121 58.8527 152.016 58.8527C151.876 58.8527 151.741 58.9065 151.642 59.0024C151.542 59.0983 151.486 59.2286 151.485 59.3648Z" fill="#9A4A4D"/>
<path d="M164.967 25.1648C165.791 25.3431 166.585 25.6328 167.325 26.0254C168.034 26.396 168.668 26.8864 169.2 27.4736C169.711 28.0426 170.088 28.713 170.305 29.4383C170.532 30.207 170.55 31.02 170.357 31.7975C170.229 32.4146 169.977 33.001 169.614 33.5228C169.289 33.9717 168.897 34.3719 168.452 34.7108C168.017 35.0391 167.553 35.3298 167.066 35.5797L165.693 36.285C165.279 36.4953 164.885 36.7426 164.518 37.0238C164.187 37.2684 163.932 37.5985 163.784 37.9767C163.709 38.1453 163.588 38.2906 163.434 38.3965C163.36 38.4515 163.274 38.4895 163.183 38.5076C163.092 38.5258 162.998 38.5237 162.907 38.5014L160.886 38.0817C160.789 38.0618 160.697 38.0233 160.616 37.9685C160.534 37.9138 160.465 37.8438 160.411 37.7626C160.355 37.6866 160.317 37.5987 160.302 37.5061C160.287 37.4135 160.295 37.3187 160.325 37.2295C160.493 36.6188 160.787 36.0476 161.189 35.5503C161.55 35.1115 161.968 34.7193 162.432 34.3833C162.88 34.0646 163.356 33.7837 163.853 33.5438C164.345 33.3045 164.803 33.0736 165.226 32.8469C165.613 32.6482 165.977 32.4089 166.31 32.1333C166.601 31.8953 166.803 31.5706 166.885 31.2098C166.959 30.8946 166.954 30.5665 166.87 30.2536C166.786 29.9407 166.625 29.6523 166.401 29.4131C165.843 28.8199 165.096 28.4253 164.281 28.2922C162.772 27.9648 161.497 28.4588 160.454 29.7741C160.354 29.9181 160.227 30.0421 160.079 30.1393C159.998 30.179 159.911 30.2028 159.821 30.2092C159.732 30.2157 159.641 30.2048 159.556 30.1771L157.397 29.7111C157.321 29.6969 157.248 29.668 157.184 29.6262C157.119 29.5844 157.064 29.5305 157.021 29.4676C156.974 29.4033 156.942 29.3297 156.928 29.252C156.914 29.1743 156.918 29.0946 156.939 29.0185C157.121 28.3733 157.462 27.781 157.932 27.2931C158.461 26.7262 159.088 26.2544 159.785 25.8995C160.549 25.5096 161.373 25.243 162.225 25.1103C163.134 24.9548 164.066 24.9733 164.967 25.1648ZM162.687 40.084C162.782 40.1037 162.871 40.1422 162.95 40.1971C163.029 40.252 163.095 40.3221 163.145 40.4031C163.198 40.4814 163.234 40.5695 163.251 40.6618C163.268 40.7542 163.266 40.849 163.244 40.9404L162.726 43.2156C162.683 43.3973 162.568 43.5554 162.407 43.6564C162.246 43.7575 162.05 43.7936 161.862 43.7572L159.573 43.266C159.479 43.2464 159.39 43.2083 159.311 43.1542C159.233 43.1001 159.166 43.031 159.116 42.9512C159.062 42.8731 159.025 42.7851 159.008 42.6926C158.991 42.6001 158.994 42.5052 159.016 42.4139L159.535 40.1344C159.578 39.9528 159.692 39.7947 159.854 39.6936C160.015 39.5926 160.21 39.5564 160.398 39.5929L162.687 40.084Z" fill="#DC1F26"/>
<path d="M171.756 46.5698C172.327 46.4783 172.909 46.467 173.484 46.5363C174.036 46.5972 174.573 46.7536 175.069 46.998C175.542 47.2335 175.958 47.5657 176.286 47.9719C176.635 48.4073 176.86 48.9241 176.939 49.4706C177.028 49.8957 177.028 50.3341 176.939 50.7593C176.849 51.1292 176.703 51.4843 176.507 51.813C176.314 52.1298 176.095 52.4303 175.85 52.7113L175.155 53.5089C174.946 53.7475 174.758 54.0031 174.594 54.2729C174.447 54.5128 174.372 54.7875 174.378 55.0663C174.377 55.1973 174.338 55.3254 174.265 55.4357C174.232 55.4885 174.188 55.5336 174.135 55.5677C174.082 55.6018 174.022 55.6241 173.959 55.633L172.547 55.8597C172.41 55.8806 172.271 55.8489 172.158 55.7716C172.102 55.7364 172.056 55.6893 172.022 55.634C171.989 55.5787 171.969 55.5166 171.964 55.4525C171.904 55.0223 171.938 54.5848 172.063 54.168C172.175 53.7939 172.339 53.4366 172.551 53.1059C172.753 52.7893 172.983 52.4902 173.238 52.2118C173.492 51.9347 173.721 51.6744 173.937 51.4226C174.132 51.1987 174.301 50.9553 174.442 50.6963C174.566 50.4715 174.61 50.2133 174.568 49.9617C174.533 49.7406 174.443 49.531 174.306 49.3511C174.169 49.1712 173.989 49.0264 173.782 48.929C173.27 48.686 172.689 48.618 172.132 48.7359C171.628 48.8081 171.16 49.0294 170.791 49.3697C170.421 49.71 170.169 50.1527 170.068 50.6376C170.04 50.756 169.99 50.8684 169.921 50.9692C169.837 51.0585 169.721 51.1127 169.597 51.1203L168.094 51.3596C167.987 51.3767 167.878 51.3542 167.787 51.2966C167.74 51.2669 167.7 51.2274 167.67 51.181C167.64 51.1346 167.621 51.0823 167.615 51.028C167.562 50.5694 167.626 50.1054 167.8 49.6763C167.988 49.18 168.266 48.7207 168.621 48.3203C169.008 47.8809 169.466 47.5053 169.977 47.2079C170.522 46.8849 171.126 46.6682 171.756 46.5698ZM174.222 56.7245C174.288 56.7137 174.356 56.7159 174.421 56.731C174.487 56.7462 174.548 56.7739 174.602 56.8126C174.656 56.8499 174.702 56.8974 174.737 56.9522C174.772 57.007 174.795 57.068 174.805 57.1317L175.073 58.7185C175.084 58.7828 175.082 58.8486 175.066 58.9121C175.051 58.9756 175.022 59.0353 174.982 59.0879C174.944 59.1409 174.896 59.1858 174.839 59.2197C174.783 59.2537 174.72 59.2759 174.654 59.2852L173.056 59.5412C172.991 59.5517 172.924 59.5493 172.859 59.5341C172.795 59.519 172.734 59.4914 172.68 59.4531C172.625 59.4167 172.578 59.3696 172.542 59.3147C172.507 59.2598 172.483 59.1983 172.473 59.134L172.205 57.5431C172.186 57.4123 172.22 57.2792 172.301 57.173C172.382 57.0667 172.503 56.996 172.637 56.9763L174.222 56.7245Z" fill="#DC1F26"/>
<g opacity="0.2">
<path d="M171.756 46.5698C172.327 46.4783 172.909 46.467 173.484 46.5363C174.036 46.5972 174.573 46.7536 175.069 46.998C175.542 47.2335 175.958 47.5657 176.286 47.9719C176.635 48.4073 176.86 48.9241 176.939 49.4706C177.028 49.8957 177.028 50.3341 176.939 50.7593C176.849 51.1292 176.703 51.4843 176.507 51.813C176.314 52.1298 176.095 52.4303 175.85 52.7113L175.155 53.5089C174.946 53.7475 174.758 54.0031 174.594 54.2729C174.447 54.5128 174.372 54.7875 174.378 55.0663C174.377 55.1973 174.338 55.3254 174.265 55.4357C174.232 55.4885 174.188 55.5336 174.135 55.5677C174.082 55.6018 174.022 55.6241 173.959 55.633L172.547 55.8597C172.41 55.8806 172.271 55.8489 172.158 55.7716C172.102 55.7364 172.056 55.6893 172.022 55.634C171.989 55.5787 171.969 55.5166 171.964 55.4525C171.904 55.0223 171.938 54.5848 172.063 54.168C172.175 53.7939 172.339 53.4366 172.551 53.1059C172.753 52.7893 172.983 52.4902 173.238 52.2118C173.492 51.9347 173.721 51.6744 173.937 51.4226C174.132 51.1987 174.301 50.9553 174.442 50.6963C174.566 50.4715 174.61 50.2133 174.568 49.9617C174.533 49.7406 174.443 49.531 174.306 49.3511C174.169 49.1712 173.989 49.0264 173.782 48.929C173.27 48.686 172.689 48.618 172.132 48.7359C171.628 48.8081 171.16 49.0294 170.791 49.3697C170.421 49.71 170.169 50.1527 170.068 50.6376C170.04 50.756 169.99 50.8684 169.921 50.9692C169.837 51.0585 169.721 51.1127 169.597 51.1203L168.094 51.3596C167.987 51.3767 167.878 51.3542 167.787 51.2966C167.74 51.2669 167.7 51.2274 167.67 51.181C167.64 51.1346 167.621 51.0823 167.615 51.028C167.562 50.5694 167.626 50.1054 167.8 49.6763C167.988 49.18 168.266 48.7207 168.621 48.3203C169.008 47.8809 169.466 47.5053 169.977 47.2079C170.522 46.8849 171.126 46.6682 171.756 46.5698ZM174.222 56.7245C174.288 56.7137 174.356 56.7159 174.421 56.731C174.487 56.7462 174.548 56.7739 174.602 56.8126C174.656 56.8499 174.702 56.8974 174.737 56.9522C174.772 57.007 174.795 57.068 174.805 57.1317L175.073 58.7185C175.084 58.7828 175.082 58.8486 175.066 58.9121C175.051 58.9756 175.022 59.0353 174.982 59.0879C174.944 59.1409 174.896 59.1858 174.839 59.2197C174.783 59.2537 174.72 59.2759 174.654 59.2852L173.056 59.5412C172.991 59.5517 172.924 59.5493 172.859 59.5341C172.795 59.519 172.734 59.4914 172.68 59.4531C172.625 59.4167 172.578 59.3696 172.542 59.3147C172.507 59.2598 172.483 59.1983 172.473 59.134L172.205 57.5431C172.186 57.4123 172.22 57.2792 172.301 57.173C172.382 57.0667 172.503 56.996 172.637 56.9763L174.222 56.7245Z" fill="black"/>
</g>
<path d="M186.483 51.0741C186.611 51.165 186.698 51.301 186.724 51.4531C186.751 51.6052 186.715 51.7615 186.625 51.8885L185.485 53.4417C185.392 53.5664 185.252 53.6506 185.095 53.6765C184.939 53.7024 184.778 53.6678 184.647 53.5802L183.084 52.5014C183.02 52.4575 182.965 52.4014 182.923 52.3365C182.882 52.2716 182.854 52.1991 182.842 52.1236C182.819 51.9764 182.855 51.8264 182.941 51.7038L184.082 50.1464C184.174 50.0212 184.314 49.9367 184.47 49.9113C184.622 49.8891 184.777 49.9252 184.902 50.012L186.483 51.0741ZM193.082 40.5416C193.645 40.9282 194.149 41.392 194.576 41.9185C194.989 42.4196 195.306 42.9882 195.513 43.5977C195.711 44.1802 195.777 44.7973 195.707 45.407C195.626 46.0562 195.373 46.6738 194.973 47.1995C194.675 47.6245 194.293 47.9883 193.85 48.2699C193.457 48.5076 193.029 48.6872 192.581 48.803C192.146 48.9157 191.703 48.9916 191.255 49.0297L189.985 49.1347C189.606 49.1685 189.23 49.2331 188.862 49.3278C188.533 49.4124 188.234 49.5838 187.999 49.8231C187.885 49.9302 187.746 50.0069 187.593 50.0456C187.518 50.0627 187.441 50.0637 187.367 50.0484C187.292 50.0332 187.222 50.0021 187.161 49.9575L185.779 49.0045C185.647 48.9123 185.557 48.7738 185.528 48.6183C185.512 48.545 185.513 48.469 185.532 48.3961C185.55 48.3233 185.586 48.2557 185.636 48.1986C185.958 47.7889 186.362 47.4475 186.824 47.1953C187.24 46.9736 187.684 46.807 188.145 46.6999C188.588 46.596 189.039 46.5285 189.493 46.4984C189.925 46.4732 190.357 46.4396 190.754 46.4019C191.111 46.372 191.463 46.303 191.803 46.1962C192.1 46.1083 192.359 45.9266 192.537 45.6798C192.698 45.4661 192.802 45.2174 192.842 44.9555C192.881 44.6936 192.853 44.4263 192.762 44.177C192.537 43.5583 192.105 43.0308 191.536 42.6784C190.508 41.9647 189.385 41.9409 188.167 42.607C188.044 42.6833 187.908 42.7373 187.765 42.7665C187.691 42.7716 187.617 42.7624 187.546 42.7393C187.476 42.7163 187.411 42.6799 187.355 42.6322L185.887 41.6163C185.78 41.5456 185.705 41.4372 185.679 41.3141C185.667 41.2511 185.669 41.1862 185.684 41.1239C185.7 41.0616 185.729 41.0033 185.77 40.953C186.112 40.5237 186.557 40.1821 187.066 39.9581C187.65 39.6955 188.277 39.5349 188.918 39.4838C189.621 39.4281 190.328 39.482 191.013 39.6433C191.757 39.8065 192.46 40.1119 193.082 40.5416Z" fill="#DC1F26"/>
<g opacity="0.6">
<path d="M186.483 51.0741C186.611 51.165 186.698 51.301 186.724 51.4531C186.751 51.6052 186.715 51.7615 186.625 51.8885L185.485 53.4417C185.392 53.5664 185.252 53.6506 185.095 53.6765C184.939 53.7024 184.778 53.6678 184.647 53.5802L183.084 52.5014C183.02 52.4575 182.965 52.4014 182.923 52.3365C182.882 52.2716 182.854 52.1991 182.842 52.1236C182.819 51.9764 182.855 51.8264 182.941 51.7038L184.082 50.1464C184.174 50.0212 184.314 49.9367 184.47 49.9113C184.622 49.8891 184.777 49.9252 184.902 50.012L186.483 51.0741ZM193.082 40.5416C193.645 40.9282 194.149 41.392 194.576 41.9185C194.989 42.4196 195.306 42.9882 195.513 43.5977C195.711 44.1802 195.777 44.7973 195.707 45.407C195.626 46.0562 195.373 46.6738 194.973 47.1995C194.675 47.6245 194.293 47.9883 193.85 48.2699C193.457 48.5076 193.029 48.6872 192.581 48.803C192.146 48.9157 191.703 48.9916 191.255 49.0297L189.985 49.1347C189.606 49.1685 189.23 49.2331 188.862 49.3278C188.533 49.4124 188.234 49.5838 187.999 49.8231C187.885 49.9302 187.746 50.0069 187.593 50.0456C187.518 50.0627 187.441 50.0637 187.367 50.0484C187.292 50.0332 187.222 50.0021 187.161 49.9575L185.779 49.0045C185.647 48.9123 185.557 48.7738 185.528 48.6183C185.512 48.545 185.513 48.469 185.532 48.3961C185.55 48.3233 185.586 48.2557 185.636 48.1986C185.958 47.7889 186.362 47.4475 186.824 47.1953C187.24 46.9736 187.684 46.807 188.145 46.6999C188.588 46.596 189.039 46.5285 189.493 46.4984C189.925 46.4732 190.357 46.4396 190.754 46.4019C191.111 46.372 191.463 46.303 191.803 46.1962C192.1 46.1083 192.359 45.9266 192.537 45.6798C192.698 45.4661 192.802 45.2174 192.842 44.9555C192.881 44.6936 192.853 44.4263 192.762 44.177C192.537 43.5583 192.105 43.0308 191.536 42.6784C190.508 41.9647 189.385 41.9409 188.167 42.607C188.044 42.6833 187.908 42.7373 187.765 42.7665C187.691 42.7716 187.617 42.7624 187.546 42.7393C187.476 42.7163 187.411 42.6799 187.355 42.6322L185.887 41.6163C185.78 41.5456 185.705 41.4372 185.679 41.3141C185.667 41.2511 185.669 41.1862 185.684 41.1239C185.7 41.0616 185.729 41.0033 185.77 40.953C186.112 40.5237 186.557 40.1821 187.066 39.9581C187.65 39.6955 188.277 39.5349 188.918 39.4838C189.621 39.4281 190.328 39.482 191.013 39.6433C191.757 39.8065 192.46 40.1119 193.082 40.5416Z" fill="white"/>
</g>
<path d="M47.3192 134.183C47.276 132.924 48.2089 120.616 48.2089 120.616L42.0419 124.965C43.3072 132.303 43.5793 134.036 43.6009 135.237C43.5748 135.337 43.5632 135.44 43.5663 135.543C43.5663 136.971 45.229 137.739 46.5203 138.692C47.6178 139.526 48.7866 140.268 50.0141 140.908C50.9512 141.366 52.86 141.408 53.0933 140.82C51.5213 139.653 49.2367 137.907 47.9843 136.576C47.3883 135.938 47.3667 135.434 47.3192 134.183Z" fill="#FFA8A7"/>
<path d="M55.7751 142.361C55.845 142.557 55.8574 142.768 55.8109 142.97C55.7644 143.173 55.6608 143.358 55.5117 143.507C54.3791 144.301 52.9694 144.627 51.5904 144.414C49.6297 144.166 48.5673 143.624 47.7857 142.986C47.004 142.348 45.9027 141.45 45.0131 141.261C44.3058 141.13 43.6331 140.862 43.0352 140.472C42.7717 140.224 42.8063 139.124 42.8063 139.124L55.7751 142.361Z" fill="#263238"/>
<path d="M43.5879 134.889C43.5153 134.891 43.4457 134.918 43.3913 134.964C43.3369 135.011 43.301 135.075 43.2899 135.145C43.2295 135.447 43.1647 136.329 43.0351 136.824C42.8347 137.7 42.7706 138.6 42.8451 139.494C42.9531 140.06 44.2919 140.451 45.1513 140.753C46.1619 141.181 47.0998 141.755 47.9325 142.457C49.1342 143.331 50.5686 143.851 52.0654 143.956C53.5769 143.956 55.2785 143.469 55.6715 142.789C56.1508 141.949 55.7751 141.458 53.5337 140.447C53.1019 140.258 51.6206 139.397 51.111 139.087C49.7377 138.247 48.3773 137.076 47.7425 135.59C47.6913 135.408 47.5787 135.248 47.4229 135.136C47.2868 135.079 47.136 135.065 46.991 135.094C46.6167 135.147 46.2527 135.255 45.9114 135.413C45.6134 135.552 45.1858 135.716 45.1901 136.089C45.1993 136.219 45.2285 136.346 45.2765 136.467C45.3024 136.547 45.324 136.648 45.2765 136.694C45.229 136.74 45.1254 136.694 45.0649 136.635C44.8451 136.416 44.6443 136.181 44.4646 135.93C44.3584 135.801 44.2383 135.685 44.1062 135.581C43.974 135.508 43.8471 135.427 43.7261 135.338C43.562 135.224 43.5966 135.065 43.5879 134.889Z" fill="#455A64"/>
<path d="M47.9325 142.478C47.5395 142.168 47.1249 141.861 46.7103 141.593C46.7103 141.593 49.3447 143.15 50.4071 142.432C50.6042 142.311 50.7485 142.123 50.8122 141.904C50.8759 141.686 50.8547 141.453 50.7526 141.249C50.7526 141.072 52.4282 140.312 53.0933 140.237C53.279 140.338 53.4344 140.417 53.5251 140.459C55.7665 141.471 56.1422 141.958 55.6628 142.802C55.2698 143.482 54.039 144.015 52.087 144.015C50.8173 144.04 48.8394 143.201 47.9325 142.478Z" fill="#37474F"/>
<path d="M50.5668 140.74C51.9618 141.282 51.3658 141.534 50.9771 141.58C50.5884 141.626 48.2434 140.321 46.8096 139.204C45.3758 138.087 44.3782 136.799 43.8255 136.379C43.6182 136.224 43.3936 136.03 43.1949 135.85C43.2338 135.552 43.264 135.279 43.2899 135.136C43.301 135.067 43.3369 135.003 43.3913 134.956C43.4457 134.909 43.5153 134.882 43.5879 134.88C43.5879 135.057 43.562 135.22 43.7002 135.35C43.8212 135.44 43.9481 135.521 44.0803 135.594C44.2123 135.697 44.3325 135.814 44.4387 135.942C44.6184 136.193 44.8192 136.429 45.039 136.648C46.593 138.345 48.4701 139.735 50.5668 140.74Z" fill="#263238"/>
<path d="M50.8778 141.391C50.8459 141.39 50.8153 141.378 50.7914 141.358C50.7774 141.347 50.7656 141.334 50.7569 141.319C50.7482 141.303 50.7427 141.287 50.7407 141.27C50.7387 141.252 50.7402 141.235 50.7452 141.218C50.7502 141.202 50.7586 141.186 50.7698 141.173C51.0983 140.841 51.4961 140.582 51.9364 140.413C52.3766 140.243 52.8492 140.167 53.3221 140.191C53.3592 140.195 53.3931 140.213 53.4165 140.241C53.4399 140.27 53.451 140.306 53.4474 140.342C53.443 140.377 53.4248 140.409 53.3965 140.431C53.3682 140.452 53.3322 140.463 53.2962 140.459C52.8692 140.442 52.4432 140.512 52.0454 140.663C51.6476 140.815 51.2867 141.046 50.9858 141.341C50.9726 141.356 50.9561 141.369 50.9375 141.378C50.9188 141.386 50.8985 141.391 50.8778 141.391Z" fill="#F5F5F5"/>
<path d="M49.6643 140.682C49.6313 140.683 49.599 140.673 49.5736 140.652C49.549 140.627 49.5353 140.593 49.5353 140.558C49.5353 140.523 49.549 140.489 49.5736 140.463C49.9028 140.133 50.3008 139.875 50.741 139.706C51.1811 139.537 51.6533 139.462 52.1259 139.485C52.1625 139.489 52.1961 139.507 52.2192 139.535C52.2422 139.563 52.253 139.599 52.249 139.634C52.2449 139.67 52.2265 139.703 52.1978 139.725C52.169 139.747 52.1323 139.758 52.0956 139.754C51.6685 139.736 51.2422 139.805 50.8442 139.957C50.4463 140.108 50.0855 140.34 49.7852 140.636C49.7705 140.652 49.7517 140.665 49.7306 140.673C49.7096 140.681 49.6868 140.684 49.6643 140.682Z" fill="#F5F5F5"/>
<path d="M48.4464 139.972C48.415 139.973 48.3844 139.962 48.36 139.943C48.3345 139.918 48.3201 139.884 48.3201 139.849C48.3201 139.813 48.3345 139.779 48.36 139.754C48.6894 139.424 49.0874 139.166 49.5276 138.997C49.9677 138.829 50.4398 138.753 50.9123 138.776C50.9305 138.778 50.9482 138.783 50.9644 138.791C50.9805 138.799 50.9948 138.81 51.0065 138.824C51.0181 138.838 51.0269 138.853 51.0322 138.87C51.0375 138.887 51.0394 138.905 51.0376 138.923C51.036 138.941 51.0308 138.958 51.0223 138.973C51.0138 138.989 51.0022 139.003 50.9881 139.014C50.9741 139.026 50.9578 139.034 50.9404 139.039C50.9229 139.045 50.9046 139.046 50.8864 139.045C50.4593 139.026 50.033 139.095 49.635 139.247C49.2371 139.399 48.8763 139.63 48.576 139.926C48.5599 139.944 48.5397 139.957 48.5171 139.965C48.4945 139.973 48.4702 139.976 48.4464 139.972Z" fill="#F5F5F5"/>
<path d="M47.3192 139.187C47.2878 139.188 47.2572 139.177 47.2329 139.158C47.2197 139.146 47.2092 139.131 47.202 139.115C47.1948 139.099 47.1911 139.081 47.1911 139.063C47.1911 139.046 47.1948 139.028 47.202 139.012C47.2092 138.996 47.2197 138.981 47.2329 138.969C47.5617 138.638 47.9597 138.38 48.3999 138.211C48.8402 138.042 49.3126 137.967 49.7852 137.991C49.8211 137.995 49.8539 138.013 49.8765 138.04C49.8991 138.068 49.9098 138.103 49.9061 138.138C49.9018 138.173 49.8835 138.205 49.8552 138.227C49.827 138.249 49.791 138.259 49.7549 138.255C49.328 138.239 48.9023 138.309 48.5046 138.46C48.1069 138.612 47.7459 138.843 47.4445 139.137C47.4298 139.155 47.4106 139.169 47.3886 139.178C47.3667 139.187 47.3428 139.19 47.3192 139.187Z" fill="#F5F5F5"/>
<path d="M46.218 138.402C46.1869 138.401 46.1568 138.391 46.1316 138.373C46.106 138.348 46.0917 138.314 46.0917 138.278C46.0917 138.243 46.106 138.209 46.1316 138.184C46.4877 137.824 46.9238 137.547 47.4065 137.375C47.8892 137.204 48.4059 137.141 48.9171 137.193C48.9354 137.194 48.9532 137.199 48.9695 137.207C48.9858 137.215 49.0001 137.226 49.0115 137.24C49.0229 137.254 49.0312 137.27 49.0358 137.287C49.0403 137.305 49.0411 137.323 49.0381 137.34C49.0337 137.375 49.0154 137.407 48.9872 137.429C48.9589 137.451 48.9229 137.461 48.8869 137.458C48.4222 137.413 47.9531 137.47 47.5138 137.624C47.0745 137.778 46.6761 138.025 46.3475 138.348C46.3324 138.367 46.3126 138.382 46.29 138.391C46.2673 138.401 46.2426 138.404 46.218 138.402Z" fill="#F5F5F5"/>
<path d="M35.7021 126.22L29.479 126.111C29.5697 130.149 30.2304 134.628 30.3427 138.415C30.3427 139.129 30.3427 143.956 30.6018 145.425C31.0337 147.629 33.7112 147.331 33.8537 146.013C33.9963 144.695 33.681 139.057 33.6896 138.457C33.6637 136.031 34.8341 131.929 35.4516 127.568C35.4775 127.37 35.6719 126.43 35.7021 126.22Z" fill="#FFA8A7"/>
<path d="M34.8643 146.928C34.9799 147.938 34.8314 148.961 34.4324 149.9C34.235 150.273 33.9163 150.573 33.5258 150.752C33.1354 150.931 32.6951 150.98 32.2731 150.891C31.3533 150.761 30.1397 150.282 29.7683 149.212C29.4167 148.226 29.2928 147.177 29.4056 146.139L34.8643 146.928Z" fill="#263238"/>
<path d="M30.3254 137.953C29.9583 138.016 30.0274 139.758 29.9929 141.509C29.954 143.389 29.466 144.212 29.4185 145.753C29.3624 147.516 29.5394 148.271 30.2822 149.271C31.025 150.27 33.3441 151.076 34.2813 149.464C35.0457 148.15 34.942 146.785 34.6786 145.056C34.4152 143.326 34.2079 142.017 34.1388 140.648C34.0697 139.28 34.0394 138.066 33.7069 137.953C33.7069 138.146 33.7069 138.394 33.7069 138.583C33.7069 138.772 33.7371 139.422 33.5299 139.464C33.4979 139.302 33.4791 139.138 33.4737 138.973C33.4833 138.821 33.4323 138.67 33.3312 138.553C33.2063 138.464 33.0545 138.417 32.8993 138.419C32.5294 138.379 32.1574 138.359 31.7851 138.36C31.5994 138.36 31.4094 138.36 31.228 138.39C31.0685 138.402 30.9122 138.44 30.7659 138.503C30.7229 138.521 30.6841 138.547 30.6521 138.581C30.6202 138.614 30.5957 138.653 30.5802 138.696C30.5673 138.763 30.5673 138.831 30.5802 138.898C30.5954 139.018 30.5954 139.139 30.5802 139.259C30.5802 139.313 30.5414 139.38 30.4852 139.372C30.4291 139.364 30.4204 139.313 30.4161 139.271C30.3902 139.061 30.4161 138.906 30.3902 138.663C30.3902 138.549 30.3902 138.394 30.3902 138.281C30.3902 138.167 30.3297 138.066 30.3254 137.953Z" fill="#455A64"/>
<path d="M29.4487 145.249C29.4487 145.505 29.3926 147.188 29.8806 147.44C30.3686 147.692 30.5586 146.382 30.5586 146.382C30.5586 146.382 31.7031 145.916 33.4996 146.479C33.4392 146.756 33.7933 147.621 34.2467 147.386C34.7002 147.151 34.6786 145.232 34.6786 145.207C34.9248 146.886 35.0025 148.188 34.2467 149.464C33.3096 151.076 30.9818 150.261 30.2477 149.271C29.5135 148.28 29.3364 147.516 29.384 145.753C29.4055 145.576 29.4358 145.413 29.4487 145.249Z" fill="#37474F"/>
<path d="M30.7011 146.479C30.7573 147.109 30.1008 146.962 29.9799 146.059C29.859 145.157 30.144 143.02 29.9799 141.492C30.0145 139.741 29.9454 137.999 30.3125 137.936C30.3103 137.957 30.3103 137.978 30.3125 137.999L30.3556 138.885C30.3471 139.011 30.3471 139.137 30.3556 139.263C30.4766 140.547 30.55 143.041 30.5543 144.225C30.5619 144.978 30.6109 145.731 30.7011 146.479Z" fill="#263238"/>
<path d="M33.2923 146.479C33.3769 145.736 33.4187 144.989 33.4176 144.242C33.4176 143.066 33.4953 140.602 33.6162 139.309C33.663 139.07 33.6818 138.826 33.6724 138.583C33.6724 138.406 33.6724 138.163 33.6724 137.995C33.6724 137.995 33.6724 137.97 33.6724 137.953C33.9142 138.041 34.0006 138.734 34.0524 139.607C34.0524 140.115 34.0524 140.745 34.0049 141.509C33.8408 143.037 34.1258 145.203 34.0049 146.089C33.884 146.974 33.2491 147.109 33.2923 146.479Z" fill="#263238"/>
<path d="M33.5471 146.525H33.4996C32.5665 146.212 31.5523 146.212 30.6191 146.525C30.6021 146.531 30.5839 146.534 30.5657 146.534C30.5475 146.534 30.5296 146.53 30.5129 146.522C30.4963 146.515 30.4813 146.505 30.4687 146.492C30.4562 146.479 30.4464 146.464 30.4399 146.447C30.4333 146.431 30.4302 146.413 30.4307 146.396C30.4312 146.378 30.4353 146.36 30.4427 146.344C30.4501 146.328 30.4607 146.313 30.474 146.301C30.4872 146.289 30.5028 146.28 30.5198 146.273C31.5154 145.928 32.6033 145.928 33.599 146.273C33.6159 146.279 33.6315 146.289 33.6446 146.301C33.6578 146.313 33.6684 146.327 33.6756 146.343C33.6829 146.359 33.6867 146.377 33.6869 146.394C33.6871 146.412 33.6836 146.429 33.6767 146.445C33.6661 146.47 33.648 146.491 33.6248 146.505C33.6016 146.519 33.5745 146.526 33.5471 146.525Z" fill="#F5F5F5"/>
<path d="M33.7242 145.131C33.7086 145.135 33.6923 145.135 33.6767 145.131C32.6275 144.815 31.5042 144.815 30.455 145.131C30.4377 145.137 30.4194 145.14 30.4011 145.139C30.3828 145.138 30.3648 145.133 30.3484 145.125C30.3319 145.118 30.3172 145.107 30.3051 145.093C30.293 145.08 30.2837 145.064 30.2779 145.047C30.2719 145.031 30.2693 145.013 30.2704 144.996C30.2715 144.978 30.2762 144.961 30.2843 144.946C30.2924 144.93 30.3036 144.916 30.3174 144.905C30.3311 144.893 30.3471 144.885 30.3643 144.88C31.4727 144.536 32.6633 144.536 33.7717 144.88C33.802 144.89 33.8275 144.911 33.8435 144.939C33.8596 144.966 33.8653 144.998 33.8597 145.029C33.854 145.06 33.8374 145.088 33.8126 145.108C33.7878 145.128 33.7566 145.14 33.7242 145.14V145.131Z" fill="#F5F5F5"/>
<path d="M30.3988 143.813C30.3724 143.813 30.3467 143.805 30.3246 143.791C30.3025 143.777 30.2848 143.757 30.2736 143.733C30.259 143.701 30.258 143.665 30.2709 143.632C30.2839 143.599 30.3096 143.572 30.3427 143.557C31.4336 143.14 32.6452 143.133 33.7415 143.536C33.7584 143.542 33.774 143.551 33.7871 143.564C33.8003 143.576 33.8109 143.59 33.8181 143.606C33.8254 143.622 33.8292 143.64 33.8294 143.657C33.8296 143.675 33.8261 143.692 33.8192 143.708C33.8057 143.741 33.7796 143.767 33.7465 143.781C33.7134 143.795 33.6759 143.796 33.6421 143.784C33.6421 143.784 31.9492 143.137 30.4593 143.784C30.4417 143.798 30.421 143.808 30.3988 143.813Z" fill="#F5F5F5"/>
<path d="M30.3686 142.579C30.3425 142.579 30.3169 142.572 30.2948 142.559C30.2726 142.545 30.2548 142.526 30.2434 142.503C30.2284 142.472 30.2269 142.435 30.239 142.403C30.251 142.37 30.2759 142.343 30.3081 142.327C30.8496 142.087 31.4365 141.96 32.0315 141.954C32.6264 141.947 33.2162 142.061 33.7631 142.289C33.7794 142.297 33.7941 142.307 33.8063 142.32C33.8185 142.333 33.8279 142.348 33.8339 142.364C33.84 142.381 33.8426 142.398 33.8415 142.416C33.8405 142.433 33.8358 142.45 33.8278 142.466C33.8204 142.482 33.8098 142.496 33.7966 142.508C33.7834 142.52 33.7678 142.529 33.7509 142.535C33.734 142.54 33.716 142.543 33.698 142.542C33.6801 142.541 33.6626 142.536 33.6464 142.529C33.1334 142.322 32.5826 142.219 32.0273 142.225C31.472 142.232 30.9239 142.348 30.4161 142.566C30.4011 142.573 30.385 142.577 30.3686 142.579Z" fill="#F5F5F5"/>
<path d="M30.3384 141.198C30.3068 141.198 30.2759 141.188 30.251 141.169C30.2261 141.15 30.2087 141.124 30.2016 141.094C30.1945 141.064 30.1983 141.032 30.2121 141.005C30.226 140.977 30.2492 140.955 30.2779 140.942C31.9233 140.153 33.6983 140.908 33.7717 140.942C33.7889 140.948 33.8045 140.958 33.8175 140.971C33.8305 140.983 33.8406 140.998 33.8471 141.015C33.8536 141.032 33.8565 141.049 33.8554 141.067C33.8543 141.085 33.8493 141.102 33.8408 141.118C33.8257 141.15 33.7982 141.175 33.7643 141.188C33.7303 141.201 33.6927 141.2 33.6594 141.185C33.6594 141.185 31.932 140.451 30.4032 141.185C30.3832 141.195 30.3608 141.2 30.3384 141.198Z" fill="#F5F5F5"/>
<path d="M31.526 86.949C29.3321 92.8554 29.7165 96.5621 30.0922 102.754C30.4377 108.429 30.9862 113.429 30.9862 113.429C30.8998 114.437 29.4574 116.401 29.2587 120.851C29.1951 123.984 29.3393 127.118 29.6906 130.233C29.6906 130.233 32.5625 131.253 34.9895 130.233C34.9895 130.233 37.4728 119.575 38.1508 114.365C38.7381 109.819 39.7659 104.009 39.7659 104.009L41.9253 114.344C41.5032 115.733 41.2865 117.174 41.2818 118.622C41.2818 121.052 42.4435 127.811 42.4435 127.811C42.4435 127.811 45.6609 128.823 47.6993 127.064C47.6993 127.064 48.5069 117.337 48.7919 113.631C49.1719 108.686 48.6191 95.1306 47.397 88.1915L31.526 86.949Z" fill="#455A64"/>
<path d="M39.7919 103.992L40.6901 96.2178C40.6901 96.2178 44.7108 95.6973 46.5332 94.0308C46.0104 94.8256 45.3136 95.4984 44.4924 96.0013C43.6713 96.5042 42.746 96.8246 41.7828 96.9399L40.4872 104.177L41.9555 114.327L39.7919 103.992Z" fill="#37474F"/>
<path d="M49.7334 81.1853C47.777 79.2291 44.2444 74.8045 44.2444 74.8045L42.2492 68.0879C42.6951 68.1104 43.142 68.1104 43.5879 68.0879C45.7473 68.2265 46.3821 68.407 47.7252 69.8342C48.7919 70.9719 52.86 76.3703 54.2722 78.188L58.0251 73.5409C58.9277 72.2186 58.7809 70.7368 59.2473 69.6579C59.7137 68.5791 60.4695 68.1047 61.0741 67.1392C61.6787 66.1737 61.8212 65.5272 62.3178 66.0268C62.8145 66.5263 62.2401 67.8696 62.1667 68.1761C62.0933 68.4825 61.3332 69.3935 62.5986 68.9191C63.8639 68.4447 65.8159 66.1989 66.3169 65.7413C66.8179 65.2837 67.0856 65.9932 66.9733 66.5557C66.861 67.1182 67.4052 68.386 67.2065 69.3137C67.0829 70.2469 66.6055 71.1016 65.8678 71.7107C64.9565 72.6006 62.7281 73.6963 61.8558 74.8675C60.9834 76.0387 59.1221 79.6782 57.969 81.8695C56.5222 84.6569 55.2914 85.5762 53.6503 84.6359C52.0093 83.6956 50.4546 81.9115 49.7334 81.1853Z" fill="#FFA8A7"/>
<path d="M42.884 68.0167C43.9882 67.9094 45.103 68.0531 46.1403 68.4364C47.3106 68.9486 48.1052 70.0484 49.2497 71.5387C50.3941 73.0289 52.4368 75.6358 52.4368 75.6358C52.4368 75.6358 51.884 77.8984 48.2391 79.9302L42.288 73.9734L42.884 68.0167Z" fill="#37474F"/>
<path d="M54.2722 78.1839C53.5604 78.8367 53.0834 79.6947 52.9119 80.6313C52.9119 80.6313 52.48 79.2837 53.9527 77.7683L54.2722 78.1839Z" fill="#F28F8F"/>
<path d="M47.194 79.9427C49.85 77.8186 48.9733 75.0522 48.0059 73.1884C46.0668 69.4649 44.05 67.9998 43.2079 68.0124L37.9262 68.0628C35.4041 68.3986 33.4521 68.2307 32.8432 68.3692C31.2885 68.726 31.2539 69.9686 31.1935 71.5764C31.1287 73.3395 30.2002 73.0414 30.6709 75.9548C31.2261 77.0376 31.7136 78.1521 32.1306 79.2921C32.4156 80.2996 33.2189 81.9031 32.7914 83.5319C32.6273 84.1616 32.1868 84.7913 31.526 86.5166C30.7768 88.4559 30.22 90.4604 29.8633 92.5027C29.8633 92.5027 31.4051 92.1543 33.1584 90.3409C33.1584 90.3409 35.5553 93.4599 41.3207 93.145C47.302 92.8176 47.8288 89.7867 47.8288 89.7867L46.9133 84.3295C47.0515 82.1256 47.1119 81.328 47.194 79.9427Z" fill="#DC1F26"/>
<path opacity="0.1" d="M43.7434 79.3929C43.7434 79.3929 41.5841 81.072 39.0491 80.266C38.3429 80.0602 37.7027 79.6821 37.1894 79.1678C36.6761 78.6534 36.3068 78.0199 36.1167 77.3275C36.1167 77.3275 35.9008 80.1191 39.0879 81.0174C39.9405 81.2688 40.8537 81.2466 41.6922 80.9539C42.5307 80.6613 43.25 80.1139 43.7434 79.3929Z" fill="black"/>
<path d="M28.6239 65.6154C27.8422 65.0613 23.6315 70.5395 25.6008 71.9122C27.5701 73.2849 29.669 69.3935 29.2458 67.5548C28.8225 65.7161 28.6239 65.6154 28.6239 65.6154Z" fill="#37474F"/>
<path d="M24.8019 62.8953C25.8556 61.4764 26.5725 60.406 27.5356 59.1886C28.0797 58.4959 28.4295 58.0048 28.9521 57.2953C29.3149 56.8084 29.5265 56.397 29.9324 56.2417C30.3856 56.0478 30.7906 55.7615 31.1201 55.4021C31.3218 55.175 31.5079 54.9352 31.6772 54.6843C32.2859 53.8649 33.0132 53.1354 33.8365 52.5182C34.7002 51.8675 35.646 51.3638 36.527 50.7425C37.0495 50.3731 37.611 49.7644 36.9588 49.2145C36.7562 49.0554 36.5156 48.9486 36.2592 48.9038C34.6872 48.5974 33.3269 49.1473 31.7981 49.5545C31.1333 49.7306 30.4836 49.9566 29.8547 50.2303C29.5425 50.3535 29.2513 50.522 28.991 50.7299C28.6293 51.0972 28.337 51.5235 28.1272 51.9892C27.4579 53.1856 26.0457 54.2519 25.0567 55.188C23.895 56.2879 22.8585 57.2869 21.5327 58.5085C20.3407 59.6 19.1704 60.6075 18.0778 61.7996C17.1752 62.7819 17.525 63.5376 17.6459 63.7936C18.4233 65.2797 19.2697 65.8044 20.2889 66.7321C20.6258 67.0344 20.9669 67.3324 21.3081 67.6305C22.6296 68.7891 23.9511 69.8721 25.3244 70.9888C26.7928 72.1642 27.3974 72.7351 28.7059 73.8769C29.5317 74.6141 30.2199 75.4847 30.74 76.4502C33.0073 76.8154 35.2357 73.4445 33.2923 69.5027C32.9727 68.8653 32.4892 68.3187 31.8888 67.9159C29.4962 66.2578 24.8019 62.8953 24.8019 62.8953Z" fill="#FFA8A7"/>
<path d="M24.8019 62.8951C24.0946 63.7681 23.1442 64.4252 22.0639 64.7884C22.0639 64.7884 23.5106 65.1242 25.454 63.3653L24.8019 62.8951Z" fill="#F28F8F"/>
<path d="M33.0246 68.3357C32.4934 67.9789 31.2021 67.2191 28.6239 65.6155C28.6239 65.6155 29.0212 66.4257 28.395 68.4616C27.7688 70.4976 26.4473 71.7863 25.6181 71.9333C25.6181 71.9333 27.0605 73.0415 28.3907 74.2925C29.7208 75.5434 30.8134 76.4292 31.5821 77.8816C31.5821 77.8816 33.4823 77.4073 33.9142 74.2757C34.2165 72.0802 34.0351 69.5027 33.0246 68.3357Z" fill="#455A64"/>
<path d="M47.4488 58.2525C47.8284 57.4726 47.9957 56.611 47.9344 55.7502C47.8732 54.8895 47.5855 54.0585 47.099 53.3368C45.4622 51.0742 42.7026 49.9785 39.6537 50.0121H38.7079C34.5922 50.0793 30.8523 53.5131 30.7789 57.3794C30.7789 60.0996 30.7789 62.6141 32.3206 64.4695C33.7415 66.1949 35.9569 66.7616 37.8269 67.0386C41.4027 67.5676 45.419 67.1646 47.0428 64.797C47.0428 64.797 44.8835 65.2168 45.1556 63.0423C45.1945 62.6981 44.8576 62.3202 44.266 61.9298C44.6804 61.232 45.1681 60.5779 45.7213 59.9778C46.3303 59.3859 47.0342 59.0543 47.4488 58.2525Z" fill="#263238"/>
<path d="M46.3821 60.238C46.3605 64.289 45.026 65.3091 44.3567 65.6113C43.6873 65.9136 42.3744 65.754 41.1004 65.5735L41.1436 68.0041C41.1436 68.0041 42.6335 69.4692 42.5471 70.5858C42.4608 71.7024 40.2669 71.8451 38.6042 70.7999C37.6883 70.2103 36.8576 69.5044 36.134 68.7009C35.9959 68.5455 35.918 68.348 35.9137 68.1426L35.8101 62.4293C35.8101 62.4293 35.1277 63.1556 33.884 62.358C33.6153 62.1983 33.3837 61.9861 33.2038 61.7348C33.024 61.4835 32.8999 61.1986 32.8394 60.8982C32.7789 60.5978 32.7833 60.2885 32.8524 59.9898C32.9214 59.6912 33.0536 59.4097 33.2405 59.1634C33.4162 58.9973 33.6272 58.8708 33.8587 58.7926C34.0902 58.7144 34.3366 58.6866 34.5803 58.711C34.8241 58.7354 35.0594 58.8115 35.2697 58.9339C35.4799 59.0563 35.6599 59.2221 35.7971 59.4195C36.1772 60.1079 36.1426 60.5949 36.6609 60.5151C37.1791 60.4353 37.2007 59.8896 37.2352 59.4992C37.2698 59.1088 37.2352 58.9829 37.2871 58.4707C38.5179 58.2147 39.7919 56.5481 39.9344 55.3307C40.7682 55.7294 41.6871 55.9307 42.6162 55.9184C43.9939 55.8261 44.7065 55.5574 45.3845 54.5919C45.5461 54.8128 45.6754 55.0544 45.7688 55.3098C45.9607 55.8267 46.1052 56.3591 46.2007 56.9007C46.3545 58.0065 46.4152 59.1227 46.3821 60.238Z" fill="#FFA8A7"/>
<path d="M41.1004 65.5735C39.7573 65.4224 36.9891 64.7003 36.5399 63.6509C36.7215 64.1837 37.0666 64.6495 37.5289 64.9858C38.3667 65.6575 41.1134 66.3837 41.1134 66.3837L41.1004 65.5735Z" fill="#F28F8F"/>
<path d="M42.4521 63.3906C42.4547 63.4962 42.4249 63.6001 42.3666 63.6892C42.3083 63.7784 42.2241 63.8486 42.1246 63.8911C42.0252 63.9337 41.915 63.9465 41.808 63.928C41.701 63.9096 41.6021 63.8607 41.5237 63.7875C41.4454 63.7143 41.3912 63.6201 41.368 63.517C41.3448 63.4138 41.3537 63.3062 41.3934 63.208C41.4332 63.1097 41.5021 63.0251 41.5914 62.9649C41.6807 62.9048 41.7864 62.8718 41.895 62.8701C42.0398 62.8678 42.1795 62.9213 42.2839 63.0188C42.3883 63.1163 42.4487 63.2499 42.4521 63.3906Z" fill="#B16668"/>
<path d="M41.7482 59.4026C41.7553 59.4771 41.7472 59.5522 41.7243 59.6236C41.7014 59.695 41.6642 59.7613 41.6148 59.8187C41.5654 59.8761 41.5049 59.9234 41.4366 59.9579C41.3683 59.9924 41.2937 60.0134 41.217 60.0197C41.0989 60.032 40.9797 60.0097 40.8748 59.9556C40.7698 59.9016 40.6839 59.8183 40.6279 59.7164C40.572 59.6146 40.5487 59.4988 40.5609 59.384C40.5732 59.2691 40.6204 59.1605 40.6967 59.0719C40.7729 58.9834 40.8746 58.919 40.9887 58.887C41.1028 58.8551 41.2242 58.857 41.3372 58.8925C41.4502 58.928 41.5497 58.9956 41.6229 59.0865C41.6962 59.1774 41.7398 59.2875 41.7482 59.4026Z" fill="#263238"/>
<path d="M45.6436 59.1634C45.6544 59.3002 45.6092 59.4356 45.5178 59.5401C45.4264 59.6447 45.2962 59.7099 45.1556 59.7217C45.0848 59.7302 45.0129 59.7237 44.9448 59.7027C44.8768 59.6818 44.8142 59.6468 44.7613 59.6002C44.7085 59.5535 44.6666 59.4964 44.6385 59.4326C44.6104 59.3688 44.5967 59.2999 44.5985 59.2306C44.5914 59.1626 44.5983 59.0939 44.6189 59.0286C44.6395 58.9633 44.6733 58.9027 44.7184 58.8502C44.7635 58.7978 44.8189 58.7547 44.8814 58.7234C44.9438 58.6921 45.0121 58.6733 45.0822 58.6681C45.224 58.6623 45.3624 58.7111 45.4674 58.8038C45.5725 58.8965 45.6358 59.0257 45.6436 59.1634Z" fill="#263238"/>
<path d="M42.9531 58.6385L43.3677 62.022L45.1513 61.3L42.9531 58.6385Z" fill="#F28F8F"/>
<path d="M39.6666 57.9419L40.7031 56.9847C40.8322 57.1243 40.901 57.3068 40.8954 57.4944C40.8898 57.6819 40.8101 57.8602 40.6729 57.9922C40.6045 58.0553 40.5237 58.1041 40.4353 58.1359C40.3469 58.1676 40.2527 58.1815 40.1586 58.1768C40.0645 58.1721 39.9724 58.1488 39.8878 58.1085C39.8032 58.0681 39.728 58.0114 39.6666 57.9419Z" fill="#263238"/>
<path d="M44.8533 56.6741L46.0021 57.5136C45.9492 57.5895 45.8809 57.6539 45.8014 57.7031C45.7219 57.7524 45.633 57.7853 45.5399 57.7998C45.4469 57.8143 45.3518 57.8102 45.2604 57.7877C45.1691 57.7652 45.0834 57.7248 45.0088 57.669C44.8583 57.5529 44.7587 57.3858 44.7298 57.2012C44.701 57.0167 44.7451 56.8283 44.8533 56.6741Z" fill="#263238"/>
<path d="M28.2956 25.9247C29.1237 25.7712 29.9702 25.7345 30.8091 25.8156C31.6108 25.8839 32.3933 26.0915 33.1196 26.4285C33.8164 26.7518 34.4324 27.2188 34.9247 27.797C35.4439 28.4158 35.7891 29.1549 35.9267 29.9421C36.0562 30.5598 36.0562 31.1966 35.9267 31.8143C35.8106 32.352 35.6126 32.8698 35.3393 33.3507C35.0741 33.8187 34.7662 34.2627 34.4195 34.6773C34.074 35.0971 33.7458 35.4833 33.4391 35.8569C33.1459 36.2085 32.8857 36.585 32.6618 36.9819C32.456 37.3343 32.3557 37.7356 32.3724 38.1405C32.375 38.3288 32.3258 38.5142 32.2299 38.6778C32.1847 38.7552 32.1226 38.8219 32.048 38.8734C31.9734 38.9249 31.8881 38.9599 31.7981 38.9759L29.764 39.3495C29.6674 39.3682 29.5679 39.3678 29.4714 39.3483C29.375 39.3288 29.2835 39.2907 29.2026 39.2361C29.1183 39.1892 29.0471 39.123 28.9952 39.0433C28.9432 38.9636 28.9121 38.8727 28.9046 38.7786C28.8054 38.1575 28.8377 37.5233 28.9996 36.9147C29.1531 36.3725 29.3781 35.8519 29.669 35.3657C29.9502 34.9027 30.2724 34.4645 30.632 34.056C30.9905 33.6362 31.3144 33.2584 31.6124 32.889C31.8863 32.5572 32.1237 32.1984 32.3206 31.8185C32.49 31.4889 32.5431 31.1142 32.4718 30.7523C32.4144 30.4333 32.2778 30.1327 32.0739 29.8767C31.8699 29.6206 31.6048 29.4169 31.3014 29.283C30.549 28.9506 29.7038 28.8723 28.9003 29.0605C27.3859 29.3404 26.4142 30.2835 25.9852 31.8899C25.9474 32.0592 25.8803 32.2211 25.7865 32.3684C25.6668 32.503 25.4981 32.5872 25.3158 32.6035L23.1565 33.0023C23.0073 33.0281 22.8536 32.9997 22.7246 32.9226C22.6568 32.879 22.5991 32.8222 22.5552 32.7556C22.5113 32.6891 22.4822 32.6144 22.4698 32.5364C22.3765 31.8742 22.4507 31.1999 22.6857 30.5718C22.9302 29.8463 23.3045 29.1684 23.7913 28.5694C24.3372 27.9134 24.9874 27.3466 25.7174 26.8902C26.5042 26.4087 27.3799 26.0808 28.2956 25.9247ZM32.2386 40.5123C32.4306 40.48 32.628 40.5215 32.7892 40.628C32.9503 40.7346 33.0626 40.8978 33.1023 41.0832L33.5341 43.3752C33.5539 43.4671 33.5537 43.562 33.5336 43.6537C33.5135 43.7455 33.474 43.8322 33.4175 43.9084C33.3645 43.9865 33.2959 44.0534 33.2158 44.1053C33.1357 44.1573 33.0457 44.1931 32.9511 44.2106L30.6493 44.6304C30.5541 44.6496 30.4558 44.6495 30.3607 44.63C30.2656 44.6105 30.1756 44.572 30.0965 44.5171C30.0162 44.4655 29.9473 44.3988 29.8939 44.3209C29.8405 44.2431 29.8037 44.1556 29.7856 44.0637L29.3537 41.7717C29.3357 41.6795 29.3371 41.5847 29.3579 41.493C29.3786 41.4014 29.4184 41.3148 29.4746 41.2385C29.5263 41.1593 29.5946 41.0914 29.6749 41.0394C29.7552 40.9873 29.8459 40.9522 29.941 40.9363L32.2386 40.5123Z" fill="#DC1F26"/>
<path d="M50.2429 35.3824C50.7522 35.657 51.2178 36.002 51.6249 36.4067C52.0207 36.786 52.3413 37.2328 52.5707 37.7249C52.7908 38.1955 52.9042 38.7066 52.9032 39.2235C52.9027 39.7745 52.7538 40.3158 52.4714 40.7935C52.2598 41.1764 51.9738 41.5157 51.6292 41.7926C51.3206 42.0255 50.9787 42.2136 50.6143 42.3509C50.2602 42.4854 49.8946 42.5894 49.5217 42.6615L48.468 42.863C48.1519 42.9221 47.8424 43.0107 47.5438 43.1275C47.2751 43.2244 47.04 43.3933 46.8658 43.6145C46.7808 43.7161 46.6688 43.7931 46.5419 43.8369C46.4822 43.8587 46.4184 43.8673 46.3549 43.8622C46.2915 43.8571 46.23 43.8385 46.1748 43.8076L44.9267 43.1275C44.8053 43.063 44.7153 42.9543 44.6762 42.8253C44.655 42.764 44.6486 42.6987 44.6576 42.6347C44.6666 42.5706 44.6907 42.5094 44.7281 42.4558C44.958 42.0847 45.2637 41.7633 45.6263 41.5113C45.955 41.2882 46.3121 41.1076 46.6887 40.974C47.0499 40.8491 47.4211 40.7536 47.7986 40.6885C48.1743 40.6256 48.5241 40.5626 48.8523 40.4954C49.1485 40.4353 49.4379 40.3467 49.7161 40.231C49.9562 40.128 50.156 39.9529 50.2861 39.7314C50.3996 39.5366 50.4627 39.318 50.4702 39.0943C50.4778 38.8706 50.4294 38.6485 50.3293 38.4469C50.0826 37.947 49.6705 37.5419 49.159 37.2967C48.7183 37.0491 48.2098 36.9397 47.7029 36.9833C47.1959 37.0268 46.7151 37.2213 46.3259 37.5401C46.2297 37.6162 46.1199 37.6745 46.002 37.7123C45.8784 37.7322 45.7516 37.7052 45.6479 37.6367L44.3178 36.9147C44.2237 36.8632 44.1528 36.7793 44.1191 36.6796C44.1023 36.6274 44.0971 36.5724 44.1038 36.5181C44.1105 36.4638 44.129 36.4116 44.158 36.3647C44.4101 35.9745 44.7553 35.6491 45.1642 35.416C45.6298 35.1429 46.1416 34.9524 46.6758 34.8535C47.2605 34.7421 47.8599 34.7237 48.4507 34.7989C49.0812 34.8796 49.6897 35.0777 50.2429 35.3824ZM45.6911 44.8067C45.7497 44.8382 45.8013 44.8809 45.8428 44.932C45.8844 44.9832 45.915 45.0419 45.933 45.1047C45.9521 45.1666 45.9581 45.2316 45.9507 45.2958C45.9433 45.36 45.9225 45.4221 45.8898 45.4783L45.0822 46.8846C45.0167 46.999 44.9072 47.0836 44.7777 47.1198C44.6482 47.156 44.5092 47.1408 44.3912 47.0777L42.979 46.3095C42.9196 46.2795 42.8675 46.2373 42.8265 46.1859C42.7855 46.1344 42.7565 46.0749 42.7415 46.0114C42.7209 45.9499 42.7138 45.885 42.7205 45.8207C42.7272 45.7563 42.7476 45.6941 42.7803 45.6378L43.5879 44.2315C43.6207 44.1752 43.6647 44.1257 43.7173 44.0861C43.77 44.0464 43.8302 44.0174 43.8946 44.0007C43.9581 43.9811 44.0251 43.9747 44.0913 43.9819C44.1575 43.9891 44.2215 44.0098 44.2789 44.0426L45.6911 44.8067Z" fill="#DC1F26"/>
<g opacity="0.2">
<path d="M50.2429 35.3824C50.7522 35.657 51.2178 36.002 51.6249 36.4067C52.0207 36.786 52.3413 37.2328 52.5707 37.7249C52.7908 38.1955 52.9042 38.7066 52.9032 39.2235C52.9027 39.7745 52.7538 40.3158 52.4714 40.7935C52.2598 41.1764 51.9738 41.5157 51.6292 41.7926C51.3206 42.0255 50.9787 42.2136 50.6143 42.3509C50.2602 42.4854 49.8946 42.5894 49.5217 42.6615L48.468 42.863C48.1519 42.9221 47.8424 43.0107 47.5438 43.1275C47.2751 43.2244 47.04 43.3933 46.8658 43.6145C46.7808 43.7161 46.6688 43.7931 46.5419 43.8369C46.4822 43.8587 46.4184 43.8673 46.3549 43.8622C46.2915 43.8571 46.23 43.8385 46.1748 43.8076L44.9267 43.1275C44.8053 43.063 44.7153 42.9543 44.6762 42.8253C44.655 42.764 44.6486 42.6987 44.6576 42.6347C44.6666 42.5706 44.6907 42.5094 44.7281 42.4558C44.958 42.0847 45.2637 41.7633 45.6263 41.5113C45.955 41.2882 46.3121 41.1076 46.6887 40.974C47.0499 40.8491 47.4211 40.7536 47.7986 40.6885C48.1743 40.6256 48.5241 40.5626 48.8523 40.4954C49.1485 40.4353 49.4379 40.3467 49.7161 40.231C49.9562 40.128 50.156 39.9529 50.2861 39.7314C50.3996 39.5366 50.4627 39.318 50.4702 39.0943C50.4778 38.8706 50.4294 38.6485 50.3293 38.4469C50.0826 37.947 49.6705 37.5419 49.159 37.2967C48.7183 37.0491 48.2098 36.9397 47.7029 36.9833C47.1959 37.0268 46.7151 37.2213 46.3259 37.5401C46.2297 37.6162 46.1199 37.6745 46.002 37.7123C45.8784 37.7322 45.7516 37.7052 45.6479 37.6367L44.3178 36.9147C44.2237 36.8632 44.1528 36.7793 44.1191 36.6796C44.1023 36.6274 44.0971 36.5724 44.1038 36.5181C44.1105 36.4638 44.129 36.4116 44.158 36.3647C44.4101 35.9745 44.7553 35.6491 45.1642 35.416C45.6298 35.1429 46.1416 34.9524 46.6758 34.8535C47.2605 34.7421 47.8599 34.7237 48.4507 34.7989C49.0812 34.8796 49.6897 35.0777 50.2429 35.3824ZM45.6911 44.8067C45.7497 44.8382 45.8013 44.8809 45.8428 44.932C45.8844 44.9832 45.915 45.0419 45.933 45.1047C45.9521 45.1666 45.9581 45.2316 45.9507 45.2958C45.9433 45.36 45.9225 45.4221 45.8898 45.4783L45.0822 46.8846C45.0167 46.999 44.9072 47.0836 44.7777 47.1198C44.6482 47.156 44.5092 47.1408 44.3912 47.0777L42.979 46.3095C42.9196 46.2795 42.8675 46.2373 42.8265 46.1859C42.7855 46.1344 42.7565 46.0749 42.7415 46.0114C42.7209 45.9499 42.7138 45.885 42.7205 45.8207C42.7272 45.7563 42.7476 45.6941 42.7803 45.6378L43.5879 44.2315C43.6207 44.1752 43.6647 44.1257 43.7173 44.0861C43.77 44.0464 43.8302 44.0174 43.8946 44.0007C43.9581 43.9811 44.0251 43.9747 44.0913 43.9819C44.1575 43.9891 44.2215 44.0098 44.2789 44.0426L45.6911 44.8067Z" fill="black"/>
</g>
<path d="M19.8225 50.7969C19.88 50.7441 19.9479 50.7031 20.0221 50.6764C20.0963 50.6497 20.1753 50.6379 20.2544 50.6416C20.3354 50.6427 20.4154 50.6596 20.4896 50.6913C20.5638 50.7231 20.6306 50.769 20.6862 50.8263L22.0164 52.2284C22.0711 52.2856 22.1136 52.3527 22.1415 52.426C22.1694 52.4992 22.1821 52.5771 22.1789 52.6552C22.1757 52.7332 22.1566 52.8099 22.1228 52.8807C22.089 52.9516 22.0411 53.0152 21.9818 53.068L20.5739 54.3273C20.5151 54.3805 20.446 54.4219 20.3707 54.449C20.2953 54.4761 20.2152 54.4885 20.1349 54.4854C20.0546 54.4822 19.9757 54.4637 19.9028 54.4308C19.83 54.3979 19.7645 54.3514 19.7102 54.2938L18.3801 52.8917C18.3248 52.8347 18.2818 52.7677 18.2536 52.6944C18.2253 52.6211 18.2124 52.543 18.2157 52.4648C18.2189 52.3866 18.2381 52.3098 18.2723 52.2389C18.3065 52.1681 18.3549 52.1045 18.4146 52.0521L19.8225 50.7969ZM10.5806 42.3382C11.0856 41.8795 11.6557 41.4935 12.2735 41.1922C12.8602 40.904 13.4948 40.7192 14.1478 40.6465C14.7747 40.5792 15.4092 40.6422 16.0091 40.8312C16.6466 41.0427 17.2166 41.4116 17.6632 41.9017C18.0369 42.2707 18.3306 42.709 18.5269 43.1904C18.6853 43.6127 18.7784 44.0555 18.8033 44.5043C18.8279 44.9413 18.8135 45.3795 18.7601 45.8141C18.704 46.2339 18.6521 46.6536 18.6046 47.044C18.5578 47.4116 18.5448 47.7825 18.5658 48.1523C18.5801 48.4846 18.6909 48.8063 18.8853 49.08C18.9691 49.2055 19.0168 49.3504 19.0235 49.4998C19.0273 49.5734 19.0137 49.6468 18.9837 49.7145C18.9538 49.7821 18.9083 49.8422 18.8508 49.8902L17.607 51.011C17.4891 51.115 17.3343 51.1706 17.1752 51.1663C17.0962 51.1692 17.0177 51.1535 16.9463 51.1206C16.8749 51.0877 16.8127 51.0386 16.7649 50.9774C16.4194 50.5869 16.158 50.133 15.9962 49.6425C15.8609 49.202 15.7854 48.7462 15.7716 48.2866C15.7581 47.8431 15.7841 47.3993 15.8493 46.9601C15.9141 46.5403 15.966 46.1205 16.0091 45.7427C16.0478 45.3953 16.0478 45.0448 16.0091 44.6974C15.981 44.3982 15.8519 44.1163 15.6421 43.8956C15.4595 43.699 15.2304 43.5484 14.9746 43.457C14.7187 43.3656 14.4439 43.336 14.1737 43.3709C13.5073 43.4547 12.888 43.7498 12.4117 44.2105C11.4847 45.0501 11.2299 46.1149 11.6473 47.4051C11.6985 47.5394 11.7249 47.6816 11.7251 47.8248C11.7144 47.8955 11.6894 47.9634 11.6516 48.0246C11.6138 48.0859 11.5639 48.1392 11.5048 48.1817L10.179 49.3739C10.0863 49.4608 9.9623 49.5091 9.83349 49.5082C9.76753 49.5071 9.70257 49.4923 9.64297 49.4648C9.58338 49.4373 9.53054 49.3977 9.488 49.3487C9.12088 48.9358 8.86425 48.4412 8.74088 47.9088C8.59434 47.2996 8.56071 46.6698 8.64155 46.0492C8.73023 45.3687 8.93149 44.7067 9.23752 44.0887C9.56348 43.4257 10.0197 42.831 10.5806 42.3382Z" fill="#DC1F26"/>
<g opacity="0.6">
<path d="M19.8225 50.7969C19.88 50.7441 19.9479 50.7031 20.0221 50.6764C20.0963 50.6497 20.1753 50.6379 20.2544 50.6416C20.3354 50.6427 20.4154 50.6596 20.4896 50.6913C20.5638 50.7231 20.6306 50.769 20.6862 50.8263L22.0164 52.2284C22.0711 52.2856 22.1136 52.3527 22.1415 52.426C22.1694 52.4992 22.1821 52.5771 22.1789 52.6552C22.1757 52.7332 22.1566 52.8099 22.1228 52.8807C22.089 52.9516 22.0411 53.0152 21.9818 53.068L20.5739 54.3273C20.5151 54.3805 20.446 54.4219 20.3707 54.449C20.2953 54.4761 20.2152 54.4885 20.1349 54.4854C20.0546 54.4822 19.9757 54.4637 19.9028 54.4308C19.83 54.3979 19.7645 54.3514 19.7102 54.2938L18.3801 52.8917C18.3248 52.8347 18.2818 52.7677 18.2536 52.6944C18.2253 52.6211 18.2124 52.543 18.2157 52.4648C18.2189 52.3866 18.2381 52.3098 18.2723 52.2389C18.3065 52.1681 18.3549 52.1045 18.4146 52.0521L19.8225 50.7969ZM10.5806 42.3382C11.0856 41.8795 11.6557 41.4935 12.2735 41.1922C12.8602 40.904 13.4948 40.7192 14.1478 40.6465C14.7747 40.5792 15.4092 40.6422 16.0091 40.8312C16.6466 41.0427 17.2166 41.4116 17.6632 41.9017C18.0369 42.2707 18.3306 42.709 18.5269 43.1904C18.6853 43.6127 18.7784 44.0555 18.8033 44.5043C18.8279 44.9413 18.8135 45.3795 18.7601 45.8141C18.704 46.2339 18.6521 46.6536 18.6046 47.044C18.5578 47.4116 18.5448 47.7825 18.5658 48.1523C18.5801 48.4846 18.6909 48.8063 18.8853 49.08C18.9691 49.2055 19.0168 49.3504 19.0235 49.4998C19.0273 49.5734 19.0137 49.6468 18.9837 49.7145C18.9538 49.7821 18.9083 49.8422 18.8508 49.8902L17.607 51.011C17.4891 51.115 17.3343 51.1706 17.1752 51.1663C17.0962 51.1692 17.0177 51.1535 16.9463 51.1206C16.8749 51.0877 16.8127 51.0386 16.7649 50.9774C16.4194 50.5869 16.158 50.133 15.9962 49.6425C15.8609 49.202 15.7854 48.7462 15.7716 48.2866C15.7581 47.8431 15.7841 47.3993 15.8493 46.9601C15.9141 46.5403 15.966 46.1205 16.0091 45.7427C16.0478 45.3953 16.0478 45.0448 16.0091 44.6974C15.981 44.3982 15.8519 44.1163 15.6421 43.8956C15.4595 43.699 15.2304 43.5484 14.9746 43.457C14.7187 43.3656 14.4439 43.336 14.1737 43.3709C13.5073 43.4547 12.888 43.7498 12.4117 44.2105C11.4847 45.0501 11.2299 46.1149 11.6473 47.4051C11.6985 47.5394 11.7249 47.6816 11.7251 47.8248C11.7144 47.8955 11.6894 47.9634 11.6516 48.0246C11.6138 48.0859 11.5639 48.1392 11.5048 48.1817L10.179 49.3739C10.0863 49.4608 9.9623 49.5091 9.83349 49.5082C9.76753 49.5071 9.70257 49.4923 9.64297 49.4648C9.58338 49.4373 9.53054 49.3977 9.488 49.3487C9.12088 48.9358 8.86425 48.4412 8.74088 47.9088C8.59434 47.2996 8.56071 46.6698 8.64155 46.0492C8.73023 45.3687 8.93149 44.7067 9.23752 44.0887C9.56348 43.4257 10.0197 42.831 10.5806 42.3382Z" fill="white"/>
</g>
<path d="M107.763 80.0857C106.532 79.4014 101.35 76.4881 99.5876 75.4974C99.2378 75.3043 99.0175 75.1784 99.0002 75.1658C98.1242 74.6911 97.1005 74.5419 96.1197 74.746C95.2778 74.9121 94.4715 75.2174 93.7358 75.6485C93.6149 75.7157 93.494 75.7954 93.3774 75.871C91.3865 77.0926 89.6763 79.0152 88.2512 81.6599C86.8 84.2359 86.0215 87.1188 85.9839 90.0556C85.9839 92.8374 86.7468 94.7894 88.2728 95.9116C88.4273 96.0235 88.5888 96.1258 88.7564 96.218C90.1859 97.0072 97.3548 101.046 97.5146 101.134H97.5535C97.3771 101.04 97.2082 100.933 97.0482 100.815C95.5194 99.6953 94.7565 97.7447 94.7593 94.9629C94.7969 92.0261 95.5755 89.1432 97.0266 86.5672C98.5324 83.7686 100.359 81.7634 102.507 80.5516C104.551 79.4042 106.316 79.2545 107.802 80.1025L107.763 80.0857Z" fill="#DC1F26"/>
<path opacity="0.4" d="M107.802 80.1107C106.316 79.2712 104.551 79.4195 102.507 80.5557C100.512 81.6751 98.7915 83.4942 97.3462 86.0129L88.5707 81.072C89.9268 78.717 91.529 76.9833 93.3731 75.8541C93.4897 75.7827 93.6106 75.6988 93.7315 75.6316C94.4664 75.1999 95.2731 74.8959 96.1154 74.7333C97.0961 74.5268 98.1206 74.6761 98.9959 75.153L99.5833 75.4847C101.345 76.4712 106.528 79.3845 107.758 80.0687L107.802 80.1107Z" fill="black"/>
<path opacity="0.3" d="M97.5535 101.121H97.5146C97.3548 101.033 90.173 96.9945 88.7564 96.2053C88.5888 96.113 88.4273 96.0107 88.2728 95.8988C86.7468 94.7794 85.9839 92.8288 85.9839 90.047C86.0204 87.1101 86.799 84.227 88.2512 81.6513C88.3548 81.454 88.4628 81.2609 88.5751 81.0762L97.3462 86.0003C97.2382 86.185 97.1303 86.3781 97.0266 86.5712C95.5755 89.1473 94.7969 92.0302 94.7593 94.9669C94.7593 97.7487 95.5223 99.6993 97.0482 100.819C97.2088 100.931 97.3777 101.032 97.5535 101.121Z" fill="black"/>
<path d="M103.936 8.05023C108.195 5.65745 111.819 4.64017 114.811 4.99839C116.028 5.13976 117.204 5.51962 118.266 6.11502C118.236 6.09978 118.207 6.08296 118.179 6.06464C117.151 5.50213 110.959 2.0305 109.542 1.22031C108.461 0.606431 107.261 0.217599 106.018 0.0784886C103.024 -0.276931 99.3976 0.738953 95.1394 3.12614C88.5175 6.83985 83.1912 12.2971 79.1605 19.4978C75.1297 26.6985 73.136 34.049 73.1791 41.5492L81.9503 46.4733C81.8898 38.9675 83.8836 31.6156 87.9316 24.4177C91.9796 17.2198 97.3145 11.7639 103.936 8.05023Z" fill="#DC1F26"/>
<path opacity="0.2" d="M118.197 6.06879C117.15 5.50213 116 5.13857 114.811 4.99833C111.822 4.64011 108.197 5.6574 103.936 8.05018C97.3145 11.7611 91.9882 17.2183 87.9575 24.4219C87.7891 24.7199 87.625 25.0221 87.4652 25.3202L78.6724 20.3877C78.8322 20.0897 78.9963 19.7874 79.1648 19.4894C83.2128 12.2942 88.5391 6.837 95.1437 3.11769C99.4076 0.727703 103.034 -0.288179 106.022 0.0700385C107.266 0.210561 108.466 0.60082 109.546 1.21606C110.976 2.03464 117.169 5.51047 118.197 6.06879Z" fill="black"/>
<path opacity="0.3" d="M87.4434 25.3118C83.7265 32.2215 81.8969 39.2725 81.9545 46.4648L73.1833 41.5407C73.1286 34.3456 74.9583 27.2946 78.6723 20.3877L87.4434 25.3118Z" fill="black"/>
<path d="M109.896 22.0039C108.304 21.1811 106.178 21.5029 103.518 22.9694C103.428 24.5079 103.102 26.0247 102.55 27.4695C101.885 29.2102 99.9503 32.8008 96.7459 38.2412C93.4263 43.8664 91.0252 49.2382 89.5424 54.3568C88.0718 59.4104 87.3249 64.637 87.3227 69.8889L87.3659 72.5042L93.3515 75.8625L96.1413 77.4283L96.0938 74.8088V74.7752C96.1033 69.5404 96.8502 64.3314 98.3136 59.2935C99.7963 54.1749 102.199 48.8044 105.521 43.1821C108.723 37.7417 110.656 34.1497 111.321 32.4062C111.985 30.6825 112.325 28.8567 112.323 27.0161C112.323 24.5114 111.514 22.8407 109.896 22.0039Z" fill="#DC1F26"/>
<path opacity="0.3" d="M110.462 34.291C109.471 36.2948 107.825 39.2529 105.521 43.1653C102.196 48.7904 99.7934 54.1623 98.3136 59.2809C96.8486 64.3228 96.1018 69.5361 96.0938 74.7752V74.8423L96.1413 77.4618L93.3515 75.9002L87.3659 72.5419L87.3227 69.9225C87.3252 64.6706 88.0721 59.444 89.5424 54.3904C91.0252 49.2718 93.4263 43.8999 96.7459 38.2748C99.0492 34.3567 100.699 31.4 101.695 29.4047L110.462 34.291Z" fill="black"/>
<path opacity="0.4" d="M112.323 27.0161C112.324 28.8508 111.986 30.6708 111.326 32.3894C111.14 32.8805 110.851 33.5144 110.462 34.291L101.695 29.3711C102.078 28.5931 102.366 27.9592 102.559 27.4695C103.11 26.0247 103.436 24.5079 103.526 22.9694C106.186 21.5029 108.313 21.1811 109.905 22.0039C111.497 22.8267 112.303 24.4974 112.323 27.0161Z" fill="black"/>
<path d="M93.8265 39.7986L81.9546 46.4648C81.8941 38.9591 83.8879 31.6072 87.9359 24.4093C91.9839 17.2113 97.3102 11.7541 103.915 8.03759C108.173 5.6448 111.798 4.62752 114.789 4.98574C117.781 5.34396 120.174 6.93775 121.971 9.76711C123.77 12.5965 124.67 16.1255 124.67 20.3541C124.652 22.8092 124.363 25.2552 123.806 27.65C123.133 30.5147 122.225 33.3223 121.09 36.0457C120.365 37.8256 118.627 41.1112 115.877 45.9023C113.249 50.4696 111.602 53.5774 110.937 55.2258C110.199 57.1824 109.651 59.2021 109.3 61.2581C108.777 64.3312 108.489 67.4377 108.436 70.5522L96.1586 77.4451L96.1111 74.8256C96.1136 69.5737 96.8606 64.3472 98.3309 59.2935C99.8136 54.1749 102.216 48.8045 105.539 43.1821C108.74 37.7417 110.674 34.1497 111.339 32.4062C111.997 30.6815 112.33 28.8557 112.323 27.0161C112.323 24.4974 111.516 22.8267 109.9 22.0039C108.285 21.1811 106.117 21.5253 103.397 23.0366C100.615 24.5982 98.3337 26.9406 96.5516 30.0638C94.8087 33.0316 93.8709 36.3816 93.8265 39.7986Z" fill="#DC1F26"/>
<path d="M102.485 80.5808C104.688 79.3411 106.568 79.2641 108.126 80.35C109.683 81.4358 110.462 83.3682 110.462 86.1472C110.415 89.1 109.621 91.9962 108.151 94.5807C106.614 97.4213 104.756 99.453 102.576 100.676C100.397 101.899 98.5453 101.949 97.0223 100.827C95.4964 99.7077 94.7334 97.7557 94.7334 94.9711C94.771 92.0344 95.5496 89.1515 97.0007 86.5754C98.5122 83.7824 100.34 81.7842 102.485 80.5808Z" fill="#DC1F26"/>
</svg>
