<svg width="199" height="188" viewBox="0 0 199 188" fill="none" xmlns="http://www.w3.org/2000/svg">
<path d="M98.0718 188C151.355 188 194.55 165.167 194.55 137C194.55 108.834 151.355 86.0002 98.0718 86.0002C44.7883 86.0002 1.59354 108.834 1.59354 137C1.59354 165.167 44.7883 188 98.0718 188Z" fill="#F5F5F5"/>
<path d="M98.0717 134.33C106.1 134.33 112.608 130.677 112.608 126.17C112.608 121.663 106.1 118.009 98.0717 118.009C90.0434 118.009 83.5352 121.663 83.5352 126.17C83.5352 130.677 90.0434 134.33 98.0717 134.33Z" fill="#E0E0E0"/>
<path d="M152.284 156.138C164.975 156.138 175.263 150.365 175.263 143.242C175.263 136.12 164.975 130.347 152.284 130.347C139.592 130.347 129.304 136.12 129.304 143.242C129.304 150.365 139.592 156.138 152.284 156.138Z" fill="#E0E0E0"/>
<path d="M39.5197 157.532C52.2109 157.532 62.4992 151.758 62.4992 144.636C62.4992 137.514 52.2109 131.74 39.5197 131.74C26.8285 131.74 16.5403 137.514 16.5403 144.636C16.5403 151.758 26.8285 157.532 39.5197 157.532Z" fill="#E0E0E0"/>
<path d="M186.604 134.079L182.264 132.353C181.718 128.706 181.404 125.031 181.322 121.346C181.322 114.454 185.74 106.024 191.346 107.435C196.951 108.845 189.765 116.557 188.599 122.513C187.433 128.47 186.604 134.079 186.604 134.079Z" fill="#F6881F"/>
<path opacity="0.3" d="M186.604 134.079L182.264 132.353C181.718 128.706 181.404 125.031 181.322 121.346C181.322 114.454 185.74 106.024 191.346 107.435C196.951 108.845 189.765 116.557 188.599 122.513C187.433 128.47 186.604 134.079 186.604 134.079Z" fill="black"/>
<path d="M184.501 133.545C184.548 133.539 184.591 133.515 184.62 133.478C184.65 133.441 184.662 133.394 184.656 133.348C182.588 118.236 189.58 109.84 189.649 109.769C189.68 109.733 189.694 109.686 189.69 109.639C189.685 109.592 189.662 109.549 189.625 109.519C189.588 109.489 189.54 109.474 189.491 109.479C189.443 109.483 189.399 109.506 189.368 109.542C189.299 109.626 182.203 118.122 184.294 133.394C184.297 133.418 184.305 133.44 184.317 133.46C184.329 133.48 184.345 133.498 184.364 133.512C184.384 133.526 184.406 133.536 184.429 133.542C184.453 133.548 184.477 133.549 184.501 133.545Z" fill="white"/>
<path d="M188.832 135.086L186.565 134.087C185.886 130.691 185.989 127.192 186.867 123.84C188.323 118.408 193.168 115.058 195.608 115.612C198.592 116.288 198.882 118.97 198.009 120.838C196.969 123.051 189.791 129.041 188.832 135.086Z" fill="#F6881F"/>
<path opacity="0.1" d="M188.832 135.086L186.565 134.087C185.886 130.691 185.989 127.192 186.867 123.84C188.323 118.408 193.168 115.058 195.608 115.612C198.592 116.288 198.882 118.97 198.009 120.838C196.969 123.051 189.791 129.041 188.832 135.086Z" fill="black"/>
<path d="M187.653 134.738C187.702 134.732 187.746 134.709 187.777 134.672C187.808 134.635 187.822 134.587 187.817 134.54C186.798 124.952 195.405 117.581 195.496 117.509C195.529 117.475 195.547 117.43 195.547 117.384C195.547 117.337 195.529 117.292 195.496 117.258C195.479 117.241 195.459 117.228 195.437 117.218C195.414 117.209 195.39 117.205 195.366 117.205C195.342 117.205 195.318 117.209 195.296 117.218C195.274 117.228 195.254 117.241 195.237 117.258C195.146 117.333 186.401 124.814 187.433 134.595C187.443 134.642 187.472 134.683 187.513 134.71C187.554 134.736 187.605 134.746 187.653 134.738Z" fill="white"/>
<path d="M14.2904 130.216L17.2702 128.562C17.2702 128.562 18.6954 120.918 17.6287 114.344C16.1258 105.109 9.65217 101.914 7.30283 102.834C4.9535 103.753 4.40071 106.49 8.64593 111.83C11.1507 114.978 14.3724 121.64 14.2904 130.216Z" fill="#F6881F"/>
<g opacity="0.15">
<path d="M14.2904 130.216L17.2702 128.562C17.2702 128.562 18.6954 120.918 17.6287 114.344C16.1258 105.109 9.65217 101.914 7.30283 102.834C4.9535 103.753 4.40071 106.49 8.64593 111.83C11.1507 114.978 14.3724 121.64 14.2904 130.216Z" fill="black"/>
</g>
<path d="M15.3699 126.547H15.3397C15.3123 126.544 15.286 126.535 15.2622 126.521C15.2384 126.508 15.2177 126.49 15.2012 126.468C15.1847 126.447 15.1728 126.422 15.1662 126.396C15.1596 126.37 15.1583 126.343 15.1626 126.317C16.3891 117.665 12.8133 108.186 8.78831 104.366C8.76332 104.348 8.74254 104.326 8.72737 104.299C8.71219 104.273 8.70298 104.244 8.70036 104.214C8.69774 104.184 8.70177 104.154 8.71217 104.126C8.72258 104.097 8.73911 104.072 8.76066 104.05C8.78222 104.028 8.80828 104.012 8.83709 104.001C8.86591 103.99 8.89679 103.985 8.92767 103.987C8.95854 103.988 8.98868 103.997 9.01605 104.011C9.04342 104.025 9.06738 104.044 9.0863 104.068C13.1804 107.938 16.8296 117.593 15.5858 126.367C15.5785 126.417 15.5526 126.464 15.5128 126.497C15.4731 126.53 15.4223 126.548 15.3699 126.547Z" fill="white"/>
<path d="M6.03315 134.855C5.56242 135.115 4.59504 134.544 4.22364 134.301C3.58658 133.874 3.07224 133.296 2.72939 132.622C2.34651 131.86 2.21672 131.002 2.35799 130.166C2.43275 129.724 2.53954 129.288 2.67757 128.86L3.05329 127.601C3.20132 127.198 3.26589 126.77 3.24331 126.342C3.13103 125.473 2.3364 124.868 1.6195 124.344C0.820557 123.764 -0.00430175 123 1.68848e-05 121.955C0.0557392 121.145 0.38868 120.377 0.945798 119.772C1.4554 119.138 2.06432 118.58 2.53074 117.912C2.89632 117.444 3.08399 116.867 3.06193 116.279C3.01246 115.922 2.88906 115.578 2.69916 115.268C2.26227 114.622 1.88094 113.943 1.55904 113.236C1.29561 112.506 1.33447 111.599 1.92181 111.074C2.18318 110.884 2.48095 110.747 2.79763 110.671C3.1143 110.594 3.44349 110.58 3.76586 110.629C4.37908 110.699 4.96886 110.9 5.49332 111.217C7.19918 112.136 8.17087 114.101 9.98038 114.81C10.6968 115.027 11.4267 115.2 12.1656 115.327C12.5365 115.393 12.8888 115.535 13.1998 115.743C13.5107 115.95 13.7734 116.219 13.9708 116.531C14.6359 117.82 13.4051 119.407 13.8715 120.775C14.3033 121.984 15.4953 122.455 16.1733 123.542C16.4512 124.023 16.5633 124.577 16.4929 125.124C16.4326 126.05 16.1999 126.958 15.8062 127.803C15.3632 128.643 14.8565 129.449 14.2904 130.216C14.2645 130.246 6.10656 134.805 6.03315 134.855Z" fill="#F6881F"/>
<path d="M10.8657 132.353C10.8373 132.352 10.8095 132.345 10.7837 132.334C10.7579 132.322 10.7347 132.306 10.7155 132.286C10.6962 132.265 10.6813 132.242 10.6715 132.216C10.6617 132.19 10.6572 132.162 10.6584 132.135C11.0082 123.949 7.03939 114.924 4.15454 112.279C4.11525 112.24 4.0932 112.188 4.0932 112.134C4.0932 112.08 4.11525 112.028 4.15454 111.989C4.19491 111.951 4.24918 111.929 4.3057 111.929C4.36222 111.929 4.41648 111.951 4.45685 111.989C7.38056 114.655 11.4358 123.848 11.0773 132.156C11.0751 132.209 11.0518 132.259 11.0124 132.296C10.9729 132.333 10.9204 132.353 10.8657 132.353Z" fill="white"/>
<path d="M9.60459 122.677H9.53981C7.54441 122.144 5.49557 121.821 3.42894 121.716C3.37168 121.716 3.31675 121.694 3.27626 121.654C3.23576 121.615 3.21301 121.561 3.21301 121.506C3.21301 121.45 3.23576 121.397 3.27626 121.357C3.31675 121.318 3.37168 121.296 3.42894 121.296C5.5322 121.402 7.61737 121.73 9.64777 122.274C9.67444 122.282 9.69929 122.294 9.72089 122.311C9.74249 122.329 9.76042 122.35 9.77366 122.373C9.78689 122.397 9.79518 122.423 9.79803 122.45C9.80088 122.477 9.79825 122.504 9.79029 122.53C9.7777 122.57 9.75335 122.605 9.72031 122.631C9.68726 122.657 9.647 122.673 9.60459 122.677Z" fill="white"/>
<path d="M163.642 140.581L159.617 140.132L158.576 132.248L163.495 133.667L163.642 140.581Z" fill="#B16668"/>
<path d="M154.823 147.012C154.765 147.167 154.741 147.333 154.753 147.498C154.765 147.663 154.812 147.823 154.892 147.969C155.324 148.456 156.438 149.027 157.958 149.132C159.413 149.233 160.709 149.044 161.56 148.519C161.93 148.333 162.246 148.061 162.482 147.727C162.717 147.393 162.863 147.007 162.907 146.605C162.989 145.803 162.907 145.026 163.292 144.409C163.676 143.792 164.233 143.192 164.358 142.881C164.508 142.345 164.508 141.78 164.358 141.244L154.823 147.012Z" fill="#263238"/>
<path d="M158.8 139.993C158.787 140.297 158.731 140.598 158.632 140.887C158.409 141.509 158.111 142.102 157.742 142.655C157.561 142.948 157.359 143.229 157.138 143.494C156.706 144.002 156.153 144.422 155.687 144.909C155.192 145.368 154.875 145.979 154.788 146.638C154.728 147.747 156.542 148.125 157.496 148.288C158.526 148.463 159.582 148.411 160.588 148.137C161.117 148.003 161.594 147.724 161.963 147.333C162.332 146.942 162.578 146.456 162.67 145.933C162.726 145.623 162.704 145.308 162.743 145.001C162.869 144.294 163.173 143.627 163.629 143.062C163.893 142.736 164.12 142.382 164.307 142.008C164.605 141.324 164.367 140.552 164.177 139.872C164.013 139.28 163.814 138.612 163.598 138.658C163.598 138.965 163.598 139.007 163.387 139.212C163.175 139.418 163.093 139.872 162.791 140.102C162.887 139.847 162.958 139.582 163.002 139.313C163.021 139.205 162.998 139.095 162.938 139.003C162.837 138.915 162.718 138.852 162.588 138.818C162.139 138.672 161.676 138.569 161.206 138.511C160.564 138.44 159.917 138.44 159.275 138.511C159.142 138.535 159.021 138.603 158.934 138.704C158.857 138.816 158.814 138.948 158.813 139.082C158.792 139.242 158.809 139.699 158.8 139.993Z" fill="#455A64"/>
<path d="M157.587 142.89C158.019 142.579 159.543 142.575 160.061 142.629C160.59 142.673 161.098 142.847 161.538 143.133C161.603 143.178 161.682 143.199 161.761 143.193C161.84 143.187 161.914 143.154 161.97 143.1C162.003 143.068 162.028 143.03 162.045 142.988C162.061 142.946 162.067 142.901 162.064 142.857C162.061 142.812 162.048 142.769 162.025 142.729C162.003 142.69 161.973 142.656 161.936 142.629C161.452 142.282 160.877 142.074 160.277 142.029C159.529 141.976 158.777 142.018 158.04 142.155C158.04 142.155 157.462 142.52 157.587 142.89Z" fill="#F5F5F5"/>
<path d="M156.611 144.04C157.146 143.734 158.77 143.776 159.293 143.83C159.811 143.882 160.305 144.066 160.726 144.363C160.791 144.407 160.87 144.428 160.949 144.422C161.027 144.416 161.102 144.383 161.158 144.33C161.191 144.298 161.216 144.26 161.233 144.218C161.249 144.176 161.255 144.132 161.252 144.087C161.249 144.042 161.236 143.999 161.214 143.96C161.191 143.92 161.161 143.886 161.124 143.86C160.415 143.503 159.642 143.283 158.848 143.213C157.552 143.125 157.237 143.377 157.237 143.377C157.088 143.435 156.955 143.525 156.847 143.64C156.738 143.754 156.658 143.891 156.611 144.04Z" fill="#F5F5F5"/>
<path d="M160.787 140.841C160.056 140.76 159.317 140.804 158.602 140.971C158.377 141.093 158.226 141.442 158.373 141.53C159.025 141.359 159.702 141.293 160.377 141.337C160.855 141.383 161.323 141.508 161.759 141.706C161.871 141.756 162 141.819 162.113 141.882C162.149 141.905 162.189 141.919 162.232 141.925C162.274 141.931 162.317 141.927 162.358 141.915C162.399 141.903 162.437 141.883 162.469 141.856C162.501 141.828 162.527 141.794 162.545 141.756C162.575 141.695 162.581 141.624 162.561 141.558C162.541 141.492 162.497 141.435 162.437 141.4C161.934 141.101 161.372 140.911 160.787 140.841Z" fill="#F5F5F5"/>
<path d="M148.634 136.996L144.808 135.959V128.441L149.554 128.642L148.634 136.996Z" fill="#B16668"/>
<path d="M136.724 141.022C136.616 141.346 136.636 141.698 136.78 142.008C136.922 142.294 138.473 143.146 140.563 143.007C142.111 142.899 143.602 142.392 144.881 141.538C145.676 141.026 146.505 140.929 147.542 140.875C148.578 140.82 149.934 140.312 150.163 139.842C150.28 139.421 150.268 138.976 150.129 138.562L136.724 141.022Z" fill="#263238"/>
<path d="M145.145 134.683L144.981 134.649C144.89 134.629 144.795 134.629 144.704 134.649C144.604 134.681 144.514 134.74 144.445 134.817C144.241 135.073 144.063 135.347 143.914 135.636C143.482 136.329 142.554 136.895 141.552 137.428C140.869 137.785 140.2 138.062 139.496 138.369C138.792 138.675 137.82 138.877 137.259 139.246C136.438 139.783 136.33 141.131 137.259 141.664C138.062 142.126 140.187 142.625 142.411 142.012C143.62 141.677 144.968 140.421 146.557 140.3C147.568 140.22 149.481 139.947 150.133 139.2C150.375 138.868 150.051 137.819 149.787 136.912C149.498 135.921 149.226 134.393 148.889 134.465C148.892 134.536 148.877 134.606 148.847 134.67C148.816 134.735 148.77 134.791 148.712 134.834C148.587 134.96 148.418 135.04 148.28 135.153C148.044 135.379 147.854 135.645 147.719 135.938C147.664 136.069 147.563 136.176 147.434 136.24C147.261 136.299 147.136 136.198 147.002 136.131C146.812 136.047 146.597 136.032 146.397 136.089C146.418 135.892 146.454 135.697 146.505 135.506C146.524 135.446 146.524 135.381 146.505 135.321C146.481 135.26 146.435 135.21 146.376 135.178C146.006 134.931 145.586 134.763 145.145 134.683Z" fill="#455A64"/>
<path d="M142.51 136.878C142.583 136.743 142.689 136.627 142.82 136.542C142.95 136.457 143.101 136.405 143.257 136.392C143.715 136.308 144.527 136.639 145.032 137.042C145.081 137.08 145.119 137.128 145.143 137.183C145.167 137.238 145.177 137.298 145.172 137.358C145.167 137.418 145.147 137.475 145.114 137.526C145.08 137.576 145.034 137.618 144.981 137.647C144.913 137.684 144.835 137.7 144.757 137.691C144.679 137.683 144.607 137.651 144.549 137.601C143.991 137.112 143.26 136.853 142.51 136.878Z" fill="#F5F5F5"/>
<path d="M141.081 137.655C141.181 137.517 141.314 137.405 141.468 137.328C141.622 137.25 141.793 137.21 141.966 137.21C142.676 137.24 143.358 137.489 143.914 137.92C143.959 137.956 143.995 138.003 144.018 138.056C144.041 138.109 144.05 138.167 144.045 138.224C144.04 138.282 144.02 138.337 143.989 138.386C143.957 138.434 143.913 138.474 143.862 138.503C143.795 138.542 143.716 138.559 143.638 138.551C143.56 138.542 143.487 138.509 143.43 138.457C143.125 138.162 142.755 137.936 142.349 137.798C141.942 137.659 141.509 137.61 141.081 137.655Z" fill="#F5F5F5"/>
<path d="M139.531 138.352C139.645 138.225 139.785 138.124 139.944 138.055C140.102 137.986 140.273 137.951 140.446 137.953C141.13 137.994 141.783 138.244 142.312 138.667C142.357 138.704 142.393 138.751 142.416 138.805C142.438 138.858 142.448 138.916 142.443 138.974C142.437 139.031 142.418 139.087 142.386 139.136C142.355 139.184 142.311 139.225 142.26 139.254C142.193 139.294 142.114 139.31 142.036 139.302C141.958 139.294 141.885 139.261 141.828 139.208C141.539 138.902 141.182 138.666 140.783 138.517C140.384 138.369 139.956 138.312 139.531 138.352Z" fill="#F5F5F5"/>
<path d="M162.761 87.944C163.024 95.6974 163.041 112.489 163.041 112.489C163.123 113.454 163.21 115.167 163.283 118.643C163.391 123.68 163.642 136.119 163.642 136.119C163.642 136.119 161.167 137.248 158.891 136.329C158.891 136.329 155.73 118.84 155.082 113.853C154.516 109.5 153.432 99.2908 153.432 99.2908L151.938 112.25C151.938 112.25 151.938 115.608 151.735 118.572C151.567 120.88 149.261 132.773 149.261 132.773C147.754 133.162 146.164 133.111 144.687 132.626C144.687 132.626 144.48 114.37 144.437 112.25C144.389 109.84 145.028 83.7881 145.028 83.7881L162.761 87.944Z" fill="#455A64"/>
<path d="M153.441 99.2907L152.871 94.8955C151.03 94.4381 149.289 93.6617 147.732 92.6035C147.732 92.6035 148.829 94.0308 152.05 95.542L152.776 99.53L151.955 112.25L153.441 99.2907Z" fill="#37474F"/>
<path d="M144.825 66.1864C143.659 67.6724 137.661 75.6736 137.661 75.6736L132.12 71.5009C130.824 70.5144 130.44 69.2215 129.628 68.3273C128.816 67.4332 127.926 67.2191 127.015 66.4719C126.104 65.7246 125.754 65.1579 125.443 65.796C125.132 66.4341 126.138 67.5465 126.307 67.8152C126.475 68.0838 127.516 68.7261 126.143 68.6548C124.769 68.5834 122.126 67.0596 121.487 66.7783C120.848 66.497 120.831 67.2653 121.133 67.769C121.436 68.2727 121.284 69.6748 121.638 70.5774C121.993 71.4799 122.614 72.034 123.88 72.6427C125.059 73.2136 127.926 73.5705 128.859 74.1414C130.906 76.1815 134.767 79.989 135.743 80.6942C137.086 81.6639 138.386 82.5581 140.442 80.6355C142.497 78.7128 148.453 71.1693 148.453 71.1693L149.684 63.9951C147.663 63.9238 146.233 64.3939 144.825 66.1864Z" fill="#B16668"/>
<path d="M137.661 75.6737C138.421 76.2194 139.211 77.4452 139.284 77.9951C139.275 77.4741 139.156 76.9605 138.933 76.4865C138.71 76.0126 138.388 75.5887 137.989 75.2413L137.661 75.6737Z" fill="#9A4A4D"/>
<path d="M150.159 63.8188C150.159 63.8188 147.309 63.7852 146.056 64.6374C144.804 65.4895 143.875 66.7363 141.841 69.6118C140.058 72.1306 139.194 73.3395 139.194 73.3395C140.361 75.0183 142.061 76.2802 144.035 76.9329L149.356 70.527L150.159 63.8188Z" fill="#37474F"/>
<path d="M155.674 63.6845C157.289 63.8356 159.56 63.8524 161.158 64.012C162.268 64.4569 164.41 66.2704 164.25 67.5634C163.654 72.3951 162.45 80.3165 162.45 80.3165L162.847 88.7122C160.623 90.8699 150.215 91.7137 144.851 88.263C144.851 88.263 145.024 73.1843 145.395 70.632C146.056 66.0605 146.635 64.3646 149.062 63.9616C151.489 63.5586 155.674 63.6845 155.674 63.6845Z" fill="#F6881F"/>
<path d="M164.821 66.3081C165.987 67.7942 171.989 75.7953 171.989 75.7953L177.535 71.6226C178.83 70.6319 179.215 69.339 180.026 68.449C180.838 67.5591 181.728 67.3408 182.639 66.5936C183.55 65.8463 183.9 65.2796 184.211 65.9135C184.522 66.5474 183.516 67.6682 183.347 67.9369C183.179 68.2056 182.138 68.8478 183.512 68.7765C184.885 68.7051 187.524 67.1771 188.167 66.8958C188.811 66.6146 188.819 67.3828 188.521 67.8865C188.223 68.3903 188.366 69.7965 188.016 70.6991C187.666 71.6016 187.04 72.1515 185.775 72.7644C184.596 73.3353 181.728 73.6922 180.795 74.2631C178.748 76.299 174.887 80.1107 173.911 80.8117C172.568 81.7814 171.268 82.6756 169.213 80.7572C167.157 78.8387 162.458 72.8652 162.458 72.8652L159.971 64.1168C161.988 64.0455 163.417 64.5156 164.821 66.3081Z" fill="#B16668"/>
<path d="M171.989 75.7952C171.229 76.3409 170.439 77.5667 170.366 78.1166C170.374 77.5949 170.493 77.0804 170.716 76.6058C170.939 76.1311 171.261 75.7065 171.661 75.3586L171.989 75.7952Z" fill="#9A4A4D"/>
<path d="M159.686 63.907C159.686 63.907 162.247 63.7517 163.594 64.7466C164.808 65.6533 165.753 66.8455 167.809 69.721C169.593 72.2397 170.456 73.4487 170.456 73.4487C169.286 75.1269 167.585 76.3885 165.611 77.0421L161.988 72.7015C160.1 70.3759 158.23 66.8371 159.686 63.907Z" fill="#37474F"/>
<path d="M156.075 52.3166C156.084 53.2797 155.798 54.2235 155.255 55.0289C154.711 55.8342 153.935 56.4649 153.023 56.8411C152.11 57.2173 151.104 57.3221 150.131 57.1424C149.157 56.9626 148.261 56.5063 147.554 55.8312C146.847 55.1561 146.363 54.2925 146.161 53.3496C145.959 52.4067 146.05 51.4268 146.421 50.5339C146.792 49.6409 147.428 48.8751 148.247 48.3331C149.066 47.7911 150.032 47.4974 151.022 47.4891C151.68 47.4835 152.333 47.604 152.943 47.8436C153.553 48.0832 154.108 48.4373 154.577 48.8856C155.047 49.3339 155.42 49.8676 155.677 50.4563C155.934 51.045 156.07 51.6771 156.075 52.3166Z" fill="#263238"/>
<path d="M159.759 55.7505C159.759 55.7505 158.977 59.4656 158.658 60.0743C158.445 60.4523 158.091 60.7364 157.669 60.8677L157.699 58.2566L159.759 55.7505Z" fill="#263238"/>
<path d="M158.692 50.4486C158.976 50.4133 159.263 50.4415 159.534 50.531C159.804 50.6205 160.049 50.7689 160.251 50.965C160.925 51.624 160.571 53.7062 159.759 55.7505L158.23 55.9352L158.692 50.4486Z" fill="#263238"/>
<path d="M157.773 55.9395C158.079 56.1158 158.511 55.5197 158.887 55.1503C159.262 54.7809 160.489 54.2267 161.119 55.4819C161.75 56.7371 160.601 58.4708 159.634 58.773C157.963 59.302 157.699 58.2567 157.699 58.2567L157.63 64.31C155.574 66.9253 149.792 66.7532 152.176 64.0246V62.2363C151.431 62.3576 150.675 62.4013 149.921 62.3664C148.686 62.1943 147.904 61.254 147.516 59.961C146.898 57.8873 146.652 56.2081 147.127 52.1068C147.645 47.6151 153.013 47.5227 155.928 49.2733C158.844 51.0238 157.773 55.9395 157.773 55.9395Z" fill="#B16668"/>
<path d="M157.777 56.439C157.928 56.439 158.507 55.4903 158.887 55.1502C159.409 54.6759 158.692 50.4486 158.692 50.4486C158.872 50.0735 158.931 49.6545 158.861 49.2464C158.792 48.8383 158.598 48.4599 158.304 48.1608C157.574 47.3926 156.555 46.4565 153.273 46.8595C150.928 47.1491 148.384 47.8837 146.315 46.9182C146.131 47.5728 146.152 48.2659 146.375 48.909C146.598 49.552 147.013 50.1159 147.568 50.5284C147.568 50.5284 148.319 50.9902 150.284 51.2042C152.096 51.3201 153.915 51.2709 155.717 51.0573C156.287 50.9776 156.412 51.5107 156.732 52.9757C157.013 54.2561 157.259 56.4348 157.777 56.439Z" fill="#263238"/>
<path d="M158.692 50.7761L160.537 49.7938C160.477 49.6725 160.392 49.5643 160.288 49.4759C160.183 49.3874 160.062 49.3205 159.93 49.2793C159.798 49.238 159.659 49.2233 159.522 49.236C159.384 49.2487 159.25 49.2885 159.129 49.353C158.882 49.4901 158.698 49.7145 158.617 49.9795C158.536 50.2446 158.563 50.5299 158.692 50.7761Z" fill="#263238"/>
<path d="M152.163 62.2362C152.163 62.2362 154.909 61.6737 155.864 61.17C156.426 60.8792 156.885 60.43 157.181 59.8812C157.041 60.428 156.79 60.942 156.442 61.3925C155.747 62.274 152.171 62.9457 152.171 62.9457L152.163 62.2362Z" fill="#9A4A4D"/>
<path d="M151.942 55.5113C151.941 55.5827 151.955 55.6537 151.982 55.7201C152.009 55.7865 152.05 55.847 152.101 55.8981C152.152 55.9493 152.214 55.99 152.281 56.018C152.349 56.046 152.422 56.0606 152.495 56.0612C152.61 56.0654 152.723 56.036 152.821 55.9769C152.918 55.9178 152.995 55.8316 153.042 55.7295C153.088 55.6274 153.102 55.5141 153.082 55.4043C153.062 55.2944 153.008 55.1929 152.927 55.1131C152.847 55.0332 152.744 54.9786 152.632 54.9562C152.519 54.9339 152.402 54.9449 152.296 54.9877C152.19 55.0306 152.1 55.1034 152.037 55.1967C151.974 55.2901 151.941 55.3996 151.942 55.5113Z" fill="#263238"/>
<path d="M153.579 53.6684L152.353 53.1268C152.281 53.2899 152.277 53.4734 152.342 53.6391C152.406 53.8049 152.534 53.9401 152.698 54.0168C152.779 54.0517 152.867 54.0704 152.956 54.0717C153.044 54.0731 153.132 54.057 153.215 54.0245C153.297 53.9919 153.372 53.9437 153.434 53.8825C153.497 53.8213 153.546 53.7485 153.579 53.6684Z" fill="#263238"/>
<path d="M148.332 53.0093L147.265 53.8237C147.316 53.8943 147.38 53.954 147.456 53.9992C147.531 54.0444 147.615 54.074 147.702 54.0862C147.79 54.0984 147.879 54.093 147.964 54.0702C148.05 54.0474 148.129 54.0078 148.198 53.9538C148.34 53.8424 148.432 53.6827 148.457 53.5073C148.482 53.3318 148.437 53.1538 148.332 53.0093Z" fill="#263238"/>
<path d="M147.688 55.3811C147.694 55.4813 147.729 55.5779 147.79 55.6588C147.851 55.7398 147.935 55.8015 148.032 55.8363C148.129 55.8711 148.234 55.8774 148.335 55.8546C148.435 55.8317 148.527 55.7806 148.598 55.7077C148.669 55.6348 148.716 55.5432 148.734 55.4443C148.752 55.3454 148.739 55.2437 148.698 55.1516C148.657 55.0596 148.589 54.9813 148.502 54.9266C148.415 54.8719 148.314 54.8431 148.211 54.8438C148.14 54.8454 148.071 54.8606 148.006 54.8886C147.941 54.9165 147.883 54.9566 147.835 55.0066C147.786 55.0565 147.748 55.1153 147.723 55.1796C147.698 55.2439 147.686 55.3124 147.688 55.3811Z" fill="#263238"/>
<path d="M150.547 54.9487L150.236 58.1601L148.531 57.522L150.547 54.9487Z" fill="#9A4A4D"/>
<path d="M151.485 59.3648C151.484 59.4671 151.514 59.5673 151.572 59.6528C151.63 59.7383 151.712 59.8051 151.809 59.8448C151.906 59.8845 152.013 59.8954 152.117 59.8759C152.22 59.8565 152.315 59.8076 152.39 59.7356C152.465 59.6635 152.516 59.5716 152.536 59.4713C152.557 59.371 152.547 59.267 152.507 59.1724C152.467 59.0778 152.399 58.9969 152.311 58.94C152.224 58.883 152.121 58.8527 152.016 58.8527C151.876 58.8527 151.741 58.9065 151.642 59.0024C151.542 59.0983 151.486 59.2286 151.485 59.3648Z" fill="#9A4A4D"/>
<path d="M164.967 25.1649C165.791 25.3432 166.585 25.6329 167.325 26.0255C168.034 26.3961 168.668 26.8866 169.2 27.4738C169.711 28.0427 170.088 28.7131 170.305 29.4384C170.532 30.2071 170.55 31.0201 170.357 31.7976C170.229 32.4147 169.977 33.0011 169.614 33.5229C169.289 33.9718 168.897 34.372 168.452 34.7109C168.017 35.0392 167.553 35.33 167.066 35.5798L165.693 36.2851C165.279 36.4954 164.885 36.7427 164.518 37.0239C164.187 37.2685 163.932 37.5987 163.784 37.9768C163.709 38.1454 163.588 38.2907 163.434 38.3966C163.36 38.4516 163.274 38.4896 163.183 38.5078C163.092 38.5259 162.998 38.5238 162.907 38.5016L160.886 38.0818C160.789 38.0619 160.697 38.0234 160.616 37.9687C160.534 37.9139 160.465 37.8439 160.411 37.7627C160.355 37.6867 160.317 37.5989 160.302 37.5062C160.287 37.4136 160.295 37.3188 160.325 37.2296C160.493 36.6189 160.787 36.0477 161.189 35.5505C161.55 35.1116 161.968 34.7194 162.432 34.3835C162.88 34.0647 163.356 33.7838 163.853 33.5439C164.345 33.3046 164.803 33.0737 165.226 32.847C165.613 32.6483 165.977 32.409 166.31 32.1334C166.601 31.8954 166.803 31.5708 166.885 31.2099C166.959 30.8947 166.954 30.5666 166.87 30.2537C166.786 29.9408 166.625 29.6524 166.401 29.4132C165.843 28.82 165.096 28.4254 164.281 28.2924C162.772 27.9649 161.497 28.4589 160.454 29.7742C160.354 29.9182 160.227 30.0422 160.079 30.1394C159.998 30.1791 159.911 30.2029 159.821 30.2094C159.732 30.2158 159.641 30.2049 159.556 30.1772L157.397 29.7112C157.321 29.697 157.248 29.6681 157.184 29.6263C157.119 29.5845 157.064 29.5306 157.021 29.4678C156.974 29.4035 156.942 29.3298 156.928 29.2521C156.914 29.1745 156.918 29.0947 156.939 29.0186C157.121 28.3734 157.462 27.7811 157.932 27.2933C158.461 26.7263 159.088 26.2545 159.785 25.8996C160.549 25.5097 161.373 25.2431 162.225 25.1104C163.134 24.9549 164.066 24.9734 164.967 25.1649ZM162.687 40.0842C162.782 40.1038 162.871 40.1423 162.95 40.1972C163.029 40.2521 163.095 40.3222 163.145 40.4032C163.198 40.4815 163.234 40.5696 163.251 40.6619C163.268 40.7543 163.266 40.8491 163.244 40.9405L162.726 43.2158C162.683 43.3974 162.568 43.5555 162.407 43.6565C162.246 43.7576 162.05 43.7937 161.862 43.7573L159.573 43.2661C159.479 43.2465 159.39 43.2084 159.311 43.1543C159.233 43.1002 159.166 43.0311 159.116 42.9513C159.062 42.8733 159.025 42.7852 159.008 42.6927C158.991 42.6003 158.994 42.5053 159.016 42.414L159.534 40.1345C159.578 39.9529 159.692 39.7948 159.854 39.6937C160.015 39.5927 160.21 39.5565 160.398 39.593L162.687 40.0842Z" fill="#F6881F"/>
<path d="M171.756 46.5698C172.327 46.4783 172.909 46.467 173.484 46.5363C174.036 46.5972 174.573 46.7536 175.069 46.998C175.542 47.2335 175.958 47.5657 176.287 47.9719C176.635 48.4073 176.86 48.9241 176.939 49.4706C177.028 49.8957 177.028 50.3341 176.939 50.7593C176.849 51.1293 176.703 51.4843 176.507 51.813C176.314 52.1298 176.095 52.4303 175.85 52.7113L175.155 53.5089C174.946 53.7475 174.758 54.0031 174.594 54.2729C174.447 54.5128 174.373 54.7875 174.378 55.0663C174.377 55.1973 174.338 55.3254 174.265 55.4357C174.232 55.4885 174.188 55.5336 174.135 55.5677C174.082 55.6018 174.022 55.6241 173.959 55.633L172.547 55.8597C172.41 55.8806 172.271 55.8489 172.158 55.7716C172.103 55.7364 172.056 55.6893 172.023 55.634C171.989 55.5787 171.969 55.5166 171.964 55.4525C171.905 55.0223 171.938 54.5848 172.063 54.168C172.175 53.794 172.339 53.4366 172.551 53.1059C172.753 52.7893 172.983 52.4902 173.238 52.2118C173.492 51.9347 173.721 51.6744 173.937 51.4226C174.132 51.1987 174.301 50.9553 174.442 50.6963C174.566 50.4715 174.61 50.2133 174.568 49.9617C174.533 49.7406 174.443 49.531 174.306 49.3511C174.169 49.1712 173.989 49.0264 173.782 48.929C173.27 48.686 172.689 48.618 172.132 48.7359C171.629 48.8081 171.16 49.0294 170.791 49.3697C170.421 49.71 170.169 50.1527 170.068 50.6376C170.04 50.756 169.99 50.8684 169.921 50.9692C169.837 51.0585 169.721 51.1127 169.597 51.1203L168.094 51.3596C167.987 51.3767 167.878 51.3542 167.787 51.2966C167.74 51.2669 167.7 51.2274 167.67 51.181C167.64 51.1346 167.622 51.0823 167.615 51.028C167.562 50.5694 167.626 50.1054 167.8 49.6763C167.988 49.18 168.266 48.7207 168.621 48.3203C169.008 47.8809 169.466 47.5053 169.977 47.2079C170.522 46.8849 171.126 46.6682 171.756 46.5698ZM174.222 56.7245C174.288 56.7137 174.356 56.7159 174.421 56.731C174.487 56.7462 174.548 56.7739 174.602 56.8126C174.656 56.85 174.702 56.8974 174.737 56.9522C174.772 57.007 174.795 57.068 174.805 57.1317L175.073 58.7185C175.084 58.7828 175.082 58.8487 175.066 58.9121C175.051 58.9756 175.022 59.0353 174.982 59.0879C174.944 59.1409 174.896 59.1858 174.839 59.2197C174.783 59.2537 174.72 59.2759 174.654 59.2852L173.056 59.5412C172.991 59.5517 172.924 59.5493 172.859 59.5341C172.795 59.519 172.734 59.4914 172.68 59.4531C172.625 59.4167 172.578 59.3696 172.542 59.3147C172.507 59.2598 172.483 59.1983 172.473 59.134L172.205 57.5431C172.186 57.4123 172.22 57.2792 172.301 57.173C172.382 57.0667 172.503 56.996 172.637 56.9763L174.222 56.7245Z" fill="#F6881F"/>
<g opacity="0.2">
<path d="M171.756 46.5698C172.327 46.4783 172.909 46.467 173.484 46.5363C174.036 46.5972 174.573 46.7536 175.069 46.998C175.542 47.2335 175.958 47.5657 176.287 47.9719C176.635 48.4073 176.86 48.9241 176.939 49.4706C177.028 49.8957 177.028 50.3341 176.939 50.7593C176.849 51.1293 176.703 51.4843 176.507 51.813C176.314 52.1298 176.095 52.4303 175.85 52.7113L175.155 53.5089C174.946 53.7475 174.758 54.0031 174.594 54.2729C174.447 54.5128 174.373 54.7875 174.378 55.0663C174.377 55.1973 174.338 55.3254 174.265 55.4357C174.232 55.4885 174.188 55.5336 174.135 55.5677C174.082 55.6018 174.022 55.6241 173.959 55.633L172.547 55.8597C172.41 55.8806 172.271 55.8489 172.158 55.7716C172.103 55.7364 172.056 55.6893 172.023 55.634C171.989 55.5787 171.969 55.5166 171.964 55.4525C171.905 55.0223 171.938 54.5848 172.063 54.168C172.175 53.794 172.339 53.4366 172.551 53.1059C172.753 52.7893 172.983 52.4902 173.238 52.2118C173.492 51.9347 173.721 51.6744 173.937 51.4226C174.132 51.1987 174.301 50.9553 174.442 50.6963C174.566 50.4715 174.61 50.2133 174.568 49.9617C174.533 49.7406 174.443 49.531 174.306 49.3511C174.169 49.1712 173.989 49.0264 173.782 48.929C173.27 48.686 172.689 48.618 172.132 48.7359C171.629 48.8081 171.16 49.0294 170.791 49.3697C170.421 49.71 170.169 50.1527 170.068 50.6376C170.04 50.756 169.99 50.8684 169.921 50.9692C169.837 51.0585 169.721 51.1127 169.597 51.1203L168.094 51.3596C167.987 51.3767 167.878 51.3542 167.787 51.2966C167.74 51.2669 167.7 51.2274 167.67 51.181C167.64 51.1346 167.622 51.0823 167.615 51.028C167.562 50.5694 167.626 50.1054 167.8 49.6763C167.988 49.18 168.266 48.7207 168.621 48.3203C169.008 47.8809 169.466 47.5053 169.977 47.2079C170.522 46.8849 171.126 46.6682 171.756 46.5698ZM174.222 56.7245C174.288 56.7137 174.356 56.7159 174.421 56.731C174.487 56.7462 174.548 56.7739 174.602 56.8126C174.656 56.85 174.702 56.8974 174.737 56.9522C174.772 57.007 174.795 57.068 174.805 57.1317L175.073 58.7185C175.084 58.7828 175.082 58.8487 175.066 58.9121C175.051 58.9756 175.022 59.0353 174.982 59.0879C174.944 59.1409 174.896 59.1858 174.839 59.2197C174.783 59.2537 174.72 59.2759 174.654 59.2852L173.056 59.5412C172.991 59.5517 172.924 59.5493 172.859 59.5341C172.795 59.519 172.734 59.4914 172.68 59.4531C172.625 59.4167 172.578 59.3696 172.542 59.3147C172.507 59.2598 172.483 59.1983 172.473 59.134L172.205 57.5431C172.186 57.4123 172.22 57.2792 172.301 57.173C172.382 57.0667 172.503 56.996 172.637 56.9763L174.222 56.7245Z" fill="black"/>
</g>
<path d="M186.483 51.0741C186.611 51.165 186.698 51.301 186.724 51.4531C186.751 51.6052 186.715 51.7615 186.625 51.8885L185.485 53.4417C185.392 53.5664 185.252 53.6506 185.095 53.6765C184.939 53.7024 184.778 53.6678 184.647 53.5802L183.084 52.5014C183.02 52.4575 182.965 52.4014 182.923 52.3365C182.882 52.2716 182.854 52.1991 182.842 52.1236C182.819 51.9764 182.855 51.8264 182.941 51.7038L184.082 50.1464C184.174 50.0212 184.314 49.9367 184.47 49.9113C184.622 49.8891 184.777 49.9252 184.902 50.012L186.483 51.0741ZM193.082 40.5416C193.645 40.9282 194.149 41.392 194.576 41.9185C194.989 42.4196 195.306 42.9882 195.513 43.5977C195.711 44.1802 195.777 44.7973 195.707 45.407C195.626 46.0562 195.373 46.6738 194.973 47.1995C194.675 47.6245 194.293 47.9883 193.85 48.2699C193.457 48.5076 193.029 48.6872 192.581 48.803C192.146 48.9157 191.703 48.9916 191.255 49.0297L189.985 49.1347C189.606 49.1685 189.23 49.2331 188.862 49.3278C188.533 49.4124 188.234 49.5838 187.999 49.8231C187.885 49.9302 187.746 50.0069 187.593 50.0456C187.518 50.0627 187.441 50.0637 187.367 50.0484C187.292 50.0332 187.222 50.0021 187.161 49.9575L185.779 49.0045C185.647 48.9123 185.557 48.7738 185.528 48.6183C185.512 48.545 185.513 48.469 185.532 48.3961C185.55 48.3233 185.586 48.2557 185.636 48.1986C185.958 47.7889 186.362 47.4475 186.824 47.1953C187.24 46.9736 187.684 46.807 188.145 46.6999C188.588 46.596 189.039 46.5285 189.493 46.4984C189.925 46.4732 190.357 46.4396 190.754 46.4019C191.111 46.372 191.463 46.303 191.803 46.1962C192.1 46.1083 192.359 45.9266 192.537 45.6798C192.698 45.4661 192.802 45.2174 192.842 44.9555C192.881 44.6936 192.853 44.4263 192.762 44.177C192.537 43.5583 192.105 43.0308 191.536 42.6784C190.508 41.9647 189.385 41.9409 188.167 42.607C188.044 42.6833 187.908 42.7373 187.765 42.7665C187.691 42.7716 187.617 42.7624 187.546 42.7393C187.476 42.7163 187.411 42.6799 187.355 42.6322L185.887 41.6163C185.78 41.5456 185.705 41.4372 185.679 41.3141C185.667 41.2511 185.669 41.1862 185.684 41.1239C185.7 41.0616 185.729 41.0033 185.77 40.953C186.112 40.5237 186.557 40.1821 187.066 39.9581C187.65 39.6955 188.277 39.5349 188.918 39.4838C189.621 39.4281 190.328 39.482 191.013 39.6433C191.757 39.8065 192.46 40.1119 193.082 40.5416Z" fill="#F6881F"/>
<g opacity="0.6">
<path d="M186.483 51.0741C186.611 51.165 186.698 51.301 186.724 51.4531C186.751 51.6052 186.715 51.7615 186.625 51.8885L185.485 53.4417C185.392 53.5664 185.252 53.6506 185.095 53.6765C184.939 53.7024 184.778 53.6678 184.647 53.5802L183.084 52.5014C183.02 52.4575 182.965 52.4014 182.923 52.3365C182.882 52.2716 182.854 52.1991 182.842 52.1236C182.819 51.9764 182.855 51.8264 182.941 51.7038L184.082 50.1464C184.174 50.0212 184.314 49.9367 184.47 49.9113C184.622 49.8891 184.777 49.9252 184.902 50.012L186.483 51.0741ZM193.082 40.5416C193.645 40.9282 194.149 41.392 194.576 41.9185C194.989 42.4196 195.306 42.9882 195.513 43.5977C195.711 44.1802 195.777 44.7973 195.707 45.407C195.626 46.0562 195.373 46.6738 194.973 47.1995C194.675 47.6245 194.293 47.9883 193.85 48.2699C193.457 48.5076 193.029 48.6872 192.581 48.803C192.146 48.9157 191.703 48.9916 191.255 49.0297L189.985 49.1347C189.606 49.1685 189.23 49.2331 188.862 49.3278C188.533 49.4124 188.234 49.5838 187.999 49.8231C187.885 49.9302 187.746 50.0069 187.593 50.0456C187.518 50.0627 187.441 50.0637 187.367 50.0484C187.292 50.0332 187.222 50.0021 187.161 49.9575L185.779 49.0045C185.647 48.9123 185.557 48.7738 185.528 48.6183C185.512 48.545 185.513 48.469 185.532 48.3961C185.55 48.3233 185.586 48.2557 185.636 48.1986C185.958 47.7889 186.362 47.4475 186.824 47.1953C187.24 46.9736 187.684 46.807 188.145 46.6999C188.588 46.596 189.039 46.5285 189.493 46.4984C189.925 46.4732 190.357 46.4396 190.754 46.4019C191.111 46.372 191.463 46.303 191.803 46.1962C192.1 46.1083 192.359 45.9266 192.537 45.6798C192.698 45.4661 192.802 45.2174 192.842 44.9555C192.881 44.6936 192.853 44.4263 192.762 44.177C192.537 43.5583 192.105 43.0308 191.536 42.6784C190.508 41.9647 189.385 41.9409 188.167 42.607C188.044 42.6833 187.908 42.7373 187.765 42.7665C187.691 42.7716 187.617 42.7624 187.546 42.7393C187.476 42.7163 187.411 42.6799 187.355 42.6322L185.887 41.6163C185.78 41.5456 185.705 41.4372 185.679 41.3141C185.667 41.2511 185.669 41.1862 185.684 41.1239C185.7 41.0616 185.729 41.0033 185.77 40.953C186.112 40.5237 186.557 40.1821 187.066 39.9581C187.65 39.6955 188.277 39.5349 188.918 39.4838C189.621 39.4281 190.328 39.482 191.013 39.6433C191.757 39.8065 192.46 40.1119 193.082 40.5416Z" fill="white"/>
</g>
<path d="M47.3193 134.183C47.2761 132.924 48.2089 120.616 48.2089 120.616L42.0419 124.965C43.3073 132.303 43.5794 134.036 43.601 135.237C43.5749 135.337 43.5632 135.44 43.5664 135.543C43.5664 136.971 45.2291 137.739 46.5204 138.692C47.6179 139.526 48.7867 140.268 50.0141 140.908C50.9513 141.366 52.8601 141.408 53.0933 140.82C51.5213 139.653 49.2368 137.907 47.9844 136.576C47.3884 135.938 47.3668 135.434 47.3193 134.183Z" fill="#FFA8A7"/>
<path d="M55.775 142.361C55.8449 142.557 55.8573 142.768 55.8108 142.97C55.7643 143.172 55.6607 143.358 55.5116 143.507C54.379 144.301 52.9693 144.627 51.5903 144.413C49.6296 144.166 48.5672 143.624 47.7856 142.986C47.0039 142.348 45.9026 141.45 45.013 141.261C44.3057 141.13 43.633 140.861 43.0351 140.472C42.7716 140.224 42.8062 139.124 42.8062 139.124L55.775 142.361Z" fill="#263238"/>
<path d="M43.5878 134.889C43.5152 134.891 43.4457 134.918 43.3912 134.964C43.3368 135.011 43.3009 135.075 43.2899 135.145C43.2294 135.447 43.1646 136.329 43.0351 136.824C42.8346 137.7 42.7706 138.6 42.845 139.494C42.953 140.06 44.2918 140.451 45.1512 140.753C46.1619 141.181 47.0997 141.755 47.9324 142.457C49.1342 143.331 50.5685 143.851 52.0653 143.956C53.5768 143.956 55.2784 143.469 55.6714 142.789C56.1508 141.949 55.775 141.458 53.5337 140.447C53.1018 140.258 51.6205 139.397 51.1109 139.087C49.7376 138.247 48.3772 137.076 47.7424 135.59C47.6912 135.408 47.5786 135.248 47.4228 135.136C47.2868 135.079 47.1359 135.065 46.9909 135.094C46.6166 135.147 46.2526 135.255 45.9113 135.413C45.6133 135.552 45.1857 135.716 45.1901 136.089C45.1993 136.219 45.2284 136.346 45.2764 136.467C45.3023 136.547 45.3239 136.648 45.2764 136.694C45.2289 136.74 45.1253 136.694 45.0648 136.635C44.845 136.416 44.6443 136.181 44.4645 135.93C44.3584 135.801 44.2382 135.685 44.1061 135.581C43.974 135.508 43.847 135.427 43.726 135.338C43.5619 135.224 43.5965 135.065 43.5878 134.889Z" fill="#455A64"/>
<path d="M47.9325 142.478C47.5395 142.168 47.1249 141.861 46.7103 141.593C46.7103 141.593 49.3447 143.15 50.4071 142.432C50.6043 142.311 50.7485 142.123 50.8122 141.904C50.8759 141.686 50.8547 141.452 50.7526 141.248C50.7526 141.072 52.4282 140.312 53.0933 140.237C53.279 140.337 53.4344 140.417 53.5251 140.459C55.7665 141.471 56.1422 141.958 55.6628 142.802C55.2699 143.482 54.039 144.015 52.087 144.015C50.8173 144.04 48.8394 143.2 47.9325 142.478Z" fill="#37474F"/>
<path d="M50.5669 140.74C51.9618 141.282 51.3659 141.534 50.9772 141.58C50.5885 141.626 48.2435 140.321 46.8097 139.204C45.3759 138.087 44.3783 136.799 43.8255 136.379C43.6182 136.223 43.3937 136.03 43.195 135.85C43.2339 135.552 43.2641 135.279 43.29 135.136C43.3011 135.066 43.3369 135.003 43.3914 134.956C43.4458 134.909 43.5154 134.882 43.588 134.88C43.588 135.056 43.5621 135.22 43.7003 135.35C43.8212 135.44 43.9482 135.521 44.0803 135.594C44.2124 135.697 44.3326 135.814 44.4388 135.942C44.6185 136.193 44.8193 136.429 45.0391 136.647C46.5931 138.345 48.4701 139.735 50.5669 140.74Z" fill="#263238"/>
<path d="M50.8777 141.391C50.8458 141.39 50.8153 141.378 50.7914 141.357C50.7773 141.347 50.7656 141.334 50.7569 141.318C50.7482 141.303 50.7426 141.287 50.7406 141.27C50.7386 141.252 50.7402 141.235 50.7452 141.218C50.7502 141.202 50.7585 141.186 50.7698 141.173C51.0982 140.841 51.496 140.582 51.9363 140.413C52.3766 140.243 52.8491 140.167 53.3221 140.19C53.3592 140.195 53.393 140.213 53.4165 140.241C53.4399 140.269 53.451 140.305 53.4473 140.342C53.443 140.377 53.4247 140.408 53.3964 140.43C53.3682 140.452 53.3322 140.463 53.2962 140.459C52.8692 140.442 52.4432 140.511 52.0453 140.663C51.6475 140.815 51.2866 141.046 50.9857 141.341C50.9725 141.356 50.9561 141.369 50.9374 141.377C50.9188 141.386 50.8984 141.391 50.8777 141.391Z" fill="#F5F5F5"/>
<path d="M49.6644 140.682C49.6314 140.683 49.5991 140.672 49.5737 140.652C49.5491 140.627 49.5354 140.593 49.5354 140.558C49.5354 140.523 49.5491 140.489 49.5737 140.463C49.9029 140.133 50.3009 139.875 50.7411 139.706C51.1812 139.537 51.6534 139.462 52.126 139.485C52.1626 139.489 52.1962 139.507 52.2193 139.535C52.2423 139.563 52.2531 139.599 52.2491 139.634C52.245 139.67 52.2266 139.702 52.1979 139.725C52.1691 139.747 52.1324 139.758 52.0957 139.754C51.6686 139.736 51.2423 139.805 50.8443 139.956C50.4464 140.108 50.0856 140.34 49.7853 140.635C49.7706 140.652 49.7518 140.665 49.7307 140.673C49.7097 140.681 49.6869 140.684 49.6644 140.682Z" fill="#F5F5F5"/>
<path d="M48.4464 139.972C48.415 139.973 48.3844 139.962 48.3601 139.943C48.3345 139.918 48.3201 139.884 48.3201 139.848C48.3201 139.813 48.3345 139.779 48.3601 139.754C48.6894 139.424 49.0875 139.166 49.5276 138.997C49.9677 138.828 50.4398 138.753 50.9124 138.776C50.9305 138.777 50.9482 138.782 50.9644 138.791C50.9805 138.799 50.9948 138.81 51.0065 138.824C51.0181 138.838 51.0269 138.853 51.0322 138.87C51.0376 138.887 51.0394 138.905 51.0376 138.923C51.036 138.94 51.0308 138.958 51.0223 138.973C51.0138 138.989 51.0022 139.003 50.9881 139.014C50.9741 139.026 50.9579 139.034 50.9404 139.039C50.923 139.044 50.9046 139.046 50.8865 139.045C50.4593 139.026 50.033 139.095 49.6351 139.247C49.2371 139.399 48.8763 139.63 48.576 139.926C48.5599 139.943 48.5397 139.957 48.5171 139.965C48.4945 139.973 48.4703 139.975 48.4464 139.972Z" fill="#F5F5F5"/>
<path d="M47.3191 139.187C47.2876 139.187 47.257 139.177 47.2327 139.158C47.2195 139.146 47.209 139.131 47.2018 139.115C47.1946 139.098 47.1909 139.081 47.1909 139.063C47.1909 139.046 47.1946 139.028 47.2018 139.012C47.209 138.996 47.2195 138.981 47.2327 138.969C47.5616 138.638 47.9595 138.38 48.3998 138.211C48.8401 138.042 49.3124 137.967 49.785 137.991C49.821 137.995 49.8538 138.013 49.8764 138.04C49.899 138.068 49.9096 138.103 49.9059 138.138C49.9016 138.173 49.8833 138.204 49.8551 138.226C49.8268 138.248 49.7908 138.259 49.7548 138.255C49.3279 138.239 48.9021 138.309 48.5044 138.46C48.1067 138.612 47.7457 138.842 47.4443 139.137C47.4297 139.155 47.4104 139.169 47.3885 139.178C47.3665 139.187 47.3426 139.19 47.3191 139.187Z" fill="#F5F5F5"/>
<path d="M46.218 138.402C46.1869 138.401 46.1569 138.391 46.1317 138.373C46.1061 138.348 46.0917 138.314 46.0917 138.278C46.0917 138.243 46.1061 138.209 46.1317 138.184C46.4878 137.824 46.9238 137.547 47.4065 137.375C47.8893 137.204 48.4059 137.141 48.9172 137.193C48.9354 137.194 48.9533 137.199 48.9696 137.207C48.9858 137.215 49.0001 137.226 49.0116 137.24C49.023 137.254 49.0313 137.27 49.0358 137.287C49.0404 137.305 49.0412 137.323 49.0381 137.34C49.0338 137.375 49.0155 137.407 48.9872 137.429C48.959 137.451 48.923 137.461 48.887 137.458C48.4222 137.413 47.9531 137.47 47.5139 137.624C47.0746 137.778 46.6761 138.025 46.3476 138.348C46.3325 138.367 46.3127 138.382 46.29 138.391C46.2674 138.401 46.2426 138.404 46.218 138.402Z" fill="#F5F5F5"/>
<path d="M35.7022 126.22L29.479 126.111C29.5697 130.149 30.2304 134.628 30.3427 138.415C30.3427 139.128 30.3427 143.956 30.6018 145.425C31.0337 147.629 33.7113 147.331 33.8538 146.013C33.9963 144.695 33.681 139.057 33.6897 138.457C33.6638 136.03 34.8341 131.929 35.4517 127.567C35.4776 127.37 35.6719 126.43 35.7022 126.22Z" fill="#FFA8A7"/>
<path d="M34.8642 146.928C34.9798 147.938 34.8313 148.961 34.4324 149.9C34.2349 150.273 33.9162 150.573 33.5257 150.752C33.1353 150.931 32.695 150.98 32.273 150.891C31.3532 150.761 30.1396 150.282 29.7682 149.212C29.4166 148.226 29.2927 147.177 29.4055 146.139L34.8642 146.928Z" fill="#263238"/>
<path d="M30.3254 137.953C29.9583 138.016 30.0274 139.758 29.9928 141.509C29.954 143.389 29.466 144.212 29.4185 145.753C29.3623 147.516 29.5394 148.271 30.2822 149.271C31.025 150.27 33.3441 151.076 34.2812 149.464C35.0456 148.15 34.942 146.785 34.6786 145.056C34.4151 143.326 34.2078 142.017 34.1387 140.648C34.0696 139.28 34.0394 138.066 33.7069 137.953C33.7069 138.146 33.7069 138.394 33.7069 138.583C33.7069 138.772 33.7371 139.422 33.5298 139.464C33.4978 139.302 33.4791 139.138 33.4737 138.973C33.4833 138.821 33.4322 138.67 33.3311 138.553C33.2062 138.464 33.0545 138.417 32.8993 138.419C32.5294 138.379 32.1573 138.359 31.7851 138.36C31.5994 138.36 31.4094 138.36 31.228 138.39C31.0684 138.402 30.9121 138.44 30.7659 138.503C30.7228 138.521 30.6841 138.547 30.6521 138.581C30.6201 138.614 30.5956 138.653 30.5802 138.696C30.5672 138.763 30.5672 138.831 30.5802 138.898C30.5953 139.018 30.5953 139.139 30.5802 139.259C30.5802 139.313 30.5413 139.38 30.4852 139.372C30.429 139.364 30.4204 139.313 30.4161 139.271C30.3902 139.061 30.4161 138.906 30.3902 138.663C30.3902 138.549 30.3902 138.394 30.3902 138.281C30.3902 138.167 30.3297 138.066 30.3254 137.953Z" fill="#455A64"/>
<path d="M29.4486 145.249C29.4486 145.505 29.3925 147.188 29.8805 147.44C30.3685 147.692 30.5585 146.382 30.5585 146.382C30.5585 146.382 31.703 145.916 33.4995 146.479C33.4391 146.756 33.7932 147.621 34.2466 147.386C34.7001 147.151 34.6785 145.232 34.6785 145.207C34.9247 146.886 35.0024 148.187 34.2466 149.464C33.3095 151.076 30.9818 150.261 30.2476 149.27C29.5134 148.28 29.3364 147.516 29.3839 145.753C29.4055 145.576 29.4357 145.413 29.4486 145.249Z" fill="#37474F"/>
<path d="M30.7012 146.479C30.7573 147.109 30.1009 146.962 29.98 146.059C29.8591 145.157 30.1441 143.02 29.98 141.492C30.0145 139.741 29.9454 137.999 30.3125 137.936C30.3104 137.957 30.3104 137.978 30.3125 137.999L30.3557 138.885C30.3472 139.011 30.3472 139.137 30.3557 139.263C30.4766 140.547 30.55 143.041 30.5544 144.225C30.562 144.978 30.611 145.731 30.7012 146.479Z" fill="#263238"/>
<path d="M33.2921 146.479C33.3767 145.736 33.4186 144.989 33.4174 144.242C33.4174 143.066 33.4951 140.602 33.616 139.309C33.6628 139.07 33.6817 138.826 33.6722 138.583C33.6722 138.406 33.6722 138.163 33.6722 137.995C33.6722 137.995 33.6722 137.97 33.6722 137.953C33.914 138.041 34.0004 138.734 34.0522 139.607C34.0522 140.115 34.0522 140.745 34.0047 141.509C33.8406 143.037 34.1256 145.203 34.0047 146.089C33.8838 146.974 33.249 147.109 33.2921 146.479Z" fill="#263238"/>
<path d="M33.5469 146.525H33.4994C32.5663 146.212 31.5521 146.212 30.6189 146.525C30.6019 146.531 30.5838 146.534 30.5655 146.534C30.5473 146.533 30.5294 146.529 30.5127 146.522C30.4961 146.515 30.4811 146.505 30.4685 146.492C30.456 146.479 30.4462 146.464 30.4397 146.447C30.4332 146.431 30.43 146.413 30.4305 146.395C30.431 146.378 30.4351 146.36 30.4425 146.344C30.4499 146.328 30.4605 146.313 30.4738 146.301C30.487 146.289 30.5026 146.279 30.5196 146.273C31.5152 145.928 32.6032 145.928 33.5988 146.273C33.6157 146.279 33.6313 146.288 33.6444 146.3C33.6576 146.312 33.6682 146.327 33.6754 146.343C33.6827 146.359 33.6865 146.376 33.6867 146.394C33.6869 146.412 33.6834 146.429 33.6765 146.445C33.6659 146.47 33.6478 146.491 33.6246 146.505C33.6014 146.519 33.5743 146.526 33.5469 146.525Z" fill="#F5F5F5"/>
<path d="M33.7243 145.131C33.7087 145.135 33.6924 145.135 33.6768 145.131C32.6276 144.815 31.5043 144.815 30.4551 145.131C30.4378 145.137 30.4194 145.14 30.4011 145.139C30.3828 145.138 30.3649 145.133 30.3484 145.125C30.3319 145.118 30.3172 145.107 30.3051 145.093C30.293 145.08 30.2838 145.064 30.278 145.047C30.2719 145.031 30.2694 145.013 30.2705 144.996C30.2716 144.978 30.2763 144.961 30.2844 144.945C30.2924 144.93 30.3037 144.916 30.3174 144.905C30.3312 144.893 30.3471 144.885 30.3644 144.879C31.4727 144.536 32.6634 144.536 33.7718 144.879C33.8021 144.89 33.8275 144.911 33.8436 144.939C33.8597 144.966 33.8654 144.998 33.8597 145.029C33.8541 145.06 33.8374 145.088 33.8127 145.108C33.7879 145.128 33.7566 145.14 33.7243 145.14V145.131Z" fill="#F5F5F5"/>
<path d="M30.3989 143.813C30.3724 143.813 30.3467 143.805 30.3246 143.791C30.3025 143.777 30.2848 143.757 30.2736 143.733C30.259 143.701 30.258 143.665 30.271 143.632C30.2839 143.599 30.3097 143.572 30.3427 143.557C31.4336 143.14 32.6452 143.133 33.7415 143.536C33.7584 143.542 33.774 143.551 33.7872 143.564C33.8003 143.576 33.8109 143.59 33.8181 143.606C33.8254 143.622 33.8292 143.64 33.8294 143.657C33.8296 143.675 33.8261 143.692 33.8192 143.708C33.8057 143.741 33.7796 143.767 33.7465 143.781C33.7134 143.795 33.676 143.796 33.6421 143.784C33.6421 143.784 31.9492 143.137 30.4593 143.784C30.4417 143.798 30.421 143.808 30.3989 143.813Z" fill="#F5F5F5"/>
<path d="M30.3686 142.579C30.3425 142.579 30.3169 142.572 30.2948 142.559C30.2726 142.546 30.2548 142.526 30.2434 142.504C30.2284 142.472 30.2269 142.436 30.2389 142.403C30.251 142.37 30.2759 142.343 30.3081 142.327C30.8495 142.087 31.4365 141.96 32.0315 141.954C32.6264 141.947 33.2162 142.062 33.763 142.289C33.7794 142.297 33.7941 142.307 33.8063 142.32C33.8185 142.333 33.8279 142.348 33.8339 142.364C33.84 142.381 33.8425 142.398 33.8415 142.416C33.8405 142.433 33.8358 142.45 33.8278 142.466C33.8204 142.482 33.8098 142.496 33.7966 142.508C33.7833 142.52 33.7678 142.529 33.7509 142.535C33.734 142.541 33.716 142.543 33.698 142.542C33.6801 142.541 33.6625 142.537 33.6464 142.529C33.1334 142.322 32.5826 142.219 32.0273 142.226C31.472 142.232 30.9239 142.348 30.4161 142.567C30.4011 142.573 30.385 142.577 30.3686 142.579Z" fill="#F5F5F5"/>
<path d="M30.3382 141.198C30.3066 141.198 30.2757 141.188 30.2508 141.169C30.226 141.15 30.2085 141.124 30.2014 141.094C30.1944 141.064 30.1981 141.032 30.212 141.005C30.2259 140.977 30.2491 140.955 30.2777 140.942C31.9231 140.153 33.6981 140.908 33.7715 140.942C33.7887 140.948 33.8043 140.958 33.8173 140.97C33.8303 140.983 33.8404 140.998 33.8469 141.015C33.8535 141.032 33.8563 141.049 33.8552 141.067C33.8541 141.085 33.8491 141.102 33.8406 141.118C33.8255 141.15 33.798 141.175 33.7641 141.188C33.7302 141.2 33.6925 141.2 33.6592 141.185C33.6592 141.185 31.9318 140.451 30.403 141.185C30.383 141.195 30.3606 141.2 30.3382 141.198Z" fill="#F5F5F5"/>
<path d="M31.526 86.949C29.3322 92.8554 29.7165 96.5621 30.0922 102.754C30.4377 108.429 30.9862 113.429 30.9862 113.429C30.8998 114.437 29.4574 116.401 29.2587 120.851C29.1951 123.984 29.3393 127.118 29.6906 130.233C29.6906 130.233 32.5625 131.253 34.9896 130.233C34.9896 130.233 37.4728 119.575 38.1508 114.365C38.7381 109.819 39.766 104.009 39.766 104.009L41.9253 114.344C41.5032 115.733 41.2865 117.174 41.2818 118.622C41.2818 121.052 42.4435 127.811 42.4435 127.811C42.4435 127.811 45.6609 128.823 47.6993 127.064C47.6993 127.064 48.5069 117.337 48.7919 113.631C49.1719 108.686 48.6192 95.1306 47.397 88.1915L31.526 86.949Z" fill="#455A64"/>
<path d="M39.7918 103.992L40.6901 96.2178C40.6901 96.2178 44.7108 95.6973 46.5332 94.0308C46.0104 94.8256 45.3136 95.4984 44.4924 96.0013C43.6712 96.5042 42.746 96.8246 41.7827 96.9399L40.4871 104.177L41.9555 114.327L39.7918 103.992Z" fill="#37474F"/>
<path d="M49.7333 81.1853C47.777 79.2291 44.2443 74.8045 44.2443 74.8045L42.2491 68.0879C42.6951 68.1104 43.1419 68.1104 43.5879 68.0879C45.7472 68.2265 46.382 68.407 47.7251 69.8342C48.7918 70.9719 52.86 76.3703 54.2722 78.188L58.0251 73.5409C58.9277 72.2186 58.7808 70.7368 59.2473 69.6579C59.7137 68.5791 60.4694 68.1047 61.074 67.1392C61.6786 66.1737 61.8212 65.5272 62.3178 66.0268C62.8144 66.5263 62.2401 67.8696 62.1666 68.1761C62.0932 68.4825 61.3332 69.3935 62.5985 68.9191C63.8639 68.4447 65.8159 66.1989 66.3169 65.7413C66.8178 65.2837 67.0856 65.9932 66.9733 66.5557C66.861 67.1182 67.4051 68.386 67.2065 69.3137C67.0828 70.2469 66.6055 71.1016 65.8677 71.7107C64.9565 72.6006 62.7281 73.6963 61.8557 74.8675C60.9833 76.0387 59.122 79.6782 57.9689 81.8695C56.5222 84.6569 55.2914 85.5762 53.6503 84.6359C52.0092 83.6956 50.4545 81.9115 49.7333 81.1853Z" fill="#FFA8A7"/>
<path d="M42.884 68.0165C43.9882 67.9093 45.103 68.053 46.1403 68.4363C47.3106 68.9485 48.1053 70.0483 49.2497 71.5385C50.3941 73.0288 52.4368 75.6357 52.4368 75.6357C52.4368 75.6357 51.8841 77.8983 48.2391 79.9301L42.2881 73.9733L42.884 68.0165Z" fill="#37474F"/>
<path d="M54.2722 78.1838C53.5604 78.8365 53.0834 79.6946 52.9119 80.6311C52.9119 80.6311 52.48 79.2836 53.9527 77.7682L54.2722 78.1838Z" fill="#F28F8F"/>
<path d="M47.194 79.9427C49.8499 77.8186 48.9732 75.0522 48.0059 73.1884C46.0668 69.4649 44.05 67.9998 43.2079 68.0124L37.9262 68.0628C35.4041 68.3986 33.4521 68.2307 32.8431 68.3692C31.2884 68.726 31.2539 69.9686 31.1934 71.5764C31.1286 73.3395 30.2001 73.0414 30.6709 75.9548C31.2261 77.0376 31.7135 78.1521 32.1306 79.2921C32.4156 80.2996 33.2189 81.9031 32.7913 83.5319C32.6272 84.1616 32.1867 84.7913 31.526 86.5166C30.7768 88.4559 30.22 90.4604 29.8633 92.5027C29.8633 92.5027 31.405 92.1543 33.1584 90.3408C33.1584 90.3408 35.5552 93.4599 41.3206 93.145C47.3019 92.8176 47.8288 89.7867 47.8288 89.7867L46.9132 84.3295C47.0514 82.1256 47.1119 81.328 47.194 79.9427Z" fill="#F6881F"/>
<path opacity="0.1" d="M43.7433 79.3927C43.7433 79.3927 41.584 81.0719 39.049 80.2659C38.3428 80.0601 37.7026 79.682 37.1893 79.1677C36.676 78.6533 36.3067 78.0198 36.1166 77.3274C36.1166 77.3274 35.9007 80.119 39.0878 81.0173C39.9404 81.2687 40.8536 81.2464 41.6921 80.9538C42.5307 80.6612 43.2499 80.1138 43.7433 79.3927Z" fill="black"/>
<path d="M28.6239 65.6154C27.8422 65.0613 23.6315 70.5395 25.6008 71.9122C27.5701 73.2849 29.669 69.3935 29.2458 67.5548C28.8225 65.7161 28.6239 65.6154 28.6239 65.6154Z" fill="#37474F"/>
<path d="M24.8019 62.8952C25.8557 61.4763 26.5726 60.4058 27.5356 59.1885C28.0798 58.4958 28.4296 58.0047 28.9521 57.2952C29.3149 56.8083 29.5265 56.3969 29.9325 56.2416C30.3857 56.0477 30.7907 55.7613 31.1201 55.402C31.3218 55.1748 31.5079 54.935 31.6772 54.6841C32.2859 53.8648 33.0132 53.1353 33.8365 52.518C34.7002 51.8674 35.646 51.3636 36.527 50.7424C37.0496 50.3729 37.611 49.7643 36.9589 49.2143C36.7562 49.0553 36.5156 48.9485 36.2593 48.9037C34.6873 48.5972 33.3269 49.1472 31.7981 49.5544C31.1333 49.7305 30.4836 49.9565 29.8547 50.2302C29.5425 50.3534 29.2513 50.5218 28.991 50.7298C28.6294 51.0971 28.337 51.5234 28.1273 51.9891C27.4579 53.1855 26.0457 54.2518 25.0567 55.1879C23.895 56.2877 22.8586 57.2868 21.5327 58.5084C20.3408 59.5998 19.1704 60.6073 18.0778 61.7995C17.1752 62.7818 17.525 63.5374 17.646 63.7935C18.4233 65.2796 19.2698 65.8043 20.289 66.732C20.6258 67.0343 20.967 67.3323 21.3082 67.6304C22.6297 68.789 23.9512 69.872 25.3245 70.9887C26.7928 72.1641 27.3974 72.735 28.706 73.8768C29.5317 74.614 30.2199 75.4846 30.7401 76.4501C33.0073 76.8153 35.2358 73.4444 33.2924 69.5026C32.9727 68.8651 32.4893 68.3186 31.8888 67.9158C29.4963 66.2577 24.8019 62.8952 24.8019 62.8952Z" fill="#FFA8A7"/>
<path d="M24.8019 62.8951C24.0945 63.7681 23.1442 64.4252 22.0638 64.7884C22.0638 64.7884 23.5106 65.1242 25.454 63.3653L24.8019 62.8951Z" fill="#F28F8F"/>
<path d="M33.0244 68.3356C32.4932 67.9788 31.2019 67.2189 28.6237 65.6154C28.6237 65.6154 29.021 66.4256 28.3948 68.4615C27.7686 70.4975 26.4471 71.7862 25.618 71.9331C25.618 71.9331 27.0604 73.0414 28.3905 74.2923C29.7206 75.5433 30.8133 76.4291 31.582 77.8815C31.582 77.8815 33.4822 77.4072 33.914 74.2756C34.2163 72.0801 34.035 69.5026 33.0244 68.3356Z" fill="#455A64"/>
<path d="M47.4489 58.2523C47.8285 57.4724 47.9957 56.6108 47.9345 55.75C47.8732 54.8893 47.5856 54.0582 47.099 53.3366C45.4623 51.0739 42.7027 49.9783 39.6537 50.0119H38.7079C34.5923 50.079 30.8523 53.5129 30.7789 57.3791C30.7789 60.0993 30.7789 62.6138 32.3207 64.4693C33.7415 66.1946 35.957 66.7613 37.8269 67.0384C41.4028 67.5673 45.4191 67.1643 47.0429 64.7967C47.0429 64.7967 44.8836 65.2165 45.1557 63.042C45.1945 62.6978 44.8577 62.32 44.266 61.9296C44.6804 61.2318 45.1682 60.5776 45.7214 59.9776C46.3303 59.3857 47.0343 59.0541 47.4489 58.2523Z" fill="#263238"/>
<path d="M46.3821 60.2379C46.3605 64.2889 45.026 65.3089 44.3566 65.6112C43.6872 65.9134 42.3744 65.7539 41.1004 65.5734L41.1436 68.004C41.1436 68.004 42.6335 69.469 42.5471 70.5857C42.4607 71.7023 40.2669 71.845 38.6042 70.7997C37.6883 70.2102 36.8575 69.5043 36.1339 68.7008C35.9959 68.5453 35.918 68.3479 35.9137 68.1425L35.81 62.4292C35.81 62.4292 35.1277 63.1554 33.8839 62.3578C33.6152 62.1982 33.3836 61.986 33.2038 61.7347C33.024 61.4834 32.8999 61.1985 32.8394 60.8981C32.7789 60.5977 32.7833 60.2884 32.8523 59.9897C32.9214 59.6911 33.0535 59.4096 33.2405 59.1633C33.4162 58.9972 33.6272 58.8706 33.8587 58.7925C34.0902 58.7143 34.3365 58.6864 34.5803 58.7108C34.8241 58.7353 35.0594 58.8114 35.2696 58.9338C35.4799 59.0562 35.6599 59.2219 35.7971 59.4193C36.1771 60.1078 36.1426 60.5947 36.6608 60.515C37.1791 60.4352 37.2006 59.8895 37.2352 59.4991C37.2697 59.1087 37.2352 58.9828 37.287 58.4706C38.5178 58.2146 39.7918 56.548 39.9343 55.3306C40.7682 55.7292 41.6871 55.9306 42.6162 55.9183C43.9939 55.826 44.7064 55.5573 45.3845 54.5918C45.546 54.8127 45.6754 55.0543 45.7688 55.3096C45.9607 55.8266 46.1052 56.359 46.2007 56.9006C46.3545 58.0064 46.4152 59.1225 46.3821 60.2379Z" fill="#FFA8A7"/>
<path d="M41.1004 65.5735C39.7573 65.4224 36.9891 64.7003 36.5399 63.6509C36.7215 64.1837 37.0666 64.6495 37.5289 64.9858C38.3667 65.6575 41.1134 66.3837 41.1134 66.3837L41.1004 65.5735Z" fill="#F28F8F"/>
<path d="M42.4521 63.3906C42.4547 63.4962 42.4249 63.6001 42.3666 63.6892C42.3083 63.7784 42.2241 63.8486 42.1246 63.8911C42.0252 63.9337 41.9149 63.9465 41.808 63.928C41.701 63.9096 41.6021 63.8607 41.5237 63.7875C41.4454 63.7143 41.3912 63.6201 41.368 63.517C41.3448 63.4138 41.3536 63.3062 41.3934 63.208C41.4332 63.1097 41.5021 63.0251 41.5914 62.9649C41.6807 62.9048 41.7864 62.8718 41.895 62.8701C42.0398 62.8678 42.1795 62.9213 42.2839 63.0188C42.3883 63.1163 42.4487 63.2499 42.4521 63.3906Z" fill="#B16668"/>
<path d="M41.7482 59.4026C41.7553 59.4771 41.7472 59.5522 41.7243 59.6236C41.7014 59.695 41.6642 59.7613 41.6148 59.8187C41.5654 59.8761 41.5048 59.9234 41.4366 59.9579C41.3683 59.9924 41.2937 60.0134 41.217 60.0197C41.0989 60.032 40.9797 60.0097 40.8748 59.9556C40.7698 59.9016 40.6838 59.8183 40.6279 59.7164C40.572 59.6146 40.5487 59.4988 40.5609 59.384C40.5732 59.2691 40.6204 59.1605 40.6966 59.0719C40.7729 58.9834 40.8746 58.919 40.9887 58.887C41.1028 58.8551 41.2242 58.857 41.3372 58.8925C41.4502 58.928 41.5497 58.9956 41.6229 59.0865C41.6961 59.1774 41.7398 59.2875 41.7482 59.4026Z" fill="#263238"/>
<path d="M45.6437 59.1633C45.6545 59.3001 45.6092 59.4355 45.5179 59.54C45.4265 59.6446 45.2963 59.7098 45.1557 59.7216C45.0849 59.7301 45.013 59.7236 44.9449 59.7026C44.8769 59.6816 44.8143 59.6466 44.7614 59.6C44.7086 59.5534 44.6667 59.4963 44.6386 59.4325C44.6105 59.3687 44.5968 59.2998 44.5986 59.2304C44.5915 59.1625 44.5984 59.0938 44.619 59.0285C44.6396 58.9632 44.6734 58.9025 44.7185 58.8501C44.7636 58.7977 44.819 58.7546 44.8815 58.7233C44.9439 58.692 45.0122 58.6732 45.0823 58.6679C45.2241 58.6622 45.3625 58.711 45.4675 58.8037C45.5726 58.8964 45.6359 59.0256 45.6437 59.1633Z" fill="#263238"/>
<path d="M42.9529 58.6385L43.3675 62.022L45.1511 61.3L42.9529 58.6385Z" fill="#F28F8F"/>
<path d="M39.6665 57.9417L40.7029 56.9846C40.832 57.1242 40.9009 57.3067 40.8952 57.4942C40.8896 57.6818 40.8099 57.8601 40.6727 57.9921C40.6043 58.0551 40.5235 58.104 40.4351 58.1357C40.3467 58.1675 40.2526 58.1814 40.1585 58.1767C40.0644 58.172 39.9722 58.1487 39.8877 58.1083C39.8031 58.0679 39.7278 58.0113 39.6665 57.9417Z" fill="#263238"/>
<path d="M44.8534 56.674L46.0021 57.5135C45.9492 57.5893 45.881 57.6538 45.8015 57.703C45.722 57.7522 45.633 57.7851 45.54 57.7997C45.4469 57.8142 45.3518 57.8101 45.2605 57.7876C45.1692 57.7651 45.0835 57.7247 45.0088 57.6688C44.8584 57.5528 44.7587 57.3857 44.7299 57.2011C44.7011 57.0165 44.7452 56.8282 44.8534 56.674Z" fill="#263238"/>
<path d="M28.2957 25.9246C29.1238 25.7711 29.9703 25.7344 30.8091 25.8155C31.6108 25.8838 32.3933 26.0914 33.1196 26.4283C33.8164 26.7517 34.4324 27.2187 34.9248 27.7968C35.4439 28.4157 35.7891 29.1547 35.9267 29.942C36.0562 30.5597 36.0562 31.1965 35.9267 31.8142C35.8106 32.3519 35.6127 32.8697 35.3394 33.3506C35.0741 33.8186 34.7662 34.2626 34.4195 34.6772C34.074 35.0969 33.7458 35.4831 33.4392 35.8567C33.1459 36.2084 32.8857 36.5849 32.6618 36.9818C32.456 37.3342 32.3558 37.7355 32.3725 38.1404C32.375 38.3286 32.3258 38.5141 32.23 38.6777C32.1847 38.755 32.1226 38.8218 32.048 38.8733C31.9734 38.9248 31.8881 38.9598 31.7981 38.9758L29.764 39.3494C29.6674 39.3681 29.5679 39.3677 29.4714 39.3482C29.375 39.3287 29.2836 39.2906 29.2026 39.236C29.1183 39.1891 29.0471 39.1229 28.9952 39.0432C28.9433 38.9634 28.9122 38.8726 28.9046 38.7785C28.8054 38.1574 28.8378 37.5231 28.9996 36.9146C29.1532 36.3724 29.3782 35.8518 29.669 35.3656C29.9502 34.9026 30.2724 34.4644 30.6321 34.0559C30.9905 33.6361 31.3144 33.2583 31.6124 32.8889C31.8863 32.5571 32.1237 32.1983 32.3206 31.8184C32.49 31.4887 32.5431 31.1141 32.4718 30.7521C32.4144 30.4332 32.2779 30.1326 32.0739 29.8766C31.87 29.6205 31.6048 29.4167 31.3014 29.2829C30.549 28.9505 29.7038 28.8722 28.9003 29.0604C27.3859 29.3403 26.4142 30.2834 25.9852 31.8898C25.9475 32.0591 25.8803 32.2209 25.7866 32.3683C25.6668 32.5029 25.4981 32.5871 25.3158 32.6034L23.1565 33.0022C23.0074 33.028 22.8537 32.9996 22.7246 32.9224C22.6568 32.8789 22.5991 32.822 22.5552 32.7555C22.5114 32.689 22.4823 32.6143 22.4698 32.5362C22.3766 31.874 22.4507 31.1997 22.6858 30.5716C22.9303 29.8462 23.3045 29.1683 23.7913 28.5693C24.3372 27.9133 24.9874 27.3464 25.7175 26.8901C26.5042 26.4086 27.3799 26.0807 28.2957 25.9246ZM32.2386 40.5122C32.4306 40.4799 32.628 40.5214 32.7892 40.6279C32.9503 40.7344 33.0626 40.8976 33.1023 41.0831L33.5342 43.3751C33.5539 43.467 33.5537 43.5618 33.5336 43.6536C33.5135 43.7454 33.474 43.8321 33.4176 43.9083C33.3645 43.9863 33.2959 44.0533 33.2158 44.1052C33.1357 44.1571 33.0457 44.1929 32.9512 44.2105L30.6493 44.6303C30.5541 44.6495 30.4559 44.6494 30.3607 44.6299C30.2656 44.6104 30.1756 44.5719 30.0965 44.5169C30.0162 44.4654 29.9473 44.3987 29.8939 44.3208C29.8405 44.243 29.8037 44.1555 29.7856 44.0636L29.3537 41.7715C29.3357 41.6793 29.3371 41.5845 29.3579 41.4929C29.3787 41.4013 29.4184 41.3147 29.4747 41.2384C29.5264 41.1592 29.5946 41.0913 29.6749 41.0392C29.7553 40.9872 29.8459 40.9521 29.9411 40.9362L32.2386 40.5122Z" fill="#F6881F"/>
<path d="M50.243 35.3824C50.7523 35.657 51.2178 36.002 51.625 36.4067C52.0207 36.786 52.3413 37.2328 52.5707 37.7249C52.7908 38.1955 52.9042 38.7066 52.9033 39.2235C52.9028 39.7745 52.7539 40.3158 52.4714 40.7935C52.2599 41.1764 51.9739 41.5157 51.6293 41.7926C51.3206 42.0255 50.9788 42.2136 50.6144 42.3509C50.2603 42.4854 49.8947 42.5894 49.5218 42.6615L48.468 42.863C48.152 42.9221 47.8425 43.0107 47.5439 43.1275C47.2751 43.2244 47.0401 43.3933 46.8658 43.6145C46.7809 43.7161 46.6689 43.7931 46.5419 43.8369C46.4823 43.8587 46.4185 43.8673 46.355 43.8622C46.2915 43.8571 46.23 43.8385 46.1749 43.8076L44.9268 43.1275C44.8054 43.063 44.7153 42.9543 44.6763 42.8253C44.6551 42.764 44.6487 42.6987 44.6577 42.6347C44.6667 42.5706 44.6908 42.5094 44.7281 42.4558C44.9581 42.0847 45.2638 41.7633 45.6264 41.5113C45.955 41.2882 46.3122 41.1076 46.6888 40.974C47.0499 40.8491 47.4212 40.7536 47.7987 40.6885C48.1744 40.6256 48.5242 40.5626 48.8524 40.4954C49.1486 40.4353 49.4379 40.3467 49.7161 40.231C49.9562 40.128 50.156 39.9529 50.2862 39.7314C50.3996 39.5366 50.4628 39.318 50.4703 39.0943C50.4778 38.8706 50.4295 38.6485 50.3294 38.4469C50.0827 37.947 49.6706 37.5419 49.159 37.2967C48.7184 37.0491 48.2099 36.9397 47.7029 36.9833C47.196 37.0268 46.7151 37.2213 46.326 37.5401C46.2297 37.6162 46.1199 37.6745 46.0021 37.7123C45.8785 37.7322 45.7517 37.7052 45.648 37.6367L44.3178 36.9147C44.2237 36.8632 44.1528 36.7793 44.1192 36.6796C44.1024 36.6274 44.0971 36.5724 44.1038 36.5181C44.1105 36.4638 44.129 36.4116 44.1581 36.3647C44.4102 35.9745 44.7553 35.6491 45.1643 35.416C45.6298 35.1429 46.1417 34.9524 46.6758 34.8535C47.2605 34.7421 47.86 34.7237 48.4508 34.7989C49.0812 34.8796 49.6897 35.0777 50.243 35.3824ZM45.6912 44.8067C45.7498 44.8382 45.8014 44.8809 45.8429 44.932C45.8844 44.9832 45.9151 45.0419 45.933 45.1047C45.9521 45.1666 45.9582 45.2316 45.9507 45.2958C45.9433 45.36 45.9226 45.4221 45.8898 45.4783L45.0822 46.8846C45.0167 46.999 44.9072 47.0836 44.7778 47.1198C44.6483 47.156 44.5093 47.1408 44.3913 47.0777L42.9791 46.3095C42.9196 46.2795 42.8676 46.2373 42.8266 46.1859C42.7856 46.1344 42.7565 46.0749 42.7415 46.0114C42.721 45.9499 42.7139 45.885 42.7205 45.8207C42.7272 45.7563 42.7476 45.6941 42.7804 45.6378L43.588 44.2315C43.6207 44.1752 43.6647 44.1257 43.7174 44.0861C43.77 44.0464 43.8303 44.0174 43.8946 44.0007C43.9581 43.9811 44.0252 43.9747 44.0914 43.9819C44.1576 43.9891 44.2215 44.0098 44.279 44.0426L45.6912 44.8067Z" fill="#F6881F"/>
<g opacity="0.2">
<path d="M50.243 35.3824C50.7523 35.657 51.2178 36.002 51.625 36.4067C52.0207 36.786 52.3413 37.2328 52.5707 37.7249C52.7908 38.1955 52.9042 38.7066 52.9033 39.2235C52.9028 39.7745 52.7539 40.3158 52.4714 40.7935C52.2599 41.1764 51.9739 41.5157 51.6293 41.7926C51.3206 42.0255 50.9788 42.2136 50.6144 42.3509C50.2603 42.4854 49.8947 42.5894 49.5218 42.6615L48.468 42.863C48.152 42.9221 47.8425 43.0107 47.5439 43.1275C47.2751 43.2244 47.0401 43.3933 46.8658 43.6145C46.7809 43.7161 46.6689 43.7931 46.5419 43.8369C46.4823 43.8587 46.4185 43.8673 46.355 43.8622C46.2915 43.8571 46.23 43.8385 46.1749 43.8076L44.9268 43.1275C44.8054 43.063 44.7153 42.9543 44.6763 42.8253C44.6551 42.764 44.6487 42.6987 44.6577 42.6347C44.6667 42.5706 44.6908 42.5094 44.7281 42.4558C44.9581 42.0847 45.2638 41.7633 45.6264 41.5113C45.955 41.2882 46.3122 41.1076 46.6888 40.974C47.0499 40.8491 47.4212 40.7536 47.7987 40.6885C48.1744 40.6256 48.5242 40.5626 48.8524 40.4954C49.1486 40.4353 49.4379 40.3467 49.7161 40.231C49.9562 40.128 50.156 39.9529 50.2862 39.7314C50.3996 39.5366 50.4628 39.318 50.4703 39.0943C50.4778 38.8706 50.4295 38.6485 50.3294 38.4469C50.0827 37.947 49.6706 37.5419 49.159 37.2967C48.7184 37.0491 48.2099 36.9397 47.7029 36.9833C47.196 37.0268 46.7151 37.2213 46.326 37.5401C46.2297 37.6162 46.1199 37.6745 46.0021 37.7123C45.8785 37.7322 45.7517 37.7052 45.648 37.6367L44.3178 36.9147C44.2237 36.8632 44.1528 36.7793 44.1192 36.6796C44.1024 36.6274 44.0971 36.5724 44.1038 36.5181C44.1105 36.4638 44.129 36.4116 44.1581 36.3647C44.4102 35.9745 44.7553 35.6491 45.1643 35.416C45.6298 35.1429 46.1417 34.9524 46.6758 34.8535C47.2605 34.7421 47.86 34.7237 48.4508 34.7989C49.0812 34.8796 49.6897 35.0777 50.243 35.3824ZM45.6912 44.8067C45.7498 44.8382 45.8014 44.8809 45.8429 44.932C45.8844 44.9832 45.9151 45.0419 45.933 45.1047C45.9521 45.1666 45.9582 45.2316 45.9507 45.2958C45.9433 45.36 45.9226 45.4221 45.8898 45.4783L45.0822 46.8846C45.0167 46.999 44.9072 47.0836 44.7778 47.1198C44.6483 47.156 44.5093 47.1408 44.3913 47.0777L42.9791 46.3095C42.9196 46.2795 42.8676 46.2373 42.8266 46.1859C42.7856 46.1344 42.7565 46.0749 42.7415 46.0114C42.721 45.9499 42.7139 45.885 42.7205 45.8207C42.7272 45.7563 42.7476 45.6941 42.7804 45.6378L43.588 44.2315C43.6207 44.1752 43.6647 44.1257 43.7174 44.0861C43.77 44.0464 43.8303 44.0174 43.8946 44.0007C43.9581 43.9811 44.0252 43.9747 44.0914 43.9819C44.1576 43.9891 44.2215 44.0098 44.279 44.0426L45.6912 44.8067Z" fill="black"/>
</g>
<path d="M19.8225 50.7969C19.88 50.7441 19.9479 50.7031 20.0221 50.6764C20.0963 50.6497 20.1753 50.6379 20.2543 50.6416C20.3354 50.6427 20.4154 50.6596 20.4896 50.6913C20.5637 50.7231 20.6306 50.769 20.6862 50.8263L22.0163 52.2284C22.0711 52.2856 22.1136 52.3527 22.1415 52.426C22.1694 52.4992 22.1821 52.5771 22.1789 52.6552C22.1757 52.7332 22.1566 52.8099 22.1228 52.8807C22.089 52.9516 22.041 53.0152 21.9818 53.068L20.5739 54.3273C20.5151 54.3805 20.446 54.4219 20.3706 54.449C20.2953 54.4761 20.2151 54.4885 20.1348 54.4854C20.0546 54.4822 19.9757 54.4637 19.9028 54.4308C19.8299 54.3979 19.7645 54.3513 19.7102 54.2938L18.38 52.8917C18.3248 52.8347 18.2818 52.7677 18.2535 52.6944C18.2253 52.6211 18.2124 52.543 18.2156 52.4648C18.2189 52.3866 18.2381 52.3098 18.2723 52.2389C18.3064 52.1681 18.3548 52.1045 18.4146 52.0521L19.8225 50.7969ZM10.5806 42.3382C11.0856 41.8795 11.6557 41.4935 12.2735 41.1922C12.8601 40.904 13.4947 40.7192 14.1478 40.6465C14.7747 40.5792 15.4091 40.6422 16.0091 40.8312C16.6466 41.0427 17.2165 41.4116 17.6631 41.9017C18.0369 42.2707 18.3306 42.709 18.5269 43.1904C18.6853 43.6127 18.7784 44.0555 18.8033 44.5043C18.8279 44.9413 18.8135 45.3795 18.7601 45.8141C18.7039 46.2339 18.6521 46.6536 18.6046 47.044C18.5577 47.4116 18.5447 47.7825 18.5657 48.1523C18.5801 48.4846 18.6909 48.8063 18.8853 49.08C18.969 49.2055 19.0167 49.3504 19.0235 49.4998C19.0273 49.5734 19.0137 49.6468 18.9837 49.7145C18.9538 49.7821 18.9083 49.8422 18.8508 49.8902L17.607 51.011C17.489 51.115 17.3343 51.1706 17.1751 51.1663C17.0962 51.1692 17.0177 51.1535 16.9463 51.1206C16.8749 51.0877 16.8126 51.0386 16.7649 50.9774C16.4193 50.5869 16.1579 50.133 15.9962 49.6425C15.8609 49.202 15.7854 48.7462 15.7716 48.2866C15.7581 47.8431 15.7841 47.3993 15.8493 46.9601C15.9141 46.5403 15.9659 46.1205 16.0091 45.7427C16.0478 45.3953 16.0478 45.0448 16.0091 44.6974C15.9809 44.3982 15.8519 44.1163 15.642 43.8956C15.4594 43.699 15.2303 43.5484 14.9745 43.457C14.7187 43.3656 14.4439 43.336 14.1737 43.3709C13.5073 43.4547 12.888 43.7498 12.4117 44.2105C11.4846 45.0501 11.2298 46.1149 11.6473 47.4051C11.6985 47.5394 11.7248 47.6816 11.725 47.8248C11.7143 47.8955 11.6894 47.9634 11.6516 48.0246C11.6138 48.0859 11.5639 48.1392 11.5048 48.1817L10.179 49.3739C10.0863 49.4608 9.96227 49.5091 9.83346 49.5082C9.7675 49.5071 9.70254 49.4923 9.64294 49.4648C9.58335 49.4373 9.53051 49.3977 9.48797 49.3487C9.12084 48.9358 8.86422 48.4412 8.74085 47.9088C8.59431 47.2996 8.56068 46.6698 8.64152 46.0492C8.7302 45.3687 8.93146 44.7067 9.23749 44.0887C9.56345 43.4257 10.0197 42.831 10.5806 42.3382Z" fill="#F6881F"/>
<g opacity="0.6">
<path d="M19.8225 50.7969C19.88 50.7441 19.9479 50.7031 20.0221 50.6764C20.0963 50.6497 20.1753 50.6379 20.2543 50.6416C20.3354 50.6427 20.4154 50.6596 20.4896 50.6913C20.5637 50.7231 20.6306 50.769 20.6862 50.8263L22.0163 52.2284C22.0711 52.2856 22.1136 52.3527 22.1415 52.426C22.1694 52.4992 22.1821 52.5771 22.1789 52.6552C22.1757 52.7332 22.1566 52.8099 22.1228 52.8807C22.089 52.9516 22.041 53.0152 21.9818 53.068L20.5739 54.3273C20.5151 54.3805 20.446 54.4219 20.3706 54.449C20.2953 54.4761 20.2151 54.4885 20.1348 54.4854C20.0546 54.4822 19.9757 54.4637 19.9028 54.4308C19.8299 54.3979 19.7645 54.3513 19.7102 54.2938L18.38 52.8917C18.3248 52.8347 18.2818 52.7677 18.2535 52.6944C18.2253 52.6211 18.2124 52.543 18.2156 52.4648C18.2189 52.3866 18.2381 52.3098 18.2723 52.2389C18.3064 52.1681 18.3548 52.1045 18.4146 52.0521L19.8225 50.7969ZM10.5806 42.3382C11.0856 41.8795 11.6557 41.4935 12.2735 41.1922C12.8601 40.904 13.4947 40.7192 14.1478 40.6465C14.7747 40.5792 15.4091 40.6422 16.0091 40.8312C16.6466 41.0427 17.2165 41.4116 17.6631 41.9017C18.0369 42.2707 18.3306 42.709 18.5269 43.1904C18.6853 43.6127 18.7784 44.0555 18.8033 44.5043C18.8279 44.9413 18.8135 45.3795 18.7601 45.8141C18.7039 46.2339 18.6521 46.6536 18.6046 47.044C18.5577 47.4116 18.5447 47.7825 18.5657 48.1523C18.5801 48.4846 18.6909 48.8063 18.8853 49.08C18.969 49.2055 19.0167 49.3504 19.0235 49.4998C19.0273 49.5734 19.0137 49.6468 18.9837 49.7145C18.9538 49.7821 18.9083 49.8422 18.8508 49.8902L17.607 51.011C17.489 51.115 17.3343 51.1706 17.1751 51.1663C17.0962 51.1692 17.0177 51.1535 16.9463 51.1206C16.8749 51.0877 16.8126 51.0386 16.7649 50.9774C16.4193 50.5869 16.1579 50.133 15.9962 49.6425C15.8609 49.202 15.7854 48.7462 15.7716 48.2866C15.7581 47.8431 15.7841 47.3993 15.8493 46.9601C15.9141 46.5403 15.9659 46.1205 16.0091 45.7427C16.0478 45.3953 16.0478 45.0448 16.0091 44.6974C15.9809 44.3982 15.8519 44.1163 15.642 43.8956C15.4594 43.699 15.2303 43.5484 14.9745 43.457C14.7187 43.3656 14.4439 43.336 14.1737 43.3709C13.5073 43.4547 12.888 43.7498 12.4117 44.2105C11.4846 45.0501 11.2298 46.1149 11.6473 47.4051C11.6985 47.5394 11.7248 47.6816 11.725 47.8248C11.7143 47.8955 11.6894 47.9634 11.6516 48.0246C11.6138 48.0859 11.5639 48.1392 11.5048 48.1817L10.179 49.3739C10.0863 49.4608 9.96227 49.5091 9.83346 49.5082C9.7675 49.5071 9.70254 49.4923 9.64294 49.4648C9.58335 49.4373 9.53051 49.3977 9.48797 49.3487C9.12084 48.9358 8.86422 48.4412 8.74085 47.9088C8.59431 47.2996 8.56068 46.6698 8.64152 46.0492C8.7302 45.3687 8.93146 44.7067 9.23749 44.0887C9.56345 43.4257 10.0197 42.831 10.5806 42.3382Z" fill="white"/>
</g>
<path d="M107.763 80.0854C106.532 79.4012 101.35 76.4878 99.5875 75.4972C99.2377 75.3041 99.0175 75.1781 99.0002 75.1655C98.1241 74.6908 97.1004 74.5416 96.1197 74.7457C95.2778 74.9118 94.4715 75.2171 93.7358 75.6483C93.6149 75.7154 93.4939 75.7952 93.3773 75.8708C91.3864 77.0923 89.6763 79.015 88.2511 81.6596C86.8 84.2357 86.0214 87.1186 85.9838 90.0553C85.9838 92.8371 86.7468 94.7891 88.2727 95.9114C88.4272 96.0232 88.5887 96.1256 88.7564 96.2178C90.1859 97.007 97.3548 101.045 97.5146 101.134H97.5534C97.3771 101.04 97.2082 100.933 97.0482 100.814C95.5194 99.695 94.7564 97.7444 94.7593 94.9626C94.7969 92.0259 95.5754 89.143 97.0266 86.5669C98.5323 83.7683 100.359 81.7632 102.507 80.5514C104.551 79.404 106.316 79.2542 107.802 80.1022L107.763 80.0854Z" fill="#F6881F"/>
<path opacity="0.4" d="M107.802 80.1107C106.316 79.2712 104.551 79.4195 102.507 80.5557C100.512 81.6751 98.7915 83.4942 97.3462 86.0129L88.5707 81.072C89.9268 78.717 91.529 76.9833 93.373 75.8541C93.4896 75.7827 93.6106 75.6988 93.7315 75.6316C94.4664 75.1999 95.2731 74.8959 96.1154 74.7333C97.0961 74.5268 98.1206 74.6761 98.9959 75.153L99.5832 75.4847C101.345 76.4712 106.528 79.3845 107.758 80.0687L107.802 80.1107Z" fill="black"/>
<path opacity="0.3" d="M97.5534 101.121H97.5146C97.3548 101.033 90.1729 96.9945 88.7564 96.2053C88.5887 96.113 88.4272 96.0107 88.2727 95.8988C86.7468 94.7794 85.9838 92.8288 85.9838 90.047C86.0204 87.1101 86.799 84.227 88.2511 81.6513C88.3548 81.454 88.4627 81.2609 88.575 81.0762L97.3462 86.0003C97.2382 86.185 97.1302 86.3781 97.0266 86.5712C95.5754 89.1473 94.7969 92.0302 94.7593 94.9669C94.7593 97.7487 95.5222 99.6993 97.0482 100.819C97.2087 100.931 97.3776 101.032 97.5534 101.121Z" fill="black"/>
<path d="M103.936 8.05035C108.195 5.65757 111.819 4.64029 114.811 4.99851C116.028 5.13988 117.204 5.51974 118.266 6.11514C118.236 6.0999 118.207 6.08308 118.179 6.06476C117.151 5.50225 110.959 2.03062 109.542 1.22043C108.461 0.606553 107.261 0.217721 106.018 0.0786106C103.024 -0.276809 99.3975 0.739075 95.1394 3.12626C88.5175 6.83997 83.1912 12.2972 79.1604 19.4979C75.1297 26.6987 73.1359 34.0491 73.1791 41.5493L81.9503 46.4734C81.8898 38.9676 83.8836 31.6158 87.9316 24.4178C91.9796 17.2199 97.3145 11.7641 103.936 8.05035Z" fill="#F6881F"/>
<path opacity="0.2" d="M118.197 6.06879C117.15 5.50213 116 5.13857 114.811 4.99833C111.822 4.64011 108.198 5.65739 103.937 8.05018C97.3146 11.7611 91.9883 17.2183 87.9576 24.4218C87.7892 24.7199 87.6251 25.0221 87.4653 25.3202L78.6725 20.3877C78.8323 20.0897 78.9964 19.7874 79.1649 19.4894C83.2129 12.2942 88.5392 6.83699 95.1438 3.11769C99.4077 0.727703 103.034 -0.288179 106.022 0.0700385C107.266 0.210561 108.466 0.60082 109.546 1.21606C110.976 2.03464 117.169 5.51047 118.197 6.06879Z" fill="black"/>
<path opacity="0.3" d="M87.4436 25.3118C83.7267 32.2215 81.8971 39.2725 81.9546 46.4648L73.1835 41.5407C73.1288 34.3456 74.9585 27.2946 78.6725 20.3877L87.4436 25.3118Z" fill="black"/>
<path d="M109.896 22.0039C108.304 21.1811 106.178 21.5029 103.517 22.9694C103.428 24.5079 103.101 26.0247 102.55 27.4695C101.885 29.2102 99.9502 32.8008 96.7458 38.2412C93.4262 43.8664 91.025 49.2382 89.5423 54.3568C88.0717 59.4104 87.3247 64.637 87.3225 69.8889L87.3657 72.5042L93.3513 75.8625L96.1412 77.4283L96.0937 74.8088V74.7752C96.1032 69.5404 96.85 64.3314 98.3134 59.2935C99.7962 54.1749 102.199 48.8044 105.521 43.1821C108.723 37.7417 110.656 34.1497 111.321 32.4062C111.985 30.6825 112.325 28.8567 112.323 27.0161C112.323 24.5114 111.514 22.8407 109.896 22.0039Z" fill="#F6881F"/>
<path opacity="0.3" d="M110.462 34.291C109.471 36.2948 107.824 39.2529 105.521 43.1653C102.196 48.7904 99.7933 54.1623 98.3134 59.2809C96.8485 64.3228 96.1016 69.5361 96.0936 74.7752V74.8423L96.1412 77.4618L93.3513 75.9002L87.3657 72.5419L87.3225 69.9225C87.325 64.6706 88.072 59.444 89.5423 54.3904C91.025 49.2718 93.4262 43.8999 96.7458 38.2748C99.049 34.3567 100.699 31.4 101.695 29.4047L110.462 34.291Z" fill="black"/>
<path opacity="0.4" d="M112.323 27.0161C112.324 28.8508 111.986 30.6708 111.326 32.3894C111.14 32.8805 110.851 33.5144 110.462 34.291L101.695 29.3711C102.078 28.5931 102.366 27.9592 102.559 27.4695C103.11 26.0247 103.436 24.5079 103.526 22.9694C106.186 21.5029 108.313 21.1811 109.905 22.0039C111.497 22.8267 112.303 24.4974 112.323 27.0161Z" fill="black"/>
<path d="M93.8265 39.7986L81.9546 46.4648C81.8941 38.959 83.8879 31.6072 87.9359 24.4093C91.9839 17.2113 97.3102 11.7541 103.915 8.03759C108.173 5.6448 111.798 4.62752 114.789 4.98574C117.78 5.34396 120.174 6.93775 121.971 9.76711C123.77 12.5965 124.67 16.1255 124.67 20.3541C124.652 22.8092 124.363 25.2552 123.806 27.65C123.133 30.5147 122.225 33.3223 121.09 36.0457C120.364 37.8256 118.627 41.1112 115.877 45.9023C113.249 50.4696 111.602 53.5774 110.937 55.2258C110.199 57.1824 109.651 59.202 109.3 61.2581C108.777 64.3312 108.489 67.4377 108.436 70.5522L96.1585 77.4451L96.111 74.8256C96.1136 69.5737 96.8605 64.3472 98.3308 59.2935C99.8135 54.1749 102.216 48.8044 105.539 43.1821C108.74 37.7417 110.673 34.1497 111.339 32.4062C111.997 30.6815 112.33 28.8557 112.323 27.0161C112.323 24.4974 111.516 22.8267 109.9 22.0039C108.285 21.1811 106.117 21.5253 103.397 23.0366C100.615 24.5982 98.3337 26.9406 96.5515 30.0638C94.8086 33.0316 93.8709 36.3816 93.8265 39.7986Z" fill="#F6881F"/>
<path d="M102.486 80.581C104.688 79.3412 106.568 79.2642 108.126 80.3501C109.683 81.4359 110.462 83.3683 110.462 86.1473C110.415 89.1001 109.621 91.9963 108.152 94.5808C106.614 97.4214 104.756 99.4532 102.576 100.676C100.397 101.899 98.5455 101.949 97.0225 100.827C95.4965 99.7078 94.7336 97.7558 94.7336 94.9712C94.7712 92.0345 95.5497 89.1516 97.0009 86.5755C98.5124 83.7825 100.341 81.7844 102.486 80.581Z" fill="#F6881F"/>
</svg>
