<svg width="199" height="188" viewBox="0 0 199 188" fill="none" xmlns="http://www.w3.org/2000/svg">
<path d="M98.0707 188C151.354 188 194.548 165.167 194.548 137C194.548 108.834 151.354 86.0004 98.0707 86.0004C44.7879 86.0004 1.59363 108.834 1.59363 137C1.59363 165.167 44.7879 188 98.0707 188Z" fill="#F5F5F5"/>
<path d="M98.0706 134.33C106.099 134.33 112.607 130.677 112.607 126.17C112.607 121.663 106.099 118.009 98.0706 118.009C90.0424 118.009 83.5343 121.663 83.5343 126.17C83.5343 130.677 90.0424 134.33 98.0706 134.33Z" fill="#E0E0E0"/>
<path d="M152.282 156.138C164.973 156.138 175.261 150.365 175.261 143.242C175.261 136.12 164.973 130.347 152.282 130.347C139.591 130.347 129.303 136.12 129.303 143.242C129.303 150.365 139.591 156.138 152.282 156.138Z" fill="#E0E0E0"/>
<path d="M39.5193 157.532C52.2103 157.532 62.4984 151.758 62.4984 144.636C62.4984 137.514 52.2103 131.74 39.5193 131.74C26.8282 131.74 16.5401 137.514 16.5401 144.636C16.5401 151.758 26.8282 157.532 39.5193 157.532Z" fill="#E0E0E0"/>
<path d="M186.602 134.079L182.261 132.353C181.716 128.707 181.402 125.031 181.32 121.347C181.32 114.454 185.738 106.024 191.343 107.435C196.949 108.845 189.763 116.557 188.597 122.514C187.431 128.47 186.602 134.079 186.602 134.079Z" fill="#46A3DB"/>
<path opacity="0.3" d="M186.602 134.079L182.261 132.353C181.716 128.707 181.402 125.031 181.32 121.347C181.32 114.454 185.738 106.024 191.343 107.435C196.949 108.845 189.763 116.557 188.597 122.514C187.431 128.47 186.602 134.079 186.602 134.079Z" fill="black"/>
<path d="M184.498 133.546C184.546 133.539 184.589 133.515 184.618 133.478C184.647 133.441 184.66 133.395 184.654 133.348C182.585 118.236 189.577 109.84 189.646 109.769C189.677 109.733 189.692 109.686 189.687 109.639C189.683 109.592 189.66 109.549 189.622 109.519C189.585 109.489 189.537 109.475 189.489 109.479C189.441 109.483 189.396 109.506 189.365 109.542C189.296 109.626 182.201 118.123 184.291 133.395C184.294 133.418 184.302 133.44 184.314 133.46C184.327 133.481 184.343 133.498 184.362 133.512C184.381 133.527 184.403 133.537 184.427 133.542C184.45 133.548 184.475 133.549 184.498 133.546Z" fill="white"/>
<path d="M188.83 135.086L186.563 134.087C185.884 130.692 185.987 127.192 186.865 123.84C188.32 118.408 193.166 115.058 195.606 115.612C198.59 116.288 198.879 118.971 198.007 120.839C196.966 123.051 189.789 129.041 188.83 135.086Z" fill="#46A3DB"/>
<path opacity="0.1" d="M188.83 135.086L186.563 134.087C185.884 130.692 185.987 127.192 186.865 123.84C188.32 118.408 193.166 115.058 195.606 115.612C198.59 116.288 198.879 118.971 198.007 120.839C196.966 123.051 189.789 129.041 188.83 135.086Z" fill="black"/>
<path d="M187.651 134.738C187.7 134.733 187.744 134.709 187.775 134.672C187.805 134.635 187.82 134.588 187.815 134.541C186.796 124.953 195.403 117.581 195.494 117.51C195.526 117.476 195.545 117.431 195.545 117.384C195.545 117.337 195.526 117.292 195.494 117.258C195.477 117.241 195.456 117.228 195.434 117.219C195.412 117.21 195.388 117.205 195.364 117.205C195.34 117.205 195.316 117.21 195.294 117.219C195.271 117.228 195.251 117.241 195.234 117.258C195.144 117.334 186.399 124.814 187.431 134.595C187.441 134.642 187.47 134.683 187.511 134.71C187.552 134.737 187.602 134.747 187.651 134.738Z" fill="white"/>
<path d="M14.2902 130.217L17.27 128.563C17.27 128.563 18.6951 120.918 17.6284 114.344C16.1256 105.109 9.65203 101.915 7.30272 102.834C4.95341 103.753 4.40063 106.49 8.6458 111.83C11.1506 114.978 14.3722 121.64 14.2902 130.217Z" fill="#46A3DB"/>
<g opacity="0.15">
<path d="M14.2902 130.217L17.27 128.563C17.27 128.563 18.6951 120.918 17.6284 114.344C16.1256 105.109 9.65203 101.915 7.30272 102.834C4.95341 103.753 4.40063 106.49 8.6458 111.83C11.1506 114.978 14.3722 121.64 14.2902 130.217Z" fill="black"/>
</g>
<path d="M15.3698 126.548H15.3396C15.3123 126.544 15.2859 126.535 15.2621 126.522C15.2384 126.508 15.2176 126.49 15.2011 126.468C15.1846 126.447 15.1727 126.422 15.1661 126.396C15.1595 126.37 15.1583 126.343 15.1625 126.317C16.389 117.665 12.8132 108.186 8.78831 104.366C8.76332 104.348 8.74254 104.326 8.72737 104.299C8.71219 104.273 8.70298 104.244 8.70036 104.214C8.69774 104.184 8.70177 104.154 8.71217 104.126C8.72258 104.098 8.73911 104.072 8.76066 104.05C8.78222 104.029 8.80828 104.012 8.83709 104.001C8.8659 103.99 8.89679 103.985 8.92767 103.987C8.95854 103.989 8.98868 103.997 9.01605 104.011C9.04342 104.025 9.06737 104.044 9.0863 104.068C13.1803 107.938 16.8295 117.594 15.5858 126.367C15.5784 126.418 15.5525 126.464 15.5127 126.497C15.473 126.53 15.4222 126.548 15.3698 126.548Z" fill="white"/>
<path d="M6.03307 134.855C5.56235 135.116 4.59499 134.545 4.22359 134.301C3.58653 133.874 3.07221 133.296 2.72936 132.622C2.34648 131.861 2.21669 131.002 2.35796 130.166C2.43272 129.724 2.53951 129.288 2.67754 128.861L3.05325 127.601C3.20128 127.198 3.26585 126.77 3.24327 126.342C3.13099 125.473 2.33637 124.869 1.61948 124.344C0.820547 123.765 -0.0043017 123.001 1.68846e-05 121.955C0.0557385 121.145 0.388675 120.377 0.945786 119.772C1.45538 119.138 2.0643 118.58 2.5307 117.913C2.89629 117.444 3.08396 116.867 3.06189 116.28C3.01242 115.922 2.88902 115.578 2.69913 115.268C2.26224 114.622 1.88091 113.943 1.55902 113.236C1.29559 112.506 1.33446 111.599 1.92179 111.074C2.18315 110.885 2.48092 110.747 2.79759 110.671C3.11426 110.595 3.44345 110.58 3.76582 110.629C4.37902 110.7 4.9688 110.9 5.49325 111.217C7.19909 112.136 8.17077 114.101 9.98025 114.81C10.6967 115.027 11.4265 115.2 12.1655 115.327C12.5363 115.394 12.8886 115.535 13.1996 115.743C13.5106 115.95 13.7732 116.219 13.9706 116.532C14.6357 117.82 13.4049 119.407 13.8713 120.776C14.3032 121.985 15.4951 122.455 16.1731 123.542C16.451 124.023 16.5631 124.577 16.4927 125.125C16.4324 126.05 16.1997 126.958 15.806 127.803C15.363 128.643 14.8563 129.45 14.2902 130.217C14.2643 130.246 6.10649 134.805 6.03307 134.855Z" fill="#46A3DB"/>
<path d="M10.8656 132.353C10.8372 132.352 10.8093 132.346 10.7836 132.334C10.7578 132.322 10.7346 132.306 10.7153 132.286C10.6961 132.266 10.6811 132.242 10.6713 132.216C10.6616 132.19 10.6571 132.162 10.6583 132.135C11.0081 123.949 7.03929 114.924 4.15448 112.279C4.11519 112.24 4.09314 112.188 4.09314 112.134C4.09314 112.08 4.11519 112.028 4.15448 111.989C4.19484 111.951 4.24911 111.929 4.30563 111.929C4.36215 111.929 4.41642 111.951 4.45678 111.989C7.38046 114.655 11.4356 123.848 11.0772 132.156C11.0749 132.209 11.0517 132.259 11.0122 132.296C10.9728 132.333 10.9202 132.353 10.8656 132.353Z" fill="white"/>
<path d="M9.60451 122.677H9.53973C7.54436 122.144 5.49554 121.821 3.42894 121.716C3.37167 121.716 3.31675 121.694 3.27626 121.654C3.23576 121.615 3.21301 121.562 3.21301 121.506C3.21301 121.45 3.23576 121.397 3.27626 121.357C3.31675 121.318 3.37167 121.296 3.42894 121.296C5.53217 121.402 7.61732 121.73 9.6477 122.274C9.67437 122.282 9.69921 122.295 9.72081 122.312C9.74241 122.329 9.76034 122.35 9.77358 122.373C9.78681 122.397 9.7951 122.423 9.79795 122.45C9.8008 122.477 9.79817 122.504 9.79021 122.53C9.77762 122.57 9.75327 122.605 9.72023 122.631C9.68719 122.657 9.64692 122.673 9.60451 122.677Z" fill="white"/>
<path d="M163.64 140.581L159.615 140.132L158.574 132.248L163.493 133.667L163.64 140.581Z" fill="#B16668"/>
<path d="M154.821 147.012C154.763 147.167 154.739 147.333 154.751 147.498C154.763 147.663 154.81 147.823 154.89 147.969C155.322 148.456 156.436 149.027 157.956 149.132C159.412 149.233 160.707 149.044 161.558 148.519C161.928 148.333 162.245 148.061 162.48 147.727C162.715 147.393 162.861 147.007 162.905 146.605C162.987 145.803 162.905 145.026 163.29 144.409C163.674 143.792 164.231 143.192 164.356 142.881C164.506 142.345 164.506 141.78 164.356 141.244L154.821 147.012Z" fill="#263238"/>
<path d="M158.798 139.993C158.785 140.298 158.729 140.599 158.63 140.888C158.407 141.509 158.109 142.103 157.74 142.655C157.56 142.948 157.357 143.229 157.136 143.494C156.704 144.002 156.151 144.422 155.685 144.909C155.19 145.368 154.873 145.979 154.786 146.639C154.726 147.747 156.54 148.125 157.494 148.288C158.524 148.463 159.58 148.412 160.586 148.137C161.115 148.003 161.592 147.724 161.961 147.333C162.33 146.943 162.576 146.456 162.668 145.933C162.724 145.623 162.702 145.308 162.741 145.001C162.867 144.294 163.171 143.627 163.627 143.062C163.891 142.736 164.118 142.382 164.305 142.008C164.603 141.324 164.365 140.552 164.175 139.872C164.011 139.28 163.812 138.612 163.596 138.658C163.596 138.965 163.596 139.007 163.385 139.213C163.173 139.418 163.091 139.872 162.789 140.103C162.885 139.847 162.956 139.582 163 139.313C163.019 139.206 162.996 139.095 162.936 139.003C162.835 138.915 162.716 138.852 162.586 138.818C162.137 138.672 161.674 138.569 161.204 138.512C160.562 138.44 159.915 138.44 159.273 138.512C159.14 138.535 159.019 138.603 158.932 138.705C158.855 138.816 158.813 138.948 158.811 139.082C158.79 139.242 158.807 139.7 158.798 139.993Z" fill="#455A64"/>
<path d="M157.585 142.89C158.017 142.579 159.541 142.575 160.059 142.629C160.588 142.673 161.096 142.847 161.536 143.133C161.601 143.178 161.68 143.199 161.759 143.193C161.838 143.187 161.912 143.154 161.968 143.1C162.001 143.068 162.026 143.03 162.042 142.988C162.059 142.946 162.065 142.901 162.062 142.857C162.059 142.812 162.046 142.769 162.023 142.729C162.001 142.69 161.971 142.656 161.934 142.629C161.45 142.282 160.875 142.074 160.275 142.029C159.527 141.976 158.775 142.018 158.038 142.155C158.038 142.155 157.46 142.52 157.585 142.89Z" fill="#F5F5F5"/>
<path d="M156.609 144.04C157.144 143.734 158.768 143.776 159.291 143.83C159.809 143.882 160.303 144.066 160.725 144.363C160.789 144.407 160.868 144.428 160.947 144.422C161.025 144.416 161.1 144.383 161.156 144.33C161.189 144.298 161.214 144.26 161.231 144.218C161.247 144.176 161.253 144.132 161.25 144.087C161.247 144.042 161.234 143.999 161.212 143.96C161.189 143.92 161.159 143.886 161.122 143.86C160.413 143.503 159.641 143.283 158.846 143.213C157.55 143.125 157.235 143.377 157.235 143.377C157.086 143.435 156.953 143.525 156.845 143.64C156.736 143.754 156.656 143.891 156.609 144.04Z" fill="#F5F5F5"/>
<path d="M160.785 140.841C160.054 140.76 159.315 140.804 158.6 140.971C158.375 141.093 158.224 141.442 158.371 141.53C159.023 141.359 159.7 141.293 160.375 141.337C160.853 141.383 161.321 141.508 161.757 141.706C161.869 141.756 161.998 141.819 162.111 141.882C162.147 141.905 162.187 141.919 162.23 141.925C162.272 141.931 162.315 141.927 162.356 141.915C162.397 141.903 162.435 141.883 162.467 141.856C162.499 141.828 162.525 141.794 162.543 141.756C162.573 141.695 162.579 141.624 162.559 141.558C162.539 141.492 162.495 141.435 162.435 141.4C161.932 141.101 161.37 140.911 160.785 140.841Z" fill="#F5F5F5"/>
<path d="M148.633 136.996L144.806 135.959V128.441L149.552 128.642L148.633 136.996Z" fill="#B16668"/>
<path d="M136.722 141.022C136.614 141.346 136.634 141.698 136.778 142.008C136.921 142.294 138.471 143.146 140.561 143.007C142.109 142.899 143.6 142.392 144.88 141.538C145.674 141.026 146.503 140.929 147.54 140.875C148.576 140.82 149.932 140.312 150.161 139.842C150.278 139.421 150.266 138.976 150.127 138.562L136.722 141.022Z" fill="#263238"/>
<path d="M145.143 134.683L144.979 134.649C144.888 134.629 144.793 134.629 144.703 134.649C144.602 134.681 144.513 134.74 144.443 134.817C144.24 135.073 144.062 135.347 143.912 135.636C143.48 136.329 142.552 136.895 141.55 137.428C140.868 137.785 140.198 138.062 139.494 138.369C138.79 138.675 137.819 138.877 137.257 139.246C136.437 139.783 136.329 141.131 137.257 141.664C138.061 142.126 140.185 142.625 142.409 142.012C143.619 141.677 144.966 140.421 146.555 140.3C147.566 140.22 149.479 139.947 150.131 139.2C150.373 138.868 150.049 137.819 149.786 136.912C149.496 135.921 149.224 134.393 148.887 134.465C148.89 134.536 148.876 134.606 148.845 134.67C148.814 134.735 148.768 134.791 148.71 134.834C148.585 134.96 148.417 135.04 148.278 135.153C148.043 135.379 147.852 135.645 147.717 135.938C147.662 136.069 147.561 136.176 147.432 136.24C147.259 136.299 147.134 136.198 147 136.131C146.81 136.047 146.596 136.032 146.395 136.089C146.416 135.892 146.452 135.697 146.503 135.506C146.523 135.446 146.523 135.381 146.503 135.321C146.479 135.26 146.433 135.21 146.374 135.178C146.004 134.931 145.584 134.763 145.143 134.683Z" fill="#455A64"/>
<path d="M142.509 136.878C142.581 136.743 142.687 136.627 142.818 136.542C142.949 136.457 143.099 136.405 143.256 136.392C143.714 136.308 144.526 136.639 145.031 137.042C145.079 137.08 145.117 137.128 145.141 137.183C145.166 137.238 145.176 137.298 145.171 137.358C145.166 137.418 145.145 137.475 145.112 137.526C145.079 137.576 145.033 137.618 144.979 137.647C144.911 137.684 144.833 137.7 144.755 137.691C144.678 137.683 144.605 137.651 144.547 137.601C143.99 137.112 143.259 136.853 142.509 136.878Z" fill="#F5F5F5"/>
<path d="M141.079 137.655C141.179 137.518 141.312 137.405 141.466 137.328C141.62 137.25 141.791 137.21 141.965 137.21C142.675 137.24 143.357 137.489 143.912 137.92C143.958 137.956 143.993 138.003 144.016 138.056C144.039 138.11 144.048 138.167 144.043 138.225C144.038 138.282 144.019 138.337 143.987 138.386C143.955 138.434 143.912 138.474 143.86 138.503C143.793 138.542 143.715 138.559 143.637 138.551C143.558 138.543 143.485 138.51 143.429 138.457C143.123 138.162 142.754 137.937 142.347 137.798C141.941 137.659 141.508 137.61 141.079 137.655Z" fill="#F5F5F5"/>
<path d="M139.529 138.352C139.643 138.225 139.784 138.124 139.942 138.055C140.1 137.986 140.271 137.951 140.444 137.953C141.128 137.994 141.781 138.244 142.31 138.667C142.356 138.704 142.391 138.751 142.414 138.805C142.437 138.858 142.446 138.916 142.441 138.974C142.436 139.031 142.417 139.087 142.385 139.136C142.353 139.184 142.31 139.225 142.258 139.254C142.191 139.294 142.112 139.31 142.034 139.302C141.956 139.294 141.883 139.261 141.826 139.208C141.538 138.902 141.18 138.666 140.781 138.517C140.383 138.369 139.954 138.312 139.529 138.352Z" fill="#F5F5F5"/>
<path d="M162.759 87.944C163.022 95.6974 163.039 112.489 163.039 112.489C163.121 113.454 163.208 115.167 163.281 118.643C163.389 123.68 163.64 136.119 163.64 136.119C163.64 136.119 161.165 137.248 158.889 136.329C158.889 136.329 155.728 118.84 155.08 113.853C154.514 109.5 153.43 99.2908 153.43 99.2908L151.936 112.25C151.936 112.25 151.936 115.608 151.733 118.572C151.565 120.88 149.259 132.773 149.259 132.773C147.752 133.162 146.162 133.111 144.685 132.626C144.685 132.626 144.478 114.37 144.435 112.25C144.387 109.84 145.026 83.7881 145.026 83.7881L162.759 87.944Z" fill="#455A64"/>
<path d="M153.439 99.2908L152.869 94.8957C151.028 94.4382 149.287 93.6618 147.73 92.6036C147.73 92.6036 148.827 94.0309 152.048 95.5421L152.774 99.5301L151.953 112.25L153.439 99.2908Z" fill="#37474F"/>
<path d="M144.824 66.1865C143.658 67.6726 137.659 75.6737 137.659 75.6737L132.118 71.501C130.823 70.5145 130.438 69.2216 129.626 68.3274C128.815 67.4333 127.925 67.2192 127.014 66.472C126.102 65.7248 125.753 65.1581 125.442 65.7961C125.131 66.4342 126.137 67.5466 126.305 67.8153C126.474 68.084 127.515 68.7262 126.141 68.6549C124.768 68.5835 122.125 67.0597 121.486 66.7784C120.847 66.4972 120.829 67.2654 121.132 67.7691C121.434 68.2729 121.283 69.675 121.637 70.5775C121.991 71.48 122.613 72.0342 123.878 72.6428C125.057 73.2138 127.925 73.5706 128.858 74.1415C130.905 76.1816 134.766 79.9891 135.742 80.6943C137.085 81.6641 138.385 82.5582 140.44 80.6356C142.496 78.713 148.451 71.1694 148.451 71.1694L149.682 63.9952C147.661 63.9239 146.231 64.394 144.824 66.1865Z" fill="#B16668"/>
<path d="M137.659 75.6736C138.419 76.2193 139.209 77.4451 139.283 77.995C139.274 77.474 139.154 76.9603 138.931 76.4864C138.708 76.0125 138.387 75.5886 137.987 75.2412L137.659 75.6736Z" fill="#9A4A4D"/>
<path d="M150.157 63.8188C150.157 63.8188 147.307 63.7852 146.054 64.6374C144.802 65.4895 143.873 66.7363 141.839 69.6118C140.056 72.1306 139.192 73.3395 139.192 73.3395C140.36 75.0183 142.06 76.2802 144.033 76.9329L149.354 70.527L150.157 63.8188Z" fill="#37474F"/>
<path d="M155.672 63.6846C157.287 63.8358 159.558 63.8526 161.156 64.0121C162.266 64.4571 164.408 66.2705 164.248 67.5635C163.653 72.3952 162.448 80.3166 162.448 80.3166L162.845 88.7123C160.621 90.87 150.213 91.7138 144.849 88.2631C144.849 88.2631 145.022 73.1844 145.394 70.6321C146.054 66.0606 146.633 64.3647 149.06 63.9617C151.487 63.5587 155.672 63.6846 155.672 63.6846Z" fill="#46A3DB"/>
<path d="M164.819 66.3081C165.985 67.7942 171.987 75.7953 171.987 75.7953L177.532 71.6226C178.828 70.6319 179.212 69.339 180.024 68.449C180.836 67.5591 181.726 67.3408 182.637 66.5936C183.548 65.8463 183.898 65.2796 184.209 65.9135C184.52 66.5474 183.514 67.6682 183.345 67.9369C183.177 68.2056 182.136 68.8478 183.509 68.7765C184.883 68.7051 187.521 67.1771 188.165 66.8958C188.808 66.6146 188.817 67.3828 188.519 67.8865C188.221 68.3903 188.363 69.7965 188.014 70.6991C187.664 71.6016 187.038 72.1515 185.772 72.7644C184.593 73.3353 181.726 73.6922 180.793 74.2631C178.746 76.299 174.885 80.1107 173.909 80.8117C172.566 81.7814 171.266 82.6756 169.211 80.7572C167.155 78.8387 162.456 72.8652 162.456 72.8652L159.969 64.1168C161.986 64.0455 163.415 64.5156 164.819 66.3081Z" fill="#B16668"/>
<path d="M171.987 75.7952C171.227 76.3409 170.437 77.5667 170.364 78.1166C170.372 77.5949 170.491 77.0804 170.714 76.6058C170.937 76.1311 171.259 75.7065 171.659 75.3586L171.987 75.7952Z" fill="#9A4A4D"/>
<path d="M159.684 63.907C159.684 63.907 162.245 63.7517 163.592 64.7466C164.806 65.6533 165.751 66.8455 167.807 69.721C169.591 72.2397 170.454 73.4487 170.454 73.4487C169.284 75.1269 167.583 76.3885 165.609 77.0421L161.986 72.7015C160.098 70.3759 158.228 66.8371 159.684 63.907Z" fill="#37474F"/>
<path d="M156.073 52.3166C156.082 53.2797 155.796 54.2235 155.253 55.0289C154.71 55.8342 153.933 56.4649 153.021 56.8411C152.109 57.2173 151.102 57.3221 150.129 57.1424C149.156 56.9626 148.259 56.5063 147.552 55.8312C146.846 55.1561 146.361 54.2925 146.159 53.3496C145.958 52.4067 146.048 51.4268 146.419 50.5339C146.791 49.6409 147.426 48.8751 148.245 48.3331C149.064 47.7911 150.03 47.4974 151.021 47.4891C151.679 47.4835 152.331 47.604 152.941 47.8436C153.551 48.0832 154.106 48.4373 154.576 48.8856C155.045 49.3339 155.419 49.8676 155.676 50.4563C155.933 51.045 156.068 51.6771 156.073 52.3166Z" fill="#263238"/>
<path d="M159.757 55.7506C159.757 55.7506 158.975 59.4657 158.656 60.0744C158.443 60.4524 158.089 60.7365 157.667 60.8678L157.697 58.2567L159.757 55.7506Z" fill="#263238"/>
<path d="M158.69 50.4486C158.974 50.4133 159.261 50.4415 159.532 50.531C159.802 50.6205 160.047 50.7689 160.249 50.965C160.923 51.624 160.569 53.7062 159.757 55.7505L158.228 55.9352L158.69 50.4486Z" fill="#263238"/>
<path d="M157.771 55.9395C158.077 56.1158 158.509 55.5197 158.885 55.1503C159.261 54.7809 160.487 54.2267 161.118 55.4819C161.748 56.7371 160.599 58.4708 159.632 58.773C157.961 59.302 157.697 58.2567 157.697 58.2567L157.628 64.31C155.572 66.9253 149.79 66.7532 152.174 64.0245V62.2363C151.429 62.3576 150.673 62.4012 149.919 62.3664C148.684 62.1943 147.903 61.254 147.514 59.961C146.896 57.8873 146.65 56.2081 147.125 52.1068C147.644 47.6151 153.012 47.5227 155.927 49.2733C158.842 51.0238 157.771 55.9395 157.771 55.9395Z" fill="#B16668"/>
<path d="M157.775 56.4389C157.926 56.4389 158.505 55.4901 158.885 55.1501C159.407 54.6758 158.69 50.4485 158.69 50.4485C158.87 50.0734 158.929 49.6544 158.859 49.2463C158.79 48.8381 158.596 48.4598 158.302 48.1607C157.572 47.3925 156.553 46.4563 153.271 46.8593C150.926 47.149 148.382 47.8836 146.313 46.9181C146.129 47.5727 146.15 48.2658 146.373 48.9089C146.596 49.5519 147.011 50.1157 147.566 50.5283C147.566 50.5283 148.317 50.99 150.282 51.2041C152.094 51.32 153.913 51.2708 155.715 51.0572C156.285 50.9774 156.41 51.5106 156.73 52.9756C157.01 54.256 157.257 56.4347 157.775 56.4389Z" fill="#263238"/>
<path d="M158.69 50.776L160.535 49.7937C160.475 49.6724 160.39 49.5642 160.286 49.4757C160.181 49.3873 160.06 49.3204 159.928 49.2792C159.796 49.2379 159.657 49.2232 159.52 49.2359C159.382 49.2485 159.248 49.2884 159.127 49.3529C158.88 49.49 158.696 49.7144 158.615 49.9794C158.534 50.2445 158.561 50.5298 158.69 50.776Z" fill="#263238"/>
<path d="M152.161 62.2363C152.161 62.2363 154.907 61.6738 155.862 61.1701C156.424 60.8794 156.884 60.4301 157.179 59.8813C157.04 60.4282 156.788 60.9421 156.441 61.3926C155.745 62.2741 152.169 62.9458 152.169 62.9458L152.161 62.2363Z" fill="#9A4A4D"/>
<path d="M151.941 55.5113C151.939 55.5827 151.953 55.6537 151.98 55.7201C152.007 55.7865 152.048 55.847 152.099 55.8981C152.15 55.9493 152.212 55.99 152.279 56.018C152.347 56.046 152.42 56.0606 152.493 56.0612C152.608 56.0654 152.722 56.036 152.819 55.9769C152.916 55.9178 152.993 55.8316 153.04 55.7295C153.086 55.6274 153.1 55.5141 153.08 55.4043C153.06 55.2944 153.006 55.1929 152.926 55.1131C152.845 55.0332 152.742 54.9786 152.63 54.9562C152.517 54.9339 152.4 54.9449 152.294 54.9877C152.188 55.0306 152.098 55.1034 152.035 55.1967C151.972 55.2901 151.939 55.3996 151.941 55.5113Z" fill="#263238"/>
<path d="M153.577 53.6684L152.351 53.1268C152.28 53.2899 152.276 53.4734 152.34 53.6391C152.404 53.8049 152.532 53.9401 152.696 54.0168C152.777 54.0517 152.865 54.0704 152.954 54.0717C153.043 54.0731 153.131 54.057 153.213 54.0245C153.295 53.9919 153.37 53.9437 153.432 53.8825C153.495 53.8213 153.544 53.7485 153.577 53.6684Z" fill="#263238"/>
<path d="M148.33 53.0093L147.264 53.8237C147.314 53.8943 147.379 53.954 147.454 53.9992C147.529 54.0444 147.613 54.074 147.701 54.0862C147.788 54.0984 147.877 54.093 147.963 54.0702C148.048 54.0474 148.128 54.0078 148.196 53.9538C148.338 53.8424 148.431 53.6827 148.455 53.5073C148.48 53.3318 148.436 53.1538 148.33 53.0093Z" fill="#263238"/>
<path d="M147.687 55.3811C147.692 55.4813 147.727 55.5779 147.788 55.6588C147.849 55.7398 147.933 55.8015 148.03 55.8363C148.127 55.8711 148.232 55.8774 148.333 55.8546C148.433 55.8317 148.525 55.7806 148.596 55.7077C148.667 55.6348 148.714 55.5432 148.732 55.4443C148.75 55.3454 148.737 55.2437 148.696 55.1516C148.655 55.0596 148.587 54.9813 148.5 54.9266C148.414 54.8719 148.313 54.8431 148.209 54.8438C148.139 54.8454 148.069 54.8606 148.004 54.8886C147.94 54.9165 147.881 54.9566 147.833 55.0066C147.784 55.0565 147.746 55.1153 147.721 55.1796C147.696 55.2439 147.684 55.3124 147.687 55.3811Z" fill="#263238"/>
<path d="M150.546 54.9489L150.235 58.1602L148.529 57.5221L150.546 54.9489Z" fill="#9A4A4D"/>
<path d="M151.483 59.3648C151.482 59.4671 151.512 59.5673 151.57 59.6528C151.628 59.7383 151.711 59.8051 151.808 59.8448C151.905 59.8845 152.012 59.8954 152.115 59.8759C152.218 59.8565 152.313 59.8076 152.388 59.7356C152.463 59.6635 152.514 59.5716 152.535 59.4713C152.555 59.371 152.545 59.267 152.505 59.1724C152.465 59.0778 152.397 58.9969 152.31 58.94C152.222 58.883 152.119 58.8527 152.014 58.8527C151.874 58.8527 151.739 58.9065 151.64 59.0024C151.54 59.0983 151.484 59.2286 151.483 59.3648Z" fill="#9A4A4D"/>
<path d="M164.965 25.1648C165.789 25.3431 166.583 25.6328 167.323 26.0254C168.032 26.396 168.666 26.8864 169.198 27.4736C169.709 28.0426 170.086 28.713 170.303 29.4382C170.53 30.207 170.548 31.02 170.355 31.7974C170.227 32.4146 169.975 33.001 169.612 33.5228C169.287 33.9717 168.895 34.3719 168.45 34.7108C168.015 35.0391 167.551 35.3298 167.064 35.5797L165.691 36.285C165.277 36.4953 164.883 36.7426 164.516 37.0238C164.185 37.2684 163.93 37.5985 163.782 37.9767C163.708 38.1453 163.586 38.2906 163.432 38.3965C163.358 38.4515 163.272 38.4895 163.181 38.5076C163.09 38.5258 162.996 38.5237 162.905 38.5014L160.884 38.0816C160.787 38.0618 160.695 38.0233 160.614 37.9685C160.532 37.9138 160.463 37.8438 160.409 37.7626C160.353 37.6866 160.315 37.5987 160.3 37.5061C160.285 37.4135 160.293 37.3187 160.323 37.2295C160.491 36.6188 160.785 36.0476 161.187 35.5503C161.548 35.1115 161.966 34.7193 162.43 34.3833C162.878 34.0646 163.354 33.7837 163.851 33.5438C164.343 33.3045 164.801 33.0736 165.224 32.8469C165.611 32.6482 165.975 32.4089 166.308 32.1333C166.599 31.8953 166.801 31.5706 166.883 31.2097C166.957 30.8946 166.952 30.5665 166.868 30.2536C166.784 29.9407 166.623 29.6523 166.399 29.4131C165.841 28.8199 165.094 28.4253 164.279 28.2922C162.77 27.9648 161.495 28.4587 160.452 29.7741C160.352 29.9181 160.225 30.0421 160.077 30.1393C159.997 30.179 159.909 30.2027 159.819 30.2092C159.73 30.2157 159.639 30.2048 159.554 30.1771L157.395 29.7111C157.319 29.6969 157.246 29.668 157.182 29.6262C157.117 29.5844 157.062 29.5305 157.019 29.4676C156.972 29.4033 156.94 29.3297 156.926 29.252C156.912 29.1743 156.916 29.0946 156.937 29.0185C157.119 28.3733 157.46 27.781 157.93 27.2931C158.459 26.7262 159.086 26.2544 159.783 25.8995C160.547 25.5096 161.371 25.243 162.223 25.1103C163.132 24.9548 164.064 24.9733 164.965 25.1648ZM162.685 40.084C162.78 40.1037 162.87 40.1422 162.948 40.1971C163.027 40.252 163.093 40.3221 163.143 40.4031C163.196 40.4814 163.232 40.5694 163.249 40.6618C163.266 40.7542 163.264 40.849 163.242 40.9404L162.724 43.2156C162.681 43.3973 162.566 43.5554 162.405 43.6564C162.244 43.7575 162.048 43.7936 161.86 43.7572L159.571 43.266C159.477 43.2464 159.388 43.2083 159.309 43.1542C159.231 43.1001 159.164 43.031 159.114 42.9512C159.06 42.8731 159.023 42.7851 159.006 42.6926C158.989 42.6001 158.992 42.5052 159.014 42.4138L159.533 40.1344C159.576 39.9528 159.69 39.7947 159.852 39.6936C160.013 39.5925 160.208 39.5564 160.396 39.5929L162.685 40.084Z" fill="#46A3DB"/>
<path d="M171.754 46.5698C172.325 46.4783 172.907 46.467 173.482 46.5363C174.034 46.5972 174.571 46.7536 175.067 46.998C175.54 47.2335 175.955 47.5657 176.284 47.9719C176.633 48.4073 176.858 48.9241 176.936 49.4706C177.026 49.8957 177.026 50.3341 176.936 50.7593C176.847 51.1292 176.701 51.4843 176.505 51.813C176.312 52.1298 176.093 52.4303 175.848 52.7113L175.153 53.5089C174.944 53.7475 174.756 54.0031 174.591 54.2729C174.445 54.5128 174.37 54.7875 174.376 55.0663C174.375 55.1973 174.336 55.3254 174.263 55.4357C174.23 55.4885 174.186 55.5336 174.133 55.5677C174.08 55.6018 174.02 55.6241 173.957 55.633L172.544 55.8597C172.408 55.8806 172.269 55.8489 172.156 55.7716C172.1 55.7364 172.054 55.6893 172.02 55.634C171.987 55.5787 171.967 55.5166 171.961 55.4525C171.902 55.0223 171.936 54.5848 172.061 54.168C172.173 53.7939 172.337 53.4366 172.549 53.1059C172.751 52.7893 172.981 52.4902 173.235 52.2118C173.49 51.9347 173.719 51.6744 173.935 51.4226C174.13 51.1987 174.299 50.9553 174.44 50.6963C174.564 50.4715 174.608 50.2133 174.566 49.9617C174.53 49.7406 174.441 49.531 174.304 49.3511C174.167 49.1712 173.987 49.0264 173.78 48.929C173.268 48.686 172.686 48.618 172.13 48.7359C171.626 48.8081 171.158 49.0294 170.789 49.3697C170.419 49.71 170.167 50.1527 170.066 50.6376C170.038 50.756 169.988 50.8684 169.919 50.9692C169.835 51.0585 169.719 51.1127 169.595 51.1203L168.092 51.3596C167.985 51.3767 167.876 51.3542 167.785 51.2966C167.738 51.2669 167.698 51.2274 167.668 51.181C167.638 51.1346 167.619 51.0823 167.613 51.028C167.56 50.5694 167.624 50.1054 167.798 49.6763C167.986 49.18 168.264 48.7207 168.619 48.3203C169.006 47.8809 169.464 47.5053 169.975 47.2079C170.52 46.8849 171.124 46.6682 171.754 46.5698ZM174.22 56.7245C174.286 56.7137 174.354 56.7159 174.419 56.731C174.485 56.7462 174.546 56.7739 174.6 56.8126C174.654 56.8499 174.7 56.8974 174.735 56.9522C174.77 57.007 174.793 57.068 174.803 57.1317L175.071 58.7185C175.082 58.7828 175.08 58.8486 175.064 58.9121C175.048 58.9756 175.02 59.0353 174.98 59.0879C174.942 59.1409 174.894 59.1858 174.837 59.2197C174.781 59.2537 174.718 59.2759 174.652 59.2852L173.054 59.5412C172.989 59.5517 172.922 59.5493 172.857 59.5341C172.792 59.519 172.732 59.4914 172.678 59.4531C172.623 59.4167 172.576 59.3696 172.54 59.3147C172.505 59.2598 172.481 59.1983 172.471 59.134L172.203 57.543C172.183 57.4123 172.218 57.2792 172.299 57.173C172.38 57.0667 172.501 56.996 172.635 56.9763L174.22 56.7245Z" fill="#46A3DB"/>
<g opacity="0.2">
<path d="M171.754 46.5698C172.325 46.4783 172.907 46.467 173.482 46.5363C174.034 46.5972 174.571 46.7536 175.067 46.998C175.54 47.2335 175.955 47.5657 176.284 47.9719C176.633 48.4073 176.858 48.9241 176.936 49.4706C177.026 49.8957 177.026 50.3341 176.936 50.7593C176.847 51.1292 176.701 51.4843 176.505 51.813C176.312 52.1298 176.093 52.4303 175.848 52.7113L175.153 53.5089C174.944 53.7475 174.756 54.0031 174.591 54.2729C174.445 54.5128 174.37 54.7875 174.376 55.0663C174.375 55.1973 174.336 55.3254 174.263 55.4357C174.23 55.4885 174.186 55.5336 174.133 55.5677C174.08 55.6018 174.02 55.6241 173.957 55.633L172.544 55.8597C172.408 55.8806 172.269 55.8489 172.156 55.7716C172.1 55.7364 172.054 55.6893 172.02 55.634C171.987 55.5787 171.967 55.5166 171.961 55.4525C171.902 55.0223 171.936 54.5848 172.061 54.168C172.173 53.7939 172.337 53.4366 172.549 53.1059C172.751 52.7893 172.981 52.4902 173.235 52.2118C173.49 51.9347 173.719 51.6744 173.935 51.4226C174.13 51.1987 174.299 50.9553 174.44 50.6963C174.564 50.4715 174.608 50.2133 174.566 49.9617C174.53 49.7406 174.441 49.531 174.304 49.3511C174.167 49.1712 173.987 49.0264 173.78 48.929C173.268 48.686 172.686 48.618 172.13 48.7359C171.626 48.8081 171.158 49.0294 170.789 49.3697C170.419 49.71 170.167 50.1527 170.066 50.6376C170.038 50.756 169.988 50.8684 169.919 50.9692C169.835 51.0585 169.719 51.1127 169.595 51.1203L168.092 51.3596C167.985 51.3767 167.876 51.3542 167.785 51.2966C167.738 51.2669 167.698 51.2274 167.668 51.181C167.638 51.1346 167.619 51.0823 167.613 51.028C167.56 50.5694 167.624 50.1054 167.798 49.6763C167.986 49.18 168.264 48.7207 168.619 48.3203C169.006 47.8809 169.464 47.5053 169.975 47.2079C170.52 46.8849 171.124 46.6682 171.754 46.5698ZM174.22 56.7245C174.286 56.7137 174.354 56.7159 174.419 56.731C174.485 56.7462 174.546 56.7739 174.6 56.8126C174.654 56.8499 174.7 56.8974 174.735 56.9522C174.77 57.007 174.793 57.068 174.803 57.1317L175.071 58.7185C175.082 58.7828 175.08 58.8486 175.064 58.9121C175.048 58.9756 175.02 59.0353 174.98 59.0879C174.942 59.1409 174.894 59.1858 174.837 59.2197C174.781 59.2537 174.718 59.2759 174.652 59.2852L173.054 59.5412C172.989 59.5517 172.922 59.5493 172.857 59.5341C172.792 59.519 172.732 59.4914 172.678 59.4531C172.623 59.4167 172.576 59.3696 172.54 59.3147C172.505 59.2598 172.481 59.1983 172.471 59.134L172.203 57.543C172.183 57.4123 172.218 57.2792 172.299 57.173C172.38 57.0667 172.501 56.996 172.635 56.9763L174.22 56.7245Z" fill="black"/>
</g>
<path d="M186.481 51.0742C186.609 51.1651 186.695 51.3011 186.722 51.4532C186.749 51.6054 186.713 51.7616 186.623 51.8886L185.483 53.4418C185.389 53.5665 185.249 53.6508 185.093 53.6766C184.937 53.7025 184.776 53.668 184.645 53.5803L183.082 52.5015C183.017 52.4576 182.963 52.4015 182.921 52.3366C182.88 52.2717 182.852 52.1993 182.84 52.1237C182.817 51.9766 182.853 51.8266 182.939 51.7039L184.079 50.1465C184.172 50.0213 184.312 49.9368 184.468 49.9114C184.62 49.8892 184.775 49.9253 184.9 50.0121L186.481 51.0742ZM193.079 40.5418C193.643 40.9284 194.146 41.3921 194.574 41.9187C194.986 42.4197 195.304 42.9884 195.511 43.5978C195.709 44.1803 195.775 44.7974 195.705 45.4071C195.624 46.0563 195.371 46.6739 194.971 47.1996C194.673 47.6246 194.291 47.9884 193.848 48.27C193.454 48.5077 193.026 48.6874 192.578 48.8032C192.144 48.9159 191.7 48.9917 191.253 49.0299L189.983 49.1348C189.604 49.1686 189.228 49.2332 188.86 49.3279C188.531 49.4125 188.232 49.5839 187.996 49.8232C187.883 49.9304 187.743 50.007 187.59 50.0457C187.516 50.0628 187.439 50.0638 187.364 50.0486C187.29 50.0333 187.219 50.0023 187.159 49.9576L185.777 49.0047C185.645 48.9124 185.555 48.7739 185.526 48.6185C185.51 48.5451 185.511 48.4691 185.529 48.3963C185.548 48.3234 185.584 48.2558 185.634 48.1987C185.955 47.789 186.36 47.4476 186.822 47.1954C187.238 46.9738 187.682 46.8072 188.143 46.7C188.586 46.5961 189.036 46.5287 189.491 46.4985C189.922 46.4734 190.354 46.4398 190.752 46.402C191.108 46.3721 191.46 46.3031 191.801 46.1963C192.098 46.1084 192.356 45.9267 192.535 45.68C192.696 45.4662 192.8 45.2175 192.839 44.9556C192.878 44.6937 192.851 44.4265 192.76 44.1771C192.535 43.5585 192.103 43.0309 191.533 42.6785C190.505 41.9648 189.383 41.9411 188.165 42.6071C188.042 42.6834 187.906 42.7374 187.763 42.7666C187.689 42.7718 187.615 42.7625 187.544 42.7395C187.474 42.7164 187.409 42.68 187.353 42.6323L185.885 41.6164C185.778 41.5457 185.703 41.4373 185.677 41.3142C185.665 41.2512 185.666 41.1863 185.682 41.124C185.698 41.0617 185.727 41.0034 185.768 40.9532C186.11 40.5238 186.555 40.1822 187.064 39.9583C187.648 39.6956 188.275 39.5351 188.916 39.4839C189.619 39.4282 190.326 39.4821 191.011 39.6434C191.755 39.8066 192.458 40.112 193.079 40.5418Z" fill="#46A3DB"/>
<g opacity="0.6">
<path d="M186.481 51.0742C186.609 51.1651 186.695 51.3011 186.722 51.4532C186.749 51.6054 186.713 51.7616 186.623 51.8886L185.483 53.4418C185.389 53.5665 185.249 53.6508 185.093 53.6766C184.937 53.7025 184.776 53.668 184.645 53.5803L183.082 52.5015C183.017 52.4576 182.963 52.4015 182.921 52.3366C182.88 52.2717 182.852 52.1993 182.84 52.1237C182.817 51.9766 182.853 51.8266 182.939 51.7039L184.079 50.1465C184.172 50.0213 184.312 49.9368 184.468 49.9114C184.62 49.8892 184.775 49.9253 184.9 50.0121L186.481 51.0742ZM193.079 40.5418C193.643 40.9284 194.146 41.3921 194.574 41.9187C194.986 42.4197 195.304 42.9884 195.511 43.5978C195.709 44.1803 195.775 44.7974 195.705 45.4071C195.624 46.0563 195.371 46.6739 194.971 47.1996C194.673 47.6246 194.291 47.9884 193.848 48.27C193.454 48.5077 193.026 48.6874 192.578 48.8032C192.144 48.9159 191.7 48.9917 191.253 49.0299L189.983 49.1348C189.604 49.1686 189.228 49.2332 188.86 49.3279C188.531 49.4125 188.232 49.5839 187.996 49.8232C187.883 49.9304 187.743 50.007 187.59 50.0457C187.516 50.0628 187.439 50.0638 187.364 50.0486C187.29 50.0333 187.219 50.0023 187.159 49.9576L185.777 49.0047C185.645 48.9124 185.555 48.7739 185.526 48.6185C185.51 48.5451 185.511 48.4691 185.529 48.3963C185.548 48.3234 185.584 48.2558 185.634 48.1987C185.955 47.789 186.36 47.4476 186.822 47.1954C187.238 46.9738 187.682 46.8072 188.143 46.7C188.586 46.5961 189.036 46.5287 189.491 46.4985C189.922 46.4734 190.354 46.4398 190.752 46.402C191.108 46.3721 191.46 46.3031 191.801 46.1963C192.098 46.1084 192.356 45.9267 192.535 45.68C192.696 45.4662 192.8 45.2175 192.839 44.9556C192.878 44.6937 192.851 44.4265 192.76 44.1771C192.535 43.5585 192.103 43.0309 191.533 42.6785C190.505 41.9648 189.383 41.9411 188.165 42.6071C188.042 42.6834 187.906 42.7374 187.763 42.7666C187.689 42.7718 187.615 42.7625 187.544 42.7395C187.474 42.7164 187.409 42.68 187.353 42.6323L185.885 41.6164C185.778 41.5457 185.703 41.4373 185.677 41.3142C185.665 41.2512 185.666 41.1863 185.682 41.124C185.698 41.0617 185.727 41.0034 185.768 40.9532C186.11 40.5238 186.555 40.1822 187.064 39.9583C187.648 39.6956 188.275 39.5351 188.916 39.4839C189.619 39.4282 190.326 39.4821 191.011 39.6434C191.755 39.8066 192.458 40.112 193.079 40.5418Z" fill="white"/>
</g>
<path d="M47.3187 134.183C47.2755 132.924 48.2083 120.616 48.2083 120.616L42.0414 124.965C43.3067 132.303 43.5788 134.037 43.6004 135.237C43.5743 135.337 43.5627 135.44 43.5658 135.544C43.5658 136.971 45.2285 137.739 46.5198 138.692C47.6173 139.526 48.7861 140.268 50.0135 140.908C50.9506 141.366 52.8594 141.408 53.0926 140.82C51.5207 139.653 49.2361 137.907 47.9837 136.576C47.3878 135.938 47.3662 135.434 47.3187 134.183Z" fill="#FFA8A7"/>
<path d="M55.7745 142.361C55.8444 142.557 55.8568 142.768 55.8103 142.97C55.7637 143.172 55.6601 143.358 55.511 143.507C54.3785 144.301 52.9688 144.627 51.5898 144.413C49.6291 144.166 48.5668 143.624 47.7851 142.986C47.0034 142.348 45.9022 141.45 45.0126 141.261C44.3053 141.13 43.6326 140.861 43.0347 140.472C42.7712 140.224 42.8058 139.124 42.8058 139.124L55.7745 142.361Z" fill="#263238"/>
<path d="M43.5874 134.889C43.5148 134.891 43.4453 134.917 43.3908 134.964C43.3364 135.011 43.3005 135.075 43.2895 135.145C43.229 135.447 43.1642 136.328 43.0347 136.824C42.8342 137.699 42.7702 138.599 42.8446 139.494C42.9526 140.06 44.2914 140.451 45.1508 140.753C46.1614 141.181 47.0992 141.755 47.9319 142.457C49.1337 143.331 50.5681 143.851 52.0648 143.956C53.5763 143.956 55.2778 143.469 55.6708 142.789C56.1502 141.949 55.7745 141.458 53.5331 140.447C53.1013 140.258 51.62 139.397 51.1104 139.086C49.7371 138.247 48.3768 137.076 47.7419 135.59C47.6907 135.408 47.5782 135.248 47.4223 135.136C47.2863 135.079 47.1354 135.065 46.9905 135.094C46.6162 135.147 46.2522 135.255 45.9108 135.413C45.6129 135.552 45.1853 135.716 45.1896 136.089C45.1988 136.219 45.2279 136.346 45.276 136.467C45.3019 136.547 45.3235 136.647 45.276 136.694C45.2285 136.74 45.1249 136.694 45.0644 136.635C44.8446 136.416 44.6438 136.18 44.4641 135.93C44.3579 135.801 44.2378 135.684 44.1057 135.581C43.9735 135.508 43.8466 135.427 43.7256 135.338C43.5615 135.224 43.5961 135.065 43.5874 134.889Z" fill="#455A64"/>
<path d="M47.9319 142.478C47.5389 142.168 47.1243 141.861 46.7097 141.593C46.7097 141.593 49.3441 143.15 50.4065 142.432C50.6036 142.311 50.7478 142.123 50.8116 141.904C50.8753 141.686 50.8541 141.453 50.7519 141.249C50.7519 141.072 52.4275 140.312 53.0926 140.237C53.2783 140.338 53.4338 140.417 53.5245 140.459C55.7658 141.471 56.1415 141.958 55.6622 142.802C55.2692 143.482 54.0384 144.015 52.0864 144.015C50.8167 144.04 48.8388 143.201 47.9319 142.478Z" fill="#37474F"/>
<path d="M50.5663 140.741C51.9612 141.282 51.3652 141.534 50.9765 141.58C50.5879 141.626 48.2429 140.321 46.8091 139.204C45.3753 138.088 44.3777 136.799 43.825 136.379C43.6177 136.224 43.3931 136.031 43.1945 135.85C43.2333 135.552 43.2636 135.279 43.2895 135.136C43.3005 135.067 43.3364 135.003 43.3908 134.956C43.4453 134.909 43.5148 134.882 43.5874 134.88C43.5874 135.057 43.5615 135.22 43.6997 135.351C43.8207 135.44 43.9476 135.521 44.0798 135.594C44.2118 135.697 44.332 135.814 44.4382 135.942C44.6179 136.193 44.8187 136.429 45.0385 136.648C46.5925 138.346 48.4695 139.735 50.5663 140.741Z" fill="#263238"/>
<path d="M50.8772 141.391C50.8453 141.39 50.8148 141.378 50.7908 141.357C50.7768 141.347 50.7651 141.334 50.7564 141.318C50.7476 141.303 50.7421 141.287 50.7401 141.27C50.7381 141.252 50.7396 141.235 50.7446 141.218C50.7496 141.202 50.758 141.186 50.7692 141.173C51.0977 140.841 51.4955 140.582 51.9358 140.413C52.376 140.243 52.8486 140.167 53.3215 140.19C53.3586 140.195 53.3925 140.213 53.4159 140.241C53.4393 140.269 53.4504 140.305 53.4468 140.342C53.4424 140.377 53.4242 140.408 53.3959 140.43C53.3676 140.452 53.3316 140.463 53.2956 140.459C52.8686 140.442 52.4426 140.511 52.0448 140.663C51.647 140.815 51.2861 141.046 50.9852 141.341C50.972 141.356 50.9555 141.369 50.9369 141.377C50.9182 141.386 50.8979 141.391 50.8772 141.391Z" fill="#F5F5F5"/>
<path d="M49.6637 140.682C49.6308 140.683 49.5985 140.673 49.573 140.652C49.5484 140.627 49.5348 140.593 49.5348 140.558C49.5348 140.523 49.5484 140.489 49.573 140.463C49.9022 140.133 50.3002 139.875 50.7404 139.706C51.1806 139.537 51.6528 139.462 52.1253 139.485C52.162 139.489 52.1955 139.507 52.2186 139.535C52.2417 139.563 52.2524 139.599 52.2484 139.634C52.2444 139.67 52.226 139.703 52.1972 139.725C52.1685 139.747 52.1317 139.758 52.0951 139.754C51.668 139.736 51.2417 139.805 50.8437 139.957C50.4457 140.108 50.0849 140.34 49.7846 140.636C49.7699 140.652 49.7512 140.665 49.7301 140.673C49.709 140.681 49.6862 140.684 49.6637 140.682Z" fill="#F5F5F5"/>
<path d="M48.4458 139.972C48.4144 139.972 48.3838 139.962 48.3594 139.943C48.3339 139.918 48.3195 139.884 48.3195 139.848C48.3195 139.813 48.3339 139.779 48.3594 139.754C48.6888 139.424 49.0868 139.166 49.527 138.997C49.9671 138.828 50.4392 138.753 50.9117 138.776C50.9299 138.777 50.9476 138.782 50.9637 138.791C50.9799 138.799 50.9942 138.81 51.0058 138.824C51.0175 138.837 51.0262 138.853 51.0316 138.87C51.0369 138.887 51.0387 138.905 51.037 138.923C51.0353 138.94 51.0301 138.957 51.0216 138.973C51.0132 138.989 51.0015 139.003 50.9875 139.014C50.9734 139.025 50.9572 139.034 50.9398 139.039C50.9223 139.044 50.904 139.046 50.8858 139.044C50.4587 139.026 50.0324 139.095 49.6344 139.247C49.2365 139.399 48.8757 139.63 48.5754 139.926C48.5593 139.943 48.5391 139.957 48.5165 139.965C48.4939 139.973 48.4697 139.975 48.4458 139.972Z" fill="#F5F5F5"/>
<path d="M47.3188 139.187C47.2873 139.188 47.2567 139.177 47.2324 139.158C47.2192 139.146 47.2087 139.131 47.2015 139.115C47.1943 139.099 47.1906 139.081 47.1906 139.063C47.1906 139.046 47.1943 139.028 47.2015 139.012C47.2087 138.996 47.2192 138.981 47.2324 138.969C47.5612 138.638 47.9592 138.38 48.3995 138.211C48.8397 138.042 49.3121 137.967 49.7847 137.991C49.8206 137.995 49.8534 138.013 49.876 138.04C49.8986 138.068 49.9093 138.103 49.9056 138.138C49.9013 138.173 49.883 138.205 49.8547 138.227C49.8265 138.249 49.7905 138.259 49.7544 138.255C49.3275 138.239 48.9018 138.309 48.5041 138.46C48.1064 138.612 47.7454 138.843 47.444 139.137C47.4293 139.155 47.4101 139.169 47.3882 139.178C47.3662 139.187 47.3423 139.19 47.3188 139.187Z" fill="#F5F5F5"/>
<path d="M46.2175 138.402C46.1864 138.401 46.1563 138.391 46.1311 138.373C46.1055 138.348 46.0912 138.314 46.0912 138.278C46.0912 138.243 46.1055 138.209 46.1311 138.184C46.4872 137.824 46.9233 137.547 47.406 137.375C47.8887 137.204 48.4054 137.141 48.9166 137.193C48.9349 137.194 48.9527 137.199 48.969 137.207C48.9852 137.215 48.9996 137.226 49.011 137.24C49.0224 137.254 49.0307 137.27 49.0352 137.287C49.0398 137.305 49.0406 137.323 49.0375 137.34C49.0332 137.375 49.0149 137.407 48.9867 137.429C48.9584 137.451 48.9224 137.461 48.8864 137.458C48.4217 137.413 47.9526 137.47 47.5133 137.624C47.074 137.778 46.6756 138.025 46.347 138.348C46.3319 138.367 46.3121 138.382 46.2895 138.391C46.2668 138.401 46.2421 138.404 46.2175 138.402Z" fill="#F5F5F5"/>
<path d="M35.7017 126.22L29.4786 126.111C29.5693 130.149 30.2301 134.628 30.3424 138.415C30.3424 139.129 30.3424 143.956 30.6015 145.425C31.0333 147.629 33.7108 147.331 33.8534 146.013C33.9959 144.695 33.6806 139.057 33.6893 138.457C33.6633 136.031 34.8337 131.929 35.4512 127.568C35.4771 127.37 35.6715 126.43 35.7017 126.22Z" fill="#FFA8A7"/>
<path d="M34.8639 146.928C34.9795 147.938 34.831 148.961 34.4321 149.9C34.2346 150.273 33.9159 150.573 33.5255 150.752C33.135 150.931 32.6947 150.98 32.2728 150.891C31.3529 150.761 30.1394 150.282 29.768 149.212C29.4163 148.226 29.2925 147.177 29.4052 146.139L34.8639 146.928Z" fill="#263238"/>
<path d="M30.3251 137.953C29.958 138.016 30.0271 139.758 29.9926 141.509C29.9537 143.389 29.4657 144.212 29.4182 145.753C29.362 147.516 29.5391 148.271 30.2819 149.271C31.0247 150.27 33.3438 151.076 34.2809 149.464C35.0453 148.15 34.9417 146.785 34.6782 145.056C34.4148 143.326 34.2075 142.017 34.1384 140.648C34.0693 139.28 34.0391 138.066 33.7065 137.953C33.7065 138.146 33.7065 138.394 33.7065 138.583C33.7065 138.772 33.7368 139.422 33.5295 139.464C33.4975 139.302 33.4787 139.138 33.4733 138.973C33.4829 138.821 33.4319 138.67 33.3308 138.553C33.2059 138.464 33.0542 138.417 32.899 138.419C32.529 138.379 32.157 138.359 31.7848 138.36C31.5991 138.36 31.4091 138.36 31.2277 138.39C31.0681 138.402 30.9118 138.44 30.7656 138.503C30.7225 138.521 30.6838 138.547 30.6518 138.581C30.6198 138.614 30.5953 138.653 30.5799 138.696C30.5669 138.763 30.5669 138.831 30.5799 138.898C30.595 139.018 30.595 139.139 30.5799 139.259C30.5799 139.313 30.541 139.38 30.4849 139.372C30.4287 139.364 30.4201 139.313 30.4158 139.271C30.3899 139.061 30.4158 138.906 30.3899 138.663C30.3899 138.549 30.3899 138.394 30.3899 138.281C30.3899 138.167 30.3294 138.066 30.3251 137.953Z" fill="#455A64"/>
<path d="M29.4484 145.249C29.4484 145.505 29.3923 147.188 29.8803 147.44C30.3683 147.692 30.5583 146.382 30.5583 146.382C30.5583 146.382 31.7027 145.916 33.4993 146.479C33.4388 146.756 33.7929 147.621 34.2464 147.386C34.6998 147.151 34.6782 145.232 34.6782 145.207C34.9244 146.886 35.0021 148.188 34.2464 149.464C33.3092 151.076 30.9815 150.261 30.2474 149.271C29.5132 148.28 29.3361 147.516 29.3836 145.753C29.4052 145.576 29.4355 145.413 29.4484 145.249Z" fill="#37474F"/>
<path d="M30.7008 146.479C30.757 147.109 30.1006 146.962 29.9796 146.059C29.8587 145.157 30.1437 143.02 29.9796 141.492C30.0142 139.741 29.9451 137.999 30.3122 137.936C30.31 137.957 30.31 137.978 30.3122 137.999L30.3554 138.885C30.3468 139.011 30.3468 139.137 30.3554 139.263C30.4763 140.547 30.5497 143.041 30.554 144.225C30.5616 144.978 30.6106 145.731 30.7008 146.479Z" fill="#263238"/>
<path d="M33.292 146.479C33.3766 145.736 33.4184 144.989 33.4172 144.242C33.4172 143.066 33.4949 140.602 33.6159 139.309C33.6627 139.07 33.6815 138.826 33.672 138.583C33.672 138.406 33.672 138.163 33.672 137.995C33.672 137.995 33.672 137.97 33.672 137.953C33.9138 138.041 34.0002 138.734 34.052 139.607C34.052 140.115 34.052 140.745 34.0045 141.509C33.8404 143.037 34.1254 145.203 34.0045 146.089C33.8836 146.974 33.2488 147.109 33.292 146.479Z" fill="#263238"/>
<path d="M33.5468 146.525H33.4993C32.5661 146.212 31.5519 146.212 30.6188 146.525C30.6018 146.531 30.5836 146.534 30.5654 146.534C30.5472 146.534 30.5293 146.53 30.5126 146.522C30.496 146.515 30.481 146.505 30.4684 146.492C30.4559 146.479 30.4461 146.464 30.4396 146.447C30.433 146.431 30.4299 146.413 30.4304 146.396C30.4309 146.378 30.435 146.36 30.4424 146.344C30.4498 146.328 30.4604 146.313 30.4736 146.301C30.4869 146.289 30.5024 146.28 30.5194 146.273C31.515 145.928 32.603 145.928 33.5986 146.273C33.6156 146.279 33.6311 146.289 33.6443 146.301C33.6575 146.313 33.668 146.327 33.6753 146.343C33.6825 146.359 33.6864 146.377 33.6865 146.394C33.6867 146.412 33.6833 146.429 33.6763 146.445C33.6657 146.47 33.6476 146.491 33.6245 146.505C33.6013 146.519 33.5742 146.526 33.5468 146.525Z" fill="#F5F5F5"/>
<path d="M33.7238 145.132C33.7082 145.135 33.6919 145.135 33.6763 145.132C32.6271 144.815 31.5038 144.815 30.4547 145.132C30.4374 145.137 30.419 145.14 30.4007 145.139C30.3824 145.138 30.3645 145.133 30.348 145.126C30.3316 145.118 30.3168 145.107 30.3047 145.093C30.2926 145.08 30.2834 145.064 30.2776 145.048C30.2715 145.031 30.269 145.014 30.2701 144.996C30.2712 144.979 30.2759 144.961 30.284 144.946C30.292 144.93 30.3033 144.916 30.317 144.905C30.3308 144.893 30.3467 144.885 30.364 144.88C31.4723 144.537 32.663 144.537 33.7713 144.88C33.8017 144.891 33.8271 144.912 33.8432 144.939C33.8592 144.966 33.865 144.998 33.8593 145.029C33.8536 145.06 33.837 145.088 33.8122 145.108C33.7875 145.129 33.7562 145.14 33.7238 145.14V145.132Z" fill="#F5F5F5"/>
<path d="M30.3985 143.813C30.3721 143.813 30.3463 143.805 30.3242 143.791C30.3021 143.777 30.2845 143.757 30.2732 143.733C30.2586 143.701 30.2577 143.665 30.2706 143.632C30.2835 143.599 30.3093 143.572 30.3423 143.557C31.4333 143.14 32.6448 143.133 33.7411 143.536C33.758 143.542 33.7736 143.551 33.7868 143.564C33.7999 143.576 33.8105 143.59 33.8177 143.606C33.825 143.622 33.8288 143.64 33.829 143.657C33.8292 143.675 33.8257 143.692 33.8188 143.708C33.8053 143.741 33.7792 143.767 33.7461 143.781C33.713 143.795 33.6755 143.796 33.6417 143.784C33.6417 143.784 31.9489 143.137 30.4589 143.784C30.4413 143.798 30.4207 143.808 30.3985 143.813Z" fill="#F5F5F5"/>
<path d="M30.3682 142.579C30.3422 142.579 30.3165 142.572 30.2944 142.559C30.2722 142.546 30.2544 142.526 30.243 142.504C30.2281 142.472 30.2265 142.436 30.2386 142.403C30.2507 142.37 30.2755 142.343 30.3078 142.327C30.8492 142.088 31.4362 141.96 32.0311 141.954C32.626 141.947 33.2158 142.062 33.7626 142.29C33.779 142.297 33.7937 142.307 33.8059 142.32C33.8181 142.333 33.8275 142.348 33.8335 142.364C33.8396 142.381 33.8421 142.398 33.8411 142.416C33.84 142.433 33.8354 142.45 33.8274 142.466C33.82 142.482 33.8094 142.496 33.7962 142.508C33.7829 142.52 33.7674 142.529 33.7505 142.535C33.7335 142.541 33.7156 142.543 33.6976 142.542C33.6797 142.541 33.6621 142.537 33.646 142.529C33.133 142.322 32.5822 142.219 32.0269 142.226C31.4716 142.232 30.9235 142.348 30.4157 142.567C30.4007 142.573 30.3847 142.578 30.3682 142.579Z" fill="#F5F5F5"/>
<path d="M30.3381 141.198C30.3065 141.198 30.2756 141.188 30.2507 141.169C30.2258 141.15 30.2084 141.124 30.2013 141.094C30.1942 141.064 30.198 141.032 30.2118 141.005C30.2257 140.977 30.2489 140.955 30.2776 140.942C31.923 140.153 33.6979 140.908 33.7714 140.942C33.7885 140.948 33.8041 140.958 33.8171 140.971C33.8301 140.983 33.8402 140.998 33.8468 141.015C33.8533 141.032 33.8561 141.049 33.855 141.067C33.8539 141.085 33.849 141.102 33.8404 141.118C33.8254 141.15 33.7979 141.175 33.7639 141.188C33.73 141.201 33.6923 141.2 33.6591 141.185C33.6591 141.185 31.9316 140.451 30.4029 141.185C30.3829 141.195 30.3605 141.2 30.3381 141.198Z" fill="#F5F5F5"/>
<path d="M31.5256 86.9491C29.3318 92.8555 29.7161 96.5622 30.0918 102.754C30.4373 108.43 30.9858 113.429 30.9858 113.429C30.8994 114.437 29.457 116.401 29.2583 120.851C29.1947 123.984 29.3389 127.118 29.6902 130.233C29.6902 130.233 32.5621 131.253 34.9891 130.233C34.9891 130.233 37.4723 119.575 38.1503 114.365C38.7376 109.819 39.7654 104.009 39.7654 104.009L41.9247 114.344C41.5027 115.733 41.286 117.174 41.2813 118.622C41.2813 121.053 42.443 127.811 42.443 127.811C42.443 127.811 45.6603 128.823 47.6987 127.064C47.6987 127.064 48.5062 117.337 48.7913 113.631C49.1713 108.686 48.6185 95.1307 47.3964 88.1917L31.5256 86.9491Z" fill="#455A64"/>
<path d="M39.7914 103.992L40.6897 96.218C40.6897 96.218 44.7103 95.6974 46.5327 94.0309C46.0099 94.8257 45.3131 95.4986 44.4919 96.0014C43.6708 96.5043 42.7455 96.8248 41.7823 96.94L40.4867 104.177L41.955 114.328L39.7914 103.992Z" fill="#37474F"/>
<path d="M49.7328 81.1854C47.7765 79.2292 44.2439 74.8046 44.2439 74.8046L42.2487 68.088C42.6947 68.1106 43.1415 68.1106 43.5875 68.088C45.7468 68.2266 46.3816 68.4071 47.7247 69.8344C48.7914 70.972 52.8595 76.3704 54.2716 78.1881L58.0245 73.5411C58.9271 72.2187 58.7802 70.7369 59.2467 69.658C59.7131 68.5792 60.4688 68.1048 61.0734 67.1393C61.678 66.1738 61.8205 65.5273 62.3172 66.0269C62.8138 66.5264 62.2394 67.8698 62.166 68.1762C62.0926 68.4826 61.3325 69.3936 62.5979 68.9192C63.8632 68.4449 65.8152 66.199 66.3162 65.7414C66.8171 65.2839 67.0849 65.9933 66.9726 66.5558C66.8603 67.1183 67.4044 68.3861 67.2058 69.3138C67.0822 70.247 66.6048 71.1017 65.867 71.7108C64.9558 72.6007 62.7274 73.6964 61.8551 74.8676C60.9827 76.0388 59.1214 79.6783 57.9683 81.8696C56.5216 84.657 55.2908 85.5763 53.6498 84.636C52.0087 83.6957 50.454 81.9116 49.7328 81.1854Z" fill="#FFA8A7"/>
<path d="M42.8835 68.0167C43.9877 67.9094 45.1025 68.0531 46.1397 68.4364C47.3101 68.9486 48.1047 70.0484 49.2491 71.5387C50.3935 73.0289 52.4362 75.6358 52.4362 75.6358C52.4362 75.6358 51.8835 77.8984 48.2386 79.9302L42.2876 73.9734L42.8835 68.0167Z" fill="#37474F"/>
<path d="M54.2716 78.1838C53.5598 78.8365 53.0829 79.6946 52.9113 80.6311C52.9113 80.6311 52.4794 79.2836 53.9521 77.7682L54.2716 78.1838Z" fill="#F28F8F"/>
<path d="M47.1934 79.9429C49.8494 77.8187 48.9727 75.0523 48.0053 73.1885C46.0663 69.465 44.0495 67.9999 43.2074 68.0125L37.9258 68.0629C35.4037 68.3987 33.4517 68.2308 32.8428 68.3694C31.2881 68.7262 31.2536 69.9687 31.1931 71.5765C31.1283 73.3396 30.1998 73.0416 30.6706 75.9549C31.2257 77.0378 31.7132 78.1522 32.1302 79.2922C32.4153 80.2997 33.2185 81.9033 32.791 83.532C32.6269 84.1617 32.1864 84.7914 31.5256 86.5167C30.7764 88.456 30.2197 90.4605 29.863 92.5029C29.863 92.5029 31.4047 92.1544 33.1581 90.341C33.1581 90.341 35.5549 93.46 41.3202 93.1451C47.3014 92.8177 47.8283 89.7868 47.8283 89.7868L46.9127 84.3296C47.0509 82.1257 47.1114 81.3282 47.1934 79.9429Z" fill="#46A3DB"/>
<path opacity="0.1" d="M43.7429 79.3929C43.7429 79.3929 41.5836 81.072 39.0486 80.266C38.3425 80.0602 37.7023 79.6821 37.189 79.1678C36.6757 78.6534 36.3064 78.0199 36.1163 77.3275C36.1163 77.3275 35.9004 80.1191 39.0875 81.0174C39.94 81.2688 40.8532 81.2466 41.6917 80.9539C42.5303 80.6613 43.2495 80.1139 43.7429 79.3929Z" fill="black"/>
<path d="M28.6236 65.6154C27.8419 65.0613 23.6313 70.5395 25.6006 71.9122C27.5699 73.2849 29.6687 69.3935 29.2455 67.5548C28.8222 65.7161 28.6236 65.6154 28.6236 65.6154Z" fill="#37474F"/>
<path d="M24.8016 62.8954C25.8554 61.4765 26.5723 60.4061 27.5353 59.1887C28.0794 58.496 28.4292 58.0049 28.9518 57.2955C29.3145 56.8085 29.5262 56.3971 29.9321 56.2418C30.3853 56.0479 30.7903 55.7616 31.1197 55.4022C31.3214 55.1751 31.5075 54.9353 31.6768 54.6844C32.2855 53.8651 33.0128 53.1355 33.8361 52.5183C34.6998 51.8676 35.6456 51.3639 36.5266 50.7426C37.0491 50.3732 37.6105 49.7645 36.9584 49.2146C36.7558 49.0556 36.5152 48.9487 36.2588 48.9039C34.6869 48.5975 33.3265 49.1474 31.7977 49.5546C31.133 49.7308 30.4832 49.9567 29.8544 50.2305C29.5422 50.3536 29.251 50.5221 28.9907 50.73C28.629 51.0973 28.3367 51.5236 28.1269 51.9894C27.4576 53.1858 26.0454 54.252 25.0564 55.1881C23.8947 56.288 22.8583 57.2871 21.5325 58.5086C20.3405 59.6001 19.1702 60.6076 18.0776 61.7998C17.175 62.7821 17.5248 63.5377 17.6457 63.7938C18.4231 65.2798 19.2695 65.8045 20.2887 66.7323C20.6256 67.0345 20.9667 67.3326 21.3079 67.6306C22.6294 68.7892 23.9509 69.8723 25.3242 70.9889C26.7925 72.1643 27.3971 72.7352 28.7056 73.877C29.5314 74.6142 30.2195 75.4849 30.7397 76.4503C33.0069 76.8155 35.2353 73.4446 33.292 69.5028C32.9723 68.8654 32.4889 68.3188 31.8884 67.9161C29.4959 66.2579 24.8016 62.8954 24.8016 62.8954Z" fill="#FFA8A7"/>
<path d="M24.8016 62.8951C24.0943 63.7681 23.144 64.4252 22.0637 64.7884C22.0637 64.7884 23.5104 65.1242 25.4537 63.3653L24.8016 62.8951Z" fill="#F28F8F"/>
<path d="M33.0242 68.3357C32.493 67.9789 31.2018 67.2191 28.6236 65.6155C28.6236 65.6155 29.0209 66.4257 28.3947 68.4616C27.7685 70.4976 26.447 71.7863 25.6179 71.9333C25.6179 71.9333 27.0603 73.0415 28.3904 74.2925C29.7205 75.5434 30.8131 76.4292 31.5818 77.8816C31.5818 77.8816 33.482 77.4073 33.9138 74.2757C34.2162 72.0802 34.0348 69.5027 33.0242 68.3357Z" fill="#455A64"/>
<path d="M47.4483 58.2524C47.8279 57.4725 47.9952 56.6109 47.9339 55.7501C47.8727 54.8894 47.585 54.0583 47.0985 53.3367C45.4617 51.074 42.7022 49.9784 39.6532 50.012H38.7075C34.5919 50.0791 30.852 53.513 30.7786 57.3792C30.7786 60.0994 30.7786 62.614 32.3203 64.4694C33.7411 66.1947 35.9565 66.7615 37.8265 67.0385C41.4023 67.5674 45.4185 67.1644 47.0423 64.7969C47.0423 64.7969 44.883 65.2166 45.1551 63.0422C45.194 62.6979 44.8571 62.3201 44.2655 61.9297C44.6799 61.2319 45.1676 60.5777 45.7208 59.9777C46.3298 59.3858 47.0337 59.0542 47.4483 58.2524Z" fill="#263238"/>
<path d="M46.3816 60.238C46.36 64.289 45.0256 65.3091 44.3562 65.6113C43.6868 65.9136 42.3739 65.754 41.1 65.5735L41.1432 68.0041C41.1432 68.0041 42.6331 69.4691 42.5467 70.5858C42.4603 71.7024 40.2665 71.8451 38.6038 70.7999C37.6879 70.2103 36.8572 69.5044 36.1336 68.7009C35.9955 68.5455 35.9176 68.348 35.9134 68.1426L35.8097 62.4293C35.8097 62.4293 35.1274 63.1556 33.8836 62.358C33.6149 62.1983 33.3833 61.9861 33.2035 61.7348C33.0237 61.4835 32.8996 61.1986 32.8391 60.8982C32.7786 60.5978 32.783 60.2885 32.852 59.9898C32.9211 59.6912 33.0532 59.4097 33.2401 59.1634C33.4159 58.9973 33.6269 58.8708 33.8584 58.7926C34.0899 58.7144 34.3362 58.6866 34.58 58.711C34.8238 58.7354 35.0591 58.8115 35.2693 58.9339C35.4795 59.0563 35.6596 59.2221 35.7968 59.4195C36.1768 60.1079 36.1422 60.5949 36.6605 60.5151C37.1787 60.4353 37.2003 59.8896 37.2348 59.4992C37.2694 59.1088 37.2348 58.9829 37.2867 58.4707C38.5175 58.2147 39.7914 56.5481 39.9339 55.3307C40.7678 55.7294 41.6867 55.9307 42.6158 55.9184C43.9934 55.8261 44.706 55.5574 45.384 54.5919C45.5456 54.8128 45.6749 55.0544 45.7684 55.3098C45.9602 55.8267 46.1047 56.3591 46.2002 56.9007C46.354 58.0065 46.4147 59.1227 46.3816 60.238Z" fill="#FFA8A7"/>
<path d="M41.1 65.5735C39.7569 65.4224 36.9887 64.7003 36.5396 63.6509C36.7211 64.1837 37.0662 64.6495 37.5285 64.9858C38.3663 65.6575 41.1129 66.3837 41.1129 66.3837L41.1 65.5735Z" fill="#F28F8F"/>
<path d="M42.4516 63.3906C42.4542 63.4962 42.4244 63.6001 42.3661 63.6892C42.3078 63.7784 42.2236 63.8486 42.1241 63.8911C42.0247 63.9337 41.9145 63.9465 41.8075 63.928C41.7005 63.9096 41.6016 63.8607 41.5232 63.7875C41.4449 63.7143 41.3907 63.6201 41.3675 63.517C41.3443 63.4138 41.3532 63.3062 41.3929 63.208C41.4327 63.1097 41.5016 63.0251 41.5909 62.9649C41.6802 62.9048 41.7859 62.8718 41.8945 62.8701C42.0393 62.8678 42.179 62.9213 42.2834 63.0188C42.3878 63.1163 42.4482 63.2499 42.4516 63.3906Z" fill="#B16668"/>
<path d="M41.7477 59.4028C41.7549 59.4772 41.7467 59.5523 41.7238 59.6238C41.701 59.6952 41.6637 59.7615 41.6144 59.8188C41.565 59.8762 41.5044 59.9235 41.4361 59.958C41.3679 59.9925 41.2932 60.0135 41.2166 60.0198C41.0985 60.0321 40.9793 60.0098 40.8743 59.9557C40.7694 59.9017 40.6834 59.8184 40.6275 59.7166C40.5716 59.6147 40.5482 59.4989 40.5605 59.3841C40.5727 59.2693 40.62 59.1606 40.6962 59.0721C40.7724 58.9835 40.8741 58.9191 40.9882 58.8872C41.1024 58.8552 41.2237 58.8571 41.3367 58.8926C41.4497 58.9282 41.5492 58.9957 41.6225 59.0866C41.6957 59.1775 41.7393 59.2876 41.7477 59.4028Z" fill="#263238"/>
<path d="M45.6431 59.1633C45.6539 59.3001 45.6087 59.4355 45.5173 59.54C45.4259 59.6446 45.2958 59.7098 45.1551 59.7216C45.0843 59.7301 45.0124 59.7236 44.9444 59.7026C44.8763 59.6816 44.8138 59.6466 44.7609 59.6C44.708 59.5534 44.6661 59.4963 44.638 59.4325C44.6099 59.3687 44.5963 59.2998 44.598 59.2304C44.5909 59.1625 44.5979 59.0938 44.6185 59.0285C44.6391 58.9632 44.6729 58.9025 44.7179 58.8501C44.763 58.7977 44.8184 58.7546 44.8809 58.7233C44.9434 58.692 45.0117 58.6732 45.0817 58.6679C45.2235 58.6622 45.3619 58.711 45.467 58.8037C45.572 58.8964 45.6353 59.0256 45.6431 59.1633Z" fill="#263238"/>
<path d="M42.9526 58.6388L43.3672 62.0223L45.1508 61.3002L42.9526 58.6388Z" fill="#F28F8F"/>
<path d="M39.6662 57.9417L40.7027 56.9846C40.8317 57.1242 40.9006 57.3067 40.895 57.4942C40.8893 57.6818 40.8096 57.8601 40.6724 57.9921C40.6041 58.0551 40.5232 58.104 40.4348 58.1357C40.3464 58.1675 40.2523 58.1814 40.1582 58.1767C40.0641 58.172 39.972 58.1487 39.8874 58.1083C39.8028 58.0679 39.7275 58.0113 39.6662 57.9417Z" fill="#263238"/>
<path d="M44.8528 56.6741L46.0015 57.5136C45.9486 57.5895 45.8804 57.6539 45.8009 57.7031C45.7214 57.7524 45.6324 57.7853 45.5394 57.7998C45.4464 57.8143 45.3513 57.8102 45.2599 57.7877C45.1686 57.7652 45.0829 57.7248 45.0082 57.669C44.8578 57.5529 44.7582 57.3858 44.7293 57.2012C44.7005 57.0167 44.7446 56.8283 44.8528 56.6741Z" fill="#263238"/>
<path d="M28.2953 25.9247C29.1234 25.7712 29.9699 25.7345 30.8087 25.8156C31.6104 25.8839 32.3929 26.0915 33.1192 26.4285C33.816 26.7518 34.432 27.2188 34.9243 27.797C35.4435 28.4158 35.7887 29.1549 35.9262 29.9421C36.0557 30.5598 36.0557 31.1966 35.9262 31.8143C35.8101 32.352 35.6122 32.8698 35.3389 33.3507C35.0736 33.8187 34.7658 34.2627 34.4191 34.6773C34.0736 35.0971 33.7454 35.4833 33.4387 35.8569C33.1455 36.2085 32.8853 36.585 32.6614 36.9819C32.4556 37.3343 32.3553 37.7356 32.372 38.1405C32.3746 38.3288 32.3254 38.5142 32.2295 38.6778C32.1843 38.7552 32.1222 38.8219 32.0476 38.8734C31.973 38.9249 31.8877 38.9599 31.7977 38.9759L29.7636 39.3495C29.667 39.3682 29.5675 39.3678 29.4711 39.3483C29.3746 39.3288 29.2832 39.2907 29.2022 39.2361C29.1179 39.1892 29.0468 39.123 28.9948 39.0433C28.9429 38.9636 28.9118 38.8727 28.9042 38.7786C28.8051 38.1575 28.8374 37.5233 28.9992 36.9147C29.1528 36.3725 29.3778 35.8519 29.6686 35.3657C29.9498 34.9027 30.272 34.4645 30.6317 34.056C30.9901 33.6362 31.314 33.2584 31.612 32.889C31.8859 32.5572 32.1233 32.1984 32.3202 31.8185C32.4896 31.4889 32.5427 31.1142 32.4714 30.7523C32.414 30.4333 32.2774 30.1327 32.0735 29.8767C31.8695 29.6206 31.6044 29.4169 31.301 29.283C30.5486 28.9506 29.7034 28.8723 28.8999 29.0605C27.3855 29.3404 26.4138 30.2835 25.9849 31.8899C25.9471 32.0592 25.8799 32.2211 25.7862 32.3684C25.6664 32.503 25.4977 32.5872 25.3155 32.6035L23.1562 33.0023C23.007 33.0281 22.8534 32.9997 22.7243 32.9226C22.6565 32.879 22.5988 32.8222 22.5549 32.7556C22.5111 32.6891 22.482 32.6144 22.4695 32.5364C22.3763 31.8742 22.4504 31.1999 22.6855 30.5718C22.93 29.8463 23.3042 29.1684 23.791 28.5694C24.3369 27.9134 24.9871 27.3466 25.7171 26.8902C26.5039 26.4087 27.3796 26.0808 28.2953 25.9247ZM32.2382 40.5123C32.4302 40.48 32.6276 40.5215 32.7888 40.628C32.9499 40.7346 33.0622 40.8978 33.1019 41.0832L33.5337 43.3752C33.5534 43.4671 33.5533 43.5619 33.5332 43.6537C33.5131 43.7455 33.4736 43.8322 33.4171 43.9084C33.3641 43.9865 33.2955 44.0534 33.2154 44.1053C33.1353 44.1573 33.0453 44.193 32.9507 44.2106L30.6489 44.6304C30.5537 44.6496 30.4555 44.6495 30.3603 44.63C30.2652 44.6105 30.1752 44.572 30.0962 44.5171C30.0158 44.4655 29.9469 44.3988 29.8935 44.3209C29.8401 44.2431 29.8033 44.1556 29.7852 44.0637L29.3534 41.7717C29.3353 41.6795 29.3367 41.5847 29.3575 41.493C29.3783 41.4014 29.418 41.3148 29.4743 41.2385C29.526 41.1593 29.5942 41.0914 29.6745 41.0394C29.7549 40.9873 29.8455 40.9522 29.9407 40.9363L32.2382 40.5123Z" fill="#46A3DB"/>
<path d="M50.2424 35.3824C50.7517 35.657 51.2172 36.002 51.6243 36.4067C52.0201 36.786 52.3407 37.2328 52.5701 37.7249C52.7902 38.1955 52.9036 38.7066 52.9026 39.2235C52.9021 39.7745 52.7532 40.3158 52.4708 40.7935C52.2592 41.1764 51.9732 41.5157 51.6287 41.7926C51.32 42.0255 50.9781 42.2136 50.6138 42.3509C50.2597 42.4854 49.8941 42.5894 49.5212 42.6615L48.4675 42.863C48.1514 42.9221 47.8419 43.0107 47.5433 43.1275C47.2746 43.2244 47.0395 43.3933 46.8653 43.6145C46.7803 43.7161 46.6683 43.7931 46.5414 43.8369C46.4817 43.8587 46.4179 43.8673 46.3544 43.8622C46.291 43.8571 46.2295 43.8385 46.1743 43.8076L44.9262 43.1275C44.8049 43.063 44.7148 42.9543 44.6757 42.8253C44.6545 42.764 44.6482 42.6987 44.6572 42.6347C44.6661 42.5706 44.6902 42.5094 44.7276 42.4558C44.9575 42.0847 45.2632 41.7633 45.6258 41.5113C45.9545 41.2882 46.3116 41.1076 46.6882 40.974C47.0494 40.8491 47.4206 40.7536 47.7981 40.6885C48.1738 40.6256 48.5236 40.5626 48.8518 40.4954C49.148 40.4353 49.4373 40.3467 49.7155 40.231C49.9556 40.128 50.1554 39.9529 50.2856 39.7314C50.399 39.5366 50.4622 39.318 50.4697 39.0943C50.4772 38.8706 50.4289 38.6485 50.3288 38.4469C50.0821 37.947 49.67 37.5419 49.1584 37.2967C48.7178 37.0491 48.2093 36.9397 47.7024 36.9833C47.1954 37.0268 46.7146 37.2213 46.3254 37.5401C46.2292 37.6162 46.1194 37.6745 46.0015 37.7123C45.8779 37.7322 45.7511 37.7052 45.6474 37.6367L44.3173 36.9147C44.2232 36.8632 44.1523 36.7793 44.1186 36.6796C44.1018 36.6274 44.0966 36.5724 44.1033 36.5181C44.11 36.4638 44.1285 36.4116 44.1575 36.3647C44.4096 35.9745 44.7548 35.6491 45.1637 35.416C45.6293 35.1429 46.1411 34.9524 46.6753 34.8535C47.26 34.7421 47.8594 34.7237 48.4502 34.7989C49.0806 34.8796 49.6891 35.0777 50.2424 35.3824ZM45.6906 44.8066C45.7493 44.8382 45.8008 44.8809 45.8424 44.932C45.8839 44.9832 45.9145 45.0419 45.9325 45.1047C45.9516 45.1666 45.9576 45.2316 45.9502 45.2958C45.9428 45.36 45.922 45.4221 45.8893 45.4783L45.0817 46.8846C45.0162 46.999 44.9067 47.0836 44.7772 47.1198C44.6477 47.156 44.5088 47.1408 44.3907 47.0777L42.9785 46.3095C42.9191 46.2795 42.8671 46.2373 42.8261 46.1859C42.785 46.1344 42.756 46.0749 42.741 46.0114C42.7205 45.9499 42.7133 45.885 42.72 45.8207C42.7267 45.7563 42.7471 45.6941 42.7799 45.6378L43.5875 44.2315C43.6202 44.1752 43.6642 44.1257 43.7169 44.0861C43.7695 44.0464 43.8298 44.0174 43.8941 44.0007C43.9576 43.9811 44.0246 43.9747 44.0909 43.9819C44.1571 43.9891 44.221 44.0098 44.2784 44.0426L45.6906 44.8066Z" fill="#46A3DB"/>
<g opacity="0.2">
<path d="M50.2424 35.3824C50.7517 35.657 51.2172 36.002 51.6243 36.4067C52.0201 36.786 52.3407 37.2328 52.5701 37.7249C52.7902 38.1955 52.9036 38.7066 52.9026 39.2235C52.9021 39.7745 52.7532 40.3158 52.4708 40.7935C52.2592 41.1764 51.9732 41.5157 51.6287 41.7926C51.32 42.0255 50.9781 42.2136 50.6138 42.3509C50.2597 42.4854 49.8941 42.5894 49.5212 42.6615L48.4675 42.863C48.1514 42.9221 47.8419 43.0107 47.5433 43.1275C47.2746 43.2244 47.0395 43.3933 46.8653 43.6145C46.7803 43.7161 46.6683 43.7931 46.5414 43.8369C46.4817 43.8587 46.4179 43.8673 46.3544 43.8622C46.291 43.8571 46.2295 43.8385 46.1743 43.8076L44.9262 43.1275C44.8049 43.063 44.7148 42.9543 44.6757 42.8253C44.6545 42.764 44.6482 42.6987 44.6572 42.6347C44.6661 42.5706 44.6902 42.5094 44.7276 42.4558C44.9575 42.0847 45.2632 41.7633 45.6258 41.5113C45.9545 41.2882 46.3116 41.1076 46.6882 40.974C47.0494 40.8491 47.4206 40.7536 47.7981 40.6885C48.1738 40.6256 48.5236 40.5626 48.8518 40.4954C49.148 40.4353 49.4373 40.3467 49.7155 40.231C49.9556 40.128 50.1554 39.9529 50.2856 39.7314C50.399 39.5366 50.4622 39.318 50.4697 39.0943C50.4772 38.8706 50.4289 38.6485 50.3288 38.4469C50.0821 37.947 49.67 37.5419 49.1584 37.2967C48.7178 37.0491 48.2093 36.9397 47.7024 36.9833C47.1954 37.0268 46.7146 37.2213 46.3254 37.5401C46.2292 37.6162 46.1194 37.6745 46.0015 37.7123C45.8779 37.7322 45.7511 37.7052 45.6474 37.6367L44.3173 36.9147C44.2232 36.8632 44.1523 36.7793 44.1186 36.6796C44.1018 36.6274 44.0966 36.5724 44.1033 36.5181C44.11 36.4638 44.1285 36.4116 44.1575 36.3647C44.4096 35.9745 44.7548 35.6491 45.1637 35.416C45.6293 35.1429 46.1411 34.9524 46.6753 34.8535C47.26 34.7421 47.8594 34.7237 48.4502 34.7989C49.0806 34.8796 49.6891 35.0777 50.2424 35.3824ZM45.6906 44.8066C45.7493 44.8382 45.8008 44.8809 45.8424 44.932C45.8839 44.9832 45.9145 45.0419 45.9325 45.1047C45.9516 45.1666 45.9576 45.2316 45.9502 45.2958C45.9428 45.36 45.922 45.4221 45.8893 45.4783L45.0817 46.8846C45.0162 46.999 44.9067 47.0836 44.7772 47.1198C44.6477 47.156 44.5088 47.1408 44.3907 47.0777L42.9785 46.3095C42.9191 46.2795 42.8671 46.2373 42.8261 46.1859C42.785 46.1344 42.756 46.0749 42.741 46.0114C42.7205 45.9499 42.7133 45.885 42.72 45.8207C42.7267 45.7563 42.7471 45.6941 42.7799 45.6378L43.5875 44.2315C43.6202 44.1752 43.6642 44.1257 43.7169 44.0861C43.7695 44.0464 43.8298 44.0174 43.8941 44.0007C43.9576 43.9811 44.0246 43.9747 44.0909 43.9819C44.1571 43.9891 44.221 44.0098 44.2784 44.0426L45.6906 44.8066Z" fill="black"/>
</g>
<path d="M19.8223 50.7971C19.8798 50.7442 19.9477 50.7032 20.0219 50.6765C20.0961 50.6498 20.1751 50.638 20.2541 50.6417C20.3352 50.6428 20.4152 50.6597 20.4894 50.6914C20.5635 50.7232 20.6304 50.7691 20.686 50.8264L22.0161 52.2285C22.0708 52.2857 22.1134 52.3529 22.1413 52.4261C22.1692 52.4994 22.1819 52.5773 22.1787 52.6553C22.1755 52.7333 22.1564 52.81 22.1226 52.8808C22.0887 52.9517 22.0408 53.0153 21.9816 53.0681L20.5737 54.3275C20.5149 54.3806 20.4458 54.422 20.3704 54.4491C20.2951 54.4762 20.2149 54.4886 20.1346 54.4855C20.0544 54.4824 19.9755 54.4638 19.9026 54.4309C19.8297 54.398 19.7643 54.3515 19.71 54.2939L18.3799 52.8918C18.3246 52.8349 18.2816 52.7678 18.2534 52.6945C18.2251 52.6212 18.2122 52.5431 18.2155 52.4649C18.2187 52.3867 18.2379 52.3099 18.2721 52.2391C18.3063 52.1682 18.3546 52.1047 18.4144 52.0522L19.8223 50.7971ZM10.5805 42.3384C11.0855 41.8796 11.6556 41.4937 12.2734 41.1923C12.86 40.9041 13.4946 40.7194 14.1476 40.6466C14.7745 40.5793 15.409 40.6423 16.009 40.8313C16.6464 41.0428 17.2164 41.4117 17.663 41.9018C18.0367 42.2709 18.3304 42.7091 18.5267 43.1905C18.6851 43.6128 18.7782 44.0556 18.8031 44.5045C18.8277 44.9414 18.8133 45.3796 18.7599 45.8142C18.7038 46.234 18.6519 46.6538 18.6044 47.0442C18.5576 47.4117 18.5446 47.7826 18.5656 48.1524C18.5799 48.4848 18.6907 48.8064 18.8851 49.0801C18.9688 49.2056 19.0165 49.3505 19.0233 49.4999C19.0271 49.5735 19.0135 49.6469 18.9835 49.7146C18.9536 49.7822 18.9081 49.8424 18.8506 49.8903L17.6068 51.0111C17.4889 51.1151 17.3341 51.1707 17.175 51.1665C17.096 51.1693 17.0175 51.1536 16.9461 51.1207C16.8747 51.0878 16.8125 51.0387 16.7647 50.9776C16.4192 50.5871 16.1578 50.1331 15.996 49.6426C15.8607 49.2021 15.7853 48.7463 15.7714 48.2867C15.758 47.8432 15.784 47.3994 15.8492 46.9602C15.9139 46.5404 15.9658 46.1206 16.009 45.7428C16.0476 45.3954 16.0476 45.045 16.009 44.6976C15.9808 44.3983 15.8517 44.1164 15.6419 43.8958C15.4593 43.6991 15.2302 43.5485 14.9744 43.4571C14.7186 43.3657 14.4437 43.3362 14.1736 43.371C13.5072 43.4548 12.8879 43.7499 12.4116 44.2106C11.4845 45.0502 11.2297 46.115 11.6472 47.4052C11.6984 47.5395 11.7247 47.6817 11.7249 47.825C11.7142 47.8956 11.6893 47.9635 11.6515 48.0248C11.6137 48.086 11.5638 48.1394 11.5047 48.1818L10.1789 49.374C10.0862 49.461 9.96219 49.5092 9.83339 49.5083C9.76742 49.5072 9.70246 49.4924 9.64287 49.4649C9.58328 49.4374 9.53044 49.3978 9.4879 49.3488C9.12078 48.9359 8.86415 48.4413 8.74079 47.9089C8.59425 47.2997 8.56062 46.67 8.64146 46.0493C8.73014 45.3689 8.93139 44.7068 9.23742 44.0889C9.56337 43.4258 10.0196 42.8311 10.5805 42.3384Z" fill="#46A3DB"/>
<g opacity="0.6">
<path d="M19.8223 50.7971C19.8798 50.7442 19.9477 50.7032 20.0219 50.6765C20.0961 50.6498 20.1751 50.638 20.2541 50.6417C20.3352 50.6428 20.4152 50.6597 20.4894 50.6914C20.5635 50.7232 20.6304 50.7691 20.686 50.8264L22.0161 52.2285C22.0708 52.2857 22.1134 52.3529 22.1413 52.4261C22.1692 52.4994 22.1819 52.5773 22.1787 52.6553C22.1755 52.7333 22.1564 52.81 22.1226 52.8808C22.0887 52.9517 22.0408 53.0153 21.9816 53.0681L20.5737 54.3275C20.5149 54.3806 20.4458 54.422 20.3704 54.4491C20.2951 54.4762 20.2149 54.4886 20.1346 54.4855C20.0544 54.4824 19.9755 54.4638 19.9026 54.4309C19.8297 54.398 19.7643 54.3515 19.71 54.2939L18.3799 52.8918C18.3246 52.8349 18.2816 52.7678 18.2534 52.6945C18.2251 52.6212 18.2122 52.5431 18.2155 52.4649C18.2187 52.3867 18.2379 52.3099 18.2721 52.2391C18.3063 52.1682 18.3546 52.1047 18.4144 52.0522L19.8223 50.7971ZM10.5805 42.3384C11.0855 41.8796 11.6556 41.4937 12.2734 41.1923C12.86 40.9041 13.4946 40.7194 14.1476 40.6466C14.7745 40.5793 15.409 40.6423 16.009 40.8313C16.6464 41.0428 17.2164 41.4117 17.663 41.9018C18.0367 42.2709 18.3304 42.7091 18.5267 43.1905C18.6851 43.6128 18.7782 44.0556 18.8031 44.5045C18.8277 44.9414 18.8133 45.3796 18.7599 45.8142C18.7038 46.234 18.6519 46.6538 18.6044 47.0442C18.5576 47.4117 18.5446 47.7826 18.5656 48.1524C18.5799 48.4848 18.6907 48.8064 18.8851 49.0801C18.9688 49.2056 19.0165 49.3505 19.0233 49.4999C19.0271 49.5735 19.0135 49.6469 18.9835 49.7146C18.9536 49.7822 18.9081 49.8424 18.8506 49.8903L17.6068 51.0111C17.4889 51.1151 17.3341 51.1707 17.175 51.1665C17.096 51.1693 17.0175 51.1536 16.9461 51.1207C16.8747 51.0878 16.8125 51.0387 16.7647 50.9776C16.4192 50.5871 16.1578 50.1331 15.996 49.6426C15.8607 49.2021 15.7853 48.7463 15.7714 48.2867C15.758 47.8432 15.784 47.3994 15.8492 46.9602C15.9139 46.5404 15.9658 46.1206 16.009 45.7428C16.0476 45.3954 16.0476 45.045 16.009 44.6976C15.9808 44.3983 15.8517 44.1164 15.6419 43.8958C15.4593 43.6991 15.2302 43.5485 14.9744 43.4571C14.7186 43.3657 14.4437 43.3362 14.1736 43.371C13.5072 43.4548 12.8879 43.7499 12.4116 44.2106C11.4845 45.0502 11.2297 46.115 11.6472 47.4052C11.6984 47.5395 11.7247 47.6817 11.7249 47.825C11.7142 47.8956 11.6893 47.9635 11.6515 48.0248C11.6137 48.086 11.5638 48.1394 11.5047 48.1818L10.1789 49.374C10.0862 49.461 9.96219 49.5092 9.83339 49.5083C9.76742 49.5072 9.70246 49.4924 9.64287 49.4649C9.58328 49.4374 9.53044 49.3978 9.4879 49.3488C9.12078 48.9359 8.86415 48.4413 8.74079 47.9089C8.59425 47.2997 8.56062 46.67 8.64146 46.0493C8.73014 45.3689 8.93139 44.7068 9.23742 44.0889C9.56337 43.4258 10.0196 42.8311 10.5805 42.3384Z" fill="white"/>
</g>
<path d="M107.761 80.0854C106.531 79.4012 101.348 76.4878 99.5864 75.4972C99.2366 75.3041 99.0164 75.1781 98.9991 75.1655C98.123 74.6908 97.0994 74.5416 96.1186 74.7457C95.2767 74.9118 94.4704 75.2171 93.7347 75.6483C93.6138 75.7154 93.4929 75.7952 93.3763 75.8708C91.3854 77.0923 89.6753 79.015 88.2501 81.6596C86.799 84.2357 86.0205 87.1186 85.9829 90.0553C85.9829 92.8371 86.7458 94.7891 88.2717 95.9114C88.4262 96.0232 88.5878 96.1256 88.7554 96.2178C90.1849 97.007 97.3537 101.045 97.5135 101.134H97.5524C97.376 101.04 97.2071 100.933 97.0471 100.814C95.5183 99.695 94.7554 97.7444 94.7582 94.9626C94.7958 92.0259 95.5744 89.143 97.0255 86.5669C98.5312 83.7683 100.358 81.7632 102.506 80.5514C104.55 79.404 106.315 79.2542 107.8 80.1022L107.761 80.0854Z" fill="#46A3DB"/>
<path opacity="0.4" d="M107.8 80.1107C106.315 79.2711 104.55 79.4195 102.506 80.5557C100.511 81.6751 98.7903 83.4942 97.345 86.0129L88.5697 81.072C89.9257 78.717 91.5279 76.9833 93.3719 75.8541C93.4885 75.7827 93.6095 75.6988 93.7304 75.6316C94.4653 75.1999 95.272 74.8959 96.1142 74.7333C97.0949 74.5268 98.1194 74.6761 98.9947 75.153L99.5821 75.4847C101.344 76.4712 106.526 79.3845 107.757 80.0687L107.8 80.1107Z" fill="black"/>
<path opacity="0.3" d="M97.5524 101.121H97.5135C97.3537 101.033 90.1719 96.9945 88.7554 96.2053C88.5878 96.113 88.4262 96.0107 88.2717 95.8988C86.7458 94.7794 85.9829 92.8288 85.9829 90.047C86.0194 87.1101 86.798 84.227 88.2501 81.6513C88.3538 81.454 88.4617 81.2609 88.574 81.0762L97.3451 86.0003C97.2371 86.185 97.1291 86.3781 97.0255 86.5712C95.5744 89.1473 94.7958 92.0302 94.7582 94.9669C94.7582 97.7487 95.5212 99.6993 97.0471 100.819C97.2076 100.931 97.3765 101.032 97.5524 101.121Z" fill="black"/>
<path d="M103.935 8.05035C108.193 5.65757 111.818 4.64029 114.809 4.99851C116.027 5.13988 117.202 5.51974 118.264 6.11514C118.235 6.0999 118.206 6.08308 118.178 6.06476C117.15 5.50225 110.957 2.03062 109.541 1.22043C108.46 0.606553 107.26 0.217721 106.017 0.0786106C103.023 -0.276809 99.3964 0.739075 95.1382 3.12626C88.5164 6.83997 83.1902 12.2972 79.1595 19.4979C75.1288 26.6987 73.1351 34.0491 73.1783 41.5493L81.9493 46.4734C81.8888 38.9676 83.8826 31.6158 87.9305 24.4178C91.9785 17.2199 97.3134 11.7641 103.935 8.05035Z" fill="#46A3DB"/>
<path opacity="0.2" d="M118.195 6.06879C117.149 5.50213 115.999 5.13857 114.809 4.99833C111.821 4.64011 108.196 5.65739 103.935 8.05018C97.3134 11.7611 91.9872 17.2183 87.9565 24.4218C87.7881 24.7199 87.624 25.0221 87.4642 25.3202L78.6715 20.3877C78.8313 20.0897 78.9954 19.7874 79.1639 19.4894C83.2118 12.2942 88.5381 6.83699 95.1426 3.11769C99.4065 0.727703 103.033 -0.288179 106.021 0.0700385C107.265 0.210561 108.465 0.60082 109.545 1.21606C110.975 2.03464 117.167 5.51047 118.195 6.06879Z" fill="black"/>
<path opacity="0.3" d="M87.4425 25.3118C83.7257 32.2215 81.896 39.2725 81.9536 46.4648L73.1826 41.5407C73.1279 34.3456 74.9575 27.2946 78.6715 20.3877L87.4425 25.3118Z" fill="black"/>
<path d="M109.895 22.0039C108.303 21.1811 106.177 21.5029 103.516 22.9694C103.426 24.5079 103.1 26.0247 102.549 27.4695C101.884 29.2102 99.9492 32.8008 96.7448 38.2412C93.4252 43.8664 91.0241 49.2382 89.5414 54.3568C88.0708 59.4104 87.3239 64.637 87.3217 69.8889L87.3648 72.5042L93.3504 75.8625L96.1402 77.4283L96.0927 74.8088V74.7752C96.1022 69.5404 96.8491 64.3314 98.3124 59.2935C99.7952 54.1749 102.198 48.8044 105.52 43.1821C108.722 37.7417 110.655 34.1497 111.32 32.4062C111.984 30.6825 112.324 28.8567 112.322 27.0161C112.322 24.5114 111.513 22.8407 109.895 22.0039Z" fill="#46A3DB"/>
<path opacity="0.3" d="M110.461 34.2911C109.47 36.2949 107.823 39.253 105.52 43.1654C102.195 48.7905 99.7923 54.1624 98.3124 59.281C96.8475 64.3229 96.1006 69.5362 96.0927 74.7753V74.8425L96.1402 77.4619L93.3504 75.9003L87.3648 72.542L87.3217 69.9226C87.3242 64.6707 88.0711 59.4442 89.5414 54.3905C91.0241 49.2719 93.4252 43.9 96.7448 38.2749C99.048 34.3569 100.698 31.4002 101.694 29.4048L110.461 34.2911Z" fill="black"/>
<path opacity="0.4" d="M112.322 27.0161C112.323 28.8508 111.985 30.6708 111.324 32.3894C111.139 32.8805 110.849 33.5144 110.461 34.291L101.694 29.3711C102.077 28.5931 102.365 27.9592 102.558 27.4695C103.109 26.0247 103.435 24.5079 103.525 22.9694C106.185 21.5029 108.311 21.1811 109.903 22.0039C111.496 22.8267 112.302 24.4974 112.322 27.0161Z" fill="black"/>
<path d="M93.8254 39.7987L81.9536 46.4649C81.8932 38.9592 83.8869 31.6073 87.9349 24.4094C91.9828 17.2114 97.3091 11.7542 103.914 8.03771C108.172 5.64493 111.796 4.62764 114.788 4.98586C117.779 5.34408 120.173 6.93787 121.97 9.76723C123.769 12.5966 124.669 16.1256 124.669 20.3542C124.651 22.8093 124.361 25.2553 123.805 27.6501C123.132 30.5148 122.224 33.3224 121.089 36.0458C120.363 37.8257 118.626 41.1113 115.876 45.9024C113.248 50.4697 111.601 53.5775 110.936 55.2259C110.197 57.1825 109.649 59.2022 109.299 61.2582C108.776 64.3313 108.487 67.4378 108.435 70.5523L96.1575 77.4452L96.1099 74.8257C96.1125 69.5738 96.8594 64.3473 98.3297 59.2936C99.8124 54.175 102.215 48.8046 105.537 43.1822C108.739 37.7418 110.672 34.1498 111.337 32.4063C111.995 30.6816 112.329 28.8558 112.322 27.0162C112.322 24.4975 111.514 22.8268 109.899 22.004C108.284 21.1812 106.116 21.5254 103.395 23.0367C100.614 24.5983 98.3326 26.9407 96.5504 30.0639C94.8076 33.0317 93.8698 36.3817 93.8254 39.7987Z" fill="#46A3DB"/>
<path d="M102.484 80.5808C104.687 79.3411 106.567 79.2641 108.124 80.35C109.682 81.4358 110.461 83.3682 110.461 86.1472C110.413 89.1 109.62 91.9962 108.15 94.5807C106.613 97.4213 104.754 99.453 102.575 100.676C100.395 101.899 98.5441 101.949 97.0211 100.827C95.4952 99.7077 94.7323 97.7557 94.7323 94.9711C94.7699 92.0344 95.5484 89.1515 96.9995 86.5754C98.511 83.7824 100.339 81.7842 102.484 80.5808Z" fill="#46A3DB"/>
</svg>
