<svg width="75" height="12" viewBox="0 0 75 12" fill="none" xmlns="http://www.w3.org/2000/svg">
<path d="M5.97825 0.314209L7.82542 4.05742L11.9565 4.65765L8.96738 7.57132L9.67281 11.6856L5.97825 9.7431L2.28346 11.6856L2.98914 7.57132L0 4.65765L4.13085 4.05742L5.97825 0.314209Z" fill="#FAC917"/>
<path d="M21.7391 0.314209L23.5863 4.05742L27.7174 4.65765L24.7282 7.57132L25.4337 11.6856L21.7391 9.7431L18.0443 11.6856L18.75 7.57132L15.7609 4.65765L19.8917 4.05742L21.7391 0.314209Z" fill="#FAC917"/>
<path d="M37.5 0.314209L39.3471 4.05742L43.4783 4.65765L40.4891 7.57132L41.1945 11.6856L37.5 9.7431L33.8052 11.6856L34.5109 7.57132L31.5217 4.65765L35.6526 4.05742L37.5 0.314209Z" fill="#FAC917"/>
<path d="M53.2608 0.314209L55.108 4.05742L59.2391 4.65765L56.25 7.57132L56.9554 11.6856L53.2608 9.7431L49.5661 11.6856L50.2717 7.57132L47.2826 4.65765L51.4134 4.05742L53.2608 0.314209Z" fill="#FAC917"/>
<path d="M69.0217 0.314209L70.8689 4.05742L75 4.65765L72.0109 7.57132L72.7163 11.6856L69.0217 9.7431L65.3269 11.6856L66.0326 7.57132L63.0435 4.65765L67.1743 4.05742L69.0217 0.314209Z" fill="#FAC917"/>
</svg>
