<svg width="360" height="215" viewBox="0 0 360 215" fill="none" xmlns="http://www.w3.org/2000/svg">
<path d="M21.2779 181.308L10.241 173.456C11.5032 167.161 14.5741 161.221 19.1871 156.15C19.5581 167.494 33.3895 175.091 38.1491 185.71C39.6034 189.032 40.1499 192.586 39.7481 196.109C39.3463 199.633 38.0066 203.035 35.8281 206.064L34.7178 214.634C28.6903 211.993 23.4154 208.286 19.2565 203.766C15.0977 199.247 12.1537 194.023 10.6274 188.456C9.80803 185.325 9.46084 182.12 9.59408 178.916C15.2451 180.362 21.2779 181.308 21.2779 181.308Z" fill="#F2F2F2"/>
<path d="M330.659 196.326L338.366 186.043C345.957 186.214 353.383 187.941 360 191.073C346.69 192.966 339.673 205.54 327.829 210.985C324.12 212.66 320.01 213.611 315.804 213.768C311.598 213.926 307.403 213.286 303.531 211.895L293.282 212.168C295.55 206.782 299.181 201.873 303.923 197.78C308.666 193.687 314.407 190.507 320.753 188.459C324.326 187.34 328.052 186.603 331.844 186.267C330.931 191.172 330.659 196.326 330.659 196.326Z" fill="#F2F2F2"/>
<path d="M86.6972 162.802L43.962 160.695L49.82 125.871L87.4784 159.991L86.6972 162.802Z" fill="#F2F2F2"/>
<path d="M81.2574 198.33L37.7411 195.867L43.5434 164.212L81.4537 195.873L81.2574 198.33Z" fill="#F2F2F2"/>
<path d="M324.355 51.43V19.2632C324.355 16.8183 323.783 14.3974 322.67 12.1387C321.557 9.87992 319.925 7.82757 317.869 6.0988C315.813 4.37003 313.371 2.99869 310.684 2.06309C307.998 1.12749 305.118 0.645935 302.21 0.645935H221.143C218.235 0.645935 215.355 1.12749 212.668 2.06309C209.981 2.99869 207.54 4.37003 205.483 6.0988C203.427 7.82757 201.796 9.87992 200.683 12.1387C199.57 14.3974 198.997 16.8183 198.997 19.2632V195.733C198.997 200.67 201.33 205.406 205.483 208.897C209.636 212.388 215.269 214.35 221.143 214.35H302.21C308.083 214.35 313.716 212.388 317.869 208.897C322.022 205.406 324.355 200.67 324.355 195.733V74.3269C324.726 74.3269 325.081 74.2031 325.343 73.9829C325.605 73.7627 325.752 73.4641 325.752 73.1527V52.6042C325.752 52.2928 325.605 51.9941 325.343 51.7739C325.081 51.5537 324.726 51.43 324.355 51.43Z" fill="#3F3D56"/>
<path d="M319.642 19.391V195.606C319.643 199.266 317.925 202.778 314.863 205.38C311.8 207.982 307.64 209.463 303.287 209.501C303.227 209.506 303.166 209.508 303.106 209.507H221.644C217.259 209.507 213.053 208.042 209.952 205.435C206.851 202.828 205.108 199.292 205.108 195.606V19.391C205.108 15.7041 206.851 12.1684 209.952 9.56141C213.053 6.95441 217.259 5.48966 221.644 5.48932H231.53C231.044 6.49261 230.859 7.58093 230.991 8.65852C231.123 9.73612 231.568 10.77 232.286 11.6691C233.005 12.5682 233.976 13.305 235.113 13.8148C236.25 14.3245 237.518 14.5915 238.807 14.5923H285.25C286.537 14.5893 287.804 14.3208 288.939 13.8103C290.074 13.2998 291.043 12.5629 291.761 11.6643C292.479 10.7657 292.923 9.7328 293.055 8.65619C293.187 7.57958 293.003 6.49216 292.519 5.48932H303.106C307.491 5.48966 311.697 6.9544 314.798 9.56139C317.9 12.1684 319.642 15.7041 319.642 19.391Z" fill="white"/>
<path d="M301.707 205.206C301.707 207.031 301.639 208.842 301.502 210.637C301.443 210.643 301.382 210.645 301.322 210.644H219.863C216.178 210.644 212.598 209.609 209.691 207.703C206.785 205.798 204.719 203.131 203.821 200.126C203.663 199.602 203.544 199.07 203.465 198.533C203.372 197.939 203.326 197.341 203.327 196.742V118.213C209.595 118.474 215.822 119.213 221.93 120.422C222.529 120.538 223.123 120.661 223.713 120.788C223.75 120.795 223.788 120.806 223.826 120.813C224.424 120.939 225.018 121.073 225.608 121.21C238.201 124.118 250.022 129.011 260.442 135.628C261.04 136.005 261.635 136.392 262.225 136.782L262.338 136.856C263.325 137.51 264.297 138.181 265.254 138.868C265.467 139.019 265.681 139.174 265.89 139.332C266.405 139.705 266.919 140.085 267.421 140.469C278.533 148.877 287.354 159.203 293.28 170.741C293.477 171.117 293.665 171.497 293.853 171.877C293.929 172.032 294.004 172.186 294.079 172.341C294.151 172.482 294.217 172.623 294.284 172.763C299.204 183.079 301.723 194.092 301.707 205.206Z" fill="#3F3D56"/>
<path d="M199.445 69.4253C198.945 69.4248 198.466 69.2577 198.112 68.9606C197.759 68.6635 197.56 68.2607 197.56 67.8405V57.064C197.56 56.6437 197.758 56.2406 198.112 55.9434C198.465 55.6462 198.945 55.4792 199.445 55.4792C199.945 55.4792 200.424 55.6462 200.778 55.9434C201.131 56.2406 201.33 56.6437 201.33 57.064V67.8405C201.329 68.2607 201.131 68.6635 200.777 68.9606C200.424 69.2577 199.945 69.4248 199.445 69.4253Z" fill="#3F3D56"/>
<path d="M199.068 48.5063C198.568 48.5058 198.089 48.3387 197.735 48.0416C197.382 47.7445 197.183 47.3417 197.183 46.9215V36.145C197.183 35.7247 197.381 35.3216 197.735 35.0244C198.088 34.7272 198.568 34.5602 199.068 34.5602C199.568 34.5602 200.047 34.7272 200.401 35.0244C200.754 35.3216 200.953 35.7247 200.953 36.145V46.9215C200.952 47.3417 200.754 47.7445 200.4 48.0416C200.047 48.3387 199.568 48.5058 199.068 48.5063Z" fill="#3F3D56"/>
<path d="M249.213 7.302C249.214 6.88185 249.412 6.47904 249.766 6.18194C250.119 5.88485 250.598 5.71772 251.098 5.71723H263.917C264.165 5.71692 264.41 5.75768 264.639 5.83718C264.868 5.91668 265.077 6.03337 265.252 6.18056C265.427 6.32775 265.566 6.50256 265.661 6.69499C265.756 6.88742 265.805 7.09369 265.805 7.30201C265.805 7.51032 265.756 7.71659 265.661 7.90902C265.566 8.10145 265.427 8.27626 265.252 8.42345C265.077 8.57064 264.868 8.68733 264.639 8.76683C264.41 8.84633 264.165 8.8871 263.917 8.88679H251.098C250.598 8.88629 250.119 8.71917 249.766 8.42207C249.412 8.12497 249.214 7.72216 249.213 7.302Z" fill="white"/>
<path d="M199.445 87.8087C198.945 87.8082 198.466 87.6411 198.112 87.344C197.759 87.0469 197.56 86.6441 197.56 86.2239V75.4474C197.56 75.0271 197.758 74.624 198.112 74.3268C198.465 74.0296 198.945 73.8627 199.445 73.8627C199.945 73.8627 200.424 74.0296 200.778 74.3268C201.131 74.624 201.33 75.0271 201.33 75.4474V86.2239C201.329 86.6441 201.131 87.0469 200.777 87.344C200.424 87.6411 199.945 87.8082 199.445 87.8087Z" fill="#3F3D56"/>
<path d="M271.081 8.88678C272.122 8.88678 272.966 8.17725 272.966 7.302C272.966 6.42675 272.122 5.71722 271.081 5.71722C270.04 5.71722 269.196 6.42675 269.196 7.302C269.196 8.17725 270.04 8.88678 271.081 8.88678Z" fill="white"/>
<path opacity="0.2" d="M264.12 197.397C264.12 194.106 264.89 190.848 266.388 187.808C267.885 184.768 270.081 182.005 272.848 179.679C275.616 177.352 278.902 175.507 282.518 174.248C286.135 172.989 290.01 172.341 293.925 172.341H294.079C294.004 172.186 293.929 172.032 293.853 171.877C293.665 171.497 293.477 171.117 293.28 170.741H264.12V139.332H265.89C265.681 139.174 265.467 139.019 265.254 138.868C264.296 138.182 263.324 137.512 262.338 136.856L262.225 136.782V137.732H225.608V121.21C225.018 121.073 224.424 120.939 223.826 120.813C223.788 120.805 223.75 120.795 223.713 120.788V137.732H205.109V139.332H223.713V170.741H205.109V172.341H223.713V197.397H205.247C205.327 197.933 205.446 198.466 205.603 198.99H223.713V209.508H225.608V198.99H262.225V209.508H264.12V198.99H296.067V197.397H264.12ZM262.225 197.397H225.608V172.341H262.225V197.397ZM262.225 170.741H225.608V170.115C225.608 161.951 229.466 154.121 236.333 148.348C243.2 142.576 252.513 139.332 262.225 139.332V170.741Z" fill="black"/>
<path d="M99.8586 82.531L79.5357 213.954L79.4059 214.791H78.5607L78.6904 213.954L99.0301 82.4396L99.8586 82.531Z" fill="#E5E5E5"/>
<path d="M57.5473 82.6964L35.1364 213.968L34.9941 214.805H34.1489L34.2912 213.968L56.7188 82.5979L57.5473 82.6964Z" fill="#E5E5E5"/>
<path d="M131.458 214.773L130.588 214.777L130.32 213.94L86.9669 78.5668L87.7744 78.3839L131.186 213.94L131.458 214.773Z" fill="#3F3D56"/>
<path d="M129.622 78.3786L128.817 78.5705L174.503 214.05L175.308 213.858L129.622 78.3786Z" fill="#3F3D56"/>
<path d="M166.588 189.193L125.161 196.398L125.33 197.087L166.757 189.883L166.588 189.193Z" fill="#3F3D56"/>
<path d="M159.405 168.06L117.978 175.265L118.148 175.954L159.575 168.749L159.405 168.06Z" fill="#3F3D56"/>
<path d="M152.228 146.926L111.09 153.619L111.249 154.309L152.387 147.616L152.228 146.926Z" fill="#3F3D56"/>
<path d="M145.045 125.797L104.803 132.482L104.965 133.172L145.207 126.487L145.045 125.797Z" fill="#3F3D56"/>
<path d="M56.8399 82.672C56.2106 79.216 57.2402 75.6915 59.7021 72.8737C62.1641 70.0559 65.8567 68.1756 69.9677 67.6466C74.0787 67.1176 78.2714 67.9831 81.6233 70.0528C84.9752 72.1224 87.2118 75.2267 87.8411 78.6827L87.014 78.7891C86.7199 77.1686 86.0489 75.6126 85.0393 74.2101C84.0297 72.8076 82.7013 71.5861 81.1299 70.6153C79.5586 69.6446 77.7751 68.9436 75.8814 68.5524C73.9877 68.1613 72.0209 68.0876 70.0933 68.3356C68.1657 68.5837 66.3151 69.1486 64.6473 69.998C62.9795 70.8475 61.5271 71.9648 60.3732 73.2863C59.2192 74.6078 58.3863 76.1074 57.9219 77.6996C57.4576 79.2917 57.3709 80.9452 57.667 82.5655L56.8399 82.672Z" fill="#3F3D56"/>
<path d="M98.75 82.8294C98.411 81.1215 98.4756 79.3742 98.9401 77.6873C99.4045 76.0004 100.26 74.4069 101.457 72.9979C102.654 71.5889 104.17 70.3919 105.917 69.4754C107.665 68.5589 109.61 67.9408 111.642 67.6564C113.673 67.372 115.752 67.4269 117.758 67.8178C119.765 68.2088 121.66 68.9283 123.336 69.9352C125.011 70.942 126.435 72.2165 127.524 73.6859C128.614 75.1552 129.349 76.7907 129.686 78.4988L128.861 78.6142C128.213 75.3508 126.049 72.4375 122.846 70.5147C119.643 68.5919 115.663 67.8171 111.781 68.3606C107.899 68.9041 104.432 70.7214 102.143 73.413C99.8545 76.1046 98.9309 79.4501 99.5754 82.714L98.75 82.8294Z" fill="#3F3D56"/>
<path d="M141.988 111.537L133.947 127.983L160.148 127.823L157.483 111.5L141.988 111.537Z" fill="#FFB6B6"/>
<path d="M148.386 187.035L152.273 187.512L156.308 175.137L150.572 174.434L148.386 187.035Z" fill="#FFB6B6"/>
<path d="M147.702 185.306L153.899 185.751L153.515 187.964L158.768 192.071C159.027 192.274 159.203 192.541 159.268 192.834C159.334 193.126 159.287 193.429 159.134 193.698C158.981 193.966 158.73 194.186 158.417 194.326C158.104 194.467 157.747 194.519 157.396 194.476L150.082 193.579L149.201 191.236L148.329 193.364L145.572 193.026L147.702 185.306Z" fill="#2F2E41"/>
<path d="M103.473 177.896L106.574 179.923L117.348 170.834L112.773 167.843L103.473 177.896Z" fill="#FFB6B6"/>
<path d="M103.894 176.107L109.022 179.066L107.39 180.831L109.547 186.582C109.653 186.866 109.649 187.171 109.535 187.453C109.42 187.735 109.202 187.979 108.911 188.149C108.62 188.319 108.272 188.406 107.918 188.399C107.564 188.391 107.222 188.288 106.942 188.105L101.107 184.29L101.717 181.887L99.7088 183.376L97.5089 181.938L103.894 176.107Z" fill="#2F2E41"/>
<path d="M135.426 124.081L132.846 126.954L125.977 152.076L110.365 169.802L115.613 174.038L135.526 157.798L145.298 140.446L150.242 156.474L148.987 177.931L157.355 177.579C159.624 152.678 163.171 127.057 158.992 119.861C156.238 121.881 153.022 123.408 149.542 124.347C146.062 125.286 142.39 125.619 138.751 125.324L135.426 124.081Z" fill="#2F2E41"/>
<path d="M149.239 84.9407L155.841 91.0097C157.29 92.3417 158.208 94.0205 158.468 95.8121C158.586 96.6257 158.567 97.4492 158.41 98.2581L156.986 107.024L159.497 120.39C159.497 120.39 155.919 122.225 149.036 126.019C146.227 127.567 133.12 127.542 133.136 127.074C133.21 124.906 135.517 119.065 136.065 111.948C136.742 103.165 135.854 92.6811 138.157 87.6772C140.969 81.5688 149.239 84.9407 149.239 84.9407Z" fill="#E15145"/>
<path d="M126.583 123.831C126.871 123.479 127.064 123.078 127.147 122.656C127.231 122.235 127.204 121.803 127.068 121.391C126.931 120.979 126.689 120.597 126.358 120.273C126.028 119.948 125.616 119.688 125.153 119.512L125.411 112.833L120.622 111.711L120.415 121.147C120.114 121.821 120.117 122.564 120.424 123.236C120.731 123.908 121.32 124.461 122.081 124.792C122.841 125.123 123.719 125.208 124.549 125.031C125.379 124.854 126.102 124.427 126.583 123.831Z" fill="#FFB6B6"/>
<path d="M120.194 96.8717C120.336 96.5605 120.552 96.2774 120.831 96.0403C121.109 95.8031 121.443 95.6172 121.811 95.4941C124.36 94.5938 135.381 87.0231 135.787 87.1653L139.285 85.7136C139.415 85.7148 142.861 85.7833 144.552 87.395C144.903 87.7353 145.163 88.1355 145.313 88.5681C145.463 89.0008 145.5 89.4556 145.421 89.9013C144.926 93.7397 129.303 102.361 127.647 102.303L125.893 113.201L126.576 117.365L120.187 117.517L118.218 111.387C117.935 110.94 117.578 102.472 120.194 96.8717Z" fill="#E15145"/>
<path d="M145.809 91.0504C146.326 88.0708 144.336 85.3598 141.363 84.9952C138.39 84.6307 135.561 86.7506 135.044 89.7303C134.527 92.7099 136.518 95.4209 139.49 95.7855C142.463 96.15 145.292 94.0301 145.809 91.0504Z" fill="#E15145"/>
<path d="M97.7828 110.532L97.6208 109.842L136.483 102.451V103.154L97.7828 110.532Z" fill="#3F3D56"/>
<path d="M269.827 60.8207H254.923C251.707 60.8207 249.101 63.0118 249.101 65.7147V65.7147C249.101 68.4175 251.707 70.6086 254.923 70.6086H269.827C273.043 70.6086 275.649 68.4175 275.649 65.7147C275.649 63.0118 273.043 60.8207 269.827 60.8207Z" fill="#E6E6E6"/>
<path d="M297.48 80.3966H227.27C224.055 80.3966 221.448 82.5877 221.448 85.2906V85.2906C221.448 87.9935 224.055 90.1846 227.27 90.1846H297.48C300.695 90.1846 303.302 87.9935 303.302 85.2906C303.302 82.5877 300.695 80.3966 297.48 80.3966Z" fill="#E6E6E6"/>
<path d="M267.353 95.0479H197.143C193.928 95.0479 191.322 97.239 191.322 99.9419V99.9419C191.322 102.645 193.928 104.836 197.143 104.836H267.353C270.568 104.836 273.175 102.645 273.175 99.9419C273.175 97.239 270.568 95.0479 267.353 95.0479Z" fill="#E15145"/>
<path d="M359.901 214.281C359.901 214.336 359.889 214.391 359.864 214.441C359.839 214.492 359.802 214.538 359.756 214.577C359.709 214.616 359.654 214.647 359.594 214.668C359.533 214.689 359.469 214.7 359.403 214.7L111.406 214.773L110.536 214.777L59.3538 214.791H58.5086L14.942 214.805H14.0968L0.497928 214.809C0.36587 214.809 0.239218 214.765 0.145839 214.686C0.0524594 214.608 0 214.501 0 214.39C0 214.279 0.0524594 214.173 0.145839 214.094C0.239218 214.016 0.36587 213.971 0.497928 213.971L14.239 213.968H15.0843L58.6383 213.954H59.4835L110.268 213.94H111.134L154.408 213.926H154.977L359.403 213.862C359.469 213.862 359.533 213.873 359.594 213.894C359.654 213.915 359.709 213.946 359.756 213.985C359.802 214.024 359.839 214.07 359.864 214.121C359.889 214.172 359.901 214.226 359.901 214.281Z" fill="#CACACA"/>
<path d="M156.225 78.8802C154.976 80.2751 153.199 81.2708 151.187 81.7033C149.175 82.1358 147.047 81.9793 145.155 81.2597C143.263 80.54 141.718 79.3 140.776 77.7439C139.834 76.1879 139.551 74.4085 139.973 72.6989C140.394 70.9893 141.496 69.4514 143.096 68.3384C144.696 67.2255 146.7 66.6038 148.776 66.5759C150.853 66.5479 152.879 67.1154 154.521 68.1847C156.163 69.2541 157.322 70.7616 157.809 72.459C157.835 72.5511 157.857 72.6427 157.879 72.7377C158.136 73.8017 158.121 74.8993 157.836 75.9582C157.551 77.017 157.002 78.013 156.225 78.8802Z" fill="#FFB6B6"/>
<path d="M158.603 72.8266C158.373 71.8634 158.46 72.3611 158.225 71.4009C158.273 71.8657 158.153 72.3319 157.879 72.7377L147.109 71.417L148.022 66.1542C151.36 65.4899 154.6 64.9736 156.125 67.1479C157.786 67.3515 159.282 68.1013 160.284 69.2322C161.287 70.3632 161.715 71.7826 161.472 73.1784L158.603 72.8266Z" fill="#2F2E41"/>
<path d="M152.247 86.9879C152.256 86.8894 152.261 86.7869 152.261 86.6874C152.241 85.9547 152.127 85.2259 151.924 84.5132C151.741 83.7407 151.554 82.9642 151.367 82.1911C151.541 83.574 151.173 84.9668 150.319 86.1578C148.708 84.7445 149.773 82.6987 147.397 82.4072C141.683 81.7065 137.033 76.5551 137.867 71.7482C138.701 66.9448 141.775 63.6534 147.489 64.3541C153.207 65.0553 157.463 67.8238 156.741 72.6409C149.461 73.17 153.661 86.6636 152.247 86.9879Z" fill="#2F2E41"/>
<path d="M139.676 68.7387C141.783 68.7387 143.492 67.3023 143.492 65.5304C143.492 63.7585 141.783 62.3221 139.676 62.3221C137.568 62.3221 135.859 63.7585 135.859 65.5304C135.859 67.3023 137.568 68.7387 139.676 68.7387Z" fill="#2F2E41"/>
<path d="M144.203 62.8814C143.847 62.2339 143.306 61.6703 142.629 61.2403C141.952 60.8104 141.16 60.5274 140.322 60.4165C140.912 60.6409 141.428 60.984 141.823 61.4154C142.219 61.8469 142.482 62.3535 142.59 62.8906C142.697 63.4277 142.646 63.9789 142.441 64.4955C142.236 65.0121 141.882 65.4783 141.412 65.8531L142.184 65.2956C142.394 65.4462 142.656 65.5364 142.932 65.5529C143.207 65.5695 143.482 65.5115 143.716 65.3876C143.945 65.2579 144.136 65.0862 144.275 64.8855C144.414 64.6848 144.497 64.4602 144.517 64.2287C144.554 63.7642 144.446 63.2997 144.203 62.8814Z" fill="#2F2E41"/>
<path d="M192.784 96.815C192.33 96.6218 191.831 96.5146 191.323 96.5009C190.815 96.4873 190.309 96.5674 189.842 96.7358C189.375 96.9042 188.957 97.1567 188.618 97.4754C188.279 97.7942 188.028 98.1716 187.881 98.5809L179.973 99.2544L179.288 103.394L190.44 102.311C191.274 102.473 192.15 102.371 192.901 102.026C193.652 101.681 194.227 101.116 194.516 100.438C194.805 99.7608 194.788 99.0178 194.469 98.35C194.149 97.6822 193.55 97.136 192.784 96.815Z" fill="#FFB6B6"/>
<path d="M161.849 105.724C161.464 105.648 161.101 105.505 160.784 105.305C160.468 105.105 160.204 104.851 160.01 104.561C158.61 102.557 148.218 94.3818 148.331 94.0245L146.154 91.3025C146.139 91.1948 145.761 88.3142 147.436 86.6911C147.791 86.3529 148.228 86.0833 148.718 85.9007C149.208 85.718 149.739 85.6268 150.275 85.6331C154.866 85.5349 166.409 97.7501 166.561 99.1374L180.343 98.8038L185.161 97.6811L186.191 102.984L179.225 105.44C178.736 105.735 168.8 107.159 161.849 105.724Z" fill="#E15145"/>
</svg>
