<svg width="216" height="188" viewBox="0 0 216 188" fill="none" xmlns="http://www.w3.org/2000/svg">
<path d="M58.2491 38.7705C59.6427 33.4146 63.6194 29.4184 68.4945 27.7675C68.4994 27.7675 68.5043 27.7626 68.5043 27.7578C68.4897 26.4759 68.6402 25.1697 68.9801 23.8635C70.801 16.8811 77.327 12.3799 84.2755 12.8751C84.2803 12.8751 84.2852 12.8703 84.2852 12.8654C86.3343 6.79584 92.7535 3.25605 99.0513 4.89727C99.3232 4.9701 99.5951 5.05265 99.8574 5.14005C99.8622 5.14005 99.867 5.14006 99.8719 5.13521C102.164 1.21668 106.859 -0.866418 111.467 0.342645C117.046 1.8042 120.285 7.63588 118.833 13.2199L94.924 105.007L94.788 104.9C94.7832 104.924 94.7783 104.944 94.7734 104.968C93.3507 110.426 87.7764 113.694 82.3235 112.271C77.9291 111.125 74.9526 107.284 74.705 102.982C74.705 102.977 74.7001 102.972 74.6952 102.972C69.2957 101.326 65.8822 96.1111 66.3872 90.6193C66.3872 90.6145 66.3872 90.6096 66.3823 90.6096C61.1576 88.2352 58.2394 82.3793 59.7349 76.635C59.8563 76.1737 60.0068 75.7221 60.1719 75.29C60.1719 75.2851 60.1719 75.2803 60.1671 75.2754C55.8844 71.7453 53.7867 65.9331 55.2774 60.2083C56.1611 56.819 58.152 54.0173 60.7643 52.0896C60.7692 52.0847 60.7692 52.0799 60.7692 52.075C58.0791 48.375 57.006 43.5436 58.2491 38.7705Z" fill="#46A3DB"/>
<path d="M113.37 34.177L94.9235 105.007L94.7827 104.895L94.7681 104.968C93.3454 110.421 87.7711 113.693 82.3182 112.271C77.9238 111.125 74.9473 107.284 74.6997 102.982C74.6997 102.977 74.6948 102.977 74.6899 102.972C69.2904 101.331 65.8769 96.1111 66.3819 90.6193C66.3819 90.6144 66.3819 90.6096 66.377 90.6096C61.1523 88.2303 58.2341 82.3792 59.7296 76.635C59.8462 76.1737 59.9967 75.7221 60.1666 75.2899C60.1666 75.2851 60.1666 75.2802 60.1618 75.2754C55.8791 71.7453 53.7814 65.9331 55.277 60.2082C56.1558 56.819 58.1515 54.0172 60.7639 52.0895C60.7687 52.0847 60.7687 52.0798 60.7639 52.075C58.0787 48.3749 57.0056 43.5435 58.2486 38.7704C59.6422 33.4195 63.619 29.4232 68.4941 27.7675C68.499 27.7675 68.499 27.7626 68.499 27.7578C68.4844 26.4759 68.6398 25.1648 68.9797 23.8635C70.4509 18.1969 75.0347 14.1619 80.4196 13.113C88.2033 23.8344 99.8763 31.55 113.37 34.177Z" fill="#DC1F26"/>
<path d="M107.825 55.4545L94.9235 105.007L94.7827 104.895L94.7681 104.968C93.3454 110.421 87.7711 113.693 82.3182 112.271C77.9238 111.125 74.9473 107.284 74.6997 102.982C74.6997 102.977 74.6948 102.977 74.6899 102.972C69.2904 101.331 65.8769 96.111 66.3819 90.6193C66.3819 90.6144 66.3819 90.6096 66.377 90.6096C61.1523 88.2303 58.2341 82.3792 59.7296 76.6349C59.8462 76.1736 59.9967 75.722 60.1666 75.2899C60.1666 75.285 60.1666 75.2802 60.1618 75.2753C55.8791 71.7453 53.7814 65.933 55.277 60.2082C56.1558 56.8189 58.1515 54.0172 60.7639 52.0895C60.7687 52.0846 60.7687 52.0798 60.7639 52.0749C58.0787 48.3749 57.0056 43.5435 58.2486 38.7704C59.5694 33.6962 63.216 29.8359 67.7512 28.0442C76.3894 42.2276 90.8545 52.4779 107.825 55.4545Z" fill="#F6881F"/>
<path d="M101.76 78.7569L94.9235 105.007L94.7827 104.895L94.7681 104.968C93.3454 110.421 87.7711 113.694 82.3182 112.271C77.9238 111.125 74.9473 107.284 74.6997 102.982C74.6997 102.977 74.6948 102.977 74.6899 102.972C69.2904 101.331 65.8769 96.1111 66.3819 90.6193C66.3819 90.6145 66.3819 90.6096 66.377 90.6096C61.1523 88.2304 58.2341 82.3793 59.7296 76.635C59.8462 76.1737 59.9967 75.7221 60.1666 75.29C60.1666 75.2851 60.1666 75.2803 60.1618 75.2754C55.8791 71.7453 53.7814 65.9331 55.277 60.2083C56.1558 56.819 58.1515 54.0173 60.7639 52.0896C60.7687 52.0847 60.7687 52.0799 60.7639 52.075C59.045 49.7103 57.9864 46.8746 57.7728 43.8932C65.4593 61.0531 80.978 74.4208 100.789 78.5627C101.115 78.6307 101.435 78.6938 101.76 78.7569Z" fill="#FED304"/>
<path d="M96.8075 97.7767L94.9235 105.007L94.7827 104.895L94.7681 104.968C93.3454 110.421 87.7711 113.694 82.3182 112.271C77.9238 111.125 74.9473 107.284 74.6996 102.982C74.6996 102.977 74.6948 102.977 74.6899 102.972C69.2904 101.331 65.8769 96.1112 66.3819 90.6194C66.3819 90.6145 66.3819 90.6097 66.377 90.6097C61.1523 88.2304 58.234 82.3793 59.7296 76.6351C59.8461 76.1738 59.9967 75.7222 60.1666 75.2901C60.1666 75.2852 60.1666 75.2803 60.1618 75.2755C56.9085 72.5903 54.9128 68.5892 54.8011 64.3065C62.5702 80.7964 77.6519 93.6057 96.8075 97.7767Z" fill="#0B8D45"/>
<path d="M160.805 61.9126C160.805 63.2382 160.635 64.5881 160.286 65.9282C159.038 70.6965 155.746 74.3868 151.589 76.3C151.584 76.3048 151.584 76.3097 151.584 76.3194C152.274 77.8489 152.711 79.4998 152.847 81.209C152.852 81.2576 152.857 81.311 152.857 81.3596C152.866 81.4713 152.871 81.5829 152.876 81.6946C152.944 83.1367 152.793 84.6129 152.41 86.0841C150.914 91.8041 146.243 95.8538 140.781 96.8395C140.776 96.8395 140.771 96.8443 140.771 96.8492C140.708 97.3153 140.62 97.7766 140.499 98.2379C138.999 103.982 133.589 107.663 127.869 107.182C127.864 107.182 127.86 107.187 127.86 107.192C125.616 112.232 120.09 115.116 114.574 113.912C114.57 113.912 114.565 113.912 114.56 113.917C112.244 117.549 107.772 119.447 103.377 118.297C100.032 117.428 97.5116 114.99 96.3948 111.979C96.39 111.979 96.3899 111.979 96.3899 111.979C96.3851 111.96 96.3754 111.941 96.3754 111.926C96.3414 111.839 96.3074 111.756 96.2831 111.674C96.1957 111.426 96.1229 111.173 96.0598 110.921V110.916C95.6519 109.304 95.6325 107.566 96.084 105.842C96.0889 105.818 96.0937 105.798 96.1034 105.774L95.9287 105.803L97.9632 98.0194L102.94 78.9706L109.034 55.6585L112.919 40.7856L113.919 36.9544L114.589 34.4004L116.56 26.8546L116.687 26.3691L119.911 14.0308C121.368 8.45162 127.044 4.94583 132.628 6.39283C137.236 7.59218 140.314 11.7049 140.402 16.2401C140.402 16.2498 140.407 16.2547 140.411 16.2547C140.683 16.3081 140.96 16.3664 141.232 16.4344C146.646 17.8474 150.273 22.6593 150.429 27.986C150.453 28.8455 150.39 29.7243 150.225 30.6032C150.22 30.6081 150.225 30.6129 150.23 30.6178C154.333 32.5455 157.251 36.2406 158.276 40.5088C158.31 40.6496 158.344 40.7904 158.373 40.9312C158.426 41.174 158.47 41.4168 158.509 41.6644C158.547 41.9266 158.581 42.1937 158.611 42.4656C158.625 42.6064 158.64 42.7472 158.649 42.8929C158.664 43.0677 158.674 43.2425 158.679 43.4173C158.683 43.5873 158.688 43.7621 158.688 43.932C158.688 45.1654 158.533 46.423 158.208 47.6758C157.868 48.9771 157.363 50.1959 156.722 51.3078C156.717 51.3127 156.717 51.3175 156.722 51.3224C158.339 53.119 159.533 55.2652 160.198 57.5911C160.261 57.8096 160.32 58.0281 160.368 58.2514C160.378 58.2806 160.388 58.3097 160.393 58.3388C160.441 58.5525 160.49 58.771 160.529 58.9895C160.572 59.2128 160.611 59.4362 160.64 59.6644C160.674 59.8781 160.698 60.0966 160.723 60.3151C160.732 60.4073 160.742 60.5045 160.747 60.5967C160.766 60.7909 160.781 60.9803 160.786 61.1745C160.8 61.4173 160.805 61.665 160.805 61.9126Z" fill="#0B8D45"/>
<path d="M160.805 61.9126C160.805 63.2382 160.635 64.5881 160.286 65.9282C159.038 70.6965 155.746 74.3868 151.589 76.3C151.584 76.3048 151.584 76.3097 151.584 76.3194C152.274 77.8489 152.711 79.4998 152.847 81.209C152.852 81.2576 152.857 81.311 152.857 81.3596C152.866 81.4713 152.871 81.5829 152.876 81.6946C152.944 83.1367 152.793 84.6129 152.41 86.0841C150.914 91.8041 146.243 95.8538 140.781 96.8395C140.776 96.8395 140.771 96.8443 140.771 96.8492C140.708 97.3153 140.62 97.7766 140.499 98.2379C138.999 103.982 133.589 107.663 127.869 107.182C127.864 107.182 127.86 107.187 127.86 107.192C125.616 112.232 120.09 115.116 114.574 113.912C114.57 113.912 114.565 113.912 114.56 113.917C112.244 117.549 107.772 119.447 103.377 118.297C100.032 117.428 97.5116 114.99 96.3948 111.979C96.39 111.979 96.3899 111.979 96.3899 111.979C96.3851 111.96 96.3754 111.941 96.3754 111.926C96.3414 111.839 96.3074 111.756 96.2831 111.674C96.1957 111.426 96.1229 111.173 96.0598 110.921V110.916C95.6519 109.304 95.6325 107.566 96.084 105.842C96.0889 105.818 96.0937 105.798 96.1034 105.774L95.9287 105.803L97.9632 98.0194L102.94 78.9706L109.034 55.6585L112.919 40.7856L113.919 36.9544L114.589 34.4004L116.56 26.8546L116.687 26.3691L119.911 14.0308C121.368 8.45162 127.044 4.94583 132.628 6.39283C137.236 7.59218 140.314 11.7049 140.402 16.2401C140.402 16.2498 140.407 16.2547 140.411 16.2547C140.683 16.3081 140.96 16.3664 141.232 16.4344C146.646 17.8474 150.273 22.6593 150.429 27.986C150.453 28.8455 150.39 29.7243 150.225 30.6032C150.22 30.6081 150.225 30.6129 150.23 30.6178C154.333 32.5455 157.251 36.2406 158.276 40.5088C158.31 40.6496 158.344 40.7904 158.373 40.9312C158.426 41.174 158.47 41.4168 158.509 41.6644C158.547 41.9266 158.581 42.1937 158.611 42.4656C158.625 42.6064 158.64 42.7472 158.649 42.8929C158.664 43.0677 158.674 43.2425 158.679 43.4173C158.683 43.5873 158.688 43.7621 158.688 43.932C158.688 45.1654 158.533 46.423 158.208 47.6758C157.868 48.9771 157.363 50.1959 156.722 51.3078C156.717 51.3127 156.717 51.3175 156.722 51.3224C158.339 53.119 159.533 55.2652 160.198 57.5911C160.261 57.8096 160.32 58.0281 160.368 58.2514C160.378 58.2806 160.388 58.3097 160.393 58.3388C160.441 58.5525 160.49 58.771 160.529 58.9895C160.572 59.2128 160.611 59.4362 160.64 59.6644C160.674 59.8781 160.698 60.0966 160.723 60.3151C160.732 60.4073 160.742 60.5045 160.747 60.5967C160.766 60.7909 160.781 60.9803 160.786 61.1745C160.8 61.4173 160.805 61.665 160.805 61.9126Z" fill="#46A3DB"/>
<path d="M160.805 61.9126C160.805 63.2382 160.635 64.588 160.286 65.9282C159.038 70.6965 155.746 74.3868 151.589 76.2999C151.584 76.3048 151.584 76.3096 151.584 76.3193C152.274 77.8489 152.711 79.4998 152.847 81.209C152.852 81.2576 152.857 81.311 152.857 81.3595C152.866 81.4712 152.871 81.5829 152.876 81.6946C152.944 83.1367 152.793 84.6128 152.41 86.0841C150.914 91.8041 146.243 95.8537 140.781 96.8394C140.776 96.8394 140.771 96.8443 140.771 96.8491C140.708 97.3153 140.62 97.7766 140.499 98.2378C138.999 103.982 133.589 107.663 127.869 107.182C127.864 107.182 127.86 107.187 127.86 107.192C125.616 112.232 120.09 115.116 114.574 113.912C114.57 113.912 114.565 113.912 114.56 113.917C112.244 117.549 107.772 119.447 103.377 118.297C100.032 117.427 97.5116 114.99 96.3948 111.979C96.39 111.979 96.3899 111.979 96.3899 111.979C96.3851 111.96 96.3754 111.941 96.3754 111.926C96.3414 111.839 96.3074 111.756 96.2831 111.674C96.1957 111.426 96.1229 111.173 96.0598 110.921V110.916C95.6519 109.304 95.6325 107.566 96.084 105.842C96.0889 105.818 96.0937 105.798 96.1034 105.774L95.9287 105.803L97.9632 98.0194L102.94 78.9705L109.034 55.6584L112.919 40.7855L113.919 36.9544L114.589 34.4003C117.536 34.9101 120.566 35.1724 123.659 35.1724C124.771 35.1724 125.874 35.1384 126.966 35.0704C135.483 34.5508 143.456 32.0356 150.429 27.986C150.453 28.8454 150.39 29.7243 150.225 30.6032C150.22 30.608 150.225 30.6129 150.23 30.6177C154.333 32.5454 157.251 36.2406 158.276 40.5087C158.31 40.6495 158.344 40.7904 158.373 40.9312C158.426 41.174 158.47 41.4167 158.509 41.6644C158.547 41.9266 158.581 42.1937 158.611 42.4656C158.625 42.6064 158.64 42.7472 158.649 42.8929C158.664 43.0677 158.674 43.2425 158.679 43.4173C158.683 43.5872 158.688 43.762 158.688 43.932C158.688 45.1653 158.533 46.423 158.208 47.6757C157.868 48.977 157.363 50.1958 156.722 51.3078C156.717 51.3126 156.717 51.3175 156.722 51.3223C158.339 53.1189 159.533 55.2651 160.198 57.591C160.261 57.8095 160.32 58.028 160.368 58.2514C160.378 58.2805 160.388 58.3096 160.393 58.3388C160.441 58.5524 160.49 58.7709 160.529 58.9894C160.572 59.2128 160.611 59.4362 160.64 59.6644C160.674 59.878 160.698 60.0965 160.723 60.315C160.732 60.4073 160.742 60.5044 160.747 60.5967C160.766 60.7909 160.781 60.9803 160.786 61.1745C160.8 61.4173 160.805 61.6649 160.805 61.9126Z" fill="#DC1F26"/>
<path d="M160.805 61.9126C160.805 63.2382 160.635 64.5881 160.286 65.9282C159.038 70.6965 155.746 74.3868 151.589 76.3C151.584 76.3048 151.584 76.3097 151.584 76.3194C152.274 77.8489 152.711 79.4999 152.847 81.209C152.852 81.2576 152.857 81.311 152.857 81.3596C152.866 81.4713 152.871 81.5829 152.876 81.6946C152.944 83.1367 152.793 84.6129 152.41 86.0841C150.914 91.8041 146.243 95.8538 140.781 96.8395C140.776 96.8395 140.771 96.8443 140.771 96.8492C140.708 97.3153 140.62 97.7766 140.499 98.2379C138.999 103.982 133.589 107.663 127.869 107.182C127.864 107.182 127.86 107.187 127.86 107.192C125.616 112.232 120.09 115.116 114.574 113.912C114.57 113.912 114.565 113.912 114.56 113.917C112.244 117.549 107.772 119.447 103.377 118.297C100.032 117.427 97.5116 114.99 96.3948 111.979C96.39 111.979 96.3899 111.979 96.3899 111.979C96.3851 111.96 96.3754 111.941 96.3754 111.926C96.3414 111.839 96.3074 111.756 96.2831 111.674C96.1957 111.426 96.1229 111.173 96.0598 110.921V110.916C95.6519 109.304 95.6325 107.566 96.084 105.842C96.0889 105.818 96.0937 105.798 96.1034 105.774L95.9287 105.803L97.9632 98.0194L102.94 78.9706L109.034 55.6585C111.991 56.1149 115.016 56.3529 118.095 56.3529C119.989 56.3529 121.863 56.2655 123.713 56.0858C125.208 55.945 126.685 55.7508 128.141 55.4983C130.88 55.0273 133.55 54.3669 136.143 53.5317C144.49 50.8514 152.017 46.355 158.276 40.5088C158.31 40.6496 158.344 40.7904 158.373 40.9312C158.421 41.174 158.47 41.4168 158.509 41.6644C158.547 41.9266 158.581 42.1937 158.611 42.4656C158.625 42.6064 158.64 42.7473 158.649 42.8929C158.664 43.0677 158.674 43.2425 158.679 43.4173C158.683 43.5873 158.688 43.7621 158.688 43.932C158.688 45.1654 158.533 46.423 158.208 47.6758C157.868 48.9771 157.363 50.1959 156.722 51.3078C156.717 51.3127 156.717 51.3175 156.722 51.3224C158.339 53.119 159.533 55.2652 160.198 57.5911C160.261 57.8096 160.32 58.0281 160.368 58.2514C160.378 58.2806 160.388 58.3097 160.393 58.3388C160.441 58.5525 160.49 58.771 160.529 58.9895C160.572 59.2128 160.611 59.4362 160.64 59.6644C160.674 59.8781 160.698 60.0966 160.723 60.3151C160.732 60.4073 160.742 60.5045 160.747 60.5967C160.766 60.7909 160.781 60.9803 160.786 61.1745C160.8 61.4173 160.805 61.665 160.805 61.9126Z" fill="#F6881F"/>
<path d="M160.805 61.9125C160.805 63.2381 160.635 64.588 160.286 65.9281C159.038 70.6964 155.746 74.3867 151.589 76.2999C151.584 76.3047 151.584 76.3096 151.584 76.3193C152.274 77.8488 152.711 79.4997 152.847 81.2089C152.852 81.2575 152.857 81.3109 152.857 81.3595C152.866 81.4711 152.871 81.5828 152.876 81.6945C152.944 83.1366 152.793 84.6128 152.41 86.084C150.914 91.804 146.243 95.8537 140.781 96.8394C140.776 96.8394 140.771 96.8442 140.771 96.8491C140.708 97.3152 140.62 97.7765 140.499 98.2378C138.999 103.982 133.589 107.663 127.869 107.182C127.864 107.182 127.86 107.187 127.86 107.192C125.616 112.232 120.09 115.116 114.574 113.912C114.57 113.912 114.565 113.912 114.56 113.917C112.244 117.549 107.772 119.447 103.377 118.297C100.032 117.427 97.5116 114.99 96.3948 111.979C96.39 111.979 96.3899 111.979 96.3899 111.979C96.3851 111.96 96.3754 111.94 96.3754 111.926C96.3414 111.839 96.3074 111.756 96.2831 111.673C96.1957 111.426 96.1229 111.173 96.0598 110.921V110.916C95.6519 109.304 95.6325 107.566 96.084 105.842C96.0889 105.817 96.0937 105.798 96.1034 105.774L95.9287 105.803L97.9632 98.0193L102.94 78.9705C110.462 80.2669 117.925 80.1116 125.019 78.6986C126.432 78.4218 127.83 78.0916 129.209 77.7129C131.696 77.0331 134.123 76.1979 136.488 75.2122C145.68 71.3859 153.852 65.3357 160.198 57.5909C160.261 57.8094 160.32 58.0279 160.368 58.2513C160.378 58.2804 160.388 58.3096 160.393 58.3387C160.441 58.5524 160.49 58.7709 160.529 58.9894C160.572 59.2127 160.611 59.4361 160.64 59.6643C160.674 59.878 160.698 60.0965 160.723 60.315C160.732 60.4072 160.742 60.5043 160.747 60.5966C160.766 60.7908 160.781 60.9802 160.786 61.1744C160.8 61.4172 160.805 61.6649 160.805 61.9125Z" fill="#FED304"/>
<path d="M152.41 86.0841C150.914 91.8041 146.243 95.8537 140.781 96.8394C140.776 96.8394 140.771 96.8442 140.771 96.8491C140.708 97.3153 140.62 97.7765 140.499 98.2378C138.999 103.982 133.589 107.663 127.869 107.182C127.864 107.182 127.86 107.187 127.86 107.192C125.616 112.232 120.09 115.116 114.574 113.912C114.57 113.912 114.565 113.912 114.56 113.917C112.244 117.549 107.772 119.447 103.377 118.297C100.032 117.427 97.5116 114.99 96.3948 111.979C96.39 111.979 96.3899 111.979 96.3899 111.979C96.3851 111.96 96.3754 111.941 96.3754 111.926C96.3414 111.839 96.3074 111.756 96.2831 111.673C96.1957 111.426 96.1229 111.173 96.0598 110.921V110.916C95.6519 109.304 95.6325 107.566 96.084 105.842C96.0889 105.818 96.0937 105.798 96.1034 105.774L95.9287 105.803L97.9632 98.0193C103.115 99.039 108.252 99.3741 113.273 99.0827C114.536 99.0099 115.793 98.8982 117.041 98.7477C119.658 98.4321 122.237 97.9416 124.762 97.2958C135.425 94.5621 145.141 88.9684 152.847 81.209C152.852 81.2575 152.857 81.311 152.857 81.3595C152.866 81.4712 152.871 81.5829 152.876 81.6946C152.944 83.1367 152.793 84.6128 152.41 86.0841Z" fill="#0B8D45"/>
<path d="M102.373 50.4353H102.367C102.367 50.4243 102.362 50.4133 102.373 50.4353Z" fill="white"/>
<path d="M137.42 61.1945C137.231 59.1454 136.974 57.0672 136.493 55.0084C136.396 54.5131 136.274 54.0178 136.143 53.5322C136.138 53.508 136.129 53.4885 136.124 53.4643C135.988 52.9496 135.852 52.4348 135.716 51.9201C135.556 51.4103 135.395 50.8956 135.235 50.3857C135.08 49.871 134.905 49.3612 134.711 48.8562C134.521 48.3512 134.332 47.8414 134.143 47.3364C133.934 46.8363 133.72 46.3361 133.507 45.836C133.094 44.8211 132.579 43.8549 132.089 42.8692C131.03 40.9415 129.904 39.0235 128.583 37.222L128.097 36.5422L127.976 36.3723L127.811 36.1538L127.753 36.0809L127.529 35.7945L127.083 35.2215L126.966 35.071L126.859 34.935L126.544 34.5708C126.126 34.095 125.684 33.5657 125.267 33.1384C124.854 32.7111 124.446 32.2692 124.014 31.8565C123.834 31.6817 123.645 31.5166 123.46 31.3467C123.48 31.3661 123.504 31.3807 123.523 31.4001C123.431 31.3127 123.334 31.235 123.242 31.1524C122.941 30.8805 122.644 30.6086 122.334 30.3415C121.906 29.9774 121.474 29.618 121.028 29.2733C120.809 29.1033 120.591 28.9382 120.372 28.778C119.712 28.2876 119.032 27.8166 118.338 27.3699C117.794 27.0202 117.245 26.6852 116.682 26.3696C113.011 24.2719 108.961 22.7958 104.756 22.048C99.9102 21.174 94.8652 21.2857 90.0241 22.354C85.1878 23.4416 80.5507 25.4907 76.5496 28.3556C76.0494 28.7149 75.5639 29.0888 75.0734 29.4578L74.8938 29.5986C74.6801 29.7783 74.5927 29.8463 74.5636 29.8754C74.5587 29.8802 74.549 29.8851 74.5393 29.8948L74.4665 29.9579L74.1897 30.2056L73.6265 30.696L73.0681 31.1913L72.9321 31.3175L72.7379 31.5117L72.3494 31.9148C71.8347 32.4489 71.3249 32.9927 70.8296 33.5463C70.3731 34.0853 70.0138 34.6 69.606 35.1292L69.0184 35.9256C68.829 36.1975 68.6688 36.484 68.494 36.7607L67.4792 38.4505C67.1878 39.038 66.9062 39.6304 66.6294 40.2228C62.2447 49.7497 63.7549 61.3159 69.8245 68.9781L70.3732 69.7016L70.514 69.8813C70.548 69.925 70.548 69.925 70.5382 69.9201C70.5625 69.9493 70.6256 70.0221 70.7859 70.2163L70.849 70.2794L71.0869 70.5368L71.5676 71.0466L71.8056 71.304L71.9707 71.4691L72.1746 71.6633C72.7184 72.1732 73.2914 72.7073 73.8401 73.1492C74.3645 73.5376 74.8889 73.9212 75.4182 74.2951C77.5935 75.7178 79.9971 76.7084 82.4444 77.2425C87.334 78.3156 92.4373 77.6795 96.5841 75.4944C97.1182 75.2517 97.6086 74.9409 98.0991 74.635C98.5895 74.3291 99.0799 74.028 99.5218 73.6687L100.192 73.1443L100.527 72.8821L100.609 72.819L100.891 72.5859L101.008 72.4742L101.459 72.0324L101.683 71.8138L102.047 71.4254C102.071 71.4011 102.095 71.372 102.115 71.3477C102.581 70.8476 103.037 70.3134 103.338 69.8619L103.858 69.1141L104.309 68.3275C104.916 67.2884 105.344 66.1667 105.679 65.0499C106.985 60.539 106.116 55.7901 103.809 52.3183C103.537 51.8716 103.212 51.4686 102.892 51.0704L102.654 50.7742L102.532 50.6285C102.425 50.5023 102.382 50.4489 102.367 50.4392C102.367 50.4392 102.367 50.4392 102.362 50.4343C102.357 50.4295 102.357 50.4198 102.348 50.4149L102.299 50.3663L101.901 49.9779L101.799 49.871L101.619 49.706L101.255 49.3806C101.012 49.1718 100.75 48.9436 100.537 48.8077L99.8568 48.3415C99.6237 48.2007 99.3858 48.0744 99.1479 47.9433C98.74 47.7248 98.3224 47.5355 97.9 47.3752C97.6183 47.2587 97.3318 47.1616 97.0454 47.079C96.9045 47.0353 96.7589 46.9965 96.6132 46.9576C96.4724 46.9188 96.3267 46.8848 96.1811 46.8557C95.1711 46.6226 94.1465 46.574 93.156 46.6226C92.1606 46.6712 91.1991 46.88 90.2911 47.1664C89.388 47.4821 88.5285 47.8705 87.7662 48.3804C87.3777 48.6232 87.0233 48.8999 86.6834 49.1816L86.426 49.3952C86.2512 49.536 86.2658 49.5263 86.2755 49.5263C86.2755 49.5263 86.2658 49.536 86.2609 49.5409L86.2172 49.5797L85.9696 49.8419L85.7365 50.0944C85.5471 50.3032 85.3481 50.5266 85.1927 50.7354L84.7945 51.3326C84.5566 51.7453 84.3381 52.1581 84.173 52.5902C83.8331 53.4497 83.6486 54.3383 83.5951 55.2074C83.5563 56.0766 83.6534 56.9312 83.8622 57.7275C84.0662 58.5287 84.4158 59.2668 84.8285 59.9223C85.0373 60.2573 85.2752 60.5584 85.5229 60.84L85.6151 60.9468C85.6151 60.9468 85.6928 61.0391 85.7268 61.0731L85.7608 61.1119L85.9113 61.2479C85.9696 61.3062 86.2075 61.5198 86.3775 61.6606C87.7176 62.7192 89.2714 63.0591 90.6747 62.9037C90.7621 62.894 90.8495 62.8843 90.9369 62.8697C91.0195 62.8551 91.1069 62.8406 91.1894 62.8211C91.2768 62.8066 91.3594 62.7872 91.4419 62.7629C91.8449 62.6609 92.2285 62.5152 92.583 62.3307C92.7724 62.2336 92.9569 62.1268 93.1268 62.0102C93.4959 61.7674 93.8212 61.4858 94.0834 61.1945C94.2097 61.0537 94.3505 60.8934 94.4427 60.7575C94.5301 60.6167 94.6224 60.4855 94.6952 60.3399C94.8458 60.0583 94.9623 59.7621 95.04 59.4707C95.2002 58.8783 95.2196 58.2859 95.1225 57.7372C95.0303 57.1886 94.8166 56.6933 94.5398 56.2757C94.3942 56.0523 94.2631 55.9018 94.0591 55.6833L93.962 55.5959L93.7969 55.4599C93.6804 55.358 93.5784 55.2997 93.4716 55.2366C92.6073 54.7316 91.641 54.7656 90.9515 55.0958C90.6019 55.256 90.3105 55.4891 90.1018 55.7367C89.8395 56.0475 89.7327 56.3437 89.6793 56.6544C89.5822 57.2662 89.8201 57.7858 90.1066 58.0869C90.398 58.4219 90.7913 58.5093 91.0535 58.485C91.3254 58.4656 91.505 58.3636 91.607 58.2908C91.709 58.218 91.7478 58.1645 91.7478 58.1645C91.7527 58.1451 91.5148 58.3588 91.068 58.2665C90.8592 58.2131 90.6213 58.0674 90.5048 57.8004C90.3785 57.5333 90.3494 57.174 90.4999 56.8729C90.5679 56.7273 90.7087 56.5767 90.8155 56.5185C90.9855 56.4019 91.1749 56.3388 91.3691 56.3097C91.7624 56.2514 92.1897 56.3922 92.4422 56.6836C92.4713 56.7224 92.5102 56.7613 92.515 56.7855C92.5247 56.805 92.5199 56.8001 92.5393 56.8292L92.6121 56.9409C92.6316 56.9992 92.7044 57.1448 92.7287 57.2468C92.7967 57.4702 92.8161 57.7081 92.7918 57.9412C92.7675 58.1694 92.685 58.3928 92.5636 58.5821C92.5053 58.6744 92.4325 58.7618 92.3548 58.8395C92.3208 58.8783 92.2674 58.9075 92.2285 58.9463C92.1897 58.9754 92.1703 58.9657 92.1508 58.9852C91.6264 59.3299 91.0826 59.3979 90.5436 59.325C90.0192 59.2522 89.5045 58.9172 89.2763 58.553C89.2569 58.5044 89.2909 58.553 89.184 58.4025L89.0675 58.2374L89.0384 58.1937C89.0335 58.184 89.0286 58.1791 89.0238 58.1743L89.0869 58.2422L89.0626 58.184C88.9898 58.0383 88.9218 57.8878 88.8781 57.7275C88.781 57.4168 88.7082 57.106 88.713 56.7807C88.713 56.4602 88.7567 56.1397 88.8441 55.8387C88.9461 55.5376 89.0918 55.2609 89.2763 55.0132C89.3588 54.8918 89.4705 54.785 89.5725 54.6782C89.6308 54.6296 89.689 54.5811 89.7424 54.5325C89.791 54.5034 89.8153 54.5082 89.8396 54.4839L89.8541 54.4742L89.9415 54.4111L90.1357 54.2703L90.2329 54.1975L90.2766 54.1683C90.2766 54.1683 90.2863 54.1635 90.296 54.1538C90.2814 54.1683 90.2523 54.1975 90.2086 54.2314L90.3397 54.1683C90.5145 54.0761 90.6893 53.9838 90.8738 53.9255C91.0923 53.8381 91.3157 53.775 91.5439 53.7313H91.5487C91.641 53.707 91.7333 53.6925 91.8255 53.6876C91.8449 53.6828 91.8644 53.6779 91.8887 53.6779C92.1411 53.6391 92.3936 53.6293 92.651 53.6488C92.7335 53.6488 92.8112 53.6536 92.8938 53.6682C92.9763 53.673 93.054 53.6828 93.1365 53.6973C93.5104 53.7653 93.8795 53.8624 94.2194 54.0227C94.5593 54.1683 94.8749 54.3723 95.1517 54.6053L95.3556 54.7801C95.3702 54.7947 95.3847 54.8093 95.3944 54.8238L95.409 54.8384C95.4527 54.887 95.4964 54.9355 95.5401 54.9792C95.6227 55.0521 95.6178 55.086 95.6421 55.1249C95.6567 55.1443 95.6663 55.1589 95.6809 55.1783L95.7004 55.1977L95.778 55.2997L96.1082 55.7464L96.1373 55.795C96.1179 55.7707 96.0888 55.7367 96.0499 55.693L96.0937 55.7756L96.1713 55.9309C96.283 56.1397 96.4044 56.3388 96.4773 56.5622C97.2007 58.2617 97.2105 60.2671 96.3996 61.9083C96.1908 62.3113 95.9723 62.7046 95.6858 63.0494L95.4867 63.3116L95.2488 63.5495C95.0837 63.7534 94.9817 63.7777 94.8992 63.8651L94.8312 63.9331L94.5836 64.1225L94.0834 64.5109L94.0106 64.5643C94.2631 64.3507 94.1174 64.4672 94.1077 64.4721L94.0688 64.4915L93.8843 64.5935L93.5201 64.8071C93.2871 64.9625 93.0249 65.0645 92.7675 65.181C92.515 65.2975 92.2674 65.4189 91.9955 65.4918C89.9221 66.2638 87.5622 66.2784 85.4646 65.5549C85.1781 65.4578 84.8965 65.3412 84.6197 65.215C84.61 65.2101 84.6003 65.2053 84.5906 65.2053C84.5663 65.1956 84.5469 65.1858 84.5226 65.1713C84.2798 65.0645 84.0467 64.9431 83.8137 64.812C83.3815 64.5692 82.9639 64.2973 82.5755 63.9962C82.3715 63.8068 82.1676 63.6272 81.9588 63.4524C81.8034 63.2921 81.7209 63.1707 81.5752 63.0494L81.5266 63.0057L81.5024 62.9814L81.4489 62.9183L81.2304 62.6463L80.7886 62.1025L80.5701 61.8306C80.6575 61.9277 80.6963 61.9762 80.7109 61.9957C80.706 61.9811 80.6866 61.9617 80.6817 61.952H80.6866L80.6235 61.8451L80.3613 61.4227C80.1865 61.1362 79.9922 60.8692 79.832 60.5778L79.395 59.6892C79.327 59.5387 79.2445 59.3979 79.1765 59.2474L79.0065 58.7812L78.6375 57.8635C78.555 57.543 78.4676 57.2225 78.3753 56.9069C78.3316 56.7467 78.2782 56.5913 78.2393 56.4311L78.1568 55.9406C78.1034 55.6105 78.0305 55.29 77.982 54.9647C77.9626 54.6296 77.9383 54.2994 77.9092 53.9692C77.8606 53.6391 77.88 53.304 77.8897 52.9738C77.9043 52.6388 77.8752 52.3086 77.914 51.9784C78.0063 51.3132 78.0354 50.648 78.2102 50.0022C78.3025 49.3418 78.5404 48.7154 78.7152 48.0745C78.8123 47.754 78.9725 47.4578 79.0842 47.147L79.2687 46.6809C79.3319 46.5304 79.4241 46.3895 79.5018 46.2439C79.6572 45.9477 79.8126 45.6563 79.9583 45.3601C80.1428 45.0834 80.3273 44.8066 80.5021 44.5298C80.5943 44.389 80.672 44.2433 80.774 44.1122L81.0896 43.7238C81.2984 43.481 81.5072 43.1799 81.6966 42.9711C81.8811 42.8012 82.0559 42.6215 82.221 42.4322L82.3424 42.2913L82.4055 42.2185L82.5463 42.0971L83.1144 41.6116L83.6825 41.126L83.8574 40.9755L83.8768 40.9609L83.9399 40.9172L84.8722 40.2423C87.3923 38.5185 90.228 37.2754 93.2045 36.6199C96.1762 35.945 99.2935 35.8576 102.309 36.3383C105.324 36.8239 108.238 37.8678 110.845 39.4119C111.559 39.8295 112.249 40.2908 112.914 40.7861C113.462 41.1891 113.992 41.6213 114.506 42.068C114.793 42.3156 115.065 42.5827 115.346 42.8352C115.623 43.0877 115.813 43.3013 116.055 43.5344L116.235 43.7092L116.473 43.9811L116.949 44.5298L117.187 44.8017L117.235 44.8503L117.24 44.8648L117.25 44.8697L117.284 44.9183L117.667 45.399C119.717 47.9433 121.377 50.7354 122.703 53.6391C123.077 54.4402 123.412 55.2609 123.708 56.0863C124.495 58.2374 125.043 60.4564 125.48 62.6658C126.034 65.7345 126.15 68.8179 126.019 71.8284C125.874 74.1834 125.534 76.485 125.014 78.6992C124.203 82.1564 122.97 85.4049 121.411 88.3231C120.158 90.7364 118.668 92.9166 117.099 94.8977C116.701 95.3736 116.313 95.898 115.915 96.3253C115.507 96.7671 115.152 97.1993 114.715 97.6509C114.254 98.1073 113.797 98.5589 113.346 99.0007L113.302 99.0445C113.292 99.0542 113.292 99.0542 113.288 99.059L113.322 99.0347L113.268 99.0833L113.239 99.1124L113.074 99.2678L112.749 99.5737C112.535 99.7777 112.316 99.9768 112.103 100.176C108.636 103.327 105.237 105.716 102.304 107.527C100.833 108.421 99.4781 109.169 98.2836 109.805C97.463 110.227 96.7152 110.596 96.0548 110.917V110.921C95.7489 111.067 95.4624 111.203 95.1905 111.329C94.3408 111.718 93.6755 112.024 93.224 112.213C92.7772 112.407 92.5442 112.509 92.5442 112.509C92.5442 112.509 92.7967 112.48 93.2822 112.427C93.7678 112.373 94.4913 112.291 95.4381 112.14C95.6712 112.101 95.9237 112.063 96.1859 112.014C96.249 112.004 96.317 111.99 96.385 111.98C96.385 111.98 96.385 111.98 96.3899 111.98C97.5698 111.766 99.0119 111.465 100.668 111.023C100.813 110.985 100.954 110.946 101.1 110.907C101.862 110.698 102.673 110.455 103.523 110.179C106.951 109.062 111.054 107.343 115.444 104.696C115.715 104.527 115.992 104.357 116.269 104.187L116.682 103.924L116.895 103.798L116.997 103.73C117.002 103.73 117.09 103.662 117.109 103.648L117.158 103.614C117.677 103.259 118.206 102.895 118.741 102.526C119.289 102.138 119.886 101.657 120.469 101.21C121.071 100.754 121.586 100.268 122.159 99.7874C123.043 99.0153 123.912 98.1801 124.757 97.2964C126.063 95.9417 127.316 94.4607 128.515 92.8632C130.491 90.212 132.254 87.2015 133.691 83.8948C134.876 81.1901 135.808 78.2767 136.483 75.2128C136.639 74.533 136.774 73.8435 136.901 73.1492C137.566 69.3277 137.731 65.2975 137.42 61.1945ZM95.8606 112.004C95.3799 112.082 95.1274 112.121 95.1274 112.121C95.1274 112.121 95.3653 112.029 95.8169 111.854C95.9528 111.805 96.1082 111.747 96.283 111.674C96.3073 111.757 96.3413 111.839 96.3753 111.927C96.181 111.956 96.0111 111.985 95.8606 112.004Z" fill="white"/>
<path d="M86.4308 49.3948L86.6882 49.186C87.0281 48.8995 87.3874 48.6227 87.7759 48.3848C88.5382 47.875 89.3928 47.4865 90.296 47.1709C91.204 46.8844 92.1654 46.6756 93.1608 46.627C94.1514 46.5736 95.1759 46.6271 96.1859 46.8601C96.7686 46.9815 97.3415 47.1563 97.9097 47.3797C97.1862 47.2534 96.4529 47.2194 95.7392 47.2486C93.928 47.3311 92.2139 47.8847 90.8009 48.7878C90.4416 49.0015 90.1114 49.254 89.791 49.5113L89.553 49.7007C89.3637 49.8561 89.4753 49.7687 89.4219 49.8124L89.3782 49.8561L89.2957 49.9386L89.1257 50.1037L89.0383 50.196L88.9121 50.3319C88.747 50.5164 88.5722 50.7058 88.4362 50.8903L88.0721 51.4196C87.8536 51.7886 87.6496 52.1577 87.4991 52.5461C87.1835 53.3182 86.999 54.1194 86.9407 54.906C86.8921 55.6975 86.9698 56.4695 87.1495 57.2027C87.3243 57.9359 87.6302 58.6157 88.0041 59.2227C88.1886 59.5286 88.4023 59.8102 88.6256 60.0724L88.7082 60.1744C88.713 60.1792 88.8295 60.3201 88.7955 60.2764L88.8295 60.3103L88.9752 60.4512C89.0432 60.524 89.2423 60.6988 89.3879 60.825C90.5339 61.7573 91.8935 62.1021 93.1414 62.0098C92.447 62.4711 91.6021 62.811 90.6893 62.9033C89.286 63.0587 87.7322 62.7139 86.392 61.6554C86.2221 61.5146 85.9841 61.3009 85.921 61.2426L85.7753 61.1067L85.7365 61.0727C85.7899 61.1407 85.6248 60.9464 85.6248 60.9464L85.5326 60.8396C85.2849 60.5531 85.047 60.2569 84.8382 59.9219C84.4206 59.2664 84.0758 58.5283 83.8719 57.7271C83.6631 56.9308 83.5611 56.0762 83.6048 55.207C83.6583 54.3379 83.8428 53.4493 84.1827 52.5898C84.3478 52.1577 84.5663 51.7449 84.8042 51.3322L85.2024 50.7349C85.3529 50.5261 85.5568 50.3028 85.7413 50.094L85.9793 49.8415L86.1444 49.6716L86.2269 49.5842L86.2706 49.5405C86.3337 49.4773 86.1686 49.6084 86.4308 49.3948Z" fill="#F3F3F3"/>
<path d="M130.156 71.6287C129.986 73.7118 129.666 75.7463 129.209 77.7128C128.301 81.6605 126.854 85.3363 125.014 88.5798C123.654 91.0271 122.072 93.2316 120.411 95.203C119.984 95.6837 119.576 96.2032 119.148 96.6305C118.721 97.0773 118.333 97.5143 117.876 97.9562C117.595 98.2232 117.318 98.4854 117.041 98.7476C116.852 98.9224 116.662 99.0972 116.478 99.272C116.031 99.6653 115.594 100.054 115.167 100.433C111.569 103.511 108.068 105.808 105.062 107.512C103.557 108.357 102.178 109.061 100.959 109.658C99.7403 110.241 98.6817 110.702 97.8126 111.057C97.2056 111.304 96.6909 111.513 96.2831 111.673C96.1082 111.746 95.9529 111.805 95.8169 111.853C95.3653 112.028 95.1274 112.12 95.1274 112.12C95.1274 112.12 95.3799 112.081 95.8606 112.004C96.0111 111.984 96.1811 111.955 96.3753 111.926C96.8026 111.858 97.3416 111.761 97.9874 111.63C98.842 111.45 99.8957 111.222 101.105 110.906C100.959 110.945 100.818 110.984 100.673 111.023C99.0168 111.465 97.5747 111.766 96.3947 111.979C96.3899 111.979 96.3899 111.979 96.3899 111.979C96.3219 111.989 96.2539 112.004 96.1908 112.013C95.9286 112.062 95.6761 112.101 95.443 112.14C94.4961 112.29 93.7726 112.373 93.2871 112.426C92.8015 112.479 92.549 112.509 92.549 112.509C92.549 112.509 92.7821 112.407 93.2288 112.212C93.6804 112.023 94.3456 111.717 95.1954 111.329C95.4673 111.202 95.7538 111.066 96.0597 110.921V110.916C96.7201 110.595 97.4678 110.226 98.2884 109.804C99.4829 109.168 100.838 108.42 102.309 107.527C105.242 105.716 108.641 103.327 112.108 100.175C112.321 99.9761 112.54 99.777 112.753 99.5731L113.079 99.2672L113.244 99.1118L113.273 99.0827L113.326 99.0341L113.292 99.0584C113.297 99.0535 113.297 99.0535 113.307 99.0438L113.351 99.0001C113.802 98.5582 114.259 98.1067 114.72 97.6502C115.157 97.1987 115.511 96.7665 115.919 96.3246C116.318 95.8973 116.706 95.3729 117.104 94.8971C118.673 92.916 120.163 90.7358 121.416 88.3225C122.975 85.4042 124.208 82.1558 125.019 78.6986C125.538 76.4844 125.878 74.1828 126.024 71.8278C126.155 68.8172 126.039 65.7339 125.485 62.6651C125.048 60.4558 124.499 58.2367 123.713 56.0857C123.417 55.2602 123.082 54.4396 122.708 53.6384C121.382 50.7347 119.721 47.9427 117.672 45.3983L117.289 44.9176L117.245 44.8642L117.192 44.8011L116.954 44.5292L116.478 43.9805L116.24 43.7085L116.06 43.5338C115.817 43.3007 115.628 43.087 115.351 42.8345C115.07 42.582 114.798 42.315 114.511 42.0673C113.997 41.6206 113.467 41.1885 112.919 40.7854C112.253 40.2902 111.564 39.8289 110.85 39.4113C108.243 37.8672 105.329 36.8232 102.314 36.3376C99.2984 35.8569 96.1811 35.9443 93.2094 36.6193C90.2329 37.2748 87.3972 38.5178 84.8771 40.2416L83.9448 40.9165L83.8816 40.9602L83.8622 40.9748L83.6874 41.1253L83.1193 41.6109L82.5512 42.0965L82.4104 42.2179L82.3472 42.2907L82.2259 42.4315C82.0608 42.6209 81.886 42.8005 81.7014 42.9705C81.5121 43.1793 81.3033 43.4803 81.0945 43.7231L80.7789 44.1116C80.6769 44.2427 80.5992 44.3883 80.507 44.5292C80.4535 44.6117 80.3953 44.6991 80.337 44.7817L80.7497 43.9756L81.3664 43.0239C81.4684 42.8637 81.5606 42.6986 81.6723 42.548L82.0268 42.1013C82.2647 41.8197 82.4978 41.4847 82.726 41.2322C82.9542 41.0088 83.1776 40.7757 83.3912 40.5378L83.5563 40.3581L83.634 40.2707L83.7797 40.1493L84.3429 39.6638L84.911 39.1733L85.1781 38.9403L85.2558 38.8869L86.2658 38.1488C88.9898 36.2454 92.0926 34.9052 95.3362 34.1914C101.6 32.7396 108.393 33.8176 113.919 36.9543C114.118 37.0611 114.312 37.1777 114.506 37.2942C115.919 38.1391 117.23 39.1297 118.449 40.2222C118.755 40.4892 119.046 40.7806 119.348 41.0574C119.644 41.339 119.867 41.5963 120.139 41.8634L120.333 42.0625L120.571 42.3393L121.285 43.1696L121.329 43.2181L121.416 43.3347L121.809 43.8397C122.892 45.1798 123.815 46.6171 124.703 48.0641C125.534 49.5402 126.364 51.0163 127 52.5653C127.432 53.5267 127.806 54.5076 128.141 55.4981C128.869 57.6589 129.379 59.8634 129.768 62.063C130.292 65.2823 130.365 68.5016 130.156 71.6287Z" fill="#F3F3F3"/>
<path d="M84.139 65.0736C84.0273 64.9765 83.9157 64.8891 83.804 64.7969C84.0613 64.9425 84.3284 65.0785 84.5955 65.1999C84.6052 65.2047 84.6149 65.2096 84.6198 65.2144C84.8965 65.3407 85.1781 65.4572 85.4646 65.5543C87.5623 66.2778 89.9221 66.2633 91.9955 65.4864C92.2674 65.4184 92.5151 65.2921 92.7676 65.1756C93.0201 65.0639 93.2871 64.9619 93.5153 64.8017L93.8795 64.5929L94.064 64.4909L94.1126 64.4667C94.0398 64.5298 94.3457 64.287 93.9572 64.6075L94.0835 64.5104L94.5836 64.1268L94.8312 63.9326L94.8992 63.8646C94.9866 63.7772 95.0886 63.7529 95.2537 63.5489L95.4868 63.311L95.6858 63.0488C95.9675 62.7041 96.186 62.3108 96.3996 61.9126C97.2105 60.2714 97.2008 58.266 96.4773 56.5665C96.4045 56.3431 96.2831 56.144 96.1714 55.9353L96.0889 55.7799L96.05 55.7022C96.3122 56.0129 96.0986 55.7556 96.1471 55.809L96.1034 55.7507L95.7732 55.304L95.6955 55.202L95.6761 55.1778C95.6616 55.1632 95.6518 55.1438 95.6421 55.1292C95.6179 55.0904 95.6227 55.0564 95.5402 54.9835C95.4965 54.9398 95.4527 54.8913 95.409 54.8427C95.409 54.8379 95.4091 54.833 95.3945 54.8282C95.3799 54.8136 95.3653 54.799 95.3556 54.7845L95.1517 54.6096C94.8749 54.3766 94.5593 54.1726 94.2194 54.027C93.8795 53.8667 93.5153 53.7696 93.1366 53.6968C92.9764 53.6725 92.8161 53.6579 92.651 53.6482C92.583 53.6434 92.5151 53.6434 92.4471 53.6434C92.3597 53.6434 92.2771 53.6482 92.1897 53.6531C91.9761 53.6628 91.7576 53.6871 91.5488 53.7356L91.675 53.6045C91.7382 53.5463 91.7867 53.522 91.8353 53.4734L91.8693 53.4394L91.9567 53.3715L92.146 53.2258L92.2431 53.1529L92.2917 53.119C92.2674 53.1384 92.4083 53.0218 92.2529 53.1578L92.4034 53.0704C92.6025 52.9539 92.8016 52.8325 93.0152 52.7499C93.8504 52.3615 94.7972 52.2158 95.7247 52.3032C96.186 52.3566 96.6472 52.444 97.0843 52.6188C97.5261 52.7693 97.934 52.9976 98.3079 53.2695C98.4002 53.3423 98.4973 53.4054 98.5847 53.4783L98.8371 53.7162C98.9391 53.7988 98.9731 53.8619 99.0265 53.925L99.1091 54.0124L99.1528 54.0561L99.2353 54.1581L99.5752 54.5951L99.6189 54.6485C99.5898 54.6145 99.7452 54.8039 99.5607 54.5854L99.6141 54.6728L99.716 54.8524C99.8568 55.0855 100.007 55.3137 100.109 55.5711C101.061 57.5231 101.192 59.9218 100.313 61.9709C100.085 62.4758 99.8374 62.9711 99.5072 63.413L99.2693 63.7529L98.9925 64.0636C98.808 64.3064 98.6478 64.4084 98.507 64.5589L98.4002 64.6706L98.1525 64.8648L97.6572 65.2581L97.5358 65.3553C97.8077 65.1319 97.5795 65.3116 97.6281 65.2679L97.5747 65.297L97.3708 65.4232L96.9629 65.6806C96.7007 65.8651 96.4045 65.9962 96.118 66.137C95.8315 66.2827 95.5499 66.4332 95.2391 66.5255C92.8695 67.5015 90.1164 67.6034 87.6206 66.8314C86.3726 66.4478 85.1879 65.8505 84.139 65.0736Z" fill="#F3F3F3"/>
<path d="M66.6344 40.2225C66.9112 39.6301 67.1928 39.0377 67.4842 38.4502L68.499 36.7604C68.6738 36.4836 68.8389 36.1971 69.0234 35.9252L69.6109 35.1289C70.0188 34.5948 70.3781 34.0849 70.8346 33.5411C71.3299 32.9876 71.8348 32.4437 72.3544 31.9096L72.7429 31.5114L72.9371 31.3172L73.0779 31.1909L73.6363 30.6957L74.1947 30.2004L74.4763 29.9528L74.5443 29.8896C74.6948 29.7634 74.3064 30.0839 74.8988 29.5934L75.0833 29.4526C75.5737 29.0836 76.0593 28.7097 76.5594 28.3504C80.5605 25.4855 85.1977 23.4364 90.0339 22.3488C94.875 21.2757 99.9201 21.164 104.766 22.0429C109.612 22.8975 114.264 24.7378 118.347 27.3598C120.202 28.5543 121.936 29.9091 123.528 31.3949C122.368 30.4238 121.139 29.5206 119.853 28.7C115.973 26.243 111.588 24.4853 106.995 23.6986C102.411 22.8926 97.6476 22.9897 93.0687 23.9997C88.4947 25.0242 84.1294 26.9762 80.3323 29.6663C79.8613 30.0062 79.4 30.3606 78.9338 30.7054L78.759 30.8365L78.4871 31.0647L78.4191 31.1278L78.1375 31.3755L77.5743 31.8659L77.0159 32.3563L76.875 32.4826L76.7002 32.6622L76.3506 33.0264C75.8845 33.512 75.428 34.0072 74.9765 34.5025C74.554 34.9978 74.219 35.4785 73.8402 35.9689L73.2915 36.707C73.1167 36.9595 72.9662 37.2266 72.8011 37.4839L71.8543 39.0523L71.0579 40.6935C66.9355 49.5308 68.2853 60.3104 73.9131 67.5065L74.4229 68.1863L74.5492 68.3563C74.6366 68.4631 74.4423 68.2397 74.758 68.6136L74.8162 68.6768L75.0542 68.9341L75.53 69.4488L75.7679 69.7062C75.8019 69.745 75.8553 69.7984 75.9185 69.8615L76.103 70.0363C76.5886 70.4879 77.0887 70.9686 77.584 71.3668C78.0647 71.7213 78.5502 72.0757 79.0261 72.4253C81.0121 73.7412 83.2117 74.6687 85.4599 75.1736C89.9514 76.1933 94.6614 75.6495 98.5119 73.6635C99.0072 73.445 99.4636 73.1634 99.9201 72.8818C100.377 72.605 100.833 72.3331 101.246 71.998L101.877 71.5222L102.12 71.3377C102.095 71.3619 102.076 71.3862 102.052 71.4154L101.688 71.8038L101.464 72.0223L101.013 72.4642L100.901 72.5759L100.619 72.8089L100.537 72.8721L100.202 73.1343L99.5268 73.6538C99.0849 74.0131 98.5945 74.3142 98.1041 74.6201C97.6136 74.926 97.1232 75.2368 96.5891 75.4796C92.4375 77.6646 87.339 78.3007 82.4494 77.2276C80.0021 76.6935 77.5985 75.7029 75.4232 74.2802C74.8939 73.9063 74.3646 73.5227 73.8402 73.1343C73.2915 72.6924 72.7186 72.1583 72.1796 71.6484L71.9757 71.4542L71.8737 71.3571L71.8106 71.2891L71.5726 71.0318L71.0919 70.5219L70.854 70.2646L70.7957 70.2014C70.3636 69.6819 70.6355 70.0072 70.519 69.8664L70.383 69.6867L69.8343 68.9632C63.7599 61.3156 62.2497 49.7493 66.6344 40.2225Z" fill="#F3F3F3"/>
<path d="M13.12 170.039C7.32722 170.039 1.85002 168.067 0.31077 161.92H5.07905C6.30268 165.586 9.60939 166.295 13.12 166.295C15.8004 166.295 19.7432 165.033 19.7432 161.804C19.7432 155.185 0 160.07 0 149.864C0 144.347 6.57945 142.216 11.1146 142.216C17.4222 142.216 22.1079 144.148 24.0793 150.49H19.2722C18.0485 146.668 14.8195 145.96 11.1923 145.96C8.86647 145.96 4.65174 146.868 4.65174 149.864C4.65174 156.759 24.3561 150.966 24.3561 161.842C24.3512 167.519 17.9272 170.039 13.12 170.039Z" fill="#010101"/>
<path d="M51.8198 156.088C51.8198 164.838 48.9452 169.961 39.6806 169.961C30.3383 169.961 27.5414 164.722 27.5414 156.088C27.5414 147.46 30.3771 142.216 39.6806 142.216C49.0229 142.216 51.8198 147.499 51.8198 156.088ZM32.1931 156.088C32.1931 161.92 33.1011 166.217 39.6806 166.217C46.3426 166.217 47.2069 161.566 47.2069 156.088C47.2069 150.534 46.2989 145.96 39.6806 145.96C33.0186 145.96 32.1931 150.65 32.1931 156.088Z" fill="#010101"/>
<path d="M74.6755 142.216H79.3272V156.166C79.3272 164.6 76.2536 169.961 67.188 169.961C58.0836 169.961 55.0488 164.6 55.0488 156.166V142.216H59.6617V156.166C59.6617 161.682 60.7251 166.217 67.188 166.217C73.6121 166.217 74.6755 161.643 74.6755 156.166V142.216Z" fill="#010101"/>
<path d="M104.548 169.961H83.304V142.216H87.9169V166.451H104.548V169.961Z" fill="#010101"/>
<path d="M108.529 142.216H113.142V157.977L124.888 142.294H130.404L119.328 156.914L132.414 169.956H126.422L116.769 160.26C116.454 160.692 113.579 164.28 113.142 165.067V169.951H108.529V142.216Z" fill="#010101"/>
<path d="M160.946 142.216V169.961H156.965L141.281 149.664V169.961H136.668V142.216H140.65L156.333 162.513V142.216H160.946Z" fill="#010101"/>
<path d="M189.201 156.088C189.201 164.838 186.327 169.961 177.062 169.961C167.72 169.961 164.923 164.722 164.923 156.088C164.923 147.46 167.759 142.216 177.062 142.216C186.405 142.216 189.201 147.499 189.201 156.088ZM169.575 156.088C169.575 161.92 170.483 166.217 177.062 166.217C183.724 166.217 184.589 161.566 184.589 156.088C184.589 150.534 183.681 145.96 177.062 145.96C170.405 145.96 169.575 150.65 169.575 156.088Z" fill="#010101"/>
<path d="M193.222 142.255C197.558 142.255 201.894 142.255 206.225 142.216C211.465 142.216 215.607 144.818 215.607 150.611C215.607 153.801 214.898 155.972 212.771 157.506C214.621 158.691 215.568 160.58 215.568 162.828C215.568 168.067 211.154 169.961 206.585 169.922C202.132 169.922 197.679 169.961 193.227 169.961V142.255H193.222ZM197.835 155.851L206.74 155.812C209.93 155.574 210.999 153.525 210.999 150.611C210.999 147.106 209.503 145.998 206.861 145.96C206.39 145.96 205.915 145.96 205.482 145.96H197.835V155.851ZM197.835 166.412H205.754C206.07 166.412 206.424 166.412 206.818 166.373C208.59 166.373 210.916 165.387 210.916 162.828C210.916 159.755 208.906 159.439 206.424 159.4H197.835V166.412Z" fill="#010101"/>
<path d="M30.047 178.687H31.2026L34.7084 186.645L38.2288 178.687H39.3699V187.883H38.4084V180.503H38.3696L35.1114 187.883H34.2957L31.0375 180.503H31.0132V187.883H30.0421V178.687H30.047Z" fill="#010101"/>
<path d="M46.8718 178.687H47.843V187.883H46.8718V178.687Z" fill="#010101"/>
<path d="M55.345 178.687H56.4472L61.4631 186.422H61.4874V178.687H62.444V187.883H61.3272L56.3355 180.173H56.3113V187.883H55.3401V178.687H55.345Z" fill="#010101"/>
<path d="M69.9654 178.687H72.8837C75.7874 178.687 77.2295 180.357 77.2295 183.285C77.2295 186.213 75.7825 187.883 72.8837 187.883H69.9654V178.687ZM72.7914 187.024C75.1804 187.024 76.2486 185.791 76.2486 183.28C76.2486 180.76 75.1852 179.537 72.7914 179.537H70.9414V187.024H72.7914Z" fill="#010101"/>
<path d="M93.4038 178.687H94.5594L98.0652 186.645L101.586 178.687H102.727V187.883H101.77V180.503H101.731L98.4731 187.883H97.6573L94.3992 180.503H94.3749V187.883H93.4038V178.687Z" fill="#010101"/>
<path d="M110.229 178.687H116.021V179.541H111.2V182.761H115.628V183.547H111.2V187.029H116.153V187.883H110.229V178.687Z" fill="#010101"/>
<path d="M123.261 178.687H124.364L129.379 186.422H129.404V178.687H130.36V187.883H129.243L124.252 180.173H124.228V187.883H123.256V178.687H123.261Z" fill="#010101"/>
<path d="M137.882 178.687H140.8C143.704 178.687 145.151 180.357 145.151 183.285C145.151 186.213 143.704 187.883 140.8 187.883H137.882V178.687ZM140.708 187.024C143.097 187.024 144.165 185.791 144.165 183.28C144.165 180.76 143.102 179.537 140.708 179.537H138.858V187.024H140.708Z" fill="#010101"/>
<path d="M152.386 178.687H158.178V179.541H153.357V182.761H157.785V183.547H153.357V187.029H158.31V187.883H152.386V178.687Z" fill="#010101"/>
<path d="M171.012 187.879L168.885 184.28H168.73H166.389V187.879H165.418V178.682H168.73C170.847 178.682 171.935 179.745 171.935 181.493C171.935 182.901 171.211 183.858 169.808 184.174L172.003 187.879H171.012ZM166.389 183.416H168.686C170.182 183.416 170.944 182.732 170.944 181.498C170.944 180.226 170.182 179.541 168.686 179.541H166.389V183.416Z" fill="#010101"/>
<path d="M178.713 185.252H179.684C179.752 186.33 180.5 187.184 182.219 187.184C183.782 187.184 184.559 186.446 184.559 185.383C184.559 184.29 183.758 183.858 182.666 183.635L181.471 183.397C179.844 183.067 178.99 182.28 178.99 180.993C178.99 179.561 180.053 178.561 182.088 178.561C184.069 178.561 185.278 179.532 185.278 180.95H184.317C184.263 180.08 183.54 179.386 182.083 179.386C180.573 179.386 179.98 180.134 179.98 180.988C179.98 181.79 180.481 182.382 181.728 182.63L182.899 182.868C184.501 183.198 185.55 183.839 185.55 185.349C185.55 187.019 184.302 188 182.199 188C179.922 188.01 178.713 186.844 178.713 185.252Z" fill="#010101"/>
</svg>
