<svg width="10" height="13" viewBox="0 0 10 13" fill="none" xmlns="http://www.w3.org/2000/svg">
<path d="M9.26804 2.06674H7.84491V1.89447C7.84491 1.77514 7.7975 1.66069 7.71312 1.57631C7.62874 1.49193 7.51429 1.44452 7.39495 1.44452H6.936L6.85244 1.02799C6.83196 0.926126 6.77684 0.834487 6.69647 0.768637C6.61609 0.702788 6.5154 0.666787 6.41149 0.666748H4.1373C4.0334 0.666787 3.9327 0.702788 3.85233 0.768637C3.77195 0.834487 3.71684 0.926126 3.69635 1.02799L3.61279 1.44452H3.14741C3.02808 1.44452 2.91363 1.49193 2.82925 1.57631C2.74486 1.66069 2.69746 1.77514 2.69746 1.89447V2.06803H1.28333C1.16399 2.06803 1.04954 2.11543 0.965162 2.19981C0.88078 2.2842 0.833374 2.39864 0.833374 2.51798V11.8603C0.833374 11.9796 0.88078 12.094 0.965162 12.1784C1.04954 12.2628 1.16399 12.3102 1.28333 12.3102H9.26804C9.38737 12.3102 9.50182 12.2628 9.5862 12.1784C9.67058 12.094 9.71799 11.9796 9.71799 11.8603V2.51669C9.71799 2.39736 9.67058 2.28291 9.5862 2.19853C9.50182 2.11415 9.38737 2.06674 9.26804 2.06674ZM3.6025 2.34442H3.98818C4.09026 2.34317 4.18888 2.30723 4.26785 2.24252C4.34681 2.17781 4.40142 2.08817 4.4227 1.98832L4.50241 1.56537H6.0451L6.1248 1.98832C6.14529 2.09019 6.2004 2.18183 6.28078 2.24768C6.36116 2.31353 6.46185 2.34953 6.56576 2.34957H6.95143V2.74938H3.6025V2.34442ZM5.31232 8.33007C5.23202 8.41601 5.12126 8.4671 5.00376 8.47238C4.88626 8.47767 4.77137 8.43674 4.68367 8.35835L3.46495 7.26818L4.06531 6.59711L4.95364 7.38774L6.42049 5.82062L7.07356 6.43384L5.31232 8.33007Z" fill="white"/>
<circle cx="5.27553" cy="8.33962" r="2.82692" fill="white"/>
</svg>
