<svg width="11" height="15" viewBox="0 0 11 15" fill="none" xmlns="http://www.w3.org/2000/svg">
<path d="M10.4429 1.73332H8.68094V1.52004C8.68094 1.37229 8.62225 1.2306 8.51778 1.12612C8.4133 1.02165 8.27161 0.962958 8.12386 0.962958H7.55564L7.45218 0.447258C7.42682 0.321135 7.35858 0.207677 7.25907 0.126149C7.15955 0.0446205 7.03488 4.82155e-05 6.90624 0H4.09058C3.96193 4.82155e-05 3.83727 0.0446205 3.73775 0.126149C3.63823 0.207677 3.57 0.321135 3.54464 0.447258L3.44118 0.962958H2.865C2.71725 0.962958 2.57555 1.02165 2.47108 1.12612C2.36661 1.2306 2.30791 1.37229 2.30791 1.52004V1.73492H0.557083C0.409335 1.73492 0.267639 1.79361 0.163166 1.89808C0.0586925 2.00255 0 2.14425 0 2.292V13.8586C0 14.0064 0.0586925 14.1481 0.163166 14.2525C0.267639 14.357 0.409335 14.4157 0.557083 14.4157H10.4429C10.5907 14.4157 10.7324 14.357 10.8368 14.2525C10.9413 14.1481 11 14.0064 11 13.8586V2.29041C11 2.14266 10.9413 2.00096 10.8368 1.89649C10.7324 1.79202 10.5907 1.73332 10.4429 1.73332ZM3.42845 2.07712H3.90595C4.03234 2.07557 4.15444 2.03108 4.2522 1.95096C4.34997 1.87084 4.41758 1.75985 4.44393 1.63623L4.54261 1.11257H6.45261L6.55129 1.63623C6.57666 1.76236 6.64489 1.87581 6.74441 1.95734C6.84392 2.03887 6.96859 2.08344 7.09724 2.08349H7.57474V2.5785H3.42845V2.07712ZM5.54536 9.48792C5.44595 9.59433 5.30882 9.65757 5.16334 9.66412C5.01786 9.67066 4.87561 9.61998 4.76704 9.52293L3.25814 8.1732L4.00145 7.34235L5.10129 8.32123L6.91738 6.38099L7.72594 7.14021L5.54536 9.48792Z" fill="white"/>
</svg>
