<svg width="182" height="231" viewBox="0 0 182 231" fill="none" xmlns="http://www.w3.org/2000/svg">
<path d="M49.7354 95.9805L41.8913 163.184L85.2933 189.516H100.031L129.658 163.184L128.22 96.668L49.7354 95.9805Z" fill="#E01F24"/>
<g opacity="0.6">
<path d="M110.451 136.458C108.676 132.87 103.969 131.358 100.144 132.526C96.3188 133.695 93.5 136.983 92.0686 140.683C90.6373 136.983 87.6934 133.683 83.9058 132.526C80.1181 131.37 75.3741 132.87 73.5928 136.458C72.675 138.489 72.5197 140.784 73.1553 142.921C73.7988 145.039 74.7986 147.032 76.1116 148.815C80.2256 154.664 85.6827 159.442 92.0249 162.746C98.3615 159.441 103.812 154.663 107.919 148.815C109.233 147.033 110.231 145.04 110.87 142.921C111.514 140.786 111.366 138.491 110.451 136.458Z" fill="white"/>
</g>
<g opacity="0.3">
<path d="M67.505 108.188C87.2309 114.382 101.1 115.332 119.507 104.294C116.545 115.963 112.276 123.67 102.007 126.226C91.7374 128.783 83.7933 124.601 74.5741 119.47C65.3549 114.338 58.3671 105.925 50.7042 98.6875C50.7042 98.6875 60.7797 106.088 67.505 108.188Z" fill="black"/>
</g>
<path d="M91.2874 189.229C91.1999 189.229 91.4124 172.035 91.7686 150.834C92.1249 129.633 92.4812 112.438 92.5687 112.444C92.6562 112.451 92.4499 129.633 92.0936 150.84C91.7374 172.047 91.3811 189.229 91.2874 189.229Z" fill="#263238"/>
<path d="M92.2249 142.802C91.7388 143.018 91.2024 143.096 90.6748 143.027C90.1436 143.057 89.6148 142.935 89.1497 142.677C89.6604 142.614 90.1767 142.614 90.6873 142.677C91.2031 142.649 91.7203 142.691 92.2249 142.802Z" fill="#263238"/>
<path d="M96.8438 129.844C96.2317 130.522 95.4727 131.05 94.625 131.388C93.8265 131.829 92.9362 132.077 92.0249 132.113C92.0249 132.02 93.1624 131.726 94.4875 131.095C95.8126 130.463 96.7813 129.769 96.8438 129.844Z" fill="#263238"/>
<path d="M94.8938 133.826C94.8938 133.92 94.3312 133.951 93.6437 133.901C92.9562 133.851 92.3936 133.739 92.4249 133.651C92.4561 133.564 92.9874 133.526 93.6749 133.576C94.3625 133.626 94.9 133.739 94.8938 133.826Z" fill="#263238"/>
<path d="M88.756 113.913C83.9182 111.413 78.9826 109.121 73.949 107.037C72.2114 106.312 70.3301 105.594 68.4925 106.019C66.5299 106.475 65.0549 108.187 64.3361 110.069C63.6173 111.95 63.5423 114.006 63.4735 116.019C63.3485 119.869 63.5173 124.319 66.5549 126.688C68.8613 128.488 72.1802 128.426 74.9303 127.488C81.1244 125.401 85.3371 119.788 89.156 114.481L88.756 113.913Z" fill="#455A64"/>
<path d="M89.5498 114.376C94.3875 111.875 99.3231 109.584 104.357 107.5C106.094 106.775 107.976 106.056 109.813 106.481C111.776 106.938 113.251 108.65 113.97 110.532C114.688 112.413 114.763 114.463 114.832 116.476C114.957 120.326 114.788 124.782 111.751 127.151C109.444 128.951 106.126 128.889 103.375 127.951C97.1814 125.864 92.9687 120.251 89.1497 114.944L89.5498 114.376Z" fill="#455A64"/>
<path d="M94.7 112.675C94.5687 110.919 92.6374 110.506 90.9498 110.25C89.2774 110.057 87.584 110.165 85.9496 110.569C85.5714 110.556 85.1956 110.632 84.8517 110.789C84.5077 110.947 84.2051 111.182 83.9676 111.477C83.73 111.771 83.5641 112.117 83.4829 112.486C83.4017 112.856 83.4073 113.239 83.4995 113.606C83.562 114.844 83.6934 116.077 83.8932 117.3C83.9756 118.277 84.3283 119.212 84.912 120C85.5657 120.671 86.4362 121.087 87.3684 121.175C89.5497 121.469 92.1436 120.769 93.2624 118.875C94.3445 116.997 94.8407 114.837 94.6875 112.675" fill="#455A64"/>
<path d="M93.1312 110.782C93.2361 110.779 93.3403 110.798 93.4374 110.838C93.715 110.963 93.9372 111.186 94.0625 111.463C94.4562 112.169 94.5125 113.338 94.5063 114.676C94.4999 115.43 94.4183 116.182 94.2625 116.92C94.099 117.78 93.7084 118.58 93.1312 119.238C92.4253 119.953 91.5784 120.513 90.6443 120.882C89.7102 121.251 88.7095 121.421 87.7059 121.382C86.6512 121.356 85.6317 120.998 84.7933 120.357C84.0599 119.692 83.5804 118.793 83.437 117.813C83.1307 116.032 82.8807 114.382 83.2245 113.001C83.3409 112.46 83.5801 111.953 83.9237 111.52C84.2673 111.086 84.706 110.737 85.2058 110.501C85.48 110.38 85.7751 110.314 86.0746 110.307C86.176 110.29 86.2795 110.29 86.3809 110.307C85.9922 110.333 85.6113 110.429 85.2558 110.588C84.7905 110.836 84.3863 111.184 84.0727 111.608C83.7591 112.032 83.5441 112.521 83.4432 113.038C83.1432 114.344 83.412 115.982 83.7308 117.732C83.8636 118.638 84.3052 119.47 84.9808 120.089C85.7654 120.686 86.7198 121.019 87.7059 121.039C88.6649 121.075 89.6211 120.914 90.5148 120.565C91.4085 120.215 92.2205 119.685 92.8999 119.007C93.4618 118.392 93.8463 117.636 94.0125 116.82C94.1759 116.101 94.268 115.368 94.2875 114.632C94.325 113.282 94.2875 112.132 93.9625 111.507C93.8528 111.24 93.654 111.019 93.3999 110.882C93.2562 110.813 93.1312 110.801 93.1312 110.782Z" fill="#263238"/>
<path d="M92.3561 119.813C92.2999 119.813 92.1624 119.157 91.7686 118.138C90.7378 115.473 88.8603 113.22 86.4246 111.725C85.4996 111.156 84.862 110.9 84.887 110.85C84.912 110.8 85.0558 110.85 85.3496 110.981C85.7623 111.128 86.1616 111.31 86.5434 111.525C89.107 112.953 91.0477 115.283 91.9874 118.063C92.1305 118.47 92.2392 118.888 92.3124 119.313C92.3624 119.638 92.3811 119.807 92.3561 119.813Z" fill="#263238"/>
<path d="M93.6812 111.106C93.7187 111.2 92.6312 111.625 91.5061 112.482C90.3811 113.338 89.6685 114.263 89.5873 114.2C89.9746 113.401 90.5679 112.719 91.3061 112.225C91.9815 111.643 92.8026 111.257 93.6812 111.106Z" fill="#263238"/>
<path d="M104.325 111.862C103.834 112.025 103.33 112.148 102.819 112.231C101.611 112.507 100.421 112.858 99.2564 113.281C98.0937 113.709 96.9601 114.212 95.8625 114.787C95.4164 115.05 94.9528 115.282 94.475 115.481C94.8476 115.124 95.2684 114.821 95.725 114.581C97.8914 113.304 100.272 112.432 102.75 112.006C103.267 111.889 103.796 111.841 104.325 111.862Z" fill="#263238"/>
<path d="M105.732 119.35C105.694 119.394 105.182 118.95 104.275 118.356C101.906 116.812 99.1582 115.948 96.3313 115.856C95.25 115.825 94.5813 115.856 94.575 115.856C94.7226 115.798 94.8789 115.764 95.0375 115.756C95.4675 115.688 95.9023 115.655 96.3376 115.656C97.7744 115.638 99.2049 115.849 100.575 116.281C101.948 116.714 103.242 117.367 104.407 118.213C104.761 118.463 105.095 118.741 105.407 119.044C105.632 119.213 105.744 119.338 105.732 119.35Z" fill="#263238"/>
<path d="M73.2177 113.169C73.6892 113.022 74.1801 112.946 74.674 112.944C75.8614 112.866 77.0539 112.935 78.2242 113.151C79.3966 113.362 80.5385 113.717 81.6244 114.207C82.075 114.387 82.4963 114.634 82.8744 114.938C81.3395 114.316 79.7546 113.824 78.1367 113.469C76.5086 113.23 74.8629 113.129 73.2177 113.169Z" fill="#263238"/>
<path d="M74.5741 119.469C74.9032 119.152 75.2783 118.887 75.6866 118.682C77.5836 117.556 79.6498 116.743 81.8057 116.275C82.2471 116.151 82.7034 116.088 83.162 116.088C83.162 116.188 81.1431 116.594 78.7868 117.538C76.4304 118.482 74.6241 119.551 74.5741 119.469Z" fill="#263238"/>
<g opacity="0.3">
<path d="M83.237 114.594C81.6052 113.916 79.906 113.413 78.168 113.094C76.4179 112.777 74.6122 113.031 73.0178 113.819C72.7302 113.975 72.424 114.206 72.3927 114.531C72.3927 115.038 73.0615 115.231 73.5615 115.156C74.0616 115.081 74.6866 115.025 74.9804 115.438C75.0853 115.647 75.114 115.886 75.0616 116.114C75.0091 116.343 74.8787 116.545 74.6928 116.688C74.3491 117.007 73.9115 117.207 73.6053 117.55C73.299 117.894 73.174 118.5 73.5365 118.8C73.7102 118.894 73.9046 118.944 74.1022 118.944C74.2997 118.944 74.4941 118.894 74.6678 118.8L82.962 115.969" fill="black"/>
</g>
<g opacity="0.3">
<path d="M94.0812 115.813C96.8049 114.029 99.8096 112.717 102.969 111.932C103.9 111.7 104.988 111.55 105.713 112.175C105.971 112.402 106.148 112.706 106.218 113.042C106.288 113.377 106.247 113.727 106.101 114.037C105.955 114.348 105.712 114.602 105.409 114.763C105.105 114.923 104.758 114.98 104.419 114.926C105.032 115.329 105.671 115.692 106.332 116.013C106.999 116.334 107.547 116.857 107.901 117.507C108.07 117.835 108.124 118.21 108.055 118.573C107.986 118.935 107.797 119.264 107.519 119.507C107.282 119.653 107.013 119.74 106.734 119.762C106.456 119.784 106.177 119.739 105.919 119.632C105.406 119.414 104.925 119.128 104.488 118.782C101.565 116.767 98.0938 115.698 94.5437 115.719" fill="black"/>
</g>
<path d="M28.2344 225.562C37.3171 230.157 47.5764 231.9 57.667 230.562C67.8988 229.312 78.0367 223.899 82.937 214.824C85.3683 210.317 86.3996 205.211 87.2684 200.167C87.8492 196.175 87.6497 192.108 86.6809 188.191C86.1417 185.849 85.0726 183.662 83.5557 181.797C77.6363 173.924 69.6849 167.812 60.5547 164.115C46.679 159.309 29.7032 160.253 16.4214 166.522C9.54605 169.778 3.92079 174.647 1.07066 182.454C0.0622961 185.433 -0.23941 188.607 0.189371 191.723C0.746191 196.465 2.36331 201.022 4.92084 205.055C8.75227 211.092 14.015 218.318 28.2344 225.562Z" fill="#E01F24"/>
<g opacity="0.6">
<path d="M71.4177 199.054C70.1051 190.267 63.7736 183.01 56.6795 177.666C49.2979 172.103 40.535 167.959 31.3033 167.666C22.8467 167.384 14.0213 170.791 8.84603 177.36V177.322C5.13336 181.697 3.27077 188.06 4.64583 193.61C6.0209 199.161 9.3023 204.055 12.9337 208.43C19.1528 215.98 27.4406 221.068 36.7598 224.056C46.079 227.043 57.142 225.749 64.3361 219.118C67.0363 216.585 69.0889 213.44 70.3212 209.949C71.5535 206.458 71.9296 202.721 71.4177 199.054Z" fill="white"/>
</g>
<path d="M56.4357 198.873C55.4294 195.66 51.623 192.154 48.3103 191.741C44.8477 191.404 41.235 191.741 38.1224 193.291C35.0097 194.841 32.4534 197.742 31.8721 201.173C31.6191 202.987 31.8461 204.835 32.5305 206.534C33.2148 208.233 34.3326 209.723 35.7723 210.855C37.2296 211.96 38.8994 212.753 40.6772 213.183C42.455 213.613 44.3025 213.672 46.104 213.355C49.4569 212.843 52.4929 211.084 54.6044 208.43C55.6383 207.092 56.3428 205.53 56.6609 203.87C56.9791 202.21 56.9019 200.498 56.4357 198.873Z" fill="#E01F24"/>
<path d="M26.1031 199.748C26.2145 200.365 26.1749 201.001 25.9877 201.599C25.8005 202.198 25.4712 202.742 25.028 203.186C24.0982 204.037 22.9667 204.638 21.7404 204.93C19.0027 205.699 15.8838 205.667 13.615 203.717C12.7368 202.969 12.1358 201.948 11.9087 200.817C11.2211 197.248 14.54 195.029 17.6214 194.967C19.4998 195.012 21.3495 195.437 23.0592 196.217C23.7641 196.49 24.397 196.921 24.9095 197.477C25.422 198.033 25.8003 198.699 26.0156 199.423C26.0531 199.53 26.0843 199.636 26.1031 199.748Z" fill="#E01F24"/>
<path d="M37.0411 185.504C36.6093 185.853 36.0995 186.092 35.5553 186.2C35.0111 186.309 34.4486 186.285 33.9159 186.129C32.8556 185.769 31.9033 185.148 31.1471 184.322C29.372 182.529 28.0594 180.085 28.6094 177.491C28.8157 176.489 29.3502 175.585 30.1283 174.922C32.6284 172.853 35.7535 174.485 37.1348 176.853C37.9086 178.332 38.3723 179.952 38.4974 181.616C38.5859 182.284 38.5191 182.962 38.3023 183.6C38.0855 184.237 37.7244 184.816 37.2473 185.291C37.1911 185.373 37.1223 185.441 37.0411 185.504Z" fill="#E01F24"/>
<path d="M26.6719 188.71C27.2156 186.053 25.6593 183.647 23.5467 182.222C21.8939 181.185 20.0557 180.478 18.134 180.141C17.4846 180.088 16.8326 180.2 16.2382 180.467C15.6438 180.733 15.1263 181.146 14.7338 181.666C14.2935 182.264 14.0002 182.958 13.8775 183.691C13.7733 184.532 13.8415 185.386 14.0779 186.201C14.3142 187.015 14.7139 187.773 15.2526 188.428C16.3326 189.735 17.72 190.753 19.2903 191.391C21.3466 192.291 23.8655 192.716 25.6218 190.804C26.1572 190.215 26.5205 189.491 26.6719 188.71Z" fill="#E01F24"/>
<path d="M87.5997 197.266C87.5717 197.049 87.5717 196.828 87.5997 196.61C87.5997 196.179 87.6497 195.554 87.5997 194.735C87.5213 192.456 87.143 190.196 86.4746 188.016C85.482 184.786 84.052 181.707 82.2244 178.866C80.0567 175.341 77.3939 172.145 74.3178 169.378C71.1881 166.671 67.5444 164.624 63.6048 163.359C60.3861 162.319 57.0572 161.658 53.6856 161.39C50.8042 161.127 48.4541 161.083 46.8103 161.04L44.9352 160.971C44.725 160.978 44.5147 160.957 44.3102 160.908C44.5147 160.859 44.7247 160.836 44.9352 160.84C45.3664 160.84 45.9915 160.796 46.8103 160.783C48.4291 160.752 50.7855 160.721 53.6856 160.927C57.1057 161.141 60.487 161.77 63.7548 162.802C67.7848 164.06 71.5124 166.134 74.7053 168.896C77.8296 171.706 80.5213 174.962 82.6932 178.559C84.5288 181.469 85.939 184.626 86.8809 187.935C87.5194 190.157 87.8351 192.46 87.8184 194.772C87.8157 195.4 87.7739 196.026 87.6934 196.648C87.6908 196.857 87.6593 197.065 87.5997 197.266Z" fill="#263238"/>
<g opacity="0.2">
<path d="M84.587 211.13C84.8808 210.449 87.8997 200.773 87.7122 195.504C87.5304 190.298 86.1867 185.198 83.7794 180.578C81.372 175.958 77.9621 171.935 73.799 168.803C65.2986 162.297 54.2669 160.49 43.6976 161.078C40.5452 162.131 37.2989 162.878 34.0034 163.309C30.3095 163.722 28.6219 162.415 27.9094 162.59C27.9094 162.59 30.9658 165.903 37.7224 165.184C41.7788 164.759 45.8477 164.334 49.9354 164.659C54.549 165.111 59.0057 166.577 62.986 168.953L63.9236 169.51C76.4554 177.222 86.2183 189.229 84.3808 205.867L82.5557 215.418L84.587 211.13Z" fill="black"/>
</g>
<path d="M48.5479 167.571L48.7479 167.603L49.3291 167.728C49.8354 167.859 50.5792 167.965 51.5542 168.278C54.2596 169.049 56.8603 170.149 59.2983 171.553C60.0546 172.015 60.8609 172.497 61.661 173.04C62.461 173.584 63.2985 174.165 64.0923 174.847C69.8657 179.468 74.1058 185.728 76.2554 192.804C77.7621 197.699 78.4423 202.811 78.268 207.929C78.1774 212.125 77.166 216.25 75.3053 220.011C74.5617 221.436 73.6465 222.765 72.5802 223.968C71.7727 224.871 70.8789 225.694 69.9113 226.424C69.3005 226.883 68.6595 227.301 67.9925 227.674L67.4675 227.962L67.2862 228.049C67.2862 228.049 67.3362 228.005 67.4487 227.93L67.955 227.618C69.635 226.606 71.1487 225.341 72.4427 223.868C73.4829 222.664 74.3747 221.34 75.0991 219.924C76.9148 216.184 77.8938 212.093 77.968 207.936C78.1198 202.858 77.4356 197.79 75.9429 192.935C73.8049 185.917 69.6117 179.701 63.9048 175.09C63.1173 174.409 62.2797 173.84 61.5047 173.278C60.7297 172.715 59.9109 172.246 59.1608 171.784C56.7532 170.369 54.1875 169.243 51.5167 168.428C50.5792 168.096 49.8167 167.965 49.3166 167.803L48.7416 167.653C48.6735 167.635 48.6083 167.607 48.5479 167.571Z" fill="#263238"/>
<path d="M87.2747 191.735C86.9596 192.235 86.5838 192.695 86.1559 193.104C85.1774 194.142 84.0922 195.074 82.9182 195.885C81.75 196.69 80.4913 197.355 79.168 197.866C78.6276 198.106 78.0582 198.274 77.4742 198.366C77.9954 198.098 78.5317 197.86 79.0805 197.654C80.3698 197.089 81.6042 196.407 82.7682 195.616C85.4558 193.741 87.1934 191.653 87.2747 191.735Z" fill="#263238"/>
<path d="M67.5488 220.661C67.48 220.724 66.8737 220.143 66.1924 219.368C65.7391 218.932 65.363 218.423 65.0799 217.861C65.6029 218.212 66.0616 218.649 66.4362 219.155C66.8895 219.591 67.2657 220.1 67.5488 220.661Z" fill="#263238"/>
<path d="M68.9176 218.518C68.4022 218.381 67.9211 218.138 67.505 217.805C66.7612 217.343 66.1924 216.905 66.2549 216.83C66.7735 216.967 67.2599 217.205 67.6863 217.53C68.1579 217.775 68.5764 218.11 68.9176 218.518Z" fill="#263238"/>
<path d="M82.2744 199.767C82.1563 199.245 82.0666 198.717 82.0057 198.186C81.8379 197.674 81.7042 197.152 81.6057 196.623C82.0034 197.027 82.2543 197.553 82.3182 198.117C82.4908 198.656 82.4754 199.238 82.2744 199.767Z" fill="#263238"/>
<path d="M153.378 224.786C144.295 229.381 134.036 231.124 123.945 229.786C113.713 228.536 103.575 223.117 98.6752 214.042C96.2438 209.542 95.2125 204.435 94.3437 199.391C93.763 195.397 93.9626 191.328 94.9313 187.41C95.4705 185.067 96.5396 182.88 98.0564 181.015C103.925 173.184 110.957 165.708 120.039 162.052C135.039 158.433 151.915 159.471 165.191 165.746C172.066 169.002 177.691 173.871 180.541 181.672C181.539 184.65 181.832 187.818 181.398 190.928C180.841 195.669 179.224 200.224 176.666 204.254C172.885 210.304 167.597 217.536 153.378 224.786Z" fill="#E01F24"/>
<g opacity="0.6">
<path d="M110.194 198.279C111.507 189.491 117.839 182.234 124.933 176.884C132.314 171.328 141.077 167.177 150.309 166.884C158.765 166.609 167.591 170.009 172.766 176.584V176.547C176.479 180.891 178.341 187.285 176.966 192.797C175.591 198.31 172.335 203.235 168.703 207.648C162.484 215.198 154.197 220.28 144.877 223.274C135.558 226.268 124.495 224.961 117.301 218.336C114.597 215.806 112.541 212.664 111.304 209.173C110.067 205.683 109.687 201.947 110.194 198.279Z" fill="white"/>
</g>
<path d="M125.176 198.092C126.183 194.879 129.989 191.379 133.302 190.967C136.771 190.623 140.377 190.967 143.49 192.51C146.602 194.054 149.159 196.967 149.74 200.398C149.992 202.212 149.764 204.06 149.08 205.759C148.396 207.457 147.279 208.947 145.84 210.08C144.383 211.187 142.714 211.981 140.936 212.411C139.157 212.841 137.31 212.899 135.508 212.58C132.141 212.076 129.091 210.311 126.976 207.642C125.95 206.302 125.252 204.74 124.939 203.081C124.627 201.423 124.708 199.714 125.176 198.092Z" fill="#E01F24"/>
<path d="M155.509 198.973C155.398 199.59 155.437 200.224 155.625 200.821C155.812 201.419 156.141 201.962 156.584 202.405C157.512 203.258 158.644 203.859 159.872 204.149C162.609 204.924 165.728 204.886 167.997 202.936C168.877 202.189 169.478 201.167 169.703 200.036C170.391 196.467 167.072 194.254 163.991 194.186C162.112 194.228 160.262 194.653 158.553 195.436C157.848 195.708 157.214 196.139 156.702 196.695C156.189 197.251 155.811 197.917 155.597 198.642C155.559 198.748 155.528 198.861 155.509 198.973Z" fill="#E01F24"/>
<path d="M144.571 184.728C145.003 185.077 145.513 185.316 146.057 185.425C146.601 185.534 147.164 185.509 147.696 185.353C148.758 184.994 149.711 184.37 150.465 183.541C152.24 181.747 153.553 179.303 153.003 176.715C152.798 175.712 152.263 174.805 151.484 174.14C148.984 172.071 145.859 173.709 144.477 176.078C143.705 177.557 143.242 179.177 143.115 180.841C143.027 181.507 143.095 182.185 143.311 182.821C143.528 183.457 143.889 184.035 144.365 184.51L144.571 184.728Z" fill="#E01F24"/>
<path d="M154.94 187.935C154.403 185.272 155.953 182.866 158.065 181.447C159.717 180.408 161.556 179.701 163.478 179.366C164.128 179.312 164.78 179.424 165.375 179.69C165.969 179.957 166.487 180.37 166.878 180.891C167.319 181.487 167.612 182.179 167.735 182.91C167.841 183.749 167.777 184.6 167.545 185.414C167.313 186.227 166.918 186.985 166.385 187.641C165.305 188.947 163.917 189.965 162.347 190.604C160.291 191.504 157.772 191.929 156.015 190.016C155.474 189.433 155.103 188.713 154.94 187.935Z" fill="#E01F24"/>
<path d="M94.0062 194.823C93.9751 194.63 93.9751 194.434 94.0062 194.241C94.0062 193.866 94.0062 193.304 94.0937 192.585C94.2563 190.551 94.6078 188.535 95.1438 186.566C95.9263 183.632 97.0793 180.809 98.5752 178.166C100.41 174.918 102.779 172.002 105.582 169.54C107.046 168.284 108.609 167.149 110.257 166.146C111.795 165.227 113.393 164.411 115.038 163.702C117.826 162.512 120.729 161.613 123.701 161.021C125.7 160.617 127.723 160.346 129.758 160.209C130.502 160.142 131.25 160.132 131.995 160.177C131.264 160.327 130.522 160.421 129.777 160.459C127.769 160.694 125.775 161.032 123.801 161.471C120.876 162.121 118.021 163.052 115.276 164.253C113.664 164.967 112.099 165.781 110.588 166.69C108.977 167.684 107.445 168.802 106.007 170.034C103.259 172.447 100.924 175.293 99.094 178.459C97.5999 181.051 96.4226 183.812 95.5875 186.685C95.0214 188.625 94.6035 190.606 94.3375 192.61C94.2684 193.353 94.1578 194.092 94.0062 194.823Z" fill="#263238"/>
<g opacity="0.3">
<path d="M97.0251 210.348C96.7313 209.667 93.8562 200.248 94.0125 194.979C94.1614 189.747 95.4726 184.614 97.8509 179.951C100.229 175.289 103.615 171.214 107.763 168.021C114.538 162.84 122.876 160.871 131.395 160.202C133.554 160.092 135.717 160.125 137.871 160.302C137.871 160.302 140.608 160.702 145.415 161.24C149.109 161.652 149.978 160.896 149.978 160.896C149.978 160.896 148.271 164.415 140.058 163.459C136.008 162.99 134.121 161.815 130.139 162.709C123.751 164.134 121.051 165.084 117.051 167.39C116.732 167.571 116.426 167.759 116.107 167.946C103.575 175.659 95.3438 188.447 97.1814 205.086L99.0064 214.636L97.0251 210.348Z" fill="black"/>
</g>
<path d="M133.064 166.797L132.883 166.859L132.339 167.003L131.445 167.234C131.039 167.327 130.639 167.441 130.245 167.578C127.703 168.345 125.254 169.393 122.945 170.703C122.195 171.085 121.476 171.591 120.695 172.072C119.914 172.553 119.164 173.147 118.37 173.728C117.576 174.31 116.789 174.978 116.038 175.71C115.651 176.072 115.251 176.429 114.87 176.804L113.757 178.01C112.178 179.714 110.768 181.567 109.544 183.541C105.681 189.804 103.876 197.12 104.382 204.461C104.425 205.017 104.469 205.561 104.513 206.099C104.557 206.636 104.657 207.167 104.725 207.686C104.844 208.736 105.107 209.724 105.288 210.693C105.469 211.661 105.769 212.568 106.051 213.449C106.332 214.33 106.594 215.162 106.932 215.949C107.9 218.424 109.139 220.784 110.626 222.987C110.847 223.341 111.087 223.683 111.345 224.012L111.888 224.75L112.22 225.206C112.295 225.312 112.326 225.368 112.326 225.368C112.326 225.368 112.276 225.325 112.195 225.225L111.838 224.787L111.257 224.056C110.991 223.732 110.743 223.394 110.513 223.043C108.979 220.858 107.704 218.503 106.713 216.024C106.363 215.255 106.119 214.399 105.807 213.524C105.494 212.649 105.282 211.718 105.019 210.755C104.757 209.793 104.563 208.786 104.438 207.73C104.369 207.205 104.275 206.674 104.213 206.136C104.15 205.599 104.125 205.042 104.075 204.48C103.743 199.621 104.394 194.744 105.988 190.142C107.642 185.565 110.201 181.369 113.513 177.804L114.663 176.61C115.051 176.229 115.457 175.872 115.845 175.51C116.601 174.772 117.439 174.166 118.201 173.528C118.964 172.891 119.776 172.372 120.557 171.872C121.339 171.372 122.076 170.891 122.833 170.51C125.166 169.212 127.641 168.186 130.208 167.453C130.608 167.328 131.015 167.224 131.427 167.141L132.32 166.941L132.877 166.822L133.064 166.797Z" fill="#263238"/>
<path d="M94.3375 190.96C94.7936 191.339 95.2257 191.746 95.6313 192.179C97.7074 194.142 100.116 195.721 102.744 196.841C103.303 197.043 103.848 197.281 104.375 197.554C103.784 197.459 103.207 197.291 102.657 197.054C101.305 196.542 100.012 195.886 98.8002 195.098C97.591 194.305 96.4737 193.381 95.4688 192.341C95.0346 191.931 94.6544 191.467 94.3375 190.96Z" fill="#263238"/>
<path d="M114.063 219.886C114.344 219.322 114.72 218.81 115.176 218.374C115.555 217.872 116.013 217.435 116.532 217.08C116.255 217.647 115.878 218.159 115.42 218.593C115.045 219.098 114.586 219.536 114.063 219.886Z" fill="#263238"/>
<path d="M112.695 217.743C113.044 217.34 113.468 217.008 113.945 216.768C114.368 216.44 114.856 216.204 115.376 216.074C115.426 216.149 114.857 216.587 114.126 217.043C113.7 217.369 113.214 217.607 112.695 217.743Z" fill="#263238"/>
<g opacity="0.3">
<path d="M129.114 148.033L128.408 126.951C125.064 129.179 122.277 132.147 120.266 135.625C118.254 139.104 117.07 142.999 116.807 147.008C116.589 150.877 117.301 154.915 119.507 158.103C121.714 161.29 125.758 160.646 129.595 160.203C129.639 159.49 129.508 158.79 129.527 158.178C129.659 154.791 129.521 151.398 129.114 148.033Z" fill="black"/>
</g>
<path d="M124.764 132.877C127.214 128.639 131.877 124.964 131.452 120.082C131.008 114.919 123.633 108.969 119.482 105.869L125.401 95.0811C138.896 96.9249 152.828 105.925 159.709 117.682C163.109 123.489 165.203 130.145 165.11 136.877C165.016 143.608 162.647 150.377 158.065 155.309C156.207 157.325 153.998 158.988 151.546 160.215C143.383 164.253 131.883 162.665 125.758 155.928C123.606 153.59 122.185 150.674 121.67 147.54C121.136 142.448 122.218 137.318 124.764 132.877Z" fill="#E01F24"/>
<path d="M150.665 160.577C150.665 160.577 150.615 160.627 150.49 160.696C150.306 160.799 150.116 160.89 149.921 160.971C149.178 161.286 148.411 161.543 147.627 161.74C146.393 162.065 145.141 162.315 143.877 162.49C142.183 162.661 140.473 162.617 138.79 162.359C134.392 161.675 130.241 159.878 126.733 157.14C125.72 156.344 124.788 155.45 123.951 154.471C123.097 153.425 122.386 152.268 121.839 151.033C121.28 149.753 120.861 148.416 120.589 147.046C120.349 145.632 120.257 144.197 120.314 142.764C120.463 139.238 121.605 135.826 123.608 132.92C124.02 132.389 124.408 131.845 124.858 131.357C125.726 130.376 126.651 129.482 127.502 128.613C128.343 127.777 129.101 126.86 129.764 125.876C130.38 124.957 130.805 123.924 131.014 122.838C131.317 120.859 131.027 118.834 130.183 117.019C129.49 115.504 128.557 114.111 127.42 112.894C126.565 111.966 125.652 111.091 124.689 110.275L122.845 108.725C122.619 108.555 122.41 108.365 122.22 108.156C122.471 108.285 122.708 108.44 122.926 108.619C123.376 108.944 124.033 109.425 124.851 110.075C125.854 110.868 126.802 111.729 127.689 112.65C128.881 113.874 129.865 115.284 130.602 116.825C131.514 118.722 131.843 120.848 131.545 122.932C131.339 124.091 130.901 125.196 130.258 126.182C129.584 127.205 128.809 128.158 127.945 129.026C127.089 129.926 126.183 130.807 125.333 131.77C124.908 132.245 124.539 132.764 124.145 133.282C123.778 133.823 123.438 134.382 123.126 134.957C121.838 137.38 121.105 140.06 120.982 142.802C120.925 144.184 121.013 145.569 121.245 146.933C121.496 148.254 121.888 149.545 122.414 150.783C122.937 151.967 123.614 153.076 124.426 154.083C125.231 155.033 126.127 155.902 127.102 156.677C130.517 159.381 134.558 161.18 138.852 161.909C140.503 162.19 142.183 162.265 143.852 162.134C145.112 161.991 146.364 161.783 147.602 161.509C148.382 161.344 149.152 161.135 149.909 160.884C150.152 160.762 150.405 160.659 150.665 160.577Z" fill="#263238"/>
<g opacity="0.6">
<path d="M128.72 139.801C131.614 134.676 138.315 134.02 140.158 134.864C141.892 135.024 143.557 135.625 144.993 136.609C146.429 137.594 147.59 138.929 148.365 140.489C149.22 142.104 149.615 143.924 149.504 145.749C149.394 147.573 148.784 149.332 147.74 150.833C145.509 153.877 141.49 155.271 137.739 155.096C134.696 154.958 131.608 153.846 129.545 151.596C126.651 148.471 126.626 143.514 128.72 139.801Z" fill="white"/>
</g>
<path d="M131.258 128.845C131.4 128.773 131.548 128.717 131.702 128.676C132.002 128.595 132.427 128.414 133.002 128.289C134.627 127.89 136.298 127.709 137.971 127.751C139.127 127.779 140.278 127.9 141.415 128.114C142.715 128.374 143.989 128.753 145.221 129.245C148.076 130.347 150.622 132.123 152.642 134.421C154.662 136.72 156.096 139.473 156.822 142.445C157.149 143.732 157.358 145.046 157.447 146.371C157.511 147.523 157.481 148.679 157.359 149.827C157.189 151.488 156.798 153.119 156.197 154.677C156.003 155.234 155.765 155.634 155.647 155.927C155.587 156.075 155.511 156.215 155.422 156.346C155.466 156.193 155.52 156.042 155.584 155.896C155.69 155.609 155.903 155.202 156.078 154.646C156.633 153.086 156.99 151.463 157.14 149.815C157.37 147.367 157.159 144.899 156.515 142.527C155.785 139.606 154.367 136.902 152.379 134.641C150.392 132.379 147.893 130.626 145.09 129.526C143.877 129.035 142.621 128.654 141.34 128.389C140.221 128.163 139.086 128.029 137.946 127.989C136.29 127.925 134.634 128.07 133.014 128.42C132.433 128.52 132.008 128.682 131.702 128.745C131.557 128.789 131.408 128.823 131.258 128.845Z" fill="#263238"/>
<path d="M155.765 140.827C155.765 140.733 156.422 140.464 157.015 139.833C157.609 139.201 157.922 138.533 158.015 138.583C157.923 139.152 157.654 139.677 157.245 140.083C156.836 140.49 156.31 140.756 155.74 140.845L155.765 140.827Z" fill="#263238"/>
<path d="M154.015 137.858C153.965 137.77 154.79 137.233 155.559 136.326C156.328 135.42 156.753 134.526 156.84 134.564C156.705 135.311 156.345 136 155.809 136.539C155.355 137.146 154.731 137.605 154.015 137.858Z" fill="#263238"/>
<path d="M136.064 131.064C135.928 130.423 136.035 129.755 136.364 129.189C136.588 128.574 137.034 128.065 137.615 127.764C137.677 127.832 137.058 128.389 136.633 129.326C136.208 130.264 136.164 131.07 136.064 131.064Z" fill="#263238"/>
<path d="M133.133 131.238C132.998 131.004 132.919 130.742 132.902 130.472C132.884 130.202 132.929 129.932 133.033 129.682C133.296 128.801 133.946 128.363 133.983 128.432C134.021 128.501 133.571 128.994 133.358 129.769C133.146 130.544 133.208 131.219 133.133 131.238Z" fill="#263238"/>
<path d="M140.196 99.9873C140.334 100.021 140.468 100.069 140.596 100.131C140.846 100.244 141.221 100.387 141.708 100.631C143.059 101.289 144.344 102.074 145.546 102.975C149.56 105.949 152.612 110.037 154.325 114.73C156.037 119.423 156.333 124.516 155.178 129.376C154.837 130.84 154.363 132.269 153.759 133.645C153.553 134.133 153.346 134.489 153.221 134.745C153.163 134.874 153.094 134.997 153.015 135.114C153.051 134.976 153.101 134.841 153.165 134.714C153.265 134.458 153.459 134.089 153.64 133.595C155.022 130.152 155.675 126.459 155.559 122.751C155.409 117.308 153.494 112.06 150.103 107.8C147.805 104.888 144.928 102.484 141.652 100.744C141.19 100.481 140.815 100.325 140.565 100.194C140.436 100.136 140.313 100.066 140.196 99.9873Z" fill="#263238"/>
<path d="M34.4472 12.6147C36.9196 10.6289 39.9078 9.39071 43.0601 9.04583C46.667 8.70627 50.2923 9.46604 53.4593 11.2253C56.6264 12.9845 59.187 15.6609 60.8047 18.9025L39.6849 43.4849C34.2472 40.5848 29.9845 35.3595 28.7782 29.2968C27.5719 23.234 29.672 16.5462 34.4472 12.6147Z" fill="#E01F24"/>
<g opacity="0.3">
<path d="M43.3789 17.0705C47.0853 16.033 51.123 18.1831 54.1544 20.552L42.8476 35.5901C41.3399 34.2336 39.9687 32.7326 38.7537 31.1087C37.5345 29.4756 36.8256 27.5184 36.7161 25.4834C36.6286 21.6083 39.6725 18.1081 43.3789 17.0705Z" fill="white"/>
</g>
<path d="M37.3911 21.9082C37.3286 21.9082 37.7161 20.8207 38.9599 19.5269C40.5958 17.8242 42.7893 16.7662 45.1402 16.5459C47.4912 16.3256 49.843 16.9577 51.7668 18.3268C53.2293 19.3706 53.8043 20.3394 53.7481 20.3769C53.6918 20.4144 52.9731 19.6081 51.5167 18.7081C49.6399 17.51 47.417 16.9726 45.2002 17.1809C42.9833 17.3892 40.8994 18.3314 39.2787 19.8581C38.0099 21.0082 37.5036 21.9645 37.3911 21.9082Z" fill="#263238"/>
<path d="M154.584 19.8334C152.258 17.6897 149.371 16.2505 146.259 15.6832C142.683 15.1012 139.015 15.6155 135.737 17.1585C132.459 18.7014 129.725 21.2007 127.895 24.3273L147.29 50.2973C152.915 47.7659 157.515 42.797 159.115 36.8717C160.716 30.9464 159.084 24.0461 154.584 19.8334Z" fill="#E01F24"/>
<g opacity="0.3">
<path d="M145.371 23.6833C141.746 22.3957 137.571 24.2708 134.389 26.4334L144.659 42.1716C146.264 40.9228 147.742 39.5179 149.071 37.9777C150.401 36.4203 151.24 34.5045 151.484 32.4712C151.803 28.6648 148.996 24.9646 145.371 23.6833Z" fill="white"/>
</g>
<path d="M91.5561 8.51399C91.5561 8.51399 60.1234 5.92012 43.9351 32.1713C33.2221 49.5284 32.9596 68.2605 36.1035 77.2422C36.1035 77.2422 49.0229 112.038 88.7935 112.244C88.7935 112.244 141.071 112.244 148.484 67.9105C155.103 28.2586 115.745 8.13897 91.5561 8.51399Z" fill="#E01F24"/>
<g opacity="0.7">
<path d="M120.151 71.4486L120.057 71.3423C115.294 65.6472 108.932 61.5107 101.794 59.4668L99.8064 58.898C95.9126 57.774 91.8606 57.2968 87.8121 57.4854C82.6506 57.6595 77.5502 58.6598 72.7052 60.4481C65.7049 63.1482 59.3796 68.1734 56.2669 74.9988C53.1543 81.8241 53.7168 90.5057 58.6233 96.1872C62.7985 101.012 68.7675 104.094 74.9366 105.725C81.748 107.436 88.7935 108.021 95.7938 107.457C104.387 106.774 112.441 102.999 118.464 96.831C121.626 93.4268 123.572 89.0703 123.995 84.443C124.287 82.129 124.096 79.7795 123.435 77.543C122.773 75.3065 121.655 73.2313 120.151 71.4486Z" fill="white"/>
</g>
<path d="M101.444 53.6724C101.439 54.3377 101.693 54.9788 102.153 55.4597C102.613 55.9405 103.242 56.2231 103.907 56.2475C104.231 56.2721 104.557 56.2319 104.866 56.1291C105.175 56.0264 105.46 55.8632 105.705 55.6491C105.95 55.435 106.149 55.1743 106.292 54.8821C106.436 54.5899 106.519 54.2722 106.538 53.9474C106.543 53.2821 106.289 52.6409 105.829 52.1601C105.369 51.6793 104.74 51.3966 104.075 51.3723C103.751 51.3476 103.425 51.3879 103.116 51.4906C102.808 51.5933 102.522 51.7565 102.278 51.9706C102.033 52.1847 101.833 52.4455 101.69 52.7377C101.547 53.0298 101.463 53.3476 101.444 53.6724Z" fill="#263238"/>
<path d="M69.2863 54.6724C69.281 55.3377 69.5353 55.9788 69.9951 56.4597C70.4549 56.9405 71.0841 57.2231 71.7489 57.2475C72.0735 57.273 72.3999 57.2333 72.709 57.1309C73.018 57.0285 73.3035 56.8654 73.5486 56.6511C73.7937 56.4369 73.9936 56.1758 74.1364 55.8832C74.2792 55.5906 74.3622 55.2724 74.3803 54.9474C74.3856 54.2821 74.1314 53.6409 73.6716 53.1601C73.2117 52.6793 72.5826 52.3966 71.9177 52.3723C71.5933 52.3476 71.2672 52.3879 70.9586 52.4906C70.6499 52.5933 70.3647 52.7565 70.1198 52.9706C69.8748 53.1847 69.675 53.4455 69.5319 53.7377C69.3888 54.0298 69.3053 54.3476 69.2863 54.6724Z" fill="#263238"/>
<path d="M89.1747 74.5419C95.119 74.5419 99.9378 71.3126 99.9378 67.329C99.9378 63.3455 95.119 60.1162 89.1747 60.1162C83.2305 60.1162 78.4117 63.3455 78.4117 67.329C78.4117 71.3126 83.2305 74.5419 89.1747 74.5419Z" fill="#263238"/>
<path d="M90.281 69.873C90.2975 70.252 90.2702 70.6316 90.1998 71.0043C90.1185 71.7231 90.0685 72.7607 90.031 74.0607C90.0355 75.6049 89.8741 77.145 89.5498 78.6547C89.3289 79.5583 88.9795 80.4255 88.5122 81.2298C88.0005 82.1177 87.2675 82.8579 86.3846 83.3782C85.5017 83.8985 84.4991 84.1812 83.4745 84.1987C82.5376 84.2265 81.6025 84.1019 80.7056 83.8299C79.2255 83.3281 77.8595 82.5378 76.6867 81.5048C75.9013 80.8302 75.1602 80.1057 74.4678 79.336C74.1854 79.0697 73.9452 78.762 73.7553 78.4234C73.7865 78.3859 74.099 78.6485 74.6428 79.1297C75.1866 79.611 75.9491 80.336 76.9679 81.1236C78.1281 82.062 79.4528 82.7762 80.8744 83.2299C81.7229 83.5037 82.6175 83.606 83.5059 83.5309C84.3944 83.4558 85.259 83.2047 86.0496 82.7924C87.6809 81.8361 88.5497 80.0735 88.9622 78.4797C89.3083 77.0126 89.5175 75.5165 89.5873 74.0107C89.644 72.9788 89.7672 71.9517 89.956 70.9356C90.0023 70.5653 90.1123 70.2059 90.281 69.873Z" fill="#263238"/>
<path d="M104.382 78.9554C104.419 78.9866 104.213 79.2679 103.8 79.7429C103.217 80.4078 102.59 81.0341 101.925 81.618C100.948 82.5297 99.8153 83.2599 98.5814 83.7743C97.0275 84.4314 95.2871 84.4981 93.6875 83.9618C92.8627 83.6529 92.125 83.149 91.5373 82.493C91.0092 81.8935 90.5865 81.2088 90.2873 80.4679C89.7793 79.2264 89.5223 77.8966 89.531 76.5552C89.5186 75.6715 89.5688 74.788 89.681 73.9114C89.6851 73.5839 89.7487 73.2599 89.8685 72.9551C89.9429 73.2723 89.9641 73.5997 89.931 73.9239C89.931 74.5489 89.931 75.4427 89.9873 76.5365C90.0457 77.8063 90.3315 79.0553 90.8311 80.2242C91.4178 81.6387 92.5417 82.7626 93.9562 83.3493C95.4127 83.8245 96.9898 83.7737 98.4127 83.2055C99.5983 82.7385 100.7 82.082 101.675 81.2617C103.357 79.8804 104.319 78.8741 104.382 78.9554Z" fill="#263238"/>
<path d="M93.3687 87.3679C93.4187 87.4242 93.0687 87.8367 92.3374 88.2992C91.3652 88.8745 90.2757 89.2227 89.1502 89.3179C88.0246 89.4132 86.8921 89.2529 85.8371 88.8492C85.037 88.5242 84.6245 88.1742 84.6683 88.1117C84.712 88.0492 85.1933 88.2179 85.9808 88.4117C88.0295 88.9345 90.1946 88.7495 92.1249 87.8867C92.8687 87.5617 93.3062 87.2867 93.3687 87.3679Z" fill="#263238"/>
<path d="M88.8435 62.3232C88.8435 62.5544 88.306 62.7919 87.4372 63.0482C86.3433 63.3313 85.27 63.6884 84.2245 64.117C83.2487 64.556 82.3644 65.1752 81.6181 65.9421C81.0431 66.5359 80.7431 67.0296 80.5118 66.9671C80.2806 66.9046 80.2118 66.2483 80.6618 65.3045C81.29 64.108 82.3123 63.1652 83.5557 62.6357C84.7371 62.1202 86.0174 61.8706 87.3059 61.9044C88.2434 61.9356 88.8247 62.1044 88.8435 62.3232Z" fill="white"/>
<path d="M73.1615 46.7655C73.1052 47.2218 72.5365 47.5468 71.7677 47.8718C70.9989 48.1968 70.0113 48.5406 68.9488 48.9719C67.8862 49.4031 66.9425 49.8407 66.1612 50.1469C65.3799 50.4532 64.7423 50.6032 64.3861 50.3157C64.0298 50.0282 64.0798 49.3156 64.6298 48.4406C65.4028 47.3354 66.4795 46.478 67.7297 45.9721C68.9799 45.4663 70.3499 45.3337 71.6739 45.5905C72.6865 45.828 73.2115 46.328 73.1615 46.7655Z" fill="#263238"/>
<path d="M112.457 47.2787C112.12 47.5912 111.438 47.4287 110.582 47.1225C109.726 46.8162 108.619 46.3599 107.401 45.9411C106.182 45.5224 105.038 45.2224 104.157 44.9411C103.275 44.6598 102.632 44.3723 102.557 43.916C102.482 43.4598 103.038 42.9535 104.132 42.666C105.555 42.331 107.044 42.3998 108.431 42.8647C109.818 43.3295 111.048 44.172 111.982 45.2974C112.663 46.2162 112.776 46.9849 112.457 47.2787Z" fill="#263238"/>
<path d="M151.021 28.9092C150.921 28.9655 150.459 27.9654 149.278 26.7341C147.757 25.1118 145.741 24.0392 143.546 23.6841C141.351 23.329 139.1 23.7114 137.146 24.7715C135.633 25.5716 134.883 26.3654 134.802 26.2841C134.721 26.2029 135.389 25.3153 136.914 24.3715C138.926 23.1349 141.316 22.6623 143.647 23.0397C145.978 23.4172 148.096 24.6196 149.615 26.4279C150.771 27.7967 151.084 28.8905 151.021 28.9092Z" fill="#263238"/>
<path d="M146.821 45.6788C146.715 45.6788 146.334 44.2975 145.49 42.1161C145.065 41.0286 144.509 39.7535 143.815 38.366C143.045 36.8794 142.191 35.4374 141.258 34.047C140.309 32.6685 139.287 31.3415 138.196 30.0718C137.177 28.9093 136.214 27.903 135.377 27.0904C133.696 25.4591 132.577 24.5278 132.639 24.4466C132.702 24.3653 132.977 24.6028 133.514 24.9903C134.052 25.3779 134.802 25.9716 135.689 26.7529C136.73 27.6689 137.717 28.6435 138.646 29.6718C139.771 30.9399 140.815 32.2781 141.771 33.6782C142.741 35.0943 143.614 36.5749 144.384 38.1097C144.987 39.3586 145.511 40.6446 145.952 41.9599C146.26 42.8436 146.512 43.7453 146.709 44.66C146.804 44.9907 146.842 45.3353 146.821 45.6788Z" fill="#263238"/>
<path d="M41.0287 39.5281C41.0343 39.181 41.0955 38.837 41.21 38.5093C41.285 38.1843 41.3913 37.7905 41.535 37.3405C41.6788 36.8905 41.8288 36.3717 42.0538 35.8154C42.5393 34.5038 43.1071 33.2241 43.7539 31.984C45.3347 28.9399 47.3496 26.1418 49.7354 23.6774C50.7072 22.6725 51.7405 21.729 52.8293 20.8522C53.2856 20.4647 53.7293 20.1585 54.1106 19.8772C54.4919 19.5959 54.8294 19.3709 55.1169 19.1959C55.3931 18.9842 55.7011 18.8175 56.0294 18.7021C56.0919 18.7959 54.8919 19.6459 53.1293 21.2023C52.2418 21.9773 51.2542 22.9523 50.1729 24.0836C49.032 25.3253 47.9635 26.6317 46.9728 27.9963C45.9934 29.3672 45.096 30.7947 44.2852 32.2715C43.5476 33.6341 42.9413 34.9029 42.4851 36.0217C41.56 38.1593 41.135 39.5594 41.0287 39.5281Z" fill="#263238"/>
<path d="M132.627 96.7311C132.418 96.9589 132.19 97.168 131.945 97.3561C131.477 97.7499 130.827 98.3812 129.889 99.0687C127.292 101.083 124.523 102.865 121.614 104.394C117.298 106.67 112.754 108.482 108.057 109.8C105.279 110.568 102.46 111.178 99.6127 111.626C96.5555 112.099 93.4683 112.354 90.3748 112.388C87.2753 112.409 84.1792 112.175 81.1181 111.688C78.2682 111.262 75.4494 110.648 72.6802 109.85C70.1732 109.139 67.7087 108.286 65.2986 107.294C64.1861 106.782 63.086 106.338 62.0735 105.825L60.5859 105.063C60.0984 104.819 59.6296 104.569 59.1859 104.294C56.3014 102.707 53.6247 100.77 51.2167 98.5249L50.5917 97.9687C50.4042 97.7874 50.2479 97.5999 50.0979 97.4374L49.3791 96.6123C49.146 96.3955 48.9365 96.1545 48.7541 95.8936C48.9983 96.0848 49.228 96.2937 49.4417 96.5186L50.2417 97.3061C50.4042 97.4624 50.5667 97.6374 50.7542 97.8124L51.3792 98.3437C53.834 100.495 56.5266 102.36 59.4046 103.9C59.8484 104.163 60.3172 104.406 60.8047 104.638L62.286 105.375C63.2985 105.875 64.3861 106.307 65.4986 106.8C67.8965 107.769 70.3462 108.603 72.8365 109.3C75.5839 110.079 78.3797 110.677 81.2056 111.088C84.2346 111.56 87.2969 111.785 90.3623 111.763C93.4259 111.736 96.4837 111.491 99.5127 111.032C102.334 110.591 105.13 109.998 107.888 109.257C112.556 107.971 117.081 106.216 121.395 104.019C124.306 102.538 127.092 100.824 129.727 98.8937C130.689 98.2687 131.364 97.6436 131.858 97.2874C132.094 97.075 132.351 96.8885 132.627 96.7311Z" fill="#263238"/>
<path d="M94.0562 2.8764C94.35 3.23892 93.1124 4.67024 92.3499 6.75783C91.5873 8.84543 91.5248 10.7205 91.0623 10.7955C90.8498 10.833 90.556 10.358 90.4373 9.50171C90.2903 8.37937 90.4278 7.23807 90.8373 6.18281C91.2267 5.1241 91.8707 4.17748 92.7124 3.42643C93.3874 2.87641 93.9187 2.7139 94.0562 2.8764Z" fill="#E01F24"/>
<path d="M101.982 0.0824805C102.188 0.5075 99.619 2.02632 97.4876 4.86395C95.3563 7.70158 94.5125 10.5455 94.0437 10.4892C93.8374 10.4517 93.7562 9.64542 94.0437 8.39536C94.4441 6.76516 95.1807 5.2366 96.2063 3.90765C97.214 2.57102 98.4917 1.4615 99.9565 0.651254C101.094 0.0199751 101.882 -0.111278 101.982 0.0824805Z" fill="#E01F24"/>
<path d="M89.006 107.619C88.9721 107.52 88.9531 107.417 88.9497 107.312C88.9497 107.106 88.881 106.806 88.856 106.419C88.7935 105.637 88.7372 104.543 88.7122 103.112C88.6497 100.325 88.7122 96.4743 88.806 92.2179C88.8997 87.9615 89.0935 84.0925 89.2497 81.3361C89.331 79.9423 89.3997 78.836 89.4622 78.0422C89.4935 77.6797 89.5185 77.4172 89.5372 77.1422C89.5411 77.0384 89.5579 76.9356 89.5872 76.8359C89.6035 76.9395 89.6035 77.0449 89.5872 77.1485C89.5872 77.3922 89.5872 77.686 89.5872 78.0485C89.5872 78.8735 89.5247 79.9923 89.481 81.3424C89.3872 84.1738 89.2685 87.9989 89.131 92.2304C88.9935 96.4618 88.9372 100.325 88.9435 103.112C88.9435 104.506 88.9435 105.612 88.981 106.412C89.0114 106.814 89.0197 107.216 89.006 107.619Z" fill="#263238"/>
<path d="M39.9037 39.9158C39.7884 39.8797 39.6789 39.8271 39.5787 39.7596C39.3787 39.6346 39.0599 39.4846 38.6912 39.222C37.6321 38.5215 36.6587 37.6991 35.791 36.7719C34.4947 35.3941 33.427 33.8179 32.6284 32.103C31.6268 30.0059 31.0713 27.7238 30.997 25.401C30.9228 23.0782 31.3314 20.7653 32.1971 18.6086C32.8838 16.8476 33.8481 15.208 35.0535 13.7521C35.8612 12.7702 36.7799 11.8851 37.7911 11.1145C38.1412 10.8332 38.4162 10.6645 38.6412 10.527C38.7398 10.4574 38.8444 10.3968 38.9537 10.3457C38.9537 10.3457 38.5662 10.652 37.8724 11.2145C36.8998 12.0114 36.0155 12.9103 35.2348 13.8959C34.0723 15.3522 33.1424 16.98 32.4784 18.7211C31.6426 20.8432 31.2492 23.1138 31.3223 25.3934C31.3954 27.673 31.9334 29.9137 32.9034 31.978C34.2004 34.8267 36.2166 37.2888 38.7537 39.122C39.4912 39.6346 39.9162 39.8908 39.9037 39.9158Z" fill="#263238"/>
<path d="M151.509 17.5898C151.616 17.6219 151.717 17.6704 151.809 17.7336C152.089 17.8843 152.357 18.0578 152.609 18.2524C153.522 19.0008 154.28 19.9201 154.84 20.9587C155.671 22.493 156.24 24.1557 156.522 25.8777C156.89 27.9903 156.805 30.1571 156.272 32.2343C155.743 34.3009 154.9 36.274 153.771 38.0845C152.815 39.5337 151.725 40.8898 150.515 42.1347C149.503 43.2098 148.64 44.0536 148.077 44.6348C147.809 44.9036 147.59 45.1286 147.409 45.3036C147.335 45.3884 147.251 45.4639 147.159 45.5286C147.216 45.4322 147.283 45.3421 147.359 45.2599C147.496 45.0911 147.709 44.8536 147.984 44.5473L150.346 41.9722C151.519 40.7178 152.58 39.3625 153.515 37.922C154.618 36.1314 155.444 34.1843 155.965 32.1468C156.495 30.1057 156.587 27.9755 156.234 25.8965C155.972 24.201 155.438 22.559 154.653 21.0338C154.12 20.0085 153.404 19.0892 152.54 18.3211C151.884 17.8274 151.484 17.6273 151.509 17.5898Z" fill="#263238"/>
<path d="M89.731 12.2451C89.7475 12.3968 89.7475 12.5497 89.731 12.7014L89.656 13.9952C89.5935 15.1577 89.4935 16.7766 89.381 18.7642C89.156 22.7956 88.9185 28.3584 88.831 34.5149C88.7435 40.6714 88.831 46.2404 88.956 50.2719C89.0185 52.2595 89.0685 53.8783 89.106 55.0471C89.106 55.5846 89.106 56.0159 89.1372 56.3472C89.1522 56.4968 89.1522 56.6475 89.1372 56.7972C89.1029 56.6495 89.0841 56.4987 89.081 56.3472C89.056 56.0221 89.0247 55.5909 88.9872 55.0533C88.906 53.9283 88.8185 52.297 88.731 50.2781C88.556 46.2467 88.431 40.6714 88.5122 34.5086C88.5935 28.3459 88.8747 22.7769 89.1372 18.7517C89.281 16.7391 89.4122 15.1078 89.5185 13.9889C89.5727 13.4514 89.6164 13.0201 89.6498 12.6951C89.664 12.5431 89.6912 12.3925 89.731 12.2451Z" fill="#263238"/>
<g opacity="0.2">
<path d="M120.864 93.7363C117.426 98.9178 111.207 103.193 105.144 105.443C98.9804 107.623 92.3957 108.346 85.9058 107.556C78.468 106.724 70.8114 105.506 64.4548 101.187C64.4548 101.187 81.5369 112.268 101.075 109.056C113.182 107.068 120.864 93.7363 120.864 93.7363Z" fill="black"/>
</g>
<g opacity="0.3">
<path d="M47.0415 159.302C49.632 159.855 52.3087 159.868 54.9044 159.34C57.5092 158.801 59.8804 157.462 61.686 155.509C62.9751 154.004 63.9239 152.239 64.4673 150.333C65.8224 145.621 65.5717 140.593 63.7548 136.039C62.8938 133.99 61.5022 132.208 59.7234 130.876C57.2404 128.855 55.1935 126.351 53.7066 123.516C52.2197 120.681 51.3237 117.573 51.073 114.382C50.9693 113.175 51.0029 111.961 51.173 110.763L47.5103 114.45L42.4351 158.659L47.0415 159.302Z" fill="black"/>
</g>
<path d="M51.3542 133.57C48.4978 129.595 43.6726 125.857 44.0914 120.982C44.5352 115.813 51.9105 109.869 56.0669 106.762L50.1479 95.9805C36.6535 97.8243 22.7154 106.825 15.8338 118.575C12.4337 124.382 10.3461 131.045 10.4398 137.77C10.5336 144.495 12.9024 151.277 17.4839 156.208C19.344 158.221 21.5525 159.881 24.003 161.108C32.1658 165.152 43.6476 163.559 49.7917 156.833C51.8293 154.602 54.2106 150.996 54.5981 147.995C55.2294 143.139 54.2356 137.582 51.3542 133.57Z" fill="#E01F24"/>
<path d="M53.3231 109.05C53.1378 109.256 52.9279 109.439 52.6981 109.594L50.923 111.087C49.9942 111.871 49.1095 112.706 48.2729 113.588C47.1617 114.746 46.2342 116.068 45.5227 117.506C44.6574 119.233 44.2771 121.162 44.4227 123.088C44.5316 124.145 44.8526 125.17 45.3665 126.101C45.9279 127.092 46.6102 128.009 47.3978 128.832C48.9854 130.557 50.948 132.22 52.3543 134.488C53.8086 136.811 54.7427 139.421 55.0923 142.139C55.4419 144.857 55.1987 147.618 54.3794 150.233C53.9832 151.47 53.4464 152.657 52.7793 153.771C52.4731 154.333 52.0855 154.827 51.7418 155.339C51.398 155.852 50.9792 156.314 50.573 156.765C47.6664 159.955 43.8243 162.143 39.5975 163.015L38.9349 163.159L38.3099 163.252L37.0598 163.421C36.2411 163.465 35.466 163.515 34.7472 163.521L32.6909 163.427L31.0158 163.227L30.3033 163.134L29.6783 163.002L28.7532 162.802C28.4863 162.758 28.2245 162.687 27.9719 162.59C28.2429 162.586 28.5135 162.613 28.7782 162.671L29.747 162.821L30.372 162.915L31.0846 162.984L32.7471 163.127H34.7285C35.441 163.127 36.1973 163.034 37.0036 162.977L38.2536 162.79L38.8787 162.69L39.5037 162.534C43.6023 161.625 47.3161 159.462 50.1292 156.346C50.5167 155.908 50.8792 155.433 51.248 154.958C51.6168 154.483 51.9543 153.977 52.2418 153.433C52.8823 152.359 53.3962 151.213 53.7731 150.02C54.5659 147.501 54.8005 144.839 54.4607 142.22C54.1476 139.598 53.2598 137.078 51.8605 134.839C50.5292 132.657 48.6229 131.026 47.0041 129.213C46.1872 128.352 45.4835 127.39 44.9102 126.351C44.3707 125.35 44.0391 124.251 43.9352 123.119C43.8106 121.096 44.2429 119.077 45.1852 117.281C45.9382 115.817 46.9169 114.479 48.0854 113.319C48.9484 112.44 49.867 111.617 50.8355 110.856C51.6293 110.231 52.2605 109.762 52.7106 109.456C52.9006 109.3 53.1058 109.164 53.3231 109.05Z" fill="#263238"/>
<g opacity="0.6">
<path d="M46.8291 140.702C43.9352 135.577 37.2349 134.92 35.391 135.758C33.6572 135.919 31.9932 136.52 30.5569 137.504C29.1206 138.489 27.9597 139.824 27.1844 141.383C26.3276 142.998 25.9327 144.818 26.0429 146.643C26.1532 148.468 26.7644 150.227 27.8094 151.727C30.0408 154.765 34.0597 156.159 37.8099 155.99C40.86 155.852 43.9414 154.74 46.0103 152.49C48.8979 149.371 48.9229 144.408 46.8291 140.702Z" fill="white"/>
</g>
<path d="M44.2914 129.739C44.1344 129.721 43.9795 129.687 43.8289 129.639C43.5226 129.57 43.0976 129.414 42.5163 129.314C40.897 128.964 39.2403 128.819 37.5849 128.883C35.1302 128.96 32.7098 129.481 30.4408 130.42C27.6373 131.52 25.1376 133.275 23.1501 135.537C21.1625 137.8 19.7449 140.505 19.0152 143.427C18.3716 145.797 18.1599 148.264 18.3902 150.709C18.5402 152.359 18.8972 153.985 19.4528 155.546C19.6278 156.103 19.8403 156.509 19.9465 156.796C20.0085 156.941 20.0628 157.089 20.109 157.24C20.0192 157.109 19.9437 156.969 19.884 156.821C19.6775 156.415 19.4939 155.998 19.334 155.571C18.7296 154.012 18.3365 152.379 18.1652 150.715C18.0429 149.565 18.0136 148.407 18.0777 147.252C18.1664 145.93 18.3756 144.618 18.7027 143.333C19.4273 140.359 20.8609 137.605 22.8809 135.305C24.901 133.005 27.4476 131.228 30.3033 130.126C31.5354 129.637 32.8094 129.26 34.1097 129.001C35.2459 128.787 36.3977 128.666 37.5536 128.639C39.2244 128.597 40.8933 128.777 42.5163 129.176C42.9587 129.281 43.3948 129.41 43.8226 129.564C43.9821 129.613 44.1386 129.672 44.2914 129.739Z" fill="#263238"/>
<path d="M19.784 141.72C19.4943 141.705 19.2109 141.63 18.9517 141.5C18.6924 141.37 18.4629 141.187 18.2777 140.964C18.054 140.78 17.8704 140.551 17.7382 140.293C17.606 140.035 17.528 139.753 17.5089 139.464C17.5964 139.433 17.8777 140.089 18.509 140.714C19.1402 141.339 19.8153 141.633 19.784 141.72Z" fill="#263238"/>
<path d="M21.5341 138.752C20.8179 138.501 20.1932 138.042 19.7403 137.433C19.2055 136.896 18.8459 136.209 18.709 135.464C18.7965 135.427 19.2028 136.32 19.959 137.22C20.7153 138.12 21.5841 138.67 21.5341 138.752Z" fill="#263238"/>
<path d="M39.4787 131.964C39.3849 131.964 39.3287 131.126 38.8912 130.22C38.4536 129.314 37.8474 128.726 37.9099 128.651C38.4873 128.957 38.9322 129.464 39.1599 130.076C39.503 130.642 39.617 131.317 39.4787 131.964Z" fill="#263238"/>
<path d="M42.4351 132.139C42.3413 132.139 42.4663 131.445 42.2226 130.67C41.9788 129.895 41.5163 129.42 41.5975 129.339C41.6788 129.257 42.2851 129.701 42.5476 130.589C42.6476 130.839 42.6895 131.108 42.67 131.377C42.6505 131.645 42.5702 131.906 42.4351 132.139Z" fill="#263238"/>
<path d="M37.3286 100.375C37.2188 100.476 37.0995 100.566 36.9723 100.644L35.916 101.363C35.0035 101.988 33.6972 102.913 32.1658 104.15C30.3604 105.599 28.6737 107.189 27.1218 108.907C25.2232 111.004 23.6035 113.338 22.3029 115.851C21.0027 118.365 20.1163 121.073 19.6777 123.87C19.3306 126.148 19.3306 128.467 19.6777 130.745C19.9273 132.283 20.3465 133.788 20.9278 135.233C21.3466 136.258 21.6466 136.795 21.6091 136.814C21.5256 136.69 21.4505 136.561 21.3841 136.427C21.2341 136.177 21.0466 135.802 20.8153 135.283C20.1813 133.844 19.7258 132.332 19.459 130.783C19.068 128.476 19.0385 126.123 19.3715 123.807C19.7965 120.972 20.6877 118.226 22.0091 115.682C23.3177 113.151 24.9548 110.803 26.8781 108.7C28.4492 106.983 30.1615 105.4 31.9971 103.969C33.5659 102.719 34.8972 101.85 35.8348 101.256C36.3035 100.956 36.6723 100.731 36.9223 100.588C37.0514 100.505 37.1874 100.434 37.3286 100.375Z" fill="#263238"/>
<g opacity="0.3">
<path d="M103.319 172.266C106.332 169.678 96.2063 175.747 92.3436 176.71C89.71 177.258 86.9701 176.949 84.5245 175.829C82.094 174.709 79.7892 173.335 77.6492 171.728C77.6492 171.728 86.4434 183.379 87.0809 189.442H94.5812C94.5812 189.442 96.4313 178.191 103.319 172.266Z" fill="black"/>
</g>
</svg>
